<svg version="1.1" xmlns="http://www.w3.org/2000/svg" xmlns:xlink="http://www.w3.org/1999/xlink" width="889.92939" height="683.7489" viewBox="0,0,889.92939,683.7489"><defs><linearGradient x1="-35.25018" y1="179.69304" x2="673.74982" y2="179.69304" gradientUnits="userSpaceOnUse" id="color-1"><stop offset="0" stop-color="#be66ff"/><stop offset="1" stop-color="#ffb666"/></linearGradient><radialGradient cx="515.09511" cy="228.7797" r="136.8707" gradientUnits="userSpaceOnUse" id="color-2"><stop offset="0" stop-color="#3e0e6b" stop-opacity="0.51373"/><stop offset="1" stop-color="#3e0e6b" stop-opacity="0"/></radialGradient><linearGradient x1="529.94607" y1="181.40224" x2="516.88852" y2="273.9781" gradientUnits="userSpaceOnUse" id="color-3"><stop offset="0" stop-color="#f2b34d"/><stop offset="1" stop-color="#f2544e"/></linearGradient><linearGradient x1="529.21389" y1="186.5934" x2="517.62073" y2="268.78694" gradientUnits="userSpaceOnUse" id="color-4"><stop offset="0" stop-color="#b9643b"/><stop offset="1" stop-color="#cb4641"/></linearGradient><linearGradient x1="528.77189" y1="189.72709" x2="518.06273" y2="265.65325" gradientUnits="userSpaceOnUse" id="color-5"><stop offset="0" stop-color="#f2b34d"/><stop offset="1" stop-color="#f2544e"/></linearGradient><linearGradient x1="320.18791" y1="31.42099" x2="320.18791" y2="394.56921" gradientUnits="userSpaceOnUse" id="color-6"><stop offset="0" stop-color="#4d1079" stop-opacity="0"/><stop offset="1" stop-color="#4d1079" stop-opacity="0.50196"/></linearGradient></defs><g transform="translate(87.94815,162.18148)"><g data-paper-data="{&quot;isPaintingLayer&quot;:true}" fill-rule="nonzero" stroke-linejoin="miter" stroke-miterlimit="10" stroke-dasharray="" stroke-dashoffset="0" style="mix-blend-mode: normal"><path d="M800.48124,91.41147c0,-0.41421 0.33579,-0.75 0.75,-0.75c0.41421,0 0.75,0.33579 0.75,0.75c0,0.41421 -0.33579,0.75 -0.75,0.75c-0.41421,0 -0.75,-0.33579 -0.75,-0.75z" fill="#e266ff" stroke="none" stroke-width="0.5" stroke-linecap="butt"/><path d="M-35.25018,392.69304v-426h709v426z" fill="url(#color-1)" stroke="none" stroke-width="NaN" stroke-linecap="butt"/><g stroke-linecap="butt"><path d="M378.22441,228.7797c0,-75.5916 61.27911,-136.87071 136.8707,-136.87071c75.5916,0 136.8707,61.27911 136.8707,136.87071c0,75.5916 -61.2791,136.8707 -136.8707,136.8707c-75.5916,0 -136.8707,-61.2791 -136.8707,-136.8707z" fill="url(#color-2)" stroke="none" stroke-width="0"/><path d="M390.8641,331.4471c2.10728,0.77943 -4.5096,7.67807 -4.1631,7.81833c0.48271,0.19537 22.72748,-17.16654 34.34091,-33.07234c1.14815,-1.57253 2.66687,-0.47089 3.82327,-2.05725c12.80052,-17.55981 30.16703,-38.55298 30.60051,-38.71163c13.52765,-4.95113 32.67488,20.3432 32.39511,22.8507c-0.01259,0.11282 -27.66831,23.03794 -45.61746,41.01955c-0.94751,0.94923 1.2301,1.38479 0.28809,2.32607c-13.45202,13.44131 -31.15648,25.62876 -34.81838,28.42208c-8.73937,6.66638 -38.33101,8.10017 -38.72198,-1.2373c-0.55682,-13.29816 10.06262,-34.85589 11.85459,-43.61215c0.14763,-0.72145 9.46903,16.05075 10.0184,16.25395z" data-paper-data="{&quot;index&quot;:null}" fill="#915c9c" stroke="#3e0e6c" stroke-width="2.5"/><path d="M401.6055,132.52704c-0.7068,-8.90974 -8.608,-31.60508 -6.42784,-44.73516c1.53084,-9.21945 30.72458,-4.17472 38.58234,3.51114c3.2925,3.22049 19.37225,17.48313 31.07806,32.46976c0.81975,1.0495 -1.39481,1.21526 -0.57062,2.27331c15.61345,20.04321 40.25547,46.18073 40.25417,46.29422c-0.02919,2.52289 -22.12822,25.28365 -34.94822,18.71413c-0.41078,-0.21051 -15.07745,-23.1713 -25.63261,-42.16573c-0.95358,-1.71597 -2.59569,-0.8085 -3.54277,-2.50972c-9.57943,-17.20756 -29.53206,-37.16147 -30.03505,-37.02663c-0.36108,0.09682 5.36177,7.7534 3.17494,8.26905c-0.57011,0.13443 -11.87419,15.6397 -11.9324,14.90563z" data-paper-data="{&quot;index&quot;:null}" fill="#915c9c" stroke="#3e0e6c" stroke-width="2.5"/><path d="M648.92333,344.14775c-0.31974,8.93203 4.92624,32.38384 1.2545,45.17716c-2.57817,8.983 -31.00062,0.6232 -37.925,-7.91317c-2.90141,-3.57684 -17.23917,-19.58964 -27.14883,-35.82c-0.69395,-1.13658 1.52499,-1.04725 0.82756,-2.19286c-13.21155,-21.70171 -34.69311,-50.49309 -34.67879,-50.60568c0.31839,-2.5029 24.88212,-22.5788 36.864,-14.58222c0.38394,0.25626 12.32031,24.74768 20.62725,44.82741c0.75046,1.81404 2.48585,1.10086 3.23154,2.89949c7.54258,18.19273 25.07495,40.30341 25.59008,40.22715c0.36979,-0.05476 -4.4371,-8.31721 -2.20556,-8.57864c0.58176,-0.06813 13.5896,-14.17457 13.56326,-13.43865z" data-paper-data="{&quot;index&quot;:null}" fill="#915c9c" stroke="#3e0e6c" stroke-width="2.5"/><path d="M663.58512,135.44874c-2.09561,-0.81027 4.6218,-7.61106 4.27739,-7.75639c-0.47979,-0.20244 -22.97695,16.83116 -34.82254,32.56481c-1.1711,1.55551 -2.6735,0.43168 -3.85309,2.00091c-13.05683,17.37006 -30.72956,38.10613 -31.1653,38.25839c-13.59888,4.75206 -32.37284,-20.82051 -32.05628,-23.32363c0.01424,-0.11262 28.00342,-22.62943 46.21449,-40.34572c0.96133,-0.93524 -1.20966,-1.40271 -0.25393,-2.33005c13.64781,-13.24245 31.5292,-25.16876 35.23171,-27.90802c8.83624,-6.53741 38.44575,-7.53678 38.69966,1.80542c0.3616,13.30491 -10.57304,34.70445 -12.49333,43.43347c-0.1582,0.7192 -9.23248,-16.18799 -9.7788,-16.39921z" data-paper-data="{&quot;index&quot;:null}" fill="#915c9c" stroke="#3e0e6c" stroke-width="2.5"/><path d="" data-paper-data="{&quot;index&quot;:null}" fill="#915c9c" stroke="#3e0e6c" stroke-width="2.5"/><g><path d="M592.38311,237.75817c-5.46219,38.72585 -40.56548,65.79268 -78.40546,60.45546c-37.83995,-5.33722 -64.08736,-41.05739 -58.62517,-79.78324c5.46219,-38.72585 40.56548,-65.79268 78.40543,-60.45546c37.83995,5.33722 64.08736,41.05739 58.62518,79.78324z" fill="#762e36" stroke="#3e0e6c" stroke-width="2.5"/><g fill="#4e175c" stroke="none" stroke-width="0"><g><g><path d="M522.22552,169.69341c-0.07118,-2.57022 3.81073,-4.75711 8.67051,-4.88452c4.85978,-0.12742 8.85708,1.8529 8.92827,4.42313c0.05311,1.91736 -7.27112,10.80903 -8.50553,10.8414c-2.21417,0.05806 -9.05448,-8.98084 -9.09322,-10.38002z"/><path d="M541.00087,169.40711c1.03611,-2.32084 5.44147,-2.4086 9.83958,-0.196c4.39811,2.21257 7.12352,5.88764 6.08741,8.20846c-0.77293,1.73134 -11.12377,6.13687 -12.2409,5.57488c-2.00383,-1.00809 -4.25013,-12.32393 -3.68609,-13.58737z"/><path d="M557.99431,178.01424c1.5267,-1.99344 5.83138,-0.97698 9.61487,2.27031c3.78349,3.24731 5.61297,7.49582 4.0863,9.48928c-1.13891,1.48713 -12.19214,3.17469 -13.15318,2.34984c-1.72381,-1.47953 -1.37911,-13.02419 -0.548,-14.10941z"/><path d="M580.10704,197.33753c1.99219,4.69997 1.80952,9.35554 -0.40796,10.39845c-1.65421,0.77803 -12.25554,-3.01075 -12.76158,-4.20459c-0.90767,-2.14139 4.3401,-12.2478 5.54726,-12.81557c2.21748,-1.0429 5.63009,1.92174 7.62228,6.62171z"/><path d="M582.38982,208.98715c2.42879,0.11984 4.23173,4.38089 4.02704,9.51735c-0.20469,5.13648 -2.33957,9.20326 -4.76833,9.08345c-1.81184,-0.0894 -9.70801,-8.49036 -9.65603,-9.79505c0.09327,-2.34026 9.07517,-8.87098 10.39735,-8.80575z"/></g><g data-paper-data="{&quot;index&quot;:null}"><path d="M522.02539,168.95346c0.03874,1.39918 -6.29131,10.78331 -8.50551,10.84138c-1.23441,0.03236 -9.04016,-8.46262 -9.09327,-10.38c-0.07118,-2.57022 3.8107,-4.75711 8.67048,-4.88453c4.85978,-0.12742 8.85709,1.85291 8.92829,4.42313z"/><path d="M503.26149,169.65134c0.63315,1.23203 -0.98357,12.64917 -2.92872,13.7608c-1.08442,0.61972 -11.66409,-3.23711 -12.53172,-4.92541c-1.16305,-2.26319 1.35502,-6.07569 5.62429,-8.51553c4.26927,-2.43984 8.67308,-2.58305 9.83613,-0.31986z"/><path d="M486.76908,179.13645c0.88997,1.04008 1.87315,12.54994 0.23374,14.11765c-0.91399,0.87398 -12.04458,-0.232 -13.26414,-1.65725c-1.63482,-1.91056 -0.04309,-6.24875 3.55515,-9.68958c3.59823,-3.44083 7.84044,-4.68135 9.47526,-2.77079z"/><path d="M473.00266,192.57878c1.23683,0.50368 7.03638,10.32052 6.24857,12.50633c-0.4392,1.21858 -10.81548,5.55736 -12.51036,4.86715c-2.27196,-0.92522 -2.71204,-5.56443 -0.98287,-10.36198c1.72914,-4.79755 4.9727,-7.93672 7.24469,-7.0115z"/><path d="M464.12323,211.34261c1.31666,-0.13441 10.647,5.91618 10.86966,8.24818c0.12412,1.30006 -7.29563,10.10258 -9.09992,10.28678c-2.41862,0.2469 -4.77548,-3.70213 -5.26416,-8.82042c-0.48868,-5.11829 1.07582,-9.46764 3.49444,-9.71454z"/></g></g><g data-paper-data="{&quot;index&quot;:null}"><g><path d="M523.29378,286.19119c-0.005,-1.3997 6.54953,-10.63808 8.76451,-10.64601c1.23485,-0.00443 8.83364,8.66493 8.84049,10.58302c0.00919,2.57115 -3.92435,4.66961 -8.78583,4.68701c-4.8615,0.0174 -8.80998,-2.05285 -8.81917,-4.624z"/><path d="M542.06931,285.91812c-0.60328,-1.24605 1.28819,-12.62352 3.25961,-13.69082c1.09906,-0.59501 11.58276,3.50017 12.40948,5.20766c1.10819,2.2889 -1.50111,6.04343 -5.82799,8.38599c-4.32691,2.34256 -8.73291,2.38608 -9.8411,0.09717z"/><path d="M558.78576,276.80879c-0.86465,-1.05995 -1.57011,-12.58898 0.10664,-14.11915c0.93479,-0.85309 12.03564,0.50448 13.22051,1.957c1.58828,1.94702 -0.10754,6.24807 -3.78773,9.60655c-3.68019,3.35848 -7.95113,4.50266 -9.53941,2.55563z"/><path d="M572.8724,263.6816c-1.22435,-0.53152 -6.78559,-10.47695 -5.9453,-12.64439c0.46847,-1.20834 10.94642,-5.31113 12.62417,-4.58274c2.24906,0.9764 2.57717,5.62429 0.73284,10.38143c-1.84433,4.75714 -5.16267,7.82208 -7.41171,6.8457z"/><path d="M582.2017,245.12373c-1.31953,0.10457 -10.50141,-6.15557 -10.66779,-8.49196c-0.09275,-1.30251 7.53713,-9.93475 9.34534,-10.07806c2.4239,-0.19209 4.68489,3.8092 5.05008,8.93716c0.36519,5.12796 -1.30373,9.44075 -3.72763,9.63284z"/></g><g data-paper-data="{&quot;index&quot;:null}"><path d="M514.33102,291.6237c-4.86151,0.0174 -8.80998,-2.05282 -8.81917,-4.62397c-0.00687,-1.91809 7.52968,-10.6416 8.76454,-10.64603c2.21497,-0.00793 8.83548,9.18331 8.84048,10.58302c0.00919,2.57115 -3.92435,4.66958 -8.78585,4.68698z"/><path d="M494.49831,286.77133c-4.34355,-2.31153 -6.97966,-6.04729 -5.88786,-8.34405c0.81444,-1.71337 11.2686,-5.88347 12.37189,-5.29634c1.97902,1.05316 3.95186,12.41681 3.35753,13.66713c-1.09179,2.29676 -5.49801,2.28481 -9.84156,-0.02672z"/><path d="M478.00118,275.3213c-3.70413,-3.33206 -5.43072,-7.62083 -3.85642,-9.57918c1.17444,-1.46094 12.2653,-2.89791 13.20616,-2.05155c1.68765,1.51812 1.06473,13.05193 0.20769,14.11806c-1.5743,1.95837 -5.85333,0.84479 -9.55746,-2.4873z"/><path d="M465.91788,257.99003c-1.87832,-4.74382 -1.58345,-9.39396 0.65854,-10.3864c1.67251,-0.74036 12.17957,3.2873 12.65669,4.49226c0.85579,2.16136 -4.63415,12.14633 -5.85465,12.68663c-2.24199,0.99247 -5.58223,-2.04865 -7.46055,-6.79246z"/><path d="M460.12006,236.68598c0.32846,-5.13046 2.56079,-9.14782 4.98597,-8.97307c1.80919,0.13037 9.5007,8.70777 9.41728,10.01093c-0.14963,2.33751 -9.28654,8.66319 -10.60676,8.56806c-2.42519,-0.17475 -4.12495,-4.47544 -3.79649,-9.60592z"/></g></g></g><g><path d="M477.48292,221.21126c3.60573,-25.56411 27.09433,-43.38721 52.46319,-39.80902c25.36886,3.57819 43.01137,27.20274 39.40561,52.76687c-3.60573,25.56411 -27.09433,43.38722 -52.46319,39.80902c-25.36886,-3.57819 -43.01134,-27.20274 -39.40561,-52.76684z" fill="url(#color-3)" stroke="#3e0e6c" stroke-width="2.5"/><path d="M482.63442,221.93784c3.20137,-22.69711 24.05571,-38.52138 46.57947,-35.34445c22.52376,3.17693 38.18766,24.15195 34.98631,46.84907c-3.20137,22.69711 -24.05573,38.52139 -46.57947,35.34445c-22.52376,-3.17693 -38.18766,-24.15198 -34.98628,-46.84909z" fill="url(#color-4)" stroke="none" stroke-width="0"/><path d="M485.7442,222.37648c2.95727,-20.96643 22.22142,-35.58406 43.02769,-32.64938c20.80629,2.93465 35.2758,22.31034 32.31853,43.27677c-2.95727,20.96643 -22.22142,35.58404 -43.02772,32.64936c-20.80629,-2.93465 -35.27577,-22.31035 -32.31853,-43.27675z" fill="url(#color-5)" stroke="none" stroke-width="0"/></g><path d="M445.48758,219.78683c3.28725,-23.30599 15.04956,-42.34975 31.90274,-54.29137c0.99132,-0.70243 -0.62025,-2.6847 0.40558,-3.33739c14.80091,-9.41695 35.74549,-12.29401 55.5243,-9.50427c1.52442,0.21501 3.8101,-1.76406 5.29338,-1.48426c22.96363,4.33133 41.09666,17.494 51.67598,34.82422c0.7108,1.16437 2.49737,1.10112 3.13854,2.30088c7.58639,14.19595 9.17242,32.07295 6.62384,50.14196c-0.32578,2.30975 3.18313,3.25721 2.6806,5.47191c-4.25638,18.75812 -15.86636,36.26502 -31.17388,46.82712c-1.36946,0.94493 -2.49513,-0.1039 -3.92597,0.75986c-16.49001,9.95448 -36.90834,14.43341 -57.85189,11.47939c-1.42515,-0.20102 -2.9333,0.21754 -4.33938,-0.04586c-28.92951,-5.4196 -51.95257,-25.60364 -60.26538,-48.26217c-0.88518,-2.41272 2.11505,-1.17282 1.49465,-3.7305c-2.30557,-9.50475 -2.7592,-19.97515 -1.18309,-31.14953zM515.27847,290.64786c34.16986,4.81957 65.77704,-18.97353 70.59661,-53.14341c4.81957,-34.16988 -18.97356,-65.77704 -53.14342,-70.59661c-34.16986,-4.81957 -65.77704,18.97356 -70.59661,53.14342c-4.81957,34.16988 18.97356,65.77704 53.14342,70.59661z" fill="#75587b" stroke="#3e0e6c" stroke-width="2.5"/><g fill="#ffe1da" stroke="#3e0e6c" stroke-width="2.5"><g><g><path d="M540.83329,162.99171c5.10664,0.60276 8.99112,3.28125 8.67634,5.98262c-0.23486,2.01521 -9.2489,10.2138 -10.54599,10.0607c-2.32667,-0.27462 -8.11808,-10.77285 -7.94671,-12.24343c0.31479,-2.70137 4.70972,-4.40264 9.81636,-3.79988z"/><path d="M550.71476,169.33591c1.43617,-2.27256 6.06109,-1.69715 10.32999,1.28526c4.26887,2.98241 6.56528,7.24236 5.12908,9.51492c-1.0714,1.6953 -12.57421,4.73924 -13.65853,3.98171c-1.94498,-1.35885 -2.5824,-13.54476 -1.80057,-14.78191z"/><path d="M567.20015,180.92015c1.90012,-1.85556 6.25244,-0.13944 9.72116,3.83302c3.46872,3.97245 4.74037,8.69703 2.84025,10.55256c-1.4175,1.38423 -13.24392,1.47656 -14.125,0.46752c-1.58041,-1.80994 0.52915,-13.84295 1.56356,-14.85309z"/><path d="M587.42128,204.49771c1.37351,5.22183 0.47711,10.0677 -2.00217,10.82356c-1.84953,0.56386 -12.37337,-5.00814 -12.72224,-6.33452c-0.62577,-2.37915 6.39855,-12.1639 7.74824,-12.57539c2.47928,-0.75586 5.60265,2.86451 6.97617,8.08634z"/><path d="M588.04638,217.03861c2.52432,0.49334 3.76626,5.22702 2.77394,10.57297c-0.99235,5.34595 -3.84319,9.27979 -6.36753,8.78645c-1.88315,-0.36802 -8.87656,-10.35841 -8.6245,-11.71631c0.45213,-2.43571 10.84387,-7.91167 12.21806,-7.64312z"/></g><g data-paper-data="{&quot;index&quot;:null}"><path d="M530.91946,165.98672c-0.17138,1.47058 -8.21931,10.33529 -10.54598,10.06067c-1.29709,-0.15311 -8.18158,-10.22822 -7.94672,-12.24343c0.31479,-2.70137 4.70972,-4.40264 9.81633,-3.79988c5.10664,0.60276 8.99115,3.28127 8.67636,5.98264z"/><path d="M511.17124,163.87504c0.47616,1.38564 -2.94564,13.09246 -5.15025,13.96149c-1.22906,0.48449 -11.71991,-5.15547 -12.37242,-7.05426c-0.87473,-2.54533 2.33877,-6.15492 7.17751,-8.06233c4.83874,-1.90739 9.47046,-1.39023 10.34516,1.15508z"/><path d="M492.46988,171.3061c0.77411,1.2236 0.05986,13.42132 -1.89379,14.8141c-1.08917,0.77645 -12.57341,-2.06729 -13.63419,-3.74404c-1.42195,-2.24767 0.90144,-6.54786 5.18933,-9.60477c4.28792,-3.05692 8.91667,-3.71292 10.33864,-1.46528z"/><path d="M476.02268,183.2926c1.21843,0.7146 5.80255,11.86959 4.64675,14.03842c-0.64434,1.20914 -12.1637,4.17933 -13.83339,3.20007c-2.2382,-1.3127 -1.99618,-6.2358 0.54065,-10.99606c2.53683,-4.76026 6.40779,-7.55512 8.64599,-6.24244z"/><path d="M463.88525,201.59003c1.39866,0.05876 10.24936,7.80595 10.12922,10.28086c-0.067,1.37974 -9.16752,9.47051 -11.08418,9.39004c-2.56925,-0.1079 -4.43833,-4.59883 -4.1746,-10.03078c0.26373,-5.43195 2.56028,-9.74798 5.12956,-9.64009z"/></g></g><g data-paper-data="{&quot;index&quot;:null}"><g><path d="M514.48876,288.90612c0.20679,-1.46601 8.46762,-10.14412 10.78751,-9.81691c1.29333,0.18243 7.93474,10.40875 7.65139,12.41768c-0.37982,2.69294 -4.81544,4.29381 -9.90721,3.57564c-5.09177,-0.71817 -8.91152,-3.48345 -8.5317,-6.17639z"/><path d="M534.18481,291.46431c-0.44277,-1.39576 3.26068,-13.01948 5.48605,-13.83815c1.24065,-0.45639 11.59497,5.41855 12.20172,7.33121c0.8134,2.56393 -2.4868,6.09903 -7.37115,7.89585c-4.88435,1.79682 -9.50326,1.175 -10.31663,-1.38894z"/><path d="M553.06382,284.46052c-0.74456,-1.24055 0.2633,-13.41627 2.25034,-14.76412c1.10779,-0.75142 12.52277,2.35119 13.54311,4.05119c1.36771,2.27881 -1.05903,6.52432 -5.42025,9.48261c-4.36122,2.95829 -9.00549,3.50911 -10.3732,1.23032z"/><path d="M569.79849,272.8524c-1.20119,-0.74187 -5.51635,-11.99538 -4.30839,-14.137c0.67344,-1.19394 12.2635,-3.9017 13.90949,-2.88509c2.20648,1.36279 1.84588,6.27803 -0.8054,10.97853c-2.65128,4.7005 -6.58924,7.40632 -8.79569,6.04353z"/><path d="M582.37565,254.83873c-1.39713,-0.0904 -10.06072,-8.03449 -9.88099,-10.50547c0.10022,-1.37759 9.39493,-9.25824 11.30952,-9.13438c2.56648,0.16606 4.32726,4.69721 3.93279,10.12061c-0.39446,5.4234 -2.79484,9.6853 -5.36131,9.51924z"/></g><g data-paper-data="{&quot;index&quot;:null}"><path d="M504.28345,293.23537c-5.09177,-0.71817 -8.91154,-3.48344 -8.53169,-6.17638c0.28337,-2.00894 9.49417,-9.99934 10.78751,-9.81691c2.31989,0.32721 7.85816,10.95167 7.6514,12.41768c-0.37982,2.69294 -4.81543,4.29381 -9.90719,3.57561z"/><path d="M484.25709,285.15163c-4.1968,-3.07771 -6.39045,-7.38769 -4.89964,-9.62661c1.11211,-1.67021 12.68745,-4.45207 13.75345,-3.67034c1.91213,1.40226 2.25609,13.59682 1.44452,14.81565c-1.49081,2.23892 -6.10153,1.55899 -10.29835,-1.51873z"/><path d="M468.72186,270.66659c-3.37285,-4.04919 -4.53063,-8.80027 -2.58597,-10.61189c1.45072,-1.35145 13.27856,-1.17574 14.1353,-0.14723c1.53674,1.84485 -0.86244,13.82436 -1.92106,14.81056c-1.94466,1.81159 -6.25539,-0.00227 -9.62824,-4.05146z"/><path d="M458.69803,250.69353c-1.24773,-5.25045 -0.2347,-10.07368 2.26262,-10.77301c1.86298,-0.52168 12.25193,5.28613 12.56886,6.61978c0.56847,2.39218 -6.69102,12.01312 -8.05051,12.39381c-2.49732,0.69933 -5.53327,-2.99013 -6.78097,-8.2406z"/><path d="M455.85573,227.51368c1.12099,-5.32092 4.06635,-9.18829 6.57865,-8.638c1.87415,0.41051 8.62655,10.55461 8.34183,11.90615c-0.51073,2.42432 -11.03362,7.66219 -12.40126,7.36263c-2.51229,-0.5503 -3.6402,-5.30985 -2.51922,-10.63078z"/></g></g></g></g><path d="M525.78329,229.20463c-1.20616,8.55152 -5.73556,25.32967 -6.32887,25.24597c-0.61423,-0.08662 -0.27742,-17.65756 0.90087,-26.01158c1.28131,-9.08425 5.79192,-25.3217 6.32884,-25.24594c0.4253,0.05999 0.5291,15.87344 -0.90085,26.01155z" fill="#3e0e6c" stroke="none" stroke-width="0"/></g><g stroke="#3e0e6c"><path d="M-16.43222,137.59391c1.60778,-2.5762 160.62743,84.29242 175.88233,105.41892c6.30956,8.73809 -93.57482,-38.74118 -131.71829,-28.57101c-1.77322,0.4728 -24.20991,37.59221 -46.44562,76.3433c-4.51424,7.86715 -20.20805,4.39908 -23.37396,13.28709c-1.12636,3.16217 18.5747,24.44599 17.52357,27.5827c-0.90181,2.69105 -9.34313,-1.92237 -10.14152,0.76964c-0.4697,1.58376 0.82241,16.22127 14.87368,24.43138c14.3525,8.38611 41.47493,10.33251 41.39549,10.45978c-3.02067,4.84008 -61.21608,29.45877 -84.84303,-6.85032c-22.52311,-34.61278 -20.14066,-95.3331 -20.6197,-95.99652c-18.12335,-25.09904 57.30884,-110.59825 67.46705,-126.87498z" data-paper-data="{&quot;index&quot;:null}" fill="#ffffff" stroke-width="2.5" stroke-linecap="butt"/><path d="M473.8857,1.64745c0,0.90004 52.47706,36.68902 55.28086,81.15702c2.94119,46.64731 -83.30237,89.81155 -90.69888,89.81155c-0.19449,0 28.99946,-28.55758 38.41839,-48.2962c9.22124,-19.32433 -1.31031,-29.83273 -3.14175,-30.35547c-3.11296,-0.88855 -8.91395,10.52005 -12.14355,9.73633c-3.76444,-0.91352 1.15393,-34.15427 -2.71675,-35.00799c-10.87948,-2.39957 -25.85238,15.59758 -37.42565,15.1989c-57.00633,-1.96377 -112.90336,-2.69879 -115.30386,-1.20912c-35.68654,22.14549 -85.93431,95.55212 -115.53705,128.98121c-13.23134,14.94159 -24.88359,14.26074 -24.88359,10.59893c0,-28.66105 123.62667,-232.42118 127.56354,-232.42118c24.87365,0 180.58828,-22.24433 180.58828,11.80603z" fill="#ffffff" stroke-width="2.5" stroke-linecap="butt"/><path d="M298.30818,271.49532c-0.05731,0.41537 4.45443,-4.16668 5.16215,-1.17725c2.21184,9.34297 2.6536,33.66445 0.20708,32.51126c-3.75007,-1.76765 -12.19164,-11.26757 -12.19164,-10.67039c0,9.74456 -127.5762,-66.42379 -127.5762,-68.43844c0,0 31.16747,-16.11033 58.92464,-6.85377c38.00141,12.67284 75.82882,52.05672 75.47402,54.6286z" fill="#ffffff" stroke-width="2.5" stroke-linecap="butt"/><path d="M189.06779,336.3332c0,-23.51846 43.06753,-42.58391 96.19401,-42.58391c14.98909,0 28.69614,49.44388 54.16084,52.62923c12.52365,1.56656 26.79255,-72.82358 39.93285,-75.69175c15.79647,-3.44794 41.28116,30.73506 60.21602,39.93161c26.05319,12.65389 43.02108,-20.35767 43.02108,-19.15036c0,8.32018 -15.1158,50.75009 -41.00868,47.47678c-15.44915,-1.95305 -33.17918,-30.66423 -43.27747,-23.32721c-20.81799,15.1255 -18.09153,82.5006 -41.20942,82.5006c-53.12649,0 -168.02924,-38.26652 -168.02924,-61.78498z" fill="#ffffff" stroke-width="2.5" stroke-linecap="butt"/><path d="M228.25514,344.52191c-19.63024,3.50667 -44.80562,-3.3684 -45.45178,-5.9453c-2.06897,-8.25116 -4.00749,-29.89962 -9.3303,-52.38445c-8.40507,-35.50487 -20.70606,-74.23081 -20.70606,-74.23081c16.05685,4.62566 115.50956,69.78879 136.73619,84.20634c0.92242,0.62651 -1.00276,9.3179 -9.60393,16.89541c-15.65113,13.78847 -44.07948,30.10743 -51.64412,31.45875z" fill="#ffffff" stroke-width="2.5" stroke-linecap="butt"/><path d="M191.73492,233.38493c0,0 0.5569,9.62955 -1.998,14.39093c-3.92337,7.31174 -19.25234,25.21199 -19.25234,25.21199" fill="none" stroke-width="2.5" stroke-linecap="round"/><path d="M225.41875,258.974c0,0 -3.68365,10.74122 -7.60653,15.97173c-7.88269,10.51026 -36.78958,43.82617 -36.78958,43.82617" fill="none" stroke-width="2.5" stroke-linecap="round"/><path d="M270.41794,287.82912c0,0 -2.85804,6.01486 -7.03808,9.78149c-2.70623,2.43858 -5.62245,12.25794 -11.65399,17.33543c-16.63382,14.00278 -42.52077,28.04191 -42.52077,28.04191" fill="none" stroke-width="2.5" stroke-linecap="round"/><g fill="#ffffff" stroke-width="2.5" stroke-linecap="butt"><path d="M161.88447,240.38108c-5.63257,-8.99994 2.13138,-40.24902 4.24087,-41.26381c1.34073,-0.64498 5.33857,-2.26726 8.81065,1.86369c1.99077,2.36854 3.15497,9.31497 5.20757,12.59474c2.13558,3.41232 4.59956,1.15566 7.67444,4.53289c5.03506,5.5302 10.41706,16.09346 9.10737,16.72349c-2.10949,1.01479 -29.40836,14.54895 -35.04093,5.54899z"/><path d="M154.45935,248.32211c6.81234,7.46944 0.83838,27.08512 0.39792,28.60993c-0.27346,0.94667 -8.12237,-6.7603 -12.49628,-12.70755c-2.6711,-3.63191 -1.42576,-5.10207 -4.00866,-7.93409c-2.48257,-2.72201 -7.36047,-5.74187 -9.21401,-8.14613c-3.2327,-4.1932 -2.60327,-7.17025 -2.32333,-8.13939c0.44046,-1.5248 20.83201,0.84779 27.64435,8.31724z" data-paper-data="{&quot;index&quot;:null}"/><path d="M153.76361,247.1473c-2.81628,-4.49997 -2.07081,-9.60479 1.66501,-11.40196c3.73583,-1.79717 9.04738,0.3939 11.86366,4.89387c2.81628,4.49997 2.07081,9.60481 -1.66502,11.40198c-3.73583,1.79717 -9.04738,-0.39392 -11.86366,-4.89389z"/></g><path d="M-0.35935,224.60062c-28.39953,-47.11974 -13.22379,-108.34015 33.89595,-136.73966c1.51984,-0.91601 39.57557,-13.42428 39.57557,-13.42428c0,0 39.42097,3.47296 40.28904,3.52724c3.39984,0.21258 50.31414,37.08815 51.44742,38.96841c0.27271,0.45247 11.10866,49.84758 11.10866,49.84758c0,0 -1.41259,38.11544 -1.9028,38.8474c-0.48485,0.72397 -30.77621,48.7118 -37.67417,52.86926c-47.11974,28.39953 -108.34013,13.22377 -136.73964,-33.89595z" fill="#ffffff" stroke-width="2.5" stroke-linecap="butt"/><path d="M172.48577,218.63714c-14.55268,31.11103 -62.91682,54.93089 -86.51599,53.71642c-8.31507,-0.42792 -18.93277,0.51507 -29.79555,-1.80848c-5.27803,-1.12896 -13.91983,-9.59782 -25.77269,-19.14635c-15.11063,-12.17293 -33.30651,-26.10061 -33.30651,-28.81225c0,-0.01198 5.57939,1.82472 13.36948,1.13543c7.02213,-0.62134 15.68064,-3.53507 26.46407,-7.51164c17.56093,-6.47586 39.30211,-21.78809 54.12751,-32.70979c15.72807,-11.58668 42.81016,-17.19654 47.39576,-39.8269c4.14141,-20.43827 1.87259,-44.14106 13.29047,-21.22169c5.45701,10.95399 6.50258,27.96576 10.20083,44.67864c5.39882,24.39794 12.10861,48.15883 10.54263,51.50663z" fill="#3e0e6c" stroke-width="0" stroke-linecap="butt"/><path d="M107.11275,182.67115c-0.17234,-1.6003 0.98523,-3.0373 2.58553,-3.20961c1.6003,-0.17234 3.0373,0.98523 3.20961,2.58553c0.0973,0.90335 -0.2292,1.75467 -0.81988,2.35586c0.14821,0.29936 0.24706,0.6295 0.2849,0.98099c0.1673,1.55369 -0.91895,2.95345 -2.44688,3.19138l1.46253,1.41625c0,0 1.98819,2.13084 -0.14264,4.11903c-0.80107,0.74745 -1.58198,0.91272 -2.24467,0.82795c-0.34133,0.4388 -0.80708,0.78016 -1.35143,0.96705c0.05833,0.11384 0.11683,0.24196 0.16943,0.38176c0.80706,0.44277 1.39189,1.25981 1.49795,2.24446c0.12322,1.14419 -0.43345,2.20492 -1.34568,2.7796l1.01901,0.71376c0,0 2.38614,1.67322 0.71292,4.05936c-1.67323,2.38614 -4.05937,0.71292 -4.05937,0.71292l-2.6582,-1.86597c-0.06013,-0.0484 -0.12024,-0.09675 -0.18036,-0.14513l0.55886,2.13747c0,0 0.31206,2.89757 -2.58553,3.20964c-0.56641,0.06099 -1.03403,-0.00063 -1.41982,-0.13931c-0.34538,0.3473 -0.83662,0.6278 -1.53403,0.74754c0.34394,0.59513 1.18569,2.4613 -0.77279,3.87858c-1.31756,0.95346 -2.43194,0.63957 -3.15959,0.17591c-0.44282,0.53701 -1.05191,0.80982 -1.48831,0.94455c0.21506,0.69891 0.17876,1.58435 -0.59883,2.54963c-0.19465,0.24163 -0.3943,0.4368 -0.59567,0.59271c0.08711,0.31417 0.14516,0.68862 0.1093,1.08485c0.2698,0.8328 0.31018,2.04057 -1.02149,3.0778c-2.29918,1.79085 -4.09003,-0.50833 -4.09003,-0.50833l-0.56102,-0.76687c-0.47804,-0.4624 -0.95609,-0.92482 -1.43413,-1.38722c-0.01923,0.56944 -0.18582,1.67066 -1.12433,2.33135c0.34035,0.45974 0.69303,0.91 1.06082,1.3482l0.68365,0.81946c0,0 1.86695,2.23783 -0.37089,4.10478c-2.23786,1.86695 -4.10479,-0.37091 -4.10479,-0.37091l-0.095,-0.11389c-1.25107,0.17873 -2.30634,-0.67132 -2.30634,-0.67132l-0.84383,-0.80296c-0.11112,-0.1508 -0.22247,-0.30144 -0.33405,-0.45191c-0.00093,0.0013 -0.00186,0.00266 -0.0028,0.00397c0.34524,0.74211 0.46475,1.7739 -0.45671,2.91779c-1.56304,1.94032 -3.44863,0.88549 -3.96282,0.53864c0.0975,0.2428 0.16369,0.50286 0.19309,0.7758c0.17234,1.6003 -0.98524,3.0373 -2.58553,3.20964c-0.53484,0.05761 -1.05142,-0.03336 -1.50864,-0.23972c-1.076,-0.15444 -1.66036,-0.84066 -1.97371,-1.46614c-0.31314,-0.249 -0.62746,-0.49653 -0.94315,-0.74237c0.08503,0.62232 -0.05684,1.35503 -0.68965,2.1406c-1.37165,1.70274 -2.99172,1.09889 -3.71536,0.69107c-0.13928,0.41397 -0.40617,0.84338 -0.85947,1.26634c-2.13085,1.9882 -4.11903,-0.14264 -4.11903,-0.14264l-0.36909,-0.56645c-0.41824,-0.24858 -0.83651,-0.49714 -1.25475,-0.74572c-0.35364,0.21428 -0.75868,0.35634 -1.19695,0.40355c-0.12788,0.01378 -0.25469,0.01903 -0.37992,0.01628c-0.10927,0.22902 -0.25702,0.46464 -0.45083,0.70522c-1.82824,2.26955 -4.09782,0.4413 -4.09782,0.4413l-2.285,-1.84069c0,0 -1.04996,-0.84579 -1.14631,-2.10098c-0.40211,0.29752 -0.88619,0.49539 -1.41945,0.55282c-1.6003,0.17234 -3.0373,-0.98524 -3.20964,-2.58553c-0.17234,-1.6003 0.98523,-3.0373 2.58553,-3.20964c1.56451,-0.16848 2.97295,0.93415 3.19619,2.47887c0.41333,-0.3223 0.91867,-0.53713 1.47811,-0.59735c1.19662,-0.12886 2.30195,0.48586 2.85552,1.47328l0.15506,0.12492c0.46,-0.6727 1.19782,-1.14939 2.06902,-1.25081c1.1783,-1.26506 2.69746,-0.77563 3.28448,-0.51376c0.08027,-0.18983 0.18446,-0.38591 0.31626,-0.58774c1.59332,-2.44021 4.03354,-0.84687 4.03354,-0.84687c0.08585,0.05605 0.17171,0.1121 0.25755,0.16815c-0.16299,-0.6374 -0.09734,-1.41949 0.51887,-2.29825c1.67323,-2.38614 4.05935,-0.71292 4.05935,-0.71292c0.36128,0.25362 0.72064,0.51003 1.07814,0.76899c-0.43402,-0.75043 -0.70747,-1.89075 0.32437,-3.17164c1.06853,-1.32649 2.28785,-1.25314 3.11666,-0.96315c0.18001,-0.66221 0.64691,-1.33934 1.69372,-1.78036c0.26124,-0.11007 0.50779,-0.184 0.74003,-0.22783c0.14607,-0.45657 0.44699,-0.92811 0.9864,-1.37808c0.53969,-0.45025 1.05784,-0.66176 1.53341,-0.72347c0.2117,-0.2362 0.48649,-0.46147 0.83921,-0.66603c0.8041,-0.46629 1.50044,-0.52738 2.07598,-0.39434c0.92879,-0.72131 1.81461,-0.70058 2.50118,-0.46706c0.03914,-0.14346 0.08941,-0.29204 0.15203,-0.4458c0.58179,-1.42889 1.612,-1.79339 2.45285,-1.81997c0.11408,-0.03732 0.22687,-0.06503 0.33795,-0.08435c-0.28528,-0.84304 -0.44132,-2.28376 1.19425,-3.33425c0.81525,-0.5236 1.53352,-0.60211 2.12919,-0.47357c0.67582,-0.55436 1.43695,-0.6159 2.04481,-0.53055c-0.03409,-0.58016 0.13737,-1.24543 0.70791,-1.95366c0.41216,-0.51167 0.84675,-0.81504 1.27273,-0.97805c-0.32857,-0.41596 -0.54769,-0.92655 -0.60863,-1.49249c-0.17234,-1.6003 0.98523,-3.0373 2.58553,-3.20961c0.17761,-0.01914 0.35317,-0.02189 0.52524,-0.00947c1.53866,-2.18692 3.87646,-0.74145 3.87646,-0.74145c0.02788,0.01725 0.0558,0.03448 0.08368,0.05173c0.94613,-0.44153 1.77644,-0.23054 2.37693,0.09908c0.07022,-0.44783 0.27415,-0.93324 0.68293,-1.44071c0.62549,-0.77647 1.30264,-1.07329 1.92288,-1.1278l-0.19377,-0.28638c-0.30225,-0.96115 -0.60451,-1.9223 -0.90676,-2.88345c0,0 -0.87425,-2.78014 1.90586,-3.65439c0.14861,-0.04675 0.29177,-0.08303 0.42962,-0.10986c-0.35301,-0.67216 -0.489,-1.59158 0.17901,-2.71558c1.09474,-1.84207 2.73899,-1.52478 3.5328,-1.2277c-0.07325,-0.20829 -0.12383,-0.42827 -0.14849,-0.65729c-0.0973,-0.90335 0.22921,-1.75467 0.81991,-2.35586c-0.14821,-0.29936 -0.24707,-0.6295 -0.28491,-0.98099z" fill="#ffffff" stroke-width="0.5" stroke-linecap="butt"/><path d="M130.09561,218.88299c0.0664,0.27432 0.09163,0.54894 0.07962,0.81741l0.2691,0.62297c0.23249,0.96026 0.46496,1.9205 0.69746,2.88076c0,0 0.07435,0.3071 0.07297,0.74353l0.53669,1.18534c0.63598,0.73994 1.272,1.47988 1.908,2.21984c0,0 1.04662,1.2396 0.65316,2.64995c0.3915,1.61708 1.00497,4.15097 1.33835,5.52794c0,0 0.01019,0.04213 0.02297,0.11732c0.01719,0.05607 0.03278,0.11301 0.04677,0.17075c0.27808,1.1486 -0.16614,2.30305 -1.04112,2.98545l0.14898,1.01552c0.03609,0.86992 0.07216,1.73983 0.10823,2.60975c0.41981,1.25823 -0.33097,2.48865 -0.33097,2.48865l-1.01746,1.21507c-0.86726,0.61658 -1.73452,1.23316 -2.60178,1.84976c0,0 -0.12513,0.08895 -0.33837,0.19732l-0.24224,0.80426c-0.58222,0.9542 -1.16443,1.90838 -1.74664,2.86258c0,0 -0.2259,0.37021 -0.64622,0.73789l0.84635,1.3484c0,0 -1.1841,1.9406 -3.17465,1.34812c-0.58226,0.55489 -1.49741,0.98087 -2.84799,0.51947c-0.01142,-0.00392 -0.02277,-0.00783 -0.03408,-0.0118c-0.29845,-0.02308 -0.63321,-0.08683 -0.96174,-0.22711c0.00203,0.86901 -0.4416,1.50587 -0.88141,1.92351c-0.25488,0.26192 -0.56109,0.47811 -0.90799,0.63106l-2.69229,1.25086c0,0 -0.71527,0.33233 -1.57451,0.2791c-0.36928,0.74663 -1.05436,1.33048 -1.92726,1.54182c-0.05577,0.0135 -0.11154,0.0253 -0.16728,0.03544c-0.06577,1.25349 -0.9428,2.36805 -2.22525,2.67855c-1.17742,0.28507 -2.36099,-0.18889 -3.03594,-1.10782c-0.08568,0.0294 -0.17349,0.05509 -0.2633,0.07682c-0.86227,0.20876 -1.72786,0.01044 -2.39451,-0.47159c-0.52358,0.59583 -1.21397,0.80203 -1.78171,0.85743c-0.38371,0.05283 -0.76356,0.02746 -1.1216,-0.06517l-1.4335,-0.33813c-1.09976,-0.34366 -2.19948,-0.68735 -3.29921,-1.031c0,0 -0.78669,-0.24583 -1.39261,-0.8944l-0.80662,-0.1076c-0.93093,-0.48621 -1.86189,-0.97236 -2.79282,-1.45857c0,0 -0.64997,-0.33946 -1.12759,-1.00386c-0.48511,-0.0675 -0.8211,-0.21193 -0.8211,-0.21193l-2.52053,-1.48566c-0.54738,-0.7115 -1.09476,-1.42301 -1.64214,-2.13453c-1.38993,0.09401 -2.68683,-0.8228 -3.02576,-2.22261c-0.37872,-1.56434 0.58238,-3.13956 2.14672,-3.51828c1.04583,-0.2532 2.09646,0.09245 2.79124,0.81681c1.52658,-0.16495 2.56965,1.19082 2.56965,1.19082c0.59334,0.77123 1.18664,1.54248 1.77998,2.31371l0.20256,-0.31517c0,0 0.7998,0.34378 1.33723,1.09267c0.58879,0.09263 1.00792,0.31153 1.00792,0.31153c0.93093,0.48621 1.86189,0.97237 2.79282,1.45857l-0.10539,-0.32191c0,0 1.66637,0.0124 2.46961,1.27853c0.72483,0.2265 1.44968,0.45301 2.17451,0.6795l0.98747,0.21907c0.37581,0.07449 0.73127,0.22236 1.04664,0.43156c0.05034,0.03071 0.10114,0.06346 0.15206,0.09834c0.37432,-0.3978 0.86457,-0.69503 1.43504,-0.83315c1.17742,-0.28507 2.36099,0.18892 3.03593,1.10782c0.08568,-0.0294 0.17351,-0.05509 0.2633,-0.07682c0.05577,-0.0135 0.11153,-0.0253 0.16728,-0.03542c0.06577,-1.25349 0.94281,-2.36807 2.22525,-2.67855c0.32538,-0.07876 0.6512,-0.09957 0.96662,-0.06906c0.495,-0.92879 1.45078,-1.37286 1.45078,-1.37286l2.68669,-1.24824c0.18682,-0.0913 0.38632,-0.1639 0.59676,-0.21484c0.15987,-0.0387 0.31981,-0.06342 0.4786,-0.07491c0.45321,-0.04996 1.0023,-0.02154 1.52837,0.23455c-0.01746,-1.26394 0.75494,-1.97812 1.40005,-2.35341c0.22555,-0.6602 0.45107,-1.3204 0.67661,-1.9806l0.21484,-1.00302c0,0 0.57683,-2.50747 3.00256,-2.26833c0.21836,-0.56751 0.79324,-1.65141 2.05456,-1.88886c0.04227,-0.0338 0.0668,-0.05122 0.0668,-0.05122c0.49544,-0.35221 0.99082,-0.70445 1.48626,-1.05669c-0.02338,-0.60394 -0.04675,-1.20792 -0.07013,-1.81186l-0.46049,-3.08418c0,0 -0.24276,-1.64075 0.87579,-2.62978c-0.1902,-0.78566 -0.38042,-1.57132 -0.57062,-2.35698l-0.34872,-1.44038c-0.05358,-0.22123 -0.08032,-0.44268 -0.08237,-0.66093c-0.53358,-0.64096 -1.06719,-1.28196 -1.60077,-1.92292l-1.42264,-3.00239c-0.09697,-0.19375 -0.1737,-0.40145 -0.22685,-0.62103c-0.0387,-0.15987 -0.06342,-0.31981 -0.07491,-0.4786c-0.03147,-0.28551 -0.03185,-0.60905 0.03621,-0.94091c-0.12357,-0.51034 -0.24712,-1.02065 -0.37069,-1.53099l-0.44731,-0.82846c0,0 -1.22793,-2.643 1.41506,-3.87094c0.41682,-0.19365 0.79843,-0.29104 1.14556,-0.31771c1.45544,-0.18831 2.84967,0.74602 3.20295,2.2052z" fill="#ffffff" stroke-width="0.5" stroke-linecap="butt"/><path d="M17.87404,186.56445c0.78202,1.19947 1.74231,-3.16056 3.07222,-0.79223c1.4903,2.65391 3.34962,12.04409 4.05596,13.21773c1.14904,1.90922 3.42351,6.60407 11.63251,9.32147c8.32239,2.75491 22.57799,3.52854 23.34393,4.87588c4.08744,7.19008 -23.90327,7.6533 -25.49016,8.68789c-2.13112,1.38941 -5.79445,-5.29705 -16.11435,-17.44389c-0.25205,-0.2967 -0.36353,4.14389 1.80141,9.34409c1.30464,3.13377 7.43152,5.37366 7.78433,7.03647c1.38972,6.54928 -5.16579,5.97756 -6.60596,4.74167c-0.61504,-0.5278 -3.51196,1.30784 -4.70807,-2.47136c-0.97956,-3.09493 -0.57499,-7.1796 -1.37235,-10.77176c-1.5626,-7.0395 -4.08893,-12.18769 -5.11629,-4.28981c1.33225,7.35767 16.87774,28.58039 7.07603,29.09767c-3.07551,0.16232 -10.00606,0.49944 -11.78576,-5.95695c-0.93031,-3.37499 1.54148,-7.34876 1.92008,-12.36016c0.45421,-6.01228 -1.09342,-13.11363 -1.58295,-17.04197c-0.54941,-4.40871 -7.79886,-19.57569 -8.46953,-24.72996c-0.90137,-6.92707 6.70176,4.64165 6.2257,2.16073c-2.04773,-10.67169 -4.80124,-20.47566 -6.34932,-26.40384c-0.9086,-3.47936 -0.45804,-8.28776 1.24144,-5.43523c1.07908,1.81118 3.18898,8.97753 5.17813,9.14173c3.57109,0.29477 -5.25609,-10.10792 -1.217,-10.61273c5.27966,-0.65985 7.92237,14.5538 12.11114,26.37013c1.94538,5.48781 2.00509,12.22259 3.36886,14.31441z" fill="#3e0e6c" stroke-width="0" stroke-linecap="butt"/><g stroke-width="0" stroke-linecap="butt"><path d="M52.81039,135.69207c0,-21.73617 17.62064,-39.35678 39.35681,-39.35678c21.73617,0 39.35681,17.62064 39.35681,39.35678c0,21.73617 -17.62064,39.35681 -39.35678,39.35681c-21.73617,0 -39.35679,-17.62064 -39.35679,-39.35678z" fill="#3e0e6c"/><path d="M58.59814,135.69207c0,-18.53966 15.02937,-33.56903 33.56903,-33.56903c18.53966,0 33.56903,15.02937 33.56903,33.56903c0,18.53966 -15.02938,33.56903 -33.56903,33.56903c-18.53966,0 -33.56903,-15.02937 -33.56903,-33.56903z" fill="#ffffff"/><path d="M61.68498,135.69207c0,-16.83486 13.64735,-30.48221 30.48221,-30.48221c16.83486,0 30.48221,13.64735 30.48221,30.48221c0,16.83486 -13.64735,30.48223 -30.48221,30.48223c-16.83486,0 -30.48221,-13.64737 -30.48221,-30.48223z" fill="#3e0e6c"/><path d="M63.46672,135.69207c0,-15.85084 12.84964,-28.7005 28.7005,-28.7005c15.85084,0 28.7005,12.84964 28.7005,28.7005c0,15.85084 -12.84964,28.7005 -28.7005,28.7005c-15.85084,0 -28.7005,-12.84966 -28.7005,-28.7005z" fill="#ffffff"/></g><path d="M66.29957,207.04941l-20.53627,-24.84896l-15.78783,-91.5227" fill="none" stroke-width="2.5" stroke-linecap="round"/></g><g stroke="none" stroke-linecap="butt"><path d="M799.73105,91.10444c0,-0.41421 0.33579,-0.75 0.75,-0.75c0.41421,0 0.75,0.33579 0.75,0.75c0,0.41421 -0.33579,0.75 -0.75,0.75c-0.41421,0 -0.75,-0.33579 -0.75,-0.75z" fill="#e266ff" stroke-width="0.5"/><g stroke-width="0"><g fill-opacity="0.43529" fill="#ff69e0"><path d="M319.2498,521.56742l-341.87445,-341.87445l341.87445,-341.87445l341.87445,341.87445z"/><path d="M77.50808,421.43477v-483.48348h483.48348v483.48348z"/></g><g fill-opacity="0.43529" fill="#ff69e0"><path d="M458.3383,491.99504l-451.39047,-173.21352l173.21352,-451.39047l451.39047,173.21352z"/><path d="M196.76937,498.8743l-196.7008,-441.66171l441.66172,-196.7008l196.7008,441.66172z"/></g><path d="M88.76934,179.69304c0,-127.29085 103.18963,-230.48048 230.48048,-230.48048c127.29085,0 230.48048,103.18963 230.48048,230.48048c0,127.29085 -103.18962,230.48048 -230.48048,230.48048c-127.29085,0 -230.48048,-103.18963 -230.48048,-230.48048z" fill-opacity="0.38431" fill="#efa8ff"/><path d="M119.72619,179.69304c0,-110.19386 89.32977,-199.52363 199.52363,-199.52363c110.19386,0 199.52363,89.32977 199.52363,199.52363c0,110.19386 -89.32977,199.52363 -199.52363,199.52363c-110.19386,0 -199.52363,-89.32977 -199.52363,-199.52363z" fill-opacity="0.43529" fill="#ff69e0"/></g></g><path d="M-34.31211,394.56921v-363.14822h709v363.14822z" fill="url(#color-6)" stroke="none" stroke-width="NaN" stroke-linecap="butt"/><g><path d="M288.76671,313.89999l5.04506,-31.85134l45.40511,7.19188l-5.04505,31.85135c0,0 -32.73449,29.65732 -40.96976,28.3529c-6.4695,-1.02473 -4.43535,-35.54479 -4.43535,-35.54479z" fill="#8e41f3" stroke="none" stroke-width="0" stroke-linecap="butt"/><g stroke-linecap="butt"><path d="M303.05563,269.0399c3.5003,0.93483 13.83116,-17.87103 10.88019,0.03852c-1.09946,6.67269 -15.1418,60.98117 -20.0673,78.04926c-0.42764,1.48185 -27.19921,0.75685 -29.55631,-7.11408c-0.4601,-1.5364 18.95691,-22.52262 19.06893,-22.82427c0,0 16.24267,-49.06598 19.67449,-48.14944z" data-paper-data="{&quot;index&quot;:null}" fill="#6f27cd" stroke="none" stroke-width="0"/><path d="M303.13963,268.72541c3.5003,0.93483 13.83116,-17.87105 10.88018,0.03852c-0.95712,5.80884 -6.57043,25.6756 -11.25728,41.98249c-2.47333,-0.9477 -14.71832,-6.32447 -14.74153,-6.32693c6.53472,-16.2945 12.38448,-36.42428 15.11861,-35.69408z" data-paper-data="{&quot;index&quot;:null}" fill="#ffdb40" stroke="none" stroke-width="0"/><path d="M295.9625,340.84714c-2.47333,-0.9477 -17.07453,-16.81435 -17.09772,-16.81681c1.19513,-2.98009 4.3975,-6.42446 5.53193,-9.51004c0.68911,-1.87433 13.97149,8.53871 14.34415,9.94121c0.7887,2.96831 -2.27919,14.64886 -2.77836,16.38563z" data-paper-data="{&quot;index&quot;:null}" fill="#ffdb40" stroke="none" stroke-width="0"/><path d="M303.05563,269.0399c3.5003,0.93483 13.83116,-17.87103 10.88019,0.03852c-1.09946,6.67269 -14.12423,58.61424 -19.04973,75.68233c-0.34613,1.19943 -26.19712,0.8975 -30.1853,-2.38417c-1.9008,-1.56407 18.79688,-24.25241 19.01826,-24.84857c0,0 15.90476,-49.40466 19.33658,-48.48812z" data-paper-data="{&quot;index&quot;:null}" fill="none" stroke="#4c0086" stroke-width="2.5"/></g><path d="M307.63322,345.063c0.00448,-0.22352 -0.00458,-12.62795 2.25199,-21.9849c4.79766,-19.89365 14.27656,-46.78534 15.0233,-51.15331c3.06765,-17.94379 8.63378,3.16538 13.234,3.37444c2.96255,0.13464 2.74217,22.691 2.66557,43.71026c-0.02139,5.86963 1.61931,17.29321 1.69526,22.42373c0.06614,4.46768 -0.10684,5.72297 0.11741,8.72358c0.05974,0.79924 -9.87571,2.63717 -16.33059,1.79708c-9.45633,-1.2307 -18.6789,-5.79542 -18.65695,-6.89088z" fill="#6f27cd" stroke="none" stroke-width="0" stroke-linecap="butt"/><path d="M312.98062,324.69723c2.59114,-17.57679 6.46134,-43.53484 8.43748,-50.02298c5.30398,-17.41428 8.16617,4.22794 12.70339,5.01491c2.585,0.44836 5.39187,8.18044 6.81242,20.82177c1.02406,9.11295 1.16352,22.23935 0.75547,30.12018c-0.02805,0.54162 -4.16549,0.08935 -6.41478,4.91838c-1.10045,2.36256 -0.21433,14.22531 -1.14689,12.1316c-0.60251,-1.35274 -0.67333,-12.34606 -1.55111,-21.37419c-0.62791,-6.45816 -1.99911,-11.9111 -2.75512,-12.1085c-1.83418,-0.4789 -1.2379,3.70509 -3.86221,6.05491c-1.23271,1.10377 -3.441,1.66682 -3.94014,-0.60692c-0.30015,-1.36728 -0.01999,-6.29787 -0.75914,-6.01642c-1.19438,0.4548 -2.92542,5.71162 -4.30995,7.97264c-2.20936,3.60799 -3.99896,3.29469 -3.96945,3.09463z" fill="#ffdb40" stroke="none" stroke-width="0" stroke-linecap="butt"/><path d="M307.48359,346.78148c0.35597,-17.76318 16.28198,-68.17127 17.42492,-74.85669c3.06765,-17.94379 8.63378,3.16538 13.234,3.37444c4.32028,0.19633 2.44185,50.11926 2.50098,50.91049c0.03629,0.48558 4.72283,22.45471 1.69122,24.57463c-9.26824,6.481 -34.87896,-2.61395 -34.85111,-4.00286z" fill="none" stroke="#4c0086" stroke-width="2.5" stroke-linecap="butt"/><path d="M273.91998,260.62498c0.67081,-0.19788 49.27425,-6.99892 49.27425,-6.99892c17.26169,2.73415 36.52586,12.07203 45.53791,21.49224c0.87807,0.91786 4.1954,5.63394 7.82622,9.90783c3.78756,4.4584 9.7533,7.10091 9.72171,7.30034c-0.29481,1.86128 -25.94512,5.92751 -30.02011,6.31886c-0.7865,0.07553 -4.74855,9.21517 -5.64218,9.18507c-2.46931,-0.08314 -20.88478,-8.26396 -23.83234,-8.53206c-0.70453,-0.06408 -13.42402,7.69281 -15.32091,7.39236c-4.21326,-0.66735 -9.47827,-10.28132 -14.86799,-14.10764c-1.24982,-0.8873 -21.25364,4.5529 -22.18825,3.12563c-0.66231,-1.01142 3.46283,-16.61077 2.73931,-17.55564c-0.64908,-0.84763 -19.95624,-5.45598 -19.7657,-6.65886c0,0 4.98755,-2.01167 9.15251,-4.79044c3.56363,-2.37757 6.81182,-5.90952 7.38559,-6.07877z" fill="#f5b83d" stroke="#4c0086" stroke-width="2.5" stroke-linecap="butt"/><g stroke-linecap="butt"><path d="M470.81851,62.07032c18.30657,16.55031 -41.5374,145.97098 -53.91357,154.62023c-13.59173,9.49876 -94.91886,-104.74918 -81.32712,-114.24793c13.04807,-9.11879 119.42205,-49.93408 135.2407,-40.37229z" fill="#f5b83d" stroke="#4c0086" stroke-width="2.5"/><path d="M360.56687,122.09932c9.24272,13.7671 -107.86271,90.92285 -117.10545,77.15575c-8.41612,-12.53587 -17.46861,-154.83505 5.5803,-163.65495c18.20455,-3.20196 102.65211,73.2828 111.52513,86.49921z" data-paper-data="{&quot;index&quot;:null}" fill="#8e41f3" stroke="#4c0086" stroke-width="2.5"/><path d="M240.152,177.01216c7.95341,-50.21288 55.10651,-84.47099 105.31942,-76.51757c50.21289,7.9534 84.47099,55.10652 76.51757,105.31942c-7.95341,50.21289 -55.84772,80.01046 -106.06061,72.05706c-50.21288,-7.95341 -83.72979,-50.646 -75.77639,-100.8589z" fill="#8e41f3" stroke="none" stroke-width="0"/><path d="M334.98631,99.43594c3.47179,0.15212 6.97095,0.50201 10.48511,1.05862c50.21289,7.9534 84.47099,55.10652 76.51757,105.31942c-7.95341,50.21288 -66.88716,81.15731 -103.37627,55.10977c-43.76368,-28.3055 -29.76224,-163.50934 16.37358,-161.48781z" fill="#f5b83d" stroke="none" stroke-width="0"/><path d="M240.152,177.01216c7.95341,-50.21288 55.10651,-84.47099 105.31942,-76.51757c50.21289,7.9534 84.47099,55.10652 76.51757,105.31942c-7.95341,50.21289 -55.84772,80.01046 -106.06061,72.05706c-50.21288,-7.95341 -83.72979,-50.646 -75.77639,-100.8589z" fill="none" stroke="#4c0086" stroke-width="2.5"/></g><g data-paper-data="{&quot;index&quot;:null}" stroke="#4c0086" stroke-linecap="butt"><path d="M244.35889,200.13627c-1.45814,9.20584 -4.35963,20.87419 -8.27823,20.25351c-0.76418,-0.12104 -11.34131,-22.00339 -10.92394,-24.63838c0.1492,-0.94189 11.37657,-18.86719 14.89422,-18.31001c3.91857,0.62067 5.76612,13.48895 4.30795,22.69487z" fill="#4c0086" stroke-width="0"/><path d="M293.36854,201.80665c-4.1896,26.45061 -20.45518,42.11453 -33.43524,41.72085c-14.51699,-0.44029 -27.68292,-23.45622 -23.49331,-49.90684c0.77828,-4.91361 0.65058,-9.13015 4.22389,-16.47635c1.12775,-2.3185 51.84421,9.16003 52.30154,9.97821c3.61025,6.45879 0.72989,12.62129 0.40314,14.68418z" fill="#ff7945" stroke-width="2.5"/></g><g data-paper-data="{&quot;index&quot;:null}" stroke="#4c0086" stroke-width="0" stroke-linecap="butt"><path d="M269.00412,222.12418c-7.09625,-1.09566 -11.3623,-11.12814 -9.52849,-22.40823c1.43523,-8.82832 6.18145,-15.80431 11.5788,-17.89449c0.98624,-0.38193 8.11541,1.99199 8.4969,2.26262c4.79667,3.40276 7.10994,10.44762 5.62207,19.59963c-1.83381,11.28008 -9.07304,19.53613 -16.16928,18.44046z" fill="#ffffff"/><path d="M270.31844,214.03954c-4.2873,-0.66196 -6.86468,-6.7233 -5.75676,-13.53831c1.10791,-6.815 5.4816,-11.80306 9.76891,-11.14109c4.2873,0.66196 6.86473,6.72327 5.75682,13.53828c-1.10792,6.81505 -5.48165,11.80307 -9.76896,11.14111z" fill="#ff7945"/><path d="M270.87185,210.63545c-3.10462,-0.47935 -4.971,-4.86858 -4.16872,-9.80361c0.80229,-4.93502 3.96943,-8.54704 7.07405,-8.06769c3.10462,0.47935 4.97102,4.86858 4.16875,9.80359c-0.80229,4.93502 -3.96946,8.54706 -7.07408,8.0677z" fill="#ffffff"/></g><path d="M293.36854,201.80665c-4.1896,26.45061 -20.45518,42.11453 -33.43524,41.72085c-14.51699,-0.44029 -27.68292,-23.45622 -23.49331,-49.90684c0.77828,-4.91361 0.65058,-9.13015 4.22389,-16.47635c1.12775,-2.3185 51.84421,9.16003 52.30154,9.97821c3.61025,6.45879 0.72989,12.62129 0.40314,14.68418z" fill="none" stroke="#4c0086" stroke-width="2.5" stroke-linecap="butt"/><g stroke-linecap="butt"><g data-paper-data="{&quot;index&quot;:null}" stroke-width="0"><path d="M399.60102,202.84175c5.67898,0.89951 15.43488,24.80195 15.2656,25.87069c-0.47358,2.98986 -26.13303,21.85385 -27.36673,21.65845c-6.32625,-1.00204 -5.85872,-14.68921 -4.20422,-25.13482c1.65453,-10.44568 9.97912,-23.39635 16.30534,-22.39432z" fill="#4c0086" stroke="#4c0086"/><path d="M397.76088,202.83325c1.57741,6.92173 0.91427,11.98662 -0.2758,19.50002c-4.75383,30.01277 -31.62584,50.69699 -60.02028,46.19948c-28.39444,-4.4975 -47.55895,-32.47361 -42.80511,-62.48638c0.21226,-1.34007 4.50062,-16.66042 8.4294,-17.66426c0.8004,-0.20451 94.50969,13.73986 94.67179,14.45114z" fill="#ff7945" stroke="none"/></g><g data-paper-data="{&quot;index&quot;:null}" stroke="#4c0086" stroke-width="0"><path d="M346.19588,240.22771c-13.13961,-2.08123 -22.10418,-14.42013 -20.02295,-27.55974c1.58377,-9.99892 9.10757,-17.58014 18.40404,-19.71594c0.79808,-0.18336 18.47906,3.24153 19.13734,3.69972c7.34155,5.11014 11.5346,14.12547 10.04134,23.55302c-2.08123,13.13961 -14.42016,22.10417 -27.55977,20.02293z" fill="#ffffff"/><path d="M347.68754,230.81029c-7.93848,-1.2574 -13.35457,-8.7122 -12.09716,-16.65068c1.2574,-7.93846 8.71216,-13.35457 16.65064,-12.09717c7.93848,1.2574 13.35461,8.71218 12.0972,16.65065c-1.25742,7.93852 -8.7122,13.35461 -16.65068,12.09719z" fill="#ff7945"/><path d="M348.3156,226.84505c-5.74859,-0.91054 -9.67057,-6.30883 -8.76003,-12.05738c0.91054,-5.74856 6.30878,-9.67056 12.05737,-8.76002c5.74859,0.91054 9.67062,6.30881 8.76008,12.05738c-0.91054,5.74856 -6.30882,9.67058 -12.05742,8.76004z" fill="#ffffff"/></g><path d="M397.76088,202.83325c1.57741,6.92173 0.91427,11.98662 -0.2758,19.50002c-4.75383,30.01277 -31.62584,50.69699 -60.02028,46.19948c-28.39444,-4.4975 -47.55895,-32.47361 -42.80511,-62.48638c0.21226,-1.34007 4.38931,-17.79712 8.31809,-18.80096c2.79383,-0.71385 94.55592,14.59096 94.7831,15.58784z" fill="none" stroke="#4c0086" stroke-width="2.5"/></g><path d="M341.00229,260.08131c-0.3219,0.14294 -3.64361,4.94888 -6.45316,6.56499c-3.75188,2.15816 -8.65244,3.77132 -10.33194,3.48903c-1.81013,-0.30424 -8.17927,-2.46682 -11.72019,-2.97098c-4.31201,-0.61395 -1.8886,3.81203 -10.10458,1.57633c-6.72334,-1.43568 -9.34876,-9.77519 -9.34876,-9.77519" fill="none" stroke="#4c0086" stroke-width="2.5" stroke-linecap="round"/></g><g fill="#2b004c" stroke="none" stroke-width="0" stroke-linecap="butt"><path d="M-62.13156,390.83851v-60.99759h740.24024v60.99759z"/><path d="M-39.60904,29.54515v-60.99758h740.24024v60.99759z"/></g><g stroke="none" stroke-width="0.5" stroke-linecap="butt"><g><path d="M518.8647,294.01121c-6.27413,3.90818 -12.58931,8.59133 -20.30469,10.14534c-3.6612,0.73743 -7.40853,1.86908 -11.14467,1.50306c-1.03249,-0.10115 -2.04686,-0.96952 -3.02159,-0.65979c-4.47584,1.42226 -11.8889,13.76482 -16.57313,16.41432c-5.93257,3.35559 -15.21938,5.62702 -22.31791,5.45867c-7.41056,-0.17575 -22.37175,-8.57995 -25.32165,-12.84305c-1.60949,-2.32598 -2.92917,-4.81887 -3.91211,-7.39004c-0.81104,-2.12151 0.62037,-5.89431 -0.15605,-7.84155c-0.25036,-0.6279 -1.54993,-0.34615 -2.12792,-0.78619c-2.47811,-1.88669 -8.59928,-10.01753 -9.12005,-12.68743c-1.14088,-5.84912 -0.56909,-12.71517 1.46172,-18.45875c7.15703,-20.24175 28.88372,-36.33169 47.03151,-48.81022c13.36469,-9.18964 22.09049,-13.42046 38.25431,-16.3746c4.37308,-0.79924 11.17741,-2.36907 15.89664,-1.54668c4.61546,0 8.99739,0.85967 12.94099,2.40294c3.04435,1.19136 5.82748,2.79009 8.25518,4.71521c1.93711,1.24598 3.79939,2.55063 5.18997,4.22504c0.32835,0.39537 0.33374,1.06541 0.39214,1.64934c0.06001,0.59993 0.17598,1.10896 0.75567,1.13581c3.00611,0.13927 7.24901,-1.52188 10.34915,-0.98429c2.60267,0.45132 4.98771,1.70831 7.62315,1.98541c2.65252,0.2789 6.10392,-1.71644 8.89382,-1.89054c6.66035,-0.41563 10.05396,-0.363 16.03506,1.55061c2.83085,0.90571 6.56432,0.89032 8.37896,2.96639c3.3937,3.88261 6.59821,7.88769 9.72087,11.93495c1.66694,2.1605 0.77685,5.14335 1.05191,7.7252c0.29437,2.76314 0.93939,5.49758 1.12577,8.26765c0.17445,2.59264 -2.6872,4.65435 -4.16778,6.91793c-6.07216,9.28336 -15.14231,10.73429 -25.0557,16.02023c-11.67035,6.22277 -21.22292,15.41849 -35.75285,14.26455z" fill="#791cff"/><path d="M622.69696,253.09562c0.30748,2.34331 -0.1154,4.68407 -0.65448,7.02301c-0.21762,1.91696 -0.64416,3.78128 -1.25978,5.5759c-0.24031,0.70054 -0.50944,1.39046 -0.80619,2.06874c7.22339,7.36093 12.26253,16.12578 11.58767,26.56997c-0.67606,10.46284 -8.45239,14.58594 -15.80005,20.54886c-14.57546,11.82858 -21.24519,27.07088 -41.33305,33.50568c-1.32017,0.42289 -2.78919,-0.44405 -4.19778,-0.42254c-3.41373,0.05214 -6.80722,0.81645 -10.21551,0.64267c-1.00806,-0.0514 -1.6605,-1.54937 -2.6269,-1.29747c-2.7827,0.72531 -8.12827,4.18373 -11.56435,5.70366c-7.06309,3.12433 -14.85386,4.58829 -22.79436,4.58829c-10.41734,0 -20.02552,-0.60099 -29.45244,-4.73141c-3.76066,-1.64774 -9.37248,0.73715 -12.6171,-1.3058c-5.14687,-3.24067 -10.14771,-6.6531 -15.08165,-10.12997c-2.5952,-1.8288 -2.7522,-5.26377 -4.01978,-7.93501c-1.3754,-2.89847 -3.09178,-5.67618 -4.36173,-8.61001c-1.17214,-2.70788 1.12291,-5.69968 1.84157,-8.52217c2.46128,-9.66648 9.26422,-13.80702 16.51745,-20.6513c1.36047,-1.28377 1.51812,-3.78112 2.4693,-5.32053c2.7566,-4.46132 7.30753,-8.62199 12.15084,-11.49179c8.24878,-4.88764 16.641,-9.5942 25.00622,-14.33328c7.78162,-4.40846 18.75674,-8.38804 25.25554,-11.74497c12.92535,-6.67652 23.47193,-25.07676 40.49784,-25.37627c1.92543,-0.28177 3.90437,-0.42853 5.92318,-0.42853c3.0109,0 5.93313,0.32643 8.72142,0.94038c13.0633,2.23038 24.63947,8.56088 26.81411,25.1339z" fill="#ff871c"/></g><g fill="#450033"><path d="M518.77397,292.48953c-5.64845,3.51844 -11.33385,7.73456 -18.27981,9.1336c-3.29608,0.66389 -6.66972,1.68269 -10.03327,1.35317c-0.92952,-0.09106 -1.84273,-0.87283 -2.72026,-0.59399c-4.02949,1.28042 -10.70328,12.39212 -14.92038,14.7774c-5.34095,3.02096 -13.70163,5.06587 -20.09226,4.91431c-6.67154,-0.15823 -20.14073,-7.72432 -22.79645,-11.56228c-1.44899,-2.09403 -2.63706,-4.33831 -3.52198,-6.65307c-0.73016,-1.90994 0.5585,-5.3065 -0.14049,-7.05955c-0.22539,-0.56528 -1.39536,-0.31163 -1.91571,-0.70779c-2.23098,-1.69854 -7.74172,-9.01853 -8.21055,-11.42218c-1.02711,-5.26582 -0.51233,-11.44715 1.31595,-16.61795c6.4433,-18.22314 26.00329,-32.70852 42.3413,-43.94262c12.0319,-8.2732 19.88752,-12.08211 34.43941,-14.74165c3.93698,-0.71953 10.06274,-2.13282 14.31135,-1.39244c4.15518,0 8.10012,0.77394 11.65045,2.1633c2.74075,1.07255 5.24633,2.51185 7.43194,4.24498c1.74394,1.12173 3.4205,2.29627 4.6724,3.8037c0.29561,0.35594 0.30046,0.95916 0.35304,1.48486c0.05402,0.5401 0.15843,0.99837 0.68031,1.02254c2.70633,0.12538 6.5261,-1.37011 9.31708,-0.88614c2.34312,0.40631 4.49031,1.53795 6.86293,1.78742c2.388,0.25109 5.4952,-1.54527 8.00688,-1.702c5.99615,-0.37418 9.05133,-0.3268 14.43596,1.39597c2.54854,0.81539 5.9097,0.80154 7.54337,2.67057c3.05526,3.49542 5.9402,7.10109 8.75146,10.74474c1.5007,1.94505 0.69938,4.63043 0.94701,6.95481c0.26501,2.48759 0.84571,4.94933 1.01351,7.44316c0.15705,2.33409 -2.41922,4.1902 -3.75215,6.22804c-5.46662,8.35758 -13.63225,9.66382 -22.55703,14.42261c-10.50653,5.60221 -19.10646,13.88088 -32.18741,12.84202z"/><path d="M612.25158,255.65425c0.27682,2.10963 -0.10389,4.21695 -0.58921,6.32264c-0.19592,1.7258 -0.57992,3.40419 -1.13415,5.01984c-0.21635,0.63068 -0.45863,1.25179 -0.72579,1.86244c6.50304,6.62686 11.03965,14.51764 10.43209,23.92028c-0.60864,9.41943 -7.60947,13.13136 -14.22439,18.49963c-13.12193,10.64898 -19.12652,24.37124 -37.21112,30.16433c-1.18851,0.38072 -2.51103,-0.39977 -3.77916,-0.3804c-3.0733,0.04694 -6.12837,0.73503 -9.19677,0.57858c-0.90753,-0.04627 -1.4949,-1.39486 -2.36493,-1.16808c-2.50519,0.65298 -7.31768,3.76651 -10.4111,5.13486c-6.35872,2.81275 -13.37256,4.13073 -20.52119,4.13073c-9.37847,0 -18.02848,-0.54106 -26.5153,-4.25957c-3.38563,-1.48342 -8.43781,0.66364 -11.35886,-1.17557c-4.6336,-2.91749 -9.13573,-5.98962 -13.57763,-9.11976c-2.33639,-1.64642 -2.47774,-4.73884 -3.61891,-7.14369c-1.23824,-2.60942 -2.78345,-5.11013 -3.92675,-7.75138c-1.05525,-2.43784 1.01093,-5.13128 1.65792,-7.6723c2.21583,-8.70249 8.34035,-12.43012 14.87025,-18.59186c1.2248,-1.15574 1.36672,-3.40405 2.22305,-4.78994c2.4817,-4.01642 6.57879,-7.76216 10.9391,-10.34577c7.42617,-4.40022 14.98148,-8.63742 22.51248,-12.9039c7.0056,-3.96883 16.88623,-7.55155 22.73693,-10.5737c11.63637,-6.01071 21.13119,-22.57599 36.4592,-22.84563c1.73342,-0.25367 3.51501,-0.38579 5.33249,-0.38579c2.71064,0 5.34145,0.29388 7.85168,0.8466c11.76057,2.00796 22.1823,7.70715 24.14007,22.62743z"/></g><path d="M431.65489,292.62128c-1.03829,-6.72024 -1.86153,-13.44354 -3.47939,-20.07124c-2.60682,-10.67903 -5.95271,-21.11417 -8.39963,-31.85344c0,0 -0.55539,-2.43753 1.88214,-2.99292c2.43753,-0.55539 2.99292,1.88214 2.99292,1.88214c2.43926,10.70567 5.77384,21.10569 8.3752,31.75118c1.83659,7.51584 2.70419,15.15053 3.91106,22.77487l-0.07666,0.19811h0.08453v2.79581c0,1.38071 -1.11929,2.5 -2.5,2.5c-1.14084,0 -2.1032,-0.76416 -2.40315,-1.80855l-0.85674,-2.74158l0.75989,-0.23746v-0.50823h1.62631l2.3862,-0.74569l0.23302,0.74569h0.66994l-2.03831,5.2672l-3.63705,-4.52151c0,0 -0.45063,-1.44204 0.46973,-2.43439z" fill="#ffe6fd"/><path d="M437.79111,290.0184c1.98357,-1.08195 3.15227,0.60667 3.3588,0.94163c4.69878,-2.16259 9.04036,-5.60298 11.14084,-10.53082c1.52797,-3.5847 1.88058,-9.7202 -0.22693,-13.28718c-0.71567,-1.21128 -4.07387,-3.46643 -5.01595,-4.11989c-0.62578,-0.43406 -1.16653,-1.0955 -1.91218,-1.25046c-2.02203,-0.42022 -4.21995,-0.20479 -6.37992,0.3189c-1.96268,1.74515 -3.70115,2.46991 -7.30005,2.73749l-0.57285,0.0041c-0.53064,0.04442 -1.20417,-0.04163 -1.76522,-0.5683c-0.37368,-0.29295 -0.69274,-0.73672 -0.80191,-1.40892c-0.17325,-0.6586 -0.06192,-1.1937 0.16057,-1.61317c0.29758,-0.70625 0.87461,-1.05846 1.37614,-1.2341c1.98891,-0.87697 4.17715,-1.74495 6.44066,-2.38783c0.34396,-0.38509 0.73835,-0.83773 1.22566,-1.3704c1.98454,-2.16926 5.25729,-4.19621 5.63972,-7.40926c0.73415,-6.1681 -5.21947,-11.841 -11.21754,-12.31546c-3.07686,-0.24338 -5.75817,2.79766 -7.6103,4.68532c0,0 -1.76777,1.76776 -3.53553,0c-1.76776,-1.76776 0,-3.53553 0,-3.53553c2.97108,-2.92531 6.65009,-6.38127 11.2614,-6.14845c8.88329,0.44851 17.34873,9.06743 16.04158,18.08895c-0.41551,2.86771 -2.07105,5.02015 -3.94968,7.00428c0.78354,0.05232 1.55921,0.16065 2.32195,0.33382c1.24541,0.28276 2.25789,1.20081 3.32997,1.89483c1.81572,1.17542 5.3969,3.76424 6.51675,5.66544c2.99525,5.08508 2.67352,12.78202 0.52062,17.99557c-2.8131,6.81233 -9.35568,11.45556 -15.91103,13.96253l-4.13315,-3.06121c0,0 -1.19713,-2.19474 0.99761,-3.39186zM439.42022,291.69383l-0.27354,0.10519c0.09122,-0.0346 0.1824,-0.06967 0.27354,-0.10519z" fill="#ffe6fd"/><path d="M461.97524,269.97972c-0.2323,0.5679 -0.60015,0.93576 -0.60015,0.93576c-2.05575,1.90664 -3.27619,3.3341 -2.24234,6.39024c1.07373,3.17405 9.53084,5.09382 11.52093,2.60534c2.45285,-3.06714 2.19267,-9.68055 -2.19139,-11.00135c-2.19576,-0.66152 -4.41564,0.09228 -6.48705,1.07zM454.41059,272.19729c-0.00158,-0.00179 -0.00315,-0.0036 -0.00473,-0.0054c-1.64626,-1.88144 0.23518,-3.5277 0.23518,-3.5277l1.98695,-1.60718c4.09224,-1.90971 8.60105,-4.50502 13.34554,-2.91342c7.47009,2.50594 9.61609,13.37224 4.44866,19.05359c-4.72204,5.19165 -17.32423,2.68477 -19.9319,-4.0347c-1.051,-2.70821 -0.92718,-4.94457 -0.07969,-6.96518z" fill="#ffe6fd"/><path d="M483.5239,281.48843l-3.41211,2.03455c-4.5806,-14.65796 -8.95228,-29.24563 -12.28593,-44.23733c0,0 -0.54233,-2.44047 1.89814,-2.98279c2.44047,-0.54233 2.9828,1.89814 2.9828,1.89814c2.99281,13.47616 6.84213,26.62079 10.91944,39.78804c1.67872,0.57984 1.54014,2.52004 1.54014,2.52004l-0.6386,0.38077c0.11866,0.38054 0.23747,0.76112 0.35641,1.14175z" fill="#ffe6fd"/><path d="M475.82359,254.60508c-0.31008,-2.48069 2.1706,-2.79078 2.1706,-2.79078l0.66035,0.03606c2.52301,-1.16251 5.24065,-1.67012 6.18215,-4.61358c1.39536,-4.36233 -1.66463,-9.95011 -5.18773,-12.1102c-0.33739,-0.20685 -3.18494,-1.64766 -3.83418,-1.43328c-0.43115,0.14237 -0.3077,0.85994 -0.53706,1.2518c-0.77645,1.32662 -1.285,2.83993 -1.49356,4.36285c0,0 -0.3899,2.4694 -2.85931,2.0795c-2.4694,-0.3899 -2.07951,-2.85932 -2.07951,-2.85932c0.22163,-1.27984 0.22141,-2.61868 0.6649,-3.83951c2.19246,-6.03536 7.45202,-7.11295 12.69149,-3.86128c6.37878,3.95874 11.44034,15.64793 5.03081,22.09389c-1.02622,1.03205 -4.78133,2.68243 -6.48271,3.46892l-2.13546,0.38554c0,0 -2.48069,0.31008 -2.79078,-2.17061z" fill="#ffe6fd"/><path d="M491.61933,236.41524c-2.38985,0.73391 -3.12376,-1.65593 -3.12376,-1.65593l-0.48125,-1.58719c-0.37871,-1.62307 -0.75744,-3.24614 -1.13615,-4.86921c0,0 -0.56807,-2.4346 1.86653,-3.00268c2.43461,-0.56807 3.00268,1.86653 3.00268,1.86653c0.37871,1.62307 0.75743,3.24613 1.13614,4.86921l0.39174,1.25552c0,0 0.73391,2.38985 -1.65593,3.12375z" fill="#ffe6fd"/><path d="M497.54219,268.8094c1.38675,-2.08013 3.46687,-0.69338 3.46687,-0.69338l-0.48322,0.71976c1.97961,-0.47534 3.60977,-1.99147 5.06029,-3.42004c1.31286,-1.29298 3.97558,-2.90328 4.56037,-4.80885c0.59242,-1.93045 -0.81649,-5.1151 -2.26485,-6.40165c-4.20944,-3.73917 -12.82203,-3.78681 -14.8199,-9.76424c-1.8655,-5.58138 1.91472,-14.56114 7.77303,-16.28654c1.84766,-0.54417 3.85136,-0.08255 5.77704,-0.12382c0,0 2.5,0 2.5,2.5c0,2.5 -2.5,2.5 -2.5,2.5c-1.40765,-0.04127 -2.84833,-0.42972 -4.22296,-0.12382c-3.44993,0.76773 -5.29247,6.94468 -4.59342,9.92415c0.46687,1.98992 5.97861,3.36549 7.24719,3.95395c5.64437,2.6183 12.07896,7.78989 9.9167,15.17722c-1.05683,3.61067 -3.56074,4.81944 -5.9239,7.07333c-1.17373,1.11946 -2.04089,2.59839 -3.4046,3.47653c-1.10306,0.7103 -2.51118,0.76092 -3.76677,1.14138l-3.6285,-1.37709c0,0 -2.08012,-1.38675 -0.69337,-3.46688z" fill="#ffe6fd"/><path d="M554.09912,233.38996c-0.97783,-0.09363 -2.01681,-0.13781 -3.17651,-0.14927c-1.54953,-0.01531 -3.20476,-0.50516 -4.51275,0.63709c-5.28153,4.61225 -7.42786,11.08775 -9.21559,17.64074c-0.84806,3.1086 -1.87929,6.64511 -1.48902,9.90035c0.47099,3.92852 3.92711,6.50572 6.84452,8.52343c6.67092,1.75141 11.6384,0.46641 17.64275,-2.52233c2.26321,-1.12654 6.24435,-3.12036 7.60568,-5.47188c1.97314,-3.40831 1.7605,-11.90036 0.38207,-15.4097c-1.57952,-4.02125 -7.88839,-6.95953 -11.26502,-9.0214l-1.79017,-1.1187c0,0 -1.83139,-1.14462 -1.02597,-3.00831zM563.43916,235.59187c3.77794,2.30517 7.77389,5.12071 9.3107,8.917c1.86285,4.60167 1.14467,4.95263 1.01204,8.87989c-0.12788,3.78657 0.31814,7.6669 -1.68583,11.14774c-1.85435,3.22095 -6.47974,5.76534 -9.64006,7.35188c-0.87625,0.4399 -8.11697,3.60624 -8.80755,3.75391c-4.14839,0.88707 -9.19744,-0.05426 -13.19159,-1.16837c-4.36113,-3.03034 -8.85749,-6.4664 -9.66498,-12.2414c-0.55617,-3.97762 0.5608,-8.22342 1.59855,-12.02958c2.03472,-7.46275 4.71053,-15.46523 11.12555,-20.38833c2.64702,-2.03141 4.28065,-1.54846 7.42661,-1.57391c4.83256,-0.03909 8.29098,0.71257 12.72031,2.6417c0,0 2.29039,1.00204 1.28835,3.29244c-0.37805,0.86411 -0.93948,1.25958 -1.49211,1.41704z" fill="#ffe6fd"/><path d="M572.64311,278.871c-1.92055,1.60046 -3.52101,-0.3201 -3.52101,-0.3201l-0.87426,-1.08417c-4.97171,-4.57292 -9.86421,-9.54287 -13.2939,-15.39686c0,0 -1.25968,-2.15944 0.89977,-3.41912c2.15945,-1.25968 3.41913,0.89977 3.41913,0.89977c3.14225,5.41306 7.75234,10.02841 12.35363,14.23045l1.33673,1.56902c0,0 1.60046,1.92056 -0.32009,3.52102z" fill="#ffe6fd"/><path d="M598.54581,274.83985c-0.9848,2.29787 -3.28266,1.31306 -3.28266,1.31306l-2.33067,-1.19339c-1.42548,-1.43206 -3.93793,-3.67019 -4.58947,-5.63775c-0.31915,-0.96379 -0.49202,-2.06561 -0.54338,-3.23144c-0.04345,0.05181 -0.08727,0.10334 -0.13144,0.1546c-3.21054,3.72497 -5.20671,6.538 -9.55997,1.59345c-2.78188,-3.15975 -1.44255,-11.43005 -1.15646,-15.1795c0,0 0.19175,-2.49264 2.68438,-2.30089c2.49264,0.19174 2.30089,2.68438 2.30089,2.68438c-0.17757,2.2887 -0.20792,4.58786 -0.21373,6.88344c-0.00216,0.8563 -0.08546,1.71514 -0.01873,2.56883c0.06173,0.78983 0.22035,1.57137 0.4026,2.34235c0.04931,0.20861 0.1359,0.72734 0.28711,0.57542c2.7433,-2.75605 4.51637,-7.65162 4.70442,-11.56658c-0.32839,-0.67998 -0.51409,-1.72148 0.52739,-2.76296c1.76777,-1.76776 3.53553,0 3.53553,0l0.72519,1.5129c1.32415,-1.89489 3.07668,-3.61122 5.32435,-3.57048c4.72747,0.08568 5.30084,4.97899 4.82098,7.9845c-0.50122,3.13929 -2.24106,7.29058 -5.5324,8.63426c-1.02571,0.41875 -2.16573,-0.21365 -3.27166,-0.53242c-0.00267,0.11526 -0.00519,0.2292 -0.00764,0.34167c-0.01686,0.77498 -0.34501,1.57972 -0.12254,2.32228c0.18672,0.62324 3.28369,3.56247 3.37009,3.64843l0.76472,0.1332c0,0 2.29787,0.9848 1.31307,3.28267zM593.64202,260.10175c0.23773,0.02395 0.38945,0.06533 0.38945,0.06533c2.22761,1.38872 2.60662,-2.20231 3.06527,-3.95822c0.18419,-0.70517 0.56004,-2.59508 -0.04321,-2.18607c-2.03735,1.38134 -2.9706,3.67576 -3.41152,6.07897z" fill="#ffe6fd"/><path d="M597.77834,277.34988c1.76777,-1.76776 3.53553,0 3.53553,0l-0.15697,-0.07278c1.83218,1.44069 3.41319,1.84624 5.66396,-0.01101c0.26468,-0.2184 -0.22764,-0.64746 -0.34109,-0.97133c-0.23931,-0.68318 -0.50117,-1.3589 -0.71717,-2.04979c-0.39088,-1.25021 -0.4708,-2.62446 -1.10293,-3.77173c-1.6393,-2.9752 -5.39866,-3.83028 -6.42347,-7.5265c-1.0925,-3.94033 1.64187,-8.46592 5.62294,-9.56997c2.50203,-0.69388 6.38564,0.07414 8.93384,0.43406c0,0 2.47487,0.35355 2.12132,2.82843c-0.35356,2.47487 -2.82843,2.12132 -2.82843,2.12132c-1.19474,-0.1728 -2.38262,-0.4026 -3.58422,-0.51839c-1.01656,-0.09796 -2.06625,-0.3516 -3.06137,-0.122c-0.55952,0.12909 -0.85906,0.76253 -1.30146,1.1286c-3.58423,2.96579 3.39298,6.15539 4.79871,8.63604c1.31509,2.32071 2.27286,4.94949 2.47767,7.60903c0.40411,5.24755 -0.22383,5.01767 -5.27157,7.27654c-1.15839,0.51838 -2.42775,1.18547 -3.67966,0.9774c-1.50703,-0.25048 -2.66097,-1.50159 -3.99145,-2.25239l-0.69419,-0.61c0,0 -1.76776,-1.76776 0,-3.53553z" fill="#ffe6fd"/><path d="M621.34259,282.25879c2.49969,0.03898 2.46071,2.53868 2.46071,2.53868l-0.04355,2.65094c-0.5543,2.31592 0.16562,5.42224 -1.66291,6.94776c-1.42424,1.18823 -3.73987,-0.33762 -5.47526,-0.99245c-3.83474,-1.44699 -6.55466,-7.35269 -7.22735,-11.0631c-1.98396,-10.94318 2.6516,-24.31955 8.15397,-33.5192c0,0 1.28624,-2.14373 3.42997,-0.8575c2.14373,1.28624 0.85749,3.42997 0.85749,3.42997c-4.50217,7.4781 -7.54853,16.68699 -7.61855,25.48149c-0.03197,4.0152 -0.35626,4.27804 1.27861,7.60015c0.58786,1.19457 1.20877,2.39064 2.02353,3.4436c0.37505,0.48469 1.08444,0.62144 1.48248,1.08744c0.26743,0.31309 0.48589,1.56494 0.43419,1.15644c-0.12876,-1.01721 -0.44524,-2.00174 -0.66787,-3.00261l0.03585,-2.44091c0,0 0.03899,-2.4997 2.53868,-2.46072z" fill="#ffe6fd"/><path d="M633.09362,265.13182c-1.32499,2.11999 -3.44499,0.795 -3.44499,0.795l-2.22247,-1.39086c-7.07884,-5.1458 -15.21616,-9.19399 -21.75122,-14.97728c0,0 -1.86852,-1.66091 -0.20761,-3.52944c1.66091,-1.86853 3.52943,-0.20762 3.52943,-0.20762c6.32579,5.65105 14.34302,9.56133 21.22655,14.56994l2.07532,1.29525c0,0 2.11999,1.325 0.79499,3.44499z" fill="#ffe6fd"/><path d="M543.56251,287.06348c-1.76776,1.76776 -3.53553,0 -3.53553,0l-0.26945,-0.30499c-0.40776,-0.39285 -0.81113,-0.7903 -1.22327,-1.17854c-0.13196,-0.1243 -0.44535,-0.53634 -0.40872,-0.35879c0.4845,2.34812 1.61076,4.83771 2.30322,7.14591c0,0 0.71837,2.39457 -1.6762,3.11293c-2.39456,0.71837 -3.11293,-1.67619 -3.11293,-1.67619c-0.15981,-0.53269 -0.34464,-1.10418 -0.53681,-1.69979c-2.19927,3.40175 -7.07569,5.20896 -10.71399,2.39946c-1.58987,-1.2277 -2.31786,-3.72139 -2.31525,-6.29345c-1.91187,0.22825 -3.80831,0.51889 -5.7072,0.79137c0.13248,1.44325 -0.01147,2.90214 -0.00719,4.35265c0,0 0,2.5 -2.5,2.5c-2.5,0 -2.5,-2.5 -2.5,-2.5c0.00374,-1.12227 -0.14705,-2.37779 -0.35048,-3.7009c-0.05507,0.00482 -0.11014,0.00955 -0.16524,0.01421c0,0 -2.49136,0.20762 -2.69897,-2.28375c-0.17111,-2.05333 1.49111,-2.55537 2.08091,-2.66844c-0.62207,-4.72159 -0.44338,-9.31532 4.52099,-11.21357c1.0624,-0.40624 2.27372,-0.07152 3.41058,-0.10727l1.65526,0.53254c0,0 2.23607,1.11803 1.11803,3.3541c-1.11803,2.23607 -3.35411,1.11804 -3.35411,1.11804l0.58082,-0.00468c-3.78446,-0.20694 -3.60851,2.68446 -2.89861,5.72571c2.57785,-0.36403 5.14826,-0.78279 7.75346,-1.04331l0.08952,0.03872c0.43727,-0.95989 1.00764,-1.76353 1.69862,-2.29802c1.2285,-0.95029 3.09245,-0.29281 4.63867,-0.43922c0,0 1.93297,0 2.39955,1.69968l0.33026,0.06324c0.61556,0.4575 1.17484,0.82614 1.66945,1.16491c0.5976,-1.74528 2.25851,-2.84813 5.84512,-2.59234c1.22768,0.08756 2.04967,1.36319 3.0745,2.04478l0.80499,0.76946c0,0 1.76776,1.76777 0,3.53553zM527.56999,284.99815c-0.57475,0.70269 -0.71412,5.0425 -0.06544,5.5948c1.59404,1.35721 5.04869,-1.697 3.60529,-3.38718c-0.41968,-0.49144 -1.14328,-0.60291 -1.71491,-0.90437l0.58092,0.41987c0,0 -1.9507,0 -2.40586,-1.72312z" fill="#ffe6fd"/><g fill="#ffe6fd"><path d="M495.42087,316.76639c-0.06716,2.4991 -2.56626,2.43194 -2.56626,2.43194l-0.04198,-0.0114c-2.27789,0.13128 -3.18894,-0.02477 -5.33363,0.95617c-1.85879,0.85018 -3.47552,2.32706 -5.38147,3.00089c1.12139,2.09467 2.25063,4.18612 3.40546,6.26529c3.06946,5.52632 6.66578,10.65465 9.50274,16.29089c1.23147,0.68333 1.18918,2.25715 1.18918,2.25715l-4.79338,1.78007c-2.88413,-6.30364 -6.91396,-11.85883 -10.26957,-17.90033c-1.56719,-2.8216 -3.08536,-5.66731 -4.60085,-8.51308c-0.4466,-0.04081 -2.40146,-0.34601 -2.34196,-2.56013c0.01392,-0.51788 0.13227,-0.92555 0.31117,-1.24646c-2.65244,-4.95015 -5.35951,-9.86792 -8.36633,-14.62612c-0.71874,0.24665 -1.9882,0.40256 -2.89353,-1.03784c-1.33037,-2.11663 0.78626,-3.447 0.78626,-3.447c0.12488,-0.07799 0.24996,-0.15508 0.37525,-0.23129c0.17105,-0.36301 0.46912,-0.72297 0.95565,-1.04442c0.65155,-0.43048 1.23405,-0.52297 1.72706,-0.44662c5.84453,-2.96634 12.06782,-4.43833 18.38059,-6.56698l1.67102,-0.10834c0,0 2.4991,0.06716 2.43194,2.56626c-0.06716,2.4991 -2.56626,2.43194 -2.56626,2.43194l0.05994,-0.15163c-5.6163,1.8913 -11.25168,3.18334 -16.51178,5.67054c3.27144,5.21546 6.20151,10.61109 9.09743,16.02964c0.18733,-0.00954 0.37395,-0.0297 0.55959,-0.06395c1.56757,-0.28918 3.83485,-2.30771 5.19655,-2.89745c3.16639,-1.37133 3.89546,-1.17652 7.09018,-1.39704l0.49505,0.00303c0,0 2.4991,0.06716 2.43194,2.56626z"/><path d="M518.84237,335.13052c-0.06716,2.4991 -2.56626,2.43194 -2.56626,2.43194l-0.3105,-0.01862c-3.26612,0.20452 -8.51261,1.89931 -11.23653,-0.89547c-0.52938,-0.54315 -0.41432,-5.75614 -0.63568,-7.08216c-0.57317,-3.43346 -1.81476,-6.81969 -2.54398,-10.21179c-1.47191,-6.84688 -1.41627,-14.03149 -1.23087,-20.99728c0,0 0.06716,-2.4991 2.56626,-2.43194c2.4991,0.06716 2.43194,2.56626 2.43194,2.56626c-0.25887,9.53742 0.88838,18.13208 2.94965,27.41493c0.57519,2.59032 1.22776,3.36372 0.98209,6.16591c-0.04542,0.51807 -0.96424,1.01814 -0.63849,1.42354c0.32874,0.40912 1.03121,-0.19599 1.54703,-0.29287c1.81102,-0.34016 3.65103,-0.52937 5.48983,-0.64895l0.76357,0.01025c0,0 2.4991,0.06716 2.43194,2.56626z"/><path d="M538.0993,315.4124c2.4991,0.06716 2.43194,2.56626 2.43194,2.56626l-0.00722,0.26851c-0.18292,6.13697 -2.29762,19.73933 -11.90999,15.70731c-1.38236,-0.57985 -2.47464,-1.7202 -3.5355,-2.77932c-1.37478,-1.37253 -2.84997,-2.7454 -3.73199,-4.47626c-2.8244,-5.54252 -0.66189,-13.46763 0.53033,-19.08171c0,0 0.52109,-2.44509 2.96618,-1.924c2.44509,0.5211 1.924,2.96619 1.924,2.96619c-0.90579,4.23427 -3.19992,11.53713 -0.94476,15.81069c0.64917,1.23019 1.78474,2.13756 2.75556,3.13371c5.82871,5.98072 6.85877,-5.69539 6.94798,-9.49092l0.00722,-0.26851c0,0 0.06716,-2.4991 2.56626,-2.43194z"/><path d="M570.17148,306.89292c-1.07635,2.25643 -3.33278,1.18008 -3.33278,1.18008l-1.99211,-0.98988c-7.53099,-0.71465 -15.17857,-0.59955 -22.73998,-0.80275c0,0 -2.4991,-0.06716 -2.43194,-2.56626c0.06716,-2.4991 2.56626,-2.43194 2.56626,-2.43194c7.97534,0.21432 16.03962,0.07348 23.96704,0.98985l2.78342,1.28812c0,0 2.25643,1.07635 1.18008,3.33278z"/><path d="M548.26537,337.07859c-2.4991,-0.06716 -2.43194,-2.56626 -2.43194,-2.56626c0.26458,-9.84552 0.57968,-21.57063 0.84426,-31.41615c0,0 0.06716,-2.4991 2.56626,-2.43194c2.4991,0.06716 2.43194,2.56626 2.43194,2.56626c-0.26458,9.84552 -0.52917,19.69104 -0.79375,29.53655l-0.05051,1.8796c0,0 -0.06716,2.4991 -2.56626,2.43194z"/><path d="M583.86937,321.16983c-1.213,2.18601 -3.39901,0.97301 -3.39901,0.97301l-2.58037,-1.44001c-1.40928,-0.54757 -2.9891,-0.77584 -4.22783,-1.6427c-0.61348,-0.42932 -1.12259,-0.97679 -1.6004,-1.55967c-1.15097,3.67053 -2.31858,7.33826 -3.37318,11.02889c-0.41827,1.46375 -0.68647,2.97731 -1.23993,4.39548c-0.14883,0.38136 -0.91763,0.50639 -0.82907,0.90607c0.07286,0.32879 0.668,-0.15505 1.00304,-0.12097c1.4345,0.14592 2.83999,0.52115 4.2754,0.65791c2.55062,0.24301 5.12635,0.27109 7.65723,0.67028l-0.93841,-0.22387c0,0 2.02363,-1.46796 3.49159,0.55567c1.46796,2.02363 -0.55567,3.49159 -0.55567,3.49159l-2.78335,1.11447c-4.09052,-0.65738 -8.71357,-0.05438 -12.64134,-1.49465c-1.49871,-0.54956 -3.3241,-1.13479 -4.04912,-2.55694c-0.65847,-1.29162 0.25396,-2.89486 0.54581,-4.31496c0.25968,-1.26357 2.0964,-7.16072 2.44251,-8.5405c1.8103,-7.21686 4.66785,-14.14223 6.12263,-21.44011c0.64643,-3.24281 0.35465,-6.48101 4.50609,-7.97443c3.41938,-1.23007 7.49871,1.92442 10.01077,3.36806c0,0 2.15864,1.26105 0.89759,3.4197c-1.26105,2.15864 -3.4197,0.89759 -3.4197,0.89759c-1.87675,-1.11784 -3.72559,-3.49173 -5.84512,-2.96319c-0.51595,0.12866 -0.73147,0.81907 -0.88245,1.32893c-0.76339,2.57796 -0.72988,5.34347 -1.44373,7.93559c-0.38559,1.40015 -0.79018,2.79661 -1.20673,4.19077c0.16983,0.1257 0.3223,0.27198 0.4543,0.43455c1.49348,1.75764 3.54192,3.13297 5.71752,3.89347l2.9179,1.61094c0,0 2.18601,1.213 0.97301,3.39901z"/></g></g></g></g></svg>