<svg version="1.1" xmlns="http://www.w3.org/2000/svg" xmlns:xlink="http://www.w3.org/1999/xlink" width="142.13186" height="193.84342" viewBox="0,0,142.13186,193.84342"><defs><radialGradient cx="76.96552" cy="213.80224" r="71.05124" gradientUnits="userSpaceOnUse" id="color-1"><stop offset="0" stop-color="#3e0e6b" stop-opacity="0.51373"/><stop offset="1" stop-color="#3e0e6b" stop-opacity="0"/></radialGradient><linearGradient x1="71.83554" y1="190.14315" x2="82.41039" y2="237.57798" gradientUnits="userSpaceOnUse" id="color-2"><stop offset="0" stop-color="#f2b34d"/><stop offset="1" stop-color="#f2544e"/></linearGradient><linearGradient x1="72.42853" y1="192.80305" x2="81.81741" y2="234.91808" gradientUnits="userSpaceOnUse" id="color-3"><stop offset="0" stop-color="#b9643b"/><stop offset="1" stop-color="#cb4641"/></linearGradient><linearGradient x1="72.78648" y1="194.40871" x2="81.45946" y2="233.31241" gradientUnits="userSpaceOnUse" id="color-4"><stop offset="0" stop-color="#f2b34d"/><stop offset="1" stop-color="#f2544e"/></linearGradient></defs><g transform="translate(-5.89959,-142.73631)"><g data-paper-data="{&quot;isPaintingLayer&quot;:true}" fill-rule="nonzero" stroke-linecap="butt" stroke-linejoin="miter" stroke-miterlimit="10" stroke-dasharray="" stroke-dashoffset="0" style="mix-blend-mode: normal"><path d="M121.54459,322.97607c-8.73356,0.10862 -19.16664,-12.91089 -19.16664,-12.91089c0,0 -2.7388,-19.95134 -4.14284,-30.39376c-0.53456,-3.97577 -0.89086,3.86777 -1.7137,-1.64306c-1.05634,-7.07466 -2.54078,-29.79316 -2.54078,-29.79316c0,0 1.93331,-26.37574 7.7846,-26.96802c5.65134,-0.57205 9.06874,7.21809 10.18729,9.38671c0.19142,0.37112 -0.12004,0.4525 -0.12004,0.4525c0,0 6.48883,14.86943 9.79387,27.31691c0.5442,2.04956 -2.32242,-1.6476 -1.72053,0.47413c5.21017,18.36668 10.99548,39.71041 11.11105,40.24093c0.07862,0.36091 -0.92109,-2.72314 0.99877,-1.99263c2.91945,1.11087 6.88612,10.13737 7.22571,13.5349c0.7878,7.88186 -11.98209,12.22436 -17.69679,12.29543z" data-paper-data="{&quot;index&quot;:null}" fill="#915c9c" stroke="#3e0e6c" stroke-width="2.5"/><path d="" data-paper-data="{&quot;index&quot;:null}" fill="#915c9c" stroke="#3e0e6c" stroke-width="2.5"/><path d="M13.91042,246.54875c-18.08539,-34.82437 -4.51578,-77.71621 30.30859,-95.80161c34.82437,-18.08539 77.71621,-4.51577 95.80161,30.30859c18.08539,34.82437 4.51577,77.71621 -30.30859,95.80161c-34.82437,18.08539 -77.7162,4.51577 -95.8016,-30.30859z" fill="url(#color-1)" stroke="none" stroke-width="0"/><g><path d="M36.86134,224.00631c-2.58436,-11.94173 -0.27543,-23.32951 5.78851,-32.17238c0.35669,-0.52015 -0.78423,-1.19621 -0.4018,-1.69834c5.51775,-7.24465 15.20232,-12.40731 25.33675,-14.60055c0.78109,-0.16905 1.53893,-1.54345 2.31163,-1.67354c11.96249,-2.01435 23.15816,1.1402 31.42319,7.68113c0.5553,0.43947 1.41411,0.08782 1.94187,0.55702c6.24442,5.55185 10.22737,13.97416 12.23102,23.23252c0.25612,1.18349 2.13532,1.0148 2.28829,2.18374c1.2956,9.90069 -1.21515,20.51258 -6.77399,28.40597c-0.49731,0.70618 -1.23392,0.39749 -1.77571,1.07514c-6.24391,7.80979 -15.38448,13.65815 -26.11572,15.98056c-0.73023,0.15803 -1.38962,0.63273 -2.12177,0.75695c-15.06365,2.55569 -29.90202,-3.14049 -38.02001,-12.68365c-0.86442,-1.01617 0.81953,-0.95106 0.05804,-2.08539c-2.82988,-4.21532 -4.93115,-9.23356 -6.17027,-14.95919zM82.80901,229.65649c17.50825,-3.78903 13.07036,-8.72952 9.28132,-26.2378c-3.78904,-17.50826 -1.95114,-5.36764 -19.45939,-1.5786c-17.50825,3.78903 -5.98386,-3.44077 -2.19482,14.06748c3.78904,17.50826 -4.82726,21.38931 12.68099,17.60028z" fill="#75587b" stroke="#3e0e6c" stroke-width="2.5"/><path d="M111.74925,206.37894c3.72514,19.84269 -6.88972,39.32991 -23.70897,43.52592c-16.81923,4.19601 -33.47375,-8.48813 -37.19888,-28.33083c-3.72514,-19.84269 6.88971,-39.3299 23.70895,-43.5259c16.81923,-4.19601 33.47376,8.48813 37.19889,28.33083z" fill="#762e36" stroke="#3e0e6c" stroke-width="2.5"/><g fill="#4e175c" stroke="none" stroke-width="0"><g><g><path d="M71.50338,185.82677c-0.43048,-1.23907 0.86897,-3.00135 2.90244,-3.93616c2.03346,-0.93481 4.03087,-0.68814 4.46135,0.55093c0.32114,0.92433 -1.38823,6.57043 -1.90474,6.80787c-0.92646,0.42591 -5.2247,-2.74814 -5.45905,-3.42266z"/><path d="M79.39155,182.31552c0.07621,-1.31646 1.92385,-2.15034 4.12679,-1.86252c2.20293,0.28781 3.92697,1.58835 3.85076,2.90479c-0.05685,0.98208 -3.74387,4.9867 -4.30342,4.9136c-1.00369,-0.13114 -3.71562,-5.23921 -3.67414,-5.95588z"/><path d="M87.91233,183.45591c0.3345,-1.24509 2.31162,-1.52308 4.41606,-0.62092c2.10444,0.90216 3.53928,2.64289 3.2048,3.88799c-0.24953,0.92885 -4.65673,3.7358 -5.19127,3.50665c-0.95882,-0.41105 -2.61168,-6.09588 -2.42959,-6.7737z"/><path d="M100.26547,188.89634c1.57391,1.93139 2.22201,4.23174 1.44757,5.13792c-0.57771,0.67602 -5.64713,0.73451 -6.04692,0.24392c-0.7171,-0.87998 -0.07431,-6.74482 0.34728,-7.23815c0.77444,-0.90618 2.67815,-0.0751 4.25206,1.8563z"/><path d="M103.04484,194.16042c1.04486,-0.3778 2.47044,1.37379 3.18414,3.9123c0.71371,2.53852 0.44524,4.90268 -0.59959,5.2805c-0.77945,0.28184 -5.42442,-2.39187 -5.6057,-3.03667c-0.32517,-1.1566 2.45237,-5.95047 3.02117,-6.15614z"/></g><g data-paper-data="{&quot;index&quot;:null}"><path d="M71.30354,185.50231c0.23435,0.67452 -0.97825,6.38194 -1.90472,6.80786c-0.5165,0.23745 -5.13792,-2.4983 -5.45907,-3.42264c-0.43048,-1.23907 0.86897,-3.00134 2.90243,-3.93615c2.03346,-0.93481 4.03086,-0.68815 4.46135,0.55092z"/><path d="M63.48433,189.21197c0.45945,0.48636 1.555,6.33752 0.90633,7.22827c-0.36163,0.49659 -5.43249,0.51806 -6.06209,-0.14843c-0.84398,-0.89344 -0.37401,-3.20256 1.04971,-5.15761c1.42372,-1.95505 3.26207,-2.81567 4.10604,-1.92223z"/><path d="M57.99378,196.79358c0.53806,0.34676 2.74653,5.77617 2.29809,6.83415c-0.25002,0.58982 -5.1251,2.05004 -5.86241,1.57488c-0.98837,-0.63696 -0.99168,-3.03576 -0.00742,-5.35786c0.98426,-2.32208 2.58338,-3.68813 3.57175,-3.05117z"/><path d="M54.27145,205.81305c0.60103,0.0232 4.58074,3.76306 4.58841,4.96916c0.00427,0.67239 -3.7039,4.64907 -4.52752,4.61728c-1.10407,-0.04262 -2.01273,-2.22316 -2.02953,-4.87038c-0.01681,-2.64721 0.86458,-4.75868 1.96865,-4.71606z"/><path d="M53.44296,216.54676c0.53536,-0.30193 5.42012,0.96947 5.87749,2.0653c0.25497,0.61092 -1.50863,6.23075 -2.24227,6.6445c-0.98343,0.55462 -2.59443,-0.94555 -3.59826,-3.35069c-1.00383,-2.40515 -1.02038,-4.80449 -0.03695,-5.3591z"/></g></g><g data-paper-data="{&quot;index&quot;:null}"><g><path d="M90.10351,242.37617c-0.22017,-0.68084 1.10998,-6.35759 2.0446,-6.75922c0.52104,-0.22392 5.08218,2.63394 5.38388,3.56692c0.40444,1.25065 -0.93061,2.97913 -2.98193,3.86067c-2.05132,0.88154 -4.0421,0.58229 -4.44654,-0.66836z"/><path d="M97.99381,238.87134c-0.44902,-0.49856 -1.4223,-6.37974 -0.75562,-7.25361c0.37168,-0.48718 5.43911,-0.37532 6.05441,0.30786c0.8248,0.91582 0.30726,3.21308 -1.15595,5.13109c-1.46322,1.91801 -3.31803,2.73048 -4.14283,1.81466z"/><path d="M103.63759,231.43251c-0.53045,-0.36098 -2.62458,-5.84959 -2.15451,-6.89601c0.26207,-0.58338 5.16377,-1.91572 5.89067,-1.42104c0.97438,0.66308 0.92792,3.06249 -0.10379,5.35917c-1.03171,2.29668 -2.65798,3.62097 -3.63236,2.95789z"/><path d="M107.54429,222.50903c-0.60011,-0.03901 -4.49915,-3.8843 -4.48178,-5.09087c0.00968,-0.67266 3.79757,-4.55266 4.61991,-4.49919c1.10236,0.07166 1.96506,2.27653 1.92692,4.92476c-0.03814,2.64822 -0.9627,4.73695 -2.06505,4.6653z"/><path d="M108.59495,211.79484c-0.54123,0.2879 -5.39592,-1.1122 -5.83019,-2.22028c-0.2421,-0.61775 1.63681,-6.19237 2.37848,-6.58691c0.9942,-0.52886 2.57284,1.01397 3.526,3.446c0.95316,2.43203 0.9199,4.83232 -0.07429,5.36118z"/></g><g data-paper-data="{&quot;index&quot;:null}"><path d="M87.16297,246.63172c-2.05133,0.88154 -4.04211,0.5823 -4.44655,-0.66835c-0.30172,-0.93299 1.52355,-6.5353 2.0446,-6.75922c0.93461,-0.40165 5.16372,2.88608 5.38389,3.56691c0.40444,1.25065 -0.93062,2.97912 -2.98195,3.86066z"/><path d="M78.0275,247.83001c-2.1953,-0.34581 -3.89107,-1.69193 -3.78757,-3.00665c0.07719,-0.98077 3.84453,-4.88929 4.40215,-4.80146c1.00023,0.15755 3.60407,5.33801 3.54774,6.05373c-0.10349,1.31473 -1.96701,2.1002 -4.16231,1.7544z"/><path d="M69.27354,245.21584c-2.08412,-0.9577 -3.48175,-2.7365 -3.12167,-3.97306c0.26863,-0.92248 4.73075,-3.61414 5.26013,-3.37087c0.94956,0.43634 2.48317,6.16584 2.28715,6.83902c-0.36007,1.23657 -2.34149,1.46264 -4.42562,0.50493z"/><path d="M61.46825,238.9445c-1.53263,-1.9732 -2.13247,-4.29103 -1.33982,-5.17705c0.59131,-0.66096 5.65811,-0.58617 6.04742,-0.08496c0.69829,0.89902 -0.06574,6.7482 -0.49725,7.23054c-0.79265,0.88602 -2.6777,0.00469 -4.21034,-1.96851z"/><path d="M55.69972,229.60938c-0.66048,-2.55782 -0.34315,-4.9154 0.70874,-5.26583c0.78471,-0.2614 5.37069,2.535 5.53846,3.1847c0.30093,1.16538 -2.57405,5.88721 -3.14668,6.07798c-1.0519,0.35043 -2.44004,-1.43902 -3.10053,-3.99685z"/></g></g></g><g><path d="M52.87764,218.95414c-2.92016,-13.09876 5.56759,-25.99789 18.95792,-28.81101c13.39032,-2.81311 26.61261,5.52507 29.53277,18.62385c2.92016,13.09876 -5.5676,25.99789 -18.95791,28.811c-13.39032,2.81311 -26.61259,-5.52507 -29.53276,-18.62383z" fill="url(#color-2)" stroke="#3e0e6c" stroke-width="2.5"/><path d="M55.59673,218.38291c-2.59266,-11.62975 4.94319,-23.08226 16.8318,-25.57986c11.88862,-2.4976 23.62799,4.90543 26.22068,16.53517c2.59266,11.62975 -4.94318,23.08226 -16.83179,25.57987c-11.88862,2.4976 -23.62801,-4.90544 -26.22067,-16.53519z" fill="url(#color-3)" stroke="none" stroke-width="0"/><path d="M57.23815,218.03807c-2.39496,-10.74296 4.56626,-21.32219 15.54834,-23.62935c10.98208,-2.30719 21.82634,4.53138 24.2213,15.27434c2.39497,10.74296 -4.56627,21.32218 -15.54835,23.62936c-10.98208,2.30719 -21.82634,-4.5314 -24.2213,-15.27435z" fill="url(#color-4)" stroke="none" stroke-width="0"/></g><g fill="#ffe1da" stroke="#3e0e6c" stroke-width="2.5"><g><g><path d="M78.32132,179.22095c2.2515,-0.62351 4.31001,-0.01651 4.59785,1.35573c0.21471,1.02371 -2.31659,6.6357 -2.88847,6.79406c-1.02582,0.28408 -5.10824,-3.78911 -5.26493,-4.53615c-0.28784,-1.37225 1.30405,-2.99014 3.55555,-3.61365z"/><path d="M83.48468,180.53636c0.25276,-1.36479 2.29648,-1.91511 4.56476,-1.22913c2.26826,0.68597 3.90215,2.34842 3.64938,3.71321c-0.18857,1.01811 -4.57442,4.56644 -5.15057,4.3922c-1.03347,-0.31255 -3.20118,-6.13333 -3.06358,-6.87631z"/><path d="M92.25459,183.21801c0.51375,-1.24499 2.62,-1.19078 4.70443,0.12112c2.08442,1.31188 3.35773,3.38466 2.84398,4.62965c-0.38326,0.92876 -5.36566,3.0976 -5.89512,2.76436c-0.9497,-0.59773 -1.93297,-6.83736 -1.65329,-7.51512z"/><path d="M104.47129,191.07023c1.39381,2.29667 1.76999,4.81786 0.84023,5.63126c-0.6936,0.60679 -6.00807,-0.21716 -6.36211,-0.80053c-0.63504,-1.04641 0.80848,-7.07361 1.31464,-7.51642c0.92977,-0.8134 2.81342,0.38902 4.20723,2.6857z"/><path d="M106.68909,197.06612c1.14341,-0.21305 2.40559,1.8695 2.81915,4.6515c0.41355,2.782 -0.17813,5.20998 -1.32154,5.42304c-0.85298,0.15894 -5.36414,-3.45104 -5.46918,-4.15769c-0.18842,-1.26753 3.34912,-5.80085 3.97156,-5.91684z"/></g><g data-paper-data="{&quot;index&quot;:null}"><path d="M74.5992,182.46008c0.15669,0.74704 -1.86265,6.50997 -2.88847,6.79405c-0.57188,0.15836 -5.05023,-3.51243 -5.26494,-4.53614c-0.28784,-1.37225 1.30405,-2.99015 3.55554,-3.61364c2.2515,-0.62351 4.31003,-0.01651 4.59786,1.35574z"/><path d="M65.92641,184.97808c0.41705,0.58937 0.79506,6.9058 -0.00102,7.72499c-0.44381,0.45669 -5.75493,-0.40629 -6.32642,-1.21393c-0.76611,-1.08264 0.02929,-3.41782 1.77657,-5.21581c1.74728,-1.79798 3.78478,-2.37789 4.55088,-1.29526z"/><path d="M59.18255,191.95596c0.51769,0.45695 2.11615,6.52622 1.50769,7.55544c-0.33922,0.57378 -5.63445,1.25112 -6.34385,0.62495c-0.95095,-0.83938 -0.63919,-3.35108 0.69626,-5.61003c1.33545,-2.25895 3.18895,-3.40973 4.13991,-2.57036z"/><path d="M54.10078,200.74778c0.62613,0.12924 4.30075,4.73913 4.15028,6.00305c-0.08388,0.70463 -4.48819,4.22002 -5.34621,4.04291c-1.15017,-0.23741 -1.81486,-2.67872 -1.48461,-5.45282c0.33025,-2.7741 1.53038,-4.83055 2.68054,-4.59314z"/><path d="M51.82308,211.83942c0.60009,-0.22256 5.54653,1.96131 5.88132,3.18831c0.18663,0.68404 -2.39799,6.25905 -3.22034,6.56406c-1.10233,0.40885 -2.59167,-1.44284 -3.32647,-4.13587c-0.7348,-2.69303 -0.43687,-5.20763 0.66549,-5.61649z"/></g></g><g data-paper-data="{&quot;index&quot;:null}"><g><path d="M86.80625,245.27978c-0.14101,-0.75117 1.99734,-6.46146 3.02849,-6.7187c0.57487,-0.14342 4.97405,3.6447 5.1673,4.67406c0.25904,1.37983 -1.36566,2.95612 -3.62887,3.52075c-2.2632,0.56463 -4.30788,-0.09625 -4.56692,-1.47609z"/><path d="M95.52656,242.9886c-0.40452,-0.6003 -0.6506,-6.92682 0.16211,-7.72521c0.45308,-0.44509 5.74312,0.55685 6.29745,1.37947c0.7431,1.1027 -0.10056,3.41718 -1.88432,5.16951c-1.78377,1.75232 -3.83217,2.27895 -4.57526,1.17623z"/><path d="M102.41204,236.18694c-0.50785,-0.47051 -1.97883,-6.58179 -1.34927,-7.59513c0.351,-0.56492 5.65729,-1.10375 6.35323,-0.45899c0.93288,0.86429 0.56895,3.36791 -0.81285,5.59198c-1.3818,2.22408 -3.25824,3.3264 -4.19111,2.46213z"/><path d="M107.67422,227.5278c-0.62309,-0.14562 -4.19943,-4.85179 -4.02269,-6.11182c0.09854,-0.70246 4.57362,-4.10272 5.42745,-3.90317c1.14457,0.2675 1.75793,2.72628 1.37002,5.49184c-0.38792,2.76556 -1.63022,4.79065 -2.77478,4.52314z"/><path d="M110.18191,216.49538c-0.60438,0.20687 -5.50242,-2.10649 -5.81142,-3.34228c-0.17227,-0.68896 2.52713,-6.19651 3.35537,-6.48002c1.11023,-0.38002 2.56008,1.51069 3.2383,4.22305c0.67822,2.71236 0.32799,5.21922 -0.78224,5.59925z"/></g><g data-paper-data="{&quot;index&quot;:null}"><path d="M83.16884,249.2211c-2.2632,0.56463 -4.30788,-0.09624 -4.56693,-1.47608c-0.19324,-1.02937 2.45363,-6.57529 3.02849,-6.7187c1.03115,-0.25725 5.02628,3.92288 5.1673,4.67405c0.25905,1.37983 -1.36565,2.95613 -3.62886,3.52073z"/><path d="M73.44815,248.88031c-2.25266,-0.74534 -3.85094,-2.4506 -3.56985,-3.80882c0.20968,-1.0132 4.667,-4.44692 5.23918,-4.25761c1.02635,0.33959 3.07142,6.21728 2.9184,6.95668c-0.28109,1.35822 -2.33509,1.85507 -4.58775,1.10975z"/><path d="M64.62779,244.61518c-2.05588,-1.36647 -3.2852,-3.47261 -2.74578,-4.7042c0.40241,-0.91876 5.42717,-2.95731 5.94937,-2.61023c0.9367,0.62258 1.78926,6.88816 1.49562,7.55861c-0.53942,1.23158 -2.64332,1.12227 -4.69919,-0.2442z"/><path d="M57.28109,236.68725c-1.34512,-2.33319 -1.66851,-4.86434 -0.72231,-5.65343c0.70587,-0.58865 6.00007,0.37438 6.34175,0.96703c0.61285,1.06304 -0.95555,7.0527 -1.47064,7.48228c-0.9462,0.7891 -2.80368,-0.46267 -4.1488,-2.79589z"/><path d="M52.46909,225.90775c-0.3553,-2.79291 0.28666,-5.20549 1.43386,-5.38865c0.8558,-0.13664 5.28908,3.59149 5.37933,4.30091c0.16188,1.27251 -3.46816,5.71344 -4.09267,5.81314c-1.1472,0.18314 -2.36522,-1.93248 -2.72052,-4.7254z"/></g></g></g><path d="M73.65057,214.94356c0.8226,4.3817 1.52268,13.36706 1.25897,13.43286c-0.27302,0.06812 -2.86802,-8.55045 -3.67162,-12.83096c-0.87383,-4.65467 -1.49763,-13.3733 -1.25898,-13.43282c0.18904,-0.04716 2.69642,7.63627 3.67163,12.83093z" fill="#3e0e6c" stroke="none" stroke-width="0"/></g><path d="M15.14598,321.33587c-0.00429,-3.41445 5.44083,-11.95436 8.23357,-13.35359c1.83653,-0.92014 1.41624,4.85452 1.45811,4.48753c0.06156,-0.53946 3.04927,-26.93994 6.3833,-45.73795c0.38515,-2.17156 -1.69868,-0.41237 -1.36365,-2.50631c2.03469,-12.71704 5.69532,-28.58989 5.69532,-28.58989c0,0 2.28162,-11.63488 8.9339,-11.63488c5.8812,0 11.13474,24.49383 11.13474,24.49383c0,0 1.58534,26.30464 1.24685,33.44972c-0.26367,5.56568 -1.26843,-0.82264 -1.39988,3.18674c-0.34527,10.53073 -0.86911,37.14039 -0.86911,37.14039c0,0 -22.54984,12.28679 -31.24994,13.05827c-5.6928,0.5048 -8.19326,-6.07273 -8.20322,-13.99386z" fill="#915c9c" stroke="#3e0e6c" stroke-width="2.5"/></g></g></svg>