<svg version="1.1" xmlns="http://www.w3.org/2000/svg" xmlns:xlink="http://www.w3.org/1999/xlink" width="254.32316" height="315.28072" viewBox="0,0,254.32316,315.28072"><g transform="translate(-377.0392,-85.90759)"><g data-paper-data="{&quot;isPaintingLayer&quot;:true}" fill-rule="nonzero" stroke-linejoin="miter" stroke-miterlimit="10" stroke-dasharray="" stroke-dashoffset="0" style="mix-blend-mode: normal"><path d="M456.06706,248.537c0,-4.64285 4.1112,-8.40662 9.18262,-8.40662c3.4239,0 5.9457,2.82958 8.90346,7.4413c1.42322,2.21907 5.1938,6.69964 5.1938,8.20794c0,1.11756 -4.86292,3.0711 -9.05203,3.04347c-1.14031,-0.00752 -4.95164,-1.71798 -8.89569,-3.26226c-5.47188,-2.1425 -5.33216,-4.94112 -5.33216,-7.02384z" fill="#8194ff" stroke="#252674" stroke-width="2.5" stroke-linecap="butt"/><path d="M458.65372,188.13864c0,4.85713 -2.6674,5.9493 -6.59596,5.9493c-3.92856,0 -7.1133,-3.93749 -7.1133,-8.79462c0,-4.85713 1.37408,-8.27728 5.30264,-8.27728c0.68361,0 3.98329,1.51349 5.99015,4.31409c1.83329,2.55839 2.41647,6.40493 2.41647,6.80852z" fill="#8194ff" stroke="#252674" stroke-width="2.5" stroke-linecap="butt"/><path d="M450.38748,220.21073c-0.49563,-2.27851 -1.79891,-30.17258 -1.31799,-31.55947c0.00575,-0.01661 3.87869,0.35819 6.69931,-0.02676c2.53144,-0.34549 3.49667,-1.97122 3.93932,-2.00077c0.57387,-0.0383 7.038,29.78622 7.13697,30.0828c1.91991,5.75365 3.67876,13.27612 6.18788,19.37462c2.3632,5.74383 5.53798,10.2245 5.53798,10.77451c0,3.04723 -22.24522,4.36482 -22.24522,-1.55199c0,-0.75204 -3.19894,-12.49985 -5.93825,-25.09294z" fill="#475ac7" stroke="#252674" stroke-width="2.5" stroke-linecap="butt"/><path d="M383.80124,115.63836c-0.7269,-1.63939 -6.19581,-8.91761 -5.44065,-12.61015c0.79149,-3.87019 7.90852,-7.52257 12.71811,-8.65496c2.2058,-0.51934 6.74811,12.75014 8.22139,12.1218c1.23362,-0.52612 2.18389,-2.65013 3.36807,-3.60856c0.44063,-0.35663 1.75686,-0.47342 1.91704,-0.39951c1.87927,0.86701 3.43379,5.22299 3.53722,5.73795c0.55752,2.77593 -6.16005,10.71697 -8.97784,12.12427c-0.762,0.38057 -1.86702,0.8407 -2.81116,1.02258c-5.08315,0.97922 -10.694,-1.58772 -12.53218,-5.73341z" fill="#8194ff" stroke="#252674" stroke-width="2.5" stroke-linecap="butt"/><path d="M408.84971,116.41452c0.01573,0.17332 11.1642,30.86844 12.84109,37.29471c0.1595,0.61125 -3.48325,2.95901 -3.43854,3.04486c1.07085,2.05642 25.04274,26.04437 24.78011,26.06821c-0.94101,0.08544 -6.38935,7.22391 -8.25088,6.10653c-0.87962,-0.52799 -26.81276,-24.86679 -29.62478,-28.57154c-0.50898,-0.67056 -23.65651,-41.3796 -23.67353,-41.56702c-0.19642,-2.16331 27.17012,-4.53906 27.36653,-2.37575z" fill="#475ac7" stroke="#252674" stroke-width="2.5" stroke-linecap="butt"/><path d="M436.47222,203.71692c1.91082,-0.8793 5.67316,-1.8879 10.359,5.19666c2.47897,3.74796 -6.93084,44.26618 -6.79512,44.96925c0.3015,1.56196 20.04514,15.65345 21.3349,18.45626c1.69932,3.69283 0.08798,14.94485 -1.40002,18.51436c-3.12471,7.4957 -15.46537,11.24844 -18.47552,11.76733c-1.6415,0.28298 -4.82198,-6.89198 -5.664,-9.80526c-0.83418,-2.88612 5.53516,-12.88513 5.47312,-13.0171c0,0 -18.82745,-14.005 -22.22176,-21.90373c-1.53414,-3.57002 17.38941,-54.17776 17.38941,-54.17776z" fill="#8194ff" stroke="#252674" stroke-width="2.5" stroke-linecap="butt"/><path d="M439.78179,215.76656c1.25925,-6.67142 4.89053,-5.38108 6.73653,-5.38108c2.10343,0 5.94288,0.65654 7.23809,9.05121c1.10938,7.1903 2.481,69.76168 2.481,80.13666c0,4.06505 -0.49518,15.95099 -3.33911,18.57162c-5.97202,5.50311 -21.37222,3.3624 -24.32365,2.57544c-1.60948,-0.42913 -4.55091,-10.22342 -4.09799,-13.22193c0.44869,-2.97055 10.41471,-9.3914 10.41352,-9.53723c0,0 3.63987,-75.56293 4.89162,-82.19469z" fill="#8194ff" stroke="#252674" stroke-width="2.5" stroke-linecap="butt"/><path d="M432.10779,198.58551c0,-0.4545 -0.43549,-13.95069 -0.67339,-19.82421c-0.0894,-2.20709 5.79697,-6.38631 9.57277,-6.38631c3.33711,0 6.40191,1.34796 8.80924,4.00573c1.83184,2.02242 -1.35336,18.99159 -0.61819,22.6153c0.0014,0.00697 4.58535,15.6753 3.82128,16.21004c-1.56268,1.09363 -12.31385,4.85454 -13.59878,4.92924c-0.97307,0.05658 -10.66754,-4.74326 -10.69651,-5.82427c-0.0211,-0.78769 3.38359,-14.80533 3.38359,-15.72552z" fill="#b3bfff" stroke="#252674" stroke-width="2.5" stroke-linecap="butt"/><path d="M445.96607,200.43026c-0.15773,-9.93014 -1.50736,-20.44362 -1.32082,-21.4532c0.65936,-3.5687 2.76415,-3.18863 4.65177,-3.18863c0.83514,0 3.87897,4.48484 3.93997,8.28335c0.1184,7.37446 0.80839,19.6235 0.86449,19.85479c0.34938,1.44004 10.92185,29.02868 10.92185,29.15929c0,5.67281 -1.11212,9.85986 -2.81402,12.23758c-0.41838,0.58452 -2.74134,-1.75183 -3.06105,-1.21955c-3.03904,5.05972 -6.83979,3.33298 -10.31116,-2.67375c-2.50658,-4.33729 -3.80692,-11.9469 -3.80692,-19.31612c0,-5.97214 1.06796,-13.36845 0.93588,-21.68376z" fill="#475ac7" stroke="#252674" stroke-width="2.5" stroke-linecap="butt"/><path d="M434.05473,220.09988c-0.45402,7.35523 -1.9104,14.88941 -4.08128,19.10094c-3.00647,5.83258 -5.99939,7.37788 -7.9957,2.1853c-0.21001,-0.54626 -2.11817,1.67676 -2.3999,1.07374c-1.14603,-2.45299 -1.73271,-6.68422 -1.38321,-12.34625c0.00482,-0.07808 3.93456,-9.80299 7.16178,-17.48086c2.16077,-5.14067 4.0066,-9.07827 4.1486,-9.64811c0.05687,-0.22821 0.11644,-13.88455 0.66071,-21.23946c0.28035,-3.78844 2.86835,-8.12206 3.5026,-8.08291c1.43358,0.08848 3.05551,-0.19219 3.33642,3.40064c0.07947,1.0164 -1.59326,11.44663 -2.32484,21.35052c-0.61262,8.29332 -0.25723,15.72566 -0.62516,21.68645z" data-paper-data="{&quot;index&quot;:null}" fill="#475ac7" stroke="#252674" stroke-width="2.5" stroke-linecap="butt"/><path d="M447.68105,175.20756c0,2.40014 -3.09722,3.47666 -6.91784,3.47666c-3.82062,0 -6.91784,-1.07653 -6.91784,-3.47666c0,-2.40014 3.09722,-3.99815 6.91785,-3.99815c3.82062,0 6.91785,1.59802 6.91785,3.99815z" fill="#475ac7" stroke="#252674" stroke-width="2.5" stroke-linecap="butt"/><path d="M440.40489,166.65724c3.58523,0 4.76053,3.44902 4.76053,6.63589c0,1.19487 -1.48413,2.18376 -3.04644,2.49214c-2.60456,0.51411 -5.84348,-0.44603 -5.84348,-2.43803c0,-3.18687 0.54416,-6.69 4.12939,-6.69z" fill="#b3bfff" stroke="#252674" stroke-width="2.5" stroke-linecap="butt"/><path d="M450.12357,386.52129c0,0 -65.49379,-52.87181 -66.139,-69.84341c-0.19813,-5.21159 243.42962,-24.95476 243.42962,-24.95476l2.66124,87.95693z" fill="#905c66" stroke="#3e0e6c" stroke-width="2.5" stroke-linecap="butt"/><path d="M630.07543,379.68004c0,0 -168.96132,21.98835 -212.1952,20.149c-24.24625,-1.03153 -25.05803,-30.2427 -25.05803,-30.2427c0,0 -8.92303,-55.1549 -8.83763,-52.90845c0.64521,16.9716 66.139,69.84341 66.139,69.84341z" fill="#80475d" stroke="#3e0e6c" stroke-width="2.5" stroke-linecap="butt"/><path d="M450.30753,87.37252c0.69614,-0.46283 3.19223,-0.33155 3.84442,-0.21492c0.17891,0.032 7.88056,12.95341 9.881,16.77831c0.4506,0.86158 0.64359,9.16002 0.53868,12.98958c-0.1674,6.10974 -2.53908,8.91555 -2.60171,9.1894c-2.553,11.16082 -11.90704,3.42154 -15.20657,2.83145c-3.66955,-0.65625 -8.14395,-9.42713 -6.03477,-21.35636c0.03044,-0.17211 7.90261,-19.10295 9.57898,-20.21745z" data-paper-data="{&quot;index&quot;:null}" fill="#8194ff" stroke="#252674" stroke-width="2.5" stroke-linecap="butt"/><path d="M439.07514,171.86348c-17.68004,-3.16187 -27.96548,-19.21731 -24.92291,-36.42557c3.04257,-17.20827 16.61451,-28.9739 34.29456,-25.81204c17.68004,3.16187 26.68809,18.96568 23.64551,36.17394c-3.04257,17.20827 -15.33712,29.22553 -33.01718,26.06367z" data-paper-data="{&quot;index&quot;:null}" fill="#b3bfff" stroke="#252674" stroke-width="2.5" stroke-linecap="butt"/><path d="M414.33833,135.82626c3.04257,-17.20827 16.61451,-28.9739 34.29456,-25.81204c17.68004,3.16187 26.68809,18.96569 23.64552,36.17394c-0.32182,1.82018 -4.13989,11.75113 -4.90393,12.02226c-6.43119,2.28221 -27.18931,3.75435 -27.8002,3.81616c-0.2104,0.02131 -23.24032,-9.67583 -25.17004,-14.05553c0,0 -0.13822,-11.73576 -0.06591,-12.14478z" data-paper-data="{&quot;index&quot;:null}" fill="#8194ff" stroke="none" stroke-width="0" stroke-linecap="butt"/><path d="M439.07514,171.86348c-17.68004,-3.16187 -27.96548,-19.21731 -24.92291,-36.42557c3.04257,-17.20827 16.61451,-28.9739 34.29456,-25.81204c17.68004,3.16187 26.68809,18.96568 23.64551,36.17394c-3.04257,17.20827 -15.33712,29.22553 -33.01718,26.06367z" data-paper-data="{&quot;index&quot;:null}" fill="none" stroke="#252674" stroke-width="2.5" stroke-linecap="butt"/><g><path d="M473.56336,160.02185c-0.21418,0.94809 -6.14383,3.38541 -7.61706,3.05261c-1.8875,-0.42639 -2.68356,-4.02156 -1.70774,-8.34128c0.97582,-4.31972 3.29701,-7.47588 5.1845,-7.04949c1.42976,0.32298 4.37694,11.29058 4.1403,12.33816z" fill="#252674" stroke="none" stroke-width="NaN" stroke-linecap="butt"/><path d="M439.31824,145.65634c2.23494,-9.89354 10.12107,-16.27647 18.89351,-14.29479c8.77244,1.98168 14.07212,11.60846 11.83718,21.502c-1.43688,6.36072 -5.82635,10.97548 -10.97488,13.15323c-0.75739,0.32037 -10.17297,5.73522 -17.83239,-4.59024c-3.12414,-4.14034 -3.24823,-9.90561 -1.92342,-15.77021z" fill="#82c5ff" stroke="#252674" stroke-width="2.5" stroke-linecap="butt"/><g stroke-linecap="butt"><path d="M451.06489,148.3099c0.724,-3.20496 3.27822,-5.35867 5.705,-4.81046c2.42679,0.54821 3.80718,3.59074 3.08318,6.7957c-0.72399,3.20495 -3.27821,5.35866 -5.70499,4.81045c-2.42678,-0.54821 -3.80718,-3.59073 -3.08318,-6.79569z" fill="#82c5ff" stroke="#ffffff" stroke-width="2.5"/><path d="M456.19994,146.02253c1.37166,0.30986 2.15188,2.02955 1.74266,3.84104c-0.40922,1.81149 -1.8529,3.02882 -3.22456,2.71896c-1.37166,-0.30986 -2.15188,-2.02956 -1.74266,-3.84105c0.40922,-1.81149 1.8529,-3.02881 3.22456,-2.71895z" fill="#ffffff" stroke="none" stroke-width="0"/></g><path d="M426.79776,159.92909c-0.53696,-0.17819 -3.48007,-9.66732 -4.19718,-10.04609c-0.84044,-0.44392 -5.42912,4.99803 -5.5017,4.81258c-0.92456,-2.36246 -3.31134,-7.163 -3.02117,-9.54662c0.20309,-1.66834 6.16675,-13.04641 10.50154,-17.45184c4.26751,-4.33706 10.529,18.9601 12.19862,28.84573c0.35387,2.09524 -1.52414,4.19311 -2.81845,4.22882c-2.01405,0.05556 -5.21406,-0.19625 -7.16165,-0.84257z" fill="#252674" stroke="none" stroke-width="0" stroke-linecap="butt"/><g fill="none" stroke="#252674" stroke-width="2.5" stroke-linecap="round"><path d="M446.6289,167.09241c0,0 -2.92456,2.37539 -3.92596,2.31296c-0.94688,-0.05903 -4.31184,-2.78784 -4.3563,-2.74551c-0.00774,0.00736 -2.58628,1.86092 -3.50274,1.55993c-0.6387,-0.20977 -3.31652,-3.77847 -3.31652,-3.77847"/></g></g></g></g></svg>