<svg version="1.1" xmlns="http://www.w3.org/2000/svg" xmlns:xlink="http://www.w3.org/1999/xlink" width="786.72819" height="488.22315" viewBox="0,0,786.72819,488.22315"><defs><linearGradient x1="14.5" y1="3.51052" x2="14.5" y2="347.51052" gradientUnits="userSpaceOnUse" id="color-1"><stop offset="0" stop-color="#ffa4f3"/><stop offset="1" stop-color="#ffd172"/></linearGradient><linearGradient x1="345.5" y1="66.51052" x2="345.5" y2="283.51052" gradientUnits="userSpaceOnUse" id="color-2"><stop offset="0" stop-color="#ffa4f3"/><stop offset="1" stop-color="#ffd172"/></linearGradient></defs><g transform="translate(68.35256,86.85347)"><g data-paper-data="{&quot;isPaintingLayer&quot;:true}" fill-rule="nonzero" stroke-linecap="butt" stroke-linejoin="miter" stroke-miterlimit="10" stroke-dasharray="" stroke-dashoffset="0" style="mix-blend-mode: normal"><path d="M-50.5,347.51052v-344h130v344z" fill="url(#color-1)" stroke="#3e0e6c" stroke-width="2.5"/><path d="M33.5,283.51052v-217h624v217z" fill="url(#color-2)" stroke="#3e0e6c" stroke-width="2.5"/><path d="M23.36311,79.63699l41.90756,-60.38106l653.10496,204.92967l-41.90756,60.38106z" fill-opacity="0.51373" fill="#ffd6ec" stroke="none" stroke-width="0"/><path d="M-21.84628,262.3533l-34.45893,-62.47429l675.74609,-168.50554l34.45893,62.47428z" fill-opacity="0.51373" fill="#ffd6ec" stroke="none" stroke-width="0"/><path d="M-68.35256,140.31474l53.38503,-56.1374l607.20387,261.05494l-53.38504,56.1374z" fill-opacity="0.51373" fill="#ffd6ec" stroke="none" stroke-width="0"/><path d="M33.5,283.51052v-217h624v217z" fill="none" stroke="#3e0e6c" stroke-width="2.5"/><path d="M-9.5,393.51052c0,0 -16.79398,-56.76475 -11.00691,-74.00232c2.63002,-7.83386 53.42901,-46.99768 54.00692,-46.99768c85.04049,0 620,1 620,1l4,120z" fill="#664585" stroke="#3e0e6c" stroke-width="2.5"/><path d="M657.5,-35.48948l-4,120c0,0 -534.95951,1 -620,1c-0.5779,0 -51.3769,-39.16381 -54.00691,-46.99768c-5.78707,-17.23757 11.00692,-74.00232 11.00692,-74.00232z" data-paper-data="{&quot;index&quot;:null}" fill="#664585" stroke="#3e0e6c" stroke-width="2.5"/><path d="M322.30059,1.06596c8.1388,0 23.19236,1.46148 23.19236,1.46148l-217.59891,306.17993c0,0 -6.20036,5.90655 -13.20862,8.05741c-7.22998,2.21891 -15.23212,0.6161 -12.36156,-3.96848c29.23425,-46.69018 219.97673,-311.73032 219.97673,-311.73032z" fill="#854564" stroke="#3e0e6c" stroke-width="2.5"/><path d="M259.54358,5.60124c8.1388,0 23.19236,1.36426 23.19236,1.36426l-217.59891,285.81174c0,0 -12.87908,1.36426 -21.8281,1.36426c-4.06516,0 216.23465,-288.54025 216.23465,-288.54025z" fill="#854564" stroke="#3e0e6c" stroke-width="2.5"/><path d="M116.91335,303.0309c-1.34171,0 -62.68505,-21.18453 -62.68505,-24.51207c0,-3.05415 14.77618,-26.25773 16.28799,-26.25773c1.87632,0 70.15148,11.7614 69.60281,17.1671c-0.44912,4.42484 -23.20574,33.60269 -23.20574,33.60269z" fill="#aa5880" stroke="#3e0e6c" stroke-width="2.5"/><path d="M147.64728,256.40995c-1.34171,0 -66.39642,-13.42193 -66.39642,-16.74947c0,-3.05416 18.02202,-26.42253 19.53383,-26.42253c1.87632,0 70.617,4.1636 70.06833,9.5693c-0.44912,4.42484 -23.20574,33.6027 -23.20574,33.6027z" fill="#aa5880" stroke="#3e0e6c" stroke-width="2.5"/><path d="M176.42679,211.79504c-1.34171,0 -68.87437,-6.08452 -68.87437,-9.41206c0,-3.05416 18.20977,-25.99906 19.72158,-25.99906c1.87632,0 72.90721,-3.59727 72.35853,1.80843c-0.44912,4.42484 -23.20574,33.60269 -23.20574,33.60269z" fill="#aa5880" stroke="#3e0e6c" stroke-width="2.5"/><path d="M206.1206,170.44982c-1.34171,0 -71.38984,-2.05642 -71.38984,-5.38396c0,-3.05416 17.9511,-25.99906 19.46291,-25.99906c1.87632,0 75.14544,-4.94585 74.59677,0.45985c-0.44912,4.42484 -22.66984,30.92316 -22.66984,30.92316z" fill="#aa5880" stroke="#3e0e6c" stroke-width="2.5"/><path d="M162.21039,129.09309c0,-3.05415 19.52318,-26.508 21.75473,-26.93555c15.64478,-2.99741 76.73284,-14.17193 76.25266,-9.44104c-0.33922,3.3421 -16.46533,25.62857 -23.28792,33.97485c-2.21032,2.70395 -74.71946,5.72927 -74.71946,2.40174z" fill="#aa5880" stroke="#3e0e6c" stroke-width="2.5"/><path d="M271.18182,80.58086c-1.11021,0 -58.94413,9.24229 -77.01873,10.17645c-3.76878,0.19478 -4.43421,-1.53277 -4.43421,-2.10689c0,-3.05415 17.74816,-26.25772 19.25997,-26.25772c1.38395,0 81.79134,-17.36893 81.64737,-15.95044c-0.05687,0.56037 0.60029,4.73316 -0.0806,5.97798c-4.69561,8.5846 -19.3738,28.16062 -19.3738,28.16062z" fill="#aa5880" stroke="#3e0e6c" stroke-width="2.5"/><path d="M302.32536,34.55919c-0.27452,0 -5.84399,1.37187 -11.11759,2.66062c-16.33575,3.99211 -53.08103,10.18531 -66.13065,11.47765c-3.32728,0.32951 -4.77229,-2.37893 -4.77229,-2.91665c0,-3.05416 16.14044,-26.25773 17.65225,-26.25773c1.62828,0 82.28749,-20.88889 82.21496,-20.1743c-0.01466,0.14441 0.66703,4.71404 -0.75623,7.55058c-4.85203,9.67004 -17.09046,27.65984 -17.09046,27.65984z" fill="#aa5880" stroke="#3e0e6c" stroke-width="2.5"/><path d="M308.82382,314.49947c14.44451,-19.06907 92.0928,-13.30391 189.68405,-13.30391c107.80333,0 195.1952,17.81449 195.1952,39.78979c0,21.9753 -87.39187,39.78979 -195.1952,39.78979c-107.80334,0 -191.44386,-15.67087 -191.44386,-37.64617c0,-2.0817 0.24831,-26.63409 1.75981,-28.6295z" fill="#aa5880" stroke="#3e0e6c" stroke-width="2.5"/><path d="M307.25377,319.40091c0,-21.9753 87.39186,-39.78979 195.19519,-39.78979c107.80333,0 195.19519,17.81449 195.19519,39.78979c0,21.97529 -87.39186,39.78979 -195.19519,39.78979c-107.80333,0 -195.1952,-17.81449 -195.1952,-39.78979z" fill="#aa5880" stroke="#3e0e6c" stroke-width="2.5"/><path d="M395.72634,197.24784c0.72298,-20.67721 2.68173,-76.69748 3.046,-87.11572c0.11424,-3.26712 4.38032,-6.00322 9.25492,-5.83278c17.44306,0.60989 121.13681,4.23556 152.72703,5.34011c5.76495,0.20157 9.05487,2.42823 8.96599,4.97026c-0.31994,9.15042 -2.24086,64.0888 -3.02931,86.63845c-0.20815,5.95306 -4.70092,9.49622 -9.76089,9.3193c-17.1048,-0.59807 -112.84642,-3.98453 -147.78999,-5.20633c-7.8461,-0.27434 -13.58096,-3.33122 -13.41375,-8.11328z" fill="#3e0e6c" stroke="none" stroke-width="0"/><path d="M651.84881,82.30235c-0.39528,1.18586 -1.58114,0.79057 -1.58114,0.79057l-0.62829,-0.20943c-3.06332,-1.02524 -5.71492,-2.05967 -8.89796,-2.73292c-4.8388,0.01377 -12.26588,-1.37562 -16.74173,0.74869c-3.80854,1.8076 -4.97405,5.85515 -6.64074,9.26826c-1.78509,3.65559 -3.85176,6.77129 -4.54161,10.92533c-0.57257,3.44779 -0.61778,6.50182 -1.5943,9.94259c-1.47611,5.20105 -2.72095,11.09644 -3.31754,16.50802c-0.09695,0.87943 0.17667,1.79308 -0.02676,2.65413c-1.37737,5.82986 -6.75109,10.11119 -11.03383,13.78823c-1.87102,1.6064 -4.42105,3.55384 -6.89475,4.1378c-2.14269,0.50582 -5.08263,0.03346 -7.30517,0.03331c-11.13279,-0.3954 -18.75053,-12.70287 -24.62736,-20.74546c-1.56907,-2.14732 -5.11026,-7.1814 -4.32508,-10.07739c0.27158,-1.00168 1.39103,-1.5406 2.08654,-2.31091c0,0 0.88388,-0.88389 1.76777,0c0.88388,0.88389 0,1.76777 0,1.76777c-0.48299,0.40821 -1.26375,0.61997 -1.44899,1.22463c-0.17336,0.56588 0.33621,1.13682 0.5574,1.68578c0.91369,2.26772 1.93617,4.26874 3.37903,6.2326c4.21691,5.73958 8.36672,12.53806 14.50493,16.39745c2.70938,1.70352 4.87697,3.2587 8.14174,3.32579c2.02238,-0.00013 4.74638,0.49328 6.69483,0.03331c2.07379,-0.48955 4.27967,-2.2509 5.83707,-3.59846c3.80389,-3.29133 9.05995,-7.22352 10.23435,-12.47552c1.41428,-6.32478 1.58389,-12.9674 3.37082,-19.26366c0.95652,-3.37028 0.97117,-6.28583 1.5331,-9.66958c0.72807,-4.38414 2.87821,-7.74604 4.76081,-11.61161c1.93459,-3.97233 3.43148,-8.34584 7.81481,-10.43046c4.94403,-2.35128 12.72966,-0.99055 18.07122,-0.97745c3.37115,0.6944 6.19921,1.7751 9.43199,2.84801l0.62829,0.20943c0,0 1.18585,0.39529 0.79057,1.58114z" fill="#3e0e6c" stroke="none" stroke-width="0.5"/><path d="M363.60208,-20.74454c1.11804,-0.55901 1.67705,0.55902 1.67705,0.55902l0.88196,1.76393c3.38828,6.77671 5.64119,13.74953 8.58367,20.68953c2.71341,6.40531 4.56852,12.51118 5.78495,19.30241c0.71605,3.99767 2.86303,7.84096 3.89772,11.77539c1.78571,6.7902 2.17818,13.34608 1.68758,20.31917c-1.00101,3.93641 -1.62565,8.9563 -3.91458,12.40305c-1.85596,2.79476 -5.17948,4.77733 -7.73663,6.7569c-2.40972,1.86544 -4.27445,4.54933 -6.12508,6.93064c-3.89287,5.00916 -7.83393,10.26764 -6.42674,16.86825c0.80905,2.33892 1.86777,4.64105 2.58795,7.00445c0.64127,2.10443 0.5833,5.15863 1.6026,7.09479c1.03325,1.96267 7.7604,10.59941 9.00285,12.5381c5.49788,8.57878 6.8165,9.11729 14.482,15.80587c4.86662,4.2686 11.29472,6.67394 16.54731,10.49427c3.67205,2.67076 7.02965,6.68493 11.76279,7.58483c3.5608,0.67701 6.37088,-0.55966 9.82263,1.10941c0,0 1.11804,0.55902 0.55902,1.67705c-0.55901,1.11803 -1.67705,0.55902 -1.67705,0.55902c-3.67917,-1.91917 -7.85713,-0.18332 -11.77229,-1.90534c-4.0164,-1.76655 -6.68328,-4.4704 -10.16561,-7.00319c-5.32585,-3.87362 -11.75919,-6.32377 -16.72046,-10.63235c-7.84337,-6.84376 -14.00937,-14.13128 -19.63362,-22.90725c-1.26197,-1.96915 -3.39218,-4.16088 -4.42547,-6.16676c-1.10068,-2.13671 -1.07407,-5.2158 -1.77614,-7.51973c-0.72607,-2.38273 -1.79429,-4.70615 -2.6058,-7.06583c-1.57907,-7.52363 2.40291,-13.33188 6.86205,-19.06968c1.98634,-2.55593 3.98758,-5.35916 6.56472,-7.37033c2.33872,-1.82512 5.48916,-3.6036 7.1923,-6.17203c2.07583,-3.13048 2.60089,-7.83989 3.52506,-11.41164c0.4398,-6.62956 0.06057,-12.83007 -1.63718,-19.28583c-1.054,-4.00787 -3.19005,-7.89081 -3.93966,-11.96436c-1.21565,-6.60608 -2.98293,-12.53206 -5.62718,-18.77411c-2.91906,-6.89658 -5.15221,-13.81567 -8.51777,-20.54665l-0.88197,-1.76393c0,0 -0.55901,-1.11804 0.55902,-1.67705z" fill="#3e0e6c" stroke="none" stroke-width="0.5"/><path d="M394.28659,-22.94378c0.88389,-0.88388 1.76777,0 1.76777,0l0.23223,0.23224c2.62294,2.7247 2.79604,5.85741 4.1125,9.35201c2.39502,6.35769 5.60245,11.67113 9.18139,17.39715c4.16905,6.67048 8.82994,14.12855 11.75111,21.43956c0.60714,1.51952 0.76178,3.20147 1.4233,4.69812c0.37502,0.84847 2.41309,3.71462 2.62077,4.46927c0.0579,0.21039 0.04426,4.93778 0.0441,5.33219c-0.00186,4.50698 0.23879,8.79487 -2.00274,12.80399c-1.24928,1.8032 -2.8617,4.46993 -4.32512,6.00404c-0.16859,0.17674 -4.14904,2.60323 -4.48941,2.81215c-5.78596,3.55158 -12.07406,5.6195 -18.13787,8.60798c-5.9518,2.93327 -11.56488,6.03803 -17.71267,8.60527c-3.07089,1.27917 -5.80327,3.05679 -8.74287,4.59781c-2.79317,1.46425 -6.28576,2.45918 -8.84765,4.28482c-4.42953,3.15655 -8.38142,8.33567 -12.15527,12.2644c-3.03753,3.16219 -7.2208,7.00174 -8.60183,11.18313c0.04714,5.25596 -0.92088,11.4129 -0.0052,16.56975c0.51817,2.91818 2.54776,5.98528 3.85746,8.60278c3.71029,7.4152 7.74122,14.40824 12.94542,20.88347c3.64596,3.36999 7.5472,6.60535 10.9884,10.18279c1.56944,1.63159 2.91478,4.19809 4.71814,5.55215c1.63854,1.2303 4.56201,1.89873 6.45056,2.69962c3.07836,1.30547 5.84792,3.26123 8.86807,4.54956c3.24667,1.38495 8.00088,0.50965 11.4433,0.50965c4.54647,0 9.70028,0.62714 14.07672,-0.92615c3.10573,-1.10229 5.04187,-3.31157 7.21735,-5.63244c4.49765,-4.79824 8.94109,-9.32921 11.02007,-15.58669c0,0 0.39529,-1.18586 1.58114,-0.79057c1.18586,0.39529 0.79057,1.58114 0.79057,1.58114c-2.21412,6.6219 -6.82081,11.44158 -11.56781,16.50582c-2.44916,2.61284 -4.70461,5.03385 -8.19477,6.27505c-4.67897,1.66397 -10.05859,1.07385 -14.92327,1.07385c-3.87045,0 -8.74613,0.80204 -12.40742,-0.70303c-3.02581,-1.24383 -5.81268,-3.25379 -8.88,-4.55459c-2.07608,-0.88043 -5.14651,-1.63656 -6.95066,-2.98356c-1.9447,-1.45195 -3.3582,-4.08443 -5.04373,-5.83669c-3.45011,-3.5867 -7.36768,-6.82172 -11.01441,-10.21025c-5.37389,-6.65047 -9.53473,-13.83886 -13.3534,-21.47043c-1.42174,-2.84133 -3.51128,-6.09461 -4.07903,-9.26143c-0.97003,-5.41063 -0.0456,-11.92428 -0.00521,-17.43025c1.61329,-4.80879 5.76484,-8.86705 9.26637,-12.51429c3.8836,-4.04521 7.94408,-9.31667 12.50762,-12.56872c2.66402,-1.89843 6.23661,-2.94223 9.13774,-4.46308c3.00549,-1.57556 5.80181,-3.37689 8.94027,-4.69056c6.10201,-2.54812 11.66314,-5.62924 17.57085,-8.54078c5.99216,-2.95316 12.22024,-4.98817 17.9352,-8.49616c1.30981,-0.804 2.91013,-1.24322 3.95437,-2.37086c1.3854,-1.49605 2.84433,-3.891 4.05176,-5.64571c2.01563,-3.44356 1.61735,-7.56598 1.61896,-11.47401c0.00064,-1.55601 0.45838,-3.16757 0.04551,-4.66781c-0.42624,-1.54883 -1.84753,-2.65264 -2.49697,-4.12193c-0.41387,-0.93635 -1.05289,-3.76687 -1.45894,-4.78293c-2.86847,-7.17775 -7.45506,-14.49031 -11.54888,-21.04043c-3.66178,-5.85915 -6.95048,-11.3356 -9.40091,-17.84085c-1.12392,-2.98371 -1.24432,-6.28349 -3.54075,-8.46554l-0.23224,-0.23223c0,0 -0.88389,-0.88389 0,-1.76777z" fill="#3e0e6c" stroke="none" stroke-width="0.5"/><path d="M649.26016,-85.84453c0.23678,-1.22737 1.46415,-0.99059 1.46415,-0.99059l1.90327,0.62672c3.6312,4.05679 8.33098,8.9071 10.44733,13.99989c1.29621,3.11923 0.66942,7.14814 0.62084,10.44041c-0.12265,8.31139 -0.59098,16.7365 -3.84817,24.52891c-0.94247,2.24133 -1.71284,5.03466 -2.99968,7.09198c-1.28683,2.05729 -3.4615,3.97232 -5.06451,5.80044c-2.15224,2.45449 -4.35271,5.47517 -6.88596,7.53648c-6.95287,5.6576 -17.09822,8.02725 -25.14972,11.81556c-3.83681,1.43651 -7.23619,3.8556 -10.73789,5.97234c-2.7297,1.65009 -5.92817,3.11491 -8.43134,5.08561c-4.35627,3.42962 -7.79429,8.67062 -11.01869,13.11264c-2.3465,3.23261 -5.31167,6.28833 -6.91464,9.93954c-1.62807,3.5464 -0.90748,7.89855 -0.90761,11.77686c-0.00012,3.39616 0.64391,6.36352 1.00183,9.70191c0.26342,2.45696 -0.14008,5.01472 0.19576,7.46054c0.97273,7.08409 4.33452,14.2845 8.46236,19.99565c0.8829,1.37059 1.60815,2.85537 2.64148,4.11643c2.09795,2.56034 5.26354,4.34268 7.22089,7.01464c0.81903,1.11805 1.48391,3.32319 2.26277,4.51005c2.14824,3.27357 5.54523,5.84192 7.95446,8.93703c1.4603,1.87604 2.46678,4.12887 3.97273,5.96592c2.70821,3.30363 6.4722,5.10587 8.64234,8.83644c2.84345,4.97604 5.56332,10.03775 8.49451,14.96204c1.25537,2.10899 3.1217,4.26873 4.06029,6.53216c1.85649,4.47698 2.09059,11.15528 2.09059,15.90528c0,4.4337 0.59617,7.72848 -1.57555,11.70059c-5.49222,9.73703 -15.28007,15.86378 -24.80836,21.12248c-2.70518,1.493 -6.06654,4.18145 -9.04775,4.94819c-2.97902,0.76618 -7.23582,0.03751 -10.32073,0.01421c-3.12806,-0.02364 -7.31672,0.56909 -10.33251,-0.30157c-2.32899,-0.67238 -4.49397,-2.75342 -6.68989,-3.78749c-3.72109,-1.75226 -8.18812,-2.30857 -11.33182,-5.2271c-0.18528,-0.17201 -2.78215,-3.91515 -3.03074,-4.24184c-3.50314,-4.60368 -7.16079,-8.98505 -10.37923,-13.81194c-2.31213,-3.46819 -4.77616,-7.13196 -6.05361,-11.15165c-3.17774,-9.9993 -2.37633,-21.66532 -0.91727,-31.87875c0,0 0.17678,-1.23744 1.41421,-1.06066c1.23744,0.17678 1.06066,1.41421 1.06066,1.41421c-1.40558,9.8391 -2.23783,21.13043 0.82497,30.76803c1.20554,3.79342 3.56998,7.25032 5.75116,10.52208c3.18907,4.78437 6.81672,9.1222 10.2886,13.6848c0.96624,1.26979 1.57279,2.83795 2.74216,3.92356c2.89729,2.68976 7.24013,3.17275 10.68045,4.79025c2.04881,0.96327 4.16924,3.0297 6.33376,3.6546c2.77494,0.80113 6.77452,0.18176 9.65797,0.20355c2.85604,0.02159 6.92949,0.77169 9.67912,0.06451c2.75611,-0.70884 5.95372,-3.33117 8.46247,-4.71576c9.07042,-5.006 18.65156,-10.83121 23.83528,-20.15556c1.97442,-3.42124 1.25662,-7.54269 1.25662,-11.41683c0,-4.4348 -0.16854,-9.85932 -1.90941,-14.03281c-0.89188,-2.13815 -2.70273,-4.19376 -3.88969,-6.1878c-2.93877,-4.93704 -5.66609,-10.0115 -8.5169,-15.00042c-1.98508,-3.54991 -5.81545,-5.3366 -8.39627,-8.48113c-1.52765,-1.86132 -2.54792,-4.1348 -4.02727,-6.03408c-2.44695,-3.14153 -5.85547,-5.73983 -8.04554,-9.06297c-0.90873,-1.37887 -1.23347,-3.10205 -2.20937,-4.43423c-1.92043,-2.62156 -5.07253,-4.387 -7.13785,-6.90752c-0.06291,-0.07677 -2.66108,-4.11831 -2.77242,-4.29128c-4.34903,-6.01258 -7.851,-13.61181 -8.87445,-21.06523c-0.33989,-2.47532 0.06151,-5.05056 -0.20476,-7.53411c-0.75515,-7.04348 -2.79696,-16.04904 0.107,-22.76061c1.71933,-3.82744 4.70945,-6.99481 7.176,-10.39279c3.36303,-4.63301 6.95251,-10.0318 11.49541,-13.60834c2.58568,-2.03566 5.86561,-3.55679 8.6845,-5.26079c3.60921,-2.18174 7.10729,-4.64109 11.05744,-6.13543c3.77181,-1.77838 7.55869,-3.5444 11.42378,-5.11422c4.45146,-1.80798 9.31892,-3.24348 13.12179,-6.33791c2.42322,-1.97179 4.52469,-4.89673 6.58411,-7.24555c1.51351,-1.7262 3.60887,-3.53417 4.82472,-5.47799c1.21584,-1.9438 1.92479,-4.61904 2.81466,-6.73528c3.16239,-7.47109 3.53525,-15.62387 3.653,-23.59675c0.04206,-2.84799 0.73676,-6.73909 -0.42401,-9.43056c-2.0851,-4.8347 -6.53665,-9.43118 -10.00689,-13.30513l-0.51436,0.16031c0,0 -1.22737,-0.23678 -0.99059,-1.46415z" fill="#3e0e6c" stroke="none" stroke-width="0.5"/><path d="M467.17185,-19.8676c1.11915,-0.55678 1.67593,0.56237 1.67593,0.56237l0.80105,1.61014c1.86977,3.76211 3.26013,7.72108 4.86317,11.6015c0.88429,2.14056 2.40534,4.53963 2.88389,6.79365c0.96766,4.55777 0.05964,10.45859 -0.02006,15.12232c-0.13596,2.29294 0.20344,5.66597 -0.50875,7.83667c-0.4543,1.38466 -1.52258,2.52295 -1.93333,3.92115c-0.10355,0.35249 -1.44734,4.90321 -1.54916,5.07609c-0.45193,0.76731 -1.30717,1.21832 -1.86707,1.9108c-2.49358,3.08399 -4.40046,6.92274 -6.5401,10.26661c-1.34199,2.09728 -1.7441,4.87349 -3.12751,6.83836c-2.20583,3.13296 -6.64068,5.78038 -9.40167,8.54136c-7.47318,7.47318 -15.76701,14.75353 -24.2392,21.05109c-5.2355,3.89166 -11.69099,6.4701 -16.37916,11.06472c-7.1415,6.9455 -16.2024,12.15221 -24.35199,17.80375c-0.10485,0.07271 -4.13614,2.8693 -4.19271,2.9022c-1.7883,1.04018 -4.63921,1.3892 -5.52163,3.55987c-1.06849,2.6284 -0.71245,6.18304 -0.69022,8.9526c1.58987,3.11903 2.09465,6.02826 3.25323,9.23886c1.48046,4.10257 4.06437,6.62487 6.74874,9.8298c2.11805,2.5288 3.5211,5.39497 5.87744,7.74638c1.94645,1.94238 4.80738,6.78608 7.61275,5.06915c0,0 1.11804,-0.55902 1.67705,0.55902c0.55901,1.11803 -0.55902,1.67705 -0.55902,1.67705c-0.81173,0.35668 -1.54874,1.08833 -2.43519,1.07005c-2.99836,-0.06183 -6.1515,-4.69182 -8.06336,-6.6075c-2.41141,-2.41625 -3.86241,-5.32668 -6.03003,-7.91344c-2.85919,-3.41206 -5.60841,-6.22695 -7.17996,-10.58192c-1.19308,-3.30619 -1.7759,-6.25464 -3.33015,-9.49384c-0.10237,-3.19447 -0.55167,-7.53907 0.82794,-10.5474c1.60618,-3.50236 7.47505,-5.36252 10.58064,-7.51535c8.02781,-5.56498 17.01353,-10.68215 24.03142,-17.53948c4.81108,-4.66676 11.29212,-7.31108 16.63278,-11.28091c8.37289,-6.22374 16.57611,-13.42572 23.96285,-20.81245c1.80567,-1.80567 3.57092,-3.57045 5.5218,-5.22016c1.19225,-1.0082 2.7046,-1.71599 3.60347,-2.99267c1.33655,-1.89831 1.75618,-4.68731 3.06397,-6.74359c2.17627,-3.42184 4.14415,-7.34151 6.69855,-10.48751c0.48932,-0.60265 1.26722,-0.96019 1.66846,-1.62475c0.80857,-1.33919 0.85038,-3.01109 1.3007,-4.50923c0.42771,-1.42297 1.47554,-2.59896 1.95947,-4.0038c0.65593,-1.90413 0.26045,-5.11571 0.38075,-7.13693c0.07522,-4.45082 0.99785,-10.18542 0.06929,-14.52431c-0.44847,-2.09558 -1.92182,-4.34788 -2.74463,-6.33956c-1.58074,-3.82628 -2.9451,-7.73666 -4.79177,-11.44464l-0.80105,-1.61014c0,0 -0.55678,-1.11915 0.56237,-1.67593z" fill="#3e0e6c" stroke="none" stroke-width="0.5"/><path d="M461.264,203.46904c0.69338,1.04006 -0.34669,1.73344 -0.34669,1.73344l-0.73413,0.48942c-3.61135,2.30831 -3.20017,6.38736 -5.62816,9.63967c-1.92532,2.57898 -5.14327,4.52218 -7.63102,6.51265c-3.91319,3.13098 -7.73036,7.08203 -12.40619,8.92065c-2.23988,0.86649 -4.86198,2.32936 -7.21645,2.7689c-7.32951,1.36829 -15.37419,-0.8401 -22.30007,-2.9969c-2.94758,-0.91791 -6.81824,-2.13398 -9.38045,-3.87454c-3.37533,-2.29292 -6.37152,-5.63506 -8.9847,-8.73351c-1.48711,-5.12919 -1.69182,-13.30933 0.41146,-18.36795c1.59236,-3.82979 5.08179,-7.16092 7.74851,-10.26128c3.11029,-3.61607 8.09699,-7.86278 12.895,-7.96317c0,0 1.25,0 1.25,1.25c0,1.25 -1.25,1.25 -1.25,1.25c-3.88036,-0.11062 -8.50276,4.16959 -10.99686,7.09015c-2.47961,2.90359 -5.84305,6.02242 -7.33927,9.5966c-1.79764,4.29422 -1.72553,11.82046 -0.51749,16.2207c2.43435,2.75066 5.15373,5.7665 8.193,7.85377c2.3431,1.60916 6.0042,2.71129 8.71298,3.55193c6.53077,2.02674 14.18139,4.21807 21.09911,2.92665c2.20311,-0.41128 4.67932,-1.83294 6.77325,-2.64297c4.39837,-1.66895 8.08012,-5.60776 11.74631,-8.54111c2.30872,-1.84723 5.38101,-3.65852 7.1807,-6.04418c2.71605,-3.60038 2.2151,-7.45617 6.2536,-10.23619l0.73413,-0.48942c0,0 1.04006,-0.69338 1.73344,0.34669z" fill="#3e0e6c" stroke="none" stroke-width="0.5"/></g></g></svg>