<svg version="1.1" xmlns="http://www.w3.org/2000/svg" xmlns:xlink="http://www.w3.org/1999/xlink" width="43.52525" height="43.52525" viewBox="0,0,43.52525,43.52525"><g transform="translate(-298.23737,-158.23737)"><g data-paper-data="{&quot;isPaintingLayer&quot;:true}" fill-rule="nonzero" stroke="none" stroke-width="0" stroke-linecap="butt" stroke-linejoin="miter" stroke-miterlimit="10" stroke-dasharray="" stroke-dashoffset="0" style="mix-blend-mode: normal"><path d="M298.23738,201.76262v-43.52525h43.52525v43.52525z" fill="none"/><path d="M307.05762,180c0,-7.14788 5.79448,-12.94236 12.94236,-12.94236c7.14788,0 12.94237,5.79448 12.94237,12.94236c0,7.14788 -5.7945,12.94236 -12.94237,12.94236c-7.14788,0 -12.94236,-5.79448 -12.94236,-12.94236z" fill="#ff3857"/><path d="M308.98816,180c0,-6.08167 4.93018,-11.01183 11.01183,-11.01183c6.08167,0 11.01185,4.93018 11.01185,11.01183c0,6.08167 -4.93018,11.01183 -11.01185,11.01183c-6.08167,0 -11.01183,-4.93018 -11.01183,-11.01183z" fill="#ffffff"/><path d="M310.80763,180c0,-5.07681 4.11555,-9.19236 9.19236,-9.19236c5.07681,0 9.19238,4.11555 9.19238,9.19236c0,5.07681 -4.11556,9.19236 -9.19238,9.19236c-5.07681,0 -9.19236,-4.11555 -9.19236,-9.19236z" fill="#ff3857"/><path d="M312.18261,180c0,-4.31743 3.49997,-7.81739 7.81739,-7.81739c4.31743,0 7.8174,3.49997 7.8174,7.81739c0,4.31743 -3.49997,7.81739 -7.8174,7.81739c-4.31743,0 -7.81739,-3.49997 -7.81739,-7.81739z" fill="#ffffff"/></g></g></svg>