<svg version="1.1" xmlns="http://www.w3.org/2000/svg" xmlns:xlink="http://www.w3.org/1999/xlink" width="355" height="354.6214" viewBox="0,0,355,354.6214"><g transform="translate(-141.5,-2.8786)"><g data-paper-data="{&quot;isPaintingLayer&quot;:true}" fill-rule="nonzero" stroke="none" stroke-width="0" stroke-linecap="butt" stroke-linejoin="miter" stroke-miterlimit="10" stroke-dasharray="" stroke-dashoffset="0" style="mix-blend-mode: normal"><path d="M141.5,180c0,-13.99656 1.62002,-27.61475 4.68278,-40.67728c5.09997,-2.74139 8.56722,-8.12715 8.56722,-14.32272c0,-0.7328 -0.04851,-1.45428 -0.14248,-2.16139c2.57594,-2.87556 4.14248,-6.67414 4.14248,-10.83861c0,-2.11597 -0.40443,-4.13749 -1.14021,-5.99146c24.69407,-53.77445 75.47344,-93.08424 136.13418,-101.72543c2.30495,1.25429 4.94727,1.96689 7.75603,1.96689c3.73091,0 7.16816,-1.25734 9.91112,-3.3714c2.90364,2.71176 6.80245,4.3714 11.08888,4.3714c4.18263,0 7.99617,-1.58023 10.87618,-4.17624c91.30744,7.31825 163.12382,83.73544 163.12382,176.92624c0,51.68475 -22.09033,98.21002 -57.34452,130.64935c-3.27822,1.14123 -6.0785,3.30292 -8.02043,6.10467c-6.61414,0.14575 -12.25396,4.24338 -14.6518,10.02524c-0.32526,-0.01941 -0.6531,-0.02926 -0.98324,-0.02926c-6.43725,0 -12.00028,3.74303 -14.63135,9.17139c-0.77321,-0.11292 -1.5641,-0.17139 -2.36865,-0.17139c-6.60604,0 -12.29141,3.9419 -14.83223,9.60183c-20.0383,7.84276 -41.85024,12.14817 -64.66777,12.14817c-98.03054,0 -177.5,-79.46946 -177.5,-177.5z" fill-opacity="0.38431" fill="#f0b4dd"/><path d="M338.96188,353.54416c-13.66798,1.5889 -27.15037,1.55286 -40.25393,0.04486c-3.25598,-4.66903 -8.90891,-7.4435 -14.95904,-6.74017c-0.7156,0.08319 -1.41463,0.21246 -2.09447,0.3845c-3.10048,-2.18904 -6.98772,-3.28758 -11.05442,-2.81483c-2.0663,0.24021 -3.99444,0.86463 -5.72137,1.79359c-55.31533,-18.00984 -99.46679,-63.13463 -114.79137,-121.39035c0.96318,-2.39323 1.3591,-5.05441 1.04025,-7.79723c-0.42354,-3.64332 -2.04156,-6.85714 -4.41737,-9.29572c2.31847,-3.14331 3.49656,-7.139 3.00996,-11.32481c-0.47481,-4.08444 -2.45086,-7.62907 -5.31287,-10.14676c-3.21883,-89.99468 63.25175,-168.80002 154.25479,-179.3791c50.47139,-5.86729 98.41215,10.42287 134.09201,41.1669c1.48658,3.0717 3.91541,5.56085 6.87184,7.13914c0.89317,6.44233 5.53484,11.48458 11.45317,13.16977c0.01797,0.31983 0.04557,0.64109 0.08305,0.96348c0.73076,6.28613 5.01744,11.29365 10.61704,13.24673c-0.02249,0.76788 0.01019,1.54684 0.10152,2.33249c0.74992,6.45096 5.24469,11.55537 11.06019,13.39403c9.9334,18.67756 16.61384,39.48869 19.2041,61.77055c11.12849,95.72917 -57.45392,182.35443 -153.18309,193.48292z" fill-opacity="0.38431" fill="#f0b4dd"/></g></g></svg>