<svg version="1.1" xmlns="http://www.w3.org/2000/svg" xmlns:xlink="http://www.w3.org/1999/xlink" width="229.24407" height="157.69978" viewBox="0,0,229.24407,157.69978"><g transform="translate(-150.06381,-96.71311)"><g data-paper-data="{&quot;isPaintingLayer&quot;:true}" fill-rule="nonzero" stroke="none" stroke-width="0.5" stroke-linecap="butt" stroke-linejoin="miter" stroke-miterlimit="10" stroke-dasharray="" stroke-dashoffset="0" style="mix-blend-mode: normal"><g><path d="M264.64331,190.82171c-6.27413,3.90818 -12.58931,8.59133 -20.30469,10.14534c-3.6612,0.73743 -7.40853,1.86908 -11.14467,1.50306c-1.03249,-0.10115 -2.04686,-0.96952 -3.02159,-0.65979c-4.47584,1.42226 -11.8889,13.76482 -16.57313,16.41432c-5.93257,3.35559 -15.21938,5.62702 -22.31791,5.45867c-7.41056,-0.17575 -22.37175,-8.57995 -25.32165,-12.84305c-1.60949,-2.32598 -2.92917,-4.81887 -3.91211,-7.39004c-0.81104,-2.12151 0.62037,-5.89431 -0.15605,-7.84155c-0.25036,-0.6279 -1.54993,-0.34615 -2.12792,-0.78619c-2.47811,-1.88669 -8.59928,-10.01753 -9.12005,-12.68743c-1.14088,-5.84912 -0.56909,-12.71517 1.46172,-18.45875c7.15703,-20.24175 28.88372,-36.33169 47.03151,-48.81022c13.36469,-9.18964 22.09049,-13.42046 38.25431,-16.3746c4.37308,-0.79924 11.17741,-2.36907 15.89664,-1.54668c4.61546,0 8.99739,0.85967 12.94099,2.40294c3.04435,1.19136 5.82748,2.79009 8.25518,4.71521c1.93711,1.24598 3.79939,2.55063 5.18997,4.22504c0.32835,0.39537 0.33374,1.06541 0.39214,1.64934c0.06001,0.59993 0.17598,1.10896 0.75567,1.13581c3.00611,0.13927 7.24901,-1.52188 10.34915,-0.98429c2.60267,0.45132 4.98771,1.70831 7.62315,1.98541c2.65252,0.2789 6.10392,-1.71644 8.89382,-1.89054c6.66035,-0.41563 10.05396,-0.363 16.03506,1.55061c2.83085,0.90571 6.56432,0.89032 8.37896,2.96639c3.3937,3.88261 6.59821,7.88769 9.72087,11.93495c1.66694,2.1605 0.77685,5.14335 1.05191,7.7252c0.29437,2.76314 0.93939,5.49758 1.12577,8.26765c0.17445,2.59264 -2.6872,4.65435 -4.16778,6.91793c-6.07216,9.28336 -15.14231,10.73429 -25.0557,16.02023c-11.67035,6.22277 -21.22292,15.41849 -35.75285,14.26455z" fill="#791cff"/><path d="M368.47556,149.90612c0.30748,2.34331 -0.1154,4.68407 -0.65448,7.02301c-0.21762,1.91696 -0.64416,3.78128 -1.25978,5.5759c-0.24031,0.70054 -0.50944,1.39046 -0.80619,2.06874c7.22339,7.36093 12.26253,16.12578 11.58767,26.56997c-0.67606,10.46284 -8.45239,14.58594 -15.80005,20.54886c-14.57546,11.82858 -21.24519,27.07088 -41.33305,33.50568c-1.32017,0.42289 -2.78919,-0.44405 -4.19778,-0.42254c-3.41373,0.05214 -6.80722,0.81645 -10.21551,0.64267c-1.00806,-0.0514 -1.6605,-1.54937 -2.6269,-1.29747c-2.7827,0.72531 -8.12827,4.18373 -11.56435,5.70366c-7.06309,3.12433 -14.85386,4.58829 -22.79436,4.58829c-10.41734,0 -20.02552,-0.60099 -29.45244,-4.73141c-3.76066,-1.64774 -9.37248,0.73715 -12.6171,-1.3058c-5.14687,-3.24067 -10.14771,-6.6531 -15.08165,-10.12997c-2.5952,-1.8288 -2.7522,-5.26377 -4.01978,-7.93501c-1.3754,-2.89847 -3.09178,-5.67618 -4.36173,-8.61001c-1.17214,-2.70788 1.12291,-5.69968 1.84157,-8.52217c2.46128,-9.66648 9.26422,-13.80702 16.51745,-20.6513c1.36047,-1.28377 1.51812,-3.78112 2.4693,-5.32053c2.7566,-4.46132 7.30753,-8.62199 12.15084,-11.49179c8.24878,-4.88764 16.641,-9.5942 25.00622,-14.33328c7.78162,-4.40846 18.75674,-8.38804 25.25554,-11.74497c12.92535,-6.67652 23.47193,-25.07676 40.49784,-25.37627c1.92543,-0.28177 3.90437,-0.42853 5.92318,-0.42853c3.0109,0 5.93313,0.32643 8.72142,0.94038c13.0633,2.23038 24.63947,8.56088 26.81411,25.1339z" fill="#ff871c"/></g><g fill="#450033"><path d="M264.55258,189.30003c-5.64845,3.51844 -11.33385,7.73456 -18.27981,9.1336c-3.29608,0.66389 -6.66972,1.68269 -10.03327,1.35317c-0.92952,-0.09106 -1.84273,-0.87283 -2.72026,-0.59399c-4.02949,1.28042 -10.70328,12.39212 -14.92038,14.7774c-5.34095,3.02096 -13.70163,5.06587 -20.09226,4.91431c-6.67154,-0.15823 -20.14073,-7.72432 -22.79645,-11.56228c-1.44899,-2.09403 -2.63706,-4.33831 -3.52198,-6.65307c-0.73016,-1.90994 0.5585,-5.3065 -0.14049,-7.05955c-0.22539,-0.56528 -1.39536,-0.31163 -1.91571,-0.70779c-2.23098,-1.69854 -7.74172,-9.01853 -8.21055,-11.42218c-1.02711,-5.26582 -0.51233,-11.44715 1.31595,-16.61795c6.4433,-18.22314 26.00329,-32.70852 42.3413,-43.94262c12.0319,-8.2732 19.88752,-12.08211 34.43941,-14.74165c3.93698,-0.71953 10.06274,-2.13282 14.31135,-1.39244c4.15518,0 8.10012,0.77394 11.65045,2.1633c2.74075,1.07255 5.24633,2.51185 7.43194,4.24498c1.74394,1.12173 3.4205,2.29627 4.6724,3.8037c0.29561,0.35594 0.30046,0.95916 0.35304,1.48486c0.05402,0.5401 0.15843,0.99837 0.68031,1.02254c2.70633,0.12538 6.5261,-1.37011 9.31708,-0.88614c2.34312,0.40631 4.49031,1.53795 6.86293,1.78742c2.388,0.25109 5.4952,-1.54527 8.00688,-1.702c5.99615,-0.37418 9.05133,-0.3268 14.43596,1.39597c2.54854,0.81539 5.9097,0.80154 7.54337,2.67057c3.05526,3.49542 5.9402,7.10109 8.75146,10.74474c1.5007,1.94505 0.69938,4.63043 0.94701,6.95481c0.26501,2.48759 0.84571,4.94933 1.01351,7.44316c0.15705,2.33409 -2.41922,4.1902 -3.75215,6.22804c-5.46662,8.35758 -13.63225,9.66382 -22.55703,14.42261c-10.50653,5.60221 -19.10646,13.88088 -32.18741,12.84202z"/><path d="M358.03018,152.46475c0.27682,2.10963 -0.10389,4.21695 -0.58921,6.32264c-0.19592,1.7258 -0.57992,3.40419 -1.13415,5.01984c-0.21635,0.63068 -0.45863,1.25179 -0.72579,1.86244c6.50304,6.62686 11.03965,14.51764 10.43209,23.92028c-0.60864,9.41943 -7.60947,13.13136 -14.22439,18.49963c-13.12193,10.64898 -19.12652,24.37124 -37.21112,30.16433c-1.18851,0.38072 -2.51103,-0.39977 -3.77916,-0.3804c-3.0733,0.04694 -6.12837,0.73503 -9.19677,0.57858c-0.90753,-0.04627 -1.4949,-1.39486 -2.36493,-1.16808c-2.50519,0.65298 -7.31768,3.76651 -10.4111,5.13486c-6.35872,2.81275 -13.37256,4.13073 -20.52119,4.13073c-9.37847,0 -18.02848,-0.54106 -26.5153,-4.25957c-3.38563,-1.48342 -8.43781,0.66364 -11.35886,-1.17557c-4.6336,-2.91749 -9.13573,-5.98962 -13.57763,-9.11976c-2.33639,-1.64642 -2.47774,-4.73884 -3.61891,-7.14369c-1.23824,-2.60942 -2.78345,-5.11013 -3.92675,-7.75138c-1.05525,-2.43784 1.01093,-5.13128 1.65792,-7.6723c2.21583,-8.70249 8.34035,-12.43012 14.87025,-18.59186c1.2248,-1.15574 1.36672,-3.40405 2.22305,-4.78994c2.4817,-4.01642 6.57879,-7.76216 10.9391,-10.34577c7.42617,-4.40022 14.98148,-8.63742 22.51248,-12.9039c7.0056,-3.96883 16.88623,-7.55155 22.73693,-10.5737c11.63637,-6.01071 21.13119,-22.57599 36.4592,-22.84563c1.73342,-0.25367 3.51501,-0.38579 5.33249,-0.38579c2.71064,0 5.34145,0.29388 7.85168,0.8466c11.76057,2.00796 22.1823,7.70715 24.14007,22.62743z"/></g><path d="M177.43349,189.43178c-1.03829,-6.72024 -1.86153,-13.44354 -3.47939,-20.07124c-2.60682,-10.67903 -5.95271,-21.11417 -8.39963,-31.85344c0,0 -0.55539,-2.43753 1.88214,-2.99292c2.43753,-0.55539 2.99292,1.88214 2.99292,1.88214c2.43926,10.70567 5.77384,21.10569 8.3752,31.75118c1.83659,7.51584 2.70419,15.15053 3.91106,22.77487l-0.07666,0.19811h0.08453v2.79581c0,1.38071 -1.11929,2.5 -2.5,2.5c-1.14084,0 -2.1032,-0.76416 -2.40315,-1.80855l-0.85674,-2.74158l0.75989,-0.23746v-0.50823h1.62631l2.3862,-0.74569l0.23302,0.74569h0.66994l-2.03831,5.2672l-3.63705,-4.52151c0,0 -0.45063,-1.44204 0.46973,-2.43439z" fill="#ffe6fd"/><path d="M183.56971,186.8289c1.98357,-1.08195 3.15227,0.60667 3.3588,0.94163c4.69878,-2.16259 9.04036,-5.60298 11.14084,-10.53082c1.52797,-3.5847 1.88058,-9.7202 -0.22693,-13.28718c-0.71567,-1.21128 -4.07387,-3.46643 -5.01595,-4.11989c-0.62578,-0.43406 -1.16653,-1.0955 -1.91218,-1.25046c-2.02203,-0.42022 -4.21995,-0.20479 -6.37992,0.3189c-1.96268,1.74515 -3.70115,2.46991 -7.30005,2.73749l-0.57285,0.0041c-0.53064,0.04442 -1.20417,-0.04163 -1.76522,-0.5683c-0.37368,-0.29295 -0.69274,-0.73672 -0.80191,-1.40892c-0.17325,-0.6586 -0.06192,-1.1937 0.16057,-1.61317c0.29758,-0.70625 0.87461,-1.05846 1.37614,-1.2341c1.98891,-0.87697 4.17715,-1.74495 6.44066,-2.38783c0.34396,-0.38509 0.73835,-0.83773 1.22566,-1.3704c1.98454,-2.16926 5.25729,-4.19621 5.63972,-7.40926c0.73415,-6.1681 -5.21947,-11.841 -11.21754,-12.31546c-3.07686,-0.24338 -5.75817,2.79766 -7.6103,4.68532c0,0 -1.76777,1.76776 -3.53553,0c-1.76776,-1.76776 0,-3.53553 0,-3.53553c2.97108,-2.92531 6.65009,-6.38127 11.2614,-6.14845c8.88329,0.44851 17.34873,9.06743 16.04158,18.08895c-0.41551,2.86771 -2.07105,5.02015 -3.94968,7.00428c0.78354,0.05232 1.55921,0.16065 2.32195,0.33382c1.24541,0.28276 2.25789,1.20081 3.32997,1.89483c1.81572,1.17542 5.3969,3.76424 6.51675,5.66544c2.99525,5.08508 2.67352,12.78202 0.52062,17.99557c-2.8131,6.81233 -9.35568,11.45556 -15.91103,13.96253l-4.13315,-3.06121c0,0 -1.19713,-2.19474 0.99761,-3.39186zM185.19882,188.50434l-0.27354,0.10519c0.09122,-0.0346 0.1824,-0.06967 0.27354,-0.10519z" fill="#ffe6fd"/><path d="M207.75384,166.79023c-0.2323,0.5679 -0.60015,0.93576 -0.60015,0.93576c-2.05575,1.90664 -3.27619,3.3341 -2.24234,6.39024c1.07373,3.17405 9.53084,5.09382 11.52093,2.60534c2.45285,-3.06714 2.19267,-9.68055 -2.19139,-11.00135c-2.19576,-0.66152 -4.41564,0.09228 -6.48705,1.07zM200.18919,169.00779c-0.00158,-0.00179 -0.00315,-0.0036 -0.00473,-0.0054c-1.64626,-1.88144 0.23518,-3.5277 0.23518,-3.5277l1.98695,-1.60718c4.09224,-1.90971 8.60105,-4.50502 13.34554,-2.91342c7.47009,2.50594 9.61609,13.37224 4.44866,19.05359c-4.72204,5.19165 -17.32423,2.68477 -19.9319,-4.0347c-1.051,-2.70821 -0.92718,-4.94457 -0.07969,-6.96518z" fill="#ffe6fd"/><path d="M229.3025,178.29893l-3.41211,2.03455c-4.5806,-14.65796 -8.95228,-29.24563 -12.28593,-44.23733c0,0 -0.54233,-2.44047 1.89814,-2.98279c2.44047,-0.54233 2.9828,1.89814 2.9828,1.89814c2.99281,13.47616 6.84213,26.62079 10.91944,39.78804c1.67872,0.57984 1.54014,2.52004 1.54014,2.52004l-0.6386,0.38077c0.11866,0.38054 0.23747,0.76112 0.35641,1.14175z" fill="#ffe6fd"/><path d="M221.60219,151.41558c-0.31008,-2.48069 2.1706,-2.79078 2.1706,-2.79078l0.66035,0.03606c2.52301,-1.16251 5.24065,-1.67012 6.18215,-4.61358c1.39536,-4.36233 -1.66463,-9.95011 -5.18773,-12.1102c-0.33739,-0.20685 -3.18494,-1.64766 -3.83418,-1.43328c-0.43115,0.14237 -0.3077,0.85994 -0.53706,1.2518c-0.77645,1.32662 -1.285,2.83993 -1.49356,4.36285c0,0 -0.3899,2.4694 -2.85931,2.0795c-2.4694,-0.3899 -2.07951,-2.85932 -2.07951,-2.85932c0.22163,-1.27984 0.22141,-2.61868 0.6649,-3.83951c2.19246,-6.03536 7.45202,-7.11295 12.69149,-3.86128c6.37878,3.95874 11.44034,15.64793 5.03081,22.09389c-1.02622,1.03205 -4.78133,2.68243 -6.48271,3.46892l-2.13546,0.38554c0,0 -2.48069,0.31008 -2.79078,-2.17061z" fill="#ffe6fd"/><path d="M237.39793,133.22574c-2.38985,0.73391 -3.12376,-1.65593 -3.12376,-1.65593l-0.48125,-1.58719c-0.37871,-1.62307 -0.75744,-3.24614 -1.13615,-4.86921c0,0 -0.56807,-2.4346 1.86653,-3.00268c2.43461,-0.56807 3.00268,1.86653 3.00268,1.86653c0.37871,1.62307 0.75743,3.24613 1.13614,4.86921l0.39174,1.25552c0,0 0.73391,2.38985 -1.65593,3.12375z" fill="#ffe6fd"/><path d="M243.32079,165.6199c1.38675,-2.08013 3.46687,-0.69338 3.46687,-0.69338l-0.48322,0.71976c1.97961,-0.47534 3.60977,-1.99147 5.06029,-3.42004c1.31286,-1.29298 3.97558,-2.90328 4.56037,-4.80885c0.59242,-1.93045 -0.81649,-5.1151 -2.26485,-6.40165c-4.20944,-3.73917 -12.82203,-3.78681 -14.8199,-9.76424c-1.8655,-5.58138 1.91472,-14.56114 7.77303,-16.28654c1.84766,-0.54417 3.85136,-0.08255 5.77704,-0.12382c0,0 2.5,0 2.5,2.5c0,2.5 -2.5,2.5 -2.5,2.5c-1.40765,-0.04127 -2.84833,-0.42972 -4.22296,-0.12382c-3.44993,0.76773 -5.29247,6.94468 -4.59342,9.92415c0.46687,1.98992 5.97861,3.36549 7.24719,3.95395c5.64437,2.6183 12.07896,7.78989 9.9167,15.17722c-1.05683,3.61067 -3.56074,4.81944 -5.9239,7.07333c-1.17373,1.11946 -2.04089,2.59839 -3.4046,3.47653c-1.10306,0.7103 -2.51118,0.76092 -3.76677,1.14138l-3.6285,-1.37709c0,0 -2.08012,-1.38675 -0.69337,-3.46688z" fill="#ffe6fd"/><path d="M299.87773,130.20046c-0.97783,-0.09363 -2.01681,-0.13781 -3.17651,-0.14927c-1.54953,-0.01531 -3.20476,-0.50516 -4.51275,0.63709c-5.28153,4.61225 -7.42786,11.08775 -9.21559,17.64074c-0.84806,3.1086 -1.87929,6.64511 -1.48902,9.90035c0.47099,3.92852 3.92711,6.50572 6.84452,8.52343c6.67092,1.75141 11.6384,0.46641 17.64275,-2.52233c2.26321,-1.12654 6.24435,-3.12036 7.60568,-5.47188c1.97314,-3.40831 1.7605,-11.90036 0.38207,-15.4097c-1.57952,-4.02125 -7.88839,-6.95953 -11.26502,-9.0214l-1.79017,-1.1187c0,0 -1.83139,-1.14462 -1.02597,-3.00831zM309.21776,132.40237c3.77794,2.30517 7.77389,5.12071 9.3107,8.917c1.86285,4.60167 1.14467,4.95263 1.01204,8.87989c-0.12788,3.78657 0.31814,7.6669 -1.68583,11.14774c-1.85435,3.22095 -6.47974,5.76534 -9.64006,7.35188c-0.87625,0.4399 -8.11697,3.60624 -8.80755,3.75391c-4.14839,0.88707 -9.19744,-0.05426 -13.19159,-1.16837c-4.36113,-3.03034 -8.85749,-6.4664 -9.66498,-12.2414c-0.55617,-3.97762 0.5608,-8.22342 1.59855,-12.02958c2.03472,-7.46275 4.71053,-15.46523 11.12555,-20.38833c2.64702,-2.03141 4.28065,-1.54846 7.42661,-1.57391c4.83256,-0.03909 8.29098,0.71257 12.72031,2.6417c0,0 2.29039,1.00204 1.28835,3.29244c-0.37805,0.86411 -0.93948,1.25958 -1.49211,1.41704z" fill="#ffe6fd"/><path d="M318.42171,175.6815c-1.92055,1.60046 -3.52101,-0.3201 -3.52101,-0.3201l-0.87426,-1.08417c-4.97171,-4.57292 -9.86421,-9.54287 -13.2939,-15.39686c0,0 -1.25968,-2.15944 0.89977,-3.41912c2.15945,-1.25968 3.41913,0.89977 3.41913,0.89977c3.14225,5.41306 7.75234,10.02841 12.35363,14.23045l1.33673,1.56902c0,0 1.60046,1.92056 -0.32009,3.52102z" fill="#ffe6fd"/><path d="M344.32443,171.65035c-0.9848,2.29787 -3.28266,1.31306 -3.28266,1.31306l-2.33067,-1.19339c-1.42548,-1.43206 -3.93793,-3.67019 -4.58947,-5.63775c-0.31915,-0.96379 -0.49202,-2.06561 -0.54338,-3.23144c-0.04345,0.05181 -0.08727,0.10334 -0.13144,0.1546c-3.21054,3.72497 -5.20671,6.538 -9.55997,1.59345c-2.78188,-3.15975 -1.44255,-11.43005 -1.15646,-15.1795c0,0 0.19175,-2.49264 2.68438,-2.30089c2.49264,0.19174 2.30089,2.68438 2.30089,2.68438c-0.17757,2.2887 -0.20792,4.58786 -0.21373,6.88344c-0.00216,0.8563 -0.08546,1.71514 -0.01873,2.56883c0.06173,0.78983 0.22035,1.57137 0.4026,2.34235c0.04931,0.20861 0.1359,0.72734 0.28711,0.57542c2.7433,-2.75605 4.51637,-7.65162 4.70442,-11.56658c-0.32839,-0.67998 -0.51409,-1.72148 0.52739,-2.76296c1.76777,-1.76776 3.53553,0 3.53553,0l0.72519,1.5129c1.32415,-1.89489 3.07668,-3.61122 5.32435,-3.57048c4.72747,0.08568 5.30084,4.97899 4.82098,7.9845c-0.50122,3.13929 -2.24106,7.29058 -5.5324,8.63426c-1.02571,0.41875 -2.16573,-0.21365 -3.27166,-0.53242c-0.00267,0.11526 -0.00519,0.2292 -0.00764,0.34167c-0.01686,0.77498 -0.34501,1.57972 -0.12254,2.32228c0.18672,0.62324 3.28369,3.56247 3.37009,3.64843l0.76472,0.1332c0,0 2.29787,0.9848 1.31307,3.28267zM339.42062,156.91225c0.23773,0.02395 0.38945,0.06533 0.38945,0.06533c2.22761,1.38872 2.60662,-2.20231 3.06527,-3.95822c0.18419,-0.70517 0.56004,-2.59508 -0.04321,-2.18607c-2.03735,1.38134 -2.9706,3.67576 -3.41152,6.07897z" fill="#ffe6fd"/><path d="M343.55696,174.16039c1.76777,-1.76776 3.53553,0 3.53553,0l-0.15697,-0.07278c1.83218,1.44069 3.41319,1.84624 5.66396,-0.01101c0.26468,-0.2184 -0.22764,-0.64746 -0.34109,-0.97133c-0.23931,-0.68318 -0.50117,-1.3589 -0.71717,-2.04979c-0.39088,-1.25021 -0.4708,-2.62446 -1.10293,-3.77173c-1.6393,-2.9752 -5.39866,-3.83028 -6.42347,-7.5265c-1.0925,-3.94033 1.64187,-8.46592 5.62294,-9.56997c2.50203,-0.69388 6.38564,0.07414 8.93384,0.43406c0,0 2.47487,0.35355 2.12132,2.82843c-0.35356,2.47487 -2.82843,2.12132 -2.82843,2.12132c-1.19474,-0.1728 -2.38262,-0.4026 -3.58422,-0.51839c-1.01656,-0.09796 -2.06625,-0.3516 -3.06137,-0.122c-0.55952,0.12909 -0.85906,0.76253 -1.30146,1.1286c-3.58423,2.96579 3.39298,6.15539 4.79871,8.63604c1.31509,2.32071 2.27286,4.94949 2.47767,7.60903c0.40411,5.24755 -0.22383,5.01767 -5.27157,7.27654c-1.15839,0.51838 -2.42775,1.18547 -3.67966,0.9774c-1.50703,-0.25048 -2.66097,-1.50159 -3.99145,-2.25239l-0.69419,-0.61c0,0 -1.76776,-1.76776 0,-3.53553z" fill="#ffe6fd"/><path d="M367.12121,179.06929c2.49969,0.03898 2.46071,2.53868 2.46071,2.53868l-0.04355,2.65094c-0.5543,2.31592 0.16562,5.42224 -1.66291,6.94776c-1.42424,1.18823 -3.73987,-0.33762 -5.47526,-0.99245c-3.83474,-1.44699 -6.55466,-7.35269 -7.22735,-11.0631c-1.98396,-10.94318 2.6516,-24.31955 8.15397,-33.5192c0,0 1.28624,-2.14373 3.42997,-0.8575c2.14373,1.28624 0.85749,3.42997 0.85749,3.42997c-4.50217,7.4781 -7.54853,16.68699 -7.61855,25.48149c-0.03197,4.0152 -0.35626,4.27804 1.27861,7.60015c0.58786,1.19457 1.20877,2.39064 2.02353,3.4436c0.37505,0.48469 1.08444,0.62144 1.48248,1.08744c0.26743,0.31309 0.48589,1.56494 0.43419,1.15644c-0.12876,-1.01721 -0.44524,-2.00174 -0.66787,-3.00261l0.03585,-2.44091c0,0 0.03899,-2.4997 2.53868,-2.46072z" fill="#ffe6fd"/><path d="M378.87222,161.94232c-1.32499,2.11999 -3.44499,0.795 -3.44499,0.795l-2.22247,-1.39086c-7.07884,-5.1458 -15.21616,-9.19399 -21.75122,-14.97728c0,0 -1.86852,-1.66091 -0.20761,-3.52944c1.66091,-1.86853 3.52943,-0.20762 3.52943,-0.20762c6.32579,5.65105 14.34302,9.56133 21.22655,14.56994l2.07532,1.29525c0,0 2.11999,1.325 0.79499,3.44499z" fill="#ffe6fd"/><path d="M289.34112,183.87398c-1.76776,1.76776 -3.53553,0 -3.53553,0l-0.26945,-0.30499c-0.40776,-0.39285 -0.81113,-0.7903 -1.22327,-1.17854c-0.13196,-0.1243 -0.44535,-0.53634 -0.40872,-0.35879c0.4845,2.34812 1.61076,4.83771 2.30322,7.14591c0,0 0.71837,2.39457 -1.6762,3.11293c-2.39456,0.71837 -3.11293,-1.67619 -3.11293,-1.67619c-0.15981,-0.53269 -0.34464,-1.10418 -0.53681,-1.69979c-2.19927,3.40175 -7.07569,5.20896 -10.71399,2.39946c-1.58987,-1.2277 -2.31786,-3.72139 -2.31525,-6.29345c-1.91187,0.22825 -3.80831,0.51889 -5.7072,0.79137c0.13248,1.44325 -0.01147,2.90214 -0.00719,4.35265c0,0 0,2.5 -2.5,2.5c-2.5,0 -2.5,-2.5 -2.5,-2.5c0.00374,-1.12227 -0.14705,-2.37779 -0.35048,-3.7009c-0.05507,0.00482 -0.11014,0.00955 -0.16524,0.01421c0,0 -2.49136,0.20762 -2.69897,-2.28375c-0.17111,-2.05333 1.49111,-2.55537 2.08091,-2.66844c-0.62207,-4.72159 -0.44338,-9.31532 4.52099,-11.21357c1.0624,-0.40624 2.27372,-0.07152 3.41058,-0.10727l1.65526,0.53254c0,0 2.23607,1.11803 1.11803,3.3541c-1.11803,2.23607 -3.35411,1.11804 -3.35411,1.11804l0.58082,-0.00468c-3.78446,-0.20694 -3.60851,2.68446 -2.89861,5.72571c2.57785,-0.36403 5.14826,-0.78279 7.75346,-1.04331l0.08952,0.03872c0.43727,-0.95989 1.00764,-1.76353 1.69862,-2.29802c1.2285,-0.95029 3.09245,-0.29281 4.63867,-0.43922c0,0 1.93297,0 2.39955,1.69968l0.33026,0.06324c0.61556,0.4575 1.17484,0.82614 1.66945,1.16491c0.5976,-1.74528 2.25851,-2.84813 5.84512,-2.59234c1.22768,0.08756 2.04967,1.36319 3.0745,2.04478l0.80499,0.76946c0,0 1.76776,1.76777 0,3.53553zM273.3486,181.80865c-0.57475,0.70269 -0.71412,5.0425 -0.06544,5.5948c1.59404,1.35721 5.04869,-1.697 3.60529,-3.38718c-0.41968,-0.49144 -1.14328,-0.60291 -1.71491,-0.90437l0.58092,0.41987c0,0 -1.9507,0 -2.40586,-1.72312z" fill="#ffe6fd"/><g fill="#ffe6fd"><path d="M241.19947,213.57689c-0.06716,2.4991 -2.56626,2.43194 -2.56626,2.43194l-0.04198,-0.0114c-2.27789,0.13128 -3.18894,-0.02477 -5.33363,0.95617c-1.85879,0.85018 -3.47552,2.32706 -5.38147,3.00089c1.12139,2.09467 2.25063,4.18612 3.40546,6.26529c3.06946,5.52632 6.66578,10.65465 9.50274,16.29089c1.23147,0.68333 1.18918,2.25715 1.18918,2.25715l-4.79338,1.78007c-2.88413,-6.30364 -6.91396,-11.85883 -10.26957,-17.90033c-1.56719,-2.8216 -3.08536,-5.66731 -4.60085,-8.51308c-0.4466,-0.04081 -2.40146,-0.34601 -2.34196,-2.56013c0.01392,-0.51788 0.13227,-0.92555 0.31117,-1.24646c-2.65244,-4.95015 -5.35951,-9.86792 -8.36633,-14.62612c-0.71874,0.24665 -1.9882,0.40256 -2.89353,-1.03784c-1.33037,-2.11663 0.78626,-3.447 0.78626,-3.447c0.12488,-0.07799 0.24996,-0.15508 0.37525,-0.23129c0.17105,-0.36301 0.46912,-0.72297 0.95565,-1.04442c0.65155,-0.43048 1.23405,-0.52297 1.72706,-0.44662c5.84453,-2.96634 12.06782,-4.43833 18.38059,-6.56698l1.67102,-0.10834c0,0 2.4991,0.06716 2.43194,2.56626c-0.06716,2.4991 -2.56626,2.43194 -2.56626,2.43194l0.05994,-0.15163c-5.6163,1.8913 -11.25168,3.18334 -16.51178,5.67054c3.27144,5.21546 6.20151,10.61109 9.09743,16.02964c0.18733,-0.00954 0.37395,-0.0297 0.55959,-0.06395c1.56757,-0.28918 3.83485,-2.30771 5.19655,-2.89745c3.16639,-1.37133 3.89546,-1.17652 7.09018,-1.39704l0.49505,0.00303c0,0 2.4991,0.06716 2.43194,2.56626z"/><path d="M264.62098,231.94103c-0.06716,2.4991 -2.56626,2.43194 -2.56626,2.43194l-0.3105,-0.01862c-3.26612,0.20452 -8.51261,1.89931 -11.23653,-0.89547c-0.52938,-0.54315 -0.41432,-5.75614 -0.63568,-7.08216c-0.57317,-3.43346 -1.81476,-6.81969 -2.54398,-10.21179c-1.47191,-6.84688 -1.41627,-14.03149 -1.23087,-20.99728c0,0 0.06716,-2.4991 2.56626,-2.43194c2.4991,0.06716 2.43194,2.56626 2.43194,2.56626c-0.25887,9.53742 0.88838,18.13208 2.94965,27.41493c0.57519,2.59032 1.22776,3.36372 0.98209,6.16591c-0.04542,0.51807 -0.96424,1.01814 -0.63849,1.42354c0.32874,0.40912 1.03121,-0.19599 1.54703,-0.29287c1.81102,-0.34016 3.65103,-0.52937 5.48983,-0.64895l0.76357,0.01025c0,0 2.4991,0.06716 2.43194,2.56626z"/><path d="M283.8779,212.2229c2.4991,0.06716 2.43194,2.56626 2.43194,2.56626l-0.00722,0.26851c-0.18292,6.13697 -2.29762,19.73933 -11.90999,15.70731c-1.38236,-0.57985 -2.47464,-1.7202 -3.5355,-2.77932c-1.37478,-1.37253 -2.84997,-2.7454 -3.73199,-4.47626c-2.8244,-5.54252 -0.66189,-13.46763 0.53033,-19.08171c0,0 0.52109,-2.44509 2.96618,-1.924c2.44509,0.5211 1.924,2.96619 1.924,2.96619c-0.90579,4.23427 -3.19992,11.53713 -0.94476,15.81069c0.64917,1.23019 1.78474,2.13756 2.75556,3.13371c5.82871,5.98072 6.85877,-5.69539 6.94798,-9.49092l0.00722,-0.26851c0,0 0.06716,-2.4991 2.56626,-2.43194z"/><path d="M315.95009,203.70342c-1.07635,2.25643 -3.33278,1.18008 -3.33278,1.18008l-1.99211,-0.98988c-7.53099,-0.71465 -15.17857,-0.59955 -22.73998,-0.80275c0,0 -2.4991,-0.06716 -2.43194,-2.56626c0.06716,-2.4991 2.56626,-2.43194 2.56626,-2.43194c7.97534,0.21432 16.03962,0.07348 23.96704,0.98985l2.78342,1.28812c0,0 2.25643,1.07635 1.18008,3.33278z"/><path d="M294.04398,233.88909c-2.4991,-0.06716 -2.43194,-2.56626 -2.43194,-2.56626c0.26458,-9.84552 0.57968,-21.57063 0.84426,-31.41615c0,0 0.06716,-2.4991 2.56626,-2.43194c2.4991,0.06716 2.43194,2.56626 2.43194,2.56626c-0.26458,9.84552 -0.52917,19.69104 -0.79375,29.53655l-0.05051,1.8796c0,0 -0.06716,2.4991 -2.56626,2.43194z"/><path d="M329.64797,217.98033c-1.213,2.18601 -3.39901,0.97301 -3.39901,0.97301l-2.58037,-1.44001c-1.40928,-0.54757 -2.9891,-0.77584 -4.22783,-1.6427c-0.61348,-0.42932 -1.12259,-0.97679 -1.6004,-1.55967c-1.15097,3.67053 -2.31858,7.33826 -3.37318,11.02889c-0.41827,1.46375 -0.68647,2.97731 -1.23993,4.39548c-0.14883,0.38136 -0.91763,0.50639 -0.82907,0.90607c0.07286,0.32879 0.668,-0.15505 1.00304,-0.12097c1.4345,0.14592 2.83999,0.52115 4.2754,0.65791c2.55062,0.24301 5.12635,0.27109 7.65723,0.67028l-0.93841,-0.22387c0,0 2.02363,-1.46796 3.49159,0.55567c1.46796,2.02363 -0.55567,3.49159 -0.55567,3.49159l-2.78335,1.11447c-4.09052,-0.65738 -8.71357,-0.05438 -12.64134,-1.49465c-1.49871,-0.54956 -3.3241,-1.13479 -4.04912,-2.55694c-0.65847,-1.29162 0.25396,-2.89486 0.54581,-4.31496c0.25968,-1.26357 2.0964,-7.16072 2.44251,-8.5405c1.8103,-7.21686 4.66785,-14.14223 6.12263,-21.44011c0.64643,-3.24281 0.35465,-6.48101 4.50609,-7.97443c3.41938,-1.23007 7.49871,1.92442 10.01077,3.36806c0,0 2.15864,1.26105 0.89759,3.4197c-1.26105,2.15864 -3.4197,0.89759 -3.4197,0.89759c-1.87675,-1.11784 -3.72559,-3.49173 -5.84512,-2.96319c-0.51595,0.12866 -0.73147,0.81907 -0.88245,1.32893c-0.76339,2.57796 -0.72988,5.34347 -1.44373,7.93559c-0.38559,1.40015 -0.79018,2.79661 -1.20673,4.19077c0.16983,0.1257 0.3223,0.27198 0.4543,0.43455c1.49348,1.75764 3.54192,3.13297 5.71752,3.89347l2.9179,1.61094c0,0 2.18601,1.213 0.97301,3.39901z"/></g></g></g></svg>