<svg version="1.1" xmlns="http://www.w3.org/2000/svg" xmlns:xlink="http://www.w3.org/1999/xlink" width="250.98425" height="109.28831" viewBox="0,0,250.98425,109.28831"><g transform="translate(-213.59642,-234.24565)"><g data-paper-data="{&quot;isPaintingLayer&quot;:true}" fill-rule="nonzero" stroke-linejoin="miter" stroke-miterlimit="10" stroke-dasharray="" stroke-dashoffset="0" style="mix-blend-mode: normal"><g><path d="M230.96485,333.79116c-1.97197,-14.5735 57.05522,-65.83764 57.05522,-65.83764l15.87199,-16.49142c0,0 1.91826,-10.10757 2.17538,-8.20737c0.27329,2.01971 0.95265,6.9891 1.84898,13.53615c2.71523,19.83269 7.4215,54.14263 8.86236,64.79114c0.27549,2.03602 -1.18496,4.24187 -3.1708,4.51058c-8.25103,1.11646 -64.33697,8.70554 -78.78899,10.66106c-2.16108,0.29242 -3.55917,-0.78254 -3.85415,-2.96249z" fill-opacity="0.74902" fill="#6b0f48" stroke="none" stroke-width="0" stroke-linecap="butt"/><path d="M229.7293,328.21554c-2.85133,-21.07232 -8.53359,-66.62177 -9.46264,-73.48777c-0.24792,-1.83221 1.04005,-3.49896 2.89348,-3.74975c8.00527,-1.08321 64.39492,-8.71338 78.99695,-10.6892c2.19517,-0.29703 3.65323,1.06571 3.91035,2.96591c0.19043,1.40732 -0.26884,1.94816 0.25192,5.75554" fill-opacity="0.74902" fill="#673270" stroke="none" stroke-width="0" stroke-linecap="butt"/><g stroke="#3e0e6c"><path d="M228.69736,328.54005c-0.18545,-7.05187 -0.74401,-15.08431 -1.86962,-22.11738c0.27423,-0.2143 0.54668,-0.39075 0.81693,-0.52705c9.66801,-4.87634 20.82181,-2.25432 24.91269,5.85644c1.52044,3.01448 -0.24062,12.5481 -3.55031,23.58893c-5.68266,0.6524 -11.37237,1.48192 -17.0211,1.97007c-0.66166,-1.42169 -1.64771,-2.6619 -2.86302,-3.62553c-0.14029,-2.38033 -0.41395,-4.7041 -0.42555,-5.14548z" fill="#ffffff" stroke-width="2.5" stroke-linecap="butt"/><path d="" fill="#ffffff" stroke-width="2.5" stroke-linecap="butt"/><path d="" fill="#ffffff" stroke-width="2.5" stroke-linecap="butt"/><path d="M235.2884,326.62292c5.04758,-17.59985 10.84364,-29.37318 11.82624,-28.57675c3.18331,2.58017 7.21797,17.82923 10.8356,36.21366c-2.29994,0.28601 -4.26179,0.59161 -5.19002,0.68141c-5.72652,0.554 -11.47098,1.40439 -17.18407,2.01907c0.07862,-3.29695 -0.97464,-7.94235 -0.28775,-10.33739z" fill="#ffffff" stroke-width="2.5" stroke-linecap="butt"/><path d="M224.7326,251.3118c0.04599,-0.00412 0.09096,-0.0081 0.13487,-0.01191c3.00749,-0.26116 10.25681,-1.52952 15.7538,-3.67402c2.27388,0.85406 5.554,0.20768 7.55602,-0.01549c7.95271,-0.8865 15.87837,-2.46119 23.84248,-3.50056c1.07304,-0.14004 2.51865,-0.25571 4.07067,-0.4083c3.54914,2.99579 6.58036,6.78315 8.84926,11.28156c3.02931,6.00603 4.87133,21.29264 4.6139,28.47602c-0.10747,2.99892 -8.9173,21.1012 -17.93987,25.65198c-3.383,1.70631 -17.15312,0.67499 -18.38951,1.01069c-1.83332,0.49777 -2.24479,-1.43616 -3.27971,-2.73545c-0.57324,-0.71967 -2.0115,0.52229 -2.77248,0.43952c-0.76409,-0.0831 -1.96671,-1.33151 -3.013,-0.63649c-1.56337,1.03851 -2.76966,2.56616 -4.10247,2.03617c-0.58835,-0.23396 -0.19013,-5.25956 -0.76567,-5.52496c-2.34567,-1.08165 -10.12309,-6.99245 -11.78573,-8.94638c-0.86486,-1.01639 -1.76407,-2.15243 -2.61153,-3.3462c0.06648,-0.49136 0.13871,-0.97993 0.25264,-1.44943c0.59711,-2.46066 -1.38844,-5.66224 -1.47335,-8.19331c-0.21095,-6.28841 -1.0698,-14.73665 -3.33943,-21.47334c1.03398,-3.17185 2.51143,-6.19885 4.3991,-8.98009z" fill="#ffffff" stroke-width="2.5" stroke-linecap="butt"/><path d="M252.59322,318.48215c0,0 -7.79202,1.55356 -10.22589,1.25796c-1.64354,-0.19961 -2.9614,-2.85956 -2.9614,-2.85956" fill="none" stroke-width="2.5" stroke-linecap="round"/><path d="M236.19072,289.94473c-0.28022,-0.56269 0.25129,-6.84079 2.36931,-11.95475c1.22855,-2.96632 3.3689,-5.4931 5.21048,-6.41019c1.53902,-0.76643 4.92533,-1.57829 7.78675,-0.85692c5.36002,1.35126 10.66966,5.40472 11.15135,6.37199c0.36795,0.73888 -1.29021,8.70437 -1.40676,8.94753c-1.59236,3.32205 -4.79626,5.88493 -6.88132,6.92327c-3.09639,1.54198 -9.34173,0.82684 -13.50326,-0.45549c-3.02266,-0.9314 -4.60919,-2.32974 -4.72656,-2.56542z" fill="#ffffff" stroke-width="2.5" stroke-linecap="butt"/><g fill="#ffffff" stroke-linecap="butt"><path d="M241.82146,287.67447c-2.15668,-4.33073 -0.39425,-9.58982 3.93646,-11.7465c4.33073,-2.15668 9.58982,-0.39425 11.7465,3.93647c2.15668,4.33073 0.39425,9.58981 -3.93647,11.74649c-4.33073,2.15668 -9.58982,0.39426 -11.74649,-3.93646z" stroke-width="2.5"/><path d="M243.96003,286.60945c-1.56849,-3.14962 -0.28674,-6.97441 2.86289,-8.54291c3.14962,-1.56849 6.97442,-0.28674 8.54291,2.86289c1.56849,3.14962 0.28674,6.97441 -2.86289,8.54291c-3.14962,1.56849 -6.97441,0.28674 -8.5429,-2.86288z" stroke-width="2"/><path d="M245.70978,285.73808c-1.08725,-2.18326 -0.19876,-4.83454 1.9845,-5.92179c2.18326,-1.08725 4.83453,-0.19876 5.92178,1.9845c1.08725,2.18326 0.19876,4.83454 -1.9845,5.92179c-2.18326,1.08725 -4.83453,0.19876 -5.92178,-1.9845z" stroke-width="1.5"/><path d="M247.70583,284.74407c-0.53828,-1.08089 -0.09841,-2.39349 0.98248,-2.93177c1.08089,-0.53828 2.3935,-0.09841 2.93178,0.98248c0.53828,1.08089 0.0984,2.39349 -0.98249,2.93177c-1.08089,0.53828 -2.39349,0.0984 -2.93176,-0.98249z" stroke-width="1"/></g><path d="M288.69861,273.68484c-1.76739,3.5505 -5.17389,8.08691 -8.04548,9.094c-1.93369,0.67815 -5.50821,1.0867 -8.56209,-0.05167c-0.22352,-0.08333 -6.21365,-4.21977 -6.44743,-4.94332c-0.30605,-0.94722 0.44149,-7.06037 2.90518,-11.43667c1.31524,-2.33628 3.91037,-4.01035 5.33766,-4.51091c1.70787,-0.59896 4.60386,-0.33838 7.21149,0.804c4.49557,1.96947 8.73846,5.73472 8.9165,6.28575c0.07457,0.23079 -0.03209,2.17999 -1.3158,4.75883z" data-paper-data="{&quot;index&quot;:null}" fill="#ffffff" stroke-width="2.5" stroke-linecap="butt"/><g data-paper-data="{&quot;index&quot;:null}" fill="#ffffff" stroke-linecap="butt"><path d="M280.33422,281.33629c-4.01633,1.40855 -8.38304,-0.88758 -9.75332,-5.12855c-1.37029,-4.24096 0.77476,-8.82079 4.79108,-10.22934c4.01633,-1.40855 8.38303,0.88759 9.75331,5.12856c1.37029,4.24096 -0.77476,8.82079 -4.79107,10.22933z" stroke-width="2.5"/><path d="M279.65757,279.24204c-2.92096,1.0244 -6.09676,-0.64551 -7.09333,-3.72985c-0.99657,-3.08434 0.56346,-6.41512 3.48443,-7.43952c2.92096,-1.0244 6.09676,0.64551 7.09333,3.72985c0.99657,3.08434 -0.56346,6.41512 -3.48443,7.43952z" stroke-width="2"/><path d="M279.10392,277.52856c-2.02476,0.71009 -4.22616,-0.44745 -4.91696,-2.58547c-0.69081,-2.138 0.39058,-4.44684 2.41534,-5.15694c2.02476,-0.71009 4.22616,0.44745 4.91696,2.58547c0.69081,2.138 -0.39058,4.44684 -2.41534,5.15694z" stroke-width="1.5"/><path d="M278.47236,275.5739c-1.00242,0.35156 -2.0923,-0.22153 -2.4343,-1.28002c-0.34201,-1.0585 0.19338,-2.20156 1.19579,-2.55311c1.00242,-0.35156 2.09229,0.22153 2.4343,1.28002c0.34201,1.0585 -0.19337,2.20155 -1.19578,2.55311z" stroke-width="1"/></g><path d="M248.3539,311.22543c2.68997,-0.63943 3.98576,1.93537 4.50159,6.31531c0.09427,0.80048 -1.81738,2.13186 -1.60962,3.00584c0.36242,1.52466 2.50136,2.87429 3.03727,4.2067c1.45221,3.61057 1.26366,6.40253 -1.06031,6.95497c-3.1816,0.75629 -11.77627,-2.31552 -13.12078,-7.97169c-1.34452,-5.65617 5.07026,-11.75484 8.25186,-12.51113z" fill="#ffffff" stroke-width="2.5" stroke-linecap="butt"/><path d="M235.34757,325.13722c0.89576,3.76831 -1.59852,7.96032 -4.30418,10.5625c-0.54379,-0.75738 -1.19082,-1.43564 -1.92048,-2.01419c-0.14029,-2.38033 -0.41395,-4.7041 -0.42555,-5.14548c-0.08475,-3.22279 -0.24743,-6.65038 -0.50655,-10.09378c3.16779,1.1494 6.37312,3.39421 7.15677,6.69093z" data-paper-data="{&quot;index&quot;:null}" fill="#ffffff" stroke-width="2.5" stroke-linecap="butt"/><path d="M231.06735,326.69568c-0.90755,-3.81791 1.45177,-7.64867 5.26969,-8.55621c3.81791,-0.90755 7.64867,1.45177 8.55621,5.26969c0.90755,3.81791 -1.45177,7.64867 -5.26969,8.55621c-3.81791,0.90755 -7.64867,-1.45177 -8.55621,-5.26969z" fill="#ffffff" stroke-width="2.5" stroke-linecap="butt"/></g><g><path d="M284.52863,326.99538c1.08894,-3.03167 3.28731,-4.35461 3.28764,-4.35457c0.16592,0.01613 -0.14134,3.25415 -0.62949,7.62178c-1.26852,0.03726 -2.56201,0.09523 -3.85277,0.19564c0.41702,-1.24864 0.81943,-2.41828 1.19462,-3.46284z" data-paper-data="{&quot;index&quot;:null}" fill="#54002b" stroke="none" stroke-width="0" stroke-linecap="butt"/><path d="" fill="#54002b" stroke="none" stroke-width="0" stroke-linecap="butt"/><path d="" data-paper-data="{&quot;index&quot;:null}" fill="#54002b" stroke="none" stroke-width="0" stroke-linecap="butt"/><path d="M285.2417,329.66262c2.28316,-4.57285 3.50716,-10.92636 3.74666,-10.90307c0.24516,0.02384 0.97054,6.0861 2.48306,11.42272c-2.07466,0.03282 -4.32818,0.05118 -6.60743,0.17544c0.1317,-0.22393 0.25814,-0.45562 0.3777,-0.69509z" fill="#ff5971" stroke="#54002b" stroke-width="2.5" stroke-linecap="butt"/><path d="M286.316,309.2622c-0.84797,8.72046 -8.18158,15.03465 -12.35969,14.62838c-4.1781,-0.40627 -6.87772,-7.80495 -6.02975,-16.5254c0.84797,-8.72046 5.77464,-15.05097 9.95274,-14.6447c4.1781,0.40627 9.28466,7.82127 8.4367,16.54173z" fill="#ff8dae" stroke="#54002b" stroke-width="2.5" stroke-linecap="butt"/><path d="M306.16178,296.92972c3.99824,0.58171 7.10928,7.88331 5.84783,16.55361c-1.26146,8.6703 -5.52528,15.2274 -9.52352,14.64569c-3.99824,-0.58171 -9.36134,-8.42995 -8.09988,-17.10025c1.26146,-8.6703 7.77734,-14.68076 11.77557,-14.09905z" data-paper-data="{&quot;index&quot;:null}" fill="#ff8dae" stroke="#54002b" stroke-width="2.5" stroke-linecap="butt"/><path d="M277.58189,308.71884c0.66664,-6.85567 6.76467,-11.87287 13.62034,-11.20624c6.85567,0.66664 11.87287,6.76467 11.20623,13.62034c-0.66664,6.85567 -6.76467,11.87287 -13.62034,11.20623c-6.85567,-0.66664 -11.87287,-6.76467 -11.20623,-13.62034z" fill="#ff8dae" stroke="#54002b" stroke-width="2.5" stroke-linecap="butt"/><g data-paper-data="{&quot;index&quot;:null}" fill="#54002b" stroke="none" stroke-width="0" stroke-linecap="butt"><path d="M296.65549,305.87207c1.68332,0.03327 2.98544,3.06767 2.90836,6.77749c-0.07707,3.70983 -1.50415,6.69027 -3.18746,6.657c-1.68332,-0.03327 -2.98544,-3.06767 -2.90837,-6.77749c0.07707,-3.70983 1.50416,-6.69027 3.18747,-6.657z"/><path d="M298.81408,309.96992c0.37126,0.00734 2.14295,2.08173 2.11673,3.34391c-0.01544,0.74296 -1.53886,3.27165 -2.25387,3.25752c-1.20691,-0.02385 -2.1546,-1.52098 -2.11673,-3.34391c0.03787,-1.82294 1.04697,-3.28138 2.25387,-3.25752z"/></g><g data-paper-data="{&quot;index&quot;:null}" fill="#54002b" stroke="none" stroke-width="0" stroke-linecap="butt"><path d="M292.02633,314.38071c-0.02334,3.71057 -1.49252,6.70685 -3.28151,6.69237c-1.78897,-0.01447 -3.2203,-3.03423 -3.19696,-6.7448c0.02334,-3.71057 1.49252,-6.70685 3.2815,-6.69237c1.78897,0.01447 3.22031,3.03423 3.19696,6.7448z"/><path d="M288.72196,314.99111c-0.01147,1.8233 -1.06057,3.29296 -2.34324,3.28258c-0.75989,-0.00615 -2.30638,-2.57706 -2.3017,-3.32017c0.00794,-1.26244 1.94868,-3.28577 2.34324,-3.28258c1.28266,0.01038 2.31317,1.49687 2.3017,3.32017z"/></g><path d="M290.29301,323.46917c0.00032,0.00003 1.90264,1.72172 2.38711,4.90638c0.08543,0.56154 0.17153,1.15659 0.25786,1.77878c-1.08491,0.02564 -2.23463,0.03823 -3.42395,0.05757c0.3329,-3.93817 0.62409,-6.75779 0.77898,-6.74272z" fill="#54002b" stroke="none" stroke-width="0" stroke-linecap="butt"/><path d="M282.73224,309.05746l9.04973,-3.1506" fill="none" stroke="#54002b" stroke-width="2.5" stroke-linecap="round"/></g><path d="M230.96485,333.79116c-1.97197,-14.5735 -9.61964,-71.09251 -10.69819,-79.06339c-0.24792,-1.83221 1.04005,-3.49896 2.89348,-3.74975c8.00527,-1.08321 64.39492,-8.71338 78.99695,-10.6892c2.19517,-0.29703 3.65323,1.06571 3.91035,2.96591c1.10116,8.13796 8.79483,64.16355 10.71134,78.32729c0.27549,2.03602 -1.18496,4.24187 -3.1708,4.51058c-8.25103,1.11646 -64.33697,8.70554 -78.78899,10.66106c-2.16108,0.29242 -3.55917,-0.78254 -3.85415,-2.96249z" fill="none" stroke="#6b0f47" stroke-width="6.5" stroke-linecap="butt"/><path d="M229.85027,325.55403c-2.85133,-21.07232 -8.65456,-63.96027 -9.58361,-70.82627c-0.24792,-1.83221 1.04005,-3.49896 2.89348,-3.74975c8.00527,-1.08321 64.39492,-8.71338 78.99695,-10.6892c2.19517,-0.29703 3.65323,1.06571 3.91035,2.96591c0.19043,1.40732 0.57801,4.24674 1.09877,8.05411" fill="none" stroke="#683371" stroke-width="6.5" stroke-linecap="butt"/><path d="M230.96485,333.79116c-1.97197,-14.5735 -9.61964,-71.09251 -10.69819,-79.06339c-0.24792,-1.83221 1.04005,-3.49896 2.89348,-3.74975c8.00527,-1.08321 64.39492,-8.71338 78.99695,-10.6892c2.19517,-0.29703 3.65323,1.06571 3.91035,2.96591c1.10116,8.13796 8.79483,64.16355 10.71134,78.32729c0.27549,2.03602 -1.18496,4.24187 -3.1708,4.51058c-8.25103,1.11646 -64.33697,8.70554 -78.78899,10.66106c-2.16108,0.29242 -3.55917,-0.78254 -3.85415,-2.96249z" fill="none" stroke="none" stroke-width="0" stroke-linecap="butt"/><path d="M225.13723,343.53396l-11.54081,-97.36525l95.7547,-11.92306l13.38061,96.79916z" fill="none" stroke="none" stroke-width="0" stroke-linecap="butt"/></g><path d="M225.13724,343.53396l-11.54082,-97.36525l95.7547,-11.92306l13.38061,96.79916z" fill="none" stroke="none" stroke-width="0" stroke-linecap="butt"/><text transform="translate(329.8984,278.37322) scale(0.49479,0.49479)" font-size="40" xml:space="preserve" fill="#2a0745" fill-rule="nonzero" stroke="none" stroke-width="1" stroke-linecap="butt" stroke-linejoin="miter" stroke-miterlimit="10" stroke-dasharray="" stroke-dashoffset="0" font-family="&quot;Neon&quot;, Sans Serif" font-weight="normal" text-anchor="start" style="mix-blend-mode: normal"><tspan x="0" dy="0">Died to: </tspan></text><text transform="translate(328.61149,307.05292) scale(0.84716,0.84716)" font-size="40" xml:space="preserve" fill="#2a0745" fill-rule="nonzero" stroke="none" stroke-width="1" stroke-linecap="butt" stroke-linejoin="miter" stroke-miterlimit="10" stroke-dasharray="" stroke-dashoffset="0" font-family="&quot;Neon&quot;, Sans Serif" font-weight="normal" text-anchor="start" style="mix-blend-mode: normal"><tspan x="0" dy="0">Turtlebot</tspan></text></g></g></svg>