<svg version="1.1" xmlns="http://www.w3.org/2000/svg" xmlns:xlink="http://www.w3.org/1999/xlink" width="214.71471" height="247.74775" viewBox="0,0,214.71471,247.74775"><defs><linearGradient x1="320.00001" y1="180.00005" x2="320.00001" y2="180.00005" gradientUnits="userSpaceOnUse" id="color-1"><stop offset="0" stop-color="#67497d"/><stop offset="1" stop-color="#553783"/></linearGradient><linearGradient x1="370.90206" y1="134.90732" x2="370.47939" y2="174.22118" gradientUnits="userSpaceOnUse" id="color-2"><stop offset="0" stop-color="#67497d"/><stop offset="1" stop-color="#553783"/></linearGradient></defs><g transform="translate(-253.18319,-73.39339)"><g data-paper-data="{&quot;isPaintingLayer&quot;:true}" fill-rule="nonzero" stroke-linecap="butt" stroke-linejoin="miter" stroke-miterlimit="10" stroke-dasharray="" stroke-dashoffset="0" style="mix-blend-mode: normal"><g data-paper-data="{&quot;index&quot;:null}" stroke="#541287" stroke-width="2.5"><path d="" fill="#e5c2ff"/><path d="" fill="#9951b7"/></g><path d="" fill="#725580" stroke="#541287" stroke-width="2.5"/><path d="" fill="#6d3e90" stroke="none" stroke-width="0"/><path d="" fill="#725580" stroke="none" stroke-width="0"/><path d="" fill="#9857ca" stroke="none" stroke-width="0"/><path d="" fill="none" stroke="#541287" stroke-width="2.5"/><path d="" fill="#9468de" stroke="#541287" stroke-width="2.5"/><path d="" fill="#e5c2ff" stroke="#541287" stroke-width="2.5"/><g><g stroke="#541287" stroke-width="2.5"><path d="" fill="#9d7bb5"/><path d="" fill="#9d7bb5"/><path d="" fill="url(#color-1)"/></g><path d="" fill="#541287" stroke="none" stroke-width="0"/><path d="" fill="#ca80ff" stroke="#541287" stroke-width="2.5"/></g><g stroke="#541287" stroke-width="2.5"><path d="" fill="#e5c2ff"/><path d="" fill="#9951b7"/></g><path d="M374.29345,234.47994c0.09155,-3.98234 3.49845,-7.13404 7.60953,-7.03952c4.11108,0.09452 7.36955,3.39944 7.27801,7.38178c-0.09155,3.98234 -3.49847,7.13404 -7.60955,7.03952c-4.11108,-0.09452 -7.36954,-3.39944 -7.27799,-7.38178z" fill="#e5c2ff" stroke="#541287" stroke-width="2.5"/><path d="M353.93511,236.3453c0.03735,-3.47474 2.97554,-6.26032 6.56262,-6.22175c3.58708,0.03857 6.46469,2.88667 6.42733,6.36141c-0.03735,3.47474 -2.97554,6.26031 -6.56261,6.22174c-3.58708,-0.03857 -6.46469,-2.88666 -6.42734,-6.3614z" fill-opacity="0.41569" fill="#601d73" stroke="#ff6aff" stroke-width="2.5"/><path d="M374.75625,180.47235c0.33749,0.00776 3.61839,1.71846 4.67695,4.02794c0.62163,1.3562 11.40513,45.89503 11.35366,48.13383c-0.0149,0.64804 -7.36139,2.64882 -9.60404,2.6601c-2.19252,0.01102 -0.55285,-1.70061 -3.19589,-2.57979c-2.54364,-0.84612 -3.23067,-52.24206 -3.23067,-52.24206z" fill="#9951b7" stroke="#541287" stroke-width="2.5"/><path d="M351.82128,232.526c0.02407,-2.23925 9.11062,-46.55721 9.77765,-47.89168c1.13587,-2.27246 4.4726,-3.87153 4.81016,-3.8679c0,0 -0.22152,53.00078 -0.8196,52.99435c0,0 -7.43071,1.32222 -7.80609,1.26967c-3.01453,-0.42199 -5.97201,-1.58314 -5.96211,-2.50444z" data-paper-data="{&quot;index&quot;:null}" fill="#9951b7" stroke="#541287" stroke-width="2.5"/><path d="M370.64157,209.06053c0.66527,-1.12982 4.60859,-1.28473 5.37968,-1.27644c0.94936,0.01021 1.6837,0.72188 2.6912,2.41525c1.42511,2.39529 4.25473,53.96173 4.22698,56.54277c-0.02967,2.75991 -13.75628,3.78322 -13.71751,0.17635c0.00097,-0.09008 1.27209,-57.60728 1.41965,-57.85791z" fill="#725580" stroke="none" stroke-width="0"/><path d="M374.89979,240.63482c0.61633,1.03591 0.13074,3.08238 2.1764,8.56423c0.20499,0.54933 1.9841,0.89735 2.21567,1.48534c0.23152,0.58785 1.68976,6.74394 1.83571,7.1671c0.21694,0.62897 1.82149,7.99391 1.81185,8.89061c-0.02967,2.75991 -13.75628,3.78322 -13.71751,0.17635c0.00029,-0.02677 -0.51508,-3.70574 -0.26765,-11.06303c0.03057,-0.90891 3.71243,-2.43606 3.74507,-3.40378c0.59195,-17.54971 1.19295,-13.51019 2.20045,-11.81682z" fill="#9857ca" stroke="none" stroke-width="0"/><path d="M370.64157,209.06053c0.66527,-1.12982 4.60859,-1.28473 5.37968,-1.27644c0.94936,0.01021 1.6837,0.72188 2.6912,2.41525c1.42511,2.39529 4.25473,53.96173 4.22698,56.54277c-0.02967,2.75991 -13.75628,3.78322 -13.71751,0.17635c0.00097,-0.09008 1.27209,-57.60728 1.41965,-57.85791z" fill="none" stroke="#541287" stroke-width="2.5"/><path d="M367.94254,267.93548c-0.17902,3.60263 -13.80938,4.34647 -13.67239,1.5898c0.03939,-0.79266 7.26583,-57.3738 8.20128,-58.74965c1.10788,-1.62947 3.55202,-2.21261 4.50027,-2.16549c0.77019,0.03827 3.57575,0.55854 4.1716,1.72645c0.13217,0.25908 -3.19628,57.50892 -3.20076,57.59889z" data-paper-data="{&quot;index&quot;:null}" fill="#725580" stroke="#541287" stroke-width="2.5"/><path d="M365.73597,178.38294c1.33161,-0.41553 2.86675,-0.1915 4.36665,-0.17538c1.3431,0.01444 2.6806,-0.166 3.83137,0.25281c0.81549,0.29678 1.52045,0.31195 2.06486,0.73396c0.18751,0.14536 0.78445,1.28318 0.95168,3.14309c0.53715,5.97412 0.7942,13.22716 0.78931,15.98064c0.05845,0.78408 0.75331,5.97305 1.18259,8.24382c0.42185,2.23149 1.0509,6.51923 1.04771,6.56734c-0.02526,0.38136 -2.24103,1.56959 -5.14148,1.27704c-2.0026,-0.20199 -4.07122,-1.41569 -4.91859,-1.54096c-0.0809,-0.01196 -8.15359,-1.29971 -8.47841,-1.67281c-0.16287,-0.18707 1.3166,-11.82519 1.30133,-12.57894c-0.15533,-7.66369 -0.25653,-17.95657 0.41256,-18.59253c0.66552,-0.63258 1.5679,-1.31902 2.59042,-1.6381z" fill="#9468de" stroke="#541287" stroke-width="2.5"/><path d="M369.93106,170.89851c3.46503,0.03725 3.39641,3.54813 3.34984,7.87942c-0.02114,1.96645 -7.01484,2.28971 -6.98942,-0.07514c0,0 0.04426,-2.61469 0.34279,-4.23157c0.40702,-2.20451 1.29786,-3.59419 3.29679,-3.5727z" fill="#e5c2ff" stroke="#541287" stroke-width="2.5"/><path d="M359.98144,266.01469c0.14256,0.13084 1.24286,0.57791 1.47753,1.09797c0.4721,1.04621 0.1576,2.49356 0.51216,2.99631c0.26878,0.38112 6.59123,-0.95895 6.57795,-0.76506c-0.03632,0.53028 1.49293,4.85282 -0.85951,6.1248c-0.14309,0.11815 -4.57667,1.63937 -7.89959,1.917c-0.11446,0.00957 -7.93134,0.00494 -12.11286,-0.74931c-1.0562,-0.19052 -2.9481,-8.37549 1.07089,-10.74415c3.41422,-2.01223 10.63503,-0.42679 11.23342,0.12244z" data-paper-data="{&quot;index&quot;:null}" fill="#683980" stroke="#541287" stroke-width="2.5"/><g data-paper-data="{&quot;index&quot;:null}" fill="#683980" stroke="#541287" stroke-width="2.5"><path d="M369.51311,268.6516c3.25579,-0.29559 9.22458,-0.20695 11.95452,-0.04521c0.74116,0.04392 0.71595,0.54536 0.71595,0.54536c0,0.90475 -5.12277,6.57894 -9.34494,6.57894c-2.45072,0 -4.35542,-6.98558 -3.32553,-7.07908z"/><path d="M386.40143,268.57472c3.92383,2.52317 1.71504,10.62837 0.65222,10.77767c-4.20769,0.59106 -12.01884,0.29167 -12.13284,0.27766c-3.30961,-0.40666 -3.38092,-2.36077 -3.51931,-2.48439c-1.23876,-1.10667 -1.4866,-5.01317 -1.50227,-5.54447c-0.00573,-0.19425 1.00375,-0.23011 2.04051,-0.3407c0.91055,-0.09713 0.80118,1.38387 1.08458,1.0135c0.37385,-0.48858 0.11588,-1.94706 0.62831,-2.97412c0.25473,-0.51054 1.37158,-0.91449 1.51911,-1.03968c0.6193,-0.52555 7.89631,-1.82895 11.22968,0.31454z" data-paper-data="{&quot;index&quot;:null}"/></g><path d="M253.18319,321.14114v-247.74775h214.71471v247.74775z" fill="none" stroke="none" stroke-width="0"/><g stroke="#541287" stroke-width="2.5"><path d="M392.08738,145.9345c0.32657,-1.42772 -0.02269,-10.17343 0.11809,-10.4927c3.28756,-7.4557 8.79165,-17.36145 8.79537,-17.35834c0.6861,0.5755 1.49703,12.05265 0.418,17.49537c-0.30804,1.55382 3.24727,-2.68125 2.82409,-1.31149c-0.56207,1.81933 -1.62478,6.83522 -3.50508,10.64306c-2.10907,4.27112 -4.47459,8.59901 -5.72974,10.30576c-2.18732,2.97429 -3.6587,-6.05523 -2.92073,-9.28166z" fill="#ca80ff"/><path d="M346.51642,172.59541c0.00694,-0.64592 -0.28632,-38.75714 1.5245,-40.29861c0.66127,-0.56291 46.35699,-0.36529 46.37752,-0.28807c1.5656,5.88698 -0.57396,41.71813 -1.16178,42.33886c-1.81258,1.91406 -46.79851,3.66797 -46.74024,-1.75218z" fill="#9d7bb5"/><path d="M348.0409,132.29679c-1.13671,0.96762 1.90426,-2.68834 6.45901,-5.11947c0.36424,-0.19442 32.70063,-0.4561 35.32731,0.4242c1.18412,0.39684 4.77544,5.09993 4.59121,4.4072c-0.02053,-0.07721 -45.71625,-0.27483 -46.37752,0.28807z" fill="#9d7bb5"/><path d="M349.31031,170.99462c0.00613,-0.57059 -0.25293,-34.23761 1.34672,-35.59932c0.58416,-0.49727 40.95121,-0.32269 40.96936,-0.25448c1.38304,5.20049 -0.50703,36.8533 -1.0263,37.40166c-1.60121,1.69088 -41.34126,3.24023 -41.28978,-1.54785z" fill="url(#color-2)"/></g><text transform="translate(362.70399,170.8117) scale(1.09371,1.09371)" font-size="40" xml:space="preserve" fill="#d693ff" fill-rule="nonzero" stroke="none" stroke-width="1" stroke-linecap="butt" stroke-linejoin="miter" stroke-miterlimit="10" stroke-dasharray="" stroke-dashoffset="0" font-family="&quot;Neon&quot;, Sans Serif" font-weight="normal" text-anchor="start" style="mix-blend-mode: normal"><tspan x="0" dy="0">1</tspan></text></g></g></svg>