<svg version="1.1" xmlns="http://www.w3.org/2000/svg" xmlns:xlink="http://www.w3.org/1999/xlink" width="262.74665" height="274.79097" viewBox="0,0,262.74665,274.79097"><g transform="translate(-285.20704,-50.43038)"><g data-paper-data="{&quot;isPaintingLayer&quot;:true}" fill-rule="nonzero" stroke-linejoin="miter" stroke-miterlimit="10" stroke-dasharray="" stroke-dashoffset="0" style="mix-blend-mode: normal"><g stroke-linecap="butt"><path d="M414.50833,178.80558c-0.52601,-8.79068 42.62333,-5.43952 64.81289,6.9188c7.48808,4.17044 18.06797,18.81847 19.26103,31.36906c1.11454,11.72466 -22.27925,26.15683 -34.19761,26.9075c-11.91836,0.75067 -49.17282,-53.43821 -49.87632,-65.19538z" fill="#094d3e" stroke="#00866e" stroke-width="2.5"/><path d="M477.3595,51.68038c39.42481,0.86383 70.45753,36.46298 69.31355,79.51294c-0.01273,0.47896 -3.35084,10.20279 -5.00403,19.14175c-1.06066,5.73506 0.39036,11.48878 -2.13603,13.14398c-4.6985,3.07829 -4.3777,-1.19513 -5.87096,-4.04901c-1.15139,-2.20052 -4.44106,-3.16419 -5.37789,-1.69639c-4.85345,7.60421 -0.99226,5.21106 -2.58447,15.04947c-3.59415,22.20856 3.46675,44.9807 -0.98146,46.306c-12.53444,3.73453 -7.14698,-8.6794 -8.67758,-22.17393c-1.67531,-14.77026 -6.27631,-30.71761 -12.96718,-27.35207c-15.71334,7.90385 -28.92641,22.02204 -46.43414,26.72867c-8.20217,2.20501 -17.64449,-11.30393 -25.58614,-10.67327c-28.67297,2.27697 -51.70469,9.47157 -51.28673,-6.25711c0.03741,-1.40787 59.45757,-128.5166 97.59307,-127.68103z" fill="#094d3e" stroke="#00866e" stroke-width="2.5"/><path d="M439.3986,137.10114c-0.10529,-1.75957 25.12843,-34.07284 40.39815,-35.03459c20.25348,-1.27566 39.89384,34.48338 40.00963,36.41858c0.34451,5.75749 -25.15525,22.16974 -36.4613,22.88185c-14.62873,0.92138 -43.80448,-21.89273 -43.94648,-24.26583z" fill="#1be0b5" stroke="none" stroke-width="0"/><path d="M505.54097,129.58697c0.87905,14.69092 -10.65909,27.37187 -25.77117,28.32369c-15.11208,0.95183 -28.07545,-10.1859 -28.9545,-24.87682c-0.87905,-14.69092 10.65909,-27.37187 25.77117,-28.32369c15.11208,-0.95183 28.07545,10.1859 28.9545,24.87682z" fill="#094d3e" stroke="none" stroke-width="0"/></g><g stroke-linecap="butt"><path d="M401.10425,180.12386c-1.08128,10.0141 -34.76341,56.52398 -44.78871,56.00942c-10.0253,-0.51456 -29.16584,-12.55399 -27.7391,-22.5447c1.52725,-10.6945 11.0619,-23.2721 17.55316,-26.89977c19.23566,-10.74992 55.7831,-14.05235 54.97465,-6.56495z" data-paper-data="{&quot;index&quot;:null}" fill="#094d3e" stroke="#00866e" stroke-width="2.5"/><path d="M393.4282,173.18007c1.55379,11.6131 -13.15846,8.23407 -30.92317,8.97441c-4.92035,0.20505 -9.59416,11.00872 -14.80409,10.06989c-6.92769,-1.24837 -1.57054,31.75665 -8.65585,27.44842c-3.83132,-2.32963 -18.13612,-41.60792 -22.01387,-43.31356c-4.37923,-1.92622 -29.84516,-24.37267 -29.89247,-24.72631c-4.25278,-31.78547 11.83383,-60.77612 35.93042,-64.75244c23.30858,-3.84628 70.21993,85.26011 70.35902,86.29959z" data-paper-data="{&quot;index&quot;:null}" fill="#094d3e" stroke="#00866e" stroke-width="2.5"/><g stroke="none" stroke-width="0"><path d="M338.50903,164.36623c-8.75438,0.53791 -29.81398,-8.48429 -30.06047,-12.49581c-0.08285,-1.34833 11.83927,-27.85797 27.52172,-28.82157c11.82347,-0.72649 34.09073,19.31224 34.16606,20.53821c0.1016,1.65345 -20.30015,20.08317 -31.62731,20.77917z" data-paper-data="{&quot;index&quot;:null}" fill="#1be0b5"/><path d="M338.67284,124.58383c11.70141,-0.71899 21.69714,6.99595 22.32608,17.23179c0.62894,10.23584 -8.34707,19.1165 -20.04848,19.8355c-11.70141,0.71899 -21.69714,-6.99595 -22.32608,-17.23179c-0.62894,-10.23584 8.34707,-19.1165 20.04848,-19.8355z" data-paper-data="{&quot;index&quot;:null}" fill="#094d3e"/></g></g><path d="M392.49048,165.42577c2.73358,0.36397 4.17364,20.49248 3.21649,44.95828c-0.95717,24.46581 -3.94909,44.00422 -6.68267,43.64025c-2.4616,-0.32776 -10.88313,-46.75114 -10.78789,-49.18544c0.95717,-24.46581 11.5205,-39.77707 14.25408,-39.4131z" data-paper-data="{&quot;index&quot;:null}" fill="#46486e" stroke="#00866e" stroke-width="2.5" stroke-linecap="butt"/><path d="M437.80462,203.75926c0.23664,2.43275 -10.91009,48.98198 -14.66308,49.34705c-4.16767,0.4054 -9.47427,-19.08686 -11.85262,-43.53717c-2.37835,-24.45032 -0.92782,-44.59986 3.23985,-45.00526c4.16767,-0.4054 20.89751,14.74508 23.27586,39.19539z" fill="#094d3e" stroke="#00866e" stroke-width="2.5" stroke-linecap="butt"/><path d="M421.41163,161.98183c0.48382,4.97383 -7.57677,9.82814 -18.00383,10.84241c-10.42706,1.01427 -19.27208,-2.19558 -19.7559,-7.16941c-0.10343,-1.06331 -1.72723,-1.49716 -1.11002,-2.5132c2.26991,-3.73666 10.91591,-7.53178 19.11386,-8.32921c9.09145,-0.88435 18.71626,1.27371 20.90875,5.18122c0.3221,0.57405 -1.21482,1.35108 -1.15285,1.98819z" fill="#00866e" stroke="none" stroke-width="0" stroke-linecap="butt"/><path d="M369.90029,312.82142c-1.20984,-2.52417 -4.72821,-7.99055 -0.41548,-12.81563c4.61377,-5.16188 13.88176,-5.16776 13.90882,-5.43092c3.02561,-29.42055 5.85565,-86.3937 7.65683,-91.91991c1.45848,-4.47478 13.97719,1.56196 15.08513,4.73846c0.34127,0.97844 2.512,96.0544 2.48946,99.15935c-0.05646,7.77603 -36.73839,10.41293 -38.72476,6.26865z" data-paper-data="{&quot;index&quot;:null}" fill="#094d3e" stroke="#00866e" stroke-width="2.5" stroke-linecap="butt"/><path d="M426.62683,323.97135c-7.43725,-1.48853 -18.24031,-6.60456 -18.86386,-14.35576c-0.24899,-3.09503 -8.19386,-97.56578 -7.92487,-98.5665c0.87326,-3.24886 16.09247,-10.69298 17.8735,-6.33652c2.19951,5.3801 9.1781,61.99501 14.34181,91.11646c0.08936,0.50397 9.90298,1.99775 11.53762,7.13909c1.49551,4.70381 1.98032,12.37754 -0.13605,17.77082c-1.67876,4.27814 -13.82874,3.83272 -16.82814,3.23241z" fill="#094d3e" stroke="#00866e" stroke-width="2.5" stroke-linecap="butt"/><path d="M411.34274,173.77489c0.57734,1.82925 8.16131,32.70826 6.87697,33.43163c-3.61351,2.0352 -17.68151,7.08105 -18.24025,7.09021c-0.49232,0.00807 -9.27541,-4.81824 -9.30844,-4.9601c-0.58995,-2.53389 1.32479,-35.32417 1.43741,-35.84235c2.7678,-12.73445 6.1497,-21.95837 7.61247,-22.10066c1.78117,-0.17326 6.82632,7.18697 11.62186,22.38127z" fill="#094d3e" stroke="#00866e" stroke-width="2.5" stroke-linecap="butt"/><g fill="#094d3e" stroke="#00866e" stroke-width="2.5" stroke-linecap="butt"><path d="M399.02491,168.01366c0.16623,5.03784 -7.01772,13.4798 -8.98589,13.54475c-1.96817,0.06495 -2.57017,-18.17867 -0.602,-18.24361c1.96817,-0.06495 9.42165,-0.33898 9.5879,4.69886z" data-paper-data="{&quot;index&quot;:null}"/><path d="M413.27799,162.40701c2.25209,-0.07432 2.8541,18.16929 0.60201,18.24361c-2.25209,0.07432 -11.05234,-7.8402 -11.21857,-12.87803c-0.16623,-5.03783 8.36447,-5.29126 10.61656,-5.36558z"/><path d="M403.23637,167.36478c0.07863,2.38276 -1.5006,3.39999 -3.33873,3.46065c-1.83813,0.06066 -3.2391,-0.85824 -3.31773,-3.241c-0.07863,-2.38276 1.39563,-2.91224 3.23375,-2.97289c1.83813,-0.06066 3.34407,0.37048 3.4227,2.75324z"/></g><path d="M443.34516,70.23835c9.87855,-8.82426 26.84371,-16.56805 37.24213,-8.07463c1.78214,1.45565 6.27901,43.20341 4.60333,50.80431c-2.09413,9.49893 -8.87374,-13.98498 -9.92228,-1.51756c-1.79265,21.31536 2.12468,41.80637 -1.5595,46.50515c-6.94349,8.8557 -0.66836,-40.18666 -9.32968,-50.85389c-8.56648,-10.55043 -32.09246,17.31638 -34.88103,18.12646c-8.78665,2.55253 -17.68239,3.0834 -20.30936,0.14257c-8.94445,-10.01309 24.27784,-46.30813 34.15639,-55.1324z" data-paper-data="{&quot;index&quot;:null}" fill="#094d3e" stroke="#00866e" stroke-width="2.5" stroke-linecap="butt"/><path d="M388.91651,131.04862c-3.12798,2.40108 -11.76987,0.22537 -19.92866,-3.91647c-8.06933,-4.09641 -63.17316,-58.03815 -38.47181,-71.46431c11.79636,-6.41179 27.02576,4.35149 35.09123,14.85871c8.06547,10.50722 33.95958,52.34675 23.30925,60.52206z" data-paper-data="{&quot;index&quot;:null}" fill="#46486e" stroke="#00866e" stroke-width="2.5" stroke-linecap="butt"/><path d="M362.67745,131.77394c-1.96649,-20.21626 12.82787,-38.19894 33.04412,-40.16543c20.21625,-1.96649 38.19894,12.82787 40.16543,33.04413c1.96649,20.21626 -12.82787,38.19894 -33.04413,40.16543c-20.21625,1.96649 -38.19893,-12.82787 -40.16542,-33.04413z" fill="#094d3e" stroke="#00866e" stroke-width="2.5" stroke-linecap="butt"/><path d="M394.99924,156.81423c-20.21626,1.96649 -29.96298,-4.8622 -31.92948,-25.07846c-1.96649,-20.21626 12.82788,-38.19894 33.04413,-40.16543c5.59344,-0.54409 22.51428,1.59625 24.88908,8.57855c6.20842,18.25369 -11.38092,55.24294 -26.00373,56.66534z" data-paper-data="{&quot;index&quot;:null}" fill="#46486e" stroke="none" stroke-width="0" stroke-linecap="butt"/><path d="M362.67745,131.77394c-1.96649,-20.21626 12.82787,-38.19894 33.04412,-40.16543c20.21625,-1.96649 38.19894,12.82787 40.16543,33.04413c1.96649,20.21626 -12.82787,38.19894 -33.04413,40.16543c-20.21625,1.96649 -38.19893,-12.82787 -40.16542,-33.04413z" fill="none" stroke="#00866e" stroke-width="2.5" stroke-linecap="butt"/><path d="M434.48361,128.18532c1.07053,11.00548 -6.3319,20.73165 -16.5338,21.72402c-10.2019,0.99237 -19.34001,-7.12486 -20.41055,-18.13034c-1.07053,-11.00548 6.3319,-20.73165 16.5338,-21.72402c10.2019,-0.99237 19.34001,7.12486 20.41055,18.13034z" fill="#094d3e" stroke="#00866e" stroke-width="2.5" stroke-linecap="butt"/><path d="M396.17582,131.59096c1.07053,11.00548 -5.12306,20.61406 -13.83377,21.46138c-8.71071,0.84732 -16.63999,-7.3875 -17.71052,-18.39297c-1.07053,-11.00548 5.12306,-20.61406 13.83377,-21.46138c8.71071,-0.84732 16.63999,7.3875 17.71052,18.39297z" fill="#094d3e" stroke="#00866e" stroke-width="2.5" stroke-linecap="butt"/><path d="M416.54549,151.67529c0,0 -1.14804,2.73153 -2.27247,3.75769c-1.23228,1.12459 -4.65421,-0.51136 -5.03121,-0.37192c-0.3627,0.13417 -4.2208,5.30679 -4.90195,5.97833c-0.70959,0.69959 -4.26329,-4.68525 -4.4942,-4.65811c-0.74429,0.08746 -2.54695,0.29607 -3.95219,0.46118c-1.15855,0.13614 -2.76451,4.06494 -3.28738,5.23423c-1.05964,2.36964 -4.60043,-4.26739 -5.22988,-4.52833c-0.45606,-0.18906 -2.52855,0.23736 -3.81687,-0.48711c-1.32403,-0.74455 -1.85838,-2.63784 -1.85838,-2.63784" fill="none" stroke="#00866e" stroke-width="2.5" stroke-linecap="round"/><g stroke="none" stroke-width="0" stroke-linecap="butt"><path d="M399.42298,132.22495c-0.52475,-5.39458 2.49862,-10.10323 6.75289,-10.51705c4.25426,-0.41382 8.12842,3.62387 8.65317,9.01846c0.52475,5.39458 -2.49863,10.10322 -6.7529,10.51704c-4.25426,0.41382 -8.12841,-3.62387 -8.65316,-9.01845z" fill="#1be0b5"/><path d="M401.92802,131.98128c-0.3541,-3.64025 1.68607,-6.81763 4.55684,-7.09687c2.87077,-0.27925 5.48502,2.44538 5.83912,6.08563c0.3541,3.64025 -1.68606,6.81761 -4.55682,7.09686c-2.87077,0.27925 -5.48504,-2.44537 -5.83913,-6.08562z" fill="#094d3e"/><path d="M404.05732,131.77416c-0.20904,-2.14906 0.99538,-4.02487 2.69018,-4.18972c1.69479,-0.16486 3.23815,1.44366 3.4472,3.59272c0.20904,2.14906 -0.99539,4.02486 -2.69018,4.18971c-1.69479,0.16486 -3.23815,-1.44366 -3.4472,-3.59271z" fill="#1be0b5"/></g><g stroke="none" stroke-width="0" stroke-linecap="butt"><path d="M366.54522,136.87218c-0.52475,-5.39458 2.49862,-10.10323 6.75289,-10.51705c4.25426,-0.41382 8.12842,3.62387 8.65317,9.01846c0.52475,5.39458 -2.49863,10.10322 -6.7529,10.51704c-4.25426,0.41382 -8.12841,-3.62387 -8.65316,-9.01845z" fill="#1be0b5"/><path d="M369.05027,136.62851c-0.3541,-3.64025 1.68607,-6.81763 4.55684,-7.09687c2.87077,-0.27925 5.48502,2.44538 5.83912,6.08563c0.3541,3.64025 -1.68606,6.81761 -4.55682,7.09686c-2.87077,0.27925 -5.48504,-2.44537 -5.83913,-6.08562z" fill="#094d3e"/><path d="M371.17956,136.42139c-0.20904,-2.14906 0.99538,-4.02487 2.69018,-4.18972c1.69479,-0.16486 3.23815,1.44366 3.4472,3.59272c0.20904,2.14906 -0.99539,4.02486 -2.69018,4.18971c-1.69479,0.16486 -3.23815,-1.44366 -3.4472,-3.59271z" fill="#1be0b5"/></g><path d="M428.7191,220.00616c1.03087,10.59767 -23.09613,9.85131 -25.10326,0.22329c-0.63381,-3.0403 -1.51349,-43.53926 -0.74329,-43.61418c0.29102,-0.02831 5.83998,-0.9171 12.07364,-8.5717c0.78549,-0.96454 5.8134,-6.90004 6.46449,-7.94412c0.66545,-1.06708 3.0703,-1.62409 2.31241,4.89687c-0.47772,4.11035 -4.67113,13.08829 -4.73161,13.36466c-0.15784,0.72123 -0.97106,11.92276 1.55971,22.14944c2.33229,9.42458 8.01188,17.8919 8.16789,19.49575z" fill="#46486e" stroke="#00866e" stroke-width="2.5" stroke-linecap="butt"/><path d="M386.81088,198.51882c0.97673,-9.42185 -0.09922,-19.73832 -0.23162,-20.40246c-0.05074,-0.25449 -3.03279,-8.51956 -3.53492,-12.30497c-0.79662,-6.00543 4.89247,1.91044 5.41334,2.79807c4.13355,7.04418 7.5014,7.85736 7.67707,7.88314c0.46491,0.06824 1.95138,40.66838 1.73198,43.4693c-0.01543,0.19701 -0.03757,0.38838 -0.0661,0.57415c-1.25617,8.17737 -14.91094,5.4928 -14.85274,-4.05246c0.00901,-1.47739 2.96289,-9.28188 3.86301,-17.96476z" data-paper-data="{&quot;index&quot;:null}" fill="#46486e" stroke="#00866e" stroke-width="2.5" stroke-linecap="butt"/></g></g></svg>