<svg version="1.1" xmlns="http://www.w3.org/2000/svg" xmlns:xlink="http://www.w3.org/1999/xlink" width="315" height="276" viewBox="0,0,315,276"><g transform="translate(-141.5,-21)"><g data-paper-data="{&quot;isPaintingLayer&quot;:true}" fill-rule="nonzero" stroke-linecap="butt" stroke-linejoin="miter" stroke-miterlimit="10" stroke-dasharray="" stroke-dashoffset="0" style="mix-blend-mode: normal"><g><path d="M330.45939,237.89625c9.45511,0 17.12,3.99747 17.12,8.92861c0,4.93113 -7.66489,8.92861 -17.12,8.92861c-9.45511,0 -17.12,-3.99747 -17.12,-8.92861c0,-4.93113 7.66489,-8.92861 17.12,-8.92861z" fill-opacity="0.27059" fill="#5f0d63" stroke="none" stroke-width="0"/><g><path d="M343.7519,230.4945c-0.21152,-0.01276 -1.99064,1.18743 -3.58852,1.39611c-1.7655,0.23057 -3.37661,-0.57741 -3.89698,-1.74012c-2.92169,-6.52821 -4.25391,-20.73164 -2.94178,-20.65248c1.18595,0.07155 4.81053,10.97565 7.37367,16.92673c0.27907,0.64795 3.08559,4.07169 3.05362,4.06976z" data-paper-data="{&quot;index&quot;:null}" fill="#803686" stroke="#5f0d63" stroke-width="2.5"/><path d="M323.02956,233.5149c0.07105,-0.36135 3.89619,-1.31494 5.24153,-1.07031c2.21517,0.40279 2.32571,2.47666 1.99863,4.14013c-0.71377,3.63009 -2.98293,6.24046 -5.0683,5.83043c-1.74075,-0.34228 -2.28982,-8.30035 -2.17186,-8.90026z" fill="#614b94" stroke="#5f0d63" stroke-width="2.5"/><path d="M315.91031,230.02847c3.99464,-7.26247 11.29064,-21.22534 12.45698,-20.95186c1.29042,0.30259 -3.61095,19.13064 -8.09945,27.06305c-0.72192,1.27581 -2.74604,2.47234 -4.51392,2.17889c-1.96169,-0.32563 -3.65368,-2.22459 -3.88398,-2.2786c-0.03621,-0.0085 3.70709,-5.40553 4.04037,-6.01147z" fill="#803686" stroke="#5f0d63" stroke-width="2.5"/><path d="M334.53277,237.63932c-2.22804,0.2585 -3.94428,-1.6751 -4.17476,-3.32553c-0.51332,-3.67577 -0.21634,-10.16741 -0.14228,-10.24981c1.19036,-1.32443 3.78283,-1.87443 4.32919,0.36385c0.10947,0.44849 4.03694,10.86278 3.03856,11.27103c-0.39583,0.16186 -2.40462,1.86551 -3.05072,1.94047z" fill="#5c3160" stroke="#5f0d63" stroke-width="2.5"/><path d="M334.37045,245.11407c0.57724,0.1135 5.76864,3.17727 6.09283,3.56402c1.32072,1.57561 1.47474,3.28422 1.18334,4.76621c-0.06689,0.34019 -4.4267,1.05638 -8.22602,0.25986c-2.12115,-0.44468 -7.63394,-3.94416 -7.51715,-4.53815c0.59769,-3.03977 4.38849,-4.85388 8.46699,-4.05195z" fill="#614b94" stroke="#5f0d63" stroke-width="2.5"/><path d="M325.81275,222.66403c1.25865,-1.33881 1.97217,0.41465 3.29861,0.67546c1.58122,0.3109 0.72441,-2.54938 1.33043,-0.26135c0.48426,1.82833 6.7339,22.57934 6.73007,22.59885c-0.22929,1.16611 -2.94845,0.52529 -5.52283,0.48289c-2.0444,-0.03367 -3.941,0.68856 -4.82946,0.29532c-0.7214,-0.31931 -1.13049,-23.65964 -1.00682,-23.79118z" fill="#5c3160" stroke="#5f0d63" stroke-width="2.5"/><path d="M325.82284,219.12787c0.06329,-0.55643 0.08149,-3.27895 0.13414,-5.76052c0.01314,-0.61957 0.9133,-4.57489 1.9273,-4.49099c1.50808,0.12477 3.72207,0.67875 5.28055,1.11278c1.12041,0.31203 1.01615,8.94251 1.04283,9.45075c0.0254,0.48407 0.9861,4.08982 0.97764,4.11357c-0.79138,2.2249 -8.0987,1.69708 -10.08161,-0.72267c0,0 0.68294,-3.38461 0.71914,-3.70293z" fill="#803686" stroke="none" stroke-width="0"/><path d="M330.91688,209.58965c0.78654,0.1842 1.55845,0.38809 2.21427,0.57074c1.12041,0.31203 1.50232,3.83812 1.4321,4.43744c-0.21372,1.82408 -0.33031,4.5219 -0.30363,5.03015c0.00772,0.1473 -1.49901,0.09097 -1.38277,0.62531c0.26577,1.22169 0.80249,1.47455 0.7966,1.49107c-0.09481,0.26654 -7.23445,2.1574 -7.71231,1.47178c-0.16343,-0.23449 3.53186,-3.98301 3.50984,-4.0409c-0.34218,-0.89952 -0.77921,-2.07923 -0.74782,-3.47367c0.0073,-0.32422 1.35116,-0.65456 1.36226,-0.97843c0.09202,-2.6891 0.3293,-5.25109 0.83146,-5.13348z" fill="#b058b5" stroke="none" stroke-width="0"/><path d="M325.82284,219.12787c0.06329,-0.55643 0.02964,-2.03027 0.08229,-4.51183c0.01314,-0.61957 0.96515,-5.82358 1.97915,-5.73968c1.50808,0.12477 3.72207,0.67875 5.28055,1.11278c0.40938,0.11401 0.56741,2.14963 0.66062,4.56561c0.03209,0.83184 0.10024,2.77025 0.32596,4.46964c0.13664,1.02874 1.0357,4.52403 1.03391,4.52908c-0.74432,2.09259 -7.25267,1.75011 -9.67387,-0.31123c-0.15308,-0.13033 -0.28229,-1.11177 -0.13269,-1.95517c0.21177,-1.19389 0.42286,-1.97266 0.44408,-2.1592z" fill="none" stroke="#5f0d63" stroke-width="2.5"/><g fill="#614b94" stroke="#5f0d63" stroke-width="2.5"><path d="M335.24832,209.99668c0.48528,0.09542 0.5885,1.6485 0.23057,3.4689c-0.28846,1.46708 -2.71864,0.14593 -2.38921,-1.52945c0.06109,-0.31064 1.75616,-2.01859 2.15864,-1.93945z"/><path d="M330.99762,212.67183c0.21839,1.69345 -3.24542,2.97446 -3.43665,1.49156c-0.23728,-1.84002 0.11259,-3.40158 0.78148,-3.48784c0.55475,-0.07154 2.61467,1.68229 2.65517,1.99627z" data-paper-data="{&quot;index&quot;:null}"/><path d="M332.43538,210.91083c0.80183,0.15766 1.31023,1.00578 1.13552,1.89431c-0.17471,0.88852 -0.96637,1.48101 -1.76821,1.32335c-0.80183,-0.15766 -1.31023,-1.00578 -1.13553,-1.89431c0.17471,-0.88852 0.96638,-1.48101 1.76821,-1.32335z"/></g></g><path d="M331.50227,207.51672c1.17154,0.17774 1.97063,1.3147 1.78481,2.53949c-0.18582,1.22479 -1.18777,1.78132 -2.35931,1.60358c-1.17153,-0.17774 -2.06902,-1.02243 -1.88321,-2.24722c0.18582,-1.22479 1.28617,-2.07359 2.45771,-1.89586z" fill="#6a4a6d" stroke="#5f0d63" stroke-width="2.5"/><path d="M343.22753,198.79463c-0.37282,1.51878 -1.30011,1.88762 -1.59429,1.79062c-0.6746,-0.22245 -6.14796,-6.72446 -5.28717,-9.33495c0.03778,-0.11459 7.62684,-6.43941 8.6488,-6.72417c0.69441,-0.1935 -0.56531,9.37172 -1.76734,14.2685z" data-paper-data="{&quot;index&quot;:null}" fill="#ff3ef9" stroke="#5f0d63" stroke-width="2.5"/><path d="M323.1545,192.61326c3.17101,-5.16339 9.92739,-6.77854 15.0908,-3.60752c5.16338,3.17102 6.77853,9.9274 3.60751,15.0908c-3.17101,5.16339 -9.92739,6.77853 -15.09078,3.60751c-5.16338,-3.17102 -6.77853,-9.9274 -3.60751,-15.0908z" fill="#6a4a6d" stroke="#5f0d63" stroke-width="2.5"/><path d="M338.24529,189.00574c5.16338,3.17102 6.77853,9.92739 3.60751,15.09079c0,0 -3.77553,4.00047 -7.10883,2.77877c-2.90472,-1.06463 -6.13781,-6.42477 -5.23379,-10.96138c1.0311,-5.17437 5.98386,-8.5978 8.73511,-6.90819z" fill="#946798" stroke="none" stroke-width="0"/><path d="M323.1545,192.61326c3.17101,-5.16339 9.92739,-6.77854 15.0908,-3.60752c5.16338,3.17102 6.77853,9.9274 3.60751,15.0908c-3.17101,5.16339 -9.92739,6.77853 -15.09078,3.60751c-5.16338,-3.17102 -6.77853,-9.9274 -3.60751,-15.0908z" fill="none" stroke="#5f0d63" stroke-width="2.5"/><path d="M328.62147,189.45683c0.44397,2.11562 -2.53836,6.70307 -4.48455,8.41637c-0.52854,0.46528 -2.88452,0.08261 -3.08578,-1.46824c-0.64886,-5.00026 -2.33889,-14.39132 -1.67035,-14.12165c0,0 9.21592,7.05542 9.24069,7.1735z" data-paper-data="{&quot;index&quot;:null}" fill="#ff3ef9" stroke="#5f0d63" stroke-width="2.5"/><g stroke="#5f0d63" stroke-width="2.5"><path d="M321.95551,190.67771c-0.06163,-3.24724 4.53143,-7.28084 11.2111,-7.16272c5.86457,0.10369 9.96418,3.51245 10.02581,6.75969c0.06163,3.24723 -5.01076,6.42612 -10.87518,6.53741c-5.86443,0.1113 -10.30011,-2.88713 -10.36175,-6.13435z" fill="#662b69"/><path d="M342.80384,175.10573c0.87385,1.5336 -3.61566,12.57939 -4.13506,13.41003c-3.3299,4.04448 -10.68835,2.3157 -11.82416,1.39045c-1.18513,-0.96543 -5.20862,-8.78442 -4.98921,-12.26137c0.06237,-11.45503 20.23717,-8.60471 20.94843,-2.53911z" fill="#662b69"/><path d="M333.37131,188.47459c5.60811,-0.73043 6.86596,-3.63057 6.471,-2.64692c-0.56688,1.41182 -1.02738,2.45434 -1.17354,2.68807c-3.3299,4.04448 -10.68835,2.3157 -11.82416,1.39044c-0.42516,-0.34633 -1.55448,-1.86905 -2.38324,-3.46249c0,0 2.32279,2.88886 8.90993,2.03089z" fill="#a1a7ff"/></g><path d="M331.78307,202.85561c-0.41451,2.555 -1.8567,4.46072 -3.2212,4.25659c-1.05102,-0.15724 -1.7776,-1.43563 -1.85359,-3.22133c-0.00989,-0.23239 -0.96237,-1.03698 -0.9087,-1.36783c0.04488,-0.27661 1.31077,-1.56864 1.36767,-1.73954c0.61609,-1.85091 1.78178,-3.09039 2.89572,-2.92374c1.36451,0.20414 2.13464,2.44086 1.72012,4.99586z" fill="#5f0d63" stroke="none" stroke-width="0"/><path d="M336.20187,197.51767c0.91138,0.25178 1.53868,1.85565 1.59416,3.837c0.00511,0.18294 0.69882,1.8735 0.67013,2.15223c-0.03432,0.3334 -0.96644,0.7458 -1.02784,0.96246c-0.47179,1.66494 -1.33626,2.60961 -2.19618,2.37203c-1.11638,-0.30841 -1.80654,-2.64563 -1.54151,-5.22031c0.26502,-2.57468 1.38485,-4.41184 2.50123,-4.10342z" data-paper-data="{&quot;index&quot;:null}" fill="#5f0d63" stroke="none" stroke-width="0"/><path d="M141.5,297v-276h315v276z" fill="none" stroke="none" stroke-width="0"/></g></g></g></svg>