<svg version="1.1" xmlns="http://www.w3.org/2000/svg" xmlns:xlink="http://www.w3.org/1999/xlink" width="808.80633" height="475.59063" viewBox="0,0,808.80633,475.59063"><defs><linearGradient x1="285.55601" y1="76.40714" x2="285.55601" y2="198.27137" gradientUnits="userSpaceOnUse" id="color-1"><stop offset="0" stop-color="#ffa4f3"/><stop offset="1" stop-color="#ffd172"/></linearGradient><linearGradient x1="37.51514" y1="55.8874" x2="37.51514" y2="347.17869" gradientUnits="userSpaceOnUse" id="color-2"><stop offset="0" stop-color="#ffa4f3"/><stop offset="1" stop-color="#ffd172"/></linearGradient><linearGradient x1="596.09462" y1="50.4448" x2="596.09462" y2="398.79315" gradientUnits="userSpaceOnUse" id="color-3"><stop offset="0" stop-color="#ffa4f3"/><stop offset="1" stop-color="#ffd172"/></linearGradient></defs><g transform="translate(56.80706,73.43061)"><g data-paper-data="{&quot;isPaintingLayer&quot;:true}" fill-rule="nonzero" stroke-linejoin="miter" stroke-miterlimit="10" stroke-dasharray="" stroke-dashoffset="0" style="mix-blend-mode: normal"><path d="M-37.53901,383.21472v-253.75375h788.28829v253.75375z" fill="#664585" stroke="#3e0e6c" stroke-width="2.5" stroke-linecap="butt"/><path d="M-30.0315,100.81372v-130.63063h704.2042v130.63063z" fill="#664585" stroke="#3e0e6c" stroke-width="2.5" stroke-linecap="butt"/><path d="M64.01074,198.27137v-106.60661c0,0 429.63972,-13.55211 429.57704,-12.173c-0.712,15.66401 -3.96582,84.61974 -3.96582,84.61974z" fill="url(#color-1)" stroke="#3e0e6c" stroke-width="2.5" stroke-linecap="butt"/><path d="M11.68438,347.17869l-8.02317,-291.29129l67.70786,36.03603v106.60661z" fill="url(#color-2)" stroke="#3e0e6c" stroke-width="2.5" stroke-linecap="butt"/><path d="M487.98652,163.43209l3.00301,-84.45876l199.6997,-30.4047v350.22452z" fill="url(#color-3)" stroke="#3e0e6c" stroke-width="2.5" stroke-linecap="butt"/><path d="M252.28792,183.69193l0.00897,-60.60791l48.81167,-2.71713l-2.35817,59.76535z" fill="#3e0e6c" stroke="none" stroke-width="0" stroke-linecap="butt"/><path d="M322.30913,218.13261c127.83544,-5.83251 220.43545,35.81265 222.53704,81.87481c2.10159,46.06215 -87.09107,79.09851 -214.9265,84.93102c-127.83544,5.83251 -225.63055,-26.185 -227.73215,-72.24716c-2.1016,-46.06216 92.28617,-88.72617 220.12161,-94.55868z" fill="#7b3bb7" stroke="#3e0e6c" stroke-width="2.5" stroke-linecap="butt"/><path d="M398.82193,208.08021c0,0 -5.08966,-34.24076 -0.71764,-34.72145c18.56046,-2.04068 78.18642,-6.55053 87.30101,-7.55266c1.99545,-0.21939 19.13133,16.12291 25.79758,25.57104c2.76933,3.92499 -112.38095,16.70307 -112.38095,16.70307z" fill="#a162dc" stroke="#3e0e6c" stroke-width="2.5" stroke-linecap="butt"/><g stroke="#3e0e6c" stroke-width="2.5"><path d="M108.13159,175.04275c-0.02688,-0.64596 -3.87854,-65.79637 -1.21758,-66.13159c17.31729,-2.18153 128.0861,-5.68904 128.47513,-5.70352c0.03075,-0.00114 4.20955,2.04974 4.22319,3.97618c0.07627,10.76712 -2.40014,45.81091 -1.88587,59.775c0.01675,0.45477 -105.60152,12.03944 -126.00721,13.82959c-1.11861,0.09813 -3.55274,-4.90646 -3.58766,-5.74567z" fill="#7f3e64" stroke-linecap="butt"/><path d="M111.08187,180.67444c-0.52462,-12.6163 -1.41834,-59.96455 -1.59325,-68.50928c-0.01527,-0.74578 129.74626,-5.6625 130.36573,-5.68557c0.20264,-0.00754 -0.06865,47.84295 0.53763,64.30546c0.01855,0.50364 -129.22554,11.92312 -129.31011,9.88939z" fill="#895272" stroke-linecap="butt"/><path d="M114.9041,177.73601c0,0 -1.79908,-53.20943 -1.98297,-62.19296c-0.01382,-0.67524 123.83692,-5.25713 124.42466,-5.27856c0.19226,-0.00701 -0.10757,43.31815 0.45303,58.22315c0.01715,0.45599 -122.89471,9.24837 -122.89471,9.24837z" fill="#fac4e4" stroke-linecap="butt"/><path d="M109.04867,112.17417l-1.86851,-2.80767" fill="none" stroke-linecap="round"/></g><path d="M61.42414,188.78381c3.78138,-1.23626 28.46265,-8.33418 36.54966,-10.69683c1.22344,-0.35743 12.5105,0.36697 13.44425,0.5947c1.38199,0.33706 2.56096,2.37261 3.29286,2.59665c1.32055,0.40423 -12.85356,6.84109 -22.78997,10.00637c-10.78851,3.43671 -24.87353,3.09719 -25.52058,3.05677c-0.3489,-0.0218 -8.53013,-4.39577 -4.97622,-5.55766z" fill="#aa5880" stroke="#3e0e6c" stroke-width="2.5" stroke-linecap="butt"/><path d="M68.29903,194.47541c1.243,0.07766 37.63277,-13.18444 46.02851,-13.18444c1.58938,0 6.57331,25.63593 3.67349,27.49513c-5.8551,3.75395 -37.98795,17.51694 -44.4538,20.26082c-0.65084,0.2762 -4.48026,-25.83354 -5.1753,-32.85284c-0.10821,-1.0928 -0.14044,-1.72289 -0.07289,-1.71867z" fill="#aa5880" stroke="#3e0e6c" stroke-width="2.5" stroke-linecap="butt"/><path d="M73.25743,229.28591c0.0503,0.33644 -6.50248,-5.96315 -8.36877,-8.81137c-1.56304,-2.38542 -4.42552,-29.743 -4.42858,-29.89445c-0.00881,-0.43704 2.73175,-0.18631 3.59465,0.26846c1.10918,0.58457 5.62958,3.70504 4.37823,3.62686c-0.45822,-0.02863 3.82161,28.10167 4.82447,34.81049z" fill="#aa5880" stroke="#3e0e6c" stroke-width="2.5" stroke-linecap="butt"/><path d="M79.67869,222.88099c-0.29829,-2.08937 -4.30989,-26.20178 -3.90857,-26.17812c0.99475,0.05865 30.11694,-10.60904 36.83592,-10.60904c1.27196,0 5.26052,20.01225 2.93984,21.41629c-5.23083,3.16473 -35.86718,15.37087 -35.86718,15.37087z" fill="#3e0e6c" stroke="none" stroke-width="0" stroke-linecap="butt"/><path d="M78.18743,185.07334c-0.66047,-2.31164 2.55201,-5.25641 7.17527,-6.57734c4.62326,-1.32093 8.90657,-0.51781 9.56704,1.79382c0.66046,2.31163 -2.01626,3.917 -6.63952,5.23793c-4.62326,1.32093 -9.44233,1.85721 -10.1028,-0.45442z" fill="#ab7790" stroke="#3e0e6c" stroke-width="2.5" stroke-linecap="butt"/><path d="M80.02091,169.7752c4.76396,10.06221 4.35005,11.50021 3.24688,12.02251c-1.10317,0.5223 -2.47783,-0.06891 -7.24179,-10.13111c-4.76396,-10.06221 -5.89755,-14.76878 -4.79438,-15.29108c1.10317,-0.5223 4.02533,3.33747 8.78929,13.39968z" fill="#cca3b7" stroke="#3e0e6c" stroke-width="2.5" stroke-linecap="butt"/><path d="M90.46353,167.49729c0.86962,11.05866 0.29181,12.28788 -0.52913,12.42869c-0.82094,0.14081 -1.57412,-0.86013 -2.44374,-11.91879c-0.86962,-11.05866 -0.57429,-15.88013 0.24665,-16.02094c0.82094,-0.14081 1.8566,4.45238 2.72622,15.51104z" fill="#cca3b7" stroke="#3e0e6c" stroke-width="2.5" stroke-linecap="butt"/><path d="M322.55868,233.31966c101.44275,-4.62834 174.92471,28.41882 176.59241,64.97107c1.66771,36.55223 -69.11039,62.76797 -170.55313,67.39631c-101.44274,4.62834 -179.04724,-20.77889 -180.71495,-57.33113c-1.66771,-36.55224 73.23292,-70.40791 174.67567,-75.03625z" fill="#c07cff" stroke="none" stroke-width="0" stroke-linecap="butt"/><path d="M133.06398,129.96904c-0.07463,0.74628 -0.82091,0.67165 -0.82091,0.67165l-0.72807,-0.07374c-0.67697,-0.00235 -3.98299,0.05039 -4.38896,0.60441c-1.59811,2.18089 -1.37781,5.99789 -1.56063,8.57291c0,0 -0.05343,0.7481 -0.80153,0.69466c-0.7481,-0.05344 -0.69466,-0.80153 -0.69466,-0.80153c0.19678,-2.73733 -0.04904,-7.31915 1.95996,-9.48924c0.9869,-1.06602 4.20116,-1.07578 5.56053,-1.07935l0.80261,0.07932c0,0 0.74628,0.07462 0.67165,0.82091z" fill="#3e0e6c" stroke="none" stroke-width="0.5" stroke-linecap="butt"/><path d="M137.57241,127.62448c0.12697,0.73917 -0.61221,0.86614 -0.61221,0.86614l-0.45086,0.06534c-1.15888,0.42141 -2.10636,0.60507 -3.0011,1.43672c0,0 -0.55747,0.50172 -1.05919,-0.05575c-0.50172,-0.55747 0.05575,-1.05919 0.05575,-1.05919c1.08981,-0.95725 2.13004,-1.23624 3.49194,-1.73147l0.70954,-0.13399c0,0 0.73918,-0.12696 0.86614,0.61221z" fill="#3e0e6c" stroke="none" stroke-width="0.5" stroke-linecap="butt"/><path d="M139.58847,130.56788c-0.44655,0 -0.62722,-0.26588 -0.70032,-0.48103c-0.03208,-0.08349 -0.04968,-0.17418 -0.04968,-0.26897v-0.15307c0.01746,-0.90332 -0.00962,-1.57972 -1.01029,-1.4695c0,0 -0.75,0 -0.75,-0.75c0,-0.75 0.75,-0.75 0.75,-0.75c1.90514,0.10395 2.48507,1.13653 2.51029,2.9695v0.15307c0,0 0.00001,0.12277 -0.04967,0.26897c-0.0731,0.21515 -0.25378,0.48103 -0.70033,0.48103z" fill="#3e0e6c" stroke="none" stroke-width="0.5" stroke-linecap="butt"/><path d="M143.99821,132.40206c-0.67082,-0.33541 -0.33541,-1.00623 -0.33541,-1.00623l0.19986,-0.38675c0.99561,-1.49341 1.25908,-2.32198 -0.66035,-2.1705c0.03747,0.12131 0.07411,0.25325 0.11082,0.39679l0.00485,0.168c0.0378,0.15749 0.00806,0.30727 -0.03407,0.42176c-0.03318,0.1108 -0.09429,0.24032 -0.20685,0.34151l-0.36294,0.48391c0,0 -0.45,0.6 -1.05,0.15c-0.6,-0.45 -0.15,-1.05 -0.15,-1.05l0.32323,-0.43097c-0.00167,-0.60801 -0.23062,-0.36762 -0.94778,-0.35893c0,0 -0.32956,0 -0.55176,-0.21846c-0.13705,0.17932 -0.35315,0.295 -0.59626,0.295c-0.41422,0 -0.75,-0.33578 -0.75,-0.75c0,-0.41421 0.33578,-0.75 0.75,-0.75c0.20679,0 0.39404,0.08369 0.52972,0.21905c0.21515,-0.29559 0.6183,-0.29559 0.6183,-0.29559c0.56778,0.00517 0.98544,0.02894 1.30606,0.12682c0.19626,-0.17229 0.45225,-0.19924 0.45225,-0.19924c3.48677,-0.31118 4.26555,1.74883 2.46285,4.45289l-0.10629,0.22552c0,0 -0.33541,0.67082 -1.00623,0.33541z" fill="#3e0e6c" stroke="none" stroke-width="0.5" stroke-linecap="butt"/><path d="M149.22992,150.31006c-6.48842,0.64884 -12.73811,1.08888 -19.26544,1.07303c-3.22056,-0.49959 -6.28239,-2.57052 -8.32033,-5.08321c-0.92776,-1.14389 -1.39928,-4.17397 -0.05662,-5.27645c0.58057,-0.47672 1.77902,-0.41165 2.71029,-0.35552c0.00507,-0.52758 0.03142,-1.05532 0.07872,-1.5807c0,0 0.0679,-0.74692 0.81482,-0.67902c0.74692,0.0679 0.67902,0.81482 0.67902,0.81482c-0.04932,0.53691 -0.07397,1.07668 -0.07345,1.61586v0.61227c0,0.26047 -0.09046,0.43049 -0.20855,0.54145c-0.11096,0.11809 -0.28098,0.20855 -0.54145,0.20855c-1.77526,0 -4.49896,0.61794 -2.26078,3.12619c1.91376,2.14469 4.37782,4.11652 7.29271,4.56014c6.43953,-0.01792 12.59745,-0.42951 19.00182,-1.06994l0.76534,-0.07654c0,0 0.0926,-0.00926 0.21583,0.01136c0.06098,-0.12195 0.12194,-0.24389 0.18292,-0.36584c0,0 0.00771,-0.01543 0.02315,-0.04045c0.01406,-0.02581 0.02364,-0.04017 0.02364,-0.04017l0.36574,-0.53706c1.94094,-2.216 2.49578,-3.93968 1.9354,-6.88604l-0.45102,-0.20045c0,0 -0.04447,-0.01976 -0.10571,-0.06055c-0.05254,0.0494 -0.09207,0.07576 -0.09207,0.07576l-0.25975,0.17216c-0.34499,0.19248 -0.65149,0.47859 -0.87172,0.81057c-0.03133,0.20692 -0.14934,0.44771 -0.50315,0.55966c-0.0187,0.00618 -0.03772,0.01164 -0.05703,0.01636c-0.41494,0.10697 -0.6543,-0.0973 -0.7803,-0.28092c-0.05758,-0.07727 -0.10062,-0.16602 -0.12509,-0.26218l-0.1641,-0.5871c-0.45799,-2.51942 -0.34997,-10.4166 -3.87727,-10.1009c0,0 -0.74809,0.05344 -0.80153,-0.69466c-0.05344,-0.7481 0.69466,-0.80153 0.69466,-0.80153c4.64728,-0.26944 4.81315,6.4459 5.31124,10.33888c0.12956,-0.10222 0.26406,-0.19735 0.40255,-0.28441l0.19945,-0.13399c0,0 0.43794,-0.29197 0.82466,-0.01984c0.33509,-0.33104 0.81438,-0.11802 0.81438,-0.11802l0.68881,0.30614c0,0 0.28835,0.12816 0.40786,0.40526c0.13727,0.16876 0.17604,0.36262 0.17604,0.36262c0.68844,3.49546 0.05065,5.75322 -2.23744,8.37095l-0.21795,0.33714c-0.17252,0.34502 -0.34502,0.69006 -0.51754,1.03508l-0.4432,0.63626c0,0 -0.43593,0.6103 -1.04623,0.17437c-0.27806,-0.19861 -0.33894,-0.43342 -0.32282,-0.63022z" fill="#3e0e6c" stroke="none" stroke-width="0.5" stroke-linecap="butt"/><path d="M125.10018,136.09174c-0.6103,0.43593 -1.04623,-0.17437 -1.04623,-0.17437l-0.45486,-0.66069c-0.39944,-0.87669 -0.78951,-1.75769 -1.17224,-2.64179c-0.94184,-2.17932 -1.79672,-4.5798 -2.07013,-6.95206c-0.08647,-0.75024 -0.40746,-2.81637 0.61798,-3.33387c0.46349,-0.2339 2.80663,0.91293 3.39028,1.13218c3.13923,1.17927 6.15632,2.9598 8.30359,5.57568c0,0 0.47493,0.58047 -0.10554,1.0554c-0.58047,0.47493 -1.0554,-0.10554 -1.0554,-0.10554c-1.9658,-2.41133 -4.78551,-4.04154 -7.66933,-5.12104c-0.11398,-0.04267 -2.16636,-1.1822 -2.21953,-1.18198c-0.60506,0.00257 0.15232,1.20051 0.22732,1.80091c0.27904,2.2337 1.06618,4.47932 1.95732,6.53443c0.37892,0.8754 0.76512,1.7477 1.16066,2.61572l0.31048,0.41079c0,0 0.43593,0.6103 -0.17437,1.04623z" fill="#3e0e6c" stroke="none" stroke-width="0.5" stroke-linecap="butt"/><path d="M126.23373,138.51398c0.1819,0.72761 -0.5457,0.90951 -0.5457,0.90951l-0.99151,0.14904c-2.85374,-0.85109 -4.15927,-6.59089 -0.19132,-6.05108c0,0 0.73544,0.14709 0.58835,0.88252c-0.14709,0.73543 -0.88253,0.58835 -0.88253,0.58835c-1.36808,-0.48646 -0.53273,2.80325 0.88017,3.13307l0.23304,-0.15711c0,0 0.7276,-0.1819 0.9095,0.5457z" fill="#3e0e6c" stroke="none" stroke-width="0.5" stroke-linecap="butt"/><path d="M148.89641,136.9176c-0.67082,-0.33541 -0.33541,-1.00623 -0.33541,-1.00623l0.07654,-0.15307c1.18397,-2.35822 1.7258,-4.70837 2.51064,-7.22714c0.29591,-0.94965 0.64592,-1.88162 0.9604,-2.82528c0.1033,-0.30996 0.57038,-1.0279 0.25391,-0.9467c-1.54361,0.39606 -3.25155,1.77347 -4.63395,2.53956c-0.78848,0.43695 -1.46963,1.065 -2.07998,1.7284c0,0 -0.51033,0.5496 -1.05993,0.03925c-0.5496,-0.51034 -0.03926,-1.05993 -0.03926,-1.05993c0.35516,-0.37941 0.66447,-0.80765 1.06548,-1.13821c1.30633,-1.0768 7.51779,-5.38165 8.18773,-2.11957c0.12774,0.62197 -0.61248,2.31527 -0.78206,2.81471c-1.02482,3.01828 -1.61767,6.00763 -3.04134,8.86573l-0.07654,0.15307c0,0 -0.33541,0.67082 -1.00623,0.33541z" fill="#3e0e6c" stroke="none" stroke-width="0.5" stroke-linecap="butt"/><path d="M148.96343,138.64818c-0.1819,-0.72761 0.5457,-0.90951 0.5457,-0.90951l0.33138,-0.01564c0.98708,-0.74633 1.89886,-2.23576 0.56845,-3.0048c0,0 -0.61442,-0.43009 -0.18433,-1.04452c0.43009,-0.61443 1.04452,-0.18433 1.04452,-0.18433c2.05516,1.58485 1.38713,3.89228 -0.50303,5.414l-0.89318,0.29049c0,0 -0.72761,0.1819 -0.90951,-0.5457z" fill="#3e0e6c" stroke="none" stroke-width="0.5" stroke-linecap="butt"/><path d="M123.60811,139.46123c0,-0.41422 0.33579,-0.75 0.75,-0.75c0.05846,0 0.11536,0.00669 0.16998,0.01934c0.12799,-0.06593 0.23825,-0.08496 0.23825,-0.08496l0.41718,-0.06858c4.6607,-1.26625 8.8254,-1.70263 13.63962,-1.70263c0,0 0.75,0 0.75,0.75c0,0.75 -0.75,0.75 -0.75,0.75c-4.68761,0 -8.70877,0.41669 -13.24624,1.65013l-0.55552,0.09924c0,0 -0.13408,0.02313 -0.29788,-0.00742c-0.10811,0.06043 -0.23273,0.09487 -0.36538,0.09487c-0.41421,0 -0.75,-0.33578 -0.75,-0.75z" fill="#3e0e6c" stroke="none" stroke-width="0.5" stroke-linecap="butt"/><path d="M128.6063,144.2352c-0.1819,0.72761 -0.90951,0.5457 -0.90951,0.5457l-0.70892,-0.18432c-1.92233,-0.81419 -2.81025,-2.55978 -3.21214,-4.52907c0,0 -0.14708,-0.73543 0.58835,-0.88252c0.73543,-0.14709 0.88252,0.58835 0.88252,0.58835c0.27428,1.40449 0.85971,2.9058 2.29835,3.43052l0.51564,0.12182c0,0 0.72761,0.1819 0.5457,0.90951z" fill="#3e0e6c" stroke="none" stroke-width="0.5" stroke-linecap="butt"/><path d="M144.18055,136.64479l0.10198,0.03692c1.11261,-0.06391 2.23112,-0.11216 3.34207,-0.11345h0.15307c0,0 0.75,0 0.75,0.75c0,0.03952 -0.00209,0.07696 -0.00603,0.11243c0.7214,-0.17509 0.90205,0.54755 0.90205,0.54755c0.39695,1.69127 0.09869,2.56109 -0.57799,4.08363l-0.65608,0.51929c0,0 -0.67082,0.33541 -1.00623,-0.33541c-0.33541,-0.67082 0.33541,-1.00624 0.33541,-1.00624l-0.04381,0.21315c0.54097,-1.21719 0.85674,-1.76726 0.49349,-3.11061c0,0 -0.03294,-0.13176 -0.01472,-0.29716c-0.10181,0.02337 -0.17609,0.02338 -0.17609,0.02338h-0.15307c-0.73148,-0.00093 -1.46704,0.02097 -2.20185,0.05482c0.38557,1.25233 0.38289,2.90783 -0.98197,3.28985c-2.10466,0.58909 -1.69316,-1.92686 -1.08113,-3.24461c-0.20668,-0.07256 -0.43803,-0.24466 -0.46338,-0.65021c-0.04678,-0.74854 0.70175,-0.79532 0.70175,-0.79532c0.09433,-0.00587 0.18873,-0.01167 0.28317,-0.01738c0.15916,-0.06061 0.29936,-0.06061 0.29936,-0.06061z" fill="#3e0e6c" stroke="none" stroke-width="0.5" stroke-linecap="butt"/><path d="M132.33179,137.97752c0.71837,-0.21551 0.93388,0.50285 0.93388,0.50285c0.16777,0.60919 0.20313,1.27099 0.0936,1.89329l-0.32291,0.27013c-0.58274,1.75876 -3.85996,3.25407 -4.77036,0.96151c-0.39578,-0.99664 -0.09474,-1.8835 0.1039,-2.83696c0,0 0.15715,-0.73335 0.8905,-0.5762c0.1273,0.02728 0.22777,0.07192 0.30689,0.12707l0.30673,-0.30673l0.14625,0.14625c0.56385,-0.55163 1.09764,-0.59429 1.90686,0.08524c0.08021,-0.10992 0.20713,-0.2072 0.40467,-0.26646z" fill="#3e0e6c" stroke="none" stroke-width="0.5" stroke-linecap="butt"/><path d="M143.87995,143.79022c0.75,0 0.75,0.75 0.75,0.75l-0.09158,0.92167c-0.50867,0.91455 -0.90962,2.00212 -2.14944,2.26593c-0.4655,0.09905 -0.91101,-0.93948 -1.27803,-0.6365c-2.02748,1.67369 -3.13099,0.65184 -4.42986,-1.40355c0,0 -0.3975,-0.636 0.2385,-1.0335c0.636,-0.3975 1.03349,0.2385 1.03349,0.2385c0.31562,0.51182 0.86802,1.42204 1.36152,1.77715c0.39954,0.28749 0.69348,-0.73818 1.14655,-0.93056c0.6048,-0.2568 1.2537,0.52625 1.90968,0.48857c0.56934,-0.0327 0.5828,-0.9809 0.85074,-1.48431l-0.09158,-0.2034c0,0 0,-0.75 0.75,-0.75z" fill="#3e0e6c" stroke="none" stroke-width="0.5" stroke-linecap="butt"/><path d="M233.58075,155.28209c0,0.75 -0.75,0.75 -0.75,0.75l-0.11612,-0.00221c-6.23979,-0.4847 -12.93327,0.00221 -19.22057,0.00221c0,0 -0.75,0 -0.75,-0.75c0,-0.75 0.75,-0.75 0.75,-0.75c6.32867,0 13.05267,-0.47669 19.33562,0.00221l0.00107,-0.00221c0,0 0.75,0 0.75,0.75z" fill="#3e0e6c" stroke="none" stroke-width="0.5" stroke-linecap="butt"/><path d="M222.25917,145.72949c-0.64312,0.38587 -1.029,-0.25725 -1.029,-0.25725l0.02621,-0.0723c-0.8758,-0.66033 -1.45276,-0.61851 -2.49716,-0.30206c-4.14114,1.25475 -4.55253,4.60905 -4.34041,8.62129c0,0 0.00478,0.09094 -0.02067,0.2111c0.22323,0.12992 0.37328,0.37177 0.37328,0.64866c0,0.41422 -0.33578,0.75 -0.75,0.75c-0.41422,0 -0.75,-0.33578 -0.75,-0.75c0,-0.05336 0.00557,-0.10542 0.01617,-0.15563c-0.34375,-0.18911 -0.3667,-0.6253 -0.3667,-0.6253c-0.08027,-1.53184 -0.3163,-3.51134 0.09333,-5.01458c0.98558,-3.6168 5.57876,-7.10872 9.12441,-4.59659l0.37778,0.51366c0,0 0.38587,0.64312 -0.25725,1.02899z" fill="#3e0e6c" stroke="none" stroke-width="0.5" stroke-linecap="butt"/><path d="M221.29908,145.14497c0,-0.41422 0.33578,-0.75 0.75,-0.75c0.41422,0 0.75,0.33578 0.75,0.75c0,0.41422 -0.33578,0.75 -0.75,0.75c-0.41422,0 -0.75,-0.33578 -0.75,-0.75z" fill="#3e0e6c" stroke="none" stroke-width="0.5" stroke-linecap="butt"/><path d="M232.89042,154.56498c-0.74779,-0.05752 -0.69027,-0.80532 -0.69027,-0.80532l0.05694,-0.73301c-0.00205,-2.71942 -0.22579,-5.19129 -2.09275,-7.26218c-1.12436,-1.24717 -1.84167,-2.14954 -3.35426,-1.0562c0,0 -0.04626,0.03181 -0.12218,0.06536c-0.14488,0.21722 -0.38506,0.3096 -0.38506,0.3096l-0.269,0.10346c-0.00152,0.17859 -0.07452,0.38018 -0.31198,0.55828c-0.6,0.45 -1.05,-0.15 -1.05,-0.15l-0.18751,-0.30847c-0.3308,-0.26649 -0.7926,-0.44698 -1.21346,-0.38932c0,0 -0.74834,0.04989 -0.79823,-0.69845c-0.04989,-0.74834 0.69845,-0.79823 0.69845,-0.79823c0.6734,-0.01882 1.36899,0.18717 1.95987,0.52633l0.61907,-0.23811c0.09638,-0.13824 0.21024,-0.21651 0.21024,-0.21651c5.46885,-3.6239 7.79828,5.91656 7.7957,9.61201l-0.06025,0.79049c0,0 -0.05752,0.74779 -0.80532,0.69027z" fill="#3e0e6c" stroke="none" stroke-width="0.5" stroke-linecap="butt"/><path d="M213.27142,155.34068c0,-0.41422 0.33578,-0.75 0.75,-0.75c0.41422,0 0.75,0.33578 0.75,0.75c0,0.41422 -0.33578,0.75 -0.75,0.75c-0.41422,0 -0.75,-0.33578 -0.75,-0.75z" fill="#3e0e6c" stroke="none" stroke-width="0.5" stroke-linecap="butt"/><path d="M235.0168,151.3259c0.20604,0.72115 -0.5151,0.92719 -0.5151,0.92719l-0.61622,0.14605c-6.57674,-0.00152 -13.3005,-0.22905 -19.87437,0.07489c-0.02227,0.60624 -0.6638,0.68171 -0.6638,0.68171c-1.71288,0.17401 -4.30024,1.80177 -4.8218,3.52387c-0.20633,0.6813 -0.7171,2.51192 0.32242,2.68953c3.04494,0.52023 7.79894,-1.2894 10.80022,-1.90169c4.31681,-0.88059 8.70425,-1.97627 12.89661,-3.31023l0.43283,-0.16334c0,0 0.70225,-0.26334 0.96559,0.43891c0.26334,0.70225 -0.43891,0.96559 -0.43891,0.96559l-0.50471,0.18823c-4.24192,1.34967 -8.68426,2.45967 -13.0516,3.35057c-2.72761,0.55636 -5.46911,1.0406 -8.19863,1.58815c-0.91568,0.18369 -2.4015,0.59061 -3.33608,0.27945c-2.04757,-0.68171 -1.86938,-2.89289 -1.31827,-4.57638c0.68147,-2.08169 3.11651,-3.83784 5.29936,-4.40874c-0.0003,-0.00461 -0.00057,-0.00925 -0.00082,-0.01393c-0.03942,-0.74896 0.70954,-0.78838 0.70954,-0.78838c6.86685,-0.35676 13.89961,-0.11669 20.78242,-0.11823l0.20413,-0.08834c0,0 0.72115,-0.20605 0.92719,0.5151z" fill="#3e0e6c" stroke="none" stroke-width="0.5" stroke-linecap="butt"/><path d="M231.74159,155.41682c0.74421,-0.09303 0.83723,0.65118 0.83723,0.65118l0.04445,0.39001c0.82039,3.50463 0.71,5.80224 -2.67624,7.48872c-4.20409,1.32451 -7.55208,2.81916 -12.04974,2.15596c-1.74087,-0.2567 -3.9155,-0.66388 -4.15456,-2.78997c-0.14282,-1.27012 0.12004,-2.60929 0.43193,-3.82525c0,0 0.18931,-0.72571 0.91503,-0.53639c0.72572,0.18931 0.53639,0.91503 0.53639,0.91503c-0.16035,0.60306 -0.86744,3.14803 -0.33327,3.73496c3.23414,3.55361 10.64934,0.02084 14.0933,-1.04551c2.62448,-1.31821 2.4398,-2.95292 1.77705,-5.75399l-0.07274,-0.54752c0,0 -0.09303,-0.74421 0.65118,-0.83723z" fill="#3e0e6c" stroke="none" stroke-width="0.5" stroke-linecap="butt"/><path d="M227.33447,158.85644c0,-0.41422 0.33578,-0.75 0.75,-0.75c0.41422,0 0.75,0.33578 0.75,0.75c0,0.41422 -0.33578,0.75 -0.75,0.75c-0.41422,0 -0.75,-0.33578 -0.75,-0.75z" fill="#3e0e6c" stroke="none" stroke-width="0.5" stroke-linecap="butt"/><path d="M217.19736,161.31748c0,-0.41422 0.33578,-0.75 0.75,-0.75c0.41422,0 0.75,0.33578 0.75,0.75c0,0.41422 -0.33578,0.75 -0.75,0.75c-0.41422,0 -0.75,-0.33578 -0.75,-0.75z" fill="#3e0e6c" stroke="none" stroke-width="0.5" stroke-linecap="butt"/><path d="M224.9573,168.79307c-0.27545,-0.01279 -0.60464,-0.47978 -0.91195,-1.03772c-0.12226,0.28615 -0.27695,0.5811 -0.4695,0.91296l-0.55495,0.44101c0,0 -0.64312,0.38587 -1.02899,-0.25725c-0.38587,-0.64312 0.25725,-1.02899 0.25725,-1.02899l0.03101,0.08943c0.50041,-0.85256 0.67448,-1.25434 0.65959,-2.25892c0,0 -0.00001,-0.58448 0.51596,-0.7215c0.63152,-0.34507 0.99906,0.285 0.99906,0.285c0.21995,0.37787 0.73848,1.21814 0.84345,1.62483c0.04009,0.15533 -0.19259,0.57216 -0.0634,0.47706c0.48229,-0.35504 1.07203,-1.13762 1.57719,-1.79058c-0.10713,-0.11924 -0.2165,-0.23815 -0.32844,-0.35692c0,0 -0.51403,-0.54615 0.03212,-1.06017c0.24391,-0.22957 0.48142,-0.24767 0.66959,-0.19741c-0.30302,-0.64031 -0.58416,-1.28883 -0.89679,-1.93038c-1.56181,0.36425 -3.1141,0.74493 -4.66423,1.15193c0.10602,0.61596 0.3274,1.16695 0.48474,1.78926c0.12426,0.1106 0.22128,0.28333 0.22128,0.5531c0,0.75 -0.75,0.75 -0.75,0.75l-0.85578,-0.61966c-0.13038,-0.77044 -0.37814,-1.38903 -0.53279,-2.08869c-1.31758,0.36066 -2.63523,0.74253 -3.95748,1.15169c0,0 -0.71683,0.22056 -0.9374,-0.49627c-0.22056,-0.71684 0.49627,-0.9374 0.49627,-0.9374c5.12492,-1.56689 10.1755,-2.75678 15.41558,-3.88386l0.45012,-0.01664c0,0 0.75,0 0.75,0.75c0,0.75 -0.75,0.75 -0.75,0.75l-0.13583,-0.01665c-1.25553,0.2681 -2.50006,0.53964 -3.73722,0.81943c0.42672,0.90954 0.80761,1.8291 1.30395,2.70861l0.09632,0.42629c0,0 -0.00001,0.53523 -0.45215,0.70139c0.50965,0.6324 0.98576,1.28458 1.4674,1.97674l0.34415,0.42802c0,0 0.4682,0.58591 -0.11771,1.05411c-0.58591,0.4682 -1.05411,-0.11771 -1.05411,-0.11771l-0.40369,-0.50783c-0.39834,-0.57278 -0.79019,-1.11507 -1.20276,-1.64101c-0.8331,0.94018 -2.02593,2.16111 -2.80989,2.12471z" fill="#3e0e6c" stroke="none" stroke-width="0.5" stroke-linecap="butt"/><path d="M182.4624,154.79847c-0.75,0 -0.75,-0.75 -0.75,-0.75v-0.13274c0,-1.07706 0.01751,-2.15343 -0.0153,-3.22889c-2.04944,0.80009 -4.14493,1.46931 -6.21728,2.20946c0,0 -0.7063,0.25225 -0.95855,-0.45406c-0.25225,-0.7063 0.45406,-0.95856 0.45406,-0.95856c2.18249,-0.77944 4.39185,-1.47813 6.54364,-2.33925l0.50298,-0.22702c0,0 0.18688,-0.08408 0.40922,-0.06665c0.66716,0.01004 0.71321,0.70073 0.71321,0.70073c0.09632,1.45359 0.06803,2.90779 0.06803,4.36424v0.13274c0,0 0,0.75 -0.75,0.75z" fill="#3e0e6c" stroke="none" stroke-width="0.5" stroke-linecap="butt"/><path d="M186.84245,145.02219c0.53033,0.53033 0,1.06066 0,1.06066l-0.21018,0.20369c-1.12019,1.3989 -2.1948,2.55107 -3.64893,3.6164c-0.12865,0.22806 -0.37319,0.38207 -0.6537,0.38207c-0.41422,0 -0.75,-0.33578 -0.75,-0.75c0,-0.12584 0.031,-0.24445 0.08577,-0.3486c0.08624,-0.24556 0.29468,-0.39445 0.29468,-0.39445c1.4255,-1.01628 2.42732,-2.0993 3.50088,-3.44245l0.32082,-0.32731c0,0 0.53033,-0.53033 1.06066,0z" fill="#3e0e6c" stroke="none" stroke-width="0.5" stroke-linecap="butt"/><path d="M189.50518,147.08267c-0.33541,0.67082 -1.00623,0.33541 -1.00623,0.33541l-0.49293,-0.25552c-1.71015,-1.1992 -3.61773,-2.06531 -5.48078,-2.99684c0,0 -0.67082,-0.33542 -0.33541,-1.00624c0.33541,-0.67082 1.00623,-0.33541 1.00623,-0.33541c1.93045,0.96523 3.89634,1.86997 5.67015,3.10963l0.30356,0.14273c0,0 0.67082,0.33541 0.33541,1.00623z" fill="#3e0e6c" stroke="none" stroke-width="0.5" stroke-linecap="butt"/><path d="M186.76559,144.70835c0.11405,-0.74128 0.85532,-0.62723 0.85532,-0.62723l0.72103,0.12454c1.51812,-0.36121 3.71174,-3.14331 1.13796,-3.97541c-2.1992,-0.711 -4.84549,0.92548 -3.44918,3.21863c0,0 0.3779,0.64784 -0.26993,1.02574c-0.64783,0.3779 -1.02573,-0.26993 -1.02573,-0.26993c-1.94931,-3.44914 1.68475,-6.59027 5.17952,-5.41008c4.32409,1.46026 1.51824,6.22146 -1.51703,6.91003l-1.00472,-0.14096c0,0 -0.74128,-0.11405 -0.62724,-0.85532z" fill="#3e0e6c" stroke="none" stroke-width="0.5" stroke-linecap="butt"/><path d="M664.34888,166.7554c0,60.08828 -32.98522,89.69987 -48.4311,89.69987c-15.44589,0 -114.3705,-83.61831 -124.14734,-142.90586c-7.75436,-47.02309 -6.73739,-109.36723 4.37789,-134.21579c5.50696,-12.31097 19.15427,-2.55092 24.27149,-2.55092c2.87325,0 17.22027,-9.24728 20.9053,-3.92612c1.84798,2.66847 3.14551,77.8651 32.66569,122.84582c31.0541,47.318 90.35807,64.61673 90.35807,71.05302z" fill="#3e0e6c" stroke="none" stroke-width="0" stroke-linecap="butt"/><path d="M24.25729,30.92505c28.61344,-25.31815 44.81872,-102.41297 46.57381,-103.88427c3.4998,-2.93391 9.77959,8.75007 11.49126,9.6619c3.04846,1.62396 13.57128,-1.57141 13.83374,9.66969c0.52974,22.68915 -14.14881,71.0879 -30.29652,104.8884c-20.35932,42.61628 -99.79113,75.70385 -108.99262,70.80208c-9.2015,-4.90176 -21.59198,-38.20431 -6.86065,-84.54074c1.57793,-4.96328 44.15075,20.03667 74.25099,-6.59706z" data-paper-data="{&quot;index&quot;:null}" fill="#3e0e6c" stroke="none" stroke-width="0" stroke-linecap="butt"/><path d="M312.5571,137.26781c0,-14.95286 10.2326,-27.07455 22.85514,-27.07455c12.62254,0 22.85513,12.12169 22.85513,27.07454c0,14.95285 -10.23259,27.07454 -22.85513,27.07454c-12.62254,0 -22.85514,-12.12168 -22.85514,-27.07454z" fill-opacity="0.51373" fill="#ffd6ec" stroke="none" stroke-width="0" stroke-linecap="butt"/><path d="M368.78555,154.98988l13.38325,-37.4731l37.4731,13.38325l-13.38324,37.4731z" fill-opacity="0.51373" fill="#ffd6ec" stroke="none" stroke-width="0" stroke-linecap="butt"/><path d="M440.71365,121.26371l10.89415,-30.50362l30.50361,10.89415l-10.89414,30.50362z" fill-opacity="0.51373" fill="#ffd6ec" stroke="none" stroke-width="0" stroke-linecap="butt"/><path d="M400.11248,95.0753l22.69302,-2.50669l2.50669,22.69302z" fill-opacity="0.51373" fill="#ffd6ec" stroke="none" stroke-width="0" stroke-linecap="butt"/><path d="M294.90839,107.46922l4.09189,-16.84037l16.84037,4.09189z" fill-opacity="0.51373" fill="#ffd6ec" stroke="none" stroke-width="0" stroke-linecap="butt"/><path d="M475.86546,153.04626l-23.91803,8.07626l-8.07626,-23.91803z" fill-opacity="0.51373" fill="#ffd6ec" stroke="none" stroke-width="0" stroke-linecap="butt"/></g></g></svg>