<svg version="1.1" xmlns="http://www.w3.org/2000/svg" xmlns:xlink="http://www.w3.org/1999/xlink" width="148.98178" height="198.82101" viewBox="0,0,148.98178,198.82101"><defs><linearGradient x1="241.18294" y1="350.30273" x2="241.18294" y2="372.23002" gradientUnits="userSpaceOnUse" id="color-1"><stop offset="0" stop-color="#55389c"/><stop offset="1" stop-color="#3c50a8"/></linearGradient><linearGradient x1="201.26288" y1="349.92763" x2="201.26288" y2="371.85493" gradientUnits="userSpaceOnUse" id="color-2"><stop offset="0" stop-color="#55389c"/><stop offset="1" stop-color="#3c50a8"/></linearGradient><linearGradient x1="220.83443" y1="336.94437" x2="220.83443" y2="368.96975" gradientUnits="userSpaceOnUse" id="color-3"><stop offset="0" stop-color="#55389c"/><stop offset="1" stop-color="#3c50a8"/></linearGradient><linearGradient x1="320.00003" y1="180.00011" x2="320.00003" y2="180.00011" gradientUnits="userSpaceOnUse" id="color-4"><stop offset="0" stop-color="#67497d"/><stop offset="1" stop-color="#553783"/></linearGradient><linearGradient x1="173.65303" y1="296.43406" x2="224.2991" y2="298.58863" gradientUnits="userSpaceOnUse" id="color-5"><stop offset="0" stop-color="#887aff"/><stop offset="1" stop-color="#e27aff"/></linearGradient><linearGradient x1="269.036" y1="300.81828" x2="218.38993" y2="298.6637" gradientUnits="userSpaceOnUse" id="color-6"><stop offset="0" stop-color="#887aff"/><stop offset="1" stop-color="#e27aff"/></linearGradient></defs><g transform="translate(-149.1104,-181.08749)"><g data-paper-data="{&quot;isPaintingLayer&quot;:true}" fill-rule="nonzero" stroke-linejoin="miter" stroke-miterlimit="10" stroke-dasharray="" stroke-dashoffset="0" style="mix-blend-mode: normal"><path d="M231.2291,361.26637c0,6.05505 4.45649,10.96365 9.95384,10.96365c5.49735,0 9.95383,-4.90859 9.95383,-10.96365c0,-6.05505 -12.53496,-20.48471 -18.03232,-20.48471c-5.49735,0 -1.87536,14.42966 -1.87536,20.48471z" fill="url(#color-1)" stroke="#250077" stroke-width="2.5" stroke-linecap="butt"/><path d="M209.97681,360.89128c0,6.05505 -3.90136,10.96365 -8.71393,10.96365c-4.81257,0 -12.08977,-5.28369 -12.08977,-11.33874c0,-6.05505 14.34938,-20.10961 19.16195,-20.10961c4.81257,0 1.64175,14.42965 1.64175,20.4847z" data-paper-data="{&quot;index&quot;:null}" fill="url(#color-2)" stroke="#250077" stroke-width="2.5" stroke-linecap="butt"/><path d="M202.04032,370.84512c0,8.84357 7.65952,-1.87537 18.79411,-1.87537c11.13458,0 13.0184,5.41026 13.0184,-3.4333c0,-2.5378 1.70207,-23.78955 -0.74,-25.28096c-3.40015,-2.07653 -7.65775,-3.31112 -12.27841,-3.31112c-4.79515,0 -11.59127,0.17553 -15.05188,2.39588c-2.13483,1.36972 -3.74223,28.81927 -3.74223,31.50487z" fill="url(#color-3)" stroke="#250077" stroke-width="2.5" stroke-linecap="butt"/><path d="M212.57031,338.49549c0,5.67416 14.6771,5.34801 14.6771,-0.32615c0,-5.67416 -3.20777,-10.60014 -6.36008,-10.60014c-3.15231,0 -8.31703,5.25213 -8.31703,10.92629z" fill="#c2bfff" stroke="#250077" stroke-width="2.5" stroke-linecap="butt"/><path d="" data-paper-data="{&quot;index&quot;:null}" fill="#54002b" stroke="none" stroke-width="0" stroke-linecap="butt"/><path d="" fill="#54002b" stroke="none" stroke-width="0" stroke-linecap="butt"/><path d="" data-paper-data="{&quot;index&quot;:null}" fill="#54002b" stroke="none" stroke-width="0" stroke-linecap="butt"/><path d="" fill="#ff5971" stroke="#54002b" stroke-width="2.5" stroke-linecap="butt"/><g data-paper-data="{&quot;index&quot;:null}" stroke="#541287" stroke-width="2.5" stroke-linecap="butt"><path d="" fill="#e5c2ff"/><path d="" fill="#9951b7"/></g><path d="" fill="#725580" stroke="#541287" stroke-width="2.5" stroke-linecap="butt"/><path d="" fill="#6d3e90" stroke="none" stroke-width="0" stroke-linecap="butt"/><path d="" fill="#725580" stroke="none" stroke-width="0" stroke-linecap="butt"/><path d="" fill="#9857ca" stroke="none" stroke-width="0" stroke-linecap="butt"/><path d="" fill="none" stroke="#541287" stroke-width="2.5" stroke-linecap="butt"/><path d="" fill="#9468de" stroke="#541287" stroke-width="2.5" stroke-linecap="butt"/><path d="" fill="#e5c2ff" stroke="#541287" stroke-width="2.5" stroke-linecap="butt"/><g stroke-linecap="butt"><g stroke="#541287" stroke-width="2.5"><path d="" fill="#9d7bb5"/><path d="" fill="#9d7bb5"/><path d="" fill="url(#color-4)"/></g><path d="" fill="#541287" stroke="none" stroke-width="0"/><path d="" fill="#ca80ff" stroke="#541287" stroke-width="2.5"/></g><g stroke="#541287" stroke-width="2.5" stroke-linecap="butt"><path d="" fill="#e5c2ff"/><path d="" fill="#9951b7"/></g><path d="" fill="#ff8dae" stroke="#54002b" stroke-width="2.5" stroke-linecap="butt"/><path d="" data-paper-data="{&quot;index&quot;:null}" fill="#ff8dae" stroke="#54002b" stroke-width="2.5" stroke-linecap="butt"/><path d="" fill="#ff8dae" stroke="#54002b" stroke-width="2.5" stroke-linecap="butt"/><g data-paper-data="{&quot;index&quot;:null}" fill="#54002b" stroke="none" stroke-width="0" stroke-linecap="butt"><path d=""/><path d=""/></g><g data-paper-data="{&quot;index&quot;:null}" fill="#54002b" stroke="none" stroke-width="0" stroke-linecap="butt"><path d=""/><path d=""/></g><path d="" fill="#54002b" stroke="none" stroke-width="0" stroke-linecap="butt"/><path d="" fill="none" stroke="#54002b" stroke-width="2.5" stroke-linecap="round"/><path d="" fill="none" stroke="none" stroke-width="NaN" stroke-linecap="butt"/><path d="" fill="#5c3160" stroke="#5f0d63" stroke-width="2.5" stroke-linecap="butt"/><path d="" fill="none" stroke="#5f0d63" stroke-width="2.5" stroke-linecap="round"/><path d="" data-paper-data="{&quot;index&quot;:null}" fill="#5c3160" stroke="#5f0d63" stroke-width="2.5" stroke-linecap="butt"/><path d="" data-paper-data="{&quot;index&quot;:null}" fill="none" stroke="#5f0d63" stroke-width="2.5" stroke-linecap="round"/><path d="" data-paper-data="{&quot;index&quot;:null}" fill="#9468de" stroke="#541287" stroke-width="2.5" stroke-linecap="butt"/><g><path d="M277.46779,225.15826c-0.56734,13.33591 -2.36507,53.35963 -6.35876,62.28454c-2.09301,4.67737 -26.1496,-20.32975 -25.64293,-32.23967c0.07833,-1.84131 12.84365,-60.90068 13.17277,-60.88667c2.00743,0.0854 18.86466,30.00186 18.82892,30.8418z" fill="#947aff" stroke="#250077" stroke-width="2.5" stroke-linecap="butt"/><path d="M193.08133,193.57575c0.37301,0.01587 9.44087,60.00407 9.36254,61.84537c-0.50667,11.90992 -29.94354,34.64133 -31.88382,29.79238c-3.70227,-9.25232 -2.10695,-49.28464 -1.53961,-62.62055c0.03573,-0.83994 21.78582,-29.11398 24.06089,-29.0172z" data-paper-data="{&quot;index&quot;:null}" fill="#947aff" stroke="#250077" stroke-width="2.5" stroke-linecap="butt"/><path d="M169.09365,278.10046c1.24095,-29.17011 25.89398,-51.81117 55.06409,-50.57022c29.17012,1.24095 51.81117,25.89399 50.57022,55.0641c-1.24095,29.1701 -25.89398,51.81118 -55.0641,50.57023c-29.17011,-1.24095 -51.81117,-25.894 -50.57022,-55.06411z" fill="#c2bfff" stroke="#250077" stroke-width="2.5" stroke-linecap="butt"/><path d="M175.55673,222.46996c0.37815,-8.88904 22.97143,-15.14691 50.46348,-13.97735c27.49205,1.16956 49.4722,9.32367 49.09404,18.21271c-0.37815,8.88904 -22.97142,15.14692 -50.46347,13.97736c-27.49205,-1.16956 -49.47221,-9.32368 -49.09406,-18.21272zM225.90187,236.75743c21.90399,0.93184 39.90493,-4.05405 40.20622,-11.1363c0.30129,-7.08224 -17.21115,-13.57895 -39.11515,-14.51078c-21.90399,-0.93184 -39.90493,4.05406 -40.20622,11.1363c-0.30129,7.08225 17.21116,13.57894 39.11515,14.51077z" fill="#7ae7ff" stroke="#250077" stroke-width="2.5" stroke-linecap="butt"/><path d="M245.7795,323.42511c0,0 -4.88751,3.25114 -9.36836,4.73146c-1.15882,0.38284 -7.14387,-0.86137 -14.22637,-0.80353c-5.13364,0.04192 -11.6416,1.46446 -13.46211,1.33019c-4.85301,-0.35793 -13.72159,-6.70377 -13.72159,-6.70377" fill="none" stroke="#250077" stroke-width="2.5" stroke-linecap="round"/><g stroke-linecap="butt"><path d="M181.96013,303.09595c-0.19906,4.6792 7.90487,13.3944 3.46502,13.20552c-2.41485,-0.10273 -17.16676,-12.95621 -17.07597,-15.09037c0.02524,-0.59334 4.09569,-7.00772 5.93233,-6.92959c4.43985,0.18888 7.87768,4.13524 7.67862,8.81444z" fill="#250077" stroke="none" stroke-width="0"/><path d="M221.05225,299.18582c-0.42678,10.03206 -6.17302,17.79586 -15.86975,19.99183c-1.03241,0.23381 -15.88438,-1.24859 -17.53973,-2.06773c-8.59053,-4.25095 -14.31758,-12.96953 -13.93429,-21.97932c0.03166,-0.74419 47.37728,3.26779 47.34377,4.05523z" fill="url(#color-5)" stroke="#250077" stroke-width="2.5"/><path d="M189.26732,296.24396c6.72022,0.65846 14.4593,0.83867 20.59865,1.5749c1.9146,0.2296 -0.92531,14.42516 -11.06718,13.59099c-12.01497,-0.98823 -12.61014,-15.46753 -9.53146,-15.16587z" fill="#ffffff" stroke="#250077" stroke-width="2.5"/></g><g data-paper-data="{&quot;index&quot;:null}" stroke-linecap="butt"><path d="M268.59261,298.62013c1.83663,0.07813 5.3476,6.81504 5.32236,7.40839c-0.09079,2.13416 -15.88105,13.68832 -18.2959,13.58559c-4.43985,-0.18888 4.37499,-8.18433 4.57404,-12.86353c0.19906,-4.6792 3.95965,-8.31932 8.3995,-8.13045z" fill="#250077" stroke="none" stroke-width="0"/><path d="M269.09146,299.51482c-0.38329,9.00979 -6.83012,17.21047 -15.75064,20.71646c-1.71894,0.67559 -16.64315,0.89127 -17.65197,0.57062c-9.4752,-3.01158 -14.54129,-11.23535 -14.11451,-21.26742c0.0335,-0.78744 47.54879,-0.76385 47.51713,-0.01967z" fill="url(#color-6)" stroke="#250077" stroke-width="2.5"/><path d="M253.49426,299.30275c3.09317,-0.03909 1.27043,14.33734 -10.78506,14.30157c-10.17607,-0.03019 -11.80009,-14.41566 -9.87292,-14.48182c6.1797,-0.21215 13.90612,0.26556 20.65798,0.18023z" fill="#ffffff" stroke="#250077" stroke-width="2.5"/></g></g><path d="M149.1104,379.90849v-198.82101h148.98178v198.82101z" fill="none" stroke="none" stroke-width="none" stroke-linecap="butt"/></g></g></svg>