<svg version="1.1" xmlns="http://www.w3.org/2000/svg" xmlns:xlink="http://www.w3.org/1999/xlink" width="168.04277" height="235.87212" viewBox="0,0,168.04277,235.87212"><g transform="translate(-5.33683,-113.28114)"><g data-paper-data="{&quot;isPaintingLayer&quot;:true}" fill-rule="nonzero" stroke-linejoin="miter" stroke-miterlimit="10" stroke-dasharray="" stroke-dashoffset="0" style="mix-blend-mode: normal"><g stroke="#5b2300" stroke-width="2.5" stroke-linecap="butt"><path d="M8.98661,269.19831c0.76431,-0.5931 24.70759,8.96659 26.68647,11.24667c1.24083,1.42971 -9.95859,15.06658 -10.32323,15.51235c-0.19459,0.23789 -11.73507,-6.44043 -16.45229,-12.32761c-4.04077,-5.04296 0.0845,-14.42788 0.08906,-14.43141z" data-paper-data="{&quot;index&quot;:null}" fill="#ffddd0"/><path d="M28.04722,292.05541c0,-1.77314 3.9823,-7.71443 6.90949,-11.03167c0.65368,-0.74078 21.44185,9.75756 21.45652,10.46165c0.0917,4.40181 -5.03265,12.912 -7.72583,11.73701c-5.62302,-2.45322 -20.64018,-11.04346 -20.64018,-11.167z" fill="#9a5438"/><path d="M53.45551,286.98122c0,3.25239 -0.01556,5.46282 -3.45204,5.46282c-3.43648,0 -8.99255,-2.21043 -8.99255,-5.46282c0,-3.25239 2.78581,-5.88897 6.2223,-5.88897c3.43648,0 6.2223,2.63658 6.2223,5.88897z" fill="#a88360"/><path d="M47.28131,303.43683c-4.1615,-0.84715 -16.47042,-5.02038 -16.47042,-8.18169c0,-1.84506 0.36121,-5.81942 4.16598,-5.35227c3.03547,0.3727 10.16859,4.81176 12.52045,6.37221c3.61738,2.40013 2.85109,7.78618 -0.21601,7.16175z" fill="#a88360"/></g><path d="M44.61376,192.19241c0,2.64189 -0.28928,2.05492 -3.94335,8.37498c-5.59878,8.98352 55.7374,11.11601 63.31063,26.77152c3.72714,13.75289 -2.21483,23.80312 -29.0886,23.80312c-0.5655,0 2.0824,-16.95943 2.67128,-17.26354c10.72914,-5.5408 20.40724,3.68644 16.31982,-6.68205c-11.48898,-8.24945 -63.55192,-9.23033 -69.37727,-15.62321c-11.21405,-16.07005 7.40955,-31.70665 10.19325,-31.70665c5.47549,0 9.91425,5.51846 9.91425,12.32583z" fill="#a88360" stroke="#5b2300" stroke-width="2.5" stroke-linecap="butt"/><path d="M74.41769,332.48447c0,-2.39218 2.98299,-5.42042 7.114,-7.83774c0.58116,-0.34008 1.18505,-6.98468 1.80654,-7.2971c3.73467,-1.87739 8.10531,3.12383 12.00327,3.12383c7.6959,0 13.77245,-2.3115 15.64214,1.3767c0.35509,0.70046 0.93899,6.46747 0.93899,7.22577c0,4.48124 -9.15236,11.68637 -9.67233,11.68637c-7.74072,0 -22.25322,0.07726 -26.13093,-3.32074c-0.70973,-0.62193 -1.70168,-4.22206 -1.70168,-4.95711z" fill="#a88360" stroke="#5b2300" stroke-width="2.5" stroke-linecap="butt"/><path d="M80.06857,334.04066c0.17865,0.8759 0.0061,8.32895 -0.53817,9.21189c-2.97364,4.82405 -27.19289,5.14015 -28.50546,4.27164c-3.36465,-2.22632 -7.74967,-6.20869 -8.53315,-10.05007c-0.18429,-0.9036 -1.01379,-7.89237 -0.8361,-8.79802c0.9356,-4.76857 7.45135,-3.2285 14.99201,-4.76648c8.97278,-1.83007 22.26619,4.46964 23.42088,10.13104z" data-paper-data="{&quot;index&quot;:null}" fill="#a88360" stroke="#5b2300" stroke-width="2.5" stroke-linecap="butt"/><path d="M112.23109,316.87119c0,6.0585 -4.13286,9.62259 -10.77437,10.05481c-2.56996,0.16725 -5.33623,-3.09762 -8.21213,-3.86129c-4.28742,-1.13849 -8.57718,-0.33779 -10.87915,-3.48167c-0.34668,-0.47348 -4.83207,-10.72157 -5.67556,-34.48265c-0.0352,-0.9916 1.25078,-41.72663 1.70121,-44.1953c0.63522,-3.48139 16.55761,0.85908 17.36903,0.85908c1.18215,0 3.70367,40.56414 3.98522,42.16769c3.24622,18.48827 12.48575,24.55449 12.48575,32.93933z" fill="#894225" stroke="#5b2300" stroke-width="2.5" stroke-linecap="butt"/><path d="M70.94471,246.78736c-0.62645,24.39442 -6.46313,44.08363 -13.03658,43.97709c-2.34714,-0.03804 -19.62169,-4.42091 -21.35846,-12.58191c-0.42051,-6.15256 3.09497,-3.93947 4.23383,-5.06643c2.29391,-2.26995 5.18872,-9.34737 6.66624,-12.76687c1.24883,-2.89024 2.45682,-6.02093 3.4607,-9.27038c3.92884,-12.71707 7.81441,-28.37193 10.30564,-36.29944c1.18455,-3.76942 1.27101,-4.8016 2.35469,-4.78404c6.57345,0.10655 8.00039,12.39756 7.37393,36.79198z" fill="#ed9555" stroke="#5b2300" stroke-width="2.5" stroke-linecap="butt"/><path d="M62.12123,245.07229c0.81141,0 16.73381,-4.34047 17.36903,-0.85908c0.85002,4.65866 2.41706,38.31779 2.33207,39.49155c-0.1683,2.32431 -9.23322,43.00105 -11.19239,43.48338c-2.18004,0.53671 -6.05159,0.71297 -9.96345,1.6216c-3.09692,0.71934 -6.21912,2.2661 -8.54729,2.22913c-6.02538,-0.09568 -7.76507,-3.45945 -7.76507,-5.84757c0,-8.2974 13.9769,-37.96595 14.29382,-39.71845c3.99435,-22.08711 2.28943,-40.40056 3.47328,-40.40056z" data-paper-data="{&quot;index&quot;:null}" fill="#894225" stroke="#5b2300" stroke-width="2.5" stroke-linecap="butt"/><path d="M169.62195,174.20526c0,1.43203 -4.83987,2.95535 -7.37902,5.85022c-0.54646,0.62301 10.40001,8.53792 9.86787,9.1969c-0.75222,0.93152 -2.35703,4.6797 -3.7259,5.20345c-5.97685,2.28688 -15.92443,-1.84927 -18.21912,-1.84927c-4.91956,0 -8.90765,-3.30591 -8.90765,-7.38396c0,-2.93621 -7.13501,-4.10019 -5.09372,-5.8345c0.79382,-0.67444 11.92067,-8.58182 13.29813,-8.58182c4.91956,0 20.1594,-0.67908 20.1594,3.39897z" fill="#a88360" stroke="#5b2300" stroke-width="2.5" stroke-linecap="butt"/><path d="M158.37019,195.06173c0,0.86096 0.04275,3.29579 -0.73416,4.66056c-0.77041,1.35336 -2.35464,1.63886 -3.74167,1.98226c-7.40257,6.81592 -23.29217,22.93426 -35.01559,24.22255c-3.8314,0.42103 -32.01257,-1.22102 -35.24254,-5.99467c-0.21228,-0.31374 1.17548,-10.73127 1.17548,-10.99294c0,-2.22499 23.68597,-2.97823 32.66579,-3.47996c4.41404,-0.24663 -2.97468,-0.43249 -2.38666,-0.70251c1.16045,-0.53287 9.72709,-15.5192 12.82981,-18.97472c-0.3204,-0.6435 0.39553,-2.5243 1.82456,-3.61262c1.69469,-1.29064 4.20175,-1.75252 4.48058,-1.75252c4.10941,0 17.92523,-1.22429 22.30174,6.80138c0.72493,1.32937 1.84266,6.12356 1.84266,7.84318z" fill="#ed9555" stroke="#5b2300" stroke-width="2.5" stroke-linecap="butt"/><path d="M127.66111,185.78364c-0.27738,0.30894 15.5058,0.99441 21.95264,5.20012c6.21667,4.05555 3.54659,11.89835 4.73685,10.76198" fill="none" stroke="#5b2300" stroke-width="2.5" stroke-linecap="butt"/><g stroke="#5b2300" stroke-width="2.5"><g><path d="M89.42351,244.52985c0.19803,4.82687 2.44897,6.24657 -5.82963,6.5862c-0.27314,0.0112 -14.488,0.57589 -16.64522,-0.00776c-4.24863,-1.1495 -6.48175,-3.29027 -6.54984,-4.94995c-0.05382,-1.31186 1.27393,-3.92596 2.1163,-5.07904c2.25706,-3.08956 5.53146,-4.42697 11.56009,-4.6743c8.2786,-0.33963 15.15027,3.29798 15.3483,8.12485z" fill="#ed9555" stroke-linecap="butt"/><path d="M86.74419,218.92547c0.59055,14.39462 3.40306,23.39804 0.24781,26.07436c-0.20476,0.17368 -11.39028,2.06869 -19.65203,1.29328c-5.15236,-0.48358 -5.90229,-3.74461 -5.8636,-4.03494c0.13635,-1.02331 2.32379,-11.97734 2.70024,-12.99573c0.2669,-0.72206 -0.93347,-16.25195 -0.08106,-20.27783c1.90344,-8.98983 5.58208,-22.84505 9.44933,-23.00371c6.53234,-0.268 12.44187,14.4818 13.19932,32.94457z" fill="#ed9555" stroke-linecap="butt"/><path d="M66.04686,246.58321l-0.56818,3.30626" fill="none" stroke-linecap="round"/></g><path d="M76.3153,250.97694l0.28915,-4.38914" fill="none" stroke-linecap="round"/></g><path d="M73.08335,271.35821c-0.45167,-0.03751 2.32228,-9.65221 4.11431,-21.72601c2.93315,-19.76208 5.98133,-45.88415 8.30612,-45.69108c2.62698,0.21818 5.61213,4.50048 7.50376,10.85391c4.79736,16.11298 6.47346,44.59433 6.28518,46.86137c-0.10599,1.2763 -2.56791,9.40739 -8.16707,10.79207c-0.48626,0.12026 -2.06151,-9.47008 -2.57801,-9.30093c-0.39962,0.13087 -1.69755,4.4423 -5.37446,6.43309c-3.79439,2.05439 -9.96669,1.7878 -10.08982,1.77758z" fill="#ed7b41" stroke="#5b2300" stroke-width="2.5" stroke-linecap="butt"/><path d="M91.37581,206.33842c0.06835,1.66619 2.73911,2.19773 1.6654,3.64875c-2.71902,3.67448 -8.79436,3.33008 -15.79574,3.61731c-9.76617,0.40067 -17.75403,-1.00094 -17.99549,-6.88651c-0.24146,-5.88557 7.47984,-10.98156 17.246,-11.38223c8.12866,-0.33348 14.86809,2.46634 17.12057,6.88363c0.45375,0.88986 -2.28122,3.13221 -2.24074,4.11905z" fill="#ed7b41" stroke="#5b2300" stroke-width="2.5" stroke-linecap="butt"/><g><path d="M27.58593,124.42092c17.17772,0.14733 55.4485,14.55969 55.16068,22.53989c-0.3636,10.08121 -30.17945,45.2502 -37.24434,45.93978c-0.01355,0.00132 -3.8183,-1.52408 -4.44897,-3.26276c-4.37532,-12.06228 -20.98174,-60.2742 -13.46737,-65.2169z" data-paper-data="{&quot;index&quot;:null}" fill="#a88360" stroke="#5b2300" stroke-width="2.5" stroke-linecap="butt"/><path d="M104.45415,183.29137c-6.30648,-0.35191 -34.47551,-32.33287 -35.34691,-42.05698c-0.68979,-7.69752 23.32761,-25.77466 38.56202,-26.6813c6.46098,4.13656 2.46606,47.09448 0.70528,62.9236c-0.40217,3.6155 -3.90254,5.81567 -3.92039,5.81468z" fill="#a88360" stroke="#5b2300" stroke-width="2.5" stroke-linecap="butt"/><path d="M37.38458,176.29347c-1.78478,-19.91687 12.91418,-37.50952 32.83105,-39.29431c19.91687,-1.78478 37.50952,12.91419 39.2943,32.83105c1.78478,19.91687 -13.74946,35.2606 -33.66633,37.04538c-19.91687,1.78478 -36.67424,-10.66526 -38.45902,-30.58213z" fill="#a88360" stroke="#5b2300" stroke-width="2.5" stroke-linecap="butt"/><path d="M54.25943,196.34713c0.25556,1.77808 -7.31751,-0.65827 -11.9331,-2.99544c-2.25872,-1.14374 -3.27981,-2.33982 -3.35445,-2.85916c-0.16179,-1.12563 4.11816,-8.64381 6.63903,-9.00613c2.62698,-0.37758 8.04071,10.63195 8.64852,14.86073z" fill="#5b2300" stroke="none" stroke-width="0" stroke-linecap="butt"/><path d="M53.99602,197.23882c-5.08895,-3.31834 -9.05908,-10.01082 -9.64783,-18.72457c-0.06213,-0.91958 -0.23248,-1.46299 0.02264,-1.56796c4.53041,-1.86404 27.47519,-6.17395 27.53501,-6.12558c4.47758,3.62071 7.81638,18.93858 -1.69003,25.74704c-0.72822,0.52155 -14.4845,1.8026 -16.21979,0.67107z" fill="#ffffff" stroke="#5b2300" stroke-width="2.5" stroke-linecap="butt"/><path d="M80.25358,200.89965c0,0 -1.04042,2.61078 -3.01797,3.57579c-0.36709,0.17913 -2.06885,-1.00579 -3.80355,-0.99023c-1.42458,0.01278 -2.80622,1.28844 -4.0458,0.92094c-2.69704,-0.79961 -4.51459,-3.42701 -4.51459,-3.42701" fill="none" stroke="#5b2300" stroke-width="2.5" stroke-linecap="round"/><path d="M65.65694,185.27202c0,0 -2.18581,0.59 -2.91766,0.02192c-0.99764,-0.77439 -0.58809,-2.80288 -0.21037,-3.12073c2.32286,-1.95468 9.98261,-5.44375 5.74516,6.96274c-0.60758,1.77888 -5.9492,1.95889 -8.19462,0.58258c-7.74718,-4.74856 1.97039,-13.67361 1.97039,-13.67361" fill="none" stroke="#5b2300" stroke-width="2.5" stroke-linecap="round"/><path d="M79.54753,189.39692c-0.75516,-5.25394 19.33716,-23.14594 20.68268,-23.33934c1.34552,-0.1934 3.04847,3.909 3.80363,9.16294c0.07035,0.48941 -10.50847,9.45267 -10.46694,10.07872c0.04634,0.69838 7.65189,-1.07698 7.87712,-0.35392c1.7404,5.58699 0.58539,7.37757 -0.49498,7.53285c-1.34552,0.1934 -20.64633,2.17269 -21.40149,-3.08125z" fill="#5b2300" stroke="none" stroke-width="0" stroke-linecap="butt"/></g><path d="M141.25814,181.58923l-4.21941,4.68823" fill="none" stroke="#5b2300" stroke-width="2.5" stroke-linecap="round"/><path d="M152.74431,194.48187l4.21941,-4.21941" fill="none" stroke="#5b2300" stroke-width="2.5" stroke-linecap="round"/><path d="M52.38034,197.72695c0,0 -0.69771,-0.74213 -1.28043,-0.55862c-0.62127,0.19566 -1.13866,1.31818 -1.43554,1.33304c-0.56967,0.02851 -1.4062,-0.83167 -1.4062,-0.83167" fill="none" stroke="#5b2300" stroke-width="2.5" stroke-linecap="round"/><path d="M103.93945,192.03788c0,0 -0.69772,-0.74214 -1.28043,-0.55862c-0.62127,0.19566 -1.13866,1.31818 -1.43554,1.33304c-0.56968,0.02851 -1.4062,-0.83168 -1.4062,-0.83168" fill="none" stroke="#5b2300" stroke-width="2.5" stroke-linecap="round"/><path d="M58.39061,282.80431c0,0 -7.06939,-2.40428 -9.9892,-3.7227c-3.12731,-1.41212 -8.09356,-5.40047 -8.09356,-5.40047" fill="none" stroke="#5b2300" stroke-width="2.5" stroke-linecap="round"/><path d="M39.03546,281.80771c0,0 0.7399,-2.67214 1.32077,-3.72827c0.52926,-0.9623 2.02405,-2.35323 2.02405,-2.35323" fill="none" stroke="#5b2300" stroke-width="2.5" stroke-linecap="round"/><path d="M56.36771,282.41585c0,0 -0.49259,2.18726 -0.87168,3.32455c-0.42623,1.2787 -1.56091,3.97324 -1.56091,3.97324" fill="none" stroke="#5b2300" stroke-width="2.5" stroke-linecap="round"/></g></g></svg>