<svg version="1.1" xmlns="http://www.w3.org/2000/svg" xmlns:xlink="http://www.w3.org/1999/xlink" width="97.88579" height="97.88579" viewBox="0,0,97.88579,97.88579"><g transform="translate(-271.05716,-131.05713)"><g data-paper-data="{&quot;isPaintingLayer&quot;:true}" fill-rule="nonzero" stroke-linecap="butt" stroke-linejoin="miter" stroke-miterlimit="10" stroke-dasharray="" stroke-dashoffset="0" style="mix-blend-mode: normal"><path d="M368.94295,228.94292h-97.88579v-97.88579h97.88579z" data-paper-data="{&quot;index&quot;:null}" fill="none" stroke="none" stroke-width="0"/><path d="" fill="#8b65ae" stroke="#5c00aa" stroke-width="2.5"/><path d="" fill="#a17cc4" stroke="#5c00aa" stroke-width="2.5"/><path d="" data-paper-data="{&quot;index&quot;:null}" fill="#b867ff" stroke="#5c00aa" stroke-width="2.5"/><path d="" data-paper-data="{&quot;index&quot;:null}" fill="#ffc374" stroke="none" stroke-width="0"/><path d="" data-paper-data="{&quot;index&quot;:null}" fill="none" stroke="#5c00aa" stroke-width="2.5"/><path d="" fill="#a17cc4" stroke="#5c00aa" stroke-width="2.5"/><path d="M325.14981,200.68564c-11.0414,0 -19.99222,-8.95082 -19.99222,-19.99222c0,-11.0414 8.95082,-19.99222 19.99222,-19.99222c11.0414,0 18.35957,8.95082 18.35957,19.99222c0,11.0414 -7.31817,19.99222 -18.35957,19.99222z" data-paper-data="{&quot;index&quot;:null}" fill="#ffac5f" stroke="#964521" stroke-width="2.5"/><path d="M305.5243,180.48268c0,-11.92893 4.15094,-21.59923 9.27137,-21.59923c5.12044,0 9.27137,9.6703 9.27137,21.59923c0,11.92893 -4.15094,21.59923 -9.27137,21.59923c-5.12043,0 -9.27137,-9.6703 -9.27137,-21.59923z" fill="#a3593a" stroke="#964521" stroke-width="2.5"/><path d="M292.48323,180.17704c0,-9.62192 2.87372,-17.42203 6.41864,-17.42203c0.92492,0 13.82636,4.1988 14.62077,5.15461c2.25032,2.70751 2.39373,5.15599 2.39373,12.26742c0,7.16514 -0.57474,10.26352 -2.85236,12.93947c-0.78095,0.91753 -13.25701,4.48255 -14.16214,4.48255c-3.54492,0 -6.41864,-7.8001 -6.41864,-17.42202z" fill="#a3593a" stroke="#964521" stroke-width="2.5"/><g stroke="none" stroke-width="0"><path d="M333.55552,166.0087c3.3074,0 6.93214,1.93489 7.54355,5.02222c0.14368,0.72552 -0.46562,2.03184 -0.61329,2.79983c-0.10616,0.55208 0.84599,0.00814 0.68587,0.52509c-0.27098,0.8749 -1.22189,1.26485 -1.87057,1.94747c-0.34749,0.36567 1.27594,0.0133 0.84249,0.30465c-0.65244,0.43855 -1.25535,0.93257 -2.82186,1.30656c-1.45397,0.34713 -2.93578,0.7277 -3.76619,0.7277c-4.08464,0 -7.3959,-2.8281 -7.3959,-6.31676c0,-3.48865 3.31125,-6.31676 7.3959,-6.31676z" fill="#964521"/><path d="M334.17639,168.77228c2.29761,0 4.1602,1.59082 4.1602,3.55318c0,1.96236 -1.86259,3.55318 -4.1602,3.55318c-2.29761,0 -4.1602,-1.59081 -4.1602,-3.55318c0,-1.96236 1.86259,-3.55318 4.1602,-3.55318z" fill="#ffe1d4"/></g><g data-paper-data="{&quot;index&quot;:null}" stroke="none" stroke-width="0"><path d="M326.707,187.24629c0,-3.48865 3.31126,-6.31676 7.3959,-6.31676c0.83041,0 2.31221,0.38057 3.76619,0.7277c1.56651,0.37399 2.16941,0.86801 2.82185,1.30656c0.43345,0.29135 -1.18997,-0.06102 -0.84249,0.30465c0.64867,0.68262 1.59958,1.07257 1.87057,1.94747c0.16012,0.51695 -0.79202,-0.02698 -0.68587,0.52509c0.14767,0.76799 0.75698,2.0743 0.61329,2.79983c-0.61141,3.08733 -4.23615,5.02222 -7.54355,5.02222c-4.08464,0 -7.3959,-2.82811 -7.3959,-6.31676z" fill="#964521"/><path d="M330.56357,187.24629c0,-1.96236 1.86259,-3.55318 4.1602,-3.55318c2.29761,0 4.16019,1.59081 4.16019,3.55318c0,1.96236 -1.86258,3.55318 -4.16019,3.55318c-2.29761,0 -4.1602,-1.59082 -4.1602,-3.55318z" fill="#ffe1d4"/></g></g></g></svg>