<svg version="1.1" xmlns="http://www.w3.org/2000/svg" xmlns:xlink="http://www.w3.org/1999/xlink" width="212.01489" height="109.28831" viewBox="0,0,212.01489,109.28831"><g transform="translate(-213.59642,-234.24565)"><g data-paper-data="{&quot;isPaintingLayer&quot;:true}" fill-rule="nonzero" stroke-linejoin="miter" stroke-miterlimit="10" stroke-dasharray="" stroke-dashoffset="0" style="mix-blend-mode: normal"><g><path d="M230.11881,333.66115c-1.97197,-14.5735 -9.61964,-71.09251 -10.69819,-79.06339c-0.24792,-1.83221 1.04005,-3.49896 2.89348,-3.74976c8.00527,-1.0832 64.39491,-8.71337 78.99695,-10.6892c2.19517,-0.29703 3.65323,1.06572 3.91035,2.96591c1.10116,8.13796 8.79483,64.16355 10.71134,78.32729c0.27549,2.03602 -1.18496,4.24187 -3.1708,4.51058c-8.25103,1.11646 -64.33697,8.70554 -78.78899,10.66106c-2.16108,0.29242 -3.55917,-0.78254 -3.85415,-2.96249z" fill-opacity="0.74902" fill="#872e0e" stroke="none" stroke-width="0" stroke-linecap="butt"/><g><g stroke="#5b2300" stroke-width="2.5" stroke-linecap="butt"><path d="" data-paper-data="{&quot;index&quot;:null}" fill="#ffddd0"/><path d="" fill="#9a5438"/><path d="" fill="#a88360"/><path d="" fill="#a88360"/></g><path d="M245.49165,296.90737c0.21951,2.00939 -0.04928,1.58698 -2.3034,6.69755c-3.51193,7.29795 43.31678,3.82354 50.37768,15.10168c1.54447,3.94146 1.93371,7.57944 0.63534,10.68608c-0.21459,0.03532 -0.43213,0.06996 -0.65277,0.10363c-6.76251,1.03207 -13.41915,1.76199 -20.11077,2.35477c0.15306,-3.01984 0.38512,-5.8471 0.57889,-5.97558c7.70007,-5.10574 15.82779,1.10825 11.85744,-6.43828c-9.42381,-5.31982 -49.10373,-1.74002 -54.06559,-6.11835c-9.86451,-11.29091 3.00114,-24.73133 5.11839,-24.96263c4.16459,-0.45495 7.99918,3.37351 8.56479,8.55111z" fill="#a88360" stroke="#5b2300" stroke-width="2.5" stroke-linecap="butt"/><path d="" fill="#a88360" stroke="#5b2300" stroke-width="2.5" stroke-linecap="butt"/><path d="" data-paper-data="{&quot;index&quot;:null}" fill="#a88360" stroke="#5b2300" stroke-width="2.5" stroke-linecap="butt"/><path d="" fill="#894225" stroke="#5b2300" stroke-width="2.5" stroke-linecap="butt"/><path d="M275.22969,331.15111c0.17027,-2.37189 9.81034,-1.13469 12.57312,-0.84397c-4.20574,0.54726 -8.38564,0.99435 -12.57435,1.38185c-0.0062,-0.25465 -0.00602,-0.43686 0.00123,-0.53788z" fill="#894225" stroke="#5b2300" stroke-width="2.5" stroke-linecap="butt"/><path d="" fill="#ed9555" stroke="#5b2300" stroke-width="2.5" stroke-linecap="butt"/><path d="M259.99589,312.7073c0.58776,-2.9654 0.56776,-3.75765 1.39345,-3.83433c4.62838,-0.42984 6.7786,7.41944 8.30185,23.29637c-2.94337,0.24013 -5.89853,0.45978 -8.87736,0.6729c-1.27902,0.0915 -2.70396,0.18354 -4.20559,0.30284c1.32132,-7.87236 2.46983,-15.80712 3.38765,-20.43778z" fill="#ed9555" stroke="#5b2300" stroke-width="2.5" stroke-linecap="butt"/><path d="" data-paper-data="{&quot;index&quot;:null}" fill="#894225" stroke="#5b2300" stroke-width="2.5" stroke-linecap="butt"/><path d="M308.46519,278.98955c-1.39622,-1.75997 -6.22643,0.93517 -5.82758,-1.07505c0.15511,-0.78174 3.06444,-10.81243 3.89009,-11.46743c0.53978,-0.42822 1.27602,-1.03452 2.13061,-1.72436c0.08111,0.77402 0.15569,1.44335 0.19336,1.93446c0.31121,4.05802 0.70995,9.18059 1.75742,13.86976c-0.83699,-0.3097 -1.57692,-0.8227 -2.1439,-1.53739z" fill="#a88360" stroke="#5b2300" stroke-width="2.5" stroke-linecap="butt"/><path d="M304.77965,316.39496c-2.87913,0.63858 -24.44981,1.73119 -27.30312,-1.63121c-0.18753,-0.22099 0.00241,-8.25973 -0.01933,-8.45876c-0.18487,-1.6923 17.7678,-4.23325 24.55605,-5.36098c3.33677,-0.55434 -2.29844,-0.08178 -1.87364,-0.33601c0.83835,-0.50172 0.96161,-15.62526 1.77675,-18.86893c0.27734,-1.1036 -0.03686,-1.56757 -0.21239,-3.56027c-0.10233,-1.16163 1.13778,-2.65715 1.63706,-3.13139c1.18172,-1.12246 3.89293,0.0877 4.105,0.06453c2.98981,-0.32662 0.10485,-1.4308 3.47025,3.53507c-0.11758,0.34839 -0.56264,-0.96644 -0.6617,-0.5702c-1.05375,4.21498 3.48309,29.51475 3.87954,33.8199c0.55391,6.01516 -0.12246,0.4167 -2.48832,1.14572c-2.33039,1.64377 -4.65904,2.863 -6.86614,3.35253z" fill="#ed9555" stroke="#5b2300" stroke-width="2.5" stroke-linecap="butt"/><g fill="#ed9555" stroke="#5b2300" stroke-width="2.5" stroke-linecap="butt"><g><path d="M263.16914,332.60272c1.45999,-2.53742 3.83933,-3.8267 8.40408,-4.51573c4.95168,-0.74743 9.44181,0.46575 11.38162,2.80999c-6.59477,0.74925 -13.15859,1.28915 -19.82639,1.77777c0.0137,-0.02468 0.02727,-0.0487 0.04069,-0.07203z"/><path d="M279.75673,313.73963c1.21987,8.08158 3.12261,13.80726 3.13723,17.16427c-6.77018,0.76788 -13.50817,1.31563 -20.35998,1.81427c0.18226,-2.37799 0.74661,-8.56041 0.91702,-9.24125c0.14301,-0.57136 -2.06034,-12.28346 -1.74651,-15.41632c0.70078,-6.99571 2.34749,-17.83947 5.27569,-18.28146c4.94615,-0.7466 10.66641,9.9809 12.77656,23.96051z"/></g></g><path d="M277.56826,302.44579c2.01617,-0.05233 4.64246,2.9567 6.60911,7.63187c2.32817,5.5346 4.36299,13.17547 5.87562,19.92727c-4.95622,0.6868 -9.86822,1.22519 -14.79225,1.68108c0.44225,-14.00386 0.75722,-29.19997 2.30753,-29.24021z" fill="#ed7b41" stroke="#5b2300" stroke-width="2.5" stroke-linecap="butt"/><path d="" fill="#ed7b41" stroke="#5b2300" stroke-width="2.5" stroke-linecap="butt"/><path d="" fill="#ed7b41" stroke="#5b2300" stroke-width="2.5" stroke-linecap="butt"/><path d="M282.23365,303.78125c0.19043,1.26161 2.26594,1.44397 1.56986,2.63681c-1.76274,3.02069 -6.41219,3.26353 -11.71348,4.06373c-7.39473,1.1162 -13.58666,0.71386 -14.25934,-3.74257c-0.67268,-4.45643 4.77663,-8.97393 12.17136,-10.09013c6.15485,-0.92904 11.51341,0.6405 13.59364,3.81307c0.41905,0.63912 -1.47482,2.57187 -1.36203,3.31908z" fill="#ed7b41" stroke="#5b2300" stroke-width="2.5" stroke-linecap="butt"/><g><path d="M270.73676,259.33636c0.56109,7.69786 -19.19433,36.9243 -24.5105,38.0358c-0.0102,0.00213 -3.03078,-0.84194 -3.65493,-2.11195c-3.80282,-7.73806 -17.09765,-35.89922 -16.68555,-45.61185c1.20821,0.3514 2.40308,0.59606 3.16787,0.49303c4.77127,-0.64276 9.55649,-1.56783 14.42472,-2.13962c13.03581,2.33293 26.95839,7.21888 27.25838,11.33458z" data-paper-data="{&quot;index&quot;:null}" fill="#a88360" stroke="#5b2300" stroke-width="2.5" stroke-linecap="butt"/><path d="M290.26589,285.16529c-4.82587,0.25634 -28.90814,-21.72745 -30.37887,-29.05108c-0.48721,-2.42611 2.1656,-6.59434 6.25936,-10.765c8.20168,-0.52242 16.39499,-1.84161 24.45557,-3.36301c1.92727,11.38454 2.17932,29.94987 2.16261,38.43077c-0.00548,2.78332 -2.48501,4.74759 -2.49866,4.74832z" fill="#a88360" stroke="#5b2300" stroke-width="2.5" stroke-linecap="butt"/><path d="M238.67218,285.4155c-3.01235,-15.00022 6.70574,-29.60229 21.70597,-32.61465c15.00023,-3.01235 29.60229,6.70575 32.61464,21.70597c3.01235,15.00023 -7.52791,27.96119 -22.52813,30.97354c-15.00022,3.01235 -28.78013,-5.06465 -31.79248,-20.06487z" fill="#a88360" stroke="#5b2300" stroke-width="2.5" stroke-linecap="butt"/><path d="M253.17324,299.26595c0.34211,1.33115 -5.6203,0.10733 -9.32505,-1.28679c-1.81299,-0.68224 -2.689,-1.50712 -2.78892,-1.89592c-0.21659,-0.8427 2.41402,-6.91655 4.30126,-7.40158c1.96668,-0.50545 6.99906,7.41844 7.81271,10.58429z" fill="#5b2300" stroke="none" stroke-width="0" stroke-linecap="butt"/><path d="M253.04698,299.96605c-4.14631,-2.10106 -7.72201,-6.8614 -8.89382,-13.44004c-0.12366,-0.69426 -0.29838,-1.09342 -0.11306,-1.19446c3.29089,-1.79419 20.3843,-6.97871 20.43382,-6.94689c3.70643,2.38183 7.51863,13.755 0.85388,19.7233c-0.51054,0.45719 -10.86696,2.57453 -12.28081,1.85809z" fill="#ffffff" stroke="#5b2300" stroke-width="2.5" stroke-linecap="butt"/><path d="M273.32227,300.56872c0,0 -0.5744,2.07218 -1.99832,2.97046c-0.26432,0.16675 -1.65711,-0.59309 -2.97521,-0.43712c-1.08245,0.12808 -2.02732,1.21314 -3.00066,1.03662c-2.11777,-0.38408 -3.71849,-2.23143 -3.71849,-2.23143" fill="none" stroke="#5b2300" stroke-width="2.5" stroke-linecap="round"/><path d="M260.92182,289.89536c0,0 -1.61348,0.63036 -2.21731,0.2591c-0.82313,-0.5061 -0.68018,-2.08297 -0.4193,-2.3561c1.60433,-1.67971 7.14033,-4.96989 4.94822,4.81841c-0.31432,1.40348 -4.36212,1.98422 -6.18432,1.12399c-6.28696,-2.96799 0.36253,-10.56369 0.36253,-10.56369" fill="none" stroke="#5b2300" stroke-width="2.5" stroke-linecap="round"/><path d="M271.82952,291.87855c-1.01091,-3.93333 12.78444,-19.21122 13.79175,-19.47011c1.00731,-0.25889 2.64342,2.71985 3.65433,6.65318c0.09417,0.36639 -7.2072,8.06272 -7.1236,8.53543c0.09327,0.52733 5.73045,-1.45492 5.96183,-0.92369c1.78794,4.10479 1.05824,5.56265 0.24942,5.77052c-1.00731,0.25889 -15.52282,3.368 -16.53373,-0.56533z" fill="#5b2300" stroke="none" stroke-width="0" stroke-linecap="butt"/></g><path d="M251.85867,300.47156c0,0 -0.59233,-0.50648 -1.02029,-0.31849c-0.45628,0.20043 -0.75652,1.0972 -0.98109,1.13317c-0.43092,0.06902 -1.13864,-0.51572 -1.13864,-0.51572" fill="none" stroke="#5b2300" stroke-width="2.5" stroke-linecap="round"/><path d="M290.60118,291.86054c0,0 -0.59234,-0.50649 -1.0203,-0.31849c-0.45628,0.20043 -0.75653,1.0972 -0.98109,1.13317c-0.43093,0.06902 -1.13864,-0.51572 -1.13864,-0.51572" fill="none" stroke="#5b2300" stroke-width="2.5" stroke-linecap="round"/><path d="M310.9508,285.4468l-8.34317,-4.04517" fill="none" stroke="#5b2300" stroke-width="2.5" stroke-linecap="round"/><path d="M305.97856,282.66575c0,0 -0.38855,-2.27095 -0.17179,-3.35477c0.20381,-1.01905 1.43591,-2.96581 1.43591,-2.96581" fill="none" stroke="#5b2300" stroke-width="2.5" stroke-linecap="round"/></g><path d="M230.11881,333.66115c-1.97197,-14.5735 -9.61964,-71.09251 -10.69819,-79.06339c-0.24792,-1.83221 1.04005,-3.49896 2.89348,-3.74976c8.00527,-1.0832 64.39491,-8.71337 78.99695,-10.6892c2.19517,-0.29703 3.65323,1.06572 3.91035,2.96591c1.10116,8.13796 8.79483,64.16355 10.71134,78.32729c0.27549,2.03602 -1.18496,4.24187 -3.1708,4.51058c-8.25103,1.11646 -64.33697,8.70554 -78.78899,10.66106c-2.16108,0.29242 -3.55917,-0.78254 -3.85415,-2.96249z" fill="none" stroke="#872d0d" stroke-width="6.5" stroke-linecap="butt"/><path d="M225.13724,343.53396l-11.54082,-97.36525l95.7547,-11.92306l13.38061,96.79916z" fill="none" stroke="none" stroke-width="0" stroke-linecap="butt"/></g><path d="M225.13724,343.53396l-11.54082,-97.36525l95.7547,-11.92306l13.38061,96.79916z" fill="none" stroke="none" stroke-width="0" stroke-linecap="butt"/><text transform="translate(329.8984,278.37322) scale(0.49479,0.49479)" font-size="40" xml:space="preserve" fill="#2a0745" fill-rule="nonzero" stroke="none" stroke-width="1" stroke-linecap="butt" stroke-linejoin="miter" stroke-miterlimit="10" stroke-dasharray="" stroke-dashoffset="0" font-family="&quot;Neon&quot;, Sans Serif" font-weight="normal" text-anchor="start" style="mix-blend-mode: normal"><tspan x="0" dy="0">Died to: </tspan></text><text transform="translate(328.61149,307.05292) scale(0.84716,0.84716)" font-size="40" xml:space="preserve" fill="#2a0745" fill-rule="nonzero" stroke="none" stroke-width="1" stroke-linecap="butt" stroke-linejoin="miter" stroke-miterlimit="10" stroke-dasharray="" stroke-dashoffset="0" font-family="&quot;Neon&quot;, Sans Serif" font-weight="normal" text-anchor="start" style="mix-blend-mode: normal"><tspan x="0" dy="0">Nekuu</tspan></text></g></g></svg>