<svg version="1.1" xmlns="http://www.w3.org/2000/svg" xmlns:xlink="http://www.w3.org/1999/xlink" width="109.13531" height="109.28831" viewBox="0,0,109.13531,109.28831"><g transform="translate(-62.85375,-39.47817)"><g data-paper-data="{&quot;isPaintingLayer&quot;:true}" fill-rule="nonzero" stroke-linejoin="miter" stroke-miterlimit="10" stroke-dasharray="" stroke-dashoffset="0" style="mix-blend-mode: normal"><path d="M79.68951,138.89367c-1.97196,-14.5735 -9.61964,-71.09251 -10.69819,-79.06339c-0.24792,-1.83221 1.04004,-3.49896 2.89348,-3.74975c8.00527,-1.08321 64.39492,-8.71338 78.99695,-10.6892c2.19517,-0.29703 3.65324,1.06571 3.91035,2.96591c1.10116,8.13796 8.79483,64.16355 10.71134,78.32729c0.2755,2.03602 -1.18496,4.24187 -3.1708,4.51058c-8.25103,1.11646 -64.33697,8.70554 -78.78899,10.66106c-2.16108,0.29242 -3.55917,-0.78255 -3.85414,-2.9625z" fill-opacity="0.74902" fill="#7d2071" stroke="none" stroke-width="0" stroke-linecap="butt"/><path d="M74.39457,148.76648l-11.54082,-97.36525l95.7547,-11.92306l13.38061,96.79916z" fill="none" stroke="none" stroke-width="0" stroke-linecap="butt"/><g><path d="" fill="#614b94" stroke="#5f0d63" stroke-width="2.5" stroke-linecap="butt"/><path d="" fill="#5c3160" stroke="#5f0d63" stroke-width="2.5" stroke-linecap="butt"/><path d="" fill="#614b94" stroke="#5f0d63" stroke-width="2.5" stroke-linecap="butt"/><path d="" fill="#5c3160" stroke="#5f0d63" stroke-width="2.5" stroke-linecap="butt"/><path d="" data-paper-data="{&quot;index&quot;:null}" fill="#6a4a6d" stroke="#5f0d63" stroke-width="2.5" stroke-linecap="butt"/><path d="M130.96568,126.67984c0.13079,-0.12865 2.60538,-0.84667 6.17916,1.32126c1.80171,1.09295 4.51821,2.78452 7.46108,4.62016c-2.99316,0.29542 -5.98309,0.57806 -8.96839,0.86901c-2.92396,-3.77028 -4.76051,-6.72321 -4.67185,-6.81043z" data-paper-data="{&quot;index&quot;:null}" fill="#803686" stroke="#5f0d63" stroke-width="2.5" stroke-linecap="butt"/><path d="M114.75897,133.40218c-1.07287,-3.38775 -0.97994,-5.94817 -0.85629,-6.10894c2.04093,-2.65374 5.83101,-4.68413 9.14895,-5.51336c3.44438,-0.86084 6.62828,-0.98874 9.76759,0.52185c0.91423,0.43993 2.38525,5.07247 3.6331,9.63411c0.091,0.33267 0.22132,0.83432 0.37519,1.4389c-7.11714,0.68899 -14.20902,1.40929 -21.25671,2.44631c-0.29212,-0.83041 -0.56647,-1.64409 -0.81183,-2.41887z" fill="#803686" stroke="#5f0d63" stroke-width="2.5" stroke-linecap="butt"/><path d="M130.76698,131.13592c-0.06967,-0.22004 -8.93513,-9.0512 -7.71536,-9.35606c3.44438,-0.86084 6.62828,-0.98874 9.76759,0.52185c0.91423,0.43993 2.38525,5.07246 3.6331,9.63411c0.091,0.33267 0.22132,0.83432 0.37519,1.43891c-3.3362,0.32297 -6.66684,0.65282 -9.98999,1.01894c1.6134,-1.20675 4.08001,-2.78238 3.92947,-3.25775z" fill="#b058b5" stroke="none" stroke-width="0" stroke-linecap="butt"/><path d="M115.57078,135.82105c-0.29212,-0.83041 -0.56647,-1.6441 -0.81183,-2.41888c-1.07287,-3.38775 -0.97994,-5.94817 -0.85629,-6.10894c2.04093,-2.65374 5.83101,-4.68413 9.14895,-5.51336c3.44438,-0.86084 6.62828,-0.98874 9.76759,0.52185c0.91423,0.43993 2.38525,5.07247 3.6331,9.63411c0.091,0.33267 0.22132,0.83432 0.37519,1.43891" fill="none" stroke="#5f0d63" stroke-width="2.5" stroke-linecap="butt"/><path d="M118.00057,124.74082c-0.09623,-0.13054 -2.05873,-4.82659 -1.61645,-7.4983c0.3922,-2.36914 3.08752,-2.73999 4.51593,-2.97567c3.03926,-0.50146 6.71265,2.75209 7.3574,6.65972c0.59162,3.58563 -8.23549,6.55692 -10.2569,3.81426z" fill="#6a4a6d" stroke="#5f0d63" stroke-width="2.5" stroke-linecap="butt"/><path d="M141.73637,83.95675c0.02393,0.60391 -4.05222,0.5837 -8.17287,-1.84181c-1.91082,-1.12474 -3.92506,-3.47634 -5.37535,-5.24409c-3.33367,-4.06338 -4.66373,-8.6543 -4.59784,-9.79326c0.28911,-4.99684 5.10102,-12.57216 8.99835,-17.79917c2.23799,0.05868 4.5047,0.01857 6.76798,-0.13486c1.39226,9.80674 2.15964,29.25521 2.37973,34.81318z" data-paper-data="{&quot;index&quot;:null}" fill="#ff3ef9" stroke="#5f0d63" stroke-width="2.5" stroke-linecap="butt"/><path d="M86.01096,98.40189c-5.3741,-5.92394 -18.27375,-39.36732 -14.63724,-40.47885c1.13163,-0.3459 15.75162,9.01466 22.41899,14.79746c0.92592,0.80307 2.86376,5.18996 2.15395,10.62674c-0.3088,2.36521 -0.81513,5.57285 -2.12265,7.78976c-2.8197,4.78071 -7.38826,7.73312 -7.81303,7.26488z" data-paper-data="{&quot;index&quot;:null}" fill="#ff3ef9" stroke="#5f0d63" stroke-width="2.5" stroke-linecap="butt"/><path d="M85.63784,95.99993c-2.21912,-15.88624 8.86026,-30.56354 24.74648,-32.78267c15.88624,-2.21912 30.56353,8.86026 32.78267,24.74649c2.21914,15.88624 -8.86026,30.56354 -24.74648,32.78267c-15.88624,2.21912 -30.56354,-8.86026 -32.78267,-24.74648z" data-paper-data="{&quot;index&quot;:null}" fill="#6a4a6d" stroke="#5f0d63" stroke-width="2.5" stroke-linecap="butt"/><path d="M121.80917,63.68819c10.98378,2.89332 19.70641,12.12508 21.37611,24.07811c1.76877,12.66225 -2.43517,20.58633 -12.6738,24.03377c-3.00611,1.01218 -9.69759,-4.49165 -14.09264,-11.83282c-2.04029,-3.40796 -6.95816,-21.7815 -6.22461,-24.68537c2.16242,-8.56012 10.28149,-11.94495 11.61494,-11.59368z" data-paper-data="{&quot;index&quot;:null}" fill="#946798" stroke="none" stroke-width="0" stroke-linecap="butt"/><path d="M85.61949,96.19737c-2.21912,-15.88624 8.86026,-30.56353 24.74649,-32.78266c15.88624,-2.21912 30.56353,8.86024 32.78267,24.74648c2.21914,15.88624 -8.86026,30.56353 -24.74649,32.78267c-15.88624,2.21912 -30.56353,-8.86026 -32.78266,-24.74649z" data-paper-data="{&quot;index&quot;:null}" fill="none" stroke="#5f0d63" stroke-width="2.5" stroke-linecap="butt"/><g data-paper-data="{&quot;index&quot;:null}" stroke-linecap="butt"><path d="M147.55737,90.02423c0.61982,2.82194 -0.67125,5.55049 -2.88369,6.09438c-2.21245,0.54389 -4.50846,-1.30277 -5.12828,-4.12471c-0.61982,-2.82194 0.67125,-5.55049 2.8837,-6.09438c2.21244,-0.54392 4.50845,1.30277 5.12827,4.12471z" fill="#5f0d63" stroke="none" stroke-width="0"/><path d="M131.8797,77.23426c5.51099,-1.35483 11.09333,4.38498 12.92918,12.74324c1.74059,7.92455 -2.48968,15.92272 -7.45978,17.83332c-0.27201,0.10457 1.46478,-0.3789 1.17881,-0.3086c-5.51099,1.35483 -11.46679,-4.32258 -13.30265,-12.68085c-1.83585,-8.35827 1.14344,-16.23231 6.65444,-17.58714z" fill="#ffffff" stroke="#5f0d63" stroke-width="2.5"/></g><g data-paper-data="{&quot;index&quot;:null}" stroke-linecap="butt"><path d="M99.07138,102.13974c3.03362,-0.96091 6.23641,0.60758 7.15364,3.5033c0.91723,2.89572 -0.79843,6.02214 -3.83204,6.98305c-3.03362,0.96091 -6.23641,-0.60758 -7.15364,-3.5033c-0.91723,-2.89572 0.79843,-6.02214 3.83206,-6.98305z" fill="#5f0d63" stroke="none" stroke-width="0"/><path d="M124.97204,97.17737c2.71675,8.57687 -1.20663,17.47012 -8.76309,19.86365c-7.55646,2.39354 -15.88454,-2.61904 -18.60128,-11.19589c-2.71676,-8.57687 1.20663,-17.47011 8.76307,-19.86365c7.55646,-2.39354 15.88455,2.61904 18.60129,11.19591z" fill="#ffffff" stroke="#5f0d63" stroke-width="2.5"/></g><g data-paper-data="{&quot;index&quot;:null}" stroke="none" stroke-width="0" stroke-linecap="butt"><path d="M109.24632,95.73917c2.63016,-0.8331 5.52481,0.8988 6.46543,3.86833c0.9406,2.96953 -0.42904,6.05217 -3.05919,6.88527c-2.63016,0.8331 -5.52481,-0.89879 -6.46543,-3.86832c-0.9406,-2.96951 0.42904,-6.05218 3.05919,-6.88529z" fill="#5f0d63"/><path d="M110.64729,98.75284c1.24438,-0.39416 2.58718,0.34093 2.99926,1.64186c0.41208,1.30093 -0.26264,2.67508 -1.50701,3.06924c-1.24438,0.39416 -2.58719,-0.34094 -2.99927,-1.64187c-0.41208,-1.30093 0.26265,-2.67507 1.50701,-3.06923z" fill="#ffffff"/></g><g data-paper-data="{&quot;index&quot;:null}" stroke="none" stroke-width="0" stroke-linecap="butt"><path d="M129.9887,87.87145c2.15145,-0.70213 4.59686,1.0028 5.46194,3.80808c0.86508,2.80529 -0.17775,5.64859 -2.32921,6.35072c-2.15145,0.70213 -4.59686,-1.0028 -5.46194,-3.80808c-0.86508,-2.80529 0.17775,-5.64859 2.32921,-6.35072z" fill="#5f0d63"/><path d="M130.9972,90.83192c1.01789,-0.3322 2.1503,0.3948 2.52928,1.62377c0.37899,1.22898 -0.13895,2.49457 -1.15684,2.82676c-1.01789,0.3322 -2.1503,-0.3948 -2.52927,-1.62378c-0.37899,-1.22898 0.13894,-2.49456 1.15683,-2.82675z" fill="#ffffff"/></g><g data-paper-data="{&quot;index&quot;:null}" stroke="#5f0d63" stroke-width="2.5" stroke-linecap="butt"><path d="M135.55621,60.77106c0.52383,1.71377 0.35329,4.70809 -3.2598,8.4219c-4.31746,4.43778 -12.8785,9.73493 -21.87171,12.80959c-18.79599,6.42605 -27.0674,3.56788 -28.81233,-0.99257c-1.80426,-3.87798 6.33984,-13.22084 22.28926,-19.3726c16.28842,-6.28252 30.5048,-4.62795 31.65458,-0.86633z" fill="#662b69"/><path d="M86.09079,71.8233c-2.81489,-4.06896 -6.02396,-9.53436 -8.90825,-14.87255c2.37162,-0.26933 4.53259,-0.62503 5.74129,-0.77135c7.79004,-0.94305 15.49641,-2.00426 23.28335,-3.30734c4.36546,-0.73053 9.70315,-0.5487 13.92255,-2.17794c0.33595,-0.08348 0.64398,-0.15215 0.91275,-0.19524c1.16368,-0.18659 2.43411,-0.34477 3.72847,-0.55149c0.37387,3.78277 0.70518,7.16466 1.04922,9.59398c0.02009,0.33259 0.88229,1.74855 0.32803,2.68803c-0.83245,1.41108 -39.44196,10.4836 -40.05745,9.59392z" fill="#662b69"/><path d="" fill="#662b69"/><path d="M82.31755,64.41715c-0.06648,-0.09252 6.47745,4.62675 7.90101,4.52466c3.49362,-0.25053 9.70421,-2.49493 15.00261,-4.00595c15.68653,-4.47353 19.62035,-12.32402 19.66021,-12.111c0.46906,2.50621 0.8463,4.75779 1.10157,6.56024c0.02009,0.33259 0.33004,4.94093 -2.53408,7.57348c-2.99076,2.74895 -9.02038,6.02849 -14.36336,8.29554c-16.53817,5.11238 -21.33874,2.15239 -21.85524,0.62184c-1.13273,-3.35659 -3.20811,-9.08688 -4.91272,-11.45879z" fill="#a1a7ff"/></g><path d="M132.12935,111.01771c0,0 -0.65935,4.61638 -1.35278,4.82697c-0.77463,0.23527 -5.03785,-3.13752 -5.03785,-3.13752" fill="none" stroke="#5f0d63" stroke-width="2.5" stroke-linecap="round"/><path d="" fill="#803686" stroke="#5f0d63" stroke-width="2.5" stroke-linecap="butt"/><path d="M112.37797,131.09012c2.02439,-4.36059 5.71401,-5.9156 5.86468,-2.43782c0.06776,1.56413 0.19007,4.12933 0.22596,6.75977c-2.8854,0.3906 -5.76386,0.82757 -8.63408,1.33043c0.9555,-2.16104 1.83469,-4.1257 2.54345,-5.65237z" fill="#803686" stroke="#5f0d63" stroke-width="2.5" stroke-linecap="butt"/><path d="" fill="#6a4a6d" stroke="#5f0d63" stroke-width="2.5" stroke-linecap="butt"/><g fill="#a1a7ff" stroke="#5f0d63" stroke-width="2.5" stroke-linecap="butt"><path d="M128.80825,126.79667c-0.76593,-3.68291 2.16945,-6.92261 3.42662,-7.16407c0.37774,-0.07256 1.0362,1.02385 1.73572,2.89475c0.16554,0.44275 -0.19295,1.31675 -0.02879,1.82745c0.27519,0.85622 1.06599,1.3922 1.28965,2.28612c0.19248,0.76928 0.35483,1.51697 0.46807,2.18185c0.28749,1.68812 -6.12531,1.65679 -6.89126,-2.02611z"/><path d="M124.35662,128.6158c0.7988,2.20247 0.11151,4.50049 -0.9719,6.17289c-1.43852,0.17118 -2.87549,0.3511 -4.31078,0.54215c-0.17264,-0.4853 -0.34519,-0.99317 -0.51479,-1.51325c-0.40071,-1.22873 -0.0589,-2.51584 -0.38868,-3.74381c-0.19671,-0.73245 -1.10003,-1.4501 -1.24995,-2.10454c-0.63353,-2.76556 -0.78452,-4.59453 -0.4011,-4.82659c1.27607,-0.77235 6.04847,0.54124 7.8372,5.47315z" data-paper-data="{&quot;index&quot;:null}"/><path d="M126.11467,124.26124c1.70265,-0.32703 3.24357,0.18023 3.69227,2.33773c0.4487,2.1575 -0.68972,3.58564 -2.39237,3.91267c-1.70265,0.32703 -3.32481,-0.57089 -3.77352,-2.72837c-0.4487,-2.15751 0.77096,-3.19499 2.47361,-3.52201z"/></g></g><path d="M79.68951,138.89367c-1.97196,-14.5735 -9.61964,-71.09251 -10.69819,-79.06339c-0.24792,-1.83221 1.04004,-3.49896 2.89348,-3.74975c8.00527,-1.08321 64.39492,-8.71338 78.99695,-10.6892c2.19517,-0.29703 3.65324,1.06571 3.91035,2.96591c1.10116,8.13796 8.79483,64.16355 10.71134,78.32729c0.2755,2.03602 -1.18496,4.24187 -3.1708,4.51058c-8.25103,1.11646 -64.33697,8.70554 -78.78899,10.66106c-2.16108,0.29242 -3.55917,-0.78255 -3.85414,-2.9625z" fill="none" stroke="#7d2070" stroke-width="6.5" stroke-linecap="butt"/></g></g></svg>