<svg version="1.1" xmlns="http://www.w3.org/2000/svg" xmlns:xlink="http://www.w3.org/1999/xlink" width="312.31232" height="338.70968" viewBox="0,0,312.31232,338.70968"><g transform="translate(-172.1021,-9.89441)"><g data-paper-data="{&quot;isPaintingLayer&quot;:true}" fill-rule="nonzero" stroke-linejoin="miter" stroke-miterlimit="10" stroke-dasharray="" stroke-dashoffset="0" style="mix-blend-mode: normal"><path d="M334.85867,157.27668c0.40903,-6.43813 -4.13168,-11.56696 1.07563,-11.23612c0.90612,0.05757 20.385,-0.71737 22.80924,3.16383c1.44308,2.31036 1.67501,10.69414 -3.20127,15.94615c-1.19485,1.28692 -14.57524,-3.17656 -15.55788,-3.23899c0,0 -5.53476,1.80327 -5.12573,-4.63486z" fill="#8194ff" stroke="#252674" stroke-width="2.5" stroke-linecap="butt"/><path d="M227.40654,102.51022c-1.65611,-1.71184 -11.80399,-8.2866 -12.55094,-13.23639c-0.78289,-5.18793 6.42154,-12.99695 11.90107,-16.60844c2.51305,-1.65631 14.24534,12.81304 15.79512,11.35577c1.29768,-1.2202 1.51131,-4.30332 2.54965,-6.03997c0.38636,-0.64621 1.97425,-1.39376 2.20778,-1.37484c2.73986,0.22172 6.6703,4.94259 7.03476,5.53743c1.96465,3.20652 -2.78046,16.18067 -5.65058,19.22411c-0.77615,0.82303 -1.94366,1.90212 -3.03779,2.56068c-5.89071,3.54559 -14.06111,2.91056 -18.24908,-1.41835z" fill="#8194ff" stroke="#252674" stroke-width="2.5" stroke-linecap="butt"/><path d="M430.179,165.24559c-0.40128,-1.21234 -0.58432,-2.79159 -0.63719,-3.92162c-0.19555,-4.17874 4.65439,-17.11408 8.23365,-18.26752c0.66399,-0.21398 6.72124,-1.23611 8.94464,0.38021c0.18953,0.13776 0.90749,1.73924 0.77976,2.48121c-0.34326,1.99406 -2.18928,4.47266 -1.99936,6.24375c0.2268,2.11518 18.55352,-1.22245 19.3816,1.67119c1.80555,6.30937 2.18597,16.92727 -1.78716,20.35392c-3.79074,3.26935 -15.77323,1.64859 -18.14486,1.86884c-5.99737,0.55699 -12.61062,-4.2828 -14.7711,-10.80997z" data-paper-data="{&quot;index&quot;:null}" fill="#8194ff" stroke="#252674" stroke-width="2.5" stroke-linecap="butt"/><path d="M259.44972,89.6503c0.09887,0.20892 73.30961,67.0264 72.99302,67.17623c-1.13433,0.53688 -4.66378,11.92984 -7.49603,11.38778c-1.03597,-0.19827 -62.94792,-36.47202 -89.3368,-53.53663c-7.70166,-4.98035 -9.17469,-9.49908 -9.19884,-9.55013c-1.23422,-2.60775 31.80443,-18.08503 33.03863,-15.47728z" fill="#475ac7" stroke="#252674" stroke-width="2.5" stroke-linecap="butt"/><path d="M429.71592,144.80703c2.63501,-1.17485 17.62364,32.08832 14.98862,33.26316c-0.05158,0.02299 -4.1125,2.49235 -13.20032,1.25508c-20.139,-2.74188 -56.78655,-9.06502 -80.41213,-13.33192c-1.3388,-0.2418 1.28469,-5.6025 2.84905,-10.66854c1.25397,-4.06089 1.3218,-8.06742 1.90312,-8.08716c29.32625,-0.99636 73.7304,-2.36761 73.87164,-2.43061z" data-paper-data="{&quot;index&quot;:null}" fill="#475ac7" stroke="#252674" stroke-width="2.5" stroke-linecap="butt"/><path d="M311.56864,194.60104c4.75843,-7.65953 8.63751,-4.3202 10.92399,-3.43512c2.60532,1.00853 7.04611,3.66259 4.62542,14.68134c-1.85578,8.44718 -27.7485,85.18354 -37.15375,110.21334c-1.10309,2.93561 -39.09101,-3.23416 -39.50714,-8.69858c-1.25127,-16.43127 17.58979,-12.47552 17.60118,-12.50567c0,0 40.60239,-95.57449 43.51031,-100.2553z" data-paper-data="{&quot;index&quot;:null}" fill="#8194ff" stroke="#252674" stroke-width="2.5" stroke-linecap="butt"/><path d="M342.21031,203.78751c0.93324,4.71504 8.36021,85.5151 10.25615,105.87297c0.27771,2.9819 14.01034,3.73933 17.07263,16.00924c0.82324,3.29854 -0.64077,9.70999 -1.08391,14.6413c-0.1701,1.89289 -32.02967,2.9536 -36.25093,-0.86772c-3.80788,-3.44709 -11.60474,-14.19304 -11.6525,-19.59191c-0.0692,-7.82074 2.08161,-40.67232 3.51609,-69.77312c1.09291,-22.17147 1.43408,-42.36124 2.03468,-46.49637c1.62155,-11.16436 4.30403,-6.83721 7.09764,-6.86192c2.45171,-0.0217 7.25933,-1.77809 9.01017,7.06756z" data-paper-data="{&quot;index&quot;:null}" fill="#8194ff" stroke="#252674" stroke-width="2.5" stroke-linecap="butt"/><path d="M316.6739,174.89782c0.03827,-0.60244 0.59757,-18.52833 0.77686,-26.33372c0.06738,-2.93303 8.2217,-7.97689 13.22653,-7.65892c4.42335,0.28103 9.19923,2.37839 12.16633,6.10399c2.25779,2.83498 -4.22023,25.00687 -3.55091,29.872c0.00128,0.00935 5.58484,21.21631 4.52703,21.86076c-2.04288,1.24456 -16.27752,5.5204 -16.37276,5.51988c-1.29457,-0.00694 -16.63494,-7.36942 -16.58231,-8.80475c0.03837,-1.04586 5.73174,-19.33954 5.80923,-20.55925z" fill="#b3bfff" stroke="#252674" stroke-width="2.5" stroke-linecap="butt"/><path d="M333.69974,177.60425c0.62717,-13.17569 -0.2764,-27.22498 0.05587,-28.54747c1.17451,-4.67479 3.9324,-3.99375 6.43445,-3.83479c1.10698,0.07033 4.76389,6.27132 4.52487,11.31138c-0.46408,9.78482 -0.58102,26.07905 -0.52614,26.39035c0.34183,1.9382 12.03235,39.3973 12.02134,39.57043c-0.47772,7.51933 -2.30444,12.9756 -4.76054,15.98395c-0.60378,0.73955 -3.48613,-2.55292 -3.95472,-1.8743c-4.45435,6.45074 -9.34682,3.84188 -13.44228,-4.41238c-2.95721,-5.96017 -4.04001,-16.15621 -3.41942,-25.92412c0.50293,-7.91607 2.54138,-17.62997 3.06656,-28.66304z" fill="#475ac7" stroke="#252674" stroke-width="2.5" stroke-linecap="butt"/><path d="M321.15512,173.81261c-1.6622,9.90694 -1.73432,18.93515 -2.81559,26.06769c-1.3342,8.80111 -4.25462,17.65222 -8.01358,22.37525c-5.20581,6.54093 -10.0275,7.91019 -12.71681,1.31323c-0.28292,-0.694 -3.46179,1.67277 -3.85232,0.8984c-1.58858,-3.15004 -2.14987,-8.35343 -1.1228,-15.12851c0.02365,-0.15599 17.56134,-31.17758 18.23656,-32.83372c0.10843,-0.266 3.14471,-14.7693 4.62033,-23.55508c0.76009,-4.52546 5.18315,-9.32675 6.17393,-9.17447c2.2394,0.34418 4.80524,0.27401 4.94137,4.65636c0.03853,1.23976 -3.46611,13.54999 -5.45109,25.38087z" data-paper-data="{&quot;index&quot;:null}" fill="#475ac7" stroke="#252674" stroke-width="2.5" stroke-linecap="butt"/><path d="M339.28498,145.22179c-0.20212,3.18139 -4.39815,4.34749 -9.46238,4.02574c-5.06423,-0.32174 -9.07895,-2.00951 -8.87683,-5.19088c0.20212,-3.18139 4.44206,-5.03873 9.50631,-4.71699c5.06423,0.32174 9.03503,2.70075 8.83291,5.88212z" fill="#475ac7" stroke="#252674" stroke-width="2.5" stroke-linecap="butt"/><path d="M330.36048,133.2756c4.75222,0.30192 6.01963,4.97256 5.75126,9.19676c-0.10062,1.5838 -2.15113,2.76961 -4.24793,3.0468c-3.49564,0.46211 -7.70798,-1.08332 -7.54022,-3.7237c0.26837,-4.22419 1.28466,-8.82178 6.03689,-8.51985z" fill="#b3bfff" stroke="#252674" stroke-width="2.5" stroke-linecap="butt"/><path d="M338.31223,25.43833c0.24068,0.01872 12.12185,16.08117 15.26964,20.87267c0.70905,1.0793 2.0575,12.02129 2.42342,17.09634c0.58377,8.09683 -2.181,12.11752 -2.22769,12.48771c-1.90357,15.08676 -15.2858,6.09084 -19.72428,5.74571c-4.93623,-0.38382 -12.00533,-11.38607 -10.78957,-27.42991c0.01756,-0.23147 7.92729,-26.28812 9.99598,-27.98194c0,0 4.17519,-0.8588 5.0525,-0.79059z" data-paper-data="{&quot;index&quot;:null}" fill="#8194ff" stroke="#252674" stroke-width="2.5" stroke-linecap="butt"/><path d="M330.78764,139.45279c-23.78293,-1.8493 -39.49184,-21.71333 -37.73806,-44.85702c1.75378,-23.1437 18.14055,-40.48165 41.9235,-38.63236c23.78293,1.8493 37.77045,21.54907 36.01664,44.69278c-1.75378,23.1437 -16.41915,40.64591 -40.20211,38.79662z" data-paper-data="{&quot;index&quot;:null}" fill="#b3bfff" stroke="#252674" stroke-width="2.5" stroke-linecap="butt"/><path d="M293.34671,95.0845c1.75378,-23.1437 18.14054,-40.48165 41.92349,-38.63236c23.78293,1.8493 37.77046,21.54908 36.01668,44.69277c-0.1855,2.44799 -3.92306,16.07601 -4.8971,16.53502c-8.1989,3.86359 -35.02582,8.57054 -35.82504,8.73271c-0.27526,0.0559 -32.40329,-9.75195 -35.53073,-15.28599c0,0 -1.72896,-15.49203 -1.68729,-16.04212z" data-paper-data="{&quot;index&quot;:null}" fill="#8194ff" stroke="none" stroke-width="0" stroke-linecap="butt"/><path d="M330.78764,139.45279c-23.78293,-1.8493 -39.49184,-21.71333 -37.73806,-44.85702c1.75378,-23.1437 18.14055,-40.48165 41.9235,-38.63236c23.78293,1.8493 37.77045,21.54907 36.01664,44.69278c-1.75378,23.1437 -16.41915,40.64591 -40.20211,38.79662z" data-paper-data="{&quot;index&quot;:null}" fill="none" stroke="#252674" stroke-width="2.5" stroke-linecap="butt"/><path d="M310.02725,112.19591c-0.02414,-0.11744 -16.29533,-15.57137 -16.2357,-15.6782c1.64213,-2.94225 7.01602,-22.553 9.7052,-24.26748c1.44662,-0.9223 21.05228,38.42322 22.80515,51.74907c0.30273,2.30142 -23.62655,0.24284 -27.75717,-1.55228c-0.98088,-0.42628 -0.90003,-9.83652 -1.88125,-12.37921c0,0 13.58068,3.18319 13.36377,2.12811z" data-paper-data="{&quot;index&quot;:null}" fill="#252674" stroke="none" stroke-width="0" stroke-linecap="butt"/><path d="M340.07154,129.31166c0,0 -3.55219,3.5247 -4.88388,3.57414c-1.2592,0.04674 -6.06594,-3.11635 -6.11912,-3.05454c-0.00926,0.01075 -3.17289,2.8002 -4.42376,2.52316c-0.87176,-0.19308 -4.88104,-4.55673 -4.88104,-4.55673" fill="none" stroke="#252674" stroke-width="2.5" stroke-linecap="round"/><path d="M320.78477,130.50365c0.03749,-0.59006 1.95001,1.54932 3.64196,2.02962c0.69199,0.19645 3.63498,-1.77142 5.01113,-1.68398c2.59075,0.1646 4.91812,2.13783 6.42629,2.0424c0.94289,-0.05966 3.26057,-1.90399 3.23039,-1.42888c-0.02802,0.44102 -2.76925,6.45757 -5.49367,8.80866c-1.06338,0.91765 -5.12998,1.27209 -6.48869,-0.02321c-2.84714,-2.71427 -6.35132,-9.36837 -6.32742,-9.74459z" fill="#252674" stroke="none" stroke-width="0" stroke-linecap="butt"/><path d="M361.28257,112.74438c-1.34936,2.39463 -2.4846,11.73787 -3.55939,12.03355c-4.52607,1.24514 -29.66556,0.18626 -29.05271,-2.05698c3.54861,-12.98903 29.02527,-49.47035 30.40942,-48.36822c2.57307,2.04881 5.61787,22.19441 6.94352,25.32521c0.04812,0.11367 -18.86695,13.33213 -18.90726,13.44549c-0.36217,1.01828 14.16641,-0.37906 14.16641,-0.37906z" data-paper-data="{&quot;index&quot;:null}" fill="#252674" stroke="none" stroke-width="0" stroke-linecap="butt"/><path d="M172.1021,348.60409v-338.70968h312.31232v338.70968z" fill="none" stroke="none" stroke-width="none" stroke-linecap="butt"/></g></g></svg>