<svg version="1.1" xmlns="http://www.w3.org/2000/svg" xmlns:xlink="http://www.w3.org/1999/xlink" width="97.88579" height="97.88579" viewBox="0,0,97.88579,97.88579"><g transform="translate(-271.05715,-131.05712)"><g data-paper-data="{&quot;isPaintingLayer&quot;:true}" fill-rule="nonzero" stroke-linecap="butt" stroke-linejoin="miter" stroke-miterlimit="10" stroke-dasharray="" stroke-dashoffset="0" style="mix-blend-mode: normal"><g stroke="#308526" stroke-width="2.5"><path d="M300.42867,161.36086c5.68242,-0.6815 25.13128,-3.09825 27.77589,0.90014c3.18086,5.53781 12.576,21.99886 15.4958,26.87713c0.66015,1.10296 -17.17663,-2.00642 -18.26278,-2.09619c-10.83034,-0.89508 -27.40171,-3.09544 -27.77187,-4.8387c-1.20999,-5.69853 1.55567,-20.69759 2.76295,-20.84238z" data-paper-data="{&quot;index&quot;:null}" fill="#8ceab8"/><path d="M296.79564,178.00622c0.34402,-0.15602 0.79711,-0.31395 1.3451,-0.4727c5.14368,-1.49005 19.93037,-3.05139 30.07867,-3.77041c1.26694,-0.08977 17.70328,3.26465 16.93324,4.3676c-3.40581,4.87827 -13.73399,15.95904 -17.44432,21.49685c-0.393,0.58657 -20.6226,0.49813 -27.25089,-0.18338c-1.1824,-0.12157 -4.4897,-10.84328 -4.68464,-17.611c-0.03724,-1.29264 0.03908,-2.3175 0.26542,-3.23138c0,0 0.31079,-0.39301 0.75743,-0.59557z" fill="#99ff9b"/></g><path d="" fill="#8b65ae" stroke="#5c00aa" stroke-width="2.5"/><path d="" fill="#a17cc4" stroke="#5c00aa" stroke-width="2.5"/><path d="" data-paper-data="{&quot;index&quot;:null}" fill="#b867ff" stroke="#5c00aa" stroke-width="2.5"/><path d="" data-paper-data="{&quot;index&quot;:null}" fill="#ffc374" stroke="none" stroke-width="0"/><path d="" data-paper-data="{&quot;index&quot;:null}" fill="none" stroke="#5c00aa" stroke-width="2.5"/><path d="" fill="#a17cc4" stroke="#5c00aa" stroke-width="2.5"/><path d="" fill="#8b65ae" stroke="#5c00aa" stroke-width="2.5"/><path d="" fill="#a17cc4" stroke="#5c00aa" stroke-width="2.5"/><path d="" data-paper-data="{&quot;index&quot;:null}" fill="#b867ff" stroke="#5c00aa" stroke-width="2.5"/><path d="" data-paper-data="{&quot;index&quot;:null}" fill="#ffc374" stroke="none" stroke-width="0"/><path d="" data-paper-data="{&quot;index&quot;:null}" fill="none" stroke="#5c00aa" stroke-width="2.5"/><path d="" fill="#a17cc4" stroke="#5c00aa" stroke-width="2.5"/><path d="M368.94294,131.05712v97.88579h-97.88579v-97.88579z" fill="none" stroke="none" stroke-width="0"/><path d="M316.78873,160.42689c5.52284,0 8.20513,2.82755 8.20513,6.43864c0,3.61109 -2.68228,6.63829 -8.20513,6.63829c-5.52284,0 -8.46154,-2.92737 -8.46154,-6.53846c0,-3.61109 2.93869,-6.53847 8.46154,-6.53847z" fill="#fff5dc" stroke="#308526" stroke-width="2.5"/><path d="M324.65297,182.57972c3.87716,5.09319 4.30611,11.79855 0.26352,15.63622c-4.04259,3.83767 -9.9936,2.37444 -13.87076,-2.71874c-3.87716,-5.09319 -4.21227,-11.88764 -0.16968,-15.72531c4.04259,-3.83767 9.89976,-2.28536 13.77692,2.80783z" fill="#fff5dc" stroke="#308526" stroke-width="2.5"/><path d="M316.60054,162.02325c3.16228,0 5.72581,1.73309 5.72581,3.87097c0,2.13788 -2.56353,3.87097 -5.72581,3.87097c-3.16228,0 -5.72581,-1.73309 -5.72581,-3.87097c0,-2.13788 2.56353,-3.87097 5.72581,-3.87097z" fill="#ffffff" stroke="#308526" stroke-width="2.5"/><path d="M324.44939,185.58596c2.85248,4.4671 2.51737,9.77897 -0.74849,11.8644c-3.26586,2.08543 -8.22576,0.15471 -11.07824,-4.31239c-2.85248,-4.4671 -2.51737,-9.77897 0.74849,-11.8644c3.26586,-2.08543 8.22576,-0.15471 11.07824,4.31239z" fill="#ffffff" stroke="#308526" stroke-width="2.5"/></g></g></svg>