<svg version="1.1" xmlns="http://www.w3.org/2000/svg" xmlns:xlink="http://www.w3.org/1999/xlink" width="419.96249" height="283.81446" viewBox="0,0,419.96249,283.81446"><g transform="translate(-61.24658,-43.74554)"><g data-paper-data="{&quot;isPaintingLayer&quot;:true}" fill-rule="nonzero" stroke-linecap="butt" stroke-linejoin="miter" stroke-miterlimit="10" stroke-dasharray="" stroke-dashoffset="0" style="mix-blend-mode: normal"><path d="M205.50875,129.54276c3.49936,0 6.33615,9.81376 6.33615,21.91964c0,12.10588 -2.83679,21.91964 -6.33615,21.91964c-3.49935,0 -17.29596,-9.81376 -17.29596,-21.91964c0,-12.10588 13.7966,-21.91964 17.29596,-21.91964z" fill="#ffffff" stroke="#3e0e6c" stroke-width="2.5"/><path d="M169.31995,152.37186c1.17359,12.04886 -11.60665,23.15389 -15.08952,23.49313c-3.48287,0.33924 -7.25768,-9.15328 -8.43127,-21.20214c-1.17359,-12.04886 0.69845,-22.0914 4.18133,-22.43064c3.48287,-0.33924 18.16588,8.0908 19.33947,20.13966z" data-paper-data="{&quot;index&quot;:null}" fill="#ffffff" stroke="#3e0e6c" stroke-width="2.5"/><path d="M166.97814,153.34613c0,-6.71498 5.44357,-12.15855 12.15855,-12.15855c6.71498,0 12.15855,5.44357 12.15855,12.15855c0,6.71498 -5.44357,12.15855 -12.15855,12.15855c-6.71498,0 -12.15855,-5.44357 -12.15855,-12.15855z" fill="#ffffff" stroke="#3e0e6c" stroke-width="2.5"/><g fill="#000000" stroke="none" stroke-width="1" font-family="&quot;Helvetica Neue&quot;, Helvetica, Arial, sans-serif" font-weight="400" font-size="16" text-anchor="start"/><path d="M183.77376,293.15765c0,-0.53393 14.14961,-0.36393 20.46794,-6.51136c0.75226,-0.73192 -6.00236,-8.07914 -5.2712,-8.79199c4.57495,-4.46041 8.5063,-8.34226 8.90965,-9.07481c3.46267,-6.28881 2.62052,-22.56544 1.8216,-23.32557c-9.57799,-9.11287 -63.54134,18.98371 -74.73701,9.20218c-6.13859,-5.36322 -6.64865,-12.51123 -1.82863,-12.51123c0.25793,0 27.16481,-8.48417 54.19016,-12.26492c7.09531,-0.99261 14.60969,-18.09652 21.16441,-15.12968c19.4982,8.82539 33.04753,74.19687 33.04753,78.40736c0,31.60997 -32.19136,39.4803 -62.09105,28.4187c-6.13366,-2.26919 -12.17089,-11.25339 -17.81398,-14.44782c-5.39297,-3.05285 16.47918,-1.31676 17.64718,-1.25514c5.66794,0.29905 15.51036,3.96845 11.82237,1.01743c-4.55833,-3.64743 -7.32896,-8.45919 -7.32896,-13.73317z" fill="#ffffff" stroke="#3e0e6c" stroke-width="2.5"/><path d="M471.63862,254.59102c0,5.67416 -3.43161,10.27397 -7.66471,10.27397c-1.01626,0 -13.22876,-8.59275 -17.78868,-5.6337c-0.49148,0.31893 4.50473,15.35169 11.8537,29.14944c2.12449,3.98874 12.9182,7.58576 15.17248,10.98277c4.31501,6.50234 -0.36874,11.50331 -0.64614,11.72356c-7.81134,6.20261 -13.40376,16.96462 -23.96654,12.05023c-2.22862,-1.03688 6.1429,-14.95231 3.69443,-16.29264c-2.15916,-1.18196 -18.80996,13.23299 -28.69416,14.12453c-11.27972,1.01742 -22.68558,-6.73844 -24.98433,-10.75511c-1.70057,-2.97146 16.06882,-24.04145 18.23289,-27.76235c8.44131,-14.51403 9.29917,-45.66109 19.1078,-53.53981c2.78294,-2.23538 35.68325,20.9381 35.68325,25.6791z" fill="#ffffff" stroke="#3e0e6c" stroke-width="2.5"/><path d="M197.55798,105.02282c0,2.23386 -30.93077,17.63699 -56.18339,35.80691c-7.55023,5.43259 -6.51792,29.12587 -14.13395,30.18093c-5.26184,0.72893 -4.54357,-16.36459 -4.73148,-28.47056c-0.1514,-9.754 -7.49715,-12.69118 -9.61383,-11.77917c-3.17647,1.36864 -6.90951,13.03437 -9.8195,14.49573c-2.41421,1.21239 -9.49677,-3.15662 -11.69135,-2.18053c-16.3465,7.27049 -21.64433,13.78843 -22.74874,13.78843c-3.39056,0 -6.13916,-4.88638 -6.13916,-10.91405c0,-6.02767 2.7486,-10.91405 6.13916,-10.91405c2.04357,0 38.22608,-43.10656 74.78229,-52.1898c24.09551,-5.98709 54.13994,19.78151 54.13994,22.17616z" fill="#ffffff" stroke="#3e0e6c" stroke-width="2.5"/><path d="M440.7367,130.94373c-1.66467,0 -31.95269,-11.06148 -66.33024,-17.34142c-16.01366,-2.92531 -77.17381,-20.46696 -99.56999,-1.17553c-16.77522,14.44969 5.26504,66.63158 -9.05837,67.72556c-12.59823,0.96221 -11.28025,-39.83931 -20.99068,-49.34536c-4.64408,-4.54633 -37.02846,0.50843 -42.2612,-1.68808c-16.06687,-6.74426 -6.10712,-12.86605 -15.37942,-15.92602c-11.57258,-3.8191 -9.28362,-40.23006 -8.34734,-40.23006c1.29822,0 28.99035,-16.91197 53.06598,-11.50173c37.45234,8.41624 94.21495,21.32959 144.62142,32.36488c53.53407,11.72001 103.47221,20.13052 103.47221,22.79306c0,6.78112 -33.7598,14.32469 -39.22237,14.32469z" fill="#ffffff" stroke="#3e0e6c" stroke-width="2.5"/><path d="M121.15962,97.17835c0,-28.81977 23.36304,-52.18281 52.18281,-52.18281c28.81977,0 52.18281,23.36304 52.18281,52.18281c0,28.81977 -23.36304,52.18281 -52.18281,52.18281c-28.81977,0 -52.18281,-23.36304 -52.18281,-52.18281z" fill="#ffffff" stroke="#3e0e6c" stroke-width="2.5"/><path d="M145.00911,86.79583c9.44162,-9.65139 21.86599,-17.3874 29.09509,-17.3874c3.56997,0 10.46189,2.42124 14.50859,4.74369c16.23686,9.31854 30.99043,31.82073 30.99043,33.09062c0,0.54074 -5.95801,12.20974 -15.56161,22.33509c-7.89517,8.32411 -18.67713,15.49922 -27.00199,15.49922c-4.65901,0 -15.44784,-1.22297 -21.14225,-4.02664c-16.23987,-7.99576 -28.27066,-24.19455 -28.27066,-25.32757c0,-1.79549 5.42196,-16.70085 17.3824,-28.92701z" fill="#ffffff" stroke="#3e0e6c" stroke-width="2.5"/><path d="M176.12655,134.20358c-0.06001,-1.32874 -0.09598,-2.66102 -0.11512,-3.99543c-0.05666,-1.09214 -0.07874,-2.19395 -0.07976,-3.29983l-0.08305,-0.1714l0.05599,-0.02713l-0.10605,-0.1079c-0.10986,-1.46247 -0.18872,-2.92919 -0.26755,-4.39605c-0.63553,-4.01455 -1.4471,-8.35295 -1.0912,-12.26637c0.01033,-0.24471 0.02993,-0.49042 0.06051,-0.73797c-0.00147,-0.1833 -0.00256,-0.36679 -0.00331,-0.55049l-0.20584,-0.02941l0.20459,-1.43216v-0.27286c0,-0.41421 0.33579,-0.75 0.75,-0.75c0.41378,0 0.7493,0.33508 0.75,0.7487c0,0.00006 0,0.00011 0,0.00017l0.00228,1.3173c0.00131,0.19601 0.00374,0.39203 0.00723,0.58807c0.11969,0.49322 0.09512,1.04442 0.05191,1.61002c0.019,0.4114 0.04224,0.8228 0.06936,1.23418c0,-0.56074 0,-1.12148 0,-1.68222c0,-0.79145 -0.37386,-4.51538 0.31147,-4.97927c0.5578,-0.37757 1.4742,-0.01933 1.97395,0.43229c0.63889,0.57735 0.87281,2.16927 0.98439,3.66996c0.02857,-0.00247 0.05837,-0.00376 0.08946,-0.00376c0.75,0 0.75,0.75 0.75,0.75c0,5.34607 0,10.69214 0,16.0382c0.04111,0.56326 0.089,1.12584 0.14553,1.68762l0.14825,1.48252c0.00312,0.02779 0.00473,0.05604 0.00473,0.08467c0,0.2447 -0.11719,0.46204 -0.29851,0.59893c0,1.06635 0,2.13271 0,3.19906v1.04468c0,0.41421 -0.33579,0.75 -0.75,0.75c-0.2994,0 -0.55783,-0.17544 -0.67809,-0.42912l-0.07138,-0.14276c-0.1372,0.15095 -0.33511,0.24572 -0.55517,0.24572c-0.07966,0 -0.15641,-0.01242 -0.22844,-0.03542c-0.00018,0.53123 -0.0004,1.06246 -0.00067,1.59369c0.01554,0.22865 0.0286,0.45681 0.0382,0.68504c0.06055,0.66314 0.12097,1.32629 0.18126,1.98945l0.01796,-0.00106l0.0877,1.49085c0.00111,0.01672 0.00168,0.0336 0.00168,0.05061c0,0.41421 -0.33579,0.75 -0.75,0.75c-0.40116,0 -0.72876,-0.31495 -0.74901,-0.71108l-0.05384,-0.91371c-0.04751,-0.52251 -0.09494,-1.04503 -0.1423,-1.56755c-0.11148,-0.48579 -0.1638,-1.01377 -0.19108,-1.55084c-0.16274,-0.13758 -0.26609,-0.34323 -0.26609,-0.57302c0,-0.17384 0,-1.13079 0,-1.30463c0,-0.03676 0,-0.07351 0,-0.11027zM177.69363,110.17761c0.31812,1.81638 0.32964,3.66873 0.30039,5.54446c0.19427,1.01766 0.31779,2.0632 0.39518,3.12544c0.02345,0.15696 0.04734,0.31386 0.07163,0.47068c-0.07248,-2.46564 -0.15621,-4.93311 -0.40239,-7.39171c-0.08637,-0.8626 -0.1872,-1.69809 -0.30916,-2.5338l-0.00244,0.00021c-0.01521,0.26584 -0.03452,0.52923 -0.0532,0.78472zM178.73581,128.83959c0,-0.371 0,-0.742 0,-1.113c-0.0891,-0.2223 -0.17086,-0.44702 -0.24639,-0.674c0.00047,0.32135 0.00239,0.64166 0.0064,0.96063c0.07397,0.27223 0.15601,0.54819 0.23999,0.82637z" fill="#3e0e6c" stroke="none" stroke-width="0.5"/></g></g></svg>