<svg version="1.1" xmlns="http://www.w3.org/2000/svg" xmlns:xlink="http://www.w3.org/1999/xlink" width="126.35954" height="313.97177" viewBox="0,0,126.35954,313.97177"><defs><linearGradient x1="293.89483" y1="144.98933" x2="296.44583" y2="251.36459" gradientUnits="userSpaceOnUse" id="color-1"><stop offset="0" stop-color="#55389c"/><stop offset="1" stop-color="#3c50a8"/></linearGradient><linearGradient x1="338.8977" y1="143.26207" x2="344.50772" y2="249.51994" gradientUnits="userSpaceOnUse" id="color-2"><stop offset="0" stop-color="#55389c"/><stop offset="1" stop-color="#3c50a8"/></linearGradient><linearGradient x1="318.02664" y1="140.47713" x2="320.51781" y2="205.38372" gradientUnits="userSpaceOnUse" id="color-3"><stop offset="0" stop-color="#55389c"/><stop offset="1" stop-color="#3c50a8"/></linearGradient><linearGradient x1="279.73356" y1="105.73094" x2="325.09922" y2="101.88631" gradientUnits="userSpaceOnUse" id="color-4"><stop offset="0" stop-color="#887aff"/><stop offset="1" stop-color="#e27aff"/></linearGradient><linearGradient x1="355.44969" y1="98.89228" x2="315.50858" y2="102.64407" gradientUnits="userSpaceOnUse" id="color-5"><stop offset="0" stop-color="#887aff"/><stop offset="1" stop-color="#e27aff"/></linearGradient></defs><g transform="translate(-266.71459,-27.40955)"><g data-paper-data="{&quot;isPaintingLayer&quot;:true}" fill-rule="nonzero" stroke-linejoin="miter" stroke-miterlimit="10" stroke-dasharray="" stroke-dashoffset="0" style="mix-blend-mode: normal"><g><path d="M369.31924,185.87644c-0.09139,0 -0.29306,-0.60097 -0.57456,-1.65544c0.35559,0.3016 0.812,0.78866 1.32664,1.32866c0.05876,0.0837 0.11953,0.16589 0.18222,0.2465c-0.34281,0.05264 -0.65595,0.08028 -0.9343,0.08028z" fill="#b5acd7" stroke="none" stroke-width="0" stroke-linecap="butt"/><path d="M306.4561,311.80157c-7.87827,5.5857 -29.74104,-23.79961 -21.17827,-29.87061c0.2127,-0.15081 6.31783,-4.04448 6.53259,-4.18216c8.43075,-5.40527 12.07848,2.39512 17.89005,10.59197c2.05005,2.89146 4.32752,7.27379 4.76167,10.16003c0.82794,5.50424 -2.38877,9.31813 -8.00604,13.30077z" data-paper-data="{&quot;index&quot;:null}" fill="#6770bb" stroke="#250077" stroke-width="2.5" stroke-linecap="butt"/><path d="M274.01727,102.79504c-0.23797,-0.85753 -2.41159,-2.45038 -2.61828,-3.88205c-1.43086,-9.91128 -3.13863,-32.63369 -3.43391,-40.327c-0.11223,-2.92406 19.13811,-29.29166 21.13769,-29.3684c0.14958,-0.00574 2.09999,12.43265 5.39601,27.11422c4.36311,19.43471 10.34299,42.46447 10.34299,42.46447c0,0 -30.47148,5.27089 -30.82451,3.99877z" fill="#947aff" stroke="#250077" stroke-width="2.5" stroke-linecap="butt"/><path d="M321.9319,99.69062c0,0 2.94684,-23.61027 4.75612,-43.44636c1.36678,-14.9848 1.68983,-27.57103 1.8389,-27.58471c1.99268,-0.18288 24.49586,23.46945 24.76328,26.38342c0.70361,7.66676 1.95308,30.41898 1.81792,40.4321c-0.01953,1.44638 -1.96853,3.30732 -2.09344,4.18846c-0.18529,1.30712 -31.08279,0.02712 -31.08279,0.02712z" data-paper-data="{&quot;index&quot;:null}" fill="#947aff" stroke="#250077" stroke-width="2.5" stroke-linecap="butt"/><path d="M306.00022,238.68248c-1.03007,0.0247 -19.83642,-34.36683 -18.59,-42.01719c0.807,-4.95322 15.51555,-51.89253 19.99807,-52.00003c11.34932,-0.27217 9.94125,93.74504 -1.40807,94.01722z" fill="url(#color-1)" stroke="#250077" stroke-width="2.5" stroke-linecap="butt"/><path d="M325.39916,143.97476c3.21922,-0.16996 10.42367,17.65439 16.10072,33.0441c3.69518,10.01714 7.07582,19.8342 7.14938,20.13677c0.09461,0.38913 -8.64809,3.13405 -4.76661,1.63001c8.1929,-3.17469 28.70169,-14.3389 28.89782,-13.51516c1.48228,6.22577 12.65431,19.52768 9.65422,33.95807c-1.83274,8.81545 1.14667,7.62942 -11.27403,14.73919c-0.53617,0.30691 -3.49093,0.8086 -7.2718,-0.82974c-5.46745,-2.36917 -12.45175,-2.86908 -17.05191,-4.55832c-10.93035,-4.01379 -24.34985,-12.97299 -25.44052,-28.23937c-2.04316,-28.59869 -1.40567,-56.07998 4.00274,-56.36553z" data-paper-data="{&quot;index&quot;:null}" fill="url(#color-2)" stroke="#250077" stroke-width="2.5" stroke-linecap="butt"/><path d="M391.95377,209.0648c0,2.16189 -2.82683,9.66136 -6.94933,15.33855c-5.00752,6.89597 -11.07538,9.90669 -13.39112,9.90669c-2.00878,0 -5.96323,-6.55306 -9.16983,-14.06366c-1.80039,-4.21694 -4.53474,-7.90149 -4.53474,-10.02751c0,-9.16225 10.0543,-24.95673 18.89787,-24.95673c8.84357,0 15.14714,14.6404 15.14714,23.80266z" fill="#250077" stroke="none" stroke-width="0" stroke-linecap="butt"/><path d="M314.40858,310.31629c-2.26724,-2.3475 -21.18739,-15.53066 -22.36979,-37.53582c-0.14853,-2.7643 29.01508,-12.8805 28.87636,-15.70155c-1.47877,-30.07239 -2.41854,-61.93374 -1.5579,-61.96678c1.54185,-0.05918 13.78614,-0.19596 15.23022,4.55095c0.58398,1.9196 5.83662,31.37701 10.59068,60.21485c0.09489,0.57558 -8.7595,8.84345 -16.47366,23.42591c-6.06017,11.45583 -10.76112,30.67236 -14.2959,27.01244z" data-paper-data="{&quot;index&quot;:null}" fill="#3b276d" stroke="#250077" stroke-width="2.5" stroke-linecap="butt"/><path d="M304.6158,204.66031c0.60894,-4.9437 15.02554,-7.32087 16.85055,-7.57914c1.87499,-0.26534 20.07143,109.48724 20.28674,110.64191c0.49534,2.65642 1.85794,7.69214 -0.26786,10.45548c-7.53307,9.79231 -29.84759,15.50023 -32.24492,2.64388c-2.74981,-14.74661 -5.07655,-112.49233 -4.62451,-116.16213z" fill="#3b276d" stroke="#250077" stroke-width="2.5" stroke-linecap="butt"/><path d="M305.67282,146.57083c2.11474,-3.21616 5.95207,-5.67825 9.83686,-5.98608c4.58672,-0.36345 8.82827,1.70018 11.31042,4.12593c1.3698,1.33867 5.187,14.84091 5.62425,20.08808c0.05892,0.7071 -0.99058,14.14686 -1.30654,14.29683c-0.09321,0.04424 3.85309,12.19212 5.63951,18.42327c0.75116,2.62011 -1.72775,5.72762 -6.66762,7.29225c-3.83984,1.21621 -23.5246,-1.49598 -25.46285,-1.47305c-2.51162,0.02971 0.43875,-20.86327 0.29091,-22.88197c-0.24666,-3.3679 -0.38185,-10.12671 -0.69194,-16.3717c0,0 0.30982,-15.81451 1.42699,-17.51355z" fill="url(#color-3)" stroke="#250077" stroke-width="2.5" stroke-linecap="butt"/><path d="M316.63029,127.53431c4.13796,-0.15882 7.7079,5.32606 7.97368,12.25081c0.26578,6.92475 -14.71911,7.49988 -14.98489,0.57513c-0.26578,-6.92476 2.87325,-12.66713 7.01121,-12.82594z" fill="#c2bfff" stroke="#250077" stroke-width="2.5" stroke-linecap="butt"/><path d="M273.25442,96.65354c-0.87752,-22.86348 16.94563,-42.10937 39.80911,-42.98689c22.86348,-0.87752 42.10937,16.94563 42.98689,39.80911c0.87752,22.86348 -16.94563,42.10937 -39.80911,42.98689c-22.86348,0.87752 -42.10937,-16.94563 -42.98689,-39.80911z" fill="#c2bfff" stroke="#250077" stroke-width="2.5" stroke-linecap="butt"/><path d="M317.90817,318.86519c2.89843,-1.4274 8.40918,-2.31617 12.42059,-2.47013c11.37174,-0.43646 20.90216,-2.33925 21.81405,7.63694c0.02323,0.25414 0.70209,7.46578 0.71209,7.72632c0.40257,10.48886 -41.07003,11.2409 -41.44042,1.59052c-0.26409,-6.88078 0.96622,-11.76153 6.49368,-14.48366z" fill="#6770bb" stroke="#250077" stroke-width="2.5" stroke-linecap="butt"/><path d="M280.16968,48.43138c-0.22909,-5.96892 14.19111,-11.36827 32.20842,-12.05979c18.01731,-0.69152 32.80895,3.58666 33.03804,9.55558c0.22909,5.96892 -14.19111,11.36827 -32.20842,12.05979c-18.01731,0.69152 -32.80895,-3.58666 -33.03804,-9.55557zM312.76676,55.27379c14.40147,-0.55274 25.92772,-4.86851 25.7446,-9.63954c-0.18312,-4.77103 -12.00625,-8.19063 -26.40772,-7.63789c-14.40147,0.55274 -25.92772,4.86851 -25.7446,9.63953c0.18312,4.77103 12.00625,8.19064 26.40772,7.6379z" fill="#7ae7ff" stroke="#250077" stroke-width="2.5" stroke-linecap="butt"/><g stroke-width="2" stroke-linecap="butt"><path d="M286.4831,112.46287c0.14486,1.47052 1.03366,7.83611 -1.04328,8.01212c-0.63072,0.05344 -8.46868,-5.42148 -8.74421,-8.21847c-0.16803,-1.70578 0.70137,-5.18651 2.52182,-5.34079c3.68021,-0.3119 6.93315,2.17163 7.26567,5.54713z" fill="#250077" stroke="none"/><path d="M279.73356,105.73094c-0.0639,-0.64876 28.51301,-2.75123 38.74993,-3.36357c2.22996,-0.13339 2.6492,12.01567 -0.91178,16.50589c-2.95928,3.73151 -7.32262,6.24904 -13.00828,6.73088c-12.5274,1.06167 -23.64409,-7.83584 -24.82987,-19.87317z" fill="url(#color-4)" stroke="#250077"/><path d="M290.20215,104.87173c-0.04325,-0.43908 18.03454,-2.2558 18.07374,-1.85789c0.659,6.68975 -3.03417,12.79737 -8.39157,13.25139c-5.35742,0.45403 -9.02314,-4.70372 -9.68214,-11.39347z" fill="#ffffff" stroke="#250077"/></g><g data-paper-data="{&quot;index&quot;:null}" stroke-width="2" stroke-linecap="butt"><path d="M356.10039,100.52168c1.60275,-0.15055 2.9543,3.04727 3.10225,4.71186c0.24258,2.72944 -5.60209,9.26938 -6.15739,9.32153c-1.82858,0.17177 -2.15404,-6.08302 -2.28158,-7.51804c-0.29275,-3.29399 2.09658,-6.21099 5.33673,-6.51535z" fill="#250077" stroke="none"/><path d="M355.4497,98.89233c1.04399,11.74665 -7.05079,22.10903 -18.08025,23.14507c-5.00581,0.4702 -9.21688,-1.23013 -12.42105,-4.32581c-3.85569,-3.72512 -5.58259,-15.45325 -3.62885,-15.69102c8.96894,-1.09156 34.07388,-3.76136 34.13014,-3.12827z" fill="url(#color-5)" stroke="#250077"/><path d="M342.87401,100.25817c0.5802,6.52822 -2.57207,12.07936 -7.28886,12.52243c-4.71681,0.44307 -8.09962,-4.81259 -8.67981,-11.34077c-0.03451,-0.3883 15.93062,-1.61015 15.96869,-1.18167z" fill="#ffffff" stroke="#250077"/></g><path d="M337.73829,125.18541c0,0 -3.65022,2.9087 -9.18504,5.17429c-3.07509,1.25873 -7.38141,-0.38473 -11.31715,-0.13215c-4.21355,0.27041 -6.86943,2.61199 -10.96155,1.57194c-5.6924,-1.44677 -9.35305,-3.6832 -9.35305,-3.6832" fill="none" stroke="#250077" stroke-width="2.5" stroke-linecap="round"/><g><g fill="none" stroke="#fdf7ff" stroke-width="2" stroke-linecap="round"><path d="M308.51383,169.0991l10.09055,0.29446"/><path d="M323.91197,163.8062c0,0 2.32838,-2.80444 4.89435,-3.11249c2.58572,-0.31048 3.6243,1.98172 3.6243,1.98172"/><path d="M310.40361,179.69385l20.81989,-0.18481"/></g><path d="M313.35294,172.21625c-0.02648,-0.68985 0.43835,-1.26774 1.03824,-1.29077c0.59988,-0.02302 1.10764,0.51754 1.13412,1.20739c0.02648,0.68985 -0.43835,1.26774 -1.03824,1.29077c-0.59988,0.02302 -1.10764,-0.51754 -1.13412,-1.20739z" fill="#ffffff" stroke="none" stroke-width="0.5" stroke-linecap="butt"/><path d="M326.54764,169.79979c-0.02648,-0.68985 0.43835,-1.26774 1.03824,-1.29077c0.59988,-0.02302 1.10764,0.51754 1.13412,1.20739c0.02648,0.68985 -0.43835,1.26774 -1.03824,1.29077c-0.59988,0.02302 -1.10764,-0.51754 -1.13412,-1.20739z" fill="#ffffff" stroke="none" stroke-width="0.5" stroke-linecap="butt"/></g><g stroke-linecap="butt"><path d="M355.7802,149.34676c0,-2.3934 4.68179,-16.96021 9.78474,-16.96021c0.13186,0 1.41887,2.76664 2.97815,6.3095c0.27554,0.62606 -2.31306,1.75514 -2.02539,2.4187c0.68273,1.5748 4.25855,2.74549 4.91704,4.3228c0.82797,1.98326 1.58532,3.85244 2.14257,5.31569c4.2572,11.17869 8.68835,23.88727 9.17326,26.98501c0.47505,3.03478 -14.39528,11.07361 -19.14258,11.07361c-0.69797,0 -7.82779,-35.0516 -7.82779,-39.4651z" fill="#928bad" stroke="none" stroke-width="0"/><path d="M381.91539,175.00785c-1.42957,-0.72359 -2.99966,-1.54214 -4.7715,-2.48505c-3.12894,-1.66513 -5.51252,-2.96545 -7.48343,-4.09699c0.07051,-0.11221 0.13966,-0.22823 0.20743,-0.34812c3.47514,-6.14833 -2.99895,-9.12578 -7.33748,-11.34851c0.39316,-1.69794 -0.13484,-3.66449 -0.69054,-5.33159c-0.78664,-2.35992 -3.28837,-3.43271 -5.97821,-3.60048c0.31734,-1.39529 0.934,-3.41641 1.76632,-5.53815c5.14158,4.70486 10.81778,8.58723 16.50406,12.65926c0.38827,0.27804 0.77671,0.55853 1.16566,0.84044c2.79568,7.54593 5.40118,15.04283 6.61768,19.24919z" fill="#b5acd7" stroke="none" stroke-width="0"/><path d="M360.27797,136.76742c0.89106,0.58594 1.89556,1.01346 2.97344,1.24253c1.70488,1.52542 4.98608,4.11791 7.60568,6.15759c0.91829,2.30748 1.88991,4.81468 2.8655,7.38809c-5.21494,-3.70938 -10.37847,-7.34667 -15.05333,-11.73798c0.49358,-1.06383 1.03333,-2.10262 1.60871,-3.05023z" fill="#b5acd7" stroke="none" stroke-width="0"/><path d="M355.62061,149.34676c0,-2.3934 4.68179,-16.96021 9.78474,-16.96021c0.38382,0 1.61979,2.54342 3.26584,6.43489c0.26417,0.62452 -2.97212,1.44336 -2.68865,2.13238c0.58031,1.41058 4.70824,2.78638 5.34608,4.40418c4.76455,12.08461 10.69687,28.76772 11.26236,32.38025c0.47505,3.03478 -14.39528,11.07361 -19.14258,11.07361c-0.69797,0 -7.82779,-35.0516 -7.82779,-39.4651z" fill="none" stroke="#250077" stroke-width="2.5"/><path d="M391.82413,215.23065c0,2.74835 -13.84809,7.50163 -15.00326,7.50163c-1.15542,0 -7.82653,-22.64371 -10.07288,-35.3471c-0.03798,-0.21476 11.60192,-12.29294 15.68081,-8.12241c0.38004,0.38857 9.39533,33.54481 9.39533,35.96789z" fill="#92596a" stroke="#250077" stroke-width="2.5"/><path d="M367.45485,198.1514c0,-4.38195 9.83671,-9.12835 10.97456,-7.37849c0.89401,1.37488 1.65822,11.39139 0.61515,12.81101c-1.13149,1.53995 -3.60401,2.5017 -5.38659,2.5017c-3.42588,0 -6.20312,-3.55226 -6.20312,-7.93421z" fill="#c2bfff" stroke="#250077" stroke-width="2.5"/><path d="M381.29508,215.92435c-4.99868,0.19186 -6.33338,-17.61054 -3.05686,-17.7363c1.57585,-0.06048 6.12821,-2.00845 7.30281,-3.66085c1.53774,-2.16326 -0.38519,-4.0528 1.13341,-2.88628c3.41272,2.62151 4.81195,7.83922 4.9899,12.4755c0.31761,8.2752 -2.09405,11.49032 -10.36925,11.80793z" data-paper-data="{&quot;index&quot;:null}" fill="#c2bfff" stroke="#250077" stroke-width="2.5"/></g></g></g></g></svg>