<svg version="1.1" xmlns="http://www.w3.org/2000/svg" xmlns:xlink="http://www.w3.org/1999/xlink" width="701.14531" height="446.58325" viewBox="0,0,701.14531,446.58325"><defs><linearGradient x1="293.15128" y1="109.32382" x2="293.15128" y2="312.15824" gradientUnits="userSpaceOnUse" id="color-1"><stop offset="0" stop-color="#ffa4f3"/><stop offset="1" stop-color="#ffd172"/></linearGradient><linearGradient x1="-4.26464" y1="46.36638" x2="-4.26464" y2="399.21924" gradientUnits="userSpaceOnUse" id="color-2"><stop offset="0" stop-color="#ffa4f3"/><stop offset="1" stop-color="#ffd172"/></linearGradient><linearGradient x1="585.2764" y1="46.36638" x2="585.2764" y2="399.21924" gradientUnits="userSpaceOnUse" id="color-3"><stop offset="0" stop-color="#ffa4f3"/><stop offset="1" stop-color="#ffd172"/></linearGradient></defs><g transform="translate(59.3135,38.55584)"><g data-paper-data="{&quot;isPaintingLayer&quot;:true}" fill-rule="nonzero" stroke-linejoin="miter" stroke-miterlimit="10" stroke-dasharray="" stroke-dashoffset="0" style="mix-blend-mode: normal"><path d="M-36.60659,376.69672v-117.11711h668.16817v117.11711z" fill="#664585" stroke="#3e0e6c" stroke-width="2.5" stroke-linecap="butt"/><path d="M-32.10209,107.92795v-114.11411h664.68931v114.11412z" fill="#664585" stroke="#3e0e6c" stroke-width="2.5" stroke-linecap="butt"/><path d="M96.27531,267.11321v-195.32694h384.74295v195.32694z" fill="url(#color-1)" stroke="#3e0e6c" stroke-width="2.5" stroke-linecap="butt"/><path d="M139.10946,213.39699l-45.36251,-73.8645l70.11316,-60.90378l53.937,78.68765z" fill-opacity="0.51373" fill="#ffd6ec" stroke="none" stroke-width="0" stroke-linecap="butt"/><path d="M237.78102,267.40815l-7.50469,-149.37813l114.26433,0.93809l-9.38086,148.44004z" fill="#3e0e6c" stroke="none" stroke-width="0" stroke-linecap="butt"/><path d="M-56.55581,405.22525l-1.5015,-358.85886l154.11491,25.68193v195.38288z" fill="url(#color-2)" stroke="#3e0e6c" stroke-width="2.5" stroke-linecap="butt"/><path d="M475.94515,267.4312v-195.38288l163.12391,-25.68193l1.5015,358.85887z" data-paper-data="{&quot;index&quot;:null}" fill="url(#color-3)" stroke="#3e0e6c" stroke-width="2.5" stroke-linecap="butt"/><g stroke="#3e0e6c" stroke-width="2.5" stroke-linecap="butt"><path d="M149.91637,276.96214c0.38085,5.84293 -12.00735,11.74895 -27.66983,13.19147c-15.66248,1.44252 -28.66817,-2.12472 -29.04902,-7.96764c-0.38085,-5.84293 12.00735,-11.74895 27.66983,-13.19147c15.66248,-1.44252 28.66817,2.12472 29.04902,7.96764z" fill="#ede1ff"/><path d="M146.9357,270.40617c0.5239,4.09838 -10.16722,8.84914 -23.87927,10.61114c-13.71206,1.76199 -25.25258,-0.13202 -25.77648,-4.2304c-0.5239,-4.09838 10.16722,-8.84915 23.87927,-10.61114c13.71206,-1.76199 25.25258,0.13202 25.77648,4.2304z" fill="#c4afe4"/><path d="M80.35405,237.00755c2.56389,1.51203 6.30241,3.44697 8.50088,3.34878c4.0092,-0.17905 11.65817,-6.11278 11.65817,-6.11278l-5.23444,34.68848c0,0 -7.79944,-1.11967 -11.98052,-5.4877c-0.14866,-0.15531 -3.72742,-26.89875 -2.94408,-26.43678z" fill="#c4afe4"/><path d="M76.88516,230.84878c1.05478,0.62205 3.70554,0.41639 6.49162,-0.05164c2.98783,-0.50192 6.13128,-1.3056 7.62889,-1.71382c0.5004,-0.1364 0.43685,-0.21167 0.53003,-0.23498c4.49285,-1.12403 5.5085,-0.76356 5.5085,-0.76356l-0.66602,39.35502c0,0 -4.43476,-3.17181 -9.17696,-6.57983c-3.17881,-2.28448 -6.49575,-4.6751 -8.7077,-6.28765c-1.44255,-1.05166 -2.50878,-24.25455 -1.60837,-23.72354z" fill="#ede1ff"/><path d="M76.88517,230.84877c-0.90041,-0.53101 15.24472,-4.15827 16.68727,-3.10661c5.51175,4.01819 5.40625,36.87562 5.40625,36.87562l-1.93448,-36.53301c0,0 -5.36106,7.98681 -5.56856,8.04702c-1.99515,0.57889 -12.26813,-3.91342 -14.59049,-5.28301z" fill="#c4afe4"/><path d="M132.4225,224.79105c0.13947,2.63389 -9.66147,5.21185 -21.89099,5.75802c-12.22953,0.54617 -22.93976,-2.91966 -23.07923,-5.55355c-0.13648,-2.57754 47.61583,-8.35003 47.87749,-8.36172c4.86364,-0.21721 21.77316,3.35404 20.31717,4.23348c-2.20507,1.33189 -23.30844,2.33736 -23.22444,3.92376z" fill="#ede1ff"/><path d="M99.28017,233.21626c0.29652,5.59981 6.58275,47.31911 5.11948,46.66136c-2.3052,-1.0362 -8.78154,-4.11755 -11.93474,-6.9997c-2.61648,-2.39156 -5.90586,-42.49435 -5.60527,-47.94612c0.03925,-0.71202 15.30209,3.92022 14.41276,4.06835c-1.51677,0.25264 -2.08299,2.50233 -1.99224,4.21611z" fill="#ede1ff"/><path d="M103.42617,278.12888c-0.47844,-9.03539 -3.9162,-40.57258 -4.21272,-46.17239c-0.09075,-1.71378 0.11214,-3.40608 1.62891,-3.65871c5.61764,-0.9357 40.63443,-5.97564 52.83667,-7.73479c2.63807,-0.38032 4.51099,1.1984 4.61501,3.16282c0.30635,5.78545 1.70285,34.72782 2.16286,44.27732c0.09275,1.92534 -1.84288,3.39389 -4.02293,3.75701c-6.57689,1.09548 -38.03877,6.41716 -49.23792,8.28255c-2.28444,0.38051 -3.68545,-0.31921 -3.76988,-1.91381z" fill="#ede1ff"/><path d="M111.41091,269.96762c-0.36807,-6.95111 -3.06048,-28.77835 -3.2886,-33.08639c-0.06981,-1.31844 0.08627,-2.62036 1.25315,-2.81472c4.32177,-0.71986 31.26091,-4.59718 40.64834,-5.95053c2.02952,-0.29259 3.4704,0.92195 3.55042,2.43322c0.23568,4.45086 1.18152,24.28972 1.53541,31.63635c0.07135,1.48121 -1.24158,2.60312 -2.91873,2.88248c-5.05973,0.84277 -29.26401,4.93685 -37.87975,6.37193c-1.75746,0.29273 -2.83529,-0.24558 -2.90025,-1.47233z" fill="#3e0e6c"/></g><path d="M410.54559,181.36762l-10.27587,-88.34278c0,0 4.5348,-3.09614 9.70551,-2.96012c17.22051,0.453 111.65247,3.08883 142.48934,4.63416c6.00184,0.30077 11.14141,2.62265 11.14141,2.62265l-15.98351,93.16593z" fill="#3e0e6c" stroke="none" stroke-width="0" stroke-linecap="butt"/><path d="M503.52651,126.46916l8.85749,-131.32401l22.5127,-0.24876l-16.36218,131.32401z" fill="#3e0e6c" stroke="none" stroke-width="0" stroke-linecap="butt"/><path d="M451.5707,123.23364l-3.56951,-132.06346l19.73243,1.8759l-3.01518,131.52077z" data-paper-data="{&quot;index&quot;:null}" fill="#3e0e6c" stroke="none" stroke-width="0" stroke-linecap="butt"/><path d="M443.32909,261.65374c0.30133,-8.54458 2.9169,-28.13813 3.19876,-28.13962c0.08697,-0.00046 5.28392,-1.61853 7.43908,-1.28976c11.45162,1.74693 46.89659,7.11154 46.89659,8.01586c0,2.55224 -5.74138,27.79328 -6.59247,35.4416c-0.08471,0.76124 -2.05698,2.17088 -2.08028,2.59821c-0.05241,0.96132 -48.98132,-13.23372 -48.86168,-16.62628z" fill="#50298a" stroke="#3e0e6c" stroke-width="2.5" stroke-linecap="butt"/><path d="M443.51205,261.65374c-0.11964,3.39256 48.80927,16.31087 48.86168,15.34955c0.01033,-0.18957 0.77338,3.138 -0.4859,4.81194c-3.39725,4.51592 -15.34085,15.38737 -20.19856,18.90655c-1.28217,0.92887 -56.17639,-24.63428 -49.87918,-29.28965c1.46113,-1.08018 21.71572,-10.16893 21.70195,-9.77839z" fill="#50298a" stroke="#3e0e6c" stroke-width="2.5" stroke-linecap="butt"/><path d="M446.07926,260.36878c0.2518,-7.14041 2.59044,-24.14543 2.82598,-24.14668c0.07268,-0.00038 46.82974,8.24835 46.82974,9.00405c0,2.34511 -6.59616,25.45764 -6.81125,29.40254c-0.0438,0.80334 -42.94445,-11.42487 -42.84447,-14.25991z" fill="#3e0e6c" stroke="none" stroke-width="0" stroke-linecap="butt"/><path d="M486.81172,285.45299l-49.85168,-20.23729" fill="none" stroke="#3e0e6c" stroke-width="2.5" stroke-linecap="round"/><path d="M484.61633,276.30552" fill="none" stroke="#3e0e6c" stroke-width="2.5" stroke-linecap="round"/><path d="M481.82929,291.70052l-52.8295,-23.62771" fill="none" stroke="#3e0e6c" stroke-width="2.5" stroke-linecap="round"/><path d="M436.07256,271.22965l10.24515,-6.58617" fill="none" stroke="#3e0e6c" stroke-width="2.5" stroke-linecap="round"/><path d="M460.63055,269.47024l-8.61805,8.186" fill="none" stroke="#3e0e6c" stroke-width="2.5" stroke-linecap="round"/><path d="M478.47349,275.07919l-9.25631,10.21385" fill="none" stroke="#3e0e6c" stroke-width="2.5" stroke-linecap="round"/><path d="M432.51115,279.86692c0,0 3.16507,-2.48073 4.25366,-3.33395c0.67824,-0.53159 2.17717,-1.03581 3.05865,-0.6026c3.8915,1.91249 14.71254,7.23198 17.80397,8.76673c1.61366,0.80111 2.67813,2.20634 2.28257,2.6368c-0.91854,0.99958 -4.41768,4.98115 -4.41768,4.98115" fill="none" stroke="#3e0e6c" stroke-width="2.5" stroke-linecap="round"/><path d="M444.95928,283.53753l-2.55346,2.39387" fill="none" stroke="#3e0e6c" stroke-width="2.5" stroke-linecap="round"/><path d="M452.88772,267.27331c-0.79705,0.71735 -7.76884,6.52915 -7.76884,6.52915" fill="none" stroke="#3e0e6c" stroke-width="2.5" stroke-linecap="round"/><path d="M469.21719,272.52572l-8.45834,9.09671" fill="none" stroke="#3e0e6c" stroke-width="2.5" stroke-linecap="round"/><path d="M477.03717,288.32527l9.57548,-11.33099" fill="none" stroke="#3e0e6c" stroke-width="2.5" stroke-linecap="round"/><path d="M37.00764,177.20097c-1.69541,-17.03243 -2.82059,-33.59197 -2.91608,-54.27225c-0.0033,-0.7141 53.24087,-0.37712 53.20393,0.21389c-0.12154,1.94476 0.56426,29.16378 0.21016,34.77973c-0.03205,0.50835 -50.39578,20.30561 -50.498,19.27864z" fill="#54297c" stroke="#3e0e6c" stroke-width="2.5" stroke-linecap="butt"/><path d="M43.43715,171.373c-1.41674,-13.98708 -2.35699,-27.58582 -2.43678,-44.56852c-0.00276,-0.58642 44.48987,-0.3097 44.459,0.17564c-0.10156,1.59704 0.47152,23.94938 0.17562,28.56121c-0.02679,0.41746 -42.11241,16.67503 -42.19783,15.83167z" fill="#3e0e6c" stroke="none" stroke-width="0" stroke-linecap="butt"/><path d="M-49.22688,132.8973c2.67117,-7.38555 4.49437,-18.35303 4.49437,-34.34356c0,-31.38699 76.14013,-26.2224 105.75141,-49.3897c38.45241,-30.08444 33.4795,-84.24394 42.14649,-84.24394c3.28554,0 26.32744,-11.8688 33.03117,8.25722c7.42293,22.28522 -2.47036,77.68836 -22.04297,98.32067c-45.2872,47.73912 -170.1641,80.15546 -163.38047,61.39931z" fill="#3e0e6c" stroke="none" stroke-width="0" stroke-linecap="butt"/><path d="M288.4842,284.71025c112.07688,0 202.93315,18.93475 202.93315,42.29195c0,23.3572 -90.85627,42.29195 -202.93315,42.29195c-112.07688,0 -202.93315,-18.93475 -202.93315,-42.29195c0,-23.3572 90.85627,-42.29195 202.93315,-42.29195z" fill="#7b3bb7" stroke="#3e0e6c" stroke-width="2.5" stroke-linecap="butt"/><path d="M187.47359,235.67125c0,-9.47112 7.67786,-17.14898 17.14898,-17.14898c9.47112,0 17.14898,7.67786 17.14898,17.14898c0,9.47112 -7.67786,17.14898 -17.14898,17.14898c-9.47112,0 -17.14898,-7.67786 -17.14898,-17.14898z" fill-opacity="0.51373" fill="#ffd6ec" stroke="none" stroke-width="0" stroke-linecap="butt"/><path d="M205.92176,195.96451c0,-5.03153 4.07886,-9.1104 9.1104,-9.1104c5.03153,0 9.1104,4.07886 9.1104,9.1104c0,5.03153 -4.07886,9.1104 -9.1104,9.1104c-5.03153,0 -9.1104,-4.07886 -9.1104,-9.1104z" fill-opacity="0.51373" fill="#ffd6ec" stroke="none" stroke-width="0" stroke-linecap="butt"/><path d="M358.54668,183.74031l62.16506,4.28725l-12.86174,69.66774z" fill-opacity="0.51373" fill="#ffd6ec" stroke="none" stroke-width="0" stroke-linecap="butt"/><path d="M345.70232,115.54985l6.90874,-31.40336l31.40336,6.90874l-6.90874,31.40336z" fill-opacity="0.51373" fill="#ffd6ec" stroke="none" stroke-width="0" stroke-linecap="butt"/><path d="M545.22013,275.17246l-4.09277,-62.07367l38.19918,-38.88131z" fill-opacity="0.51373" fill="#ffd6ec" stroke="none" stroke-width="0" stroke-linecap="butt"/><path d="M22.7163,294.96249l-10.15576,-60.29219l10.15576,-60.29219l10.15576,60.29219z" fill-opacity="0.51373" fill="#ffd6ec" stroke="none" stroke-width="0" stroke-linecap="butt"/><path d="M60.95643,195.06079c0,-9.58468 4.19996,-17.3546 9.38086,-17.3546c5.18091,0 9.38086,7.76992 9.38086,17.3546c0,9.58468 -4.19996,17.3546 -9.38086,17.3546c-5.18091,0 -9.38086,-7.76992 -9.38086,-17.3546z" fill-opacity="0.51373" fill="#ffd6ec" stroke="none" stroke-width="0" stroke-linecap="butt"/><path d="M435.20572,198.2912c0,-2.17516 1.76332,-3.93848 3.93848,-3.93848c2.17516,0 3.93848,1.76332 3.93848,3.93848c0,2.17516 -1.76332,3.93848 -3.93848,3.93848c-2.17516,0 -3.93848,-1.76332 -3.93848,-3.93848z" fill-opacity="0.51373" fill="#ffd6ec" stroke="none" stroke-width="0" stroke-linecap="butt"/><path d="M121.92503,239.76833c1.35509,-1.96173 5.6271,-3.27754 7.17661,-0.64891c0.10789,0.18303 0.19348,0.36513 0.25891,0.54598c2.37715,-1.91896 5.04465,-3.5569 7.10743,-4.90614c1.33619,-0.87399 4.52188,-3.4918 6.36154,-2.10805c0.92318,0.6944 1.22708,2.21354 1.29197,3.84314c1.06511,-0.65748 2.33682,-0.73188 3.82928,0.3517c1.97553,1.4343 4.01242,5.68724 3.15286,8.1847c-0.68032,1.97667 -3.64231,2.11826 -4.29451,3.23813c-0.5803,0.99642 0.92635,2.12299 1.21067,3.24047c0.94173,1.59239 1.94292,0.26326 3.22551,1.49448c2.3887,2.29302 0.80895,6.40137 -1.89221,7.13872c-2.56217,0.69941 -5.53915,-0.15006 -8.34552,-0.95403c0.33902,0.33479 0.63469,0.66795 0.86232,0.95686c0.5527,0.70149 1.63683,1.45875 1.36058,2.30801c-0.31304,0.96235 -1.64679,1.2459 -2.61373,1.54448c-2.77524,0.85697 -7.28359,0.15227 -10.26588,0.42203c-0.65615,0.05935 -3.4017,-0.0322 -3.64506,-0.29546c-0.72442,-0.78366 0.12077,-4.15312 0.07505,-5.22519c-0.00287,-0.06722 -0.16968,-1.65879 -0.55803,-1.73983c-1.78501,4.49199 -7.72509,7.21553 -11.32988,2.74546c-2.74119,-3.39918 -0.34819,-6.11253 3.00712,-7.24157c0.78942,-0.26563 1.54326,-0.72562 2.32908,-0.71722c-0.3623,-0.12901 -0.74089,-0.28739 -0.9306,-0.42223c-1.56384,-1.11151 -2.35076,-2.58714 -3.07039,-4.29802c-1.15694,-2.89487 -2.07287,-5.02403 -0.57104,-7.81829c0.83773,-1.55867 0.20862,-2.95284 3.30024,-1.92634c0.82243,0.27307 1.24382,1.20699 1.861,1.81532c0.29063,0.28646 0.57408,0.58233 0.85176,0.88536c0.07684,-0.14036 0.16151,-0.27832 0.25491,-0.41355z" fill="#f2f2f2" stroke="none" stroke-width="0.5" stroke-linecap="butt"/><path d="M126.86134,247.40477c-0.44872,-1.16668 0.71796,-1.61541 0.71796,-1.61541l1.27557,-0.48972c0.43357,-0.20395 3.08116,-1.86561 4.61824,-2.55189c-0.31334,-0.04415 -0.62086,-0.10795 -0.81752,-0.16324c-1.20179,-0.33791 -5.25918,-0.93284 -5.64033,-2.43177c-0.48204,-1.8957 3.7523,-4.77569 4.98125,-5.44668c0,0 1.10059,-0.59262 1.69321,0.50796c0.59262,1.10059 -0.50796,1.69321 -0.50796,1.69321c-0.39536,0.20925 -0.82181,0.36814 -1.18608,0.62776c-0.20518,0.14623 -1.08748,1.33334 -1.7943,1.86145c0.46265,0.06912 1.00201,0.19178 1.29706,0.272c1.07845,0.29319 2.19655,0.47649 3.22748,0.90799c0.75179,0.31466 2.03375,0.29774 2.18417,1.09873c0.54401,2.89679 -5.24179,5.06134 -7.07361,5.92371l-1.35974,0.52386c0,0 -1.16668,0.44872 -1.61541,-0.71796z" fill="#3e0e6c" stroke="none" stroke-width="0.5" stroke-linecap="butt"/><path d="M122.88875,262.62907c-0.97609,-0.78087 -0.19522,-1.75695 -0.19522,-1.75695l0.36435,-0.45247c0.33056,-0.46244 0.67344,-0.91632 0.99167,-1.38732c0.31328,-0.46367 0.65426,-0.91405 0.9022,-1.41571c0.24441,-0.49451 0.12,-3.32525 -0.87566,-2.10829c-0.74044,0.90502 -0.47447,1.59045 -1.50773,2.42165c-0.57439,0.46207 -1.28871,0.73593 -1.98837,0.9681c-2.07329,0.68799 -6.65154,1.04477 -6.87695,-2.13455c-0.0512,-0.72217 0.71007,-1.26191 1.06511,-1.89286c0.43017,-1.04159 0.57007,-2.98398 1.16926,-3.84041c0.77092,-1.10189 6.84489,-2.94098 4.79004,-5.75653c-0.28534,-0.39098 -0.9599,0.13995 -1.42818,0.26239c-1.38099,0.36107 -5.11122,1.16761 -3.4946,3.18143c0,0 0.67109,1.05458 -0.38348,1.72567c-1.05458,0.67109 -1.72567,-0.38348 -1.72567,-0.38348c-2.2827,-4.03546 1.489,-6.16305 5.01949,-6.95439c1.34645,-0.3018 2.60182,-0.79615 3.84244,0.46511c1.70035,1.72864 0.31717,5.72852 -1.1633,7.12442c-0.66156,0.62377 -2.91991,0.95216 -3.37162,1.71463c-0.51693,0.87256 -0.64138,2.66019 -1.06062,3.6601c-1.92197,1.87922 3.25656,0.57329 3.95734,-0.01856c1.4336,-1.21077 0.9188,-3.17867 3.51559,-3.24908c0.72576,-0.01968 1.49337,0.24687 2.06396,0.69581c2.97522,2.34096 0.06234,6.31704 -1.40658,8.37497l-0.44651,0.56111c0,0 -0.78087,0.97609 -1.75695,0.19522z" fill="#3e0e6c" stroke="none" stroke-width="0.5" stroke-linecap="butt"/><path d="M141.49436,256.18405c0.36925,0.08389 0.96023,0.3524 0.96023,1.21189c0,1.25 -1.25,1.25 -1.25,1.25l-0.99426,-0.28255c-0.84754,-0.6964 -1.65749,-1.44742 -2.37945,-2.2733c-0.96745,-1.10669 -2.95946,-3.33655 -2.24283,-5.04658c0.77811,-1.85674 3.85441,-1.72326 5.38433,-1.88442c3.88951,-0.40971 7.75508,-0.55128 11.66231,-0.30851c0,0 1.24757,0.07797 1.16959,1.32554c-0.07797,1.24757 -1.32554,1.16959 -1.32554,1.16959c-3.76778,-0.23694 -7.49432,-0.09485 -11.24465,0.29964c-0.63204,0.06648 -1.26466,0.12772 -1.89615,0.19924c-0.47819,0.05415 -1.33111,-0.32338 -1.43632,0.14623c-0.21838,0.97474 2.51003,3.30206 3.59275,4.19323z" fill="#3e0e6c" stroke="none" stroke-width="0.5" stroke-linecap="butt"/><path d="M130.05518,255.94322c1.25,0 1.25,1.25 1.25,1.25v0.10136c-0.01454,2.4794 0.68818,5.0615 1.54466,7.37245c0,0 0.43213,1.17293 -0.7408,1.60506c-1.17293,0.43213 -1.60506,-0.7408 -1.60506,-0.7408c-0.95592,-2.60877 -1.68541,-5.44545 -1.6988,-8.23671v-0.10136c0,0 0,-1.25 1.25,-1.25z" fill="#3e0e6c" stroke="none" stroke-width="0.5" stroke-linecap="butt"/><path d="M151.64085,242.6981c-0.30317,1.21268 -1.51585,0.90951 -1.51585,0.90951l-0.68447,-0.17796c-1.71666,-0.25096 -7.76856,-1.13234 -7.44706,-3.84085c0.32063,-2.70118 5.67552,-1.37285 5.78023,-4.17494c0,0 0.19007,-1.23546 1.42554,-1.04539c1.23546,0.19007 1.04539,1.42554 1.04539,1.42554c-0.46633,2.22527 -1.48464,3.03258 -3.59514,3.90417c-0.27283,0.11267 -0.64916,0.28715 -1.01368,0.40867c1.46308,0.28518 3.8225,0.80128 4.15828,0.84794l0.93726,0.22748c0,0 1.21268,0.30317 0.90951,1.51585z" fill="#3e0e6c" stroke="none" stroke-width="0.5" stroke-linecap="butt"/><path d="M66.8698,129.20738c3.38179,1.90673 4.03259,4.78012 4.03259,8.41354v0.28127c0,0 0,0.089 -0.02375,0.21951c0.71832,-0.75831 1.48642,-1.4602 2.02397,-2.04072c0.47586,-0.51391 0.82249,-1.35321 1.51536,-1.45557c0.86241,-0.1274 1.79526,0.31198 2.46735,0.86721c2.0182,1.66728 2.66328,5.70332 2.92364,9.02821c3.65765,1.9117 3.8601,9.01539 -1.04378,9.70895c-0.44589,0.06306 -1.08055,0.01325 -1.7361,-0.13712c0.8216,1.90039 0.62568,3.86004 -2.54321,4.09088c-1.73343,0.12627 -1.95292,-0.83001 -3.25657,-1.40973c-2.09238,-0.93045 -5.07563,-2.28862 -5.60231,-4.83541c-0.27165,1.84483 -2.49342,5.78569 -3.25008,6.62218c-0.49491,0.54711 -1.00449,1.26545 -1.734,1.37537c-0.8329,0.12549 -1.74189,-0.24137 -2.41286,-0.75056c-0.33255,-0.25238 0.07958,-0.92958 -0.20434,-1.23563c-0.64247,-0.69255 -1.89785,-0.00161 -2.82962,-0.15714c-1.04823,-0.17497 -4.76587,-0.56405 -5.48924,-1.50439c-1.67172,-2.17312 0.40041,-4.24636 2.55803,-5.47092c-2.21992,0.15381 -4.99898,0.24667 -5.9925,-0.97263c-1.51334,-1.85724 0.27736,-6.17988 1.34136,-7.76467c1.80743,-2.69209 5.55237,-3.31366 8.70933,-2.36689l0.72593,-0.72593l0.20709,0.20709c0.00478,-0.00335 0.00957,-0.00671 0.01435,-0.01009c1.15276,-1.73458 2.77638,-3.51785 4.60352,-4.08056c0.84844,-2.01344 1.89198,-4.07446 3.29076,-5.63649c0,0 0.50774,-0.55853 1.16814,-0.41297c0.30662,0.02921 0.53692,0.15322 0.53692,0.15322z" fill="#f2f2f2" stroke="none" stroke-width="0.5" stroke-linecap="butt"/><path d="M443.92943,159.405c-0.62984,-1.07972 0.44988,-1.70956 0.44988,-1.70956c0.85978,-0.50012 1.64121,-1.09513 2.38173,-1.74204c-0.23536,-0.00806 -0.44517,-0.02826 -0.62163,-0.06053l-0.13784,-0.11961l-0.02589,0.05179l-1.24707,-0.62354c-0.4228,-0.20043 -0.7152,-0.63114 -0.7152,-1.13014c0,-0.51587 0.3125,-0.95876 0.75853,-1.14968l1.31486,-0.59767l0.58025,-0.33847l0.45247,-0.51712l0.17361,0.1519l0.24595,-0.14347c0.07701,-0.04681 0.15949,-0.08552 0.24624,-0.11497c3.69266,-4.56032 11.68335,-5.74798 17.11711,-7.14359c1.99032,-0.51119 6.59687,-0.75131 7.9049,1.5688c1.42329,2.52456 0.21638,3.33294 -1.46004,3.539c-0.23937,1.93158 -1.01456,3.45656 -2.62119,4.9139c-0.30316,0.27499 -2.99811,2.02982 -3.06491,2.33832c-0.44741,2.06596 2.62132,4.53003 1.68871,6.58527c-0.33797,0.74482 -2.44208,1.68397 -4.23555,2.3805l-1.05641,0.82164c-0.21322,0.16914 -0.48292,0.27015 -0.77621,0.27015c-0.69036,0 -1.25,-0.55964 -1.25,-1.25c0,-0.08487 0.00845,-0.16775 0.02457,-0.24787l0.23469,-1.29082c-0.00108,-0.85529 0.01036,-1.71206 0.07866,-2.56459c0.02197,-0.27427 -0.26132,0.48569 -0.41864,0.71143c-0.51837,0.74382 -0.86988,1.59744 -1.19062,2.44543c-0.86725,2.29289 -1.65486,4.25122 -3.22436,6.17117c-3.89026,2.86116 -8.24015,2.03281 -12.3683,-0.04421c-0.65245,-0.32827 -2.98971,-1.82113 -3.08426,-2.59917c-0.02873,-0.23642 1.8687,-3.27747 2.08628,-3.62589c0.62627,-1.00288 1.95119,-2.62342 3.08977,-4.34304c-0.37176,0.08845 -0.93806,0.07869 -1.33007,-0.59334z" fill="#f2f2f2" stroke="none" stroke-width="0.5" stroke-linecap="butt"/><path d="M502.29895,140.96793c-0.0048,0.02403 -0.00999,0.04749 -0.01553,0.07041c0.16336,0.17202 0.32682,0.34409 0.49024,0.51642c3.49602,2.23182 8.3173,7.47224 7.1237,10.9719c-1.64077,4.81075 -11.57641,6.38283 -15.83571,5.47458c-2.14245,-1.65986 -3.4699,-4.58643 -5.5269,-6.0831c-1.04199,-0.75815 -2.8756,0.14746 -3.95808,-0.64777c-0.5017,-0.36856 -0.82551,-0.93466 -1.05487,-1.58901c-0.32338,0.50796 -0.65263,1.01198 -0.98071,1.51506c-0.95132,1.4588 -1.77513,3.07113 -3.28525,4.04797c-4.71644,3.05092 -13.75058,2.86411 -18.31411,-0.20306c-0.00752,-2.19344 0.30043,-4.31168 0.7621,-6.40262c-0.22822,0.23165 -0.44245,0.45611 -0.63488,0.67261c-5.14345,5.78669 -12.65642,13.46329 -21.02309,13.35632c-1.98734,-0.85002 -4.74028,-2.05465 -6.50576,-3.21421c-2.81135,-1.84648 -3.00016,-4.82498 -2.19789,-7.81771c-3.78728,2.11703 -9.5894,0.88059 -12.82074,-1.21954c-2.51247,-1.63293 -5.11276,-2.62583 -5.26731,-5.87556c0.51223,-2.59201 0.36538,-5.93486 2.42572,-7.91048c1.45947,-1.39945 4.95641,-1.7501 4.22486,-4.72496c-0.15542,-0.63204 -0.95347,-0.88623 -1.42972,-1.32986c-1.58262,-1.47422 -3.3555,-2.70158 -4.98394,-4.11014c-0.50639,-0.43801 -1.44606,-0.58581 -1.57854,-1.24211c-0.17546,-0.86921 0.3687,-1.76651 0.81671,-2.53176c0.32326,-0.55215 0.94732,-0.86028 1.42098,-1.29042c2.5971,-1.4877 5.28193,-2.1066 7.92934,-3.07441c0.69903,-0.25554 -1.12178,-0.97847 -1.68282,-1.46752c-0.36865,-0.32135 -0.71821,-0.66478 -1.09588,-0.97549c-2.20166,-1.81127 -4.60732,-3.44559 -6.68401,-5.40425c-0.90244,-0.85116 -2.84632,-2.80164 -2.80025,-4.13194c0.07904,-2.28267 3.5347,-4.73406 5.20047,-5.73567c0.54307,-0.30179 2.57446,-1.48307 3.00962,-1.43516c2.68855,0.296 5.77577,5.28453 7.24067,7.11608c0.11082,0.13855 -0.06404,-0.35953 -0.02169,-0.53182c0.13328,-0.54226 0.34645,-1.06206 0.542,-1.5851c0.66447,-1.77725 1.80241,-6.07068 3.88291,-6.82033c2.60109,-0.93723 5.08374,1.99962 6.9352,4.17954c0.4651,0.21255 0.6649,0.71202 0.6649,0.71202c0.01419,0.03633 0.02804,0.07281 0.04154,0.10943c0.20092,0.22751 0.39177,0.43522 0.57164,0.6151l0.68336,1.63276c0,0 0.3495,1.04848 -0.59466,1.50231c0.15665,1.38522 0.38105,2.74465 1.17548,3.86903c4.57943,6.48135 11.85282,-1.21704 15.34683,-4.27394c2.49428,-2.07005 6.25221,-5.21203 9.76419,-4.73586c4.16352,0.56452 9.66512,3.71125 12.23217,6.93337c2.00398,2.51535 2.38142,5.42436 -0.16354,7.42124c1.935,0.00495 3.86492,0.0083 5.79962,-0.12404c10.34067,-0.70736 21.75523,-1.87315 31.92584,0.49009c0.58087,0.60343 1.67821,0.97519 1.74261,1.81029c0.15274,1.98041 -4.33771,3.9844 -5.64588,4.63914c-1.72256,0.86213 -3.44677,1.66809 -5.18207,2.43187c5.02823,1.73343 11.38507,0.0729 16.24382,-0.71529c3.92256,-0.63632 7.73652,-1.22557 9.51511,2.97261c0.49206,1.48117 1.11653,4.42704 1.97645,5.63641c1.21707,1.71166 4.55089,3.02056 4.81988,5.65318c0.34034,3.33099 -3.34995,4.1426 -5.84351,4.36312c-4.56771,0.40396 -10.64184,-0.14995 -13.84485,-3.69419c-0.65071,-1.17866 -2.24514,1.03865 -3.90582,0.89599c-2.30381,-0.19789 -5.6624,-1.08814 -7.71682,-2.17281c-3.48658,-1.8408 -4.43259,-7.10969 -8.34285,-7.89719c-1.33132,-0.26811 -2.84682,-0.09618 -4.1835,0.02662l-0.06267,0.12743c0,0 -0.09301,0.0465 -0.23877,0.08586c-0.07063,0.53816 -0.12081,1.0684 -0.10098,1.55467c0.04137,0.04576 0.08288,0.09138 0.12458,0.13679c1.50793,1.64202 3.0799,3.20964 4.6557,4.78867c0.83978,1.04805 1.72007,2.03772 2.6173,3.00652c0.08781,0.03925 0.17593,0.07835 0.26432,0.11736l0.37312,0.04367c0,0 1.22572,0.24515 0.98058,1.47087z" fill="#f2f2f2" stroke="none" stroke-width="0.5" stroke-linecap="butt"/><path d="M461.05542,106.47206c0.9692,3.20986 1.30577,6.36845 1.72028,9.68193c0.17513,1.39997 0.61525,3.23659 0.2311,4.64242c-0.70821,2.59171 -2.90141,3.84222 -5.12786,4.90913c-3.72143,1.7833 -7.01561,4.41561 -11.2587,4.44352c-5.25973,-0.34877 -9.48047,-0.39555 -13.22654,-4.61674c-0.86217,-0.97152 -2.43143,-2.70065 -2.7067,-4.02594c-0.88108,-4.24197 3.70534,-8.44353 4.70644,-12.44503c-0.32889,-0.18322 -0.659,-0.38455 -0.99376,-0.6064l-0.72314,-0.5725c0,0 -0.97608,-0.78087 -0.19521,-1.75696c0.78087,-0.97608 1.75695,-0.19522 1.75695,-0.19522l0.54816,0.44454c1.53976,1.03361 2.92878,1.52257 4.74916,1.82839c4.16154,-0.00698 7.3684,-2.93006 10.57175,-5.46226c1.34791,-1.06551 1.28965,-1.54293 3.073,-1.89295c2.3557,-0.46236 5.03956,0.90903 6.98231,2.06288c1.65494,0.98291 2.65838,2.12608 3.52543,3.81786c0,0 0.55902,1.11804 -0.55901,1.67705c-1.11804,0.55902 -1.67705,-0.55902 -1.67705,-0.55902c-0.41637,-0.86101 -0.87254,-1.49362 -1.50246,-2.0372c-0.05767,0.22641 -0.02156,0.49707 0.10587,0.66249z" fill="#f2f2f2" stroke="none" stroke-width="0.5" stroke-linecap="butt"/><path d="M468.2096,244.73048c0.21616,-0.03006 0.47067,-0.00191 0.76356,0.12955c0.31657,0.1421 0.49869,0.32442 0.5971,0.5128c0.33842,-0.11175 0.66262,-0.07379 0.66262,-0.07379c3.07178,0.35971 11.44604,-0.51474 12.93696,2.70911c1.33095,2.87796 -2.38004,4.56968 -4.59541,5.589c-0.89863,0.41347 -2.18281,0.29401 -2.81754,0.99903c-0.9847,1.09375 1.832,3.05505 2.74381,3.22789c1.47037,-0.00757 2.77,-0.12058 4.19603,-0.34882c0.77663,-0.1243 1.73426,-0.71164 2.34794,-0.26662c3.43506,2.49099 -3.33024,7.621 -5.45663,8.33705c-1.33531,0.44966 -2.88629,0.62969 -4.29704,0.35977c-1.12649,-0.21553 -2.58606,-1.47739 -3.80337,-1.23906c-1.68755,0.3304 -4.66435,1.61368 -6.40819,0.64324c-1.45069,-0.8073 -0.99806,-2.21511 -2.39198,-2.91294c-2.01288,-0.46073 -4.51055,-0.42736 -6.39066,-1.20459c-0.72343,-0.29906 -1.91598,-0.3649 -2.07355,-1.06576c-0.25945,-1.15402 1.80011,-2.66482 3.3657,-3.66133c-3.06291,-0.23632 -7.65566,-3.32968 -7.86412,-5.50593c-0.12092,-1.26243 0.75619,-1.69779 1.2426,-2.66352c0.5765,-1.14461 0.57873,-2.58911 1.19298,-3.69831c0.33011,-0.59611 0.58587,-1.38452 1.2711,-1.63906c0.96555,-0.35868 2.97117,0.4467 3.78044,0.9874c0.15418,0.10301 0.35142,0.25875 0.54024,0.43382c0.0025,-0.14761 0.00643,-0.28476 0.00489,-0.39381c1.92253,-5.53575 6.91751,-0.90562 10.45253,0.74488z" fill="#f2f2f2" stroke="none" stroke-width="0.5" stroke-linecap="butt"/><path d="M470.19336,248.22101c1,-0.75 1.75,0.25 1.75,0.25l0.31312,0.42291c0.26878,0.41814 0.53119,0.83127 0.79643,1.23955c0.38816,-0.32496 0.91655,-0.52364 1.6915,-0.49775c0.80406,0.02686 1.15402,1.12309 1.76801,1.64293c1.44322,1.22193 3.37969,1.94855 5.07642,2.7402c0,0 1.13272,0.5286 0.60412,1.66134c-0.52861,1.13273 -1.66134,0.60412 -1.66134,0.60412c-1.73341,-0.80909 -4.25321,-1.62148 -5.61366,-3.0538c-0.00738,0.28674 -0.12866,0.60732 -0.49867,0.89804c-0.37759,0.29668 -0.7241,0.33433 -1.00768,0.26818c-0.21763,0.3336 -0.46535,0.64112 -0.75373,0.89345c-2.08076,1.82063 -4.39346,1.05642 -6.60384,0.03477l-0.764,-0.33932c0,0 -1.14227,-0.50768 -0.63459,-1.64994c0.50768,-1.14227 1.64994,-0.63459 1.64994,-0.63459l0.80586,0.3584c0.92108,0.43471 2.10645,1.13353 3.19268,0.81333c0.69795,-0.20574 1.08248,-0.70664 1.37829,-1.29502c-0.52564,-0.76129 -1.01803,-1.53771 -1.52869,-2.332l-0.21017,-0.2748c0,0 -0.75,-1 0.25,-1.75zM474.46833,252.12044c-0.01875,-0.01374 -0.03475,-0.01938 -0.0485,-0.0183c0.06345,0.08333 0.1277,0.16644 0.19285,0.24935c-0.02513,-0.09316 -0.06698,-0.17435 -0.14435,-0.23105z" fill="#3e0e6c" stroke="none" stroke-width="0.5" stroke-linecap="butt"/><path d="M467.96232,262.33889c-0.55901,1.11804 -1.67705,0.55902 -1.67705,0.55902l-0.85442,-0.63734c-0.25429,-0.41459 -1.16121,-2.80543 -1.68695,-2.93262c-1.21891,-0.2949 -4.3199,2.57022 -5.19764,3.2604c0,0 -0.9829,0.77228 -1.75517,-0.21062c-0.77227,-0.9829 0.21062,-1.75518 0.21062,-1.75518c1.61249,-1.26602 5.0662,-4.37115 7.36123,-3.71675c1.79012,0.51043 2.35246,2.6771 3.19705,4.04453l-0.1567,-0.28848c0,0 1.11803,0.55901 0.55902,1.67705z" fill="#3e0e6c" stroke="none" stroke-width="0.5" stroke-linecap="butt"/><path d="M449.49514,249.82717c-0.69338,-1.04006 0.34668,-1.73344 0.34668,-1.73344l0.49078,-0.29496c1.1415,-0.45281 2.33365,-0.78796 3.53848,-1.02552c0.67761,-0.13361 1.35538,-0.27424 2.04127,-0.35524c0.38319,-0.04525 1.49583,0.17237 1.15749,-0.01311c-1.20465,-0.6604 -2.08864,-1.69772 -3.05779,-2.66665c0,0 -0.88389,-0.88388 0,-1.76776c0.88389,-0.88388 1.76776,0 1.76776,0c0.75407,0.75426 3.65577,2.88362 3.74492,3.96165c0.30951,3.74257 -5.89161,3.22989 -8.26364,4.18784l-0.03251,0.0539c0,0 -1.04006,0.69338 -1.73344,-0.34669z" fill="#3e0e6c" stroke="none" stroke-width="0.5" stroke-linecap="butt"/><path d="M464.79956,139.15398c0.14279,0.18173 0.24223,0.43485 0.24223,0.78742c0,1.25 -1.25,1.25 -1.25,1.25l-1.50949,-1.3234c0.14113,-2.39666 -0.23134,-7.32134 1.55938,-9.24393c1.24872,-1.34068 3.61945,-0.95439 5.19465,-0.82461c4.15622,0.3424 8.2982,1.62431 12.04448,3.43474c0.97474,0.47105 2.2638,0.81719 3.14393,1.44943c-0.02218,-2.09137 0.17309,-4.98854 1.49083,-5.70604c0.58368,-0.31781 2.86926,0.60452 3.68905,0.88636c2.66323,0.91559 5.20443,1.80282 8.02713,1.93908c0,0 1.24843,0.06242 1.18601,1.31086c-0.06242,1.24844 -1.31086,1.18602 -1.31086,1.18602c-3.06781,-0.1582 -5.82399,-1.07807 -8.71803,-2.07279c-0.63189,-0.21719 -1.13462,-1.35771 -1.71823,-1.03236c-0.13291,0.07409 -0.15762,4.03366 -0.14571,4.66228l0.44458,1.03735c0.0719,0.15777 0.11195,0.3331 0.11195,0.5178c0,0.69036 -0.55964,1.25 -1.25,1.25c-0.25689,0 -0.49569,-0.07749 -0.69428,-0.21038l-1.46743,-0.94951l0.08398,-0.12978c-4.39148,-1.72572 -8.46368,-4.12834 -13.29278,-4.90015c-0.58006,-0.0927 -4.49454,-0.82603 -5.00034,-0.13321c-1.02717,1.40697 -0.85265,4.72414 -0.86105,6.81483z" fill="#3e0e6c" stroke="none" stroke-width="0.5" stroke-linecap="butt"/><path d="M468.60767,145.86652c-0.3434,-1.20191 0.85851,-1.54531 0.85851,-1.54531l1.31118,-0.37104c2.81309,-0.36943 5.62004,-0.38524 8.44909,-0.54599c0.75193,-0.04272 1.87148,0.26103 2.22279,-0.40515c0.64275,-1.21882 -1.75313,-5.61043 -2.29197,-6.68491c0,0 -0.55902,-1.11803 0.55901,-1.67705c1.11804,-0.55901 1.67705,0.55901 1.67705,0.55901c0.94728,1.89972 3.54973,6.85055 2.24317,9.01368c-1.78728,2.95899 -9.44789,1.81289 -12.35271,2.18858l-1.13081,0.32668c0,0 -1.20191,0.3434 -1.54531,-0.8585z" fill="#3e0e6c" stroke="none" stroke-width="0.5" stroke-linecap="butt"/><path d="M443.11024,147.16845c0.88389,-0.88388 1.76777,0 1.76777,0l0.47069,0.4721c0.66992,0.72575 1.33875,1.45252 2.00615,2.18059c1.51758,1.64233 3.93887,4.26899 6.4642,3.73126c2.27074,-0.48352 1.95652,-3.99874 3.94121,-4.83484c0.82225,-0.3464 3.29958,0.77158 4.04706,1.22158c3.87563,2.33326 6.30396,5.60904 7.78665,9.82305c0,0 0.41294,1.17982 -0.76689,1.59276c-1.17982,0.41294 -1.59276,-0.76689 -1.59276,-0.76689c-1.27766,-3.67177 -3.32905,-6.44384 -6.69094,-8.49196c-0.61331,-0.37364 -1.28127,-1.43722 -1.88352,-1.046c-0.86019,0.55879 -1.51316,3.35861 -2.5747,4.19206c-3.65017,2.86588 -8.20114,-1.18812 -10.56777,-3.72578c-0.66726,-0.72791 -1.33594,-1.45453 -2.00572,-2.18013l-0.40145,-0.40004c0,0 -0.88389,-0.88388 0,-1.76777z" fill="#3e0e6c" stroke="none" stroke-width="0.5" stroke-linecap="butt"/><path d="M424.93986,123.36235c-1.21268,-0.30317 -0.90951,-1.51585 -0.90951,-1.51585l0.15096,-0.53809c1.11087,-2.56628 2.74734,-4.78458 5.08078,-6.224c-1.13999,-1.51021 -2.1585,-3.11689 -2.41915,-4.59063c-0.16687,-0.94351 -0.50324,-2.11875 0.08752,-2.87311c0.51763,-0.66098 1.64663,-0.36329 2.48479,-0.41152c2.22469,-0.12803 6.39178,2.07158 8.42003,0.77231c0.98422,-0.63049 0.62453,-3.72504 0.73111,-4.64171c0,0 0.14605,-1.24144 1.38749,-1.09539c1.24144,0.14605 1.09539,1.38748 1.09539,1.38748c-0.12126,1.01744 -0.03845,2.05356 -0.17646,3.06887c-0.77014,5.66576 -6.35069,3.58797 -10.18328,3.17339c-0.65875,-0.07126 -1.35034,-0.94917 -1.90107,-0.58075c-0.54408,0.36397 0.80342,1.03963 1.12381,1.61046c1.21936,2.17249 2.5674,4.09926 4.05837,6.09125c1.93411,2.14745 3.66579,3.47561 6.13146,4.95489l0.8046,0.59515c0,0 1,0.75 0.25,1.75c-0.75,1 -1.75,0.25 -1.75,0.25l-0.59083,-0.45142c-2.69838,-1.61915 -4.65859,-3.15628 -6.77627,-5.51083c-0.35303,-0.46982 -0.77237,-0.98575 -1.21796,-1.53334c-2.02952,1.09803 -3.43822,3.10848 -4.34245,5.24371l-0.02346,0.15962c0,0 -0.30317,1.21268 -1.51585,0.90951z" fill="#3e0e6c" stroke="none" stroke-width="0.5" stroke-linecap="butt"/><path d="M430.72433,149.15935c-0.32208,1.2078 -1.52987,0.88572 -1.52987,0.88572l-1.2208,-0.32888c-1.87162,-0.21592 -5.10435,-0.15107 -6.02212,-2.23238c-0.69104,1.54653 -1.32914,3.12301 -1.78014,4.81526c0,0 -0.32208,1.2078 -1.52987,0.88572c-1.20779,-0.32208 -0.88572,-1.52987 -0.88572,-1.52987c0.84519,-3.16773 2.09945,-5.8933 3.58319,-8.79357c0.26121,-0.51058 1.58578,-3.36899 2.11231,-3.59598c4.15814,-1.79255 5.07378,8.17395 8.87883,2.74977c0.23487,-0.33481 0.33441,-0.74647 0.50161,-1.1197l0.33932,-0.76399c0,0 0.50767,-1.14227 1.64993,-0.63459c1.14227,0.50768 0.63459,1.64993 0.63459,1.64993l-0.35839,0.80587c-1.34759,2.80371 -4.04274,5.57469 -7.37161,3.58721c-0.85019,-0.5076 -1.96519,-2.12887 -2.45776,-2.87247c-0.2499,-0.37726 -0.51583,-1.60139 -0.67508,-1.17782c-0.25404,0.6757 -0.52907,1.33729 -0.81519,1.99108c0.21642,-0.19349 0.93133,-0.71704 1.69963,-0.01277c0.92145,0.84465 0.07678,1.76609 0.07678,1.76609c-0.41631,0.45022 -1.17555,0.67733 -1.3302,1.27071c-0.08002,0.30701 4.05237,0.73597 4.21922,0.75594l1.39562,0.36883c0,0 1.2078,0.32208 0.88572,1.52988z" fill="#3e0e6c" stroke="none" stroke-width="0.5" stroke-linecap="butt"/><path d="M482.70556,118.99821c0.66265,-0.66266 1.32531,-0.33172 1.61551,-0.12454c4.44513,1.64808 9.2397,5.16993 14.04778,4.94279c2.62413,-1.23379 1.98301,-4.6791 5.58548,-4.09986c2.01266,0.32362 3.13835,2.44869 4.49519,3.64383c0.85348,0.75177 2.19504,0.41715 3.22295,0.41731c2.18451,0.00035 6.05991,0.45367 6.96201,-2.03326c0,0 0.4924,-1.14893 1.64133,-0.65653c1.14893,0.4924 0.65653,1.64133 0.65653,1.64133c-1.82463,3.90371 -10.59223,5.18884 -14.06064,2.57035c-0.28728,-0.21689 -3.29671,-3.96409 -3.96121,-3.30765c-0.5715,0.56456 -0.47719,1.56879 -0.96103,2.21007c-1.04164,1.38057 -1.41809,1.31875 -2.96324,2.03699c-5.59954,0.40094 -10.59904,-3.26024 -15.72997,-5.09255l-0.55068,-0.38051c0,0 -0.88389,-0.88388 0,-1.76776z" fill="#3e0e6c" stroke="none" stroke-width="0.5" stroke-linecap="butt"/><path d="M444.2917,127.15113c0.92912,-0.83621 1.76532,0.09291 1.76532,0.09291l0.27184,0.52961c0.50228,0.17737 1.00456,0.35474 1.50684,0.53211c2.59387,1.03799 5.30724,2.42903 7.22849,-0.55066c1.2527,-1.94283 -0.05274,-6.01653 3.25361,-6.41758c1.18423,-0.14364 2.34489,1.45099 2.95708,2.20617c2.27216,2.80289 3.10641,6.1543 3.32838,9.69144c0,0 0.07797,1.24757 -1.16959,1.32554c-1.24757,0.07797 -1.32554,-1.16959 -1.32554,-1.16959c-0.19433,-3.1226 -1.06092,-7.45392 -3.65698,-9.55712c-0.3891,-0.31523 -0.06685,1.00057 -0.14343,1.49544c-0.10248,0.66228 -0.18881,1.33218 -0.38231,1.97379c-0.46697,1.54837 -0.88703,2.22763 -2.12528,3.29294c-2.91736,2.50991 -5.70766,1.30382 -8.8449,0.04945c-0.48615,-0.17149 -0.9723,-0.34298 -1.45844,-0.51446l-1.29802,-1.21468c0,0 -0.83621,-0.92912 0.09291,-1.76532z" fill="#3e0e6c" stroke="none" stroke-width="0.5" stroke-linecap="butt"/><path d="M61.93695,152.76191c0,1.25 -1.25,1.25 -1.25,1.25h-0.6105c-2.06574,-0.00343 -7.46633,0.1369 -8.49454,-2.20154c-0.49088,-1.11639 1.56445,-4.25256 2.90048,-5.6399c-0.308,-0.11833 -0.6094,-0.24816 -0.87635,-0.43814c-5.83996,-4.15611 5.27859,-7.91508 8.35833,-8.90059c0.66942,-0.21421 1.34212,-0.41833 2.01718,-0.61403c0.46498,-0.1348 1.39727,0.07064 1.39227,-0.41345c-0.00565,-0.54619 -2.73439,-1.59868 -2.91072,-1.65716c-2.61257,-0.86644 -4.50115,-0.69501 -6.90767,0.46902c0,0 -1.12858,0.53742 -1.66599,-0.59116c-0.53742,-1.12858 0.59116,-1.66599 0.59116,-1.66599c3.54449,-1.66544 7.35872,-1.77991 10.86069,0.31796c0.94508,0.56616 2.70172,1.99083 2.51995,3.3779c-0.24754,1.88891 -1.80792,2.12136 -3.14288,2.55184c-2.53847,0.81857 -5.2487,1.40442 -7.60725,2.68719c-0.07167,0.03898 -2.98059,2.10703 -2.96086,2.15089c0.3172,0.70492 1.47848,0.46258 2.18618,0.77352c2.20516,1.11829 4.46276,1.04603 6.84688,1.01963c0.18358,-0.15595 0.44514,-0.26705 0.81779,-0.26705c1.25,0 1.25,1.25 1.25,1.25l-1.25,1.51164c-2.06315,0 -4.00286,0.06571 -5.90908,-0.30902c-0.25873,0.1623 -0.51372,0.20479 -0.51372,0.20479c-1.63684,0.16313 -1.58276,0.73462 -2.47989,2.07727c-0.23615,0.35342 -0.43505,0.73971 -0.73085,1.04495c-0.11146,0.11501 -0.59327,0.10341 -0.44859,0.17212c1.49139,0.70825 4.48655,0.5924 6.15748,0.58932h0.6105c0,0 1.25,0 1.25,1.25z" fill="#3e0e6c" stroke="none" stroke-width="0.5" stroke-linecap="butt"/><path d="M66.91432,153.7677c-0.39528,-1.18585 0.79057,-1.58114 0.79057,-1.58114l0.49815,-0.16575c0.86908,-0.30979 2.25797,-0.96907 3.56303,-1.37342c-1.33278,-0.95126 -2.48788,-2.21584 -2.47284,-3.5185c0.01279,-1.10784 2.64839,-3.35788 3.5009,-3.94045c2.48052,-1.69509 5.26225,-1.53174 8.12656,-1.53174c0,0 1.25,0 1.25,1.25c0,1.25 -1.25,1.25 -1.25,1.25c-1.78368,0 -3.84984,-0.25404 -5.55567,0.43473c-0.47714,0.19266 -3.59926,2.37061 -3.57389,2.64009c0.05809,0.61716 2.39962,2.1921 3.24294,2.44891h1.17705c0.69036,0 1.25,0.55964 1.25,1.25c0,0.61931 -0.45039,1.13343 -1.0415,1.23269l-1.37357,0.25755l-0.04119,-0.21967c-1.89948,0.88312 -3.83202,1.41229 -5.96097,2.17418l-0.54842,0.18311c0,0 -1.18585,0.39528 -1.58114,-0.79057z" fill="#3e0e6c" stroke="none" stroke-width="0.5" stroke-linecap="butt"/></g></g></svg>