<svg version="1.1" xmlns="http://www.w3.org/2000/svg" xmlns:xlink="http://www.w3.org/1999/xlink" width="451.56889" height="392.0764" viewBox="0,0,451.56889,392.0764"><g transform="translate(54.55015,7.99693)"><g data-paper-data="{&quot;isPaintingLayer&quot;:true}" fill-rule="nonzero" stroke-linejoin="miter" stroke-miterlimit="10" stroke-dasharray="" stroke-dashoffset="0" style="mix-blend-mode: normal"><path d="M154.6615,327.91023c0.01084,-0.08141 5.05559,-12.16465 8.90264,-21.37664c0.42724,-1.02306 1.73781,-44.52832 16.36342,-45.05648c15.03561,-0.00453 5.65336,23.99322 5.39969,31.57814c-0.07536,2.25332 18.39728,-32.87275 27.54659,-23.35489c10.91633,9.26028 -6.18721,32.15299 -8.65911,35.63121c-0.13716,0.19299 14.66199,9.50322 2.14128,29.15006c-10.52875,16.52116 -16.25141,2.38383 -17.55964,3.16065c-4.37431,2.59744 -4.00604,10.34454 -4.14395,10.3911c-6.79318,2.29334 -8.47593,-6.9316 -11.10287,-7.28147c-9.39795,-1.25169 -20.13975,-3.44373 -18.88805,-12.84168z" fill="#6a4a6d" stroke="#5f0d63" stroke-width="2.5" stroke-linecap="butt"/><path d="M109.9724,371.36572c-2.16275,6.88008 -10.56584,-2.94358 -19.90667,-6.78974c-9.34083,-3.84616 -15.15981,-12.5415 -12.99707,-19.42158c2.16275,-6.88008 2.90766,-19.43866 12.24849,-15.5925c2.79125,1.14932 5.57771,11.91291 10.22323,21.87712c4.48779,9.62589 10.89428,18.45617 10.43202,19.9267z" data-paper-data="{&quot;index&quot;:null}" fill="#803686" stroke="#5f0d63" stroke-width="2.5" stroke-linecap="butt"/><path d="M29.67463,348.28436c8.37604,-7.57599 15.02062,-16.62445 18.41566,-16.62445c11.36138,0 7.91215,12.10568 7.91215,19.41748c0,7.3118 -9.21022,13.23919 -20.5716,13.23919c-11.36138,0 -23.73645,5.98788 -23.73645,-1.32392c0,-1.5628 9.8886,-7.38954 17.98024,-14.7083z" fill="#803686" stroke="#5f0d63" stroke-width="2.5" stroke-linecap="butt"/><path d="M84.021,356.62418c0,1.59524 4.36164,8.5917 4.0813,9.76819c-1.57633,6.6153 -40.84049,7.17349 -40.84049,-3.3916c0,-6.32066 -2.71011,-31.05513 2.94167,-34.53827c3.79527,-2.33899 10.36125,-2.97111 15.43792,-2.97111c6.40103,0 14.4387,2.94777 18.59143,6.48976c4.04543,3.45048 -0.21184,19.42961 -0.21184,24.64302z" fill="#803686" stroke="#5f0d63" stroke-width="2.5" stroke-linecap="butt"/><path d="M74.3747,352.33694c0,0.74668 4.25239,6.29552 3.61644,9.25744c-0.23669,1.10239 -30.72934,11.97149 -30.72934,1.4064c0,-1.95243 4.85946,-1.49403 6.84206,-5.60341c0.45333,-0.93962 -0.71478,-9.86727 0.16689,-10.81354c0.83538,-0.89659 11.27933,-3.09881 11.47399,-3.11596c4.44093,-0.39128 -5.18001,-17.97646 -0.10334,-17.97646c6.40103,0 14.4387,2.94777 18.59143,6.48976c3.32483,2.83585 1.04139,14.1345 0.12241,20.96396c-0.1165,0.86579 -9.98054,-0.60818 -9.98054,-0.60818z" fill="#b058b5" stroke="none" stroke-width="0" stroke-linecap="butt"/><path d="M84.021,356.62418c0,1.59524 4.36164,8.5917 4.0813,9.76819c-1.57633,6.6153 -40.84049,7.17349 -40.84049,-3.3916c0,-6.32066 -2.71011,-31.05513 2.94167,-34.53827c3.79527,-2.33899 10.36125,-2.97111 15.43792,-2.97111c6.40103,0 14.4387,2.94777 18.59143,6.48976c4.04543,3.45048 -0.21184,19.42961 -0.21184,24.64302z" fill="none" stroke="#5f0d63" stroke-width="2.5" stroke-linecap="butt"/><path d="M66.93214,336.37327c-10.56267,-2.04574 -8.4275,-15.98828 -8.10069,-16.86626c1.47114,-3.95229 17.89183,-1.62148 17.89183,4.88991c0,0 0.84981,14.03724 -9.79114,11.97635z" fill="#6a4a6d" stroke="#5f0d63" stroke-width="2.5" stroke-linecap="butt"/><path d="M148.35884,326.24017c20.40512,0 56.23935,16.12414 56.23935,22.13174c0,6.0076 -35.29832,34.45757 -55.70344,34.45757c-20.40512,0 -36.94674,-4.87012 -36.94674,-10.87772c0,-2.83746 34.76444,-45.71159 36.41083,-45.71159z" fill="#803686" stroke="#5f0d63" stroke-width="2.5" stroke-linecap="butt"/><g fill="#a1a7ff" stroke="#5f0d63" stroke-width="2.5" stroke-linecap="butt"><path d="M68.56228,341.36807c1.10119,-4.89425 8.71633,-12.45889 14.86374,-11.5636c2.52469,0.36769 4.97195,0.54013 5.47142,5.61835c0.15896,1.61623 -1.94405,4.82606 -2.25136,7.68577c-0.207,1.92625 1.45048,3.67987 1.19478,4.73272c-1.07618,4.43119 -4.95094,8.42651 -7.22888,8.09476c-6.1474,-0.89529 -13.15089,-9.67375 -12.04969,-14.568z"/><path d="M46.78456,352.92388c-2.96054,-0.23254 -6.16351,-4.99217 -5.7179,-9.49319c0.10587,-1.06944 2.86794,-2.34762 3.38535,-4.24123c0.76814,-2.81128 -0.55164,-6.39126 0.29535,-7.89979c2.66125,-4.73982 5.7679,-4.31391 9.04912,-4.05618c7.9895,0.62755 14.39988,9.70663 13.79918,14.65689c-0.6007,4.95026 -12.8216,11.66105 -20.81109,11.0335z" data-paper-data="{&quot;index&quot;:null}"/><path d="M68.33565,337.39434c0.88906,0.06984 1.75445,0.23361 2.53383,0.50047c0.99189,0.33963 2.55233,3.49743 1.98125,5.0057c-0.53753,1.41964 -1.43384,2.76842 -1.91691,2.96418c-0.9489,0.38452 -2.04008,0.56453 -3.17573,0.47533c-1.33237,-0.10465 -2.5156,-0.56333 -3.41985,-1.24898c-1.26467,-0.95893 -1.12631,-4.92128 -0.04121,-5.92853c1.04524,-0.97026 2.47063,-1.89133 4.03863,-1.76817z"/></g><g><path d="M146.36307,276.70921c-0.64635,1.21658 -8.64912,-3.50353 -13.9777,-13.01084c-2.47096,-4.4087 -3.73689,-11.35184 -4.56276,-16.49779c-1.8984,-11.82868 0.75412,-22.39546 2.19165,-24.56242c10.35144,-15.60395 40.89932,-37.61228 42.8309,-37.30215c6.20713,0.99663 -18.30468,75.98132 -26.4821,91.37321z" data-paper-data="{&quot;index&quot;:null}" fill="#ff3ef9" stroke="#5f0d63" stroke-width="2.5" stroke-linecap="butt"/><path d="M19.54638,241.01937c-3.77967,-17.83501 12.34091,-99.78579 20.77752,-97.79888c2.62538,0.6183 17.5447,37.12498 24.03285,56.16705c0.90103,2.64442 -0.32048,13.50735 -7.96075,23.3974c-3.32381,4.30256 -8.00385,10.03708 -13.12393,12.90086c-11.04138,6.17566 -23.42694,6.74326 -23.72569,5.33357z" data-paper-data="{&quot;index&quot;:null}" fill="#ff3ef9" stroke="#5f0d63" stroke-width="2.5" stroke-linecap="butt"/><path d="M21.56967,235.86143c13.87148,-33.8283 52.53977,-50.00649 86.36807,-36.13502c33.8283,13.87148 50.0065,52.53979 36.13503,86.36808c-13.87148,33.8283 -52.53978,50.00649 -86.36807,36.13502c-33.8283,-13.87148 -50.00649,-52.53977 -36.13502,-86.36807z" data-paper-data="{&quot;index&quot;:null}" fill="#6a4a6d" stroke="#5f0d63" stroke-width="2.5" stroke-linecap="butt"/><path d="M108.20051,199.35867c33.8283,13.87148 50.0065,52.53979 36.13503,86.36808c-11.05636,26.96308 -28.43259,37.73865 -52.55106,32.7705c-21.22912,-4.37297 -30.11982,-26.17548 -26.89442,-47.60899c5.21315,-34.64242 21.93749,-80.29369 43.31046,-71.52959z" data-paper-data="{&quot;index&quot;:null}" fill="#946798" stroke="none" stroke-width="0" stroke-linecap="butt"/><path d="M21.30689,236.22916c13.87148,-33.8283 52.53978,-50.0065 86.36808,-36.13502c33.8283,13.87148 50.0065,52.53979 36.13503,86.36808c-13.87148,33.8283 -52.53979,50.0065 -86.36808,36.13502c-33.8283,-13.87148 -50.00649,-52.53978 -36.13502,-86.36808z" data-paper-data="{&quot;index&quot;:null}" fill="none" stroke="#5f0d63" stroke-width="2.5" stroke-linecap="butt"/><g data-paper-data="{&quot;index&quot;:null}" stroke-linecap="butt"><path d="M148.90279,299.20979c-1.44564,6.42911 -7.63004,10.51384 -13.81322,9.1235c-6.18319,-1.39035 -10.02373,-7.72927 -8.57809,-14.15839c1.44564,-6.42911 7.63004,-10.51383 13.81322,-9.12349c6.18318,1.39034 10.02373,7.72927 8.57808,14.15838z" fill="#5f0d63" stroke="none" stroke-width="0"/><path d="M123.60491,251.94097c15.40175,3.46322 24.41621,21.70765 20.13436,40.75006c-4.28186,19.04241 -20.67989,29.46532 -36.08165,26.00209c-15.40175,-3.46322 -23.97491,-19.50113 -19.69305,-38.54354c4.28186,-19.04242 20.23858,-31.67185 35.64034,-28.20862z" fill="#ffffff" stroke="#5f0d63" stroke-width="2.5"/></g><g data-paper-data="{&quot;index&quot;:null}" stroke-linecap="butt"><path d="M31.31482,258.37137c7.07658,1.59123 11.58195,8.35712 10.06305,15.11203c-1.5189,6.75491 -8.48691,10.9409 -15.56348,9.34966c-7.07658,-1.59123 -11.58195,-8.35712 -10.06305,-15.11203c1.5189,-6.75491 8.48691,-10.9409 15.56348,-9.34966z" fill="#5f0d63" stroke="none" stroke-width="0"/><path d="M88.01158,278.34021c-4.49885,20.0074 -22.87676,30.80693 -40.50387,26.84332c-17.6271,-3.96361 -27.82835,-21.18942 -23.32949,-41.19682c4.49885,-20.0074 22.43546,-33.01346 40.06256,-29.04985c17.6271,3.96361 28.26966,23.39596 23.77081,43.40336z" fill="#ffffff" stroke="#5f0d63" stroke-width="2.5"/></g><g data-paper-data="{&quot;index&quot;:null}" stroke="none" stroke-width="0" stroke-linecap="butt"><path d="M60.25791,256.54363c6.1354,1.3796 9.84643,8.11348 8.28882,15.04055c-1.55761,6.92707 -7.79404,11.42417 -13.92944,10.04457c-6.1354,-1.3796 -9.84643,-8.11348 -8.28882,-15.04055c1.55761,-6.92706 7.79404,-11.42418 13.92944,-10.04458z" fill="#5f0d63"/><path d="M57.67866,262.99126c2.90277,0.65271 4.70275,3.64196 4.02037,6.67667c-0.68238,3.03472 -3.58873,4.96571 -6.4915,4.313c-2.90277,-0.65271 -4.70275,-3.64197 -4.02037,-6.67668c0.68238,-3.03471 3.58873,-4.9657 6.4915,-4.31299z" fill="#ffffff"/></g><g data-paper-data="{&quot;index&quot;:null}" stroke="none" stroke-width="0" stroke-linecap="butt"><path d="M115.0559,271.81207c5.73957,1.29059 9.20186,7.63143 7.73326,14.16266c-1.46861,6.53123 -7.31199,10.77961 -13.05155,9.48901c-5.73957,-1.29059 -9.20186,-7.63143 -7.73326,-14.16266c1.46861,-6.53123 7.31199,-10.77961 13.05155,-9.48901z" fill="#5f0d63"/><path d="M112.35155,277.87487c2.71549,0.6106 4.39526,3.42514 3.75188,6.28644c-0.64339,2.8613 -3.36631,4.68585 -6.0818,4.07525c-2.71549,-0.6106 -4.39526,-3.42514 -3.75188,-6.28644c0.64339,-2.8613 3.36631,-4.68585 6.0818,-4.07525z" fill="#ffffff"/></g><g data-paper-data="{&quot;index&quot;:null}" stroke="#5f0d63" stroke-width="2.5" stroke-linecap="butt"><path d="M160.31039,223.81283c-2.05528,8.7269 -24.9863,17.07738 -63.99778,9.22992c-44.38814,-8.92902 -64.35003,-22.78383 -65.45729,-31.31883c0.90018,-9.70748 27.66371,-18.75245 66.132,-12.55185c39.28587,6.33239 65.37835,25.91386 63.32307,34.64076z" fill="#662b69"/><path d="M50.22173,188.77737c-1.71829,-22.19493 2.10724,-56.19218 3.1725,-74.23643c0.36297,-6.14845 1.74757,-10.53873 3.56599,-11.85913c0.22444,-0.04585 22.77169,-11.43119 57.32188,-3.35017c49.55425,11.59036 60.26117,26.77449 59.98636,29.88457c-1.67378,18.94234 -24.05559,62.21231 -31.7165,80.99612c-0.34234,0.67794 -0.2705,4.45601 -2.44054,5.66947c-3.25934,1.8226 -89.69937,-24.6459 -89.8897,-27.10443z" fill="#662b69"/><path d="M51.18647,195.56005c-0.38238,-7.03082 1.03115,-16.04832 0.10967,-25.698c-0.02999,-0.31412 -0.69606,8.17084 15.8006,16.2692c7.16665,3.51818 21.97247,6.23005 34.14009,9.3386c36.02364,9.20321 47.34482,-0.02555 47.17873,0.43966c-1.9541,5.47333 -3.79662,10.33991 -5.36362,14.18205c-0.34234,0.67794 -0.2705,4.45601 -2.44053,5.66947c-0.86834,0.48557 -11.95711,9.41267 -44.30286,1.70736c-12.92757,-3.02903 -24.31367,-6.43075 -31.59891,-10.42472c-10.04385,-5.50632 -13.51448,-11.32417 -13.52315,-11.48362z" fill="#a1a7ff"/></g><g><path d="M90.46897,315.91307c0,0 -2.28809,3.8856 -8.64384,3.5174c-2.34144,-0.13564 -4.8936,-3.24855 -9.67266,-4.07391c-5.31033,-0.91711 -11.72953,-0.16102 -13.4418,-0.69204c-8.02283,-2.48808 -11.29575,-8.18307 -11.29575,-8.18307" fill="none" stroke="#5f0d63" stroke-width="2.5" stroke-linecap="round"/><path d="M84.42391,319.79284c-0.1429,0.46826 -9.91514,9.74434 -19.98283,6.67205c-10.06769,-3.07229 -15.57416,-16.70192 -15.43126,-17.17019c0.12064,-0.39534 1.0686,2.8405 10.32893,5.63239c1.7082,0.515 10.63404,-0.47103 12.20194,0.00743c3.57772,1.09179 6.70986,3.52767 9.0821,4.19122c4.30325,1.20368 3.89323,0.36523 3.80112,0.66709z" fill="#5f0d63" stroke="none" stroke-width="0" stroke-linecap="butt"/></g></g><path d="M-54.55015,369.90213v-377.89905h451.56889v377.89905z" fill="none" stroke="none" stroke-width="0" stroke-linecap="butt"/></g></g></svg>