<svg version="1.1" xmlns="http://www.w3.org/2000/svg" xmlns:xlink="http://www.w3.org/1999/xlink" width="244.75848" height="590.83904" viewBox="0,0,244.75848,590.83904"><g transform="translate(-192.80508,304.70663)"><g data-paper-data="{&quot;isPaintingLayer&quot;:true}" fill-rule="nonzero" stroke-linecap="butt" stroke-linejoin="miter" stroke-miterlimit="10" stroke-dasharray="" stroke-dashoffset="0" style="mix-blend-mode: normal"><path d="M286.27216,151.10252v-455.80915h49.87604v455.80915z" fill="#211b1b" stroke="none" stroke-width="0"/><path d="" fill="#ffffff" stroke="none" stroke-width="0"/><path d="" fill="#ffffff" stroke="none" stroke-width="0"/><g><g><path d="M194.05714,141.59711c20.47688,0 154.18465,0 242.25643,0c2.20386,0 -12.73356,143.2853 -15.04206,143.2853c-14.54693,0 -183.19046,0 -215.33905,0c-2.0287,0 -6.48069,-50.93435 -9.37495,-92.06717c-1.96011,-27.85683 -3.20576,-51.21813 -2.50036,-51.21813z" fill="#787375" stroke="#211b1b" stroke-width="2.5"/><path d="M194.26415,141.38279c-2.06258,0 11.75576,-16.27132 14.25037,-17.16983c3.41444,-1.22981 208.64722,-1.34775 211.38061,-1.34775c3.43931,0 17.96017,18.51758 15.04207,18.51758c-32.0515,0 -224.76278,0 -240.67306,0z" fill="#6e5c60" stroke="#211b1b" stroke-width="2.5"/><path d="M202.16737,150.12349c19.07403,0 143.62168,0 225.65979,0c2.05287,0 -11.8612,131.67203 -14.01155,131.67203c-13.55034,0 -170.64034,0 -200.58649,0c-1.88972,0 -6.03672,-46.80612 -8.73269,-84.60512c-1.82583,-25.59903 -2.98613,-47.0669 -2.32906,-47.0669z" fill="#211b1b" stroke="none" stroke-width="0"/></g><path d="M270.98219,225.28551c0,-24.18112 19.60267,-43.78379 43.7838,-43.78379c24.18112,0 43.7838,19.60268 43.7838,43.7838c0,9.81462 -2.75054,17.75785 -8.20458,25.05941c-1.79201,2.39903 -12.6511,17.26744 -34.55843,18.32302c-27.97481,-1.51463 -34.32128,-15.26902 -36.6139,-18.34162c-5.44563,-7.29834 -8.19068,-15.23452 -8.19068,-25.04081z" fill="#ffffff" stroke="none" stroke-width="0"/><path d="M274.80906,225.57262c0,-22.01582 17.84735,-39.86318 39.86318,-39.86318c22.01582,0 39.86318,17.84736 39.86318,39.86318c0,5.68795 -1.19128,11.09766 -3.33796,15.99323c-2.71693,6.19607 -11.00799,21.97425 -35.29683,22.49479c-18.00968,-0.52009 -29.6102,-5.20225 -37.29922,-21.49635c-2.43231,-5.15441 -3.79234,-10.91422 -3.79234,-16.99168z" fill="#211b1b" stroke="none" stroke-width="0"/><path d="M344.70083,240.71337c0,0.06603 0.13883,2.93753 -0.90127,3.97579c-0.16944,0.16914 1.02527,1.23089 0.859,1.48429c-1.67117,2.54699 -4.66277,8.10097 -8.6519,10.25677c-5.62621,3.04051 -14.66652,-0.49736 -21.53397,-0.49736c-5.41059,0 -13.04073,2.69696 -18.24268,1.1672c-5.12861,-1.50819 -7.8485,-5.95488 -10.4919,-7.5819c-1.69782,-1.04502 -1.7029,-5.29308 -1.15983,-7.43222c0.16227,-0.63917 1.27517,-1.47551 1.27517,-1.49825c0,-0.21202 2.03107,11.5768 10.25398,13.76229c4.86417,1.2928 12.73685,-2.32734 18.38441,-2.32734c8.30909,0 13.47969,4.76336 21.40886,0.51626c6.41515,-3.43615 8.80011,-12.00823 8.80011,-11.82553z" fill="#ffffff" stroke="none" stroke-width="0"/><g stroke="none" stroke-width="0"><g data-paper-data="{&quot;index&quot;:null}"><path d="M281.74818,247.91674c-9.0869,-6.18066 -11.60215,-21.28268 -5.61798,-33.7313c5.98417,-12.44862 18.2017,-17.52982 27.2886,-11.34916c10.23307,6.96024 11.89387,21.72728 6.04255,33.89964c-0.8467,1.76137 -5.89818,11.18766 -12.10924,13.91305c-6.15884,2.70247 -13.4721,-1.28221 -15.60393,-2.73222z" fill="#ffffff"/><path d="M283.38169,244.35499c-7.58314,-5.15784 -9.68216,-17.76068 -4.68828,-28.14923c4.99388,-10.38855 15.18957,-14.62887 22.77271,-9.47103c7.58314,5.15784 9.68215,17.76067 4.68828,28.14922c-4.99388,10.38855 -15.18957,14.62888 -22.77271,9.47105z" fill="#211b1b"/></g><path d="M277.06017,243.8843c0,3.34815 -11.65294,-6.14203 -11.65294,-6.44987c0,-1.91046 5.92215,-15.58244 7.41404,-15.58244c2.34109,0 4.23891,16.76552 4.23891,22.03231z" fill="#ffffff"/><path d="" fill="#ffffff"/></g><g data-paper-data="{&quot;index&quot;:null}" stroke="none" stroke-width="0"><g data-paper-data="{&quot;index&quot;:null}"><path d="M329.80057,251.17964c-6.21106,-2.72539 -11.26254,-12.15168 -12.10924,-13.91305c-5.85132,-12.17236 -4.19052,-26.9394 6.04255,-33.89964c9.0869,-6.18066 21.30442,-1.09946 27.2886,11.34917c5.98417,12.44862 3.46892,27.55065 -5.61798,33.7313c-2.13182,1.45001 -9.44509,5.4347 -15.60393,2.73222z" fill="#ffffff"/><path d="M320.83869,235.41462c-4.99388,-10.38855 -2.89487,-22.99138 4.68827,-28.14922c7.58314,-5.15784 17.77884,-0.91752 22.77271,9.47104c4.99388,10.38855 2.89486,22.99139 -4.68828,28.14923c-7.58314,5.15784 -17.77883,0.91751 -22.7727,-9.47104z" fill="#211b1b"/></g><path d="M354.17184,222.38267c1.49189,0 7.41404,13.67199 7.41404,15.58245c0,0.30784 -11.65294,9.79802 -11.65294,6.44987c0,-5.2668 1.89782,-22.03232 4.23891,-22.03232z" fill="#ffffff"/><path d="" fill="#ffffff"/></g><g stroke="none" stroke-width="0"><path d="M376.57661,188.10821c0,9.25465 -27.37985,16.75704 -61.1546,16.75704c-33.77475,0 -61.1546,-7.50239 -61.1546,-16.75704c0,-9.25465 27.37985,-16.75703 61.1546,-16.75703c33.77475,0 61.1546,7.50238 61.1546,16.75703z" fill="#211b1b"/><g><path d="M370.59407,189.00832c0,6.44134 -25.19229,11.66307 -56.26857,11.66307c-31.07628,0 -56.26858,-5.22173 -56.26858,-11.66307c0,-6.44134 25.1923,-11.66308 56.26858,-11.66308c31.07628,0 56.26858,5.22174 56.26858,11.66308z" fill="#ffffff"/><path d="M284.91345,181.4762c0,-10.36898 13.56574,-18.7747 30.29991,-18.7747c16.73418,0 30.29991,8.40572 30.29991,18.7747c0,10.36898 -60.59981,10.36898 -60.59981,0z" fill="#211b1b"/><path d="M315.21337,163.28565c15.99784,0 28.96666,7.29613 28.96666,16.29635c0,9.00023 -57.93333,9.00023 -57.93333,0c0,-9.00022 12.96883,-16.29635 28.96667,-16.29635z" fill="#ffffff"/></g></g><g fill="none" stroke="none" stroke-width="1" font-family="sans-serif" font-weight="normal" font-size="12" text-anchor="start"/><g data-paper-data="{&quot;index&quot;:null}" fill="#211b1b" stroke="none" stroke-width="0"><path d=""/></g></g><path d="M293.21484,235.63077c0,-0.60752 0.49249,-1.1 1.1,-1.1c0.60751,0 1.1,0.49249 1.1,1.1c0,0.60752 -0.49248,1.1 -1.1,1.1c-0.60751,0 -1.1,-0.49248 -1.1,-1.1z" fill="#ffffff" stroke="none" stroke-width="0"/><path d="M333.61484,239.43077c0,-0.60752 0.49248,-1.1 1.1,-1.1c0.60751,0 1.1,0.49248 1.1,1.1c0,0.60752 -0.49249,1.1 -1.1,1.1c-0.60751,0 -1.1,-0.49248 -1.1,-1.1z" fill="#ffffff" stroke="none" stroke-width="0"/><g fill="#ffffff" stroke="none" stroke-width="0"><path d="M351.16987,246.54632c-2.13623,5.12268 -15.10737,6.22701 -12.66978,5.27162c1.4334,-0.5618 7.61528,-1.99102 10.93858,-6.02428c2.64938,-3.21535 2.73013,-9.08702 2.60446,-10.21576c0,0 1.87175,4.38591 -0.87326,10.96842z"/><path d="M352.59359,249.21505c-1.02359,2.45455 -7.23876,2.9837 -6.07078,2.52592c0.68682,-0.26919 3.64888,-0.95401 5.24126,-2.88656c1.26947,-1.54065 1.30814,-4.35408 1.24793,-4.89492c0,0 0.89686,2.10153 -0.41841,5.25556z"/></g><g data-paper-data="{&quot;index&quot;:null}" fill="#ffffff" stroke="none" stroke-width="0"><path d="M275.59711,234.57789c-0.12567,1.12874 -0.04492,7.00041 2.60446,10.21576c3.3233,4.03326 9.50518,5.46248 10.93858,6.02428c2.43759,0.95539 -10.53355,-0.14894 -12.66978,-5.27162c-2.745,-6.58252 -0.87326,-10.96842 -0.87326,-10.96842z"/><path d="M274.62823,242.95948c-0.06021,0.54084 -0.02153,3.35428 1.24793,4.89492c1.59238,1.93255 4.55444,2.61737 5.24126,2.88656c1.16798,0.45778 -5.04719,-0.07137 -6.07078,-2.52592c-1.31527,-3.15403 -0.41841,-5.25556 -0.41841,-5.25556z"/></g></g></g></svg>