<svg version="1.1" xmlns="http://www.w3.org/2000/svg" xmlns:xlink="http://www.w3.org/1999/xlink" width="24" height="24" viewBox="0,0,24,24"><g transform="translate(-443.99278,-333.9027)"><g data-paper-data="{&quot;isPaintingLayer&quot;:true}" fill-rule="nonzero" stroke-linejoin="miter" stroke-miterlimit="10" stroke-dasharray="" stroke-dashoffset="0" style="mix-blend-mode: normal"><path d="M443.99278,357.9027v-24h24v24z" fill-opacity="0.40784" fill="#450031" stroke="none" stroke-width="0" stroke-linecap="butt"/><g fill="none" stroke="#801375" stroke-width="2.5"><path d="M465.26701,343.20801c0,1.39703 0.66706,4.59232 0.41443,6.01155c-0.64891,3.6456 -3.09186,5.12651 -6.81432,5.12651c-2.00318,0 -1.78244,-1.66163 -4.17199,-1.78616c-3.77957,-0.19696 -8.02149,0.61896 -8.02149,-2.43552c0,-0.07058 -0.68115,-4.28381 -0.02655,-6.64371c0.22078,-0.79591 1.82739,-0.66457 2.00587,-1.05477c0.70767,-1.54714 -0.64643,-4.97905 2.51979,-6.19648c1.5419,-0.59287 4.49143,1.66963 6.13034,1.99107c0.07326,0.01437 3.04464,-2.90735 5.02222,-1.34501c1.0611,0.8383 0.84237,2.42229 1.32754,3.31502c0.41904,0.77105 1.61417,0.707 1.61417,3.0175z" stroke-linecap="butt"/><path d="M459.2281,349.92463c0,0 -1.54381,-3.44145 -1.58549,-3.50681c-0.09058,-0.14202 -5.02801,-0.76183 -4.82788,-0.92147c0.11212,-0.08943 1.92221,-4.55403 1.92221,-4.55403" stroke-linecap="round"/><path d="M458.28495,341.616c0,0 1.64796,1.95875 1.66173,2.02102c0.06785,0.30667 -3.00907,2.38031 -3.00907,2.38031" stroke-linecap="round"/><path d="M452.44646,349.11623c0,0 -1.18707,-2.74161 -1.12279,-2.91925c0.0781,-0.21583 1.48208,-0.49403 1.48208,-0.49403" stroke-linecap="round"/></g></g></g></svg>