<svg version="1.1" xmlns="http://www.w3.org/2000/svg" xmlns:xlink="http://www.w3.org/1999/xlink" width="119.32744" height="420.98406" viewBox="0,0,119.32744,420.98406"><g transform="translate(-259.15327,175.74497)"><g data-paper-data="{&quot;isPaintingLayer&quot;:true}" fill-rule="nonzero" stroke="#00572e" stroke-width="2.5" stroke-linejoin="miter" stroke-miterlimit="10" stroke-dasharray="" stroke-dashoffset="0" style="mix-blend-mode: normal"><path d="M300.84405,199.3789c0,0 2.36776,-373.87387 4.6013,-373.87387c7.56769,0 23.67983,0 27.6078,0c1.40364,0 2.0149,85.20113 3.23234,174.25753c1.33283,97.49779 1.36896,199.61634 1.36896,199.61634z" fill="#77b88b" stroke-linecap="butt"/><path d="M355.11533,232.76068c-9.32828,5.5405 -22.01817,10.14888 -35.93621,10.14888c-13.20977,0 -25.20149,-4.15128 -34.25496,-9.31076c-1.95247,-1.11269 -11.07569,-10.59927 -11.58051,-14.87171c-0.51396,-4.34984 0.59424,-8.33525 3.3869,-9.37311c9.24723,-3.43662 24.92412,-5.69672 42.70723,-5.69672c18.32088,0 34.40623,2.39886 43.52839,6.01169c2.41079,0.95479 3.27545,4.25729 3.13993,7.94119c-0.14739,4.00653 -8.64026,13.75444 -10.99078,15.15053z" fill="#77b88b" stroke-linecap="butt"/><path d="M303.28324,243.98909c-2.26306,0 -8.41866,-12.26235 -8.41866,-15.89146c0,-14.49767 16.48608,-10.08693 16.7739,2.11172c0.09571,4.05658 -7.76496,13.77974 -8.35524,13.77974z" fill="#e7ffe1" stroke-linecap="butt"/><path d="M329.26793,229.65487c0.28782,-12.19864 16.7739,-16.60938 16.7739,-2.11172c0,3.62911 -6.15561,15.89146 -8.41866,15.89146c-0.59028,0 -8.45095,-9.72316 -8.35524,-13.77974z" data-paper-data="{&quot;index&quot;:null}" fill="#e7ffe1" stroke-linecap="butt"/><path d="M260.40327,196.21252c0,-32.26101 26.15271,-58.41372 58.41372,-58.41372c32.26101,0 58.41372,26.15271 58.41372,58.41372c0,9.38268 -8.48457,21.64271 -18.24564,29.21083c-4.75358,3.68562 -10.52454,6.25849 -14.86864,6.8444c-0.93459,0.12605 -13.24106,-3.88725 -25.22368,-3.5855c-13.33206,0.54229 -23.01535,4.63322 -23.99389,4.48899c-4.09131,-0.60303 -10.34188,-3.92814 -15.1903,-7.58252c-10.2855,-7.75242 -19.30528,-19.70296 -19.30528,-29.3762z" fill="#77b88b" stroke-linecap="butt"/><g><path d="M350.05451,191.58511c-4.69816,-11.76608 -3.74291,-24.58511 2.13361,-28.63211c5.87653,-4.04699 14.44899,2.21056 19.14715,13.97663c4.69816,11.76608 3.74292,24.5851 -2.1336,28.6321c-5.87652,4.047 -14.44899,-2.21054 -19.14715,-13.97662z" fill="#ffd170" stroke-linecap="butt"/><path d="M365.73887,204.43326l-5.43197,-40.86911" fill="none" stroke-linecap="round"/></g><g data-paper-data="{&quot;index&quot;:null}"><path d="M287.78639,191.84378c-4.69816,11.76608 -13.27063,18.02362 -19.14715,13.97662c-5.87652,-4.047 -6.83176,-16.86602 -2.1336,-28.6321c4.69816,-11.76607 13.27062,-18.02362 19.14714,-13.97663c5.87652,4.047 6.83177,16.86603 2.13361,28.63211z" fill="#ffd170" stroke-linecap="butt"/><path d="M278.56866,163.82281l-5.43197,40.86911" fill="none" stroke-linecap="round"/></g></g></g></svg>