<svg version="1.1" xmlns="http://www.w3.org/2000/svg" xmlns:xlink="http://www.w3.org/1999/xlink" width="913.41963" height="180.41086" viewBox="0,0,913.41963,180.41086"><g transform="translate(220.25688,-92.08425)"><g data-paper-data="{&quot;isPaintingLayer&quot;:true}" fill-rule="nonzero" stroke="#70000e" stroke-width="2.5" stroke-linecap="butt" stroke-linejoin="miter" stroke-miterlimit="10" stroke-dasharray="" stroke-dashoffset="0" style="mix-blend-mode: normal"><path d="M525.19537,247.60531c-1.1492,-1.1492 -70.80021,-69.20066 -68.46936,-71.53151c9.02186,-9.02185 66.72598,-65.10025 68.17304,-63.6532c10.6466,10.6466 55.62309,55.62309 63.76876,63.76876c2.48358,2.48358 -63.08721,71.80118 -63.47244,71.41595z" fill="#ff639a"/><path d="M457.6278,247.60531c-1.1492,-1.1492 -70.80021,-69.20066 -68.46936,-71.53151c9.02186,-9.02185 66.72598,-65.10025 68.17304,-63.6532c10.6466,10.6466 55.62309,55.62309 63.76876,63.76876c2.48358,2.48358 -63.08721,71.80118 -63.47244,71.41595z" fill="#ff639a"/><path d="M390.06023,247.60531c-1.1492,-1.1492 -70.80021,-69.20066 -68.46936,-71.53151c9.02186,-9.02185 66.72598,-65.10025 68.17304,-63.6532c10.6466,10.6466 55.62309,55.62309 63.76876,63.76876c2.48358,2.48358 -63.08721,71.80118 -63.47244,71.41595z" fill="#ff639a"/><path d="M322.49267,247.60531c-1.1492,-1.1492 -70.8002,-69.20066 -68.46935,-71.53151c9.02185,-9.02185 66.72598,-65.10025 68.17304,-63.6532c10.6466,10.6466 55.62309,55.62309 63.76876,63.76876c2.48358,2.48358 -63.08721,71.80118 -63.47244,71.41595z" fill="#ff639a"/><path d="M254.9251,247.60531c-1.1492,-1.1492 -70.80021,-69.20066 -68.46936,-71.53151c9.02185,-9.02185 66.72598,-65.10025 68.17304,-63.6532c10.6466,10.6466 55.62309,55.62309 63.76876,63.76876c2.48358,2.48358 -63.08721,71.80118 -63.47244,71.41595z" fill="#ff639a"/><path d="M187.35753,247.60531c-1.1492,-1.1492 -70.8002,-69.20066 -68.46935,-71.53151c9.02186,-9.02185 66.72598,-65.10025 68.17303,-63.6532c10.6466,10.6466 55.62309,55.62309 63.76876,63.76876c2.48358,2.48358 -63.08721,71.80118 -63.47243,71.41595z" fill="#ff639a"/><path d="M119.78996,247.60531c-1.1492,-1.1492 -70.8002,-69.20066 -68.46935,-71.53151c9.02186,-9.02185 66.72598,-65.10025 68.17304,-63.6532c10.6466,10.6466 55.62309,55.62309 63.76876,63.76876c2.48358,2.48358 -63.08721,71.80118 -63.47243,71.41595z" fill="#ff639a"/><path d="M52.2224,247.60531c-1.1492,-1.1492 -70.80021,-69.20066 -68.46936,-71.53151c9.02186,-9.02185 66.72598,-65.10025 68.17304,-63.6532c10.6466,10.6466 55.62309,55.62309 63.76876,63.76876c2.48358,2.48358 -63.08721,71.80118 -63.47243,71.41595z" fill="#ff639a"/><path d="M-15.34517,247.60531c-1.1492,-1.1492 -70.80021,-69.20066 -68.46936,-71.53151c9.02186,-9.02185 66.72598,-65.10025 68.17304,-63.6532c10.6466,10.6466 55.62309,55.62309 63.76876,63.76876c2.48358,2.48358 -63.08721,71.80118 -63.47243,71.41595z" fill="#ff639a"/><path d="M-82.91274,247.60531c-1.1492,-1.1492 -70.8002,-69.20066 -68.46935,-71.53151c9.02185,-9.02185 66.72598,-65.10025 68.17304,-63.6532c10.6466,10.6466 55.62309,55.62309 63.76876,63.76876c2.48358,2.48358 -63.08721,71.80118 -63.47243,71.41595z" fill="#ff639a"/><path d="M-150.48031,247.60531c-1.1492,-1.1492 -70.80021,-69.20066 -68.46936,-71.53151c9.02185,-9.02185 66.72598,-65.10025 68.17304,-63.6532c10.6466,10.6466 55.62309,55.62309 63.76876,63.76876c2.48358,2.48358 -63.08721,71.80118 -63.47243,71.41595z" fill="#ff639a"/><g><path d="M671.07845,230.81409c-0.96608,0.91417 -9.32557,2.55514 -10.32868,3.45272c-23.86722,21.35624 -49.94916,37.04041 -50.39312,36.97811c-19.33825,-2.71365 -53.2893,-74.39877 -53.41912,-77.91618c-0.02213,-0.59955 55.14999,-4.35748 95.67937,-6.98649c0.13286,-0.00861 2.94352,0.22507 7.08138,0.58071c0.95588,0.08216 6.51858,5.63575 12.86869,6.1961c1.63524,0.14429 2.96882,5.58331 4.49017,5.27573c8.34445,-1.68698 14.85416,-14.55166 14.85563,-14.53983c0.04219,0.33996 -2.94448,30.03061 -20.83431,46.95913z" data-paper-data="{&quot;index&quot;:null}" fill="#ff639a"/><path d="M688.32882,174.4742c-0.00059,0.01191 -7.44096,-12.33787 -15.88706,-13.40512c-1.53989,-0.19458 -2.46889,5.32793 -4.08904,5.59239c-6.29152,1.02695 -11.42969,6.97551 -12.37691,7.12791c-4.10039,0.65972 -6.88617,1.09996 -7.0193,1.10116c-40.6129,0.36592 -95.91193,0.68543 -95.93406,0.08589c-0.12983,-3.51741 28.44431,-77.51032 47.5299,-81.64218c0.43815,-0.09486 27.60536,13.62391 52.98199,33.16257c1.06655,0.82119 9.52428,1.84145 10.55512,2.68191c19.08909,15.56364 24.25639,44.95333 24.23938,45.29547z" data-paper-data="{&quot;index&quot;:null}" fill="#ff639a"/><path d="M659.10305,187.09095c-7.74716,17.04601 -41.67031,67.75583 -45.23525,67.24165c-33.32981,-4.80723 -95.36363,-59.73586 -95.22096,-61.96728c1.94906,-30.48425 63.21928,-82.77099 63.82276,-82.30508c21.53662,16.62715 59.8269,47.2611 73.45112,57.96298c1.54242,1.21158 3.96905,17.33672 3.18233,19.06774z" fill="#ff639a"/><g><path d="M627.40609,176.47968c11.1628,-0.41201 19.65102,-15.94574 18.95897,-34.69555c-0.69205,-18.74981 -10.3023,-33.61552 -21.4651,-33.20351c-11.1628,0.41201 -19.65102,15.94574 -18.95897,34.69554c0.69205,18.74981 10.3023,33.61553 21.4651,33.20351z" fill="#ee9dff"/><path d="M624.6654,117.45774c5.47804,-0.20219 10.32308,10.58526 10.8217,24.09443c0.49862,13.50917 -3.538,24.62444 -9.01604,24.82663c-5.47804,0.20219 -10.32308,-10.58525 -10.8217,-24.09443c-0.49862,-13.50917 3.538,-24.62444 9.01604,-24.82663z" fill="#ffffff"/></g><g><path d="M633.14527,250.73479c11.1628,-0.41201 19.65102,-15.94574 18.95897,-34.69555c-0.69205,-18.74981 -10.3023,-33.61552 -21.4651,-33.20351c-11.1628,0.41201 -19.65101,15.94574 -18.95897,34.69554c0.69205,18.74981 10.3023,33.61553 21.4651,33.20351z" fill="#ee9dff"/><path d="M630.40458,191.71285c5.47804,-0.20219 10.32308,10.58525 10.8217,24.09443c0.49862,13.50917 -3.538,24.62444 -9.01604,24.82663c-5.47804,0.20219 -10.32308,-10.58525 -10.8217,-24.09443c-0.49862,-13.50917 3.538,-24.62444 9.01604,-24.82663z" fill="#ffffff"/></g></g></g></g></svg>