<svg version="1.1" xmlns="http://www.w3.org/2000/svg" xmlns:xlink="http://www.w3.org/1999/xlink" width="97.88579" height="97.88579" viewBox="0,0,97.88579,97.88579"><g transform="translate(-271.05715,-131.05712)"><g data-paper-data="{&quot;isPaintingLayer&quot;:true}" fill-rule="nonzero" stroke-linecap="butt" stroke-linejoin="miter" stroke-miterlimit="10" stroke-dasharray="" stroke-dashoffset="0" style="mix-blend-mode: normal"><path d="" fill="#8b65ae" stroke="#5c00aa" stroke-width="2.5"/><path d="" fill="#a17cc4" stroke="#5c00aa" stroke-width="2.5"/><path d="" data-paper-data="{&quot;index&quot;:null}" fill="#b867ff" stroke="#5c00aa" stroke-width="2.5"/><path d="" data-paper-data="{&quot;index&quot;:null}" fill="#ffc374" stroke="none" stroke-width="0"/><path d="" data-paper-data="{&quot;index&quot;:null}" fill="none" stroke="#5c00aa" stroke-width="2.5"/><path d="" fill="#a17cc4" stroke="#5c00aa" stroke-width="2.5"/><path d="" fill="#8b65ae" stroke="#5c00aa" stroke-width="2.5"/><path d="" fill="#a17cc4" stroke="#5c00aa" stroke-width="2.5"/><path d="" data-paper-data="{&quot;index&quot;:null}" fill="#b867ff" stroke="#5c00aa" stroke-width="2.5"/><path d="" data-paper-data="{&quot;index&quot;:null}" fill="#ffc374" stroke="none" stroke-width="0"/><path d="" data-paper-data="{&quot;index&quot;:null}" fill="none" stroke="#5c00aa" stroke-width="2.5"/><path d="" fill="#a17cc4" stroke="#5c00aa" stroke-width="2.5"/><path d="M368.94294,228.94291l-97.88579,0v-97.88579l97.88579,0z" fill="none" stroke="none" stroke-width="0"/><path d="M325.1498,200.68562c-11.0414,0 -19.99222,-8.95082 -19.99222,-19.99222c0,-11.0414 8.95082,-19.99222 19.99222,-19.99222c11.0414,0 18.35957,8.95082 18.35957,19.99222c0,11.0414 -7.31817,19.99222 -18.35957,19.99222z" fill="#fff9ed" stroke="#85734b" stroke-width="2.5"/><path d="M303.15975,180.76826c0,-8.48882 4.80433,-19.65608 10.37831,-19.65608c5.57398,0 8.58465,10.69636 8.58465,19.18518c0,8.48882 -2.29639,20.26984 -7.87037,20.26984c-5.57398,0 -11.09259,-11.31012 -11.09259,-19.79894z" fill="#cdb78b" stroke="#85734b" stroke-width="2.5"/><path d="M336.08039,181.05641c4.47679,0 8.10595,1.97707 8.10595,4.41592c0,1.67077 -1.70321,3.12483 -4.21535,3.87498c-0.25475,0.07607 -0.87951,2.26398 -1.59477,2.30273c-0.73633,0.0399 -4.16318,-1.87916 -4.26309,-1.89273c-3.52616,-0.4789 -6.13869,-2.21574 -6.13869,-4.28499c0,-2.43885 3.62916,-4.41592 8.10595,-4.41592z" fill="#85734b" stroke="none" stroke-width="0"/><path d="M325.78794,174.50821c0,-2.06925 2.61253,-3.80608 6.13869,-4.28498c0.09991,-0.01357 3.52676,-1.93262 4.26309,-1.89273c0.71526,0.03875 1.34001,2.22667 1.59476,2.30274c2.51214,0.75015 4.21535,2.2042 4.21535,3.87497c0,2.43885 -3.62916,4.41593 -8.10595,4.41593c-4.47679,0 -8.10594,-1.97708 -8.10594,-4.41593z" data-paper-data="{&quot;index&quot;:null}" fill="#85734b" stroke="none" stroke-width="0"/><path d="M306.15634,180.76826c0,-6.99801 2.10388,-15.89282 7.50422,-19.71658c0.67112,-0.4752 1.17431,-0.18452 3.58842,-0.77233c1.72418,-0.41981 3.29853,-2.58551 3.70638,-2.58551c5.57398,0 7.33236,15.88312 7.33236,24.37194c0,6.27074 -2.29101,18.33278 -6.31842,21.59519c-0.24615,0.19939 -1.03051,-1.73311 -3.21737,-2.36028c-1.49284,-0.42813 -2.96136,-0.20717 -3.08195,-0.20717c-5.57398,0 -9.51364,-11.83644 -9.51364,-20.32526z" fill="#cdb78b" stroke="#85734b" stroke-width="2.5"/><path d="M303.15975,180.76826c0,-8.48882 4.80433,-19.65608 10.37831,-19.65608c5.57398,0 8.58465,10.69636 8.58465,19.18518c0,8.48882 -2.29639,20.26984 -7.87037,20.26984c-5.57398,0 -11.09259,-11.31012 -11.09259,-19.79894z" fill="#cdb78b" stroke="#85734b" stroke-width="2.5"/><path d="M309.57358,189.85549c-0.54155,-1.45405 0.32372,-11.97647 -1.05647,-12.27891c-3.27689,-1.02216 -3.74825,8.78796 -4.66315,8.58484c-0.52453,-0.56214 -3.1684,1.39101 -3.2997,-0.29545c-0.44858,-5.76144 4.03619,-18.93883 11.29441,-16.35199c7.05513,4.76844 5.17597,19.2746 2.71526,21.87997c-0.47614,0.50413 -3.61459,2.15539 -4.99035,-1.53846z" fill="#fffbd6" stroke="#85734b" stroke-width="2.5"/><path d="M309.98785,191.27c-1.49882,-1.77499 0.27281,-12.76554 -4.6136,-13.83628c-3.27689,-1.02216 -3.74825,8.78796 -4.66315,8.58484c-2.31646,-2.48258 -1.38809,-19.99148 7.99471,-16.64744c8.42027,5.69112 4.11426,25.25294 1.28204,21.89888z" fill="#fffbd6" stroke="#85734b" stroke-width="2.5"/></g></g></svg>