<svg version="1.1" xmlns="http://www.w3.org/2000/svg" xmlns:xlink="http://www.w3.org/1999/xlink" width="34.923" height="86.72075" viewBox="0,0,34.923,86.72075"><defs><linearGradient x1="320.00003" y1="180.00005" x2="320.00003" y2="180.00005" gradientUnits="userSpaceOnUse" id="color-1"><stop offset="0" stop-color="#67497d"/><stop offset="1" stop-color="#553783"/></linearGradient><linearGradient x1="320.00003" y1="180.00004" x2="320.00003" y2="180.00004" gradientUnits="userSpaceOnUse" id="color-2"><stop offset="0" stop-color="#67497d"/><stop offset="1" stop-color="#553783"/></linearGradient><linearGradient x1="320.00001" y1="180.00005" x2="320.00001" y2="180.00005" gradientUnits="userSpaceOnUse" id="color-3"><stop offset="0" stop-color="#67497d"/><stop offset="1" stop-color="#553783"/></linearGradient><linearGradient x1="320.00001" y1="180.00003" x2="320.00001" y2="180.00003" gradientUnits="userSpaceOnUse" id="color-4"><stop offset="0" stop-color="#67497d"/><stop offset="1" stop-color="#553783"/></linearGradient><linearGradient x1="320.00001" y1="180.00004" x2="320.00001" y2="180.00004" gradientUnits="userSpaceOnUse" id="color-5"><stop offset="0" stop-color="#67497d"/><stop offset="1" stop-color="#553783"/></linearGradient><linearGradient x1="374.90773" y1="295.13402" x2="374.90773" y2="314.03591" gradientUnits="userSpaceOnUse" id="color-6"><stop offset="0" stop-color="#55389c"/><stop offset="1" stop-color="#3c50a8"/></linearGradient><linearGradient x1="371.30737" y1="295.8841" x2="371.30737" y2="314.78599" gradientUnits="userSpaceOnUse" id="color-7"><stop offset="0" stop-color="#55389c"/><stop offset="1" stop-color="#3c50a8"/></linearGradient><linearGradient x1="372.31395" y1="291.43476" x2="372.31395" y2="308.26608" gradientUnits="userSpaceOnUse" id="color-8"><stop offset="0" stop-color="#55389c"/><stop offset="1" stop-color="#3c50a8"/></linearGradient><linearGradient x1="363.13963" y1="283.3915" x2="374.35825" y2="283.3915" gradientUnits="userSpaceOnUse" id="color-9"><stop offset="0" stop-color="#887aff"/><stop offset="1" stop-color="#e27aff"/></linearGradient><linearGradient x1="384.31053" y1="283.3915" x2="373.0919" y2="283.3915" gradientUnits="userSpaceOnUse" id="color-10"><stop offset="0" stop-color="#887aff"/><stop offset="1" stop-color="#e27aff"/></linearGradient></defs><g transform="translate(-357.01085,-258.33504)"><g data-paper-data="{&quot;isPaintingLayer&quot;:true}" fill-rule="nonzero" stroke-linejoin="miter" stroke-miterlimit="10" stroke-dasharray="" stroke-dashoffset="0" style="mix-blend-mode: normal"><g data-paper-data="{&quot;index&quot;:null}" stroke="#541287" stroke-width="2.5" stroke-linecap="butt"><path d="" fill="#e5c2ff"/><path d="" fill="#9951b7"/></g><path d="" fill="#725580" stroke="#541287" stroke-width="2.5" stroke-linecap="butt"/><path d="" fill="#6d3e90" stroke="none" stroke-width="0" stroke-linecap="butt"/><path d="" fill="#725580" stroke="none" stroke-width="0" stroke-linecap="butt"/><path d="" fill="#9857ca" stroke="none" stroke-width="0" stroke-linecap="butt"/><path d="" fill="none" stroke="#541287" stroke-width="2.5" stroke-linecap="butt"/><path d="" fill="#9468de" stroke="#541287" stroke-width="2.5" stroke-linecap="butt"/><path d="" fill="#e5c2ff" stroke="#541287" stroke-width="2.5" stroke-linecap="butt"/><g stroke-linecap="butt"><g stroke="#541287" stroke-width="2.5"><path d="" fill="#9d7bb5"/><path d="" fill="#9d7bb5"/><path d="" fill="url(#color-1)"/></g><path d="" fill="#541287" stroke="none" stroke-width="0"/><path d="" fill="#ca80ff" stroke="#541287" stroke-width="2.5"/></g><g stroke="#541287" stroke-width="2.5" stroke-linecap="butt"><path d="" fill="#e5c2ff"/><path d="" fill="#9951b7"/></g><g data-paper-data="{&quot;index&quot;:null}" stroke="#541287" stroke-width="2.5" stroke-linecap="butt"><path d="" fill="#e5c2ff"/><path d="" fill="#9951b7"/></g><path d="" fill="#725580" stroke="#541287" stroke-width="2.5" stroke-linecap="butt"/><path d="" fill="#6d3e90" stroke="none" stroke-width="0" stroke-linecap="butt"/><path d="" fill="#725580" stroke="none" stroke-width="0" stroke-linecap="butt"/><path d="" fill="#9857ca" stroke="none" stroke-width="0" stroke-linecap="butt"/><path d="" fill="none" stroke="#541287" stroke-width="2.5" stroke-linecap="butt"/><path d="" fill="#9468de" stroke="#541287" stroke-width="2.5" stroke-linecap="butt"/><path d="" fill="#e5c2ff" stroke="#541287" stroke-width="2.5" stroke-linecap="butt"/><g stroke-linecap="butt"><g stroke="#541287" stroke-width="2.5"><path d="" fill="#9d7bb5"/><path d="" fill="#9d7bb5"/><path d="" fill="url(#color-2)"/></g><path d="" fill="#541287" stroke="none" stroke-width="0"/><path d="" fill="#ca80ff" stroke="#541287" stroke-width="2.5"/></g><g stroke="#541287" stroke-width="2.5" stroke-linecap="butt"><path d="" fill="#e5c2ff"/><path d="" fill="#9951b7"/></g><g stroke-linecap="butt"><path d="" data-paper-data="{&quot;index&quot;:null}" fill="#54002b" stroke="none" stroke-width="0"/><path d="" data-paper-data="{&quot;index&quot;:null}" fill="#54002b" stroke="none" stroke-width="0"/><path d="" data-paper-data="{&quot;index&quot;:null}" fill="#54002b" stroke="none" stroke-width="0"/><path d="" data-paper-data="{&quot;index&quot;:null}" fill="#ff5971" stroke="#54002b" stroke-width="2.5"/><path d="" data-paper-data="{&quot;index&quot;:null}" fill="#54002b" stroke="none" stroke-width="0"/></g><path d="" data-paper-data="{&quot;index&quot;:null}" fill="#ff8dae" stroke="#54002b" stroke-width="2.5" stroke-linecap="butt"/><path d="" data-paper-data="{&quot;index&quot;:null}" fill="#ff8dae" stroke="#54002b" stroke-width="2.5" stroke-linecap="butt"/><path d="" data-paper-data="{&quot;index&quot;:null}" fill="#ff8dae" stroke="#54002b" stroke-width="2.5" stroke-linecap="butt"/><g data-paper-data="{&quot;index&quot;:null}" fill="#54002b" stroke="none" stroke-width="0" stroke-linecap="butt"><path d=""/><path d=""/></g><g data-paper-data="{&quot;index&quot;:null}" fill="#54002b" stroke="none" stroke-width="0" stroke-linecap="butt"><path d=""/><path d=""/></g><path d="" fill="none" stroke="#54002b" stroke-width="2.5" stroke-linecap="round"/><path d="" fill="none" stroke="#54002b" stroke-width="2.5" stroke-linecap="round"/><g data-paper-data="{&quot;index&quot;:null}" stroke="#541287" stroke-width="2.5" stroke-linecap="butt"><path d="" fill="#e5c2ff"/><path d="" fill="#9951b7"/></g><path d="" fill="#725580" stroke="#541287" stroke-width="2.5" stroke-linecap="butt"/><path d="" fill="#6d3e90" stroke="none" stroke-width="0" stroke-linecap="butt"/><path d="" fill="#725580" stroke="none" stroke-width="0" stroke-linecap="butt"/><path d="" fill="#9857ca" stroke="none" stroke-width="0" stroke-linecap="butt"/><path d="" fill="none" stroke="#541287" stroke-width="2.5" stroke-linecap="butt"/><path d="" fill="#9468de" stroke="#541287" stroke-width="2.5" stroke-linecap="butt"/><path d="" fill="#e5c2ff" stroke="#541287" stroke-width="2.5" stroke-linecap="butt"/><g stroke-linecap="butt"><g stroke="#541287" stroke-width="2.5"><path d="" fill="#9d7bb5"/><path d="" fill="#9d7bb5"/><path d="" fill="url(#color-3)"/></g><path d="" fill="#541287" stroke="none" stroke-width="0"/><path d="" fill="#ca80ff" stroke="#541287" stroke-width="2.5"/></g><g stroke="#541287" stroke-width="2.5" stroke-linecap="butt"><path d="" fill="#e5c2ff"/><path d="" fill="#9951b7"/></g><g data-paper-data="{&quot;index&quot;:null}" stroke="#541287" stroke-width="2.5" stroke-linecap="butt"><path d="" fill="#e5c2ff"/><path d="" fill="#9951b7"/></g><path d="" fill="#725580" stroke="#541287" stroke-width="2.5" stroke-linecap="butt"/><path d="" fill="#6d3e90" stroke="none" stroke-width="0" stroke-linecap="butt"/><path d="" fill="#725580" stroke="none" stroke-width="0" stroke-linecap="butt"/><path d="" fill="#9857ca" stroke="none" stroke-width="0" stroke-linecap="butt"/><path d="" fill="none" stroke="#541287" stroke-width="2.5" stroke-linecap="butt"/><path d="" fill="#9468de" stroke="#541287" stroke-width="2.5" stroke-linecap="butt"/><path d="" fill="#e5c2ff" stroke="#541287" stroke-width="2.5" stroke-linecap="butt"/><g stroke-linecap="butt"><g stroke="#541287" stroke-width="2.5"><path d="" fill="#9d7bb5"/><path d="" fill="#9d7bb5"/><path d="" fill="url(#color-4)"/></g><path d="" fill="#541287" stroke="none" stroke-width="0"/><path d="" fill="#ca80ff" stroke="#541287" stroke-width="2.5"/></g><g stroke="#541287" stroke-width="2.5" stroke-linecap="butt"><path d="" fill="#e5c2ff"/><path d="" fill="#9951b7"/></g><g stroke-linecap="butt"><path d="" data-paper-data="{&quot;index&quot;:null}" fill="#54002b" stroke="none" stroke-width="0"/><path d="" data-paper-data="{&quot;index&quot;:null}" fill="#54002b" stroke="none" stroke-width="0"/><path d="" data-paper-data="{&quot;index&quot;:null}" fill="#54002b" stroke="none" stroke-width="0"/><path d="" data-paper-data="{&quot;index&quot;:null}" fill="#ff5971" stroke="#54002b" stroke-width="2.5"/><path d="" data-paper-data="{&quot;index&quot;:null}" fill="#54002b" stroke="none" stroke-width="0"/></g><path d="" data-paper-data="{&quot;index&quot;:null}" fill="#ff8dae" stroke="#54002b" stroke-width="2.5" stroke-linecap="butt"/><path d="" data-paper-data="{&quot;index&quot;:null}" fill="#ff8dae" stroke="#54002b" stroke-width="2.5" stroke-linecap="butt"/><path d="" data-paper-data="{&quot;index&quot;:null}" fill="#ff8dae" stroke="#54002b" stroke-width="2.5" stroke-linecap="butt"/><g data-paper-data="{&quot;index&quot;:null}" fill="#54002b" stroke="none" stroke-width="0" stroke-linecap="butt"><path d=""/><path d=""/></g><g data-paper-data="{&quot;index&quot;:null}" fill="#54002b" stroke="none" stroke-width="0" stroke-linecap="butt"><path d=""/><path d=""/></g><path d="" fill="none" stroke="#54002b" stroke-width="2.5" stroke-linecap="round"/><path d="" fill="none" stroke="#54002b" stroke-width="2.5" stroke-linecap="round"/><g data-paper-data="{&quot;index&quot;:null}" stroke="#541287" stroke-width="2.5" stroke-linecap="butt"><path d="" fill="#e5c2ff"/><path d="" fill="#9951b7"/></g><path d="" fill="#725580" stroke="#541287" stroke-width="2.5" stroke-linecap="butt"/><path d="" fill="#6d3e90" stroke="none" stroke-width="0" stroke-linecap="butt"/><path d="" fill="#725580" stroke="none" stroke-width="0" stroke-linecap="butt"/><path d="" fill="#9857ca" stroke="none" stroke-width="0" stroke-linecap="butt"/><path d="" fill="none" stroke="#541287" stroke-width="2.5" stroke-linecap="butt"/><path d="" fill="#9468de" stroke="#541287" stroke-width="2.5" stroke-linecap="butt"/><path d="" fill="#e5c2ff" stroke="#541287" stroke-width="2.5" stroke-linecap="butt"/><g stroke-linecap="butt"><g stroke="#541287" stroke-width="2.5"><path d="" fill="#9d7bb5"/><path d="" fill="#9d7bb5"/><path d="" fill="url(#color-5)"/></g><path d="" fill="#541287" stroke="none" stroke-width="0"/><path d="" fill="#ca80ff" stroke="#541287" stroke-width="2.5"/></g><g stroke="#541287" stroke-width="2.5" stroke-linecap="butt"><path d="" fill="#e5c2ff"/><path d="" fill="#9951b7"/></g><g><path d="M374.47235,327.30875c9.64373,0 17.4615,3.97281 17.4615,8.87352c0,4.90071 -7.81778,8.87352 -17.4615,8.87352c-9.64373,0 -17.4615,-3.97281 -17.4615,-8.87352c0,-4.90071 7.81778,-8.87352 17.4615,-8.87352z" fill-opacity="0.47451" fill="#292487" stroke="none" stroke-width="0" stroke-linecap="butt"/><path d="M381.35837,307.8853c0,1.26437 -2.65533,10.80108 -4.35044,10.80108c-2.23697,0 -6.15061,-8.8818 -6.15061,-14.10141c0,-5.21961 1.81343,-9.45094 4.05041,-9.45094c0.51059,0 1.56788,-2.79834 2.84183,-0.78451c1.95125,3.08449 3.60881,12.20269 3.60881,13.53579z" data-paper-data="{&quot;index&quot;:null}" fill="url(#color-6)" stroke="#250077" stroke-width="2.5" stroke-linecap="butt"/><path d="M364.85672,308.63538c0,-1.33309 1.65756,-10.4513 3.60881,-13.53579c1.27396,-2.01383 2.33125,0.78451 2.84184,0.78451c2.23698,0 4.05041,4.23133 4.05041,9.45094c0,5.21961 -3.91365,14.10141 -6.15062,14.10141c-1.69511,0 -4.35044,-9.53671 -4.35044,-10.80108z" fill="url(#color-7)" stroke="#250077" stroke-width="2.5" stroke-linecap="butt"/><path d="M382.88594,339.20976c-2.65832,0.60951 -5.47825,-0.20746 -7.61344,-0.9829c-2.15493,-0.78262 -1.77137,-4.84854 -1.39328,-5.23816c1.20716,-1.244 3.90999,-2.24203 6.0014,-2.47998c0.74587,-0.08486 1.78051,-0.53048 3.09153,0.13028c0.53602,0.27015 3.04705,2.48534 3.28323,4.17016c0.31267,2.23041 -1.88025,4.05915 -3.36944,4.4006z" data-paper-data="{&quot;index&quot;:null}" fill="#6770bb" stroke="#250077" stroke-width="2.5" stroke-linecap="butt"/><path d="M363.26431,335.85927c0.23618,-1.68482 2.74721,-3.9 3.28323,-4.17015c1.31102,-0.66076 2.34566,-0.21514 3.09153,-0.13028c2.09141,0.23795 3.89416,0.78593 5.10131,2.02994c0.37808,0.38962 0.76164,4.45554 -1.39329,5.23815c-2.13519,0.77544 -4.05503,2.04246 -6.71335,1.43295c-1.48919,-0.34145 -3.68211,-2.17019 -3.36944,-4.4006z" data-paper-data="{&quot;index&quot;:null}" fill="#6770bb" stroke="#250077" stroke-width="2.5" stroke-linecap="butt"/><path d="M373.35392,307.50153c0.16886,-3.41974 2.03526,-2.08105 3.01163,-2.19826c0.81296,-0.0976 1.83495,1.16252 2.62861,3.54299c0.65346,1.95997 2.88619,19.38889 2.79096,19.9879c-0.57091,3.59103 -6.10552,6.26613 -6.48343,2.76403c-0.31434,-2.91304 -2.05817,-21.86088 -1.94778,-24.09665z" data-paper-data="{&quot;index&quot;:null}" fill="#3b276d" stroke="#250077" stroke-width="2.5" stroke-linecap="butt"/><path d="M374.41801,331.42953c0.14486,3.52024 -7.25194,2.67062 -7.41188,-1.21601c-0.03884,-0.9438 1.5882,-19.11456 1.87777,-20.93544c0.39499,-2.48374 1.15735,-3.90048 1.9184,-3.94188c0.91402,-0.04972 2.7416,-1.68705 3.37751,1.65929c0.41575,2.18778 0.1177,21.50592 0.2382,24.43405z" fill="#3b276d" stroke="#250077" stroke-width="2.5" stroke-linecap="butt"/><path d="M379.61356,307.6512c0,0.88446 -0.91733,2.25452 -1.66605,2.67318c-1.84253,1.03031 -4.93933,0.09135 -7.42043,-0.37549c-1.80885,-0.34034 -2.27208,-0.82842 -2.24187,-1.09951c0.1894,-1.69956 0.66293,-5.16239 0.64648,-5.43925c-0.0951,-1.60065 -0.22521,-7.25731 0.30627,-8.52447c0.79492,-1.89524 7.05974,-2.56175 7.7433,-0.88555c0.62202,1.52529 1.21001,3.20034 1.2656,4.15608c0.0257,0.44183 -0.4686,4.54591 -0.28898,5.33306c0.11941,0.52331 1.65567,3.77623 1.65567,4.16195z" fill="url(#color-8)" stroke="#250077" stroke-width="2.5" stroke-linecap="butt"/><path d="M375.35777,292.80879c0,1.20134 -1.00746,2.17522 -2.25023,2.17522c-1.24277,0 -2.25023,-0.97388 -2.25023,-2.17522c0,-1.20134 1.00746,-2.17522 2.25023,-2.17522c1.24277,0 2.25023,0.97388 2.25023,2.17522z" fill="#c2bfff" stroke="#250077" stroke-width="2.5" stroke-linecap="butt"/><path d="M386.61771,268.6893c0.13437,1.23327 -0.22852,10.83349 -0.64662,11.83943c-1.34089,3.22616 -4.74273,-3.2645 -6.55365,-3.00227c-1.66152,0.24061 1.82523,-17.6016 1.87539,-17.60887c0.62862,-0.09103 5.19178,7.55 5.32488,8.7717z" fill="#947aff" stroke="#250077" stroke-width="2.5" stroke-linecap="butt"/><path d="M367.46045,259.57581c0.06368,0.00778 4.39387,18.40019 2.28422,18.14244c-2.29933,-0.28093 -6.65774,6.38176 -8.34333,3.05183c-0.52558,-1.0383 -0.93293,-10.92545 -0.75532,-12.19448c0.17595,-1.25714 6.01627,-9.0973 6.81443,-8.99979z" data-paper-data="{&quot;index&quot;:null}" fill="#947aff" stroke="#250077" stroke-width="2.5" stroke-linecap="butt"/><path d="M361.22216,280.08313c0,-6.79676 5.50986,-12.30662 12.30661,-12.30662c6.79676,0 12.30661,5.50986 12.30661,12.30662c0,6.79676 -5.50985,12.30661 -12.30661,12.30661c-6.79676,0 -12.30661,-5.50985 -12.30661,-12.30661z" fill="#c2bfff" stroke="#250077" stroke-width="2.5" stroke-linecap="butt"/><path d="M361.46892,266.84896c0,-2.68827 5.21596,-4.86754 11.65018,-4.86754c6.43421,0 11.65017,2.17927 11.65017,4.86754c0,2.68827 -5.21596,4.86754 -11.65017,4.86754c-6.43421,0 -11.65018,-2.17927 -11.65018,-4.86754zM373.27868,270.10471c4.83249,0 8.75,-1.63677 8.75,-3.65582c0,-2.01905 -3.91751,-3.65582 -8.75,-3.65582c-4.83249,0 -8.75,1.63677 -8.75,3.65582c0,2.01905 3.91751,3.65582 8.75,3.65582z" fill="#7ae7ff" stroke="#250077" stroke-width="2.5" stroke-linecap="butt"/><g fill="none" stroke="#fdf7ff" stroke-width="2" stroke-linecap="round"><path d="M373.02538,302.52968l-3.14634,-0.23109"/><path d="M374.74914,300.7048c0,0 0.76043,-0.92032 1.56511,-0.99136c0.81088,-0.0716 1.10762,0.71889 1.10762,0.71889"/><path d="M370.26795,305.63697l6.50135,0.20822"/></g><path d="M374.95643,302.21806c0,-0.41422 0.33578,-0.75 0.75,-0.75c0.41422,0 0.75,0.33578 0.75,0.75c0,0.41422 -0.33578,0.75 -0.75,0.75c-0.41422,0 -0.75,-0.33578 -0.75,-0.75z" fill="#ffffff" stroke="none" stroke-width="0.5" stroke-linecap="butt"/><path d="M371.14845,303.48738c0,-0.41422 0.33578,-0.75 0.75,-0.75c0.41422,0 0.75,0.33578 0.75,0.75c0,0.41422 -0.33578,0.75 -0.75,0.75c-0.41422,0 -0.75,-0.33578 -0.75,-0.75z" fill="#ffffff" stroke="none" stroke-width="0.5" stroke-linecap="butt"/><g stroke-width="2" stroke-linecap="butt"><path d="M364.56278,285.37746c0,0.40318 0.06419,2.15448 -0.44942,2.15448c-0.15597,0 -3.74513,-1.38762 -3.74513,-2.15448c0,-0.46768 2.09651,-1.67571 2.54669,-1.67571c0.91009,0 1.64786,0.75024 1.64786,1.67571z" fill="#250077" stroke="none"/><path d="M363.13963,283.3915c0,-0.21662 10.4696,-0.35589 10.4696,-0.15959c0,3.30031 -1.76235,6.13534 -4.86029,6.13534c-3.09794,0 -5.60931,-2.67543 -5.60931,-5.97574z" fill="url(#color-9)" stroke="#250077"/><path d="M366.43534,283.46559c0,-0.12038 4.47739,-0.19779 4.47739,-0.08869c0,1.83415 -1.05329,3.40973 -2.37814,3.40973c-1.32485,0 -2.09925,-1.48688 -2.09925,-3.32103z" fill="#ffffff" stroke="#250077"/></g><g data-paper-data="{&quot;index&quot;:null}" stroke-width="2" stroke-linecap="butt"><path d="M384.53523,283.70175c0.45018,0 2.54669,1.20803 2.54669,1.67571c0,0.76686 -3.58916,2.15449 -3.74513,2.15449c-0.51361,0 -0.44942,-1.75131 -0.44942,-2.15449c0,-0.92547 0.73777,-1.67571 1.64786,-1.67571z" fill="#250077" stroke="none"/><path d="M378.70121,289.36724c-3.09794,0 -4.86029,-2.83502 -4.86029,-6.13533c0,-0.1963 10.4696,-0.05702 10.4696,0.1596c0,3.30031 -2.51138,5.97574 -5.60931,5.97574z" fill="url(#color-10)" stroke="#250077"/><path d="M378.91556,286.78662c-1.32485,0 -2.37814,-1.57557 -2.37814,-3.40973c0,-0.1091 4.47739,-0.0317 4.47739,0.08869c0,1.83416 -0.7744,3.32104 -2.09925,3.32104z" fill="#ffffff" stroke="#250077"/></g></g></g></g></svg>