<svg version="1.1" xmlns="http://www.w3.org/2000/svg" xmlns:xlink="http://www.w3.org/1999/xlink" width="749.78096" height="431.27583" viewBox="0,0,749.78096,431.27583"><defs><linearGradient x1="333.41186" y1="76.87443" x2="333.41186" y2="284.58531" gradientUnits="userSpaceOnUse" id="color-1"><stop offset="0" stop-color="#ffa4f3"/><stop offset="1" stop-color="#ffd172"/></linearGradient><linearGradient x1="93.30083" y1="78.48054" x2="93.30083" y2="330.86251" gradientUnits="userSpaceOnUse" id="color-2"><stop offset="0" stop-color="#ffa4f3"/><stop offset="1" stop-color="#ffd172"/></linearGradient><linearGradient x1="551.68898" y1="78.56022" x2="551.68898" y2="332.10228" gradientUnits="userSpaceOnUse" id="color-3"><stop offset="0" stop-color="#ffa4f3"/><stop offset="1" stop-color="#ffd172"/></linearGradient></defs><g transform="translate(63.84877,41.40828)"><g data-paper-data="{&quot;isPaintingLayer&quot;:true}" fill-rule="nonzero" stroke-linejoin="miter" stroke-miterlimit="10" stroke-dasharray="" stroke-dashoffset="0" style="mix-blend-mode: normal"><path d="M-17.19514,388.61755v-124.62462h696.6967v124.62462z" fill="#664585" stroke="#3e0e6c" stroke-width="2.5" stroke-linecap="butt"/><path d="M-3.85494,95.46881v-126.12613h674.17418v126.12613z" fill="#664585" stroke="#3e0e6c" stroke-width="2.5" stroke-linecap="butt"/><path d="M89.89454,284.58531v-192.69587h472.49631v192.69587z" fill="url(#color-1)" stroke="#3e0e6c" stroke-width="2.5" stroke-linecap="butt"/><path d="M-11.73874,356.49506l6.54226,-310.21951l93.04543,46.56277l2.18075,192.01707z" fill="url(#color-2)" stroke="#3e0e6c" stroke-width="2.5" stroke-linecap="butt"/><path d="M306.53713,262.27314l-68.81025,-95.736l95.736,-68.81025l68.81026,95.736z" fill-opacity="0.51373" fill="#ffd6ec" stroke="none" stroke-width="0" stroke-linecap="butt"/><path d="M478.95786,255.75339l62.70097,-66.98821v66.98821z" fill-opacity="0.51373" fill="#ffd6ec" stroke="none" stroke-width="0" stroke-linecap="butt"/><path d="M546.60385,143.05843l-55.44208,-48.45789l66.02681,7.49538z" fill-opacity="0.51373" fill="#ffd6ec" stroke="none" stroke-width="0" stroke-linecap="butt"/><path d="M99.40291,123.65264c0,-15.53856 12.59649,-28.13505 28.13505,-28.13505c15.53856,0 28.13505,12.59649 28.13505,28.13505c0,15.53856 -12.59649,28.13505 -28.13505,28.13505c-15.53856,0 -28.13505,-12.59649 -28.13505,-28.13505z" fill-opacity="0.51373" fill="#ffd6ec" stroke="none" stroke-width="0" stroke-linecap="butt"/><path d="M3.87388,252.46595l13.08539,-49.33875l28.41777,16.74759l-13.08539,49.33875z" fill-opacity="0.51373" fill="#ffd6ec" stroke="none" stroke-width="0" stroke-linecap="butt"/><path d="M42.08488,187.79204l-8.58664,-37.61766l28.73571,-6.55924l8.58664,37.61766z" fill-opacity="0.51373" fill="#ffd6ec" stroke="none" stroke-width="0" stroke-linecap="butt"/><path d="M574.14595,180.17124v-71.29455l42.21388,-10.31895z" fill-opacity="0.51373" fill="#ffd6ec" stroke="none" stroke-width="0" stroke-linecap="butt"/><path d="M140.53215,285.60434v-156.8895h112.93339v156.8895z" fill="#3e0e6c" stroke="none" stroke-width="0" stroke-linecap="butt"/><path d="M555.82884,285.88368l2.7599,-192.9687l117.75585,-46.70778l8.27971,311.64545z" data-paper-data="{&quot;index&quot;:null}" fill="url(#color-3)" stroke="#3e0e6c" stroke-width="2.5" stroke-linecap="butt"/><path d="M316.44446,290.38921c0.05199,-1.89414 -4.22088,-35.05225 -3.79762,-50.56316c0.02488,-0.91163 39.44691,-1.02188 39.79688,-0.83548c1.8961,1.00985 29.6838,16.48629 31.87213,16.67573c1.8501,0.16016 213.1473,-2.25235 221.92112,-4.21487c6.20574,-1.38808 24.2362,13.32486 24.2362,13.32486l-5.94582,63.41249c0,0 -245.12832,8.47656 -248.37685,7.92836c-7.32554,-1.23622 -59.78816,-42.73622 -59.70603,-45.72793z" fill="#bb779b" stroke="#3e0e6c" stroke-width="2.5" stroke-linecap="butt"/><path d="M618.6795,266.61036c0,0 -244.49591,7.20593 -245.57748,7.25522c-3.16274,0.14414 -55.24108,-31.12971 -55.24108,-31.12971" fill="none" stroke="#3e0e6c" stroke-width="2.5" stroke-linecap="round"/><path d="M332.16231,212.85267c-0.86852,-21.51318 -3.07581,-105.91497 0.33886,-105.91497c17.48953,0 161.83969,0.3751 187.49106,0.3751c2.13096,0 2.20526,68.49231 0.581,99.96736c-0.14279,2.76695 -188.41092,5.57252 -188.41092,5.57252z" fill="#bb779b" stroke="#3e0e6c" stroke-width="2.5" stroke-linecap="butt"/><path d="M339.56962,206.85117c-0.81395,-18.93152 -2.88256,-93.20476 0.31757,-93.20476c16.39069,0 151.67162,0.33008 175.71137,0.33008c1.99707,0 2.06671,60.27297 0.5445,87.97089c-0.13382,2.4349 -176.57344,4.9038 -176.57344,4.9038z" fill="#ffd0e9" stroke="#3e0e6c" stroke-width="2.5" stroke-linecap="butt"/><path d="M349.26878,123.75953c0,-1.25 1.25,-1.25 1.25,-1.25h0.42457c7.07505,0.03745 4.9726,8.69365 2.81446,12.99301c-0.22479,0.44782 -2.72329,3.11818 -2.26405,3.82852c0.53519,0.82782 1.88729,0.80289 2.50583,1.57044c2.96404,3.67808 0.30082,7.83587 -2.16356,10.90541c-1.2614,1.0559 -3.9743,4.62625 -6.13102,3.15396c-0.64092,-0.43753 -0.08282,-1.54995 -0.10835,-2.32556c-0.06514,-1.97911 0.13432,-3.9658 0.13405,-5.94908c-0.0011,-8.08656 0.97646,-16.87662 -0.26851,-24.85946c0,0 -0.19007,-1.23547 1.04539,-1.42554c1.23546,-0.19007 1.42553,1.04539 1.42553,1.04539c1.06871,7.03363 0.29758,14.67863 0.29758,21.79494c0,2.77205 -0.03056,5.52588 -0.14211,8.29465c-0.00227,0.0564 -0.00563,0.11938 -0.01033,0.18688c0.11953,-0.11304 0.23262,-0.21541 0.32388,-0.29898c0.52652,-0.4821 1.09901,-0.91146 1.64852,-1.3672c1.14105,-1.43273 3.45762,-4.23405 2.7995,-6.29948c-1.01022,-3.17046 -4.83834,-1.71948 -3.49543,-6.30115c0.35322,-1.20509 1.61121,-1.95488 2.1707,-3.07915c1.27151,-2.55508 3.83194,-9.39656 -0.58209,-9.36759h-0.42457c0,0 -1.25,0 -1.25,-1.25z" fill="#3e0e6c" stroke="none" stroke-width="0.5" stroke-linecap="butt"/><path d="M364.12795,146.15862c-2.18452,-0.01434 -4.28988,0.39479 -6.51402,0.39479c0,0 -0.97746,0 -1.20367,-0.86435c-0.85324,1.82968 -1.53528,3.75234 -1.49422,5.33878c0,0 0,1.25 -1.25,1.25c-1.25,0 -1.25,-1.25 -1.25,-1.25c0.09306,-5.19395 4.22097,-9.57457 6.00421,-14.26389c0.41791,-1.09895 0.26042,-3.68321 2.2853,-3.76286c1.82862,-0.07193 2.67431,3.22162 3.14307,4.2014c1.45837,3.04819 2.42629,6.26198 3.62106,9.43855l0.2527,1.18073c0,0 0.24515,1.22572 -0.98058,1.47087c-1.22573,0.24515 -1.47087,-0.98058 -1.47087,-0.98058l-0.14208,-0.79321c-0.18172,-0.48616 -0.35835,-0.9734 -0.53247,-1.46087zM357.61394,144.05341c2.10787,0 4.06769,-0.34023 6.1357,-0.38923c-0.64913,-1.82557 -1.32245,-3.63505 -2.15676,-5.38393c-0.15371,-0.32221 -0.42224,-0.74464 -0.65263,-1.16486c-0.06338,0.20869 -0.1295,0.39869 -0.18475,0.54112c-0.54669,1.40904 -1.47992,2.63574 -2.20774,3.96034c-0.40373,0.73478 -0.88596,1.59382 -1.3651,2.51367c0.23611,-0.07712 0.43127,-0.07712 0.43127,-0.07712z" fill="#3e0e6c" stroke="none" stroke-width="0.5" stroke-linecap="butt"/><path d="M378.44154,147.13305c-1.04007,0.69338 -1.73343,-0.34669 -1.73343,-0.34669l-0.36996,-0.55631c-1.81023,-2.52143 -3.93097,-4.78295 -5.72963,-7.31088c-0.00164,-0.0023 -0.00327,-0.0046 -0.00492,-0.00691c0.0052,2.98782 0.104,5.98586 0.104,8.95727c0,0 0,1.25 -1.25,1.25c-1.25,0 -1.25,-1.25 -1.25,-1.25c0,-6.36506 -0.79516,-13.04863 1.24725,-19.14393c0.49343,-1.47257 1.59442,-5.19625 4.09181,-4.36491c2.33459,0.77715 3.85952,7.24183 2.75828,9.25345c-1.07587,1.96527 -2.31782,2.20561 -4.13309,3.02085c-0.03537,-0.01689 -0.07136,-0.03276 -0.10767,-0.04809c0.22749,0.26909 0.3769,0.60216 0.58519,0.88834c0.476,0.65402 0.95059,1.30982 1.45594,1.94145c1.43165,1.78937 2.92372,3.49088 4.26331,5.35486l0.41962,0.62805c0,0 0.69338,1.04006 -0.34669,1.73344zM370.69282,134.38327c0.2755,-0.0352 0.55179,-0.06948 0.78799,-0.15088c3.78447,-1.65535 2.53237,-4.05652 1.38872,-7.46514c-0.17278,-0.51498 -0.47749,0.97636 -0.69063,1.47599c-0.1717,0.40249 -0.21217,0.84992 -0.34982,1.2653c-0.51208,1.54522 -1.04024,2.96798 -1.1239,4.62106c-0.00428,0.08453 -0.0084,0.16909 -0.01236,0.25367z" fill="#3e0e6c" stroke="none" stroke-width="0.5" stroke-linecap="butt"/><path d="M-62.59876,330.33757c0,-16.99975 68.23288,-30.78078 152.4024,-30.78078c84.16952,0 152.4024,13.78103 152.4024,30.78078c0,3.78185 -0.64838,29.91464 -6.82639,33.26161c-21.59268,11.69795 -80.13127,-2.48082 -145.57601,-2.48082c-84.16952,0 -152.4024,-13.78103 -152.4024,-30.78078z" fill="#a85380" stroke="#3e0e6c" stroke-width="2.5" stroke-linecap="butt"/><path d="M89.80364,299.5568c84.16952,0 152.4024,13.78103 152.4024,30.78078c0,16.99975 -68.23287,30.78078 -152.4024,30.78078c-84.16952,0 -152.4024,-13.78103 -152.4024,-30.78078c0,-16.99975 68.23288,-30.78078 152.4024,-30.78078z" fill="#bb779b" stroke="#3e0e6c" stroke-width="2.5" stroke-linecap="butt"/><path d="M429.95489,260.7179c0.76,-7.97294 6.66668,-39.84076 7.12902,-39.84076c2.96435,0 38.81608,0.09123 43.78374,0.81867c0.94072,0.13775 -3.75291,44.59157 -4.43746,44.56955c-11.07594,-0.35618 -46.67816,-3.41936 -46.4753,-5.54746z" fill="#9351d1" stroke="#3e0e6c" stroke-width="2.5" stroke-linecap="butt"/><path d="M494.19105,226.21094c-1.08234,6.52919 -0.15693,33.17328 -2.10825,34.0257c-4.37488,1.91114 -16.07601,6.0068 -15.39394,6.02873c0.68455,0.02202 5.37818,-44.4318 4.43746,-44.56955c-1.46776,-0.21493 13.14614,4.02403 13.06473,4.51512z" fill="#9351d1" stroke="#3e0e6c" stroke-width="2.5" stroke-linecap="butt"/><path d="M432.63526,257.70927c0.6286,-6.59438 5.51399,-32.95213 5.89639,-32.95213c2.4518,0 32.10463,0.07546 36.21336,0.67712c0.77807,0.11393 -3.10402,36.88151 -3.67021,36.86329c-9.16087,-0.2946 -38.60732,-2.82813 -38.43954,-4.58828z" fill="#3e0e6c" stroke="none" stroke-width="0" stroke-linecap="butt"/><path d="M128.17542,-15.79073c0,24.88685 -29.44652,102.7191 -66.93715,139.71941c-49.3401,48.69479 -110.11614,54.63039 -111.17211,54.59043c-24.0184,-0.90902 7.5772,5.16576 7.5772,-48.33439c0,-13.99174 44.45143,-20.65127 75.29591,-53.73644c30.65791,-32.88504 47.70022,-92.23899 50.89782,-92.23899c12.43206,0 44.33834,-57.63954 44.33834,0z" fill="#3e0e6c" stroke="none" stroke-width="0" stroke-linecap="butt"/><text transform="translate(342.79103,202.24221) rotate(-0.97282) scale(0.15962,0.18267) skewX(0.00129)" font-size="40" xml:space="preserve" data-paper-data="{&quot;index&quot;:null}" fill="#3e0e6c" fill-rule="nonzero" stroke="none" stroke-width="1" stroke-linecap="butt" stroke-linejoin="miter" stroke-miterlimit="10" stroke-dasharray="" stroke-dashoffset="0" font-family="&quot;Neon&quot;, Sans Serif" font-weight="normal" text-anchor="start" style="mix-blend-mode: normal"><tspan x="0" dy="0">(now with invisible beer-creating machine 2000)</tspan></text><path d="M444.94602,230.92696c-0.01983,-0.767 -0.02382,-1.47657 0.01547,-1.67921c1.21526,-6.26661 9.36226,0.73206 11.66545,2.42663c0.15719,0.11565 0.31549,0.22987 0.47436,0.34335c0.53917,-1.23454 2.60618,-2.66688 3.63166,-2.79291c1.4757,-0.18136 7.11579,2.1596 5.83388,4.08066c0.52369,-0.12255 1.10033,-0.26635 1.57022,-0.04352c0.66483,0.31528 1.08027,1.00033 1.47352,1.6067c1.63613,2.52286 0.50955,4.88745 -1.72734,6.54092c-0.36771,0.2718 -2.26578,1.36041 -2.87713,1.4481c0.17338,0.12657 0.34605,0.2541 0.52035,0.37945c0.82448,1.59176 1.76584,3.20613 2.32144,4.91138c0.26911,0.82597 1.1267,1.77114 0.66956,2.51595c-1.22481,1.99558 -4.34334,1.09623 -6.80219,0.09462c0.51934,0.76067 0.98976,1.55638 1.4223,1.98215c0.69718,0.68625 2.01088,0.74819 2.49088,1.59058c0.41893,0.73522 0.5396,1.67133 0.36365,2.49321c-0.15042,0.70261 -0.6281,1.41301 -1.27524,1.76486c-0.7588,0.41256 -1.72007,0.27943 -2.58878,0.33603c-1.91695,0.12488 -6.57659,0.54925 -8.35776,-0.37088c-2.76783,-1.42982 -3.54042,-5.80864 -4.28979,-8.8971c-0.73895,1.42816 -2.46598,2.94289 -3.86589,2.6741c-1.32023,-0.25349 -2.54203,-2.89954 -3.00324,-3.99327c-0.13605,-0.32262 -0.25755,-0.96025 -0.28172,-1.46524c-0.58889,0.29308 -1.62423,0.46354 -2.11953,0.27355c-0.70997,-0.27234 -1.13911,-1.01816 -1.51706,-1.65955c-0.88637,-1.50422 -1.65634,-6.65838 -0.46275,-8.05194c1.52391,-1.77921 2.99846,-0.23853 2.44703,-1.11691c-0.15551,-1.22084 -1.04588,-6.13133 0.43955,-6.85826c1.07238,-0.5248 2.55973,0.38726 3.82907,1.46654z" fill="#f2f2f2" stroke="none" stroke-width="0.5" stroke-linecap="butt"/><path d="M450.21866,250.48269l-0.03032,0.05477c0.02339,0.01638 0.0462,0.03353 0.06838,0.05142c0.09772,-0.04526 0.19573,-0.09145 0.29406,-0.13862c0.02062,-0.03617 0.06099,-0.10218 0.12113,-0.17945c-0.15073,0.07193 -0.30182,0.14253 -0.45325,0.21188zM450.62837,247.49396c0,0 1.10294,-0.58823 1.69117,0.5147c0.58823,1.10294 -0.5147,1.69118 -0.5147,1.69118c-0.04206,0.02239 -0.08415,0.04466 -0.12626,0.0668c0.16076,0.01041 0.33847,0.0569 0.53312,0.15422c1.11804,0.55901 0.55901,1.67705 0.55901,1.67705l-0.73345,0.90787c-2.87133,1.43483 -5.98985,2.83053 -9.27096,2.74837c-1.83114,-0.04586 -3.39879,-0.09466 -3.25163,-2.74335c0.07651,-1.37719 4.49454,-3.85284 3.14318,-4.42545c0,0 -0.88389,-0.88388 0,-1.76776c0.88389,-0.88388 1.76777,0 1.76777,0c1.25793,1.59297 1.33242,2.44283 0.58237,3.52138c1.92714,-0.66322 3.80403,-1.37445 5.62037,-2.34501z" fill="#f2f2f2" stroke="none" stroke-width="0.5" stroke-linecap="butt"/><path d="M446.87498,233.60148c0.3434,-1.20191 1.54531,-0.8585 1.54531,-0.8585l0.60165,0.17194c2.45593,0.68224 6.22713,2.75316 8.66971,2.83129c0.4386,0.01403 -0.27567,-0.83338 -0.42662,-1.24542c-0.52247,-1.42618 -1.38106,-2.73226 -2.09294,-4.06674c0,0 -0.58823,-1.10295 0.51471,-1.69118c1.10294,-0.58823 1.69117,0.5147 1.69117,0.5147c0.96427,1.80841 4.37511,6.53868 1.84117,8.46771c-0.65667,0.49991 -1.64854,0.21893 -2.47119,0.15287c-2.66145,-0.21373 -5.80579,-1.83523 -8.39512,-2.55444l-0.61935,-0.17692c0,0 -1.2019,-0.3434 -0.8585,-1.54531z" fill="#3e0e6c" stroke="none" stroke-width="0.5" stroke-linecap="butt"/><path d="M460.82193,242.76527c-0.88388,0.88388 -1.76777,0 -1.76777,0l0.30016,0.06227c-1.24799,-0.36943 -2.22726,-0.08513 -3.49134,0.02379c-1.88584,0.57985 -4.78706,-0.36963 -6.17544,-0.83066l-0.9411,-0.37412c0,0 -1.1606,-0.46424 -0.69636,-1.62483c0.46424,-1.1606 1.62483,-0.69636 1.62483,-0.69636l0.80319,0.3236c1.05825,0.35424 1.53125,0.56007 2.66046,0.73347c0.37329,0.05732 0.75394,0.04622 1.13055,0.07452c0.13909,0.01045 0.39284,0.08137 0.59124,0.12537c0.06725,-0.04111 0.13538,-0.07427 0.2008,-0.101c-0.99051,-1.1076 -1.45693,-2.21639 -2.0351,-3.61851c0,0 -0.47594,-1.15585 0.67991,-1.63178c1.15585,-0.47594 1.63178,0.67991 1.63178,0.67991c0.30012,0.72997 1.82944,3.20289 2.1964,4.29615c0.78191,-0.04433 1.54579,-0.02231 2.46434,0.20486l0.82345,0.58555c0,0 0.88388,0.88388 0,1.76777z" fill="#3e0e6c" stroke="none" stroke-width="0.5" stroke-linecap="butt"/><path d="M460.8974,248.30626c1.25,0 1.25,1.25 1.25,1.25l-0.00856,0.49491c-0.27013,2.15267 -0.61741,4.48399 -3.59161,4.23208c-1.63075,-0.13812 -3.53243,-2.50589 -4.51887,-3.63965c-0.40878,-0.46983 -0.83037,-0.93276 -1.18287,-1.44617c-0.10455,-0.15228 -0.07389,-0.68351 -0.17176,-0.52686c-1.08105,1.73025 -1.89739,4.92447 -2.32707,6.98656c0,0 -0.25751,1.22319 -1.4807,0.96567c-1.22319,-0.25751 -0.96567,-1.4807 -0.96567,-1.4807c0.47969,-2.25778 1.20341,-4.72616 2.47235,-6.69231c0.49671,-0.76963 0.77256,-1.94649 1.65444,-2.19414c2.85603,-0.80205 7.01943,9.16298 7.6289,3.50341l-0.00856,-0.20281c0,0 0,-1.25 1.25,-1.25z" fill="#3e0e6c" stroke="none" stroke-width="0.5" stroke-linecap="butt"/><path d="M443.92148,249.39697c-1.14893,-0.4924 -0.65653,-1.64133 -0.65653,-1.64133l0.43514,-0.90785c-0.5644,-3.7917 -2.46434,-0.77802 -3.71614,1.27044c0,0 -0.65512,1.06457 -1.71969,0.40945c-1.06457,-0.65512 -0.40945,-1.71969 -0.40945,-1.71969c1.79708,-2.90271 6.47699,-7.45969 8.11787,-1.57752c0.17789,0.63768 0.13438,1.31721 0.20157,1.97581l-0.61144,1.53416c0,0 -0.4924,1.14893 -1.64133,0.65653z" fill="#3e0e6c" stroke="none" stroke-width="0.5" stroke-linecap="butt"/><path d="M469.80838,238.45408c0.1831,0.26113 0.36327,0.51589 0.51263,0.7198c0.3413,0.13846 0.72225,0.44758 0.72225,1.13765c0,1.25 -1.25,1.25 -1.25,1.25l-1.13471,-0.44977c-1.08422,-1.30109 -3.02311,-2.81281 -2.23594,-4.84498c1.2986,-3.35248 3.79285,-1.35461 5.02121,0.38608c0,0 0.69338,1.04006 -0.34669,1.73344c-0.53861,0.35908 -0.98425,0.25327 -1.28876,0.06777z" fill="#3e0e6c" stroke="none" stroke-width="0.5" stroke-linecap="butt"/><path d="M439.39624,237.65995c-1.18585,-0.39528 -0.79057,-1.58114 -0.79057,-1.58114l0.89104,-1.92698c2.67609,-0.21316 1.92796,-1.53499 1.19486,-3.84597c0,0 -0.37284,-1.1931 0.82026,-1.56594c1.1931,-0.37284 1.56594,0.82026 1.56594,0.82026c0.70349,2.28033 1.74908,7.04648 -2.11929,6.61976l0.01889,0.68945c0,0 -0.39528,1.18585 -1.58114,0.79057z" fill="#3e0e6c" stroke="none" stroke-width="0.5" stroke-linecap="butt"/></g></g></svg>