<svg version="1.1" xmlns="http://www.w3.org/2000/svg" xmlns:xlink="http://www.w3.org/1999/xlink" width="43" height="43" viewBox="0,0,43,43"><g transform="translate(-298.5,-158.5)"><g data-paper-data="{&quot;isPaintingLayer&quot;:true}" fill-rule="nonzero" stroke-linecap="butt" stroke-linejoin="miter" stroke-miterlimit="10" stroke-dasharray="" stroke-dashoffset="0" style="mix-blend-mode: normal"><path d="M299.75,180c0,-11.18376 9.06624,-20.25 20.25,-20.25c11.18376,0 20.25,9.06624 20.25,20.25c0,11.18376 -9.06624,20.25 -20.25,20.25c-11.18376,0 -20.25,-9.06624 -20.25,-20.25z" fill-opacity="0.4" fill="#3e0080" stroke="#fedbff" stroke-width="2.5"/><g fill="#fedbff" stroke="none" stroke-width="0"><path d="M323.30608,168.03961c9.16115,2.44781 8.39049,5.66153 8.28936,6.11073c-0.51142,2.27164 -3.21897,8.21117 -6.6455,12.23806c-2.20778,2.59459 -10.60844,1.5207 -11.24163,-2.77643c-0.75596,-5.13029 -1.93413,-11.65782 -1.44852,-13.81479c0.09727,-0.43206 0.68015,-4.09147 11.04629,-1.75757z"/><path d="M329.02556,191.63825c-2.02521,1.17318 -6.89289,2.09014 -11.85245,0.97356c-6.42801,-1.44718 -10.83781,-5.4315 -10.32429,-7.71241c0.23675,-1.05159 2.68679,-1.50843 4.67479,-1.82693c1.00045,3.35588 3.3327,5.48669 6.65889,6.0383c3.74952,0.62181 6.3612,-0.21576 8.4456,-1.76231c1.84037,1.19403 2.99709,3.94242 2.39745,4.28978z"/></g></g></g></svg>