<svg version="1.1" xmlns="http://www.w3.org/2000/svg" xmlns:xlink="http://www.w3.org/1999/xlink" width="823.85569" height="683.7489" viewBox="0,0,823.85569,683.7489"><g transform="translate(22.62465,162.18148)"><g data-paper-data="{&quot;isPaintingLayer&quot;:true}" fill-rule="nonzero" stroke="none" stroke-linecap="butt" stroke-linejoin="miter" stroke-miterlimit="10" stroke-dasharray="" stroke-dashoffset="0" style="mix-blend-mode: normal"><g><path d="M799.73105,91.10444c0,-0.41421 0.33579,-0.75 0.75,-0.75c0.41421,0 0.75,0.33579 0.75,0.75c0,0.41421 -0.33579,0.75 -0.75,0.75c-0.41421,0 -0.75,-0.33579 -0.75,-0.75z" fill="#e266ff" stroke-width="0.5"/><g stroke-width="0"><g fill-opacity="0.43529" fill="#ff69e0"><path d="M319.2498,521.56742l-341.87445,-341.87445l341.87445,-341.87445l341.87445,341.87445z"/><path d="M77.50808,421.43477v-483.48348h483.48348v483.48348z"/></g><g fill-opacity="0.43529" fill="#ff69e0"><path d="M458.3383,491.99504l-451.39047,-173.21352l173.21352,-451.39047l451.39047,173.21352z"/><path d="M196.76937,498.8743l-196.7008,-441.66171l441.66172,-196.7008l196.7008,441.66172z"/></g><path d="M88.76934,179.69304c0,-127.29085 103.18963,-230.48048 230.48048,-230.48048c127.29085,0 230.48048,103.18963 230.48048,230.48048c0,127.29085 -103.18962,230.48048 -230.48048,230.48048c-127.29085,0 -230.48048,-103.18963 -230.48048,-230.48048z" fill-opacity="0.38431" fill="#efa8ff"/><path d="M119.72619,179.69304c0,-110.19386 89.32977,-199.52363 199.52363,-199.52363c110.19386,0 199.52363,89.32977 199.52363,199.52363c0,110.19386 -89.32977,199.52363 -199.52363,199.52363c-110.19386,0 -199.52363,-89.32977 -199.52363,-199.52363z" fill-opacity="0.43529" fill="#ff69e0"/></g></g></g></g></svg>