<svg version="1.1" xmlns="http://www.w3.org/2000/svg" xmlns:xlink="http://www.w3.org/1999/xlink" width="214.71471" height="247.74775" viewBox="0,0,214.71471,247.74775"><defs><linearGradient x1="320" y1="180.00004" x2="320" y2="180.00004" gradientUnits="userSpaceOnUse" id="color-1"><stop offset="0" stop-color="#67497d"/><stop offset="1" stop-color="#553783"/></linearGradient></defs><g transform="translate(-328.25826,-87.83139)"><g data-paper-data="{&quot;isPaintingLayer&quot;:true}" fill-rule="nonzero" stroke-linecap="butt" stroke-linejoin="miter" stroke-miterlimit="10" stroke-dasharray="" stroke-dashoffset="0" style="mix-blend-mode: normal"><g><path d="M417.56146,188.54918c-1.57255,14.85415 34.4974,19.26788 44.55186,8.22132c7.80325,-8.57322 2.96505,-18.13237 -0.24005,-21.32153c-1.90156,-1.8921 -10.53791,-4.56887 -13.27335,-4.92909c-7.34605,-0.96737 -29.84523,6.75823 -31.03846,18.0293z" fill-opacity="0.32157" fill="#532000" stroke="none" stroke-width="0"/><g><path d="M435.54671,176.05303c-1.59222,-1.57772 6.47044,-6.51185 8.06266,-4.93414c0.6161,0.61049 6.25146,5.04462 6.41681,6.64334c0.06016,0.58167 0.07871,1.68828 -1.15024,2.38233c-2.13815,1.20752 -12.73881,-3.50651 -13.32922,-4.09153z" data-paper-data="{&quot;index&quot;:null}" fill="#ed9555" stroke="#5b2300" stroke-width="2.5"/><path d="M451.57073,181.46821c0.09943,-1.39165 1.1585,-1.91295 1.73811,-2.1437c1.59308,-0.63421 10.73135,3.9922 11.59145,4.22457c2.22275,0.60055 -1.19392,9.65079 -3.41668,9.05024c-0.82421,-0.22269 -10.08588,-8.7099 -9.91289,-11.13111z" fill="#ed9555" stroke="#5b2300" stroke-width="2.5"/><path d="M476.39444,167.56514c-0.83979,3.17548 -9.65652,9.68946 -12.39499,8.94957c-2.73848,-0.73989 -4.64376,-9.43086 -3.80398,-12.60634c0.83979,-3.17548 17.03876,0.48129 16.19897,3.65677z" fill="#a88360" stroke="#5b2300" stroke-width="2.5"/><path d="M452.92952,170.6142c-2.25507,-0.60927 -7.51954,1.04844 -3.53215,-6.34744c0.55811,-1.0352 2.14967,-5.5605 3.66051,-8.01041c0.80303,-1.30216 10.60963,5.84434 10.75362,7.95625c0.01769,0.25943 -8.1435,7.14148 -10.88199,6.4016z" data-paper-data="{&quot;index&quot;:null}" fill="#a88360" stroke="#5b2300" stroke-width="2.5"/><path d="M426.84534,191.9368c-0.70594,-1.07272 11.80155,-9.1665 12.23138,-9.21291c3.17529,-0.34292 5.325,1.47366 5.33409,2.00978c0.02625,1.54737 -9.33803,10.0015 -10.22627,11.10603c-1.11995,1.39265 -5.84801,-1.63696 -7.33919,-3.9029z" fill="#894225" stroke="#5b2300" stroke-width="2.5"/><path d="M445.70123,200.45758c-0.45035,1.70292 -5.96999,0.41939 -8.24306,-1.23167c-2.30046,-1.67099 -1.34814,-3.72841 -0.70381,-5.12966c0.57333,-1.24686 6.82862,-8.74574 7.52581,-9.1016c2.74125,-1.39916 5.96133,0.93816 6.18731,1.44496c0.65226,1.46273 -4.40907,12.66736 -4.76625,14.01796z" fill="#894225" stroke="#5b2300" stroke-width="2.5"/><path d="M450.19707,188.2625c-2.95332,-0.22899 -8.72821,-3.73903 -10.5729,-5.6267c-0.27451,-0.28092 2.61966,-1.15527 4.75027,-2.8341c2.2398,-1.76486 3.72887,-4.33092 3.72887,-4.33092c2.65267,0.7167 4.95817,1.69487 6.03926,4.46941c0.18373,0.47152 -0.58121,4.35915 -2.07641,6.85439c-0.19044,0.3178 -1.05998,1.53065 -1.86909,1.46791z" fill="#ed9555" stroke="#5b2300" stroke-width="2.5"/><path d="M447.2814,167.69709c1.38159,-5.22416 7.21903,-8.18463 13.0383,-6.61237c5.81926,1.57226 9.41671,7.08185 8.03513,12.30601c-1.38158,5.22417 -7.21903,8.18464 -13.0383,6.61238c-5.81926,-1.57226 -9.41671,-7.08186 -8.03513,-12.30602z" fill="#a88360" stroke="#5b2300" stroke-width="2.5"/><path d="M442.57338,185.46166c0.39322,-1.48686 8.96286,-7.0761 10.2592,-6.72586c0.15602,0.04216 1.84062,0.64713 1.5319,1.46829c-0.8243,2.19261 -4.6081,6.19442 -4.83471,7.15783c-0.34368,1.46117 -1.12246,-1.73669 -2.87447,-2.05796c-2.24131,-0.41099 -4.46842,1.61921 -4.08191,0.15771z" fill="#ed7b41" stroke="#5b2300" stroke-width="2.5"/><path d="M447.51843,176.0083c-0.49018,-2.27856 1.09858,-3.55461 4.89234,-1.75845c4.33569,2.05274 4.83657,5.31967 2.33194,6.48136c-0.24093,0.11175 -6.52919,-1.49191 -7.22427,-4.7229z" fill="#ed7b41" stroke="#5b2300" stroke-width="2.5"/><path d="M443.96523,201.71733c-0.6637,2.50965 -4.15179,2.15726 -6.4909,1.52528c-2.33911,-0.63198 -4.0897,-1.69499 -3.426,-4.20463c0.27541,-1.04141 1.19223,-4.57738 5.55554,-3.45176c4.24296,1.09459 4.53507,5.47431 4.36138,6.13111z" fill="#a88360" stroke="#5b2300" stroke-width="2.5"/><path d="M429.35658,198.22756c-2.33911,-0.63198 -6.00858,-2.80961 -5.34488,-5.31927c0.6637,-2.50965 3.09797,-4.0318 5.43709,-3.39982c1.54592,0.41768 3.53883,1.70951 3.92734,3.23644c0.13359,0.52504 1.53622,2.29649 0.28985,3.74288c-0.61347,0.71193 -3.53785,1.94821 -4.30941,1.73975z" fill="#a88360" stroke="#5b2300" stroke-width="2.5"/><path d="M466.56547,173.10701c-0.41144,1.55577 -3.20702,0.91379 -3.58405,0.43349c-1.20842,-1.53941 -4.89373,-5.83925 -4.56728,-5.92757c0.12342,-0.03339 1.94977,-1.5252 3.33864,-0.5671c1.9764,1.36338 5.05434,5.14749 4.8127,6.06118z" fill="#5b2300" stroke="none" stroke-width="0"/><path d="M450.60281,162.65835c0.72507,-0.51125 5.71617,0.86629 7.46825,1.97916c1.23125,0.78205 -1.55607,2.09061 -1.5497,2.20128c0.01357,0.23609 -4.79133,-0.79664 -6.10991,-1.18172c-0.8262,-0.24128 -0.66971,-2.39159 0.19136,-2.99872z" data-paper-data="{&quot;index&quot;:null}" fill="#5b2300" stroke="none" stroke-width="0"/></g></g><g data-paper-data="{&quot;index&quot;:null}" stroke="#541287" stroke-width="2.5"><path d="" fill="#e5c2ff"/><path d="" fill="#9951b7"/></g><path d="" fill="#725580" stroke="#541287" stroke-width="2.5"/><path d="" fill="#6d3e90" stroke="none" stroke-width="0"/><path d="" fill="#725580" stroke="none" stroke-width="0"/><path d="" fill="#9857ca" stroke="none" stroke-width="0"/><path d="" fill="none" stroke="#541287" stroke-width="2.5"/><path d="" fill="#9468de" stroke="#541287" stroke-width="2.5"/><path d="" fill="#e5c2ff" stroke="#541287" stroke-width="2.5"/><g><g stroke="#541287" stroke-width="2.5"><path d="" fill="#9d7bb5"/><path d="" fill="#9d7bb5"/><path d="" fill="url(#color-1)"/></g><path d="" fill="#541287" stroke="none" stroke-width="0"/><path d="" fill="#ca80ff" stroke="#541287" stroke-width="2.5"/></g><g stroke="#541287" stroke-width="2.5"><path d="" fill="#e5c2ff"/><path d="" fill="#9951b7"/></g><path d="M328.25826,335.57914v-247.74775h214.71471v247.74775z" fill="none" stroke="none" stroke-width="0"/></g></g></svg>