<svg version="1.1" xmlns="http://www.w3.org/2000/svg" xmlns:xlink="http://www.w3.org/1999/xlink" width="349.48851" height="241.9056" viewBox="0,0,349.48851,241.9056"><g transform="translate(-307.22534,-135.0578)"><g data-paper-data="{&quot;isPaintingLayer&quot;:true}" fill-rule="nonzero" stroke-linejoin="miter" stroke-miterlimit="10" stroke-dasharray="" stroke-dashoffset="0" style="mix-blend-mode: normal"><path d="M480.63372,376.96341v-189.18378h176.08014v189.18378z" fill="none" stroke="none" stroke-width="0" stroke-linecap="butt"/><g stroke="#3e0e6c"><path d="M444.44541,266.00172c-0.10227,-0.28058 0.0043,-7.40552 3.86919,-13.08166c11.9315,-17.5231 40.20565,-49.06134 50.34206,-49.06134c13.41984,0 24.29876,9.12662 24.29876,20.38487c0,11.25825 -52.62714,61.48076 -66.04697,61.48076c-2.77723,0 -14.14335,11.27675 -15.33443,6.08589c-1.10789,-4.82829 7.86266,-26.10266 7.87119,-27.28705c0.01297,-1.80264 -4.26332,3.49917 -4.9998,1.47854z" fill="#ffffff" stroke-width="2.5" stroke-linecap="butt"/><path d="M433.33739,293.39255c0,0.46422 -7.78384,5.33459 -5.02684,3.00588c3.18876,-2.69342 13.54771,-4.94027 20.97432,-11.36815c11.21886,-9.71013 21.03569,-25.1144 31.32362,-35.47505c2.57417,-2.59237 5.50615,-2.19313 8.01648,-4.76388c2.75847,-2.82486 4.32765,-10.92619 6.92155,-13.73047c15.40835,-16.65811 28.39302,-26.45108 29.03582,-25.02138c3.46664,7.71042 -10.05032,55.58579 -22.47996,91.69565c-4.84902,14.08707 5.09581,44.19197 -5.6501,42.72669c-6.23944,-0.85079 -2.01833,-9.94095 -1.51996,-18.57595c0.56352,-9.76372 -2.16997,-19.04998 -3.01879,-17.12428c-10.4776,23.77024 -17.10193,43.03789 -19.16019,43.03789c-1.53776,0 -25.3887,18.76334 -40.30178,18.03604c-33.60407,-1.63885 -25.69761,-14.30356 -43.35924,-13.88658c-40.58924,0.95828 -80.61697,-3.97673 -80.61697,-15.35931c0,-6.11336 28.97755,-13.4103 56.37491,-27.77093c2.47094,-1.29517 -14.93118,8.11612 -13.67837,5.58539c4.39991,-8.88803 19.3301,-12.6338 32.72831,-20.08808c12.43872,-6.92045 23.40161,-17.71067 27.28813,-21.8967c1.10792,-1.19331 5.20247,-0.58288 9.22132,-1.90162c4.82218,-1.58234 9.64912,-5.14594 10.60154,-7.2622c2.75944,-6.13142 1.37227,-17.57058 4.63134,-21.75009c9.38538,-12.03602 24.37295,-6.97275 21.99551,-4.3838c-0.32687,0.35595 -2.58203,0.0654 -4.51165,0.07612c-4.0093,0.02228 -9.18732,0.48719 -10.79076,4.7386c-2.30574,6.11354 0.88276,20.00973 -0.03792,27.29668c-1.17424,9.29388 -8.96031,18.35579 -8.96031,24.15953z" fill="#ffffff" stroke-width="2.5" stroke-linecap="butt"/><path d="M505.99523,164.92298c6.26163,-16.71612 22.38444,-28.61518 41.28642,-28.61518c24.34113,0 43.19091,18.84978 43.19091,43.19091c0,8.33677 -6.49352,26.28039 -10.78759,34.08555c-1.79269,3.2585 -21.64461,18.37278 -34.16854,18.37278c-4.69583,0 -19.35769,-8.82666 -20.91318,-9.14524c-2.3065,-0.4724 -1.68244,-2.84206 -2.10248,-4.85743c-0.23266,-1.11629 -2.51734,-0.54472 -3.31322,-1.06102c-0.79914,-0.51841 -1.43313,-2.57107 -2.97882,-2.38594c-2.30959,0.27662 -4.49703,1.29379 -5.67607,-0.03655c-0.52047,-0.58727 2.7251,-5.92614 2.23635,-6.54105c-1.99193,-2.50609 -7.29915,-13.3875 -8.04842,-16.47761c-0.81986,-3.38127 -1.51245,-7.43326 -1.51245,-11.07086c0,0 0.98528,-10.6482 2.7871,-15.45836z" fill="#ffffff" stroke-width="2.5" stroke-linecap="butt"/><path d="M519.23889,231.71089c0,0 -9.48941,-2.62981 -12.01766,-4.31531c-1.70727,-1.13818 -1.68097,-4.8171 -1.68097,-4.8171" fill="none" stroke-width="2.5" stroke-linecap="round"/><path d="M508.81826,272.90466c0,0 -16.7141,-14.15721 -19.7779,-18.78181c-1.51483,-2.28653 -0.13412,-8.06101 -0.13412,-8.06101" fill="none" stroke-width="2.5" stroke-linecap="round"/><path d="M500.64793,302.48715c0,0 -4.22783,-0.79316 -8.64762,-4.13389c-7.6365,-5.77211 -17.78861,-15.91191 -21.69024,-19.38401c-2.8288,-2.51738 -5.21335,-8.11942 -5.21335,-8.11942" fill="none" stroke-width="2.5" stroke-linecap="round"/><path d="M482.05695,326.29668c0,0 -6.05556,-0.13798 -13.66269,-4.72832c-8.62607,-5.2052 -19.15399,-15.1099 -23.4132,-18.36694c-4.29376,-3.28346 -5.6508,-10.17285 -5.6508,-10.17285" fill="none" stroke-width="2.5" stroke-linecap="round"/><path d="M448.46267,360.86942c0,0 -31.60122,-32.04937 -29.79516,-44.51119c1.21548,-8.38676 9.24723,-19.08959 9.24723,-19.08959" fill="none" stroke-width="2.5" stroke-linecap="round"/><path d="M517.01595,190.97789c0.00397,-0.77904 4.09608,-7.4295 9.29402,-11.90629c3.01504,-2.59673 6.79372,-4.19818 9.34339,-4.18517c2.13078,0.01087 6.33105,1.00247 9.09478,3.39774c5.17701,4.4868 8.79011,11.93564 8.78328,13.27482c-0.00522,1.02298 -6.28581,8.91181 -6.5505,9.11583c-3.61616,2.78732 -8.59187,3.83512 -11.47863,3.82039c-4.28696,-0.02187 -10.79867,-4.2989 -14.68795,-8.04053c-2.82491,-2.71767 -3.80006,-5.1505 -3.7984,-5.47679z" fill="#ffffff" stroke-width="2.5" stroke-linecap="butt"/><g fill="#ffffff" stroke-linecap="butt"><path d="M524.51379,191.60834c0.03059,-5.9959 4.91604,-10.83175 10.91194,-10.80116c5.9959,0.03059 10.83175,4.91604 10.80116,10.91195c-0.03059,5.9959 -4.91604,10.83174 -10.91194,10.80115c-5.9959,-0.03059 -10.83175,-4.91603 -10.80116,-10.91193z" stroke-width="2.5"/><path d="M527.47466,191.62344c0.02225,-4.36066 3.57529,-7.87765 7.93596,-7.8554c4.36066,0.02225 7.87765,3.5753 7.8554,7.93596c-0.02225,4.36066 -3.5753,7.87764 -7.93596,7.85539c-4.36066,-0.02225 -7.87764,-3.57529 -7.85539,-7.93595z" stroke-width="2"/><path d="M529.89721,191.63579c0.01542,-3.02273 2.47833,-5.46064 5.50106,-5.44522c3.02273,0.01542 5.46063,2.47833 5.44521,5.50106c-0.01542,3.02273 -2.47833,5.46064 -5.50106,5.44522c-3.02273,-0.01542 -5.46063,-2.47833 -5.44521,-5.50106z" stroke-width="1.5"/><path d="M532.66072,191.6499c0.00764,-1.4965 1.22697,-2.70346 2.72347,-2.69583c1.4965,0.00763 2.70347,1.22698 2.69584,2.72348c-0.00764,1.4965 -1.22698,2.70346 -2.72348,2.69583c-1.4965,-0.00763 -2.70346,-1.22698 -2.69582,-2.72348z" stroke-width="1"/></g><path d="M584.19413,202.29125c-3.93735,2.94242 -10.23872,6.06098 -13.97839,5.57267c-2.51823,-0.32882 -6.70168,-1.87177 -9.44563,-4.83588c-0.20084,-0.21696 -4.52062,-8.13741 -4.37549,-9.06855c0.19,-1.21896 4.42909,-7.56632 9.59784,-11.03391c2.75933,-1.85117 6.56533,-2.25522 8.42409,-2.01251c2.22416,0.29042 5.28331,2.19509 7.53121,4.91458c3.87541,4.68842 6.46894,11.22296 6.35841,11.93207c-0.04629,0.29701 -1.25221,2.39437 -4.11203,4.53155z" data-paper-data="{&quot;index&quot;:null}" fill="#ffffff" stroke-width="2.5" stroke-linecap="butt"/><g data-paper-data="{&quot;index&quot;:null}" fill="#ffffff" stroke-linecap="butt"><path d="M570.66797,206.08968c-5.23045,-0.68297 -8.78095,-5.66094 -7.93027,-11.11861c0.85068,-5.45767 5.78041,-9.32833 11.01086,-8.64536c5.23045,0.68297 8.78094,5.66094 7.93026,11.11861c-0.85068,5.45767 -5.78041,9.32833 -11.01085,8.64536z" stroke-width="2.5"/><path d="M571.08807,203.39461c-3.80396,-0.4967 -6.38615,-4.11705 -5.76747,-8.08626c0.61868,-3.96921 4.20394,-6.78424 8.0079,-6.28753c3.80396,0.4967 6.38615,4.11705 5.76747,8.08626c-0.61868,3.96921 -4.20394,6.78424 -8.0079,6.28753z" stroke-width="2"/><path d="M571.43175,201.18953c-2.63684,-0.34431 -4.42676,-2.85386 -3.9979,-5.60525c0.42885,-2.75139 2.91409,-4.70271 5.55093,-4.3584c2.63684,0.34431 4.42676,2.85386 3.9979,5.60525c-0.42885,2.75139 -2.91409,4.70271 -5.55093,4.3584z" stroke-width="1.5"/><path d="M571.82384,198.67412c-1.30545,-0.17046 -2.19161,-1.4129 -1.97929,-2.77506c0.21232,-1.36217 1.44272,-2.32823 2.74817,-2.15777c1.30545,0.17046 2.1916,1.4129 1.97929,2.77506c-0.21232,1.36217 -1.44271,2.32823 -2.74816,2.15777z" stroke-width="1"/></g><path d="M518.59798,221.3148c3.3335,0.79378 3.33031,4.36615 1.45655,9.50071c-0.34245,0.93839 -3.20088,1.34471 -3.45878,2.42778c-0.44991,1.8894 1.16369,4.57664 1.01306,6.35014c-0.40819,4.80583 -2.17509,7.79007 -5.05503,7.1043c-3.94273,-0.93885 -11.7388,-9.13488 -10.06974,-16.14418c1.66906,-7.0093 12.17121,-10.1776 16.11394,-9.23875z" fill="#ffffff" stroke-width="2.5" stroke-linecap="butt"/><path d="M496.44118,229.44991c-1.66906,7.0093 -12.32231,10.81217 -16.26504,9.87332c-2.87994,-0.68577 -3.11226,-4.14608 -1.31073,-8.62012c0.66483,-1.65106 3.31636,-3.32268 3.76626,-5.21209c0.2579,-1.08307 -2.11065,-2.73405 -1.99342,-3.72606c0.64141,-5.42801 2.24857,-8.61844 5.58208,-7.82466c3.94273,0.93885 11.88991,8.5003 10.22085,15.5096z" data-paper-data="{&quot;index&quot;:null}" fill="#ffffff" stroke-width="2.5" stroke-linecap="butt"/><path d="M490.83506,228.78552c1.12661,-4.73128 5.87538,-7.65344 10.60665,-6.52682c4.73128,1.12661 7.65344,5.87538 6.52682,10.60665c-1.12661,4.73128 -5.87538,7.65344 -10.60665,6.52682c-4.73128,-1.12661 -7.65344,-5.87538 -6.52682,-10.60665z" fill="#ffffff" stroke-width="2.5" stroke-linecap="butt"/></g></g></g></svg>