<svg version="1.1" xmlns="http://www.w3.org/2000/svg" xmlns:xlink="http://www.w3.org/1999/xlink" width="31.08333" height="46.66667" viewBox="0,0,31.08333,46.66667"><g transform="translate(-304.45833,-156.66666)"><g data-paper-data="{&quot;isPaintingLayer&quot;:true}" fill-rule="nonzero" stroke-linejoin="miter" stroke-miterlimit="10" stroke-dasharray="" stroke-dashoffset="0" style="mix-blend-mode: normal"><path d="M309.00583,194.1139c0,0 1.06525,-4.13277 1.0897,-4.18043c2.68633,-5.23665 15.19694,-27.5811 15.19694,-27.5811c0,0 2.60637,-1.36816 2.8578,-1.39531c0.10397,-0.01123 0.33889,-0.37756 0.77999,-0.56383c0.41258,-0.17422 1.02286,-0.16998 1.38872,-0.15711c0.757,0.02665 1.22396,0.66644 1.32607,0.94827c0.11392,0.31448 0.25243,0.75896 0.32659,1.38303c0.06245,0.52547 -0.15086,1.36066 -0.12239,1.54301c0.05462,0.34974 -1.02138,2.78347 -1.02138,2.78347c0,0 -9.56044,19.51388 -12.19603,24.78759c-1.23735,2.47589 -2.90557,5.43009 -2.90557,5.43009c0,0 -5.69398,0.15349 -6.48536,-0.25231c-1.11969,-0.57415 -0.23509,-2.74538 -0.23509,-2.74538z" fill="#e66363" stroke="#b31212" stroke-width="2" stroke-linecap="butt"/><path d="M320.91754,168.96917c0,0 2.57552,0.66543 4.6246,2.05503c1.24149,0.84192 2.56615,2.76567 2.56615,2.76567" fill="#e66363" stroke="#b31212" stroke-width="2" stroke-linecap="round"/><path d="M323.51991,163.89412c0,0 2.41067,0.1536 4.45976,1.5432c1.24149,0.84192 2.85681,2.56763 2.85681,2.56763" fill="#e66363" stroke="#b31212" stroke-width="2" stroke-linecap="round"/><path d="M326.74604,161.77648c0,0 1.1278,0.45358 1.46123,0.61363c0.37082,0.17799 0.81272,0.7266 0.81272,0.7266" fill="#e66363" stroke="#b31212" stroke-width="1.5" stroke-linecap="round"/><path d="M315.76217,191.86707c1.33961,1.95621 0.83996,4.13463 -1.12451,4.96046c-1.96447,0.82584 -3.89085,0.11871 -4.91813,-1.98766c-1.02729,-2.10637 -0.78395,-4.15817 1.18052,-4.984c1.96447,-0.82584 3.45497,-0.04362 4.86212,2.0112z" fill="#e66363" stroke="#b31212" stroke-width="2" stroke-linecap="butt"/><path d="M314.65547,194.47254c1.33961,1.95621 0.83995,4.13462 -1.12452,4.96045c-1.96447,0.82584 -3.89084,0.11872 -4.91812,-1.98766c-1.02729,-2.10638 -0.78395,-4.15817 1.18052,-4.984c1.96447,-0.82584 3.45497,-0.04361 4.86212,2.01121z" fill="#e66363" stroke="#b31212" stroke-width="2" stroke-linecap="butt"/><path d="M311.07043,194.1597c0.09896,-0.03707 0.20327,-0.0602 0.31076,-0.07072c0.37177,-0.05677 0.74185,0.03348 1.04048,0.23496c0.76124,0.40254 1.33554,1.24603 0.92221,2.05208c-0.62723,1.22319 -2.34235,1.69509 -2.84683,0.12875c-0.12786,-0.14597 -0.22869,-0.31988 -0.29196,-0.51635c-0.22075,-0.68541 0.08976,-1.41455 0.70322,-1.74223c0.04847,-0.0349 0.1022,-0.06405 0.16211,-0.08649z" fill="#b31212" stroke="none" stroke-width="0.5" stroke-linecap="butt"/><path d="M308.06503,195.12221c0,0 0.11544,-1.7005 0.39948,-2.41062c0.26406,-0.66018 1.07432,-1.75193 1.07432,-1.75193" fill="none" stroke="#b31212" stroke-width="2" stroke-linecap="round"/><path d="M316.50426,194.50692c0,0 -0.14056,1.17034 -0.35127,1.75477c-0.23156,0.64229 -0.98146,1.9418 -0.98146,1.9418" fill="none" stroke="#b31212" stroke-width="2" stroke-linecap="round"/><path d="M314.78128,182.91297c3.09958,-1.81713 3.50054,2.14804 1.74966,3.89319c-2.33141,2.32378 -4.49049,-1.8242 -1.98009,-3.66741z" fill="#b31212" stroke="none" stroke-width="0.5" stroke-linecap="butt"/><path d="M317.27919,177.60274c2.82351,-1.75669 4.56895,1.48923 2.40817,3.46983c-2.96717,2.71974 -4.75617,-1.15385 -2.41222,-3.4506z" fill="#b31212" stroke="none" stroke-width="0.5" stroke-linecap="butt"/><path d="M319.19597,173.00978c1.61374,-2.08208 4.92154,-0.34771 3.40031,2.13018c-0.05449,0.32553 -0.85615,1.14025 -1.64126,1.21302c-0.78511,0.07277 -1.48357,-0.13354 -1.75106,-0.96408c-0.01722,-0.05348 -0.03173,-0.10718 -0.04361,-0.16096c-0.43219,-0.6526 -0.55593,-1.45494 0.03562,-2.21816z" fill="#b31212" stroke="none" stroke-width="0.5" stroke-linecap="butt"/><path d="M322.64202,167.56131c-0.29629,-0.91996 0.20929,-1.90593 1.12926,-2.20222c0.91996,-0.29629 1.90593,0.20929 2.20222,1.12926c0.29629,0.91996 -0.20929,1.90593 -1.12926,2.20222c-0.91996,0.29629 -1.90593,-0.20929 -2.20222,-1.12925z" fill="#b31212" stroke="none" stroke-width="0.5" stroke-linecap="butt"/><path d="M304.45833,203.33334v-46.66667h31.08333v46.66667z" fill="none" stroke="none" stroke-width="none" stroke-linecap="butt"/></g></g></svg>