<svg version="1.1" xmlns="http://www.w3.org/2000/svg" xmlns:xlink="http://www.w3.org/1999/xlink" width="875.82467" height="672.13213" viewBox="0,0,875.82467,672.13213"><defs><linearGradient x1="320" y1="-156.06607" x2="320" y2="516.06607" gradientUnits="userSpaceOnUse" id="color-1"><stop offset="0" stop-color="#bb61ff"/><stop offset="1" stop-color="#ffa557"/></linearGradient></defs><g transform="translate(117.91233,156.06606)"><g data-paper-data="{&quot;isPaintingLayer&quot;:true}" fill-rule="nonzero" stroke="none" stroke-linecap="butt" stroke-linejoin="miter" stroke-miterlimit="10" stroke-dasharray="" stroke-dashoffset="0" style="mix-blend-mode: normal"><path d="M-117.91233,516.06607v-672.13213h875.82467v672.13213z" data-paper-data="{&quot;index&quot;:null}" fill="url(#color-1)" stroke-width="0"/><text transform="translate(160.88811,192.8088) scale(1.0674,1.0674)" font-size="40" xml:space="preserve" fill="#2a0745" fill-rule="nonzero" stroke="none" stroke-width="1" stroke-linecap="butt" stroke-linejoin="miter" stroke-miterlimit="10" stroke-dasharray="" stroke-dashoffset="0" font-family="&quot;Neon&quot;, Sans Serif" font-weight="normal" text-anchor="start" style="mix-blend-mode: normal"><tspan x="0" dy="0">game over lol</tspan></text><g fill="#2a0745" stroke-width="0.5"><g><path d="M460.69359,168.21683c-0.71354,0.67231 -1.42709,0 -1.42709,0l-0.40853,-0.51437c-1.304,-3.48607 -5.47204,-7.67378 -9.60426,-8.30384c-0.52871,-0.08061 -0.32151,0.98029 -0.63051,1.39247c-0.34088,0.4547 -0.80845,0.81236 -1.19713,1.23163c-1.58753,1.71245 -2.7695,3.68013 -3.68456,5.76634c1.78867,-0.58575 3.63513,-0.46706 5.58926,-0.46706c0,0 0.73125,-0.00001 0.94878,0.58651l0.59055,0.06743c1.41989,0.64221 2.78608,0.50762 4.34253,0.56067c4.92564,0.16788 13.31752,1.38881 13.33407,7.26168c0.00382,1.35487 -0.1703,2.48929 -0.46958,3.82607c-0.80989,2.04358 -1.77677,4.28383 -3.73366,5.60726c-2.23462,1.51126 -5.28638,1.3087 -7.88454,1.3087c-5.51038,0 -10.08611,-0.5371 -14.5584,-3.78052c-4.22858,-3.62493 -5.31604,-10.03016 -0.68707,-13.60099c-0.06132,-0.29239 0.03818,-0.55661 0.03818,-0.55661c1.34807,-3.56625 3.45119,-5.85264 5.695,-8.86969c0.50553,-0.67974 0.56468,-2.00762 1.77417,-2.16798c1.16895,-0.15499 3.30972,0.93717 4.34714,1.45314c3.56347,1.77232 6.30624,4.43355 7.69068,8.04524l-0.06501,-0.19068c0,0 0.71355,0.67231 0,1.34463zM449.16246,169.22305c-1.97686,-0.01216 -3.89563,-0.21914 -5.68039,0.7622c-4.76956,2.6225 -3.91118,8.28665 -0.29027,11.31307c4.08404,2.95809 8.24327,3.34036 13.26713,3.34036c2.12998,0 4.87372,0.29796 6.71527,-0.95704c1.55409,-1.05909 2.31685,-2.96785 2.96508,-4.58856c0.25925,-1.16306 1.00027,-3.97225 0.26257,-5.09211c-0.57496,-0.87281 -1.99119,-1.39733 -2.89488,-1.79031c-1.38335,-0.60157 -2.74733,-1.27016 -4.28218,-1.46078c-3.02164,-0.37528 -6.3962,0.13606 -9.20042,-1.04739l0.07935,0.08751c0,0 -0.71491,0 -0.94124,-0.56697z"/><path d="M464.8029,182.0078c-0.6645,-0.71555 0.09493,-1.34166 0.09493,-1.34166l0.638,-0.5232c3.08043,-2.89515 6.4998,-5.53401 9.69412,-8.32467c0.38081,-0.41037 0.7647,-0.81822 1.14243,-1.23111c0.25644,-0.28031 1.11218,-0.73262 0.74382,-0.86107c-1.82578,-0.63667 -4.55917,-1.31657 -6.51519,-1.47964c-2.6831,-0.22368 -6.40203,-0.44418 -9.04562,0.03755c-2.28209,0.41586 -4.2223,1.29483 -6.58636,1.42364c0,0 -1.00755,0.05274 -1.06352,-0.8966c-0.05598,-0.94933 0.95158,-1.00208 0.95158,-1.00208c2.2742,-0.11361 4.14271,-1.00713 6.34633,-1.39742c4.11971,-0.72964 9.56148,-0.36545 13.52285,0.87801c0.93571,0.29372 3.47661,0.60984 4.01599,1.31014c1.28721,1.67124 -1.127,3.53458 -2.06428,4.5432c-3.19679,2.80089 -6.63787,5.43742 -9.71504,8.34468l-0.73609,0.60967c0,0 -0.75943,0.62611 -1.42393,-0.08944z"/><path d="M457.6901,185.74392l0.26736,0.92649c0.32911,1.37604 0.86251,4.43765 -0.85478,5.32933c-0.65405,0.33961 -2.32646,-1.38619 -2.79477,-1.83244c-0.05891,-0.00975 -0.11606,-0.0243 -0.17097,-0.04323c-0.11158,0.29438 -0.22316,0.58876 -0.33474,0.88313c0,0 -0.33941,0.8954 -1.28972,0.57561c-0.09935,-0.03343 -0.18461,-0.07316 -0.25764,-0.1175c-0.08418,-0.03612 -0.13448,-0.06772 -0.13448,-0.06772l-0.63605,-0.41334c-0.42792,-0.28478 -1.03985,0.21394 -1.56151,0.16839c-0.92414,-0.08069 -1.44498,-1.55823 -2.35706,-1.39645c-0.34703,0.06155 -0.23854,0.66936 -0.52089,0.86918c-0.01832,0.01296 -0.03679,0.02568 -0.05541,0.03816l0.00589,0.00624l-0.7697,0.64464c-0.17864,0.15101 -0.41476,0.24287 -0.67365,0.24287c-0.55732,0 -1.0091,-0.42568 -1.0091,-0.9508v-0.97103c0,-0.81469 0.0966,-1.63233 0.26652,-2.43114c0.09188,-0.4319 -0.782,0.56823 -1.24805,0.60287c-0.94403,0.07016 -2.17091,0.53945 -2.83918,-0.09271c-1.32357,-1.25207 2.04089,-4.27108 2.67967,-4.84161c0,0 0.73618,-0.65029 1.42635,0.04335c0.69016,0.69364 -0.04601,1.34394 -0.04601,1.34394c-0.48692,0.42457 -0.86628,0.94456 -1.27515,1.43932c1.02094,-0.30124 2.36483,-0.25004 2.78754,0.21725c0.19001,0.21005 0.25098,1.17561 0.26774,2.08169c0.17136,-0.03684 0.36492,-0.07099 0.58292,-0.10209c0.83058,-0.1185 1.60995,0.47854 2.35699,0.84055c0.20759,0.10059 0.20559,0.52368 0.43882,0.51425c0.32186,-0.01301 0.4377,-0.56358 0.75985,-0.5627c0.57675,0.00158 1.08184,0.37632 1.62231,0.56684c0.00259,-0.00685 0.00518,-0.01368 0.00778,-0.02053l0.69944,-0.86542c0,0 0.65672,-0.7219 1.42289,-0.10313c0.00575,0.00464 0.01141,0.00929 0.017,0.01394c0.00443,-0.00005 0.00888,-0.00008 0.01333,-0.00008c0.25753,0 0.49252,0.0909 0.67082,0.2405c0.32867,0.06465 0.55801,0.28074 0.55801,0.28074c0.127,0.11973 0.27125,0.22739 0.41144,0.33788c-0.07681,-0.71235 -0.01141,-1.55868 -0.13298,-2.04117l-0.21094,-0.72636c-0.15225,-0.16651 -0.24432,-0.38327 -0.24432,-0.6203c0,-0.52512 0.4518,-0.9508 1.0091,-0.9508c0.39831,0 0.74272,0.21744 0.90682,0.5332c0.17588,0.19388 0.23849,0.41018 0.23849,0.41018z"/><path d="M446.9261,188.19914c1.0091,0 1.0091,0.9508 1.0091,0.9508l-0.01821,1.31268c-0.95129,2.31825 -1.58198,4.91224 -2.8878,7.04701c-2.42322,3.20724 -4.55219,2.16144 -8.0358,1.38669c-1.22028,-0.27139 -4.00461,-0.79303 -4.30149,-2.2684c-0.11681,-0.58051 2.63428,-2.46402 3.15659,-2.8208c3.14443,-2.14794 5.94468,-4.65669 9.02087,-6.79953c0,0 0.81375,-0.56227 1.41049,0.20446c0.59675,0.76673 -0.217,1.329 -0.217,1.329c-2.59957,1.7794 -4.82111,4.03878 -7.48154,5.83291c-0.81572,0.5501 -1.66219,1.06306 -2.43842,1.66172c-0.1612,0.12432 -0.48207,0.29565 -0.78436,0.43039c0.73914,0.0956 1.82952,0.52007 2.09111,0.57788c2.53231,0.5596 4.20825,1.81042 5.87696,-0.55537c1.20154,-1.91033 1.68866,-4.3101 2.6086,-6.38558l-0.01821,-0.95306c0,0 0,-0.9508 1.0091,-0.9508z"/><path d="M452.61573,190.20189c0,-0.52512 0.45179,-0.9508 1.0091,-0.9508c0.40303,0 0.75088,0.22262 0.91258,0.54447c0.18241,0.2642 0.18241,0.56817 0.18241,0.56817l-0.03013,0.01216c0.53249,2.01313 1.10759,3.92266 1.48627,5.97385c0.00359,1.36092 0.43477,4.2993 -0.49815,5.39879c-0.25155,0.29646 -2.20403,0.24734 -2.74003,0.24734c-1.84982,0 -6.06289,0.47266 -7.2406,-1.30384c-0.41825,-0.6309 0.31585,-2.33717 0.52923,-2.94164c0.95005,-2.6913 2.9847,-5.09681 3.67124,-7.7791c0,0 0.24474,-0.92241 1.22372,-0.69181c0.97898,0.2306 0.73422,1.15302 0.73422,1.15302c-0.75632,2.7729 -2.73514,5.15686 -3.71455,7.91923c-0.17515,0.494 -1.06627,1.06189 -0.6731,1.428c0.61446,0.57215 3.59559,0.31472 4.43924,0.31455c0.68705,-0.00014 1.38616,-0.12078 2.06115,0c0.14371,0.02572 0.3188,0.38164 0.35169,0.24733c0.24699,-1.00846 -0.15785,-2.74091 -0.15462,-3.826c-0.37063,-1.94771 -0.92436,-3.76439 -1.4337,-5.67851l-0.01387,-0.21787c-0.06542,-0.12598 -0.10215,-0.26762 -0.10215,-0.41733z"/><path d="M444.54792,197.1859c-0.71355,0.67231 -1.42709,0 -1.42709,0l-0.17177,-0.16183c-1.36983,-1.29135 -2.67439,-2.62894 -3.92299,-4.02491c0,0 -0.65,-0.72728 0.12188,-1.33972c0.27914,-0.22148 0.54233,-0.26776 0.76462,-0.23658c0.71797,-0.60021 1.38992,0.06624 1.38992,0.06624c1.42519,1.41492 2.90671,2.78506 4.5854,3.93188l0.2059,0.17755c0,0 0.71355,0.67231 0,1.34464c-0.59817,0.56361 -1.19635,0.18226 -1.37414,0.0442c-0.04469,0.06576 -0.10125,0.13215 -0.17172,0.19855z"/><path d="M447.61863,197.75151c1.00496,0.08608 0.9136,1.03297 0.9136,1.03297l-0.26415,0.25878c0.21022,0.40481 0.51603,0.59195 0.87409,0.62896c-0.52878,-1.26521 -1.0968,-2.48278 -1.47347,-3.80377c0,0 -0.26001,-0.91869 0.71503,-1.16368c0.97503,-0.24499 1.23504,0.67371 1.23504,0.67371c0.27825,0.99142 0.68166,1.91818 1.08522,2.85671c0.17771,-0.40518 0.45586,-0.81411 0.65097,-1.29444c0.22691,-0.55863 0.03699,-1.49391 0.63624,-1.69135c0.70001,-0.23064 1.47713,0.36604 2.05418,0.8049c1.32707,1.00926 1.47487,3.35747 1.11806,4.68005c-0.16152,0.59872 -0.20105,1.49778 -0.82703,1.68152c-0.70171,0.20596 -1.34192,-0.56531 -2.01288,-0.84797l-0.04937,-0.12981l-0.04395,0.03254l-0.43978,-0.52737c-0.06492,0.02408 -0.13108,0.04712 -0.19808,0.06922c-0.17083,0.29653 -0.5042,0.49785 -0.88746,0.49785c-0.19468,0 -0.37648,-0.05194 -0.53065,-0.14193c-1.52902,0.2769 -2.50327,0.00598 -3.55953,-1.23466l-0.09239,-1.52144c0,0 0.09136,-0.9469 1.09632,-0.86081z"/></g><path d="M443.90494,176.1091c0,-0.52511 0.45179,-0.9508 1.0091,-0.9508c0.55731,0 1.0091,0.42569 1.0091,0.9508c0,0.52511 -0.45179,0.9508 -1.0091,0.9508c-0.55731,0 -1.0091,-0.42569 -1.0091,-0.9508z"/><path d="M458.64984,180.82279c0,-0.52511 0.45179,-0.9508 1.0091,-0.9508c0.55731,0 1.0091,0.42569 1.0091,0.9508c0,0.52511 -0.45179,0.9508 -1.0091,0.9508c-0.55731,0 -1.0091,-0.42569 -1.0091,-0.9508z"/><path d="M451.98207,179.32273l0.67804,0.83249c0,0 0.5935,0.7287 -0.14517,1.23189c-0.73867,0.50319 -1.33217,-0.2255 -1.33217,-0.2255l-0.67803,-0.83249c0,0 -0.5935,-0.7287 0.14517,-1.23189c0.73867,-0.50319 1.33217,0.2255 1.33217,0.2255z" data-paper-data="{&quot;index&quot;:null}"/><path d="M449.27506,179.00909l0.55565,-0.17033c0.34853,-0.04444 0.69707,-0.08888 1.0456,-0.13332c0,0 0.7793,-0.09937 0.56436,0.73793c-0.21494,0.8373 -0.99424,0.93666 -0.99424,0.93666c-0.34853,0.04444 -0.69707,0.08888 -1.0456,0.13332l-0.21953,0.09151c0,0 -0.80704,0.2726 -0.76015,-0.52529c0.04688,-0.79789 0.85391,-1.07049 0.85391,-1.07049z" data-paper-data="{&quot;index&quot;:null}"/></g></g></g></svg>