<svg version="1.1" xmlns="http://www.w3.org/2000/svg" xmlns:xlink="http://www.w3.org/1999/xlink" width="34.57404" height="33.63472" viewBox="0,0,34.57404,33.63472"><g transform="translate(-4.80209,-3.79948)"><g data-paper-data="{&quot;isPaintingLayer&quot;:true}" fill-rule="nonzero" stroke="none" stroke-width="0" stroke-linecap="butt" stroke-linejoin="miter" stroke-miterlimit="10" stroke-dasharray="" stroke-dashoffset="0" style="mix-blend-mode: normal"><path d="M4.80209,37.43419v-33.63472h34.57404v33.63472z" fill-opacity="0.01176" fill="#bf66ff"/><path d="M8.96153,26.41581l12.01465,-10.9158l6.44006,6.44006l-10.9158,12.01465z" fill="#6b0f47"/><path d="M8.69914,26.6782c2.07555,-2.07555 5.44574,-2.07046 7.52756,0.01135c2.08181,2.08181 2.0869,5.45201 0.01135,7.52756c-2.07555,2.07555 -5.44575,2.07047 -7.52756,-0.01135c-2.08181,-2.08181 -2.08689,-5.45202 -0.01135,-7.52756z" fill="#6b0f47"/><path d="M16.99929,19.6194c0,0 -0.44774,-2.76794 -0.42409,-5.30605c0.01627,-1.74566 0.49085,-3.54871 0.53907,-3.59831c-0.01448,0.00767 9.10743,-10.49382 13.75908,-2.39839c0.12616,0.13177 -6.44671,4.48764 -6.44671,4.48764l-0.18821,5.92374z" fill="#6b0f47"/><path d="M24.18821,18.67782l5.92374,-0.18821c0,0 4.35587,-6.57287 4.48764,-6.44671c8.09543,4.65165 -2.40606,13.77356 -2.39839,13.75908c-0.04959,0.04822 -1.85265,0.5228 -3.59831,0.53907c-2.53812,0.02366 -5.30605,-0.42409 -5.30605,-0.42409z" data-paper-data="{&quot;index&quot;:null}" fill="#6b0f47"/><path d="M10.38167,28.36073c1.15258,-1.15258 3.02127,-1.15258 4.17385,0c1.15258,1.15258 1.15258,3.02127 0,4.17385c-1.15258,1.15258 -3.02127,1.15258 -4.17385,0c-1.15258,-1.15258 -1.15258,-3.02127 0,-4.17385z" fill="#2b061d"/></g></g></svg>