<svg version="1.1" xmlns="http://www.w3.org/2000/svg" xmlns:xlink="http://www.w3.org/1999/xlink" width="169.33337" height="182.72575" viewBox="0,0,169.33337,182.72575"><defs><radialGradient cx="551.6905" cy="66.96313" r="71.05124" gradientUnits="userSpaceOnUse" id="color-1"><stop offset="0" stop-color="#3e0e6b" stop-opacity="0.51373"/><stop offset="1" stop-color="#3e0e6b" stop-opacity="0"/></radialGradient><linearGradient x1="552.7029" y1="85.43598" x2="537.97556" y2="56.1016" gradientUnits="userSpaceOnUse" id="color-2"><stop offset="0" stop-color="#f2b34d"/><stop offset="1" stop-color="#f2544e"/></linearGradient><linearGradient x1="551.87704" y1="83.79107" x2="538.80139" y2="57.74653" gradientUnits="userSpaceOnUse" id="color-3"><stop offset="0" stop-color="#b9643b"/><stop offset="1" stop-color="#cb4641"/></linearGradient><linearGradient x1="551.37854" y1="82.7981" x2="539.29991" y2="58.7395" gradientUnits="userSpaceOnUse" id="color-4"><stop offset="0" stop-color="#f2b34d"/><stop offset="1" stop-color="#f2544e"/></linearGradient></defs><g transform="translate(-471.27172,44.69669)"><g data-paper-data="{&quot;isPaintingLayer&quot;:true}" fill-rule="nonzero" stroke-linecap="butt" stroke-linejoin="miter" stroke-miterlimit="10" stroke-dasharray="" stroke-dashoffset="0" style="mix-blend-mode: normal"><path d="M488.6354,99.70964c-18.08539,-34.82437 -4.51578,-77.71621 30.30859,-95.80161c34.82437,-18.08539 77.71621,-4.51577 95.80161,30.30859c18.08539,34.82437 4.51577,77.71621 -30.30859,95.80161c-34.82437,18.08539 -77.7162,4.51577 -95.8016,-30.30859z" fill="url(#color-1)" stroke="none" stroke-width="0"/><path d="M472.52172,-33.88995c1.80797,-5.70283 22.31726,25.32366 25.48041,31.59017c1.32539,2.62576 8.34518,5.3736 12.66405,16.99394c0.30244,0.81377 -1.23226,3.89406 -0.9285,4.71408c5.75463,15.53417 15.44803,42.28955 15.43474,42.36266c-0.29548,1.6251 -10.09485,19.57331 -15.91942,13.20642c-0.18663,-0.20401 -7.05238,-24.81405 -10.33723,-38.83314c-0.29677,-1.26649 -1.62125,-0.28413 -1.91634,-1.54003c-2.98464,-12.70312 -12.69562,-29.12069 -12.96779,-29.11685c-0.05598,0.0008 0.10746,7.23184 -1.4877,3.37905c-3.97183,-9.59314 -11.85928,-36.96169 -10.02223,-42.75628z" data-paper-data="{&quot;index&quot;:null}" fill="#915c9c" stroke="#3e0e6c" stroke-width="2.5"/><path d="M622.22481,23.15462c-2.26603,3.48029 -0.96765,-3.61219 -1.02597,-3.62407c-0.28352,-0.05768 -12.98106,14.19557 -18.07784,26.12106c-0.5039,1.17901 -1.73329,-0.05123 -2.2406,1.13789c-5.6154,13.16267 -16.6206,36.05157 -16.84724,36.21563c-7.0731,5.11986 -14.50317,-14.5055 -14.55815,-16.16525c-0.00247,-0.07467 14.28903,-24.5174 22.71886,-38.68377c0.44499,-0.74782 -0.67664,-4.08681 -0.23402,-4.82873c6.32068,-10.59436 14.077,-11.91161 15.87006,-14.23632c4.27926,-5.54804 30.5273,-32.05712 31.52517,-26.07998c1.01391,6.07332 -11.48803,31.47788 -17.13028,40.14354z" data-paper-data="{&quot;index&quot;:null}" fill="#915c9c" stroke="#3e0e6c" stroke-width="2.5"/><path d="M504.077,-14.00758c2.29697,-5.4545 4.93986,-21.30287 10.019,-28.30895c3.5664,-4.9194 17.40682,7.39296 19.23673,14.42013c0.76675,2.94448 4.95029,16.46469 6.61695,29.00853c0.11671,0.87843 -1.09745,0.26627 -0.98096,1.15114c2.20694,16.76277 7.33616,39.99386 7.30148,40.06004c-0.77101,1.47103 -19.20901,7.74722 -23.98265,-0.21454c-0.15296,-0.25512 -0.98816,-18.42657 -0.84935,-32.9535c0.01253,-1.31238 -1.12277,-1.30594 -1.11125,-2.60758c0.11669,-13.16586 -4.39874,-31.26628 -4.70362,-31.34829c-0.21887,-0.05886 0.49717,6.26719 -0.80722,5.86921c-0.34006,-0.10375 -10.92839,5.3732 -10.73913,4.92381z" data-paper-data="{&quot;index&quot;:null}" fill="#915c9c" stroke="#3e0e6c" stroke-width="2.5"/><path d="M598.26175,-12.54716c-1.35964,0.10574 0.71079,-5.91464 0.48437,-5.90463c-0.3154,0.01396 -9.7936,16.09516 -12.53392,28.9732c-0.27093,1.27319 -0.23169,1.63065 -0.50397,2.91453c-3.01379,14.21155 -7.76854,31.76978 -7.97316,31.98567c-6.38615,6.73753 -21.55352,-0.78689 -21.98728,-2.39009c-0.0195,-0.07213 2.83483,-18.37036 8.6233,-34.25603c0.30555,-0.83858 -1.65665,-0.02512 -1.35227,-0.85736c4.34641,-11.88421 17.72338,-30.5231 19.11023,-33.23133c3.30982,-6.46333 19.4903,-15.48241 21.9054,-9.90684c3.4395,7.94057 5.80965,17.35334 6.86951,23.17608c0.08734,0.47972 -12.28772,-0.53077 -12.64219,-0.50321z" data-paper-data="{&quot;index&quot;:null}" fill="#915c9c" stroke="#3e0e6c" stroke-width="2.5"/><path d="" data-paper-data="{&quot;index&quot;:null}" fill="#915c9c" stroke="#3e0e6c" stroke-width="2.5"/><path d="M588.9818,65.93416c1.03993,11.80551 -2.76594,22.46775 -10.01391,30.21426c-0.42634,0.45566 0.63218,1.24812 0.18233,1.68324c-6.49056,6.27784 -16.89749,10.03371 -27.36927,10.87809c-0.80709,0.06509 -1.74802,1.29213 -2.5416,1.3208c-12.28576,0.44425 -23.12666,-3.98617 -30.58042,-11.3072c-0.50079,-0.49188 -1.40981,-0.26091 -1.87905,-0.77794c-5.55192,-6.1178 -8.45655,-14.7136 -9.26281,-23.86635c-0.10306,-1.16999 -2.01377,-1.24227 -2.01506,-2.3854c-0.01085,-9.68205 3.89666,-19.57302 10.51314,-26.46955c0.59193,-0.617 1.29201,-0.22825 1.92492,-0.81226c7.29411,-6.73066 17.24372,-11.21377 28.33217,-12.10789c0.75454,-0.06084 1.47918,-0.43502 2.23123,-0.46311c15.47322,-0.57782 29.64376,6.75115 36.55817,16.94074c0.73626,1.085 -0.94772,0.81226 -0.33032,1.99804c2.29442,4.40652 3.75182,9.49421 4.25044,15.15453zM543.5385,54.76748c-18.09105,1.45874 -14.27507,6.76323 -12.75037,24.07179c1.52469,17.30854 1.26094,5.40493 19.35199,3.94618c18.09105,-1.45874 5.56538,4.05529 4.04069,-13.25324c-1.52469,-17.30854 7.6414,-19.96534 -10.44965,-18.5066z" data-paper-data="{&quot;index&quot;:null}" fill="#75587b" stroke="#3e0e6c" stroke-width="2.5"/><path d="M513.192,76.60146c-4.17534,-14.79916 7.72239,-29.3332 26.57435,-32.46268c18.85194,-3.12949 37.51926,6.33066 41.69459,21.12982c4.17534,14.79916 -7.72237,29.33319 -26.57432,32.46267c-18.85194,3.12949 -37.51927,-6.33066 -41.69461,-21.12982z" data-paper-data="{&quot;index&quot;:null}" fill="#762e36" stroke="#3e0e6c" stroke-width="2.5"/><g data-paper-data="{&quot;index&quot;:null}" fill="#4e175c" stroke="none" stroke-width="0"><g><g><path d="M558.30183,91.92977c0.4825,0.92413 -0.97399,2.23848 -3.25322,2.93569c-2.27922,0.6972 -4.51803,0.51323 -5.00053,-0.4109c-0.35995,-0.68939 1.556,-4.90038 2.13494,-5.07747c1.03843,-0.31766 5.85614,2.04963 6.11881,2.5527z"/><path d="M549.46033,94.54854c-0.08542,0.98185 -2.15636,1.60378 -4.62554,1.38912c-2.46917,-0.21465 -4.40157,-1.18463 -4.31615,-2.16647c0.06372,-0.73246 4.19634,-3.7192 4.82351,-3.66468c1.12499,0.0978 4.16468,3.90753 4.11819,4.44204z"/><path d="M539.90976,93.69801c-0.37492,0.92862 -2.591,1.13596 -4.94977,0.4631c-2.35877,-0.67285 -3.96702,-1.97114 -3.59212,-2.89976c0.27968,-0.69276 5.21953,-2.78625 5.81867,-2.61535c1.0747,0.30657 2.92732,4.54646 2.72322,5.05199z"/><path d="M526.06367,89.64041c-1.76412,-1.44048 -2.49055,-3.15614 -1.62251,-3.83199c0.64753,-0.50419 6.32962,-0.54781 6.77772,-0.18192c0.80376,0.65631 0.08329,5.03045 -0.38925,5.39838c-0.86804,0.67585 -3.00182,0.05602 -4.76594,-1.38447z"/><path d="M522.9484,85.71433c-1.17114,0.28177 -2.76901,-1.02461 -3.56896,-2.91789c-0.79996,-1.89329 -0.49905,-3.65654 0.67206,-3.93833c0.87365,-0.21021 6.07999,1.78392 6.28318,2.26483c0.36447,0.86262 -2.74875,4.438 -3.3863,4.5914z"/></g><g data-paper-data="{&quot;index&quot;:null}"><path d="M558.52583,92.17176c-0.26267,-0.50307 1.09647,-4.7598 2.13491,-5.07747c0.57892,-0.17709 5.75887,1.86329 6.11884,2.55268c0.4825,0.92413 -0.974,2.23848 -3.25321,2.93568c-2.27922,0.6972 -4.51801,0.51324 -5.00053,-0.41089z"/><path d="M567.29004,89.405c-0.51498,-0.36274 -1.74294,-4.72667 -1.01587,-5.39101c0.40534,-0.37037 6.08905,-0.38639 6.79474,0.1107c0.94598,0.66635 0.41921,2.38855 -1.17657,3.84667c-1.59578,1.45812 -3.65631,2.09999 -4.60228,1.43364z"/><path d="M573.44415,83.75046c-0.60309,-0.25862 -3.07847,-4.30801 -2.57583,-5.09708c0.28023,-0.4399 5.7445,-1.52897 6.57092,-1.17458c1.10782,0.47506 1.11153,2.26414 0.00832,3.99602c-1.10321,1.73186 -2.8956,2.7507 -4.00342,2.27564z"/><path d="M577.61635,77.02352c-0.67367,-0.0173 -5.13435,-2.80658 -5.14295,-3.70612c-0.00478,-0.50149 4.15153,-3.46739 5.0747,-3.44368c1.23751,0.03178 2.25599,1.65809 2.27481,3.63245c0.01884,1.97436 -0.96907,3.54913 -2.20658,3.51735z"/><path d="M578.54495,69.01806c-0.60006,0.22518 -6.07517,-0.72306 -6.58782,-1.54035c-0.28579,-0.45564 1.69096,-4.64705 2.51326,-4.95563c1.10229,-0.41365 2.90798,0.70522 4.03313,2.49903c1.12515,1.79382 1.14371,3.5833 0.04142,3.99694z"/></g></g><g data-paper-data="{&quot;index&quot;:null}"><g><path d="M537.45376,49.75386c0.24678,0.50778 -1.24412,4.74164 -2.2917,5.04119c-0.58401,0.16701 -5.69639,-1.96446 -6.03456,-2.66029c-0.45332,-0.93277 1.04308,-2.2219 3.34231,-2.87938c2.29924,-0.65747 4.53061,-0.43429 4.98393,0.49848z"/><path d="M528.60987,52.36785c0.50329,0.37184 1.59419,4.75816 0.84694,5.40991c-0.4166,0.36335 -6.09645,0.27992 -6.78612,-0.22961c-0.92448,-0.68304 -0.34439,-2.39639 1.29566,-3.82689c1.64006,-1.4305 3.71903,-2.03645 4.64351,-1.35341z"/><path d="M522.28401,57.9159c0.59456,0.26923 2.94178,4.36277 2.4149,5.14322c-0.29375,0.4351 -5.78785,1.42879 -6.6026,1.05984c-1.09214,-0.49454 -1.04007,-2.28408 0.11633,-3.997c1.1564,-1.71292 2.97922,-2.7006 4.07135,-2.20606z"/><path d="M517.90516,64.57125c0.67264,0.02909 5.0429,2.897 5.02343,3.79689c-0.01085,0.50168 -4.25653,3.39549 -5.17825,3.35561c-1.23559,-0.05344 -2.20255,-1.69789 -2.1598,-3.67301c0.04275,-1.9751 1.07905,-3.53293 2.31462,-3.47949z"/><path d="M516.72752,72.56215c0.60664,-0.21473 6.04805,0.8295 6.5348,1.65594c0.27136,0.46073 -1.83463,4.61842 -2.66593,4.91267c-1.11435,0.39444 -2.88378,-0.75624 -3.95214,-2.57011c-1.06835,-1.81387 -1.03108,-3.60406 0.08327,-3.99849z"/></g><g data-paper-data="{&quot;index&quot;:null}"><path d="M540.74969,46.57997c2.29925,-0.65747 4.53062,-0.43429 4.98394,0.49847c0.33818,0.69584 -1.70768,4.87418 -2.2917,5.04119c-1.04756,0.29956 -5.78778,-2.15251 -6.03456,-2.66029c-0.45332,-0.93277 1.04309,-2.2219 3.34233,-2.87938z"/><path d="M550.98923,45.68625c2.46061,0.25791 4.36133,1.26188 4.24532,2.24244c-0.08652,0.73148 -4.30917,3.64655 -4.93418,3.58105c-1.12112,-0.11751 -4.03964,-3.98122 -3.9765,-4.51502c0.11599,-0.98056 2.20474,-1.56638 4.66535,-1.30848z"/><path d="M560.80116,47.63596c2.336,0.71428 3.90254,2.04095 3.49894,2.96321c-0.3011,0.68801 -5.30249,2.69551 -5.89585,2.51407c-1.06432,-0.32543 -2.78327,-4.59863 -2.56356,-5.10071c0.40359,-0.92227 2.62447,-1.09087 4.96048,-0.37659z"/><path d="M569.54977,52.31328c1.71786,1.47166 2.39019,3.20035 1.50175,3.86117c-0.66278,0.49296 -6.34193,0.43718 -6.77829,0.06337c-0.78269,-0.67051 0.07368,-5.03298 0.55734,-5.39272c0.88845,-0.66081 3.00132,-0.0035 4.71919,1.46816z"/><path d="M576.01546,59.27564c0.74031,1.90769 0.38462,3.66603 -0.7944,3.92739c-0.87955,0.19496 -6.01977,-1.89067 -6.20781,-2.37523c-0.3373,-0.86917 2.88514,-4.39082 3.52697,-4.5331c1.17903,-0.26136 2.73493,1.07325 3.47524,2.98094z"/></g></g></g><g data-paper-data="{&quot;index&quot;:null}"><path d="M566.08366,63.70707c4.06683,8.10046 -1.92395,17.82884 -13.38078,21.72894c-11.45683,3.90009 -24.04127,0.49501 -28.10811,-7.60547c-4.06684,-8.10046 1.92395,-17.82884 13.38077,-21.72893c11.45683,-3.90009 24.04126,-0.49501 28.1081,7.60545z" fill="url(#color-2)" stroke="#3e0e6c" stroke-width="2.5"/><path d="M563.75717,64.49903c3.61074,7.19201 -1.70817,15.82936 -11.88013,19.29204c-10.17197,3.46268 -21.34503,0.43949 -24.9558,-6.7525c-3.61074,-7.19201 1.70817,-15.82935 11.88013,-19.29204c10.17197,-3.46269 21.34505,-0.43949 24.95579,6.75252z" fill="url(#color-3)" stroke="none" stroke-width="0"/><path d="M562.35277,64.97711c3.33541,6.6436 -1.57791,14.62234 -10.97424,17.82099c-9.39633,3.19867 -19.71746,0.40599 -23.05287,-6.23762c-3.33542,-6.6436 1.57792,-14.62233 10.97425,-17.82099c9.39633,-3.19867 19.71746,-0.40597 23.05287,6.23762z" fill="url(#color-4)" stroke="none" stroke-width="0"/></g><g data-paper-data="{&quot;index&quot;:null}" fill="#ffe1da" stroke="#3e0e6c" stroke-width="2.5"><g><g><path d="M548.37773,96.85656c-2.52361,0.46503 -4.8309,0.01232 -5.15353,-1.01113c-0.24066,-0.76351 2.59657,-4.94906 3.23756,-5.06717c1.1498,-0.21188 5.7256,2.82601 5.90122,3.38317c0.32263,1.02345 -1.46165,2.23012 -3.98526,2.69515z"/><path d="M542.59035,95.87549c-0.28331,1.01789 -2.57403,1.42834 -5.11644,0.91672c-2.54239,-0.51162 -4.37375,-1.75151 -4.09043,-2.7694c0.21136,-0.75933 5.12727,-3.40576 5.77304,-3.27581c1.15837,0.2331 3.58807,4.57439 3.43384,5.12852z"/><path d="M532.76054,93.87545c-0.57584,0.92854 -2.93665,0.88811 -5.27299,-0.09033c-2.33634,-0.97843 -3.76353,-2.52436 -3.18769,-3.45291c0.42958,-0.69269 6.01413,-2.31027 6.60758,-2.06173c1.06448,0.4458 2.16658,5.09947 1.8531,5.60496z"/><path d="M519.06738,88.01908c-1.56226,-1.71291 -1.9839,-3.59327 -0.94178,-4.19993c0.77742,-0.45256 6.73418,0.16196 7.13101,0.59705c0.71179,0.78044 -0.90618,5.27567 -1.47352,5.60593c-1.04214,0.60666 -3.15344,-0.29014 -4.7157,-2.00306z"/><path d="M516.58155,83.5472c-1.2816,0.1589 -2.69632,-1.39432 -3.15986,-3.4692c-0.46353,-2.07488 0.19965,-3.88573 1.48125,-4.04463c0.95607,-0.11854 6.01243,2.57387 6.13017,3.1009c0.21119,0.94536 -3.75388,4.32641 -4.45155,4.41293z"/></g><g data-paper-data="{&quot;index&quot;:null}"><path d="M552.5497,94.44074c-0.17562,-0.55716 2.08776,-4.85529 3.23755,-5.06717c0.64099,-0.11811 5.66058,2.61965 5.90124,3.38316c0.32263,1.02345 -1.46165,2.23013 -3.98524,2.69514c-2.52361,0.46503 -4.83092,0.01231 -5.15354,-1.01114z"/><path d="M562.27065,92.56275c-0.46745,-0.43957 -0.89115,-5.15052 0.00114,-5.76149c0.49744,-0.34061 6.45045,0.30303 7.09101,0.90538c0.8587,0.80746 -0.03283,2.54909 -1.99128,3.89007c-1.95845,1.34098 -4.2422,1.77349 -5.10089,0.96604z"/><path d="M569.82954,87.35848c-0.58025,-0.34081 -2.3719,-4.86741 -1.68991,-5.63503c0.38022,-0.42794 6.31541,-0.93312 7.11055,-0.4661c1.06588,0.62603 0.71644,2.49931 -0.78041,4.18409c-1.49685,1.68478 -3.57435,2.54306 -4.64024,1.91704z"/><path d="M575.52548,80.80133c-0.7018,-0.09639 -4.82052,-3.53456 -4.65187,-4.47722c0.09402,-0.52553 5.03062,-3.1474 5.99234,-3.0153c1.28918,0.17706 2.0342,1.99786 1.66403,4.06685c-0.37017,2.06899 -1.71533,3.60274 -3.0045,3.42567z"/><path d="M578.07845,72.52892c-0.67261,0.16599 -6.21686,-1.46279 -6.59211,-2.37792c-0.20919,-0.51018 2.6878,-4.66815 3.60953,-4.89563c1.23555,-0.30493 2.90489,1.0761 3.7285,3.08463c0.82361,2.00853 0.48966,3.88398 -0.74592,4.18892z"/></g></g><g data-paper-data="{&quot;index&quot;:null}"><g><path d="M538.86735,47.58829c0.15805,0.56024 -2.23873,4.81912 -3.3945,5.01097c-0.64434,0.10697 -5.57519,-2.71831 -5.7918,-3.48603c-0.29035,-1.02911 1.5307,-2.20475 4.06744,-2.62586c2.53672,-0.42112 4.82851,0.07179 5.11886,1.10091z"/><path d="M529.09314,49.2971c0.45341,0.44772 0.72922,5.16619 -0.18171,5.76165c-0.50783,0.33196 -6.43721,-0.41531 -7.05853,-1.02884c-0.83291,-0.82242 0.11271,-2.54861 2.11205,-3.85554c1.99935,-1.30692 4.29532,-1.69969 5.12821,-0.87726z"/><path d="M521.3755,54.36995c0.56923,0.35092 2.21798,4.90885 1.51234,5.66463c-0.39342,0.42133 -6.34101,0.82321 -7.12106,0.34233c-1.04562,-0.64461 -0.63771,-2.51187 0.91109,-4.17063c1.5488,-1.65877 3.65202,-2.48091 4.69763,-1.83632z"/><path d="M515.47736,60.82814c0.6984,0.1086 4.70695,3.61858 4.50885,4.55835c-0.11045,0.52391 -5.12637,3.05991 -6.08339,2.91107c-1.2829,-0.19951 -1.97039,-2.03333 -1.5356,-4.09595c0.4348,-2.06262 1.82725,-3.57298 3.11013,-3.37347z"/><path d="M512.6666,69.05639c0.67743,-0.15429 6.16742,1.57108 6.51376,2.49276c0.19309,0.51385 -2.83254,4.6215 -3.76088,4.83295c-1.24441,0.28343 -2.86949,-1.12671 -3.62967,-3.14965c-0.76018,-2.02295 -0.36763,-3.89262 0.87678,-4.17606z"/></g><g data-paper-data="{&quot;index&quot;:null}"><path d="M542.94436,44.64875c2.53672,-0.42112 4.82851,0.07178 5.11887,1.1009c0.21659,0.76773 -2.75017,4.90401 -3.3945,5.01097c-1.15577,0.19186 -5.63374,-2.92578 -5.7918,-3.48602c-0.29036,-1.02911 1.5307,-2.20475 4.06743,-2.62584z"/><path d="M553.83986,44.90292c2.52491,0.55589 4.31634,1.82771 4.00128,2.84071c-0.23502,0.75567 -5.23103,3.31662 -5.87236,3.17543c-1.15039,-0.25328 -3.44262,-4.637 -3.27111,-5.18846c0.31506,-1.01299 2.6173,-1.38356 5.1422,-0.82768z"/><path d="M563.72621,48.08396c2.30435,1.01915 3.68223,2.58995 3.07763,3.5085c-0.45105,0.68523 -6.08308,2.20563 -6.66839,1.94677c-1.0499,-0.46433 -2.0055,-5.13735 -1.67638,-5.63739c0.60461,-0.91854 2.96278,-0.83702 5.26711,0.18213z"/><path d="M571.96081,53.9968c1.50769,1.74015 1.87016,3.62794 0.8096,4.21646c-0.79118,0.43903 -6.72521,-0.27922 -7.10819,-0.72123c-0.68691,-0.79284 1.07103,-5.26007 1.64837,-5.58047c1.06056,-0.58853 3.14252,0.34508 4.65021,2.08525z"/><path d="M577.35436,62.03641c0.39824,2.08302 -0.32131,3.88238 -1.60715,4.01899c-0.95923,0.10191 -5.9283,-2.67861 -6.02945,-3.20772c-0.18145,-0.94907 3.88731,-4.26122 4.5873,-4.33558c1.28584,-0.13659 2.65107,1.44129 3.04931,3.52431z"/></g></g></g><path d="M552.08964,70.78616c-0.51675,-2.95518 -0.4805,-8.8702 -0.18167,-8.874c0.30939,-0.00393 2.41089,5.95239 2.9157,8.83932c0.54893,3.13929 0.45212,8.87055 0.18168,8.87397c-0.21423,0.00271 -2.30309,-5.33583 -2.91571,-8.8393z" data-paper-data="{&quot;index&quot;:null}" fill="#3e0e6c" stroke="none" stroke-width="0"/></g></g></svg>