<svg version="1.1" xmlns="http://www.w3.org/2000/svg" xmlns:xlink="http://www.w3.org/1999/xlink" width="31.08333" height="46.66667" viewBox="0,0,31.08333,46.66667"><g transform="translate(-304.45833,-156.66669)"><g data-paper-data="{&quot;isPaintingLayer&quot;:true}" fill-rule="nonzero" stroke-linejoin="miter" stroke-miterlimit="10" stroke-dasharray="" stroke-dashoffset="0" style="mix-blend-mode: normal"><g stroke="#b3bfff" stroke-width="4.5"><path d="M326.74604,161.7765c0,0 1.1278,0.45358 1.46123,0.61363c0.37082,0.17799 0.81272,0.7266 0.81272,0.7266" fill="#e66363" stroke-linecap="round"/><path d="M309.00586,194.11393c0,0 1.06525,-4.13277 1.0897,-4.18043c2.68633,-5.23665 15.19694,-27.5811 15.19694,-27.5811c0,0 2.60637,-1.36816 2.8578,-1.39531c0.10397,-0.01123 0.33889,-0.37756 0.77999,-0.56383c0.41258,-0.17422 1.02286,-0.16998 1.38872,-0.15711c0.757,0.02665 1.22396,0.66644 1.32607,0.94827c0.11392,0.31448 0.25243,0.75896 0.32659,1.38303c0.06245,0.52547 -0.15086,1.36066 -0.12239,1.54301c0.05462,0.34974 -1.02138,2.78347 -1.02138,2.78347c0,0 -9.56044,19.51388 -12.19603,24.78759c-1.23735,2.47589 -2.90557,5.43009 -2.90557,5.43009c0,0 -5.69398,0.15349 -6.48536,-0.25231c-1.11969,-0.57415 -0.23509,-2.74538 -0.23509,-2.74538z" fill="none" stroke-linecap="butt"/><path d="M316.50426,194.50695c0,0 -0.14056,1.17034 -0.35127,1.75477c-0.23156,0.64229 -0.98146,1.9418 -0.98146,1.9418" fill="none" stroke-linecap="round"/><path d="M309.20436,191.79158c0.19393,-0.84483 0.74199,-1.53473 1.69573,-1.93567c1.96447,-0.82584 3.45497,-0.04362 4.86212,2.0112c0.62799,0.91705 0.85179,1.88292 0.70996,2.7354" fill="none" stroke-linecap="butt"/><path d="M323.51993,163.89415c0,0 2.41067,0.1536 4.45976,1.5432c1.24149,0.84192 2.85681,2.56763 2.85681,2.56763" fill="none" stroke-linecap="round"/><path d="M320.91757,168.9692c0,0 2.57552,0.66543 4.6246,2.05503c1.24149,0.84192 2.56615,2.76567 2.56615,2.76567" fill="none" stroke-linecap="round"/><path d="M314.65549,194.47257c1.33961,1.95621 0.83995,4.13462 -1.12452,4.96045c-1.96447,0.82584 -3.89084,0.11872 -4.91812,-1.98766c-1.02729,-2.10638 -0.78395,-4.15817 1.18052,-4.984c1.96447,-0.82584 3.45497,-0.04361 4.86212,2.01121z" fill="none" stroke-linecap="butt"/><path d="M308.05903,194.58897c0,0 0.08263,-1.37296 0.65103,-2.41308c0.45608,-0.83458 1.49602,-1.89275 1.94044,-2.16239c1.51383,-0.91848 3.1462,-0.10475 3.1462,-0.10475" fill="none" stroke-linecap="round"/></g><path d="M309.00586,194.11393c0,0 1.06525,-4.13277 1.0897,-4.18043c2.68633,-5.23665 15.19694,-27.5811 15.19694,-27.5811c0,0 2.60637,-1.36816 2.8578,-1.39531c0.10397,-0.01123 0.33889,-0.37756 0.77999,-0.56383c0.41258,-0.17422 1.02286,-0.16998 1.38872,-0.15711c0.757,0.02665 1.22396,0.66644 1.32607,0.94827c0.11392,0.31448 0.25243,0.75896 0.32659,1.38303c0.06245,0.52547 -0.15086,1.36066 -0.12239,1.54301c0.05462,0.34974 -1.02138,2.78347 -1.02138,2.78347c0,0 -9.56044,19.51388 -12.19603,24.78759c-1.23735,2.47589 -2.90557,5.43009 -2.90557,5.43009c0,0 -5.69398,0.15349 -6.48536,-0.25231c-1.11969,-0.57415 -0.23509,-2.74538 -0.23509,-2.74538z" fill="#8194ff" stroke="#b31212" stroke-width="2" stroke-linecap="butt"/><path d="M326.74604,161.7765c0,0 1.1278,0.45358 1.46123,0.61363c0.37082,0.17799 0.81272,0.7266 0.81272,0.7266" fill="#e66363" stroke="#0e1068" stroke-width="1.5" stroke-linecap="round"/><path d="M321.68137,184.65498c0,2.80694 -2.96062,7.40156 -2.96062,7.40156c0,0 -1.33229,2.41218 -1.33229,-0.39475c0,-0.09223 -0.14653,-13.11765 -0.14358,-13.21971c0.0584,-2.02038 1.38335,-5.53463 3.21088,-6.84257c0.88942,-0.63655 2.15499,-1.1465 3.01869,-0.30428c0.8637,0.84222 1.37633,2.56213 0.97866,4.2022c-0.39767,1.64007 -2.27114,1.5203 -2.74914,3.09956c-0.478,1.57926 -0.02261,5.31671 -0.02261,6.05799z" fill="#b3bfff" stroke="none" stroke-width="0" stroke-linecap="butt"/><path d="M314.7813,182.913c3.09958,-1.81713 3.50054,2.14804 1.74966,3.89319c-2.33141,2.32378 -4.49049,-1.8242 -1.98009,-3.66741z" fill="#0e1068" stroke="none" stroke-width="0.5" stroke-linecap="butt"/><path d="M317.27922,177.60277c2.82351,-1.75669 4.56895,1.48923 2.40817,3.46983c-2.96717,2.71974 -4.75617,-1.15385 -2.41222,-3.4506z" fill="#252674" stroke="none" stroke-width="0.5" stroke-linecap="butt"/><path d="M319.19597,173.00981c1.61374,-2.08208 4.92154,-0.34771 3.40031,2.13018c-0.05449,0.32553 -0.85615,1.14025 -1.64126,1.21302c-0.78511,0.07277 -1.48357,-0.13354 -1.75106,-0.96408c-0.01722,-0.05348 -0.03173,-0.10718 -0.04361,-0.16096c-0.43219,-0.6526 -0.55593,-1.45494 0.03562,-2.21816z" fill="#252674" stroke="none" stroke-width="0.5" stroke-linecap="butt"/><path d="M322.64206,167.56134c-0.29629,-0.91996 0.20929,-1.90593 1.12926,-2.20222c0.91996,-0.29629 1.90593,0.20929 2.20222,1.12926c0.29629,0.91996 -0.20929,1.90593 -1.12926,2.20222c-0.91996,0.29629 -1.90593,-0.20929 -2.20222,-1.12925z" fill="#0e1068" stroke="none" stroke-width="0.5" stroke-linecap="butt"/><path d="M325.28344,171.08546c0,-1.85312 1.41388,-3.35537 3.158,-3.35537c0.80824,0 1.54556,0.32261 2.10412,0.85323c-0.84668,1.19017 -1.6261,2.52802 -2.29469,3.85719c-0.43371,0.52127 -0.81543,1.08734 -1.13719,1.69023c-1.08075,-0.53285 -1.83024,-1.69607 -1.83024,-3.04528z" fill="#b3bfff" stroke="none" stroke-width="0" stroke-linecap="butt"/><path d="M309.00586,194.11393c0,0 1.06525,-4.13277 1.0897,-4.18043c2.68633,-5.23665 15.19694,-27.5811 15.19694,-27.5811c0,0 2.60637,-1.36816 2.8578,-1.39531c0.10397,-0.01123 0.33889,-0.37756 0.77999,-0.56383c0.41258,-0.17422 1.02286,-0.16998 1.38872,-0.15711c0.757,0.02665 1.22396,0.66644 1.32607,0.94827c0.11392,0.31448 0.25243,0.75896 0.32659,1.38303c0.06245,0.52547 -0.15086,1.36066 -0.12239,1.54301c0.05462,0.34974 -1.02138,2.78347 -1.02138,2.78347c0,0 -9.56044,19.51388 -12.19603,24.78759c-1.23735,2.47589 -2.90557,5.43009 -2.90557,5.43009c0,0 -5.69398,0.15349 -6.48536,-0.25231c-1.11969,-0.57415 -0.23509,-2.74538 -0.23509,-2.74538z" fill="none" stroke="#0e1068" stroke-width="2" stroke-linecap="butt"/><path d="M315.7622,191.8671c1.33961,1.95621 0.83996,4.13463 -1.12451,4.96046c-1.96447,0.82584 -3.89085,0.11871 -4.91813,-1.98766c-1.02729,-2.10637 -0.78395,-4.15817 1.18052,-4.984c1.96447,-0.82584 3.45497,-0.04362 4.86212,2.0112z" fill="#b3bfff" stroke="none" stroke-width="0" stroke-linecap="butt"/><path d="M308.06505,195.12224c0,0 0.11544,-1.7005 0.39948,-2.41062c0.26406,-0.66018 1.07432,-1.75193 1.07432,-1.75193" fill="none" stroke="#630961" stroke-width="2" stroke-linecap="round"/><path d="M316.50426,194.50695c0,0 -0.14056,1.17034 -0.35127,1.75477c-0.23156,0.64229 -0.98146,1.9418 -0.98146,1.9418" fill="none" stroke="#0e1068" stroke-width="2" stroke-linecap="round"/><path d="M314.65549,194.47257c1.33961,1.95621 0.83995,4.13462 -1.12452,4.96045c-1.96447,0.82584 -3.89084,0.11872 -4.91812,-1.98766c-1.02729,-2.10638 -0.78395,-4.15817 1.18052,-4.984c1.96447,-0.82584 3.45497,-0.04361 4.86212,2.01121z" fill="#b3bfff" stroke="none" stroke-width="0" stroke-linecap="butt"/><path d="M315.50973,196.96128c0,1.40347 -3.45592,2.42152 -4.91388,2.42152c-1.45797,0 0.11284,-0.61911 0.11284,-2.02257c0,-1.40347 0.42392,-3.65825 1.88189,-3.65825c0.23904,0 -1.5819,-0.84522 -1.96192,-2.09903c-0.00272,-0.00899 0.23417,0.26122 0.23194,0.25211c0.38376,0.05567 0.89427,-1.22698 1.29084,-1.21619c0.71752,0.17315 0.31565,0.85332 0.96227,0.98337c0.29892,0.63943 1.88278,-1.12426 2.21943,-0.43604c0.73323,1.49896 0.1766,5.37588 0.1766,5.77509z" fill="#8194ff" stroke="none" stroke-width="0" stroke-linecap="butt"/><path d="M311.07043,194.15973c0.09896,-0.03707 0.20327,-0.0602 0.31076,-0.07072c0.37177,-0.05677 0.74185,0.03348 1.04048,0.23496c0.53728,0.28411 0.98143,0.78787 1.05095,1.3431c0.02898,0.23145 -0.00714,0.47183 -0.12874,0.70898c-0.62723,1.22319 -2.34235,1.69509 -2.84683,0.12875c-0.12786,-0.14597 -0.22869,-0.31988 -0.29196,-0.51635c-0.22075,-0.68541 0.08976,-1.41455 0.70322,-1.74223c0.04847,-0.0349 0.1022,-0.06405 0.16211,-0.08649z" fill="#252674" stroke="none" stroke-width="0.5" stroke-linecap="butt"/><path d="M309.20436,191.79158c0.19393,-0.84483 0.74199,-1.53473 1.69573,-1.93567c1.96447,-0.82584 3.45497,-0.04362 4.86212,2.0112c0.62799,0.91705 0.85179,1.88292 0.70996,2.7354" fill="none" stroke="#0e1068" stroke-width="2" stroke-linecap="butt"/><path d="M320.36323,171.16876l-2.89724,5.30552" fill="none" stroke="#252674" stroke-width="2.1" stroke-linecap="round"/><path d="M327.86448,172.98366l2.19748,-4.58606" fill="none" stroke="#252674" stroke-width="2.1" stroke-linecap="round"/><path d="M320.91757,168.9692c0,0 2.57552,0.66543 4.6246,2.05503c1.24149,0.84192 2.56615,2.76567 2.56615,2.76567" fill="#e66363" stroke="#630961" stroke-width="2" stroke-linecap="round"/><path d="M323.51993,163.89415c0,0 2.41067,0.1536 4.45976,1.5432c1.24149,0.84192 2.85681,2.56763 2.85681,2.56763" fill="none" stroke="#0e1068" stroke-width="2" stroke-linecap="round"/><path d="M320.91757,168.9692c0,0 2.57552,0.66543 4.6246,2.05503c1.24149,0.84192 2.56615,2.76567 2.56615,2.76567" fill="none" stroke="#0e1068" stroke-width="2" stroke-linecap="round"/><path d="M318.40569,192.11613l3.98892,-8.02561" fill="none" stroke="#252674" stroke-width="2.1" stroke-linecap="round"/><path d="M314.65549,194.47257c1.33961,1.95621 0.83995,4.13462 -1.12452,4.96045c-1.96447,0.82584 -3.89084,0.11872 -4.91812,-1.98766c-1.02729,-2.10638 -0.78395,-4.15817 1.18052,-4.984c1.96447,-0.82584 3.45497,-0.04361 4.86212,2.01121z" fill="none" stroke="#0e1068" stroke-width="2" stroke-linecap="butt"/><path d="M309.53677,198.7446c0,0 -2.53693,-2.94454 -1.07552,-5.07051c1.63638,-2.3805 4.14942,-1.17641 4.14942,-1.17641" fill="none" stroke="#252674" stroke-width="2.1" stroke-linecap="round"/><path d="M308.05903,194.58897c0,0 0.08263,-1.37296 0.65103,-2.41308c0.45608,-0.83458 1.49602,-1.89275 1.94044,-2.16239c1.51383,-0.91848 3.1462,-0.10475 3.1462,-0.10475" fill="none" stroke="#252674" stroke-width="2.1" stroke-linecap="round"/><path d="M304.45833,203.33336v-46.66667h31.08333v46.66667z" fill="none" stroke="none" stroke-width="NaN" stroke-linecap="butt"/></g></g></svg>