<svg version="1.1" xmlns="http://www.w3.org/2000/svg" xmlns:xlink="http://www.w3.org/1999/xlink" width="247.00658" height="177.69159" viewBox="0,0,247.00658,177.69159"><g transform="translate(-195.99794,-90.62574)"><g data-paper-data="{&quot;isPaintingLayer&quot;:true}" fill-rule="nonzero" stroke-linecap="butt" stroke-linejoin="miter" stroke-miterlimit="10" stroke-dasharray="" stroke-dashoffset="0" style="mix-blend-mode: normal"><g stroke="none" stroke-width="0.5"><g><path d="M320.48967,192.87563c-6.81691,4.24628 -13.67841,9.33456 -22.06124,11.02302c-3.97792,0.80122 -8.04945,2.03077 -12.1088,1.63309c-1.12181,-0.1099 -2.22393,-1.05339 -3.28298,-0.71686c-4.86305,1.54529 -12.91741,14.9556 -18.00687,17.83431c-6.4458,3.64589 -16.536,6.11382 -24.24863,5.9309c-8.05164,-0.19096 -24.30712,-9.3222 -27.51222,-13.95409c-1.74873,-2.52721 -3.18257,-5.23575 -4.25055,-8.02935c-0.8812,-2.30504 0.67403,-6.40423 -0.16955,-8.51992c-0.27202,-0.68222 -1.68401,-0.37609 -2.312,-0.8542c-2.6925,-2.04991 -9.3432,-10.88414 -9.90902,-13.78502c-1.23958,-6.35513 -0.61831,-13.81515 1.58817,-20.05561c7.77618,-21.99286 31.38244,-39.47473 51.10019,-53.03277c14.52087,-9.98463 24.00154,-14.58146 41.56369,-17.79116c4.75139,-0.86838 12.14436,-2.57402 17.27185,-1.68049c5.01474,0 9.77575,0.93404 14.06051,2.61081c3.30771,1.29442 6.33161,3.03146 8.96934,5.12312c2.10469,1.35377 4.12807,2.77129 5.63895,4.59055c0.35676,0.42957 0.36261,1.15758 0.42607,1.79202c0.0652,0.65183 0.1912,1.2049 0.82104,1.23407c3.26617,0.15132 7.87612,-1.65354 11.24446,-1.06945c2.82783,0.49036 5.4192,1.85609 8.28263,2.15717c2.88199,0.30303 6.63196,-1.86492 9.66322,-2.05408c7.23654,-0.45159 10.92373,-0.39441 17.42224,1.68475c3.07575,0.98406 7.1322,0.96735 9.10383,3.22301c3.68728,4.2185 7.16901,8.57006 10.56182,12.96744c1.81115,2.34741 0.84406,5.58831 1.14291,8.3935c0.31984,3.00218 1.02065,5.97317 1.22316,8.98288c0.18954,2.81693 -2.91966,5.057 -4.52833,7.5164c-6.59746,10.08646 -16.45227,11.66292 -27.22326,17.40614c-12.67995,6.7611 -23.0589,16.75233 -38.84582,15.49857z" fill="#791cff"/><path d="M433.30443,148.42045c0.33408,2.54603 -0.12538,5.08929 -0.71109,7.63057c-0.23645,2.0828 -0.69989,4.1084 -1.36877,6.05827c-0.2611,0.76114 -0.55351,1.51074 -0.87593,2.24771c7.84828,7.99772 13.32336,17.52082 12.59012,28.86853c-0.73455,11.36798 -9.1836,15.84777 -17.16691,22.32654c-15.83638,12.85187 -23.08311,29.41278 -44.90876,36.40425c-1.43437,0.45947 -3.03048,-0.48247 -4.56093,-0.45909c-3.70906,0.05665 -7.39612,0.88708 -11.09925,0.69827c-1.09527,-0.05585 -1.80415,-1.68341 -2.85415,-1.40972c-3.02343,0.78806 -8.83144,4.54566 -12.56478,6.19709c-7.67411,3.39461 -16.13887,4.98522 -24.76629,4.98522c-11.31854,0 -21.75792,-0.65298 -32.00036,-5.14073c-4.08599,-1.79029 -10.18329,0.80092 -13.7086,-1.41876c-5.59212,-3.52102 -11.02558,-7.22865 -16.38635,-11.00631c-2.81971,-1.98701 -2.9903,-5.71914 -4.36753,-8.62147c-1.49439,-3.14922 -3.35925,-6.16723 -4.73906,-9.35486c-1.27355,-2.94214 1.22005,-6.19275 2.00089,-9.25942c2.6742,-10.50272 10.06567,-15.00146 17.94636,-22.43784c1.47816,-1.39482 1.64945,-4.10822 2.68292,-5.78081c2.99507,-4.84727 7.9397,-9.36788 13.202,-12.48594c8.96237,-5.31047 18.08061,-10.42419 27.1695,-15.57325c8.45481,-4.78984 20.37937,-9.11369 27.44038,-12.76102c14.04351,-7.25411 25.50248,-27.24614 44.0013,-27.57156c2.092,-0.30615 4.24214,-0.4656 6.43559,-0.4656c3.27138,0 6.44641,0.35467 9.47591,1.02173c14.19341,2.42333 26.77102,9.30148 29.13379,27.30823z" fill="#ff871c"/></g><g fill="#450033"><path d="M320.39111,191.22232c-6.1371,3.82282 -12.31433,8.40367 -19.86119,9.92375c-3.58123,0.72132 -7.24672,1.82825 -10.90125,1.47023c-1.00994,-0.09894 -2.00215,-0.94834 -2.95559,-0.64538c-4.37808,1.39119 -11.62922,13.46416 -16.21113,16.05579c-5.80299,3.2823 -14.88695,5.50412 -21.83044,5.33944c-7.24869,-0.17192 -21.8831,-8.39254 -24.76857,-12.56252c-1.57434,-2.27518 -2.86519,-4.71362 -3.82666,-7.22863c-0.79333,-2.07517 0.60681,-5.76556 -0.15264,-7.67027c-0.24489,-0.61418 -1.51607,-0.33859 -2.08144,-0.76902c-2.42399,-1.84548 -8.41145,-9.79872 -8.92084,-12.4103c-1.11596,-5.72136 -0.55666,-12.43744 1.42979,-18.05557c7.0007,-19.79962 28.25283,-35.53813 46.00423,-47.74409c13.07278,-8.98892 21.60798,-13.12732 37.41875,-16.01694c4.27756,-0.78178 10.93327,-2.31733 15.54942,-1.51291c4.51465,0 8.80086,0.84089 12.65833,2.35045c2.97785,1.16534 5.70019,2.72915 8.07488,4.61222c1.8948,1.21877 3.7164,2.49492 5.07661,4.13275c0.32118,0.38673 0.32645,1.04214 0.38358,1.61331c0.0587,0.58682 0.17214,1.08473 0.73916,1.11101c2.94045,0.13623 7.09068,-1.48864 10.1231,-0.96279c2.54582,0.44147 4.87877,1.671 7.45665,1.94205c2.59459,0.27281 5.97059,-1.67895 8.69955,-1.84924c6.51488,-0.40655 9.83436,-0.35508 15.68482,1.51673c2.76902,0.88593 6.42094,0.87088 8.19594,2.9016c3.31957,3.79781 6.45409,7.7154 9.50855,11.67426c1.63053,2.11332 0.75988,5.03101 1.02893,7.55646c0.28794,2.70279 0.91887,5.3775 1.10118,8.08707c0.17064,2.53601 -2.6285,4.55269 -4.07675,6.76683c-5.93953,9.08059 -14.81157,10.49983 -24.50843,15.67031c-11.41545,6.08685 -20.75935,15.08171 -34.97193,13.95298z"/><path d="M421.95543,151.20043c0.30076,2.29213 -0.11288,4.58176 -0.64018,6.86961c-0.21287,1.87509 -0.63009,3.69869 -1.23227,5.45411c-0.23506,0.68523 -0.49831,1.36009 -0.78858,2.02355c7.06562,7.20015 11.99469,15.77356 11.33457,25.98962c-0.6613,10.23431 -8.26777,14.26734 -15.45494,20.10003c-14.2571,11.57021 -20.78116,26.47959 -40.43024,32.77384c-1.29133,0.41366 -2.72826,-0.43435 -4.10609,-0.41331c-3.33917,0.051 -6.65854,0.79862 -9.99238,0.62863c-0.98605,-0.05028 -1.62423,-1.51553 -2.56952,-1.26914c-2.72191,0.70947 -7.95074,4.09234 -11.31176,5.57908c-6.90881,3.05609 -14.52942,4.48807 -22.29648,4.48807c-10.1898,0 -19.58811,-0.58786 -28.80913,-4.62807c-3.67851,-1.61175 -9.16776,0.72105 -12.34151,-1.27727c-5.03445,-3.16989 -9.92606,-6.50777 -14.75223,-9.90871c-2.53852,-1.78885 -2.69209,-5.1488 -3.93198,-7.76169c-1.34536,-2.83516 -3.02425,-5.55221 -4.26646,-8.42195c-1.14654,-2.64874 1.09839,-5.57519 1.80135,-8.33603c2.40752,-9.45534 9.06187,-13.50544 16.15667,-20.20023c1.33075,-1.25572 1.48496,-3.69853 2.41537,-5.20432c2.69639,-4.36387 7.14791,-8.43366 11.88543,-11.24078c8.06861,-4.78088 16.27752,-9.38464 24.46003,-14.02021c7.61165,-4.31217 18.34705,-8.20483 24.7039,-11.48843c12.64302,-6.53069 22.95925,-24.52903 39.61327,-24.822c1.88338,-0.27562 3.8191,-0.41916 5.79381,-0.41916c2.94514,0 5.80354,0.3193 8.53093,0.91983c12.77797,2.18166 24.10129,8.37389 26.22843,24.58492z"/></g></g><path d="M340.03991,184.10956c-1.87238,1.96782 -3.84021,0.09544 -3.84021,0.09544l-0.3009,-0.324c-0.45351,-0.4157 -0.90237,-0.8365 -1.3605,-1.24707c-0.14669,-0.13144 -0.49821,-0.57054 -0.45363,-0.37867c0.58963,2.53739 1.88016,5.21112 2.6946,7.69953c0,0 0.84492,2.58151 -1.73661,3.42643c-2.58152,0.84492 -3.42644,-1.7366 -3.42644,-1.7366c-0.18797,-0.57428 -0.40415,-1.19003 -0.62896,-1.83178c-2.29696,3.75426 -7.54482,5.84886 -11.57248,2.89547c-1.76002,-1.29058 -2.61805,-3.97951 -2.68465,-6.77328c-2.07047,0.29953 -4.12249,0.66641 -6.17765,1.01363c0.18285,1.56405 0.06588,3.15254 0.10969,4.72794c0,0 0.06749,2.71543 -2.64794,2.78293c-2.71543,0.06749 -2.78292,-2.64794 -2.78292,-2.64794c-0.02623,-1.21909 -0.22391,-2.57872 -0.48059,-4.01036c-0.05968,0.00672 -0.11937,0.01335 -0.1791,0.0199c0,0 -2.70045,0.29277 -2.9932,-2.4077c-0.24129,-2.22565 1.55063,-2.81583 2.18819,-2.95458c-0.80315,-5.11167 -0.73306,-10.10609 4.60787,-12.30193c1.14299,-0.46992 2.46773,-0.13906 3.70159,-0.20858l1.81227,0.53374c0,0 2.45894,1.15401 1.30492,3.61295c-1.15401,2.45893 -3.61296,1.30493 -3.61296,1.30493l0.63075,-0.02077c-4.11617,-0.12261 -3.847,3.0132 -2.99383,6.29737c2.79017,-0.46499 5.57077,-0.98922 8.39344,-1.34252l0.09827,0.03964c0.44903,-1.05441 1.04686,-1.9427 1.78296,-2.5419c1.30872,-1.06535 3.35104,-0.40152 5.02655,-0.60229c0,0 2.09954,-0.05218 2.65221,1.78137l0.36042,0.05978c0.68095,0.4803 1.29839,0.86561 1.84476,1.22022c0.60199,-1.9118 2.37624,-3.15453 6.27884,-2.97352c1.33584,0.06196 2.2631,1.42532 3.39464,2.13798l0.89514,0.81404c0,0 1.96782,1.87239 0.09544,3.8402zM322.61349,182.29798c-0.6053,0.77875 -0.63953,5.49632 0.07995,6.0787c1.76804,1.43113 5.43795,-1.97953 3.82453,-3.7764c-0.46911,-0.52246 -1.25808,-0.624 -1.88711,-0.93602l0.64232,0.44037c0,0 -2.11879,0.05266 -2.6597,-1.80667z" fill="#ffe6fd" stroke="none" stroke-width="0.5"/><text transform="translate(205.40625,264.95597) scale(0.24899,0.24899)" font-size="40" xml:space="preserve" fill="#ffffff" fill-rule="nonzero" stroke="none" stroke-width="1" stroke-linecap="butt" stroke-linejoin="miter" stroke-miterlimit="10" stroke-dasharray="" stroke-dashoffset="0" font-family="&quot;Neon&quot;, Sans Serif" font-weight="normal" text-anchor="start" style="mix-blend-mode: normal"><tspan x="0" dy="0">wow!</tspan></text><g fill="#ffe6fd" stroke="none" stroke-width="0.5"><path d="M221.232,180.66047c-0.64271,-7.36023 -1.05206,-14.70833 -2.32974,-22.00989c-2.05872,-11.76479 -4.93619,-23.31829 -6.81722,-35.1369c0,0 -0.42695,-2.68251 2.25556,-3.10946c2.68251,-0.42695 3.10947,2.25556 3.10947,2.25556c1.87514,11.78163 4.74289,23.29625 6.79809,35.02429c1.45099,8.28013 1.84294,16.61948 2.60343,24.97199l-0.09735,0.20927l0.09164,0.00608l-0.20092,3.03102c-0.09922,1.49687 -1.39311,2.62989 -2.88998,2.53066c-1.23682,-0.08199 -2.22523,-0.97959 -2.47536,-2.1334l-0.73181,-3.03379l0.84089,-0.20283l0.03652,-0.551l1.76313,0.11688l2.64054,-0.63695l0.19904,0.82517l0.7263,0.04815l-2.5883,5.56385l-3.61811,-5.16327c0,0 -0.38491,-1.59574 0.68419,-2.60544z"/><path d="M228.07151,178.27956c2.22821,-1.03043 3.37387,0.88424 3.57371,1.26222c5.2495,-2.00687 10.20358,-5.42469 12.8349,-10.61617c1.91412,-3.77648 2.73731,-10.40282 0.70883,-14.42135c-0.68883,-1.36462 -4.1675,-4.05082 -5.14188,-4.82695c-0.64724,-0.51555 -1.18595,-1.2715 -1.98318,-1.49308c-2.16195,-0.60088 -4.56027,-0.52528 -6.93959,-0.11275c-2.25321,1.75092 -4.19003,2.41173 -8.11094,2.44319l-0.62134,-0.03672c-0.57848,0.01002 -1.30248,-0.13167 -1.87289,-0.74296c-0.38407,-0.34444 -0.69808,-0.84848 -0.76812,-1.58508c-0.1405,-0.72647 0.01865,-1.29858 0.29001,-1.73735c0.37337,-0.74429 1.02425,-1.08466 1.5806,-1.23903c2.21926,-0.80782 4.65396,-1.59157 7.15411,-2.12587c0.40058,-0.39276 0.86067,-0.85515 1.42726,-1.39761c2.30739,-2.20915 6.00115,-4.17144 6.64665,-7.62732c1.23917,-6.63426 -4.80766,-13.21227 -11.27626,-14.15769c-3.31823,-0.48497 -6.44366,2.61922 -8.58725,4.5326c0,0 -2.04353,1.78945 -3.83298,-0.25407c-1.78945,-2.04352 0.25408,-3.83298 0.25408,-3.83298c3.43126,-2.95791 7.66814,-6.44024 12.65067,-5.85645c9.59841,1.12462 18.15668,11.077 16.09125,20.76357c-0.65655,3.0791 -2.60606,5.29367 -4.78532,7.30973c0.8457,0.11303 1.67885,0.28622 2.49331,0.52877c1.32987,0.39605 2.36155,1.4641 3.47395,2.29354c1.88401,1.4048 5.58044,4.46876 6.65788,6.61039c2.88181,5.72814 1.9799,14.04951 -0.72879,19.54696c-3.53932,7.18329 -10.96601,11.747 -18.25302,13.99379l-4.26089,-3.61576c0,0 -1.14012,-2.46542 1.32529,-3.60553zM229.71727,180.21304l-0.30411,0.09438c0.10138,-0.03095 0.20275,-0.06243 0.30411,-0.09438z"/><path d="M255.96702,158.30866c-0.29266,0.59898 -0.71788,0.97135 -0.71788,0.97135c-2.36571,1.91931 -3.79141,3.37916 -2.8902,6.76672c0.93597,3.51825 9.96661,6.20727 12.30296,3.65246c2.87962,-3.14891 3.07281,-10.3374 -1.58517,-12.08437c-2.33294,-0.87497 -4.79377,-0.21728 -7.1097,0.69385zM246.92597,160.12405c-0.00159,-0.00205 -0.00316,-0.00413 -0.00474,-0.0062c-1.64956,-2.15803 0.50849,-3.80759 0.50849,-3.80759l2.2696,-1.59961c4.57376,-1.7763 9.64841,-4.26594 14.67768,-2.19948c7.91848,3.25359 9.46413,15.1883 3.45368,20.97627c-5.49239,5.28909 -18.97466,1.66568 -21.31884,-5.8065c-0.9448,-3.01158 -0.64985,-5.42719 0.41415,-7.55689z"/><path d="M278.26481,172.31845l-3.84538,1.96051c-3.91261,-16.22032 -7.60377,-32.34941 -10.14053,-48.84194c0,0 -0.41258,-2.68476 2.27218,-3.09733c2.68475,-0.41258 3.09734,2.27218 3.09734,2.27218c2.27616,14.82499 5.50472,29.35211 8.97882,43.92013c1.77828,0.74926 1.48862,2.84273 1.48862,2.84273l-0.7197,0.36691c0.1013,0.42108 0.20274,0.84221 0.30434,1.26341z"/><path d="M271.84858,142.62003c-0.15789,-2.71167 2.55376,-2.86959 2.55376,-2.86959l0.71332,0.08655c2.81881,-1.079 5.80157,-1.43402 7.0338,-4.55746c1.82624,-4.62905 -1.08963,-10.90684 -4.7539,-13.50184c-0.35091,-0.2485 -3.33449,-2.01516 -4.05375,-1.8294c-0.47766,0.12337 -0.39539,0.91017 -0.6722,1.31852c-0.93711,1.38244 -1.59718,2.98651 -1.93274,4.62257c0,0 -0.60017,2.64914 -3.24931,2.04897c-2.64914,-0.60016 -2.04898,-3.24931 -2.04898,-3.24931c0.33225,-1.37159 0.42822,-2.82308 0.99676,-4.11474c2.81063,-6.38556 8.59011,-7.17584 14.03671,-3.27409c6.63095,4.75019 11.27832,17.78654 3.86633,24.3142c-1.18673,1.04513 -5.37635,2.5645 -7.2774,3.2949l-2.34283,0.26452c0,0 -2.71167,0.15789 -2.86958,-2.55378z"/><path d="M290.28039,124.03499c-2.64366,0.62391 -3.26757,-2.01973 -3.26757,-2.01973l-0.40767,-1.7553c-0.29393,-1.78683 -0.5879,-3.57367 -0.88182,-5.36051c0,0 -0.4409,-2.68025 2.23934,-3.12116c2.68026,-0.4409 3.12117,2.23934 3.12117,2.23934c0.29393,1.78683 0.58788,3.57366 0.88181,5.3605l0.33447,1.3893c0,0 0.62392,2.64365 -2.01972,3.26755z"/><path d="M294.37362,159.58012c1.6529,-2.15547 3.80837,-0.50257 3.80837,-0.50257l-0.5756,0.74559c2.18032,-0.37307 4.05658,-1.8996 5.73179,-3.34413c1.51623,-1.30742 4.51868,-2.86184 5.28961,-4.8857c0.78099,-2.05029 -0.51759,-5.60412 -1.99535,-7.10298c-4.29488,-4.35625 -13.62862,-5.02683 -15.36503,-11.65071c-1.62135,-6.185 3.12221,-15.64858 9.59737,-17.09814c2.04221,-0.45718 4.18131,0.18728 6.27196,0.28092c0,0 2.71032,0.17966 2.53066,2.88998c-0.17966,2.71032 -2.88998,2.53066 -2.88998,2.53066c-1.52312,-0.1459 -3.05708,-0.67056 -4.56934,-0.43771c-3.79534,0.5844 -6.23679,7.14861 -5.69305,10.42898c0.36315,2.19088 6.23974,4.07827 7.57276,4.80741c5.93108,3.2442 12.53537,9.31328 9.66032,17.16673c-1.40522,3.8385 -4.20664,4.96902 -6.93059,7.2427c-1.35293,1.12929 -2.39932,2.67034 -3.94086,3.52435c-1.24691,0.69079 -2.77713,0.64448 -4.16569,0.96671l-3.8348,-1.7537c0,0 -2.15546,-1.6529 -0.50256,-3.80838z"/></g><g fill="#ffe6fd" stroke="none" stroke-width="0.5"><path d="M351.59793,121.58507c-1.06652,-0.04032 -2.19627,-0.02317 -3.45492,0.03704c-1.68174,0.08045 -3.50785,-0.34722 -4.8551,0.9737c-5.44001,5.33371 -7.36256,12.49214 -8.89129,19.71216c-0.7252,3.42502 -1.62227,7.32568 -0.99505,10.8322c0.75694,4.23179 4.66721,6.81081 7.95811,8.8167c7.34566,1.48194 12.65341,-0.22303 18.97917,-3.841c2.38436,-1.36372 6.57783,-3.77576 7.90719,-6.41173c1.92681,-3.82058 1.16427,-13.01862 -0.55072,-16.73887c-1.96517,-4.26293 -8.99245,-7.05496 -12.78423,-9.07999l-2.01187,-1.10133c0,0 -2.0582,-1.12687 -1.30129,-3.19887zM361.86699,123.3885c4.24232,2.26381 8.75309,5.06755 10.65785,9.08915c2.30885,4.87477 1.55183,5.30044 1.65393,9.56866c0.09846,4.11532 0.82528,8.29638 -1.13041,12.19758c-1.80969,3.60992 -6.66749,6.65952 -9.99613,8.57839c-0.92291,0.53205 -8.57864,4.42009 -9.31846,4.62352c-4.44421,1.22203 -9.97989,0.51721 -14.38214,-0.44111c-4.92033,-3.01387 -10.01275,-6.45936 -11.25034,-12.67294c-0.8524,-4.2797 0.09325,-8.9551 0.98051,-13.14865c1.73965,-8.22231 4.1409,-17.07021 10.79094,-22.81211c2.74399,-2.36927 4.54625,-1.94773 7.95708,-2.17238c5.23944,-0.34507 9.03788,0.25363 13.96321,2.06875c0,0 2.54716,0.94347 1.60369,3.49063c-0.35595,0.96098 -0.94017,1.42511 -1.52975,1.63052z"/><path d="M374.56123,169.75704c-1.98299,1.85632 -3.8393,-0.12669 -3.8393,-0.12669l-1.01621,-1.12124c-5.67924,-4.64887 -11.29743,-9.73336 -15.38428,-15.86839c0,0 -1.50163,-2.26345 0.76183,-3.76508c2.26346,-1.50163 3.7651,0.76183 3.7651,0.76183c3.74745,5.67475 9.0371,10.39229 14.29131,14.66207l1.54823,1.6182c0,0 1.85632,1.98299 -0.12667,3.8393z"/><path d="M402.40551,163.76208c-0.92429,2.55419 -3.47847,1.62988 -3.47847,1.62988l-2.60283,-1.1485c-1.63592,-1.46408 -4.50136,-3.73442 -5.33132,-5.82783c-0.40655,-1.02544 -0.66307,-2.20976 -0.79181,-3.47112c-0.04388,0.05892 -0.08819,0.11756 -0.13289,0.17592c-3.24917,4.24158 -5.23824,7.4179 -10.26993,2.32719c-3.21542,-3.25315 -2.28062,-12.30786 -2.20515,-16.39281c0,0 0.05187,-2.71579 2.76764,-2.66392c2.71578,0.05187 2.66391,2.76764 2.66391,2.76764c-0.04926,2.49367 0.06182,4.98949 0.1993,7.47987c0.05129,0.92897 0.01472,1.86577 0.14058,2.78759c0.11643,0.85287 0.33743,1.69067 0.58341,2.51555c0.06655,0.2232 0.19297,0.78043 0.34747,0.60618c2.80304,-3.16132 4.41968,-8.58261 4.37846,-12.84095c-0.3988,-0.71701 -0.66546,-1.83509 0.399,-3.03002c1.80678,-2.02822 3.835,-0.22144 3.835,-0.22144l0.88137,1.59562c1.31763,-2.13833 3.11111,-4.1098 5.55172,-4.20638c5.13326,-0.20316 6.06168,5.06872 5.72942,8.35886c-0.34705,3.43659 -1.97425,8.04848 -5.46023,9.71212c-1.08636,0.51846 -2.36256,-0.0961 -3.58213,-0.3726c0.00432,0.12519 0.00873,0.24894 0.01312,0.37109c0.03025,0.84168 -0.2753,1.73514 0.01253,2.52666c0.24157,0.66434 3.78496,3.65855 3.88407,3.74638l0.83784,0.09659c0,0 2.55419,0.92428 1.62989,3.47848zM396.16324,148.08275c0.25937,0.01108 0.42653,0.04647 0.42653,0.04647c2.50327,1.36683 2.68947,-2.55211 3.077,-4.48548c0.15562,-0.77643 0.44494,-2.84996 -0.18379,-2.36853c-2.1234,1.62595 -2.992,4.17316 -3.31974,6.80755z"/><path d="M401.73024,166.53279c1.80678,-2.02821 3.835,-0.22144 3.835,-0.22144l-0.17482,-0.06911c2.07761,1.44797 3.81793,1.78884 6.14303,-0.36669c0.27342,-0.25348 -0.28748,-0.68805 -0.43083,-1.03225c-0.30237,-0.72606 -0.62874,-1.44261 -0.90629,-2.17849c-0.50229,-1.33163 -0.67505,-2.81727 -1.43258,-4.02213c-1.9645,-3.12453 -6.09585,-3.81659 -7.43896,-7.7617c-1.43183,-4.20566 1.2507,-9.28584 5.49982,-10.73276c2.6705,-0.90936 6.93117,-0.31954 9.71775,-0.08872c0,0 2.70664,0.2285 2.47815,2.93515c-0.2285,2.70664 -2.93514,2.47814 -2.93514,2.47814c-1.30676,-0.11261 -2.60965,-0.28747 -3.92028,-0.33781c-1.1088,-0.04259 -2.26329,-0.25197 -3.32832,0.05941c-0.59882,0.17507 -0.88407,0.88093 -1.34102,1.30571c-3.70207,3.44149 4.06591,6.46425 5.74608,9.06698c1.57184,2.43491 2.77537,5.22638 3.16411,8.09836c0.76701,5.66672 0.07148,5.45671 -5.26234,8.22305c-1.22404,0.63484 -2.55913,1.43794 -3.93012,1.29065c-1.65037,-0.17731 -2.98041,-1.46211 -4.47061,-2.19317l-0.79119,-0.61819c0,0 -2.02822,-1.80678 -0.22144,-3.835z"/><path d="M427.59791,170.3816c2.71386,-0.11428 2.82815,2.59959 2.82815,2.59959l0.1188,2.87821c-0.45619,2.54681 0.51926,5.87115 -1.36861,7.64041c-1.47046,1.37807 -4.0778,-0.13199 -6.00119,-0.73359c-4.25018,-1.32937 -7.57037,-7.56494 -8.53244,-11.54751c-2.8374,-11.74584 1.353,-26.54557 6.74524,-36.86908c0,0 1.26092,-2.40587 3.6668,-1.14496c2.40587,1.26092 1.14495,3.66679 1.14495,3.66679c-4.41514,8.3935 -7.14276,18.57322 -6.66789,28.11703c0.2168,4.3573 -0.11849,4.66271 1.86293,8.16382c0.71247,1.25893 1.46088,2.51743 2.41061,3.60854c0.43718,0.50225 1.21522,0.60616 1.67616,1.08669c0.30969,0.32287 0.62505,1.66706 0.54339,1.22719c-0.20338,-1.09531 -0.60832,-2.1434 -0.9125,-3.2151l-0.114,-2.64991c0,0 -0.11427,-2.71388 2.59959,-2.82816z"/><path d="M439.27156,151.06793c-1.30444,2.38255 -3.687,1.07811 -3.687,1.07811l-2.49784,-1.36947c-8.00074,-5.13829 -17.08086,-9.01971 -24.53168,-14.88356c0,0 -2.13083,-1.68456 -0.44626,-3.81539c1.68456,-2.13083 3.81538,-0.44626 3.81538,-0.44626c7.21554,5.73351 16.15677,9.47286 23.93706,14.47458l2.33223,1.27498c0,0 2.38255,1.30445 1.07809,3.687z"/></g><path d="M224.64506,218.44288c-0.14315,0.72717 -0.64989,2.01418 -2.44364,2.01418c-2.5,0 -2.5,-2.5 -2.5,-2.5l0.38001,-1.62553c3.85738,-6.07817 4.4327,-14.19768 4.42854,-21.21503c0,0 0,-2.5 2.5,-2.5c2.5,0 2.5,2.5 2.5,2.5c-0.00444,7.85604 -0.82464,16.41723 -4.8649,23.32638z" fill="#ffe6fd" stroke="#ffe6fd" stroke-width="1"/><path d="M245.69013,207.51318c0.228,-0.72803 0.82001,-1.6732 2.35719,-1.6732c2.5,0 2.5,2.5 2.5,2.5l-1.0469,2.63541c-1.68372,1.17426 -3.5161,2.02695 -5.43738,2.61222c-0.55545,3.9751 -1.45606,7.92902 -2.28669,11.80556l0.0555,1.57991c0,0 0,2.5 -2.5,2.5c-2.5,0 -2.5,-2.5 -2.5,-2.5l0.05549,-2.62756c0.68228,-3.18373 1.46715,-6.4794 2.02621,-9.80416c-4.65254,0.37331 -9.50027,-0.41152 -13.82409,-1.70307c0,0 -2.39456,-0.71837 -1.6762,-3.11294c0.71837,-2.39456 3.11294,-1.6762 3.11294,-1.6762c3.88175,1.17002 8.6466,2.02206 13.01638,1.48203c0.22919,-3.05293 0.13082,-6.09543 -0.54746,-9.06382c0,0 -0.54233,-2.44047 1.89814,-2.9828c2.44047,-0.54233 2.98279,1.89814 2.98279,1.89814c0.62851,2.89529 0.80484,5.81524 0.69299,8.73765c0.3832,-0.18385 0.75732,-0.38589 1.12109,-0.60718z" fill="#ffe6fd" stroke="#ffe6fd" stroke-width="1"/><path d="M259.40887,218.89486c-1.67485,0.36953 -3.3719,0.64681 -5.07616,0.84722c-0.68367,1.95658 -1.41507,3.88388 -2.16098,5.75521c0,0 -0.92848,2.32119 -3.24967,1.39272c-2.32119,-0.92847 -1.39272,-3.24967 -1.39272,-3.24967c2.44878,-6.09863 3.68626,-12.45551 5.56093,-18.68923c0.46604,-1.54967 0.10054,-4.13441 1.66138,-4.56155c5.51722,-1.50985 6.47724,3.43667 7.66222,6.48327c2.27229,5.84211 2.52614,12.38289 4.53453,18.40809l0.1649,0.2736c0,0 1.11803,2.23607 -1.11804,3.3541c-2.23607,1.11803 -3.3541,-1.11803 -3.3541,-1.11803l-0.43617,-0.92854c-0.90308,-2.70926 -1.4957,-5.38563 -2.02689,-8.07408zM258.32422,214.01393l0.90145,-0.1317c-0.20741,-1.02913 -0.42762,-2.06388 -0.6741,-3.10671c-0.21786,-0.92169 -0.60038,-1.79728 -0.95126,-2.68112c-0.07252,0.2449 -0.13988,0.49001 -0.18924,0.73587c-0.37477,1.86661 -0.84674,3.75085 -1.38781,5.63016c0.77121,-0.12766 1.53884,-0.27579 2.30097,-0.44651z" fill="#ffe6fd" stroke="#ffe6fd" stroke-width="1"/><path d="M290.16206,227.95879c-1.28624,2.14373 -3.42998,0.85749 -3.42998,0.85749l-2.33642,-1.72034c-1.18208,-1.89176 -2.02791,-4.00936 -3.4207,-5.75183c-0.65778,-0.82292 -4.08784,-3.2253 -4.60183,-4.32954c-0.23814,-0.51162 -0.5458,-1.06468 -0.8265,-1.63053c0.33702,3.81687 0.56883,7.51267 2.38587,11.07207c0,0 1.11804,2.23607 -1.11803,3.35411c-2.23607,1.11803 -3.35411,-1.11803 -3.35411,-1.11803c-2.58866,-5.26608 -2.43072,-10.41187 -3.24489,-16.09699c-0.29326,-2.04778 -1.11644,-5.05062 -0.92086,-7.11991c0.35541,-3.7603 1.04233,-4.94924 4.67917,-6.40891c4.69286,-1.8835 13.98782,1.41898 15.53202,6.73404c1.19696,4.11984 -2.21727,8.08962 -5.77552,9.40892c-0.39628,0.14693 -0.80956,0.22476 -1.23038,0.27199c0.86448,0.80738 1.61354,1.78317 2.34362,2.69511c1.52641,1.90664 2.49744,4.19852 3.79212,6.26952l0.66891,0.08286c0,0 2.14374,1.28625 0.8575,3.42998zM275.13917,211.72829c0.91384,-1.33991 3.30365,-0.69173 4.92703,-1.07593c0.67401,-0.05523 1.37778,0.03996 2.02201,-0.16569c6.53054,-2.08474 -1.48994,-6.87214 -4.56357,-6.85961c-0.50338,0.00205 -2.60729,0.0152 -3.09276,0.74661c-1.00213,1.50982 0.41231,5.69756 0.70729,7.35463z" fill="#ffe6fd" stroke="#ffe6fd" stroke-width="1"/><path d="M345.00778,227.57899c1.33917,-1.66693 1.99811,-1.96286 1.923,-4.03046c-0.2487,-6.8458 -6.37745,-19.71139 -14.90328,-16.0773c-0.75764,0.32295 -1.99869,2.12744 -2.61642,3.0385c3.24831,7.79234 4.97092,15.89232 6.38274,24.27304c4.39317,-1.20451 6.40183,-3.70335 9.21396,-7.20377zM329.90564,202.94379c11.86958,-5.65595 22.21154,10.23694 22.02513,20.61426c-0.13137,7.31307 -8.42794,14.24912 -14.86344,16.05994l-2.65065,0.12177l-1.08531,1.10142c0,0 -2.46847,0.39575 -2.86423,-2.07272c-0.16026,-0.99964 0.14919,-1.65936 0.5742,-2.09054c-1.66375,-10.11265 -3.67239,-19.81665 -8.47548,-29.01855c0,0 -1.15605,-2.21666 1.06061,-3.3727c2.21666,-1.15605 3.3727,1.06061 3.3727,1.06061c0.00218,0.00419 0.00435,0.00836 0.00653,0.01255c0.79591,-0.97481 1.70373,-1.84602 2.89994,-2.41603z" fill="#ffe6fd" stroke="#ffe6fd" stroke-width="1"/><path d="M380.61717,223.20324c-0.60863,2.42479 -3.03341,1.81616 -3.03341,1.81616l-2.584,-0.67898c-4.17601,-1.78916 -7.88244,-4.55491 -11.14438,-7.73397l-0.11199,0.18278l-0.97964,-0.60017c0.70475,2.2431 1.35078,4.55308 2.16549,6.86152l0.17805,2.91305c0,0 0.04268,2.49964 -2.45695,2.54232c-2.49964,0.04268 -2.54232,-2.45696 -2.54232,-2.45696l0.10548,-1.33652c-1.35224,-3.84242 -2.09741,-8.10703 -3.81544,-11.78395c-0.36509,0.23559 -0.85169,0.38546 -1.50015,0.36053c-2.49815,-0.09604 -2.40211,-2.5942 -2.40211,-2.5942c0.04316,-1.00916 -0.05522,-2.09712 -0.16835,-3.20643c-0.02776,-0.02275 -0.05568,-0.04542 -0.08371,-0.06801c0,0 -1.92334,-1.59712 -0.32623,-3.52045c0.05066,-0.061 0.10163,-0.11846 0.15287,-0.17254c0.01275,-0.8893 0.11201,-1.74929 0.36774,-2.54826c0.35384,-1.10548 1.20893,-1.99332 1.96062,-2.87776c5.40243,-6.35655 13.91634,-2.93041 17.63355,3.38041c2.1211,3.60105 2.89137,7.11025 -0.03704,10.50967c-1.01975,1.18377 -1.9584,1.75662 -3.00624,2.14729c0.22397,0.20283 0.44987,0.4005 0.68372,0.57985c2.53597,1.94494 4.32491,3.59269 7.27238,4.81579l1.85587,0.43544c0,0 2.42478,0.60862 1.81615,3.0334zM362.29098,210.74155l2.57485,-0.41281c1.05352,-0.26909 4.15159,-0.9401 4.27029,-2.55094c0.37259,-5.05661 -9.81453,-12.08839 -11.97171,-4.96695c-0.18904,0.62407 -0.23184,1.38773 -0.20005,2.21134c1.80535,1.91555 3.05934,4.05443 4.04865,6.33039c0.34605,-0.31241 0.78336,-0.53173 1.27797,-0.61103z" fill="#ffe6fd" stroke="#ffe6fd" stroke-width="1"/><path d="M391.00022,194.26831c2.46848,-0.39576 2.86423,2.07272 2.86423,2.07272l0.14272,0.89023c0.99034,6.17712 2.37432,12.15515 -0.49201,18.10551c-0.65351,1.35665 -0.93056,3.20881 -2.26339,3.90965c-1.74853,0.91942 -6.59522,-0.80336 -7.85682,-2.19858c-0.85685,-0.9476 -0.95814,-2.36979 -1.49542,-3.52886c-2.15343,-4.64556 -2.97237,-9.55412 -4.76385,-14.30377c0,0 -0.87217,-2.34293 1.47075,-3.2151c2.34292,-0.87217 3.2151,1.47075 3.2151,1.47075c1.7172,4.66528 2.74425,9.4158 4.64641,14.01597c0.29387,0.71069 0.19587,1.59005 0.64306,2.21572c0.26144,0.36578 0.8865,0.22146 1.26844,0.45867c0.24191,0.15025 0.36894,0.89237 0.53826,0.66341c0.26067,-0.3525 -0.15563,-0.8868 -0.05713,-1.31401c0.3753,-1.62787 1.22203,-3.14931 1.41018,-4.80926c0.40116,-3.53912 -0.64228,-7.1965 -1.20054,-10.67861l-0.14272,-0.89023c0,0 -0.39575,-2.46847 2.07272,-2.86423z" fill="#ffe6fd" stroke="#ffe6fd" stroke-width="1"/><path d="M412.76663,203.21389c-1.18099,0.55595 -2.75414,0.87714 -3.88621,1.10349c-0.30903,0.28005 -0.74257,0.50233 -1.34895,0.59955c-2.46848,0.39576 -2.86423,-2.07272 -2.86423,-2.07272l1.75497,-3.10217c2.0396,-0.56169 9.15416,-3.74497 10.58661,-2.93114c1.51016,0.85799 1.16965,3.31023 1.32047,5.04055c0.45627,5.23479 -5.50563,12.42013 -10.89576,12.13059c-1.15921,-0.06226 -2.14481,-0.89247 -3.18862,-1.40052c-9.44636,-4.59776 -4.67524,-16.47021 -0.97525,-23.51165c0,0 1.16448,-2.21223 3.37671,-1.04775c2.21224,1.16449 1.04775,3.37671 1.04775,3.37671c-2.17354,4.12141 -4.03608,7.96728 -3.85511,12.74076c0.02447,0.6454 0.2192,2.64415 0.92071,3.23556c2.96069,2.49599 5.43142,1.19213 7.33452,-1.8941c0.41294,-0.66968 0.52369,-1.47709 0.67239,-2.26716z" fill="#ffe6fd" stroke="#ffe6fd" stroke-width="1"/><path d="M418.98197,210.06635c0.74996,-2.38486 3.13483,-1.6349 3.13483,-1.6349l0.13641,0.31957c0.74554,-0.10599 1.52246,-0.07911 2.23661,-0.31795c0.61225,-0.20476 1.12216,-0.63974 1.66621,-0.98728c0.58318,-0.37253 1.26967,-0.64103 1.71372,-1.17179c1.94058,-2.31952 -4.7306,-4.05336 -5.45504,-4.7605c-1.93928,-1.893 -3.91526,-8.45081 -2.30829,-10.95794c2.05225,-3.20182 5.16197,-2.50722 8.10797,-2.50358c0,0 2.49945,0.0522 2.44725,2.55166c-0.05221,2.49946 -2.55166,2.44725 -2.55166,2.44725c-0.91246,-0.04513 -1.82381,-0.13364 -2.73739,-0.13541c-0.3127,-0.00061 -0.82415,-0.16619 -0.92927,0.12831c-0.24838,0.69578 0.73456,4.28785 1.44773,4.87596c1.39792,1.15278 3.55829,1.17833 4.85589,2.44297c1.0306,1.00442 2.17412,2.16853 2.39791,3.59013c0.97283,6.17983 -5.36407,8.91385 -10.10013,9.73512l-2.42784,-0.4868c0,0 -2.38486,-0.74997 -1.6349,-3.13483z" fill="#ffe6fd" stroke="#ffe6fd" stroke-width="1"/><path d="M298.09822,229.81748c0.16121,-0.00019 5.24964,-0.00892 5.72386,-0.00072c0.60391,0.01045 1.29491,0.38741 1.81053,0.07284c1.33848,-0.81661 1.37189,-2.83533 2.27531,-4.11682c1.3415,-1.90292 3.81399,-4.1379 4.07405,-6.6703c0.22499,-2.1909 -0.4952,-2.80942 -1.32261,-4.75037c-2.45294,-5.75416 -5.57494,-11.54455 -12.14889,-10.02085c-0.20758,3.06625 -0.622,6.0993 -0.78316,9.18701c-0.29221,5.59832 -0.53447,11.03698 -1.64376,16.52033c0.67156,-0.07371 1.34312,-0.14741 2.01468,-0.22113zM293.49138,203.43862c-0.35299,-0.9413 -0.18551,-1.64603 0.14093,-2.15223c0.00038,-0.07604 0.00052,-0.15212 0.00043,-0.22824c0,0 0,-2.5 2.5,-2.5c0.97332,0 1.5677,0.37894 1.93067,0.84176c5.85679,-0.97107 11.07893,1.4819 14.60169,6.92401c0.62615,0.9673 2.14669,4.99352 2.6008,6.08404c1.24255,2.98396 2.03623,3.68174 1.68273,7.27098c-0.35558,3.61032 -2.98273,6.18563 -4.94196,8.95746c-0.73564,1.04075 -2.93362,5.02234 -3.73537,5.50026c-2.29836,1.37005 -7.26372,0.6767 -9.89657,0.67318c-0.85566,0.09635 -1.71132,0.19272 -2.56698,0.28907l-2.08456,-0.35989c0,0 -0.23265,-0.05816 -0.53583,-0.21052c-0.17142,-0.00439 -0.3546,-0.02479 -0.55025,-0.06392c-2.45145,-0.49029 -1.96116,-2.94174 -1.96116,-2.94174l0.31151,-1.5547c1.23474,-5.555 1.44676,-11.05761 1.7475,-16.72635c0.17181,-3.23857 0.63814,-6.41863 0.8219,-9.64057c-0.02263,-0.05239 -0.04448,-0.10657 -0.06549,-0.16259z" fill="#ffe6fd" stroke="#ffe6fd" stroke-width="1"/></g></g></svg>