<svg version="1.1" xmlns="http://www.w3.org/2000/svg" xmlns:xlink="http://www.w3.org/1999/xlink" width="97.88579" height="97.88579" viewBox="0,0,97.88579,97.88579"><g transform="translate(-271.05715,-131.05713)"><g data-paper-data="{&quot;isPaintingLayer&quot;:true}" fill-rule="nonzero" stroke-linecap="butt" stroke-linejoin="miter" stroke-miterlimit="10" stroke-dasharray="" stroke-dashoffset="0" style="mix-blend-mode: normal"><path d="" fill="#8b65ae" stroke="#5c00aa" stroke-width="2.5"/><path d="" fill="#a17cc4" stroke="#5c00aa" stroke-width="2.5"/><path d="" data-paper-data="{&quot;index&quot;:null}" fill="#b867ff" stroke="#5c00aa" stroke-width="2.5"/><path d="" data-paper-data="{&quot;index&quot;:null}" fill="#ffc374" stroke="none" stroke-width="0"/><path d="" data-paper-data="{&quot;index&quot;:null}" fill="none" stroke="#5c00aa" stroke-width="2.5"/><path d="" fill="#a17cc4" stroke="#5c00aa" stroke-width="2.5"/><path d="" fill="#8b65ae" stroke="#5c00aa" stroke-width="2.5"/><path d="" fill="#a17cc4" stroke="#5c00aa" stroke-width="2.5"/><path d="" data-paper-data="{&quot;index&quot;:null}" fill="#b867ff" stroke="#5c00aa" stroke-width="2.5"/><path d="" data-paper-data="{&quot;index&quot;:null}" fill="#ffc374" stroke="none" stroke-width="0"/><path d="" data-paper-data="{&quot;index&quot;:null}" fill="none" stroke="#5c00aa" stroke-width="2.5"/><path d="" fill="#a17cc4" stroke="#5c00aa" stroke-width="2.5"/><path d="M368.94294,131.05714l0,97.88579l-97.88579,0l0,-97.88579z" fill="none" stroke="none" stroke-width="0"/><g><path d="M324.34332,171.91795c3.49597,0 5.19387,1.78984 5.19387,4.07568c0,2.28583 -1.69789,4.20206 -5.19387,4.20206c-3.49597,0 -5.35618,-1.85303 -5.35618,-4.13886c0,-2.28583 1.8602,-4.13887 5.35618,-4.13887z" fill="#fff5dc" stroke="#308526" stroke-width="2.5"/><path d="M329.32142,185.94076c2.45426,3.22401 2.72578,7.46852 0.16681,9.89777c-2.55897,2.42925 -6.32598,1.50303 -8.78023,-1.72097c-2.45426,-3.22401 -2.66638,-7.52491 -0.1074,-9.95416c2.55897,-2.42925 6.26658,-1.44664 8.72083,1.77737z" fill="#fff5dc" stroke="#308526" stroke-width="2.5"/><path d="M324.2242,172.92845c2.00174,0 3.62445,1.09705 3.62445,2.45034c0,1.35329 -1.62272,2.45034 -3.62445,2.45034c-2.00174,0 -3.62445,-1.09705 -3.62445,-2.45034c0,-1.35329 1.62272,-2.45034 3.62445,-2.45034z" fill="#ffffff" stroke="#308526" stroke-width="2.5"/><path d="M329.19254,187.84373c1.80563,2.82769 1.5935,6.19011 -0.4738,7.5102c-2.0673,1.32008 -5.20693,0.09793 -7.01256,-2.72976c-1.80563,-2.82769 -1.5935,-6.19011 0.4738,-7.5102c2.0673,-1.32008 5.20693,-0.09793 7.01256,2.72976z" fill="#ffffff" stroke="#308526" stroke-width="2.5"/><path d="M326.03072,196.78475c0,0 -8.53242,3.78389 -9.2292,3.25343c-0.46115,-0.35108 -15.92434,-26.82444 -15.92434,-27.74064c0,-0.49375 0.45325,-3.50713 0.96412,-4.03231c2.9371,-3.01936 12.53624,-7.23471 18.37678,-8.1862c1.23154,-0.20063 6.64553,2.98193 6.64553,3.38978c0,3.56818 -0.8329,33.31594 -0.8329,33.31594z" fill="#ffd787" stroke="#856326" stroke-width="2.5"/><path d="M327.03019,162.13618c0,-0.08431 2.17788,0.85564 3.22095,2.63243c1.14082,1.94329 11.87789,14.1936 11.49321,14.81043c-3.47369,5.56996 -15.54706,15.87307 -15.54706,15.87307c0,0 0.8329,-29.74776 0.8329,-33.31594z" fill="#ffc551" stroke="#856326" stroke-width="2.5"/><g><path d="M322.53253,161.71974c0,-2.06998 1.78993,-3.74804 3.99792,-3.74804c2.20799,0 3.99792,1.67806 3.99792,3.74804c0,2.06998 -1.78993,3.74804 -3.99792,3.74804c-2.20799,0 -3.99792,-1.67806 -3.99792,-3.74804z" fill="#856326" stroke="none" stroke-width="0"/><path d="M325.86413,178.79416c-4.23198,0 -7.66267,-3.72901 -7.66267,-8.32899c0,-4.59997 3.43069,-8.32899 7.66267,-8.32899c4.23198,0 7.66267,3.72901 7.66267,8.32899c0,4.59997 -3.43069,8.32899 -7.66267,8.32899z" fill="#9ee4ff" stroke="#856326" stroke-width="2.5"/></g><g data-paper-data="{&quot;index&quot;:null}"><path d="M328.02966,192.95343c2.20799,0 3.99792,1.67806 3.99792,3.74804c0,2.06999 -1.78992,3.74805 -3.99792,3.74805c-2.20799,0 -3.99792,-1.67806 -3.99792,-3.74805c0,-2.06999 1.78992,-3.74804 3.99792,-3.74804z" fill="#856326" stroke="none" stroke-width="0"/><path d="M335.02601,187.95603c0,4.59997 -3.43069,8.32899 -7.66267,8.32899c-4.23198,0 -7.66267,-3.72901 -7.66267,-8.32899c0,-4.59997 3.43069,-8.32899 7.66267,-8.32899c4.23198,0 7.66267,3.72901 7.66267,8.32899z" fill="#9ee4ff" stroke="#856326" stroke-width="2.5"/></g><path d="M328.36282,187.53959c0,-2.71398 1.26786,-4.9141 2.83186,-4.9141c1.56399,0 2.83186,2.20012 2.83186,4.9141c0,2.71398 -1.26786,4.9141 -2.83186,4.9141c-1.56399,0 -2.83186,-2.20012 -2.83186,-4.9141z" fill="#ffffff" stroke="#856326" stroke-width="2.5"/><path d="M328.19624,171.0482c0,-2.71398 1.26786,-4.9141 2.83186,-4.9141c1.56399,0 2.83186,2.20012 2.83186,4.9141c0,2.71398 -1.26786,4.9141 -2.83186,4.9141c-1.56399,0 -2.83186,-2.20012 -2.83186,-4.9141z" fill="#ffffff" stroke="#856326" stroke-width="2.5"/></g></g></g></svg>