<svg version="1.1" xmlns="http://www.w3.org/2000/svg" xmlns:xlink="http://www.w3.org/1999/xlink" width="338.79665" height="260.59134" viewBox="0,0,338.79665,260.59134"><g transform="translate(63.84874,-108.88345)"><g data-paper-data="{&quot;isPaintingLayer&quot;:true}" fill-rule="nonzero" stroke-linejoin="miter" stroke-miterlimit="10" stroke-dasharray="" stroke-dashoffset="0" style="mix-blend-mode: normal"><path d="M147.47609,353.4102c-0.14634,-2.38878 12.19867,-42.64292 16.7499,-79.47132c2.81906,-22.81181 -1.89549,-47.59789 -0.7173,-51.33797c9.06722,-28.78322 25.2312,-16.87944 36.62546,-17.68585c14.48052,-1.02483 33.62222,-19.97185 41.80674,16.59605c2.27023,10.14324 17.41518,-17.78217 19.58025,-0.18764c1.37984,11.21338 -6.57302,30.91068 -6.92445,47.29825c-0.86715,40.43609 2.85207,82.30042 2.97569,84.31842c0.53575,8.74534 -32.18871,10.85974 -59.56218,12.79706c-27.37347,1.93732 -49.99837,-3.58168 -50.53412,-12.32702z" fill="#9f697a" stroke="#176e4a" stroke-width="2.5" stroke-linecap="butt"/><path d="M240.59746,294.78669c0,17.49489 -4.32483,31.56905 -15.68345,31.56905c-11.35862,0 -20.56661,-14.18242 -20.56661,-31.67731c0,-17.49489 9.20799,-31.67731 20.56661,-31.67731c11.35862,0 15.68345,14.29068 15.68345,31.78557z" fill="#c17c6c" stroke="#176e4a" stroke-width="2.5" stroke-linecap="butt"/><path d="M230.35115,313.18642c0,0.3583 0.35561,4.132 -1.44983,9.37615c-2.30177,6.68579 -51.03048,4.92448 -51.03048,-10.32174c0,-0.89358 4.06407,-6.89416 6.39638,-15.05934c3.85322,-13.48972 1.86732,-24.50521 4.35636,-29.69816c3.65285,-7.62102 12.58229,-18.19327 15.72382,-18.19327c7.47855,0 20.12982,10.25342 24.72667,23.90581c0,0 -3.04229,23.32064 -2.80321,24.83905c1.21707,7.72998 4.08031,14.92138 4.08031,15.1515z" fill="#ffbdb7" stroke="#176e4a" stroke-width="2.5" stroke-linecap="butt"/><path d="M271.65853,227.55439c0,26.03287 -6.76306,64.15734 -11.6064,64.15734c-3.00374,0 -4.44589,-10.61522 -5.64577,-13.00487c-1.36487,-2.71824 -2.41626,2.84435 -5.09599,4.6834c-3.95288,2.7128 1.97216,-32.26479 1.97216,-38.81522c0,-26.03287 3.92629,-47.13669 8.76961,-47.13669c4.64098,0 11.6064,29.02841 11.6064,30.11604z" fill="#b9818a" stroke="#176e4a" stroke-width="2.5" stroke-linecap="butt"/><path d="M166.63714,187.59304c3.86954,0.2474 5.65985,21.50878 3.99879,47.48861c-0.41796,6.53708 2.08401,41.74607 -0.90102,38.83687c-2.02361,-1.97219 -2.50868,-7.57716 -3.77258,-4.93417c-1.11111,2.32349 -2.94063,12.84341 -5.34044,12.68998c-3.86954,-0.24741 -6.84024,-38.63966 -5.17917,-64.61948c0.06939,-1.08541 7.48655,-29.69888 11.19442,-29.46181z" data-paper-data="{&quot;index&quot;:null}" fill="#b9818a" stroke="#176e4a" stroke-width="2.5" stroke-linecap="butt"/><path d="M212.34019,130.22638c0,-2.22124 -0.44329,-5.96572 0.22228,-7.96329c1.06063,-3.18329 3.69986,-4.40495 6.0865,-6.65606c3.00444,-2.83383 -1.55677,-4.75173 5.96286,-4.90542c0.85708,-0.01752 6.94122,-0.56816 7.82129,-0.56816c4.46287,0 6.97849,-0.55429 10.31321,1.90722c1.99865,1.47529 5.32155,5.32142 6.6573,7.42325c1.32771,2.08919 0.05028,1.26479 0.65187,3.54468c0.2943,1.11535 2.87241,5.11342 2.87241,6.41407c0,3.82346 -2.80965,6.68481 -4.48179,9.65998c-0.93413,1.66205 -0.13103,3.63607 -1.62174,5.16579c-0.98209,1.00778 -4.07843,3.52023 -5.25279,4.30479c-3.18979,2.13105 -5.01438,1.76608 -9.13846,1.76608c-2.83843,0 -7.54868,1.53813 -9.99679,0.52084c-2.08138,-0.86489 -1.97069,-4.13384 -3.61562,-5.83432c-1.83535,-1.89732 -4.62615,-4.87025 -5.76933,-7.27204c-1.20324,-2.52797 -0.71118,-4.50991 -0.71118,-7.5074z" fill="#ff96d4" stroke="#176e4a" stroke-width="2.5" stroke-linecap="butt"/><path d="M151.99047,212.20552c0,-32.62523 26.44798,-59.0732 59.07321,-59.0732c32.62523,0 59.0732,26.44797 59.0732,59.07321c0,32.62523 -26.44797,59.07321 -59.0732,59.07321c-32.62523,0 -59.07321,-26.44797 -59.07321,-59.0732z" fill="#acffcf" stroke="#176e4a" stroke-width="2.5" stroke-linecap="butt"/><path d="M155.28102,183.03252c-0.14325,0.67668 2.73492,0.63886 8.36247,1.05459c7.61142,0.56228 19.85049,5.63957 36.84776,7.29238c12.34044,1.19997 72.80357,10.57893 72.69176,9.09407c-0.47966,-6.37018 1.1422,9.17547 0.54754,11.7266c-0.25939,1.11276 -7.31239,8.7487 -8.71382,4.65452c-1.27837,-3.7347 -2.94669,-7.41617 -4.69186,-9.87038c-1.27291,-1.79007 1.43189,2.29693 0.19869,2.26825c-9.18846,-0.21369 -24.84975,-3.51554 -35.41113,-3.02084c-6.80933,0.31895 -6.79031,0.04985 -9.14288,-2.15263c-0.82689,-0.77414 -25.98138,0.40557 -26.4527,0.35176c-1.54305,-0.17615 -0.63758,-2.3894 -2.11113,-2.61279c-2.13941,-0.32433 -14.30722,-5.34837 -16.28989,-5.95553c-2.48503,-0.76099 5.29427,2.8929 3.48243,2.6637c-4.0686,-0.51469 -10.53491,0.77999 -15.78206,0.5525c-6.6611,-0.28879 -11.19025,4.76221 -1.03903,-5.29168c1.99979,-1.98061 -8.02014,2.24793 -6.99006,-1.32992c0.85837,-2.98146 4.53985,-9.64159 4.49392,-9.42461z" fill="#b9818a" stroke="#176e4a" stroke-width="2.5" stroke-linecap="butt"/><path d="M154.51141,181.76032c9.19809,-20.8719 40.76144,-43.49676 64.9913,-43.49676c31.11176,0 51.78378,32.49009 54.08218,63.01371c0.11181,1.48486 -3.04614,2.58318 -3.04614,4.09665c0,0.43102 -9.47264,-3.88957 -24.46926,-4.77004c-10.95293,-0.64306 -37.25637,-1.19284 -49.59681,-2.39281c-5.93539,-0.57716 -14.8918,-3.61345 -23.00838,-6.92947c-10.29712,-4.20689 -19.24255,-8.86401 -18.95289,-9.52128z" fill="#96a5ff" stroke="#176e4a" stroke-width="2.5" stroke-linecap="butt"/><g fill="#176e4a" stroke="#176e4a" stroke-width="0" stroke-linecap="butt"><path d="M237.49816,222.7197c-1.97355,16.41636 -5.96049,29.03272 -12.90163,28.19827c-6.94114,-0.83445 -7.42526,-13.98833 -5.45172,-30.40468c1.97355,-16.41636 5.65744,-29.87865 12.59858,-29.04419c6.94114,0.83445 7.72832,14.83425 5.75477,31.25061z"/><path d="M244.58397,224.38105c-0.45939,3.82128 -8.04999,12.59144 -9.38707,12.4307c-2.97478,-0.35763 -4.70985,-6.27445 -3.87539,-13.21559c0.83445,-6.94114 3.92244,-12.27815 6.89722,-11.92052c1.51261,0.18184 6.7754,9.29369 6.36525,12.70541z"/></g><g data-paper-data="{&quot;index&quot;:null}" fill="#176e4a" stroke="#176e4a" stroke-width="0" stroke-linecap="butt"><path d="M202.12949,188.82257c6.85434,1.37612 6.14742,15.31544 2.8928,31.52652c-3.25463,16.21107 -7.8245,28.5551 -14.67884,27.17898c-6.85434,-1.37612 -6.69962,-14.60656 -3.445,-30.81763c3.25463,-16.21107 8.3767,-29.26399 15.23104,-27.88787z"/><path d="M189.66472,205.99419c2.93758,0.58976 4.20339,6.62441 2.82727,13.47876c-1.37612,6.85434 -4.87305,11.93279 -7.81063,11.34303c-1.32036,-0.26508 -5.79065,-10.96785 -5.03305,-14.74135c0.6764,-3.36907 8.52272,-10.38031 10.01641,-10.08043z"/></g><path d="M228.08786,276.63698c0,0 -3.97967,2.421 -10.31913,2.22233c-5.13492,-0.16093 -18.39326,-1.20691 -25.35033,-2.29235c-2.56041,-0.39947 -4.58087,-1.66285 -4.58087,-1.66285" fill="none" stroke="#176e4a" stroke-width="2.5" stroke-linecap="round"/><path d="M224.66536,300.35495c0,0 -5.46439,1.3441 -8.76783,1.07699c-7.25155,-0.58635 -16.94034,-2.7247 -21.84937,-3.31212c-3.88145,-0.46446 -8.81633,-2.48346 -8.81633,-2.48346" fill="none" stroke="#176e4a" stroke-width="2.5" stroke-linecap="round"/><g stroke="#3e0e6c" stroke-width="2.5" stroke-linecap="butt"><path d="M-62.59873,330.33757c0,-16.99975 68.23288,-30.78078 152.4024,-30.78078c84.16952,0 152.4024,13.78103 152.4024,30.78078c0,3.78185 -0.64838,29.91464 -6.82639,33.26161c-21.59268,11.69795 -80.13127,-2.48082 -145.57601,-2.48082c-84.16952,0 -152.4024,-13.78103 -152.4024,-30.78078z" fill="#a85380"/><path d="M89.80368,300.09271c84.16952,0 152.4024,13.78103 152.4024,30.78078c0,16.99975 -68.23287,30.78078 -152.4024,30.78078c-84.16952,0 -152.4024,-13.78103 -152.4024,-30.78078c0,-16.99975 68.23288,-30.78078 152.4024,-30.78078z" fill="#bb779b"/></g></g></g></svg>