<svg version="1.1" xmlns="http://www.w3.org/2000/svg" xmlns:xlink="http://www.w3.org/1999/xlink" width="214.71471" height="247.74775" viewBox="0,0,214.71471,247.74775"><defs><linearGradient x1="206.40641" y1="129.59166" x2="205.18137" y2="184.12119" gradientUnits="userSpaceOnUse" id="color-1"><stop offset="0" stop-color="#67497d"/><stop offset="1" stop-color="#553783"/></linearGradient></defs><g transform="translate(-107.53754,-86.90691)"><g data-paper-data="{&quot;isPaintingLayer&quot;:true}" fill-rule="nonzero" stroke-linecap="butt" stroke-linejoin="miter" stroke-miterlimit="10" stroke-dasharray="" stroke-dashoffset="0" style="mix-blend-mode: normal"><path d="M217.89993,305.84749c-5.72975,0 1.01812,-9.13549 5.17597,-10.13551c1.25076,-0.26417 9.85514,-4.21864 11.30138,-4.21864c0.75202,0 2.37388,-0.39644 4.67225,1.34917c2.41488,1.83409 3.65063,5.94152 3.19025,11.47033c-0.21183,2.54382 -23.92032,1.53464 -24.33985,1.53464z" fill="#683980" stroke="#541287" stroke-width="2.5"/><path d="M203.89687,187.38193c0.07231,-0.68648 3.25466,1.16537 6.57622,7.60676c6.21023,12.04323 20.16807,53.37612 19.9394,55.54707c-0.49798,4.72783 -16.57192,3.83632 -18.23014,3.67533c-3.20127,-0.31077 -9.3186,-57.02061 -8.28548,-66.82916z" fill="#9951b7" stroke="#541287" stroke-width="2.5"/><path d="M208.48776,301.66175c-0.54557,0.03764 -5.87606,-72.35526 -5.79629,-74.22699c0.17405,-4.08405 10.83766,-4.2314 12.36644,-4.33686c0.78716,-0.0543 12.03808,41.77078 12.31349,43.12662c0.24678,1.21493 2.75601,26.39445 2.89565,27.11524c0.51255,2.64588 -13.14743,7.72657 -21.77928,8.322z" fill="#725580" stroke="#541287" stroke-width="2.5"/><path d="M208.48776,301.66175c-0.14839,0.01024 5.42217,-8.19363 8.43239,-15.6536c0.61971,-1.53575 5.58439,0.73257 5.43951,-1.06463c-0.10232,-1.26923 0.78638,-19.50378 2.18594,-17.32125c0.75437,1.17638 2.2577,8.96313 2.46808,8.44993c1.35075,-3.29502 0.16708,-10.78617 0.35772,-9.84768c0.24678,1.21493 2.75601,26.39445 2.89565,27.11524c0.51255,2.64588 -13.14743,7.72657 -21.77928,8.322z" fill="#9857ca" stroke="none" stroke-width="0"/><path d="M208.48776,301.66175c-0.54557,0.03764 -5.87606,-72.35526 -5.79629,-74.22699c0.17405,-4.08405 10.83766,-4.2314 12.36644,-4.33686c0.78716,-0.0543 12.03808,41.77078 12.31349,43.12662c0.24678,1.21493 2.75601,26.39445 2.89565,27.11524c0.51255,2.64588 -13.14743,7.72657 -21.77928,8.322z" fill="none" stroke="#541287" stroke-width="2.5"/><path d="M218.75306,308.01293c-0.21169,4.3817 -19.67714,5.09366 -21.81143,-3.29139c-0.19665,-0.77257 2.67151,-18.49505 2.5887,-37.16836c-0.00935,-2.10959 -3.11347,-39.44003 -3.07694,-39.80146c0.41116,-4.06835 11.06671,-3.64423 12.59925,-3.66762c0.89993,-0.01374 8.40572,41.1235 8.67071,43.46937c0.2023,1.79098 1.30171,34.82994 1.02972,40.45946z" fill="#725580" stroke="#541287" stroke-width="2.5"/><path d="M193.21891,192.6979c-0.40961,-3.12104 1.61808,-7.17878 7.14672,-8.26936c2.20835,-0.43562 6.55437,-0.32034 8.34039,4.22084c2.68529,6.8277 4.1649,23.55771 4.24787,23.94017c0.16663,0.76809 4.31682,13.32243 4.08169,13.68684c-2.82506,4.37812 -17.52351,5.94261 -20.07258,5.80197c-0.59519,-0.03284 -1.12069,-17.83955 -1.14326,-18.0302c-0.26684,-2.25333 -1.76203,-14.95902 -2.60081,-21.35025z" fill="#9468de" stroke="#541287" stroke-width="2.5"/><path d="M226.99951,223.43387c0,2.72939 -3.40315,4.37621 -5.30157,5.96485c-1.43087,1.19738 -1.06167,2.70202 -3.04215,2.70202c-4.60811,0 -8.34373,-3.88029 -8.34373,-8.66687c0,-4.78657 10.88587,-8.07704 11.44511,-7.95429c3.77614,0.82883 5.24234,3.78515 5.24234,7.95429z" fill="#e5c2ff" stroke="#541287" stroke-width="2.5"/><path d="M186.75395,246.04821c-2.40455,-3.90723 1.68855,-28.70944 3.70341,-49.93846c0.57909,-6.10147 3.5676,-6.57031 3.87132,-6.09325c1.75901,2.76294 2.77421,15.34961 5.32215,32.81236c0.05446,0.37324 -6.15017,3.5271 -4.05755,2.59628c5.58877,-2.48594 23.38393,-11.55767 23.52541,-10.55796c0.55488,3.92105 6.68495,9.79783 6.06806,14.58688c-0.55051,4.27375 -36.90551,19.77058 -38.4328,16.59415z" data-paper-data="{&quot;index&quot;:null}" fill="#9951b7" stroke="#541287" stroke-width="2.5"/><path d="M201.9675,178.40416c2.02184,0.04542 4.50018,1.85012 4.41116,5.8129c-0.08902,3.96279 -10.96462,5.47656 -10.87559,1.51378c0.08902,-3.96279 4.4426,-7.3721 6.46443,-7.32668z" fill="#e5c2ff" stroke="#541287" stroke-width="2.5"/><path d="M234.63151,140.6327c-1.71258,13.08778 -5.65202,14.88782 -9.82284,14.34205c-4.17083,-0.54577 -5.15606,-11.20122 -3.44348,-24.289c0.02351,-0.1796 1.35474,-3.87813 2.35478,-8.41413c1.63679,-7.42428 3.24433,-16.0221 3.33885,-16.00973c2.22599,0.29128 4.05827,13.28529 5.79915,21.06395c0.10094,0.45104 1.73193,-2.2602 1.82367,-1.81664c0.82465,3.98698 0.03871,14.44456 -0.05013,15.12351z" fill="#ca80ff" stroke="#541287" stroke-width="2.5"/><path d="M171.32883,183.36926c-2.45887,-1.05034 -5.21373,-45.47541 -4.26745,-46.43098c2.29492,-2.31742 6.41445,-5.32763 6.20696,-5.30205c-0.57252,0.0706 3.37666,44.5503 3.84973,55.35366c0.03094,0.70657 -3.43925,-2.61682 -5.78924,-3.62064z" fill="#9d7bb5" stroke="#541287" stroke-width="2.5"/><path d="M177.11807,186.98989c-0.47307,-10.80336 -4.42225,-55.28307 -3.84973,-55.35366c0.55773,-0.06877 47.32854,-5.61711 56.475,-5.15677c1.63299,0.08219 5.82828,45.72935 5.34809,50.31473c-0.04317,0.41228 -57.90184,11.82913 -57.97336,10.19569z" fill="#9d7bb5" stroke="#541287" stroke-width="2.5"/><path d="M181.98407,183.47256c-0.41732,-9.53036 -3.90116,-48.76885 -3.3961,-48.83113c0.49202,-0.06067 41.75165,-4.95523 49.82034,-4.54913c1.44057,0.07251 5.14152,40.3409 4.7179,44.38596c-0.03809,0.3637 -51.07905,10.43525 -51.14214,8.9943z" fill="url(#color-1)" stroke="#541287" stroke-width="2.5"/><path d="M197.65614,311.78407c0.08187,-0.71128 -1.13651,-5.34437 -0.13598,-6.50274c0.60635,-0.70202 1.76037,1.47202 3.50748,2.16344c0.50052,0.19808 2.44801,-2.48407 6.77178,-3.03011c5.7126,-0.72143 14.20415,0.80921 15.47597,3.06436c0.92415,1.63868 1.23565,9.69614 -0.32144,10.78661c-2.25262,1.57756 -13.82111,1.71359 -17.67135,-0.02221c-6.42466,-2.89643 -7.89248,-4.1479 -7.62646,-6.45936z" fill="#683980" stroke="#541287" stroke-width="2.5"/><text transform="translate(202.86236,176.34799) rotate(-8.05478) scale(1.04217,1.46883) skewX(-4.07569)" font-size="40" xml:space="preserve" fill="#ca80ff" fill-rule="nonzero" stroke="none" stroke-width="1" stroke-linecap="butt" stroke-linejoin="miter" stroke-miterlimit="10" stroke-dasharray="" stroke-dashoffset="0" font-family="&quot;Neon&quot;, Sans Serif" font-weight="normal" text-anchor="start" style="mix-blend-mode: normal"><tspan x="0" dy="0">1</tspan></text><path d="M107.53754,334.65466v-247.74775h214.71471v247.74775z" fill="none" stroke="none" stroke-width="0"/></g></g></svg>