<svg version="1.1" xmlns="http://www.w3.org/2000/svg" xmlns:xlink="http://www.w3.org/1999/xlink" width="65.65174" height="124.96536" viewBox="0,0,65.65174,124.96536"><defs><linearGradient x1="399.3179" y1="154.92869" x2="402.82781" y2="199.96184" gradientUnits="userSpaceOnUse" id="color-1"><stop offset="0" stop-color="#67497d"/><stop offset="1" stop-color="#553783"/></linearGradient></defs><g transform="translate(-374.09237,-142.7849)"><g data-paper-data="{&quot;isPaintingLayer&quot;:true}" fill-rule="nonzero" stroke-linecap="butt" stroke-linejoin="miter" stroke-miterlimit="10" stroke-dasharray="" stroke-dashoffset="0" style="mix-blend-mode: normal"><g stroke="#541287" stroke-width="2.5"><path d="M405.18846,232.20865c0,13.24972 0.08416,27.1895 -2.26119,27.1895c-2.34535,0 -8.65873,6.90733 -8.65873,-6.34238c0,-0.18811 -0.14558,0.65754 -0.11885,0.31103c0.53587,-6.94527 6.3444,-45.14888 6.79213,-45.14888c2.34535,0 4.24663,10.74102 4.24663,23.99074z" fill="#9951b7"/><path d="M400.65321,237.41062c-0.69506,2.78555 -1.85024,4.94272 -4.64006,5.35977c-0.53413,0.07985 -4.83456,-1.85876 -2.08051,-8.76919c0.75693,-1.89927 2.55704,-2.89583 2.90896,-2.80802c3.59213,0.89631 4.73299,2.52482 3.81161,6.21743z" fill="#e5c2ff"/><g><path d="M398.89203,261.54818c0.06619,-4.0449 0.49198,-21.82264 1.16021,-24.77245c0.92486,-4.08269 8.61792,-4.20327 9.19773,2.2826c0.17761,1.98671 1.40876,19.76692 1.37176,22.02814c-0.01735,1.0605 -0.07338,2.06638 -0.1628,3.01677c-1.64061,0.05322 -3.28427,0.10155 -4.93223,0.14126c-2.0757,0.05002 -4.30822,0.01891 -6.58773,0.00099c-0.04555,-0.8505 -0.06245,-1.74944 -0.04694,-2.69732z" fill="#725580"/><path d="M407.43417,263.09562c0,-4.31712 0.13489,-23.29372 0.75476,-26.45318c0.85794,-4.37285 8.54801,-4.63963 9.23385,2.27042c0.16226,1.63479 1.10703,13.31068 1.52878,19.65397c-0.01321,-0.00005 -0.02642,-0.00008 -0.03965,-0.00008c-3.92524,0 -7.32226,2.26156 -8.95914,5.55275c-0.83442,0.02652 -1.66965,0.05169 -2.50588,0.075c-0.00843,-0.35911 -0.01273,-0.72539 -0.01273,-1.09886z" fill="#725580"/><path d="M406.94102,203.9067c4.72536,0 8.51664,0.39456 8.78452,3.26578c0.03254,0.34884 -0.51493,17.35892 -0.39515,18.88575c0.14114,1.79891 2.40164,11.47566 2.36696,11.80587c-0.68091,6.48297 -5.20185,5.3879 -10.20408,3.55921c-3.21446,-1.17513 -7.59096,-2.51131 -8.08561,-2.80396c-0.12077,-0.07145 2.14209,-12.53803 2.12081,-13.77952c-0.01358,-0.79256 0.02726,-15.85482 0.02726,-16.26838c0,-2.4694 0.65993,-4.66475 5.38529,-4.66475z" fill="#9468de"/><path d="M404.67505,204.04704c0,-2.28938 1.76752,-4.14529 3.94788,-4.14529c2.18036,0 3.94789,1.85591 3.94789,4.14529c0,0.4547 -0.46154,0.7922 -1.16144,1.01776c-2.19498,0.70741 -6.73434,0.31395 -6.73434,-1.01776z" fill="#e5c2ff"/><path d="M429.16095,195.14163c-1.70206,-8.84284 -5.33884,-36.80766 -4.97841,-44.65625c0.07643,-1.66422 7.15662,1.62731 7.28997,2.4116c0.89695,5.2757 2.77487,30.16809 2.62794,35.41199c-0.03091,1.10337 -1.96916,4.28048 -3.42635,7.6355c-0.26445,0.60888 -1.51315,-0.80284 -1.51315,-0.80284z" fill="#9d7bb5"/><path d="M425.84222,199.68796c-10.69919,1.91186 -37.54727,3.69714 -45.1319,3.86728c-1.2865,0.02886 -2.11869,-1.29587 -2.2057,-2.39536c-0.61286,-7.74459 -2.63949,-36.61736 -3.16224,-46.19771c-0.10244,-1.87751 38.98458,-4.77473 48.12599,-5.17468c1.3999,-0.06125 3.57282,0.96998 3.83857,2.70812c1.33057,8.70257 3.0753,35.42351 3.0911,43.51469c0.00252,1.29242 -0.89769,2.8444 -1.92769,3.11835c0,0 -1.58891,0.37362 -2.62813,0.55931z" fill="#9d7bb5"/><path d="M424.40958,195.05244c0.20704,2.65634 -43.31558,6.34018 -43.39354,5.33996c-0.15889,-2.03857 -3.49462,-40.34005 -3.27465,-42.27893c0.07216,-0.63605 37.24285,-4.47118 42.53373,-4.28891c1.21602,0.04189 4.01148,39.64995 4.13446,41.22788z" fill="url(#color-1)"/><path d="M432.21206,175.03688c-0.71236,0.05246 -1.57022,-7.23522 -1.95313,-12.43542c-0.04275,-0.58048 3.50772,-18.54355 3.82018,-18.56656c0.29959,-0.02206 1.99025,4.24378 2.51591,8.38312c0.3878,3.05373 -0.32006,6.19081 -0.31077,6.70274c0.00311,0.17147 2.45002,-2.28507 2.22319,-0.74379c-0.64112,4.35625 -5.76919,16.62116 -6.29537,16.6599z" fill="#ca80ff"/><path d="M421.36097,234.10243c-1.44511,2.20408 -16.38233,11.38508 -22.42633,10.12401c-1.15979,-0.24198 -3.10298,-0.00359 -3.14371,-0.04693c-0.98119,-1.04429 1.05378,-10.47546 3.06302,-14.09478c0.13772,-0.24808 15.96905,-1.98688 16.61138,-1.69429c0.51527,0.23471 -1.63945,-0.4885 -1.62011,-0.68903c0.43354,-4.49372 -0.08186,-23.20374 1.48032,-21.72028c5.82372,0.58901 8.13117,24.92486 6.03543,28.1213z" fill="#9951b7"/></g></g><path d="" fill="#bb779b" stroke="none" stroke-width="0"/><text transform="translate(385.41698,187.33225) rotate(-6.24072) scale(0.45352,0.49947) skewX(-1.22312)" font-size="40" xml:space="preserve" fill="#ca80ff" fill-rule="nonzero" stroke="none" stroke-width="1" stroke-linecap="butt" stroke-linejoin="miter" stroke-miterlimit="10" stroke-dasharray="" stroke-dashoffset="0" font-family="&quot;Neon&quot;, Sans Serif" font-weight="normal" text-anchor="start" style="mix-blend-mode: normal"><tspan x="0" dy="0">???</tspan></text><g><path d="M384.31586,255.66631c0.51481,0.04457 17.24689,-0.11006 41.32016,-0.39878c-0.10325,2.43308 -0.16711,4.87852 -0.20925,7.32874c-4.69464,0.76356 -9.34337,1.76021 -13.89142,3.12034c-1.88363,0.56332 -4.08306,1.16877 -6.16037,2.03364c-6.75426,-0.69169 -14.86323,-1.12491 -22.10098,-0.30032c0.16486,-4.49079 0.05326,-9.22007 -0.08959,-12.16603c0.55084,0.23164 0.93956,0.36579 1.13145,0.3824z" fill="#bb779b" stroke="none" stroke-width="0"/><path d="M379.14649,253.35917c2.70131,1.36197 4.65168,2.26232 5.16937,2.30714c0.54128,0.04686 19.01026,-0.12649 45.09022,-0.44436" fill="none" stroke="#3e0e6c" stroke-width="2.5"/></g></g></g></svg>