<svg version="1.1" xmlns="http://www.w3.org/2000/svg" xmlns:xlink="http://www.w3.org/1999/xlink" width="109.13531" height="109.28831" viewBox="0,0,109.13531,109.28831"><g transform="translate(-164.52042,-39.47817)"><g data-paper-data="{&quot;isPaintingLayer&quot;:true}" fill-rule="nonzero" stroke-linejoin="miter" stroke-miterlimit="10" stroke-dasharray="" stroke-dashoffset="0" style="mix-blend-mode: normal"><path d="M181.06953,138.89367c-1.97196,-14.5735 -9.61964,-71.09251 -10.69819,-79.06339c-0.24792,-1.83221 1.04005,-3.49896 2.89348,-3.74975c8.00527,-1.08321 64.39492,-8.71338 78.99695,-10.6892c2.19517,-0.29703 3.65324,1.06572 3.91036,2.96591c1.10116,8.13796 8.79483,64.16355 10.71134,78.32729c0.27549,2.03602 -1.18497,4.24187 -3.1708,4.51058c-8.25103,1.11646 -64.33697,8.70554 -78.78899,10.66106c-2.16108,0.29242 -3.55917,-0.78254 -3.85415,-2.96249z" fill-opacity="0.74902" fill="#22518a" stroke="none" stroke-width="0" stroke-linecap="butt"/><g><g data-paper-data="{&quot;index&quot;:null}" stroke="#252674" stroke-width="2.5" stroke-linecap="butt"><path d="M231.28488,134.82857c-3.0801,-0.9226 -5.5627,-13.61768 -5.7434,-14.19276c-0.44611,-1.41971 3.1211,-2.72187 6.95005,-1.11299c0.47701,0.20042 1.62259,0.6517 2.07692,0.9406c1.14786,0.72992 4.94874,9.91843 4.83479,10.07601c0,0 -6.28486,4.83834 -8.11835,4.28914z" fill="#8194ff"/><path d="" data-paper-data="{&quot;index&quot;:null}" fill="#8194ff"/><path d="" data-paper-data="{&quot;index&quot;:null}" fill="#475ac7"/><path d="M229.46481,133.28317c-0.07646,-0.37832 2.70427,-1.08421 5.33882,-2.56433c3.28663,-1.84649 4.12004,-4.01349 4.49623,-3.18972c0.62618,1.37121 1.30527,2.81048 2.02595,4.30329c-4.01989,1.58227 -8.21142,4.4138 -11.20899,4.67327c-0.22271,-1.09938 -0.44049,-2.17568 -0.65202,-3.22252z" data-paper-data="{&quot;index&quot;:null}" fill="#475ac7"/></g><g data-paper-data="{&quot;index&quot;:null}" stroke="#252674" stroke-width="2.5" stroke-linecap="butt"><path d="" data-paper-data="{&quot;index&quot;:null}" fill="#8194ff"/><path d="" data-paper-data="{&quot;index&quot;:null}" fill="#475ac7"/><path d="M210.63244,122.84561c0.96117,-1.64103 8.86368,0.69562 9.66752,0.31214c0.07066,-0.03371 0.56456,6.05234 1.21034,14.41069c-0.10611,0.05243 -0.21172,0.10743 -0.31681,0.16512c-0.607,0.03473 -1.21449,0.06688 -1.82249,0.09654c-3.28307,0.16011 -7.41342,-0.01924 -11.42751,0.34791c1.45444,-8.82434 2.55865,-15.10993 2.68894,-15.33239z" data-paper-data="{&quot;index&quot;:null}" fill="#475ac7"/></g><path d="" data-paper-data="{&quot;index&quot;:null}" fill="#8194ff" stroke="#252674" stroke-width="2.5" stroke-linecap="butt"/><path d="" data-paper-data="{&quot;index&quot;:null}" fill="#8194ff" stroke="#252674" stroke-width="2.5" stroke-linecap="butt"/><path d="M213.79698,121.03394c1.86545,-2.85481 5.12952,-4.67014 8.264,-5.16699c3.54656,-0.56217 9.69774,2.4869 9.94239,4.57329c0.43454,3.70598 1.29202,10.61484 1.83437,14.92686c-1.5257,0.67542 -2.93313,1.1513 -4.12581,1.15768c-1.0818,0.00579 -2.18406,-0.02906 -3.28071,0.00477c-0.10358,-0.00317 -0.20756,-0.00477 -0.31191,-0.00477c-0.87662,0 -1.72689,0.1128 -2.5371,0.32467c-0.8168,0.18203 -1.61694,0.46038 -2.38872,0.88411c-0.607,0.03473 -1.21449,0.06688 -1.82249,0.09654c-0.58005,0.02829 -1.18655,0.04598 -1.81418,0.05796c-1.56092,-5.89761 -4.84043,-15.20041 -3.75983,-16.85412z" data-paper-data="{&quot;index&quot;:null}" fill="#b3bfff" stroke="#252674" stroke-width="2.5" stroke-linecap="butt"/><path d="" data-paper-data="{&quot;index&quot;:null}" fill="#b3bfff" stroke="#252674" stroke-width="2.5" stroke-linecap="butt"/><path d="" data-paper-data="{&quot;index&quot;:null}" fill="#475ac7" stroke="#252674" stroke-width="2.5" stroke-linecap="butt"/><path d="M213.10141,127.94906c-0.50824,-3.57695 1.68303,-8.24269 2.46746,-8.36703c1.77301,-0.28105 3.69341,-0.95141 4.84407,2.30243c0.27013,0.76389 0.52107,7.83303 1.35893,15.56033c-0.19441,0.08784 -0.38726,0.18385 -0.57837,0.28878c-0.607,0.03473 -1.21449,0.06688 -1.82249,0.09654c-1.52731,0.07448 -3.23799,0.0755 -5.03503,0.09225c-0.3773,-3.35855 -0.8224,-7.07274 -1.23457,-9.97329z" data-paper-data="{&quot;index&quot;:null}" fill="#475ac7" stroke="#252674" stroke-width="2.5" stroke-linecap="butt"/><path d="" data-paper-data="{&quot;index&quot;:null}" fill="#475ac7" stroke="#252674" stroke-width="2.5" stroke-linecap="butt"/><path d="M225.4677,120.95965c-0.19672,-3.13322 1.63713,-3.2552 3.21049,-3.65068c0.69611,-0.17497 4.17109,2.95131 5.0163,6.12647c0.82506,3.09948 2.0283,7.20299 3.0329,10.54042c-2.3043,1.15405 -4.4899,2.23735 -6.28615,2.49253c-2.16073,-7.54303 -4.92286,-14.70135 -4.97354,-15.50874z" data-paper-data="{&quot;index&quot;:null}" fill="#475ac7" stroke="#252674" stroke-width="2.5" stroke-linecap="butt"/><path d="M216.21405,119.5212c-0.35736,-2.25439 2.31389,-4.21653 5.90253,-4.78537c3.58866,-0.56885 6.73576,0.47101 7.09311,2.72541c0.35737,2.25439 -2.39153,3.7267 -5.98018,4.29554c-3.58864,0.56884 -6.65809,0.01881 -7.01543,-2.23559z" data-paper-data="{&quot;index&quot;:null}" fill="#475ac7" stroke="#252674" stroke-width="2.5" stroke-linecap="butt"/><path d="M221.77536,110.40673c3.36755,-0.5338 4.40024,2.67562 4.87472,5.66898c0.2966,1.87104 -2.60272,3.25512 -5.12568,3.16002c-1.51336,-0.05704 -3.05462,-0.76493 -3.23252,-1.88726c-0.47447,-2.99337 0.11596,-6.40796 3.4835,-6.94175z" data-paper-data="{&quot;index&quot;:null}" fill="#b3bfff" stroke="#252674" stroke-width="2.5" stroke-linecap="butt"/><path d="M221.53448,53.56703c1.94219,11.3559 -2.35973,19.67308 -5.85296,20.2776c-3.14098,0.54357 -12.07792,7.85369 -14.44627,-2.77382c-0.0581,-0.26076 -2.29859,-2.94172 -2.42519,-8.75295c-0.06107,-2.80377 0.05984,-8.12473 0.3163,-10.79899c1.87241,-0.1696 3.69868,-0.53384 4.74448,-0.70355c5.17149,-0.83922 10.34341,-1.66186 15.51907,-2.43889c1.23566,2.91508 2.13481,5.13365 2.14456,5.19061z" data-paper-data="{&quot;index&quot;:null}" fill="#8194ff" stroke="#252674" stroke-width="2.5" stroke-linecap="butt"/><g data-paper-data="{&quot;index&quot;:null}" stroke-linecap="butt"><path d="M221.88496,114.83897c-16.83051,2.91259 -28.45846,-8.58137 -31.26012,-24.96257c-2.80168,-16.38121 5.84924,-31.36248 22.67973,-34.27509c16.83051,-2.91259 29.6746,8.34888 32.47626,24.73007c2.80166,16.3812 -7.06541,31.59498 -23.8959,34.50758z" data-paper-data="{&quot;index&quot;:null}" fill="#b3bfff" stroke="#252674" stroke-width="2.5"/><path d="M245.60177,80.69974c0.06657,0.38936 -0.12747,11.54927 -0.12747,11.54927c-1.85852,4.15476 -24.10461,13.30029 -24.30459,13.2789c-0.58061,-0.06203 -20.02063,-1.61922 -26.12447,-3.8239c-0.72514,-0.26193 -4.30313,-9.72657 -4.59947,-11.45927c-2.80166,-16.38119 5.84928,-31.36249 22.67976,-34.2751c16.8305,-2.9126 29.67458,8.34887 32.47625,24.73007z" data-paper-data="{&quot;index&quot;:null}" fill="#8194ff" stroke="none" stroke-width="0"/><path d="M221.57168,114.62427c-16.83051,2.91259 -28.45846,-8.58137 -31.26012,-24.96257c-2.80168,-16.38121 5.84924,-31.36248 22.67973,-34.27509c16.83051,-2.91259 29.6746,8.34888 32.47626,24.73007c2.80166,16.3812 -7.06541,31.59498 -23.8959,34.50758z" data-paper-data="{&quot;index&quot;:null}" fill="none" stroke="#252674" stroke-width="2.5"/></g><g data-paper-data="{&quot;index&quot;:null}"><path d="M189.10038,99.64646c-0.08857,-0.93653 3.69685,-10.13544 4.97503,-10.25634c1.68739,-0.1596 3.3514,2.84158 3.71664,6.70335c0.36525,3.86177 -0.72789,6.89616 -2.41529,7.05575c-1.31703,0.12457 -6.19619,-2.65517 -6.27637,-3.50275z" fill="#252674" stroke="none" stroke-width="NaN" stroke-linecap="butt"/><path d="M230.41261,106.45126c0,0 -3.34597,3.52528 -4.11197,3.75079c-1.09913,0.32356 -4.05658,-1.3567 -4.06536,-1.36347c-0.05046,-0.03894 -4.16727,2.70671 -5.29027,2.79931c-1.18765,0.09792 -4.52833,-2.0698 -4.52833,-2.0698" fill="none" stroke="#252674" stroke-width="2.5" stroke-linecap="round"/><path d="M204.78423,76.53489c4.38627,-0.6954 11.18748,0.52864 15.1383,11.66533c2.25772,6.36411 -0.72049,14.07654 -2.01435,15.57775c-7.28166,8.58968 -15.20362,3.32163 -15.84742,2.99856c-4.37633,-2.1961 -7.95068,-6.47917 -8.84506,-12.12047c-1.39112,-8.77456 3.78826,-16.88769 11.56851,-18.12117z" fill="#82c5ff" stroke="#252674" stroke-width="2.5" stroke-linecap="butt"/><g stroke-linecap="butt"><path d="M209.95413,91.98468c0.27098,2.86518 -1.26808,5.35418 -3.43758,5.55938c-2.1695,0.2052 -4.14792,-1.95114 -4.41892,-4.81631c-0.27098,-2.86519 1.26808,-5.35421 3.43758,-5.5594c2.1695,-0.20519 4.14794,1.95115 4.41893,4.81633z" fill="#82c5ff" stroke="#ffffff" stroke-width="2.5"/><path d="M205.74857,89.42394c1.22624,-0.11599 2.34447,1.10282 2.49765,2.72227c0.15318,1.61944 -0.71673,3.02629 -1.94297,3.14227c-1.22625,0.116 -2.34447,-1.10282 -2.49765,-2.72227c-0.15318,-1.61944 0.71673,-3.02627 1.94297,-3.14226z" fill="#ffffff" stroke="none" stroke-width="0"/></g><path d="M243.05937,81.50242c1.10056,-0.2917 7.19177,7.194 7.41817,8.10659c0.2049,0.82593 -2.95807,5.00051 -4.09209,5.30108c-1.45291,0.38509 -3.33298,-2.13357 -4.26651,-5.89668c-0.93352,-3.76313 -0.51247,-7.1259 0.94043,-7.51099z" data-paper-data="{&quot;index&quot;:null}" fill="#252674" stroke="none" stroke-width="NaN" stroke-linecap="butt"/><path d="M221.20588,88.58611c-0.28506,-11.77229 4.97293,-15.08797 8.83954,-15.82402c6.85849,-1.3056 13.75996,4.71198 15.41486,13.44061c1.06396,5.61179 -0.5335,10.7918 -3.46567,14.25552c-0.43133,0.50955 -5.32507,8.00036 -14.12562,2.20026c-1.55573,-1.00694 -6.5002,-7.34504 -6.6631,-14.07237z" data-paper-data="{&quot;index&quot;:null}" fill="#82c5ff" stroke="#252674" stroke-width="2.5" stroke-linecap="butt"/><g data-paper-data="{&quot;index&quot;:null}" stroke-linecap="butt"><path d="M226.86185,89.66111c-0.69262,-2.792 0.30286,-5.41412 2.17088,-5.90923c1.86804,-0.49512 3.94387,1.36687 4.63648,4.15887c0.69262,2.79199 -0.26025,5.45671 -2.12828,5.95181c-1.86802,0.49511 -3.94386,-1.36686 -4.63647,-4.15885z" fill="#82c5ff" stroke="#ffffff" stroke-width="2.5"/><path d="M229.578,85.94985c1.05586,-0.27985 2.22915,0.77258 2.62062,2.35066c0.39147,1.57808 -0.1471,3.08424 -1.20294,3.36409c-1.05586,0.27985 -2.22915,-0.77259 -2.62062,-2.35067c-0.39147,-1.57808 0.1471,-3.08424 1.20294,-3.36408z" fill="#ffffff" stroke="none" stroke-width="0"/></g></g></g><path d="M181.06953,138.89367c-1.97196,-14.5735 -9.61964,-71.09251 -10.69819,-79.06339c-0.24792,-1.83221 1.04005,-3.49896 2.89348,-3.74975c8.00527,-1.08321 64.39492,-8.71338 78.99695,-10.6892c2.19517,-0.29703 3.65324,1.06572 3.91036,2.96591c1.10116,8.13796 8.79483,64.16355 10.71134,78.32729c0.27549,2.03602 -1.18497,4.24187 -3.1708,4.51058c-8.25103,1.11646 -64.33697,8.70554 -78.78899,10.66106c-2.16108,0.29242 -3.55917,-0.78254 -3.85415,-2.96249z" fill="none" stroke="#225189" stroke-width="6.5" stroke-linecap="butt"/><path d="M176.06123,148.76648l-11.54081,-97.36525l95.7547,-11.92306l13.38061,96.79916z" fill="none" stroke="none" stroke-width="0" stroke-linecap="butt"/></g></g></svg>