<svg version="1.1" xmlns="http://www.w3.org/2000/svg" xmlns:xlink="http://www.w3.org/1999/xlink" width="232.7703" height="253.26797" viewBox="0,0,232.7703,253.26797"><defs><linearGradient x1="310.28658" y1="72.78093" x2="317.67612" y2="128.91234" gradientUnits="userSpaceOnUse" id="color-1"><stop offset="0" stop-color="#745353"/><stop offset="1" stop-color="#583434"/></linearGradient><linearGradient x1="277.14148" y1="89.98146" x2="283.42035" y2="137.67616" gradientUnits="userSpaceOnUse" id="color-2"><stop offset="0" stop-color="#745353"/><stop offset="1" stop-color="#583434"/></linearGradient><linearGradient x1="301.47763" y1="96.7721" x2="309.61797" y2="158.6067" gradientUnits="userSpaceOnUse" id="color-3"><stop offset="0" stop-color="#745353"/><stop offset="1" stop-color="#583434"/></linearGradient><radialGradient cx="305.37222" cy="133.66081" r="13.65968" gradientUnits="userSpaceOnUse" id="color-4"><stop offset="0" stop-color="#ff0000" stop-opacity="0.40784"/><stop offset="1" stop-color="#ff0000" stop-opacity="0"/></radialGradient></defs><g transform="translate(-223.06871,-53.22141)"><g data-paper-data="{&quot;isPaintingLayer&quot;:true}" fill-rule="nonzero" stroke-linejoin="miter" stroke-miterlimit="10" stroke-dasharray="" stroke-dashoffset="0" style="mix-blend-mode: normal"><g data-paper-data="{&quot;index&quot;:null}" stroke="#330408" stroke-width="2.5" stroke-linecap="butt"><path d="M322.50319,236.69444c0.37144,2.61302 4.8879,8.17263 3.92894,10.37348c-1.62964,3.74008 -23.17223,11.3748 -25.77045,7.99276c-0.429,-0.55842 -3.95311,-5.9091 -4.16683,-7.76792c-0.46733,-4.06459 1.45584,-9.42647 1.21864,-11.09513c-1.00263,-7.05355 4.70558,-10.12467 11.23515,-11.05283c5.48588,-0.7798 15.01186,4.74878 17.64347,11.1206c0.18014,0.43616 0.73596,2.19345 0.32881,3.28247c-0.35283,0.94369 -1.67275,1.23479 -1.59715,1.57713c0.07965,0.36061 -2.87322,-4.80082 -2.82058,-4.43055z" fill="#493030"/><path d="M305.6549,203.31805c4.63837,-0.08069 8.67662,-5.03472 10.9484,-5.49202c0.55312,-0.11134 5.96937,18.85734 5.85995,28.37362c-0.07741,6.7315 -24.84239,13.66771 -28.78009,4.67498c-1.93044,-4.40863 -5.22553,-28.51341 -0.75619,-31.82296c0.59025,-0.43708 6.9355,4.36715 12.72794,4.26638z" fill="#493030"/><path d="M325.75983,224.14667c0.20146,1.41724 0.47937,6.43055 0.37956,7.88182c-0.06869,0.99898 -2.57852,-2.10703 -2.83442,-1.33247c-1.17867,3.56753 -2.1107,8.92656 -8.61605,9.84185c-0.35915,0.05053 -3.86756,-7.34343 -4.23896,-7.29064c-1.16338,0.16537 -1.67535,6.02424 -2.59526,6.10418c-5.52051,0.47974 -6.56532,3.135 -9.58848,-0.59828c-1.09819,-1.35614 -3.11284,2.64055 -3.35363,0.94661c-0.48559,-3.41615 -6.37932,-27.48741 -4.97954,-35.81424c0.22216,-1.32153 0.79363,2.61551 1.1497,1.51683c0.44959,-1.38723 3.60613,10.95239 4.37014,10.5013c2.78039,-1.64165 8.36322,-3.60323 12.09311,-4.13341c0.72059,-0.10243 1.44154,-8.51703 2.14897,-8.56526c0.61385,-0.04185 2.80491,5.36231 3.4078,5.45955c0.51784,0.08352 2.76374,-9.8208 2.95639,-9.74491c1.41087,0.55578 9.02884,20.50078 9.70067,25.22707z" fill="#542f24"/></g><g stroke="#330408" stroke-width="2.5" stroke-linecap="butt"><g data-paper-data="{&quot;index&quot;:null}" fill="#493030"><path d="M306.94442,202.58698c-6.6517,1.05432 -15.17337,-1.4467 -15.48625,-3.64781c-1.90166,-13.37822 5.15332,-45.58179 19.41501,-42.3624c5.35399,0.97496 7.17629,25.71328 5.5358,40.06454c-0.10055,0.87957 -3.96203,5.07351 -9.46456,5.94568z"/></g><path d="M293.21791,174.71297c-0.72692,-0.35497 1.22579,-5.49163 4.02701,-9.42726c3.60633,-5.06678 8.83189,-10.53019 9.95932,-10.53835c8.14173,-0.05893 12.74827,8.66536 12.78972,14.39297c0.00262,0.36209 -1.70783,-0.98108 -1.69804,0.4408c0.03429,4.98226 0.444,14.59717 -1.08056,15.74995c-0.06586,0.0498 -0.46763,-0.13799 -0.77903,0.76319c-0.86993,2.51755 -2.2432,7.71043 -2.92661,5.47102c-0.36997,-1.21233 -2.41477,-9.75356 -3.91909,-9.55934c-0.87843,0.11343 -1.61644,-5.1361 -2.39663,-5.49522c-0.92831,-0.4273 -1.85954,4.07298 -2.36749,4.99636c-1.32304,2.40506 -3.79676,-5.6481 -4.05296,-5.87008c-0.2011,-0.17424 -6.3044,7.05643 -6.52351,6.88667c-1.12084,-0.86841 1.48588,-5.08632 2.06111,-8.73729c0.043,-0.27296 -2.17919,1.37293 -3.09325,0.92657z" fill="#54342a"/><path d="M318.92328,163.31957c0.00453,0.6252 -0.13058,11.50326 -0.33644,14.54482c-0.15565,2.29978 -2.22643,-5.10621 -3.38114,-7.87619c-1.41258,-3.38856 -1.09368,4.56276 -2.89979,5.05986c-0.97559,0.26851 -2.96017,-8.48776 -4.07327,-8.47971c-1.13519,0.00822 -2.2502,-4.24723 -3.24552,-4.51144c-1.11645,-0.29636 -2.57442,12.13429 -3.88981,12.71353c-1.29149,0.56871 -1.15706,-5.48996 -2.0165,-8.33334c-0.77139,-2.5521 -2.60519,-1.84556 -2.61075,-2.61217c-0.0099,-1.36814 8.89871,-9.06429 11.67697,-9.0844c1.12282,-0.00813 2.30388,-0.7479 3.46559,-0.25898c3.78478,1.59285 7.29257,6.33895 7.31066,8.83803z" fill="#7d6659"/></g><g stroke="#330408" stroke-width="2.5" stroke-linecap="butt"><path d="M225.3464,305.23939c-0.09377,-0.0337 7.04137,-21.6909 8.36285,-22.92683c0.14136,-0.13221 4.14391,-5.84528 6.58201,-6.78233c2.54556,-0.97836 3.54414,2.80876 4.33913,2.22347c1.18542,-0.87272 3.64016,-7.91201 4.98183,-8.90753c33.9711,-25.20695 114.89997,-82.13033 147.01553,-104.52744c1.89756,-1.32333 9.0099,-3.24826 10.83767,-4.52042c2.01987,-1.40588 10.06547,-15.66448 10.06547,-15.66448l14.23488,-2.90493c0,0 22.65205,-11.3541 22.82324,-11.29259c1.68644,0.60594 -10.29334,33.18287 -10.29334,33.18287l-13.38022,-4.47267c0,0 -6.51189,16.80166 -9.67343,19.02095c-2.21366,1.55391 -7.5463,1.65338 -10.06982,3.41139c-32.71395,22.79023 -120.17446,84.9529 -161.37748,111.87217c-1.34484,0.87862 -5.71642,-0.89076 -6.95242,-0.08407c-1.00278,0.65447 -3.53793,4.25451 -4.47482,4.88714c-8.6318,5.82858 -12.76695,7.57664 -13.02111,7.48532z" fill="#8a6666"/><path d="M301.52753,255.67719c0,2.89772 15.46122,-6.90697 15.46122,-7.32373c0,-3.31448 2.55392,-13.32512 -1.32234,-13.32512c-0.50997,0 -2.12018,-0.4447 -4.38374,0.05927c-1.50211,0.33444 -3.40579,1.42819 -5.05467,2.11112c-0.46961,0.1945 0.06899,2.21249 -0.41577,2.38789c-0.68753,0.24877 -2.38339,-1.3185 -3.0391,-1.04085c-2.14828,0.90965 -3.96807,2.10626 -5.25692,3.0694c-1.04117,0.77805 -2.51834,3.67177 -1.64274,5.31231c1.77011,3.31647 5.65405,7.61409 5.65405,8.74972z" fill="#493030"/><path d="M306.41002,231.5699c0,1.68533 -3.02098,4.47562 -5.4928,4.47562c-2.47181,0 -3.45843,-2.79029 -3.45843,-4.47562c0,-1.68533 9.93757,-7.43484 10.7505,-6.66772c0.53193,0.50196 -1.79927,6.00113 -1.79927,6.66772z" fill="#493030"/></g><path d="M295.74342,294.73739c-11.16789,0.16762 -11.52126,-17.4086 -0.35337,-17.57622c3.52629,-0.05293 8.63388,-1.08531 11.52389,-0.2665c0.05367,0.01521 -4.79683,0.4843 -6.43068,-0.269c-1.71283,-0.78972 -3.0779,-3.12932 -1.19671,-3.26559c7.27694,-0.52714 28.13132,-1.24837 28.19416,-1.2224c4.71368,1.94834 0.49715,11.80217 0.5129,15.38163c0.02494,5.66798 -31.76456,7.21078 -32.25019,7.21807z" fill="#3d1c19" stroke="#330408" stroke-width="2.5" stroke-linecap="butt"/><path d="M300.43505,271.86855c-0.00484,-0.47886 12.04228,-70.30388 12.06192,-70.86901c0.36669,-10.54904 13.83373,-3.14835 15.51895,-3.16538c5.28109,-0.05339 4.89122,69.19301 4.92379,72.41448c0.01954,1.93226 -0.79425,5.38793 -2.93505,6.52621c-1.42837,0.75948 -3.68785,-0.43442 -5.80132,-0.41305c-4.62993,0.04681 -23.76429,-4.09604 -23.7683,-4.49325z" fill="#51281f" stroke="#330408" stroke-width="2.5" stroke-linecap="butt"/><path d="M325.01614,282.82577c3.34744,-1.46982 8.78174,-2.48398 11.88729,-1.80655c0.05768,0.01259 -4.92021,1.01256 -6.71283,0.29295c-2.18318,-0.87639 -1.74123,-2.79602 -4.03348,-3.04454c-2.6965,-0.29235 31.41499,-4.72762 31.50124,-4.69718c5.14316,1.81531 2.01693,13.63491 2.4884,17.78292c0.74657,6.56826 -32.07247,11.34646 -32.57589,11.40058c-11.57718,1.24462 -13.92435,-14.93593 -2.55473,-19.92818z" fill="#3d1c19" stroke="#330408" stroke-width="2.5" stroke-linecap="butt"/><path d="M322.27661,204.56216c-0.66554,-10.5347 10.68221,-10.96652 12.42941,-11.14893c5.47531,-0.57166 24.91087,73.11168 25.26412,76.31457c0.21188,1.92111 -0.28995,5.44019 -2.39876,6.78324c-1.40702,0.89609 -3.87027,-0.07026 -6.06146,0.15852c-5.47531,0.57166 -23.87194,2.62456 -24.22519,-0.57833c-0.05251,-0.47609 -4.97246,-70.9647 -5.00812,-71.52907z" fill="#51281f" stroke="#330408" stroke-width="2.5" stroke-linecap="butt"/><g stroke="#330408" stroke-width="2.5"><path d="M342.71604,195.33104c0.00416,0.57501 0.71063,3.02991 -0.82716,4.82226c-3.59364,4.18852 -12.73539,8.61961 -18.23828,8.65943c-5.13741,0.03718 -8.1757,-2.31459 -10.69661,-5.04563c-1.33483,-1.44609 -1.29143,-3.59929 -1.29623,-4.26354c-0.01389,-1.91873 6.34476,-3.52029 14.20243,-3.57715c7.85767,-0.05686 16.84195,-2.5141 16.85584,-0.59537z" fill="#37221c" stroke-linecap="butt"/><g><g stroke-linecap="butt"><path d="M304.11059,180.93791c-3.13685,-6.03784 -6.70759,-15.04731 -6.12914,-16.99258c2.28591,-7.68718 11.47491,-14.64874 23.42226,-16.90537c14.97066,-2.82767 20.8851,0.77673 22.73109,10.55003c2.24183,11.86881 -2.77268,18.66973 -5.133,30.51554c-0.79971,4.01346 1.85611,4.20739 1.83596,7.24049c-0.02747,4.13425 -10.22028,8.58709 -17.58493,9.09365c-6.03043,0.41479 -9.13954,-2.37261 -11.83109,-5.4738c-0.08087,-0.09319 0.71049,-5.89015 0.30716,-6.34211c-0.58506,-0.65562 -4.89805,-6.44983 -7.61833,-11.68585z" fill="#542f24"/><path d="M303.48602,180.94242c-3.13685,-6.03784 -6.70759,-15.04731 -6.12914,-16.99257c2.28591,-7.68718 11.47491,-14.64875 23.42226,-16.90538c14.97066,-2.82767 20.88511,0.77673 22.73109,10.55003c0.08886,0.47046 -16.51845,10.92495 -24.27523,18.86696c-8.71979,8.928 -8.72049,15.41255 -8.97096,15.13188c-0.58506,-0.65562 -4.05776,-5.4149 -6.77804,-10.65092z" fill="#5b3a28"/><path d="M303.48437,180.71399c-3.13685,-6.03784 -6.70759,-15.04731 -6.12913,-16.99258c2.28591,-7.68718 11.47491,-14.64875 23.42226,-16.90537c7.86278,-1.48513 17.31092,-2.56369 21.80183,1.90316c4.05973,4.03799 2.13377,15.03062 1.56321,15.67072c-0.09144,0.10258 -1.56214,-5.9493 -1.77606,-5.85495c-1.47292,0.64964 -1.9035,5.40696 -3.01825,8.35354c-0.56884,1.50359 -2.09801,0.84749 -2.42076,2.41698c-0.59445,2.89056 -3.86882,24.36646 -4.70528,24.955c-0.55108,0.38774 -3.41322,-25.93423 -4.03145,-26.05762c-4.67693,-0.93344 -3.81304,4.22646 -6.24361,7.84239c-0.45837,0.68192 -6.49075,-9.82786 -7.15357,-9.14921c-1.98591,2.03333 -2.53658,-4.83097 -3.74258,-2.86898c-0.39108,0.63622 -2.62298,1.68268 -2.95826,2.27388c-0.72773,1.28323 -0.25045,2.17656 -0.7054,3.40039c-0.23483,0.63172 -1.7729,-6.71765 -2.00215,-6.2446c-1.26153,2.60324 -0.66213,19.64148 -1.9008,17.25726z" fill="#7d6659"/></g><path d="M331.03504,192.71374c0,0 -3.03459,1.02607 -4.91877,1.29852c-3.12237,0.4515 -12.32371,-0.08187 -12.32371,-0.08187" fill="none" stroke-linecap="round"/><path d="M334.79332,192.33147c0,0 -3.93716,1.15172 -6.19161,1.46256c-2.89779,0.39954 -10.59634,0.56669 -10.59634,0.56669" fill="none" stroke-linecap="round"/></g><path d="M324.86606,206.29643c0.01315,1.8168 -0.95434,3.13221 -2.36236,3.1424c-1.40802,0.01019 -2.55653,-0.96092 -2.56968,-2.77772c-0.01315,-1.8168 0.46327,-2.79968 1.87129,-2.80987c1.40802,-0.01019 3.0476,0.62839 3.06075,2.44519z" fill="#ffc57c" stroke-linecap="butt"/></g><g stroke="#330408" stroke-width="2.5" stroke-linecap="butt"><g><path d="M340.30233,195.95967c-4.17816,-15.56487 -6.2493,-43.16248 -0.50243,-45.12171c15.20551,-5.90559 28.30388,28.4646 28.41299,43.54028c0.01795,2.48039 -8.97241,6.6462 -16.48605,6.58039c-6.21555,-0.05444 -11.16843,-4.045 -11.42451,-4.99895z" fill="#493030"/><path d="M346.0025,148.11157c4.91458,-0.03557 12.5399,6.31457 16.39404,12.93666c1.57722,2.70994 1.04122,9.83667 1.15696,10.56911c0.1816,1.14914 -1.94476,-2.45771 -2.05292,-1.33716c-0.10275,1.06446 -0.49983,12.25863 -1.58158,11.47577c-1.49138,-1.07932 -4.42071,-16.55805 -5.78798,-14.03348c-1.13624,2.098 -0.92269,17.64574 -2.51279,17.51042c-0.95139,-0.08097 -4.30557,-18.21454 -5.14986,-18.20843c-1.74802,0.01265 -5.37193,8.87443 -6.48422,7.04198c-0.11729,-0.19322 0.32449,-4.5104 -0.99762,-8.64783c-0.10874,-0.34029 -2.14487,9.08432 -2.35061,8.46221c-0.33693,-1.01887 -1.51415,-8.10761 -1.70001,-12.55637c-0.08081,-1.93442 0.69079,-3.64129 0.69051,-3.67965c0,0 -0.22469,-3.89169 1.659,-6.20965c1.97974,-2.43615 6.13232,-3.30488 8.71707,-3.32358z" fill="#7d6659"/><path d="M368.38465,183.80825c0.01454,2.00914 -5.81954,6.0568 -10.06557,6.9814c-10.15765,2.21187 -17.0013,2.60668 -19.89544,0.66651c-1.0861,-0.72809 -1.45342,-5.95686 -1.44723,-9.55433c0.0018,-1.04039 11.11791,-0.14141 18.90768,-1.58109c5.53911,-1.02372 7.99195,-5.75176 8.71427,-5.29783c0.62062,0.39002 3.77886,7.75758 3.78629,8.78534z" fill="#ffc57c"/></g><g><path d="M340.50524,240.84108c-0.00302,-0.41725 -2.40963,5.76525 -2.38125,5.3542c0.02694,-0.39023 -1.47754,-0.49364 -2.02257,-1.47672c-0.62896,-1.13447 -0.30559,-3.16523 -0.17879,-3.67622c1.85242,-7.46506 11.45138,-15.13726 17.63333,-15.182c7.35806,-0.05325 14.16341,2.39365 14.22093,10.34216c0.0136,1.88038 3.0204,7.47949 3.17541,12.04158c0.07089,2.08634 -2.93483,8.57192 -3.31606,9.25888c-2.3089,4.16055 -27.33934,-0.70921 -29.75464,-4.56722c-1.42129,-2.27025 2.64496,-9.1501 2.62365,-12.09467z" fill="#493030"/><path d="M366.92926,194.42484c5.47767,2.9144 5.81916,30.05596 4.4165,35.23909c-2.86114,10.57254 -31.33198,7.00524 -32.52812,-0.40969c-1.69097,-10.48246 1.15559,-32.3067 1.78429,-32.27511c2.5822,0.12974 7.85554,4.92981 12.98695,4.2535c6.40816,-0.84458 12.61696,-7.19269 13.34038,-6.80779z" fill="#493030"/><path d="M341.19344,198.12292c0.20006,-0.11553 5.01889,5.89909 5.57651,5.72149c0.6492,-0.20677 1.46878,-1.9879 2.15302,-2.043c0.78856,-0.0635 2.97249,9.10243 3.78452,9.09655c4.20314,-0.03042 11.27019,-20.50591 14.60903,-19.15324c0.91746,0.37168 1.78127,7.95372 2.50624,9.41024c0.57418,1.15356 0.55515,-3.28497 1.01834,-1.86341c2.91852,8.95708 0.38704,36.49043 0.4149,40.34003c0.01381,1.90886 -2.86867,-2.16875 -3.85667,-0.49115c-2.71983,4.61822 -4.31085,1.86074 -10.48149,2.24229c-1.02824,0.06357 -2.55989,-6.3168 -3.87088,-6.30731c-0.41853,0.00303 -3.06976,8.74063 -3.4744,8.74413c-7.32921,0.06345 -9.24189,-5.69604 -11.13112,-9.43807c-0.41017,-0.81244 -2.66708,3.02893 -2.90772,1.93797c-0.34959,-1.5849 -0.87015,-7.16259 -0.88171,-8.75965c-0.03854,-5.32597 5.07634,-28.5908 6.54143,-29.43687z" fill="#542f24"/></g></g><path d="M328.07098,148.49472c-0.05534,2.54821 -7.57831,6.46319 -12.9338,7.11336c-4.6418,0.56353 -7.22599,-1.78227 -7.17803,-3.99089c0.02639,-1.21549 1.46325,-6.21035 1.8779,-7.43251c1.20808,-3.56082 11.51334,-9.36211 13.21252,-8.70458c1.19599,0.46282 5.06408,11.04958 5.02141,13.01461z" fill="#493030" stroke="#330408" stroke-width="2.5" stroke-linecap="butt"/><g stroke-linecap="butt"><g stroke="#330408" stroke-width="2.5"><path d="M275.98743,137.89322c-0.70458,-0.25146 2.02828,-0.57491 1.31265,-0.8547c-4.53823,-1.77441 -7.22709,-4.73345 -10.69984,-7.56757c-1.12658,-0.91941 2.80868,-1.07909 1.72943,-2.10722c-4.00398,-3.81438 -5.59584,-8.98628 -7.83801,-14.19356c-0.41352,-0.96037 3.27402,1.80491 2.91877,0.78131c-6.11708,-17.6253 7.35591,-46.7671 10.5574,-47.54284c0.04718,-0.01143 6.77726,14.78135 10.90778,24.09971c1.92922,4.35226 5.13324,6.40908 8.00562,8.99554c0.93741,0.8441 4.65438,9.60444 5.30311,19.16895c0.69725,10.27964 -1.82259,21.40891 -5.36671,22.26766c-1.20463,0.29188 -10.40435,-0.75394 -16.8302,-3.04729z" data-paper-data="{&quot;index&quot;:null}" fill="#ff4444"/><path d="M274.59025,125.21938c-3.45175,-18.03713 8.37204,-35.4573 26.40917,-38.90905c18.03713,-3.45175 35.4573,8.37204 38.90905,26.40916c3.45175,18.03713 -8.37204,35.45731 -26.40916,38.90906c-18.03713,3.45175 -35.45731,-8.37204 -38.90906,-26.40917z" fill="#493030"/><path d="M335.44535,132.5397c-3.5822,0.68552 -10.50078,-8.72383 -14.13855,-18.68947c-3.3847,-9.27236 -3.643,-19.08106 -3.14074,-20.27027c1.53902,-3.64396 3.6,-6.92933 3.54683,-11.83724c-0.11384,-10.50799 -0.1372,-27.26217 -0.08951,-27.2713c3.2359,-0.61925 27.60844,21.12189 29.36686,40.2828c0.10213,1.11279 4.35786,-3.28892 4.38068,-2.21108c0.12372,5.84425 -1.22464,11.62712 -3.28315,16.90326c-0.55485,1.42214 5.14197,-0.33192 4.49885,1.00786c-1.98246,4.12998 -5.24885,8.29313 -8.64137,11.87504c-0.53496,0.56482 2.27675,1.30263 1.74006,1.83613c-4.89465,4.86561 -13.02239,8.14126 -14.23997,8.37427z" fill="#ff4444"/></g><path d="M300.4619,150.67088c-6.05682,-3.25814 -16.87122,-51.82489 7.78639,-51.57284c6.87718,0.0703 19.733,25.21087 18.58258,38.04444c-1.1504,12.83357 -14.60805,19.85492 -26.36896,13.5284z" fill="#330408" stroke="none" stroke-width="0"/><path d="M290.45902,148.57763c-2.90754,0.3981 -10.58547,-5.50155 -13.84606,-14.33668c-3.26058,-8.83513 -4.20472,-24.79517 -1.16862,-24.819c10.88569,-0.08547 17.92222,38.75758 15.01468,39.15568z" data-paper-data="{&quot;index&quot;:null}" fill="#330408" stroke="none" stroke-width="0"/></g><g><path d="M306.27987,154.75043c0.06912,0.52512 2.28617,4.64885 2.29824,5.15686c0.0731,3.07864 -12.17228,3.12359 -12.6442,2.18986c-0.3068,-0.60701 -3.1314,-5.32677 -3.27336,-6.40514c-0.66495,-5.05096 2.15343,-7.39838 5.35568,-7.81994c3.20225,-0.42156 7.5987,1.82739 8.26364,6.87835z" fill="#c5a4a4" stroke="#330408" stroke-width="2.5" stroke-linecap="butt"/><g stroke="#330408" stroke-width="2.5" stroke-linecap="butt"><path d="M296.29341,106.65752c-3.77661,-14.19591 7.88527,-32.32824 17.11575,-34.69792c9.23048,-2.36968 15.14346,11.90716 18.92009,26.10308c0.45896,1.7252 -3.23737,3.15224 -3.08218,4.83666c0.06921,0.75105 4.18923,2.86072 4.231,3.6004c0.63546,11.25178 -6.02468,19.61777 -13.63322,21.57107c-9.23048,2.36968 -19.77481,-7.21738 -23.55143,-21.4133z" fill="url(#color-1)"/><path d="M290.72666,109.86146c4.66377,12.51383 4.0161,24.34978 -1.44662,26.43632c-4.50282,1.71991 -10.36129,-3.57624 -15.17789,-12.49637c-0.36971,-0.98947 0.68079,-3.95301 0.37201,-4.55976c-0.69252,-1.3608 -3.09755,-0.89284 -3.66432,-2.41361c-4.66377,-12.51383 -6.96245,-24.02427 -1.49975,-26.11081c2.8584,-1.09179 8.03863,-0.38302 12.95602,3.51204c4.48028,3.54882 6.23713,9.66632 8.46055,15.63221z" data-paper-data="{&quot;index&quot;:null}" fill="url(#color-2)"/><path d="M324.06846,113.12962c1.09566,1.74367 9.17567,-7.08129 13.02743,2.17781c1.38288,3.32426 -3.7491,12.32 -6.50982,18.91313c-0.4624,1.10431 -3.29179,4.51578 -6.34741,7.12269c-2.7523,2.34813 -7.37529,4.62901 -7.68101,5.24516c-1.1615,2.34095 -1.06907,3.79414 -2.82798,5.66961c-4.40976,4.70199 -15.57286,6.76667 -22.36858,4.89806c-3.34203,-0.91895 -5.09704,-5.33195 -5.50903,-5.88745c-1.26214,-1.70179 -4.5016,-2.89787 -6.57995,-4.56438c-2.91237,-2.33526 -4.50963,-6.68281 -5.27799,-8.50701c-1.18966,-3.29568 -0.23656,-6.62072 1.32737,-6.64916c0.43342,-0.00788 1.50137,8.30083 1.46294,8.02729c-0.99752,-7.10006 -7.33161,-31.24039 7.63269,-38.41437c18.90067,-10.36846 31.52683,-1.09762 41.13987,13.92907c0.12957,0.20253 -1.61744,-2.16563 -1.4885,-1.96043z" fill="url(#color-3)"/></g><g stroke-linecap="butt"><path d="M300.52428,139.69499c-3.67909,-11.148 -7.93257,-29.8106 -0.48599,-34.87012c7.29856,-3.42121 23.74164,7.46785 25.23627,18.82115c1.49464,11.35329 -8.86023,20.23438 -15.87257,21.15752c-0.11931,0.01571 -6.16195,3.12047 -8.87772,-5.10855z" fill="#bb8393" stroke="#330408" stroke-width="2.5"/><path d="M310.00189,142.23027c-0.10229,0.01346 -5.27815,2.70854 -7.62267,-4.47028c-3.17618,-9.72527 -6.8592,-26.00246 -0.48314,-30.39892c6.25225,-2.96854 20.37346,6.55531 21.67677,16.45538c1.30331,9.90007 -7.55941,17.6224 -13.57096,18.41382z" fill="#330408" stroke="none" stroke-width="0"/></g><g data-paper-data="{&quot;index&quot;:null}" stroke-linecap="butt"><path d="M287.25613,148.11262c-2.58681,0.92069 -8.33873,-3.89198 -10.7557,-13.57085c-2.41697,-9.67887 0.29402,-22.55493 3.61872,-21.49321c3.79534,2.37134 7.16641,18.71157 8.79868,28.7448c1.20488,7.40614 -1.61768,6.3036 -1.6617,6.31927z" fill="#bb8393" stroke="#330408" stroke-width="2.5"/><path d="M285.90497,146.32252c-2.21763,0.78929 -7.1718,-3.42924 -9.27939,-11.8692c-2.1076,-8.43996 0.17627,-19.63937 3.03406,-18.69884c3.26624,2.08322 6.2154,16.32847 7.65055,25.07323c1.05937,6.45505 -1.36748,5.48138 -1.40521,5.49481z" fill="#330408" stroke="none" stroke-width="0"/></g><path d="M294.55699,145.73268c2.00353,-0.26376 3.75837,0.51498 3.91956,1.73936c0.16119,1.22438 -1.33232,2.43075 -3.33585,2.6945c-2.00353,0.26376 -3.75836,-0.51497 -3.91955,-1.73935c-0.16119,-1.22438 1.33231,-2.43075 3.33584,-2.69451z" fill="#bb8393" stroke="#330408" stroke-width="2.5" stroke-linecap="butt"/><path d="M299.54906,158.12975l1.42854,3.4606" fill="none" stroke="#330408" stroke-width="2.5" stroke-linecap="round"/></g><g stroke="none" stroke-linecap="butt"><g><path d="M302.91215,133.25999c0.09592,-1.34081 1.2606,-2.35001 2.60142,-2.25409c1.34082,0.09592 2.35,1.26062 2.25408,2.60143c-0.09592,1.34081 -1.26061,2.35001 -2.60144,2.25409c-1.34082,-0.09592 -2.34999,-1.26062 -2.25407,-2.60143z" fill="#ff0000" stroke-width="NaN"/><path d="M305.74239,133.48561c0.48216,1.5285 0.51331,2.88106 0.06955,3.02105c-0.44376,0.13998 -1.19437,-0.98562 -1.67654,-2.51413c-0.48216,-1.5285 -0.51329,-2.88106 -0.06954,-3.02105c0.44376,-0.13998 1.19436,0.98563 1.67652,2.51413z" fill="#330408" stroke-width="0"/></g><path d="M291.74735,132.21343c0.53831,-7.5248 7.07475,-13.18848 14.59956,-12.65018c7.5248,0.53831 13.1885,7.07475 12.65019,14.59955c-0.53831,7.5248 -7.07476,13.18849 -14.59956,12.65018c-7.5248,-0.53831 -13.18849,-7.07475 -12.65019,-14.59955z" fill="url(#color-4)" stroke-width="0"/></g></g></g></svg>