<svg version="1.1" xmlns="http://www.w3.org/2000/svg" xmlns:xlink="http://www.w3.org/1999/xlink" width="227.33949" height="157.69979" viewBox="0,0,227.33949,157.69979"><g transform="translate(-150.06381,-96.7131)"><g data-paper-data="{&quot;isPaintingLayer&quot;:true}" fill-rule="nonzero" stroke="none" stroke-width="0.5" stroke-linecap="butt" stroke-linejoin="miter" stroke-miterlimit="10" stroke-dasharray="" stroke-dashoffset="0" style="mix-blend-mode: normal"><g><path d="M264.64331,190.82171c-6.27413,3.90818 -12.58931,8.59133 -20.30469,10.14534c-3.6612,0.73743 -7.40853,1.86908 -11.14467,1.50306c-1.03249,-0.10115 -2.04686,-0.96952 -3.02159,-0.65979c-4.47584,1.42226 -11.8889,13.76482 -16.57313,16.41432c-5.93257,3.35559 -15.21938,5.62702 -22.31791,5.45867c-7.41056,-0.17575 -22.37175,-8.57995 -25.32165,-12.84305c-1.60949,-2.32598 -2.92917,-4.81887 -3.91211,-7.39004c-0.81104,-2.12151 0.62037,-5.89431 -0.15605,-7.84155c-0.25036,-0.6279 -1.54993,-0.34615 -2.12792,-0.78619c-2.47811,-1.88669 -8.59928,-10.01753 -9.12005,-12.68743c-1.14088,-5.84912 -0.56909,-12.71517 1.46172,-18.45875c7.15703,-20.24175 28.88372,-36.33169 47.03151,-48.81022c13.36469,-9.18964 22.09049,-13.42046 38.25431,-16.3746c4.37308,-0.79924 11.17741,-2.36907 15.89664,-1.54668c4.61546,0 8.99739,0.85967 12.94099,2.40294c3.04435,1.19136 5.82748,2.79009 8.25518,4.71521c1.93711,1.24598 3.79939,2.55063 5.18997,4.22504c0.32835,0.39537 0.33374,1.06541 0.39214,1.64934c0.06001,0.59993 0.17598,1.10896 0.75567,1.13581c3.00611,0.13927 7.24901,-1.52188 10.34915,-0.98429c2.60267,0.45132 4.98771,1.70831 7.62315,1.98541c2.65252,0.2789 6.10392,-1.71644 8.89382,-1.89054c6.66035,-0.41563 10.05396,-0.363 16.03506,1.55061c2.83085,0.90571 6.56432,0.89032 8.37896,2.96639c3.3937,3.88261 6.59821,7.88769 9.72087,11.93495c1.66694,2.1605 0.77685,5.14335 1.05191,7.7252c0.29437,2.76314 0.93939,5.49758 1.12577,8.26765c0.17445,2.59264 -2.6872,4.65435 -4.16778,6.91793c-6.07216,9.28336 -15.14231,10.73429 -25.0557,16.02023c-11.67035,6.22277 -21.22292,15.41849 -35.75285,14.26455z" fill="#791cff"/><path d="M368.47556,149.90612c0.30748,2.34331 -0.1154,4.68407 -0.65448,7.02301c-0.21762,1.91696 -0.64416,3.78128 -1.25978,5.5759c-0.24031,0.70054 -0.50944,1.39046 -0.80619,2.06874c7.22339,7.36093 12.26253,16.12578 11.58767,26.56997c-0.67606,10.46284 -8.45239,14.58594 -15.80005,20.54886c-14.57546,11.82858 -21.24519,27.07088 -41.33305,33.50568c-1.32017,0.42289 -2.78919,-0.44405 -4.19778,-0.42254c-3.41373,0.05214 -6.80722,0.81645 -10.21551,0.64267c-1.00806,-0.0514 -1.6605,-1.54937 -2.6269,-1.29747c-2.7827,0.72531 -8.12827,4.18373 -11.56435,5.70366c-7.06309,3.12433 -14.85386,4.58829 -22.79436,4.58829c-10.41734,0 -20.02552,-0.60099 -29.45244,-4.73141c-3.76066,-1.64774 -9.37248,0.73715 -12.6171,-1.3058c-5.14687,-3.24067 -10.14771,-6.6531 -15.08165,-10.12997c-2.5952,-1.8288 -2.7522,-5.26377 -4.01978,-7.93501c-1.3754,-2.89847 -3.09178,-5.67618 -4.36173,-8.61001c-1.17214,-2.70788 1.12291,-5.69968 1.84157,-8.52217c2.46128,-9.66648 9.26422,-13.80702 16.51745,-20.6513c1.36047,-1.28377 1.51812,-3.78112 2.4693,-5.32053c2.7566,-4.46132 7.30753,-8.62199 12.15084,-11.49179c8.24878,-4.88764 16.641,-9.5942 25.00622,-14.33328c7.78162,-4.40846 18.75674,-8.38804 25.25554,-11.74497c12.92535,-6.67652 23.47193,-25.07676 40.49784,-25.37627c1.92543,-0.28177 3.90437,-0.42853 5.92318,-0.42853c3.0109,0 5.93313,0.32643 8.72142,0.94038c13.0633,2.23038 24.63947,8.56088 26.81411,25.1339z" fill="#ff871c"/></g><g fill="#450033"><path d="M264.55258,189.30003c-5.64845,3.51844 -11.33385,7.73456 -18.27981,9.1336c-3.29608,0.66389 -6.66972,1.68269 -10.03327,1.35317c-0.92952,-0.09106 -1.84273,-0.87283 -2.72026,-0.59399c-4.02949,1.28042 -10.70328,12.39212 -14.92038,14.7774c-5.34095,3.02096 -13.70163,5.06587 -20.09226,4.91431c-6.67154,-0.15823 -20.14073,-7.72432 -22.79645,-11.56228c-1.44899,-2.09403 -2.63706,-4.33831 -3.52198,-6.65307c-0.73016,-1.90994 0.5585,-5.3065 -0.14049,-7.05955c-0.22539,-0.56528 -1.39536,-0.31163 -1.91571,-0.70779c-2.23098,-1.69854 -7.74172,-9.01853 -8.21055,-11.42218c-1.02711,-5.26582 -0.51233,-11.44715 1.31595,-16.61795c6.4433,-18.22314 26.00329,-32.70852 42.3413,-43.94262c12.0319,-8.2732 19.88752,-12.08211 34.43941,-14.74165c3.93698,-0.71953 10.06274,-2.13282 14.31135,-1.39244c4.15518,0 8.10012,0.77394 11.65045,2.1633c2.74075,1.07255 5.24633,2.51185 7.43194,4.24498c1.74394,1.12173 3.4205,2.29627 4.6724,3.8037c0.29561,0.35594 0.30046,0.95916 0.35304,1.48486c0.05402,0.5401 0.15843,0.99837 0.68031,1.02254c2.70633,0.12538 6.5261,-1.37011 9.31708,-0.88614c2.34312,0.40631 4.49031,1.53795 6.86293,1.78742c2.388,0.25109 5.4952,-1.54527 8.00688,-1.702c5.99615,-0.37418 9.05133,-0.3268 14.43596,1.39597c2.54854,0.81539 5.9097,0.80154 7.54337,2.67057c3.05526,3.49542 5.9402,7.10109 8.75146,10.74474c1.5007,1.94505 0.69938,4.63043 0.94701,6.95481c0.26501,2.48759 0.84571,4.94933 1.01351,7.44316c0.15705,2.33409 -2.41922,4.1902 -3.75215,6.22804c-5.46662,8.35758 -13.63225,9.66382 -22.55703,14.42261c-10.50653,5.60221 -19.10646,13.88088 -32.18741,12.84202z"/><path d="M358.03018,152.46475c0.27682,2.10963 -0.10389,4.21695 -0.58921,6.32264c-0.19592,1.7258 -0.57992,3.40419 -1.13415,5.01984c-0.21635,0.63068 -0.45863,1.25179 -0.72579,1.86244c6.50304,6.62686 11.03965,14.51764 10.43209,23.92028c-0.60864,9.41943 -7.60947,13.13136 -14.22439,18.49963c-13.12193,10.64898 -19.12652,24.37124 -37.21112,30.16433c-1.18851,0.38072 -2.51103,-0.39977 -3.77916,-0.3804c-3.0733,0.04694 -6.12837,0.73503 -9.19677,0.57858c-0.90753,-0.04627 -1.4949,-1.39486 -2.36493,-1.16808c-2.50519,0.65298 -7.31768,3.76651 -10.4111,5.13486c-6.35872,2.81275 -13.37256,4.13073 -20.52119,4.13073c-9.37847,0 -18.02848,-0.54106 -26.5153,-4.25957c-3.38563,-1.48342 -8.43781,0.66364 -11.35886,-1.17557c-4.6336,-2.91749 -9.13573,-5.98962 -13.57763,-9.11976c-2.33639,-1.64642 -2.47774,-4.73884 -3.61891,-7.14369c-1.23824,-2.60942 -2.78345,-5.11013 -3.92675,-7.75138c-1.05525,-2.43784 1.01093,-5.13128 1.65792,-7.6723c2.21583,-8.70249 8.34035,-12.43012 14.87025,-18.59186c1.2248,-1.15574 1.36672,-3.40405 2.22305,-4.78994c2.4817,-4.01642 6.57879,-7.76216 10.9391,-10.34577c7.42617,-4.40022 14.98148,-8.63742 22.51248,-12.9039c7.0056,-3.96883 16.88623,-7.55155 22.73693,-10.5737c11.63637,-6.01071 21.13119,-22.57599 36.4592,-22.84563c1.73342,-0.25367 3.51501,-0.38579 5.33249,-0.38579c2.71064,0 5.34145,0.29388 7.85168,0.8466c11.76057,2.00796 22.1823,7.70715 24.14007,22.62743z"/></g><path d="M184.12829,158.79057c-0.79057,-2.37171 1.58114,-3.16227 1.58114,-3.16227l1.18423,-0.38699c5.12176,-1.24712 13.58609,-1.78803 17.48239,2.77295c3.58757,4.1996 2.23829,11.19646 -0.88928,15.16989c-1.40153,1.78059 -3.58144,2.85829 -5.65414,3.77411c-7.38811,3.26445 -17.66043,3.47802 -24.50478,-1.62906c-2.21165,-1.65028 -3.13132,-3.26966 -4.67323,-5.43649c-0.85354,-1.96352 -1.97203,-3.83166 -2.56318,-5.88944c-0.53739,-1.87061 -0.42308,-4.08444 -0.42477,-6.00327c-0.00876,-9.94919 3.06918,-20.87712 13.24857,-24.99198c2.65266,-1.07229 3.80992,-0.83424 6.58477,-0.84135c3.7516,-0.00961 6.38732,0.28266 9.7847,1.93059c0,0 2.23607,1.11803 1.11804,3.35411c-1.11803,2.23607 -3.35411,1.11804 -3.35411,1.11804c-2.6661,-1.3879 -4.57421,-1.39386 -7.54863,-1.40274c-11.36578,-0.03392 -14.82443,11.29572 -14.83334,20.83333c-0.00102,1.09867 -0.10466,3.52097 0.2419,4.6634c0.50509,1.66502 1.42819,3.17367 2.10349,4.77722c5.29016,7.36735 14.89424,8.36054 22.82199,4.93446c1.31576,-0.56862 2.82698,-1.07337 3.67919,-2.22589c0.41803,-0.56533 0.75503,-1.19257 1.03784,-1.83628c0.33728,-0.7677 0.67326,-1.5535 0.81455,-2.38003c1.2779,-7.47572 -8.42421,-7.08908 -13.25928,-5.84086l-0.81576,0.27969c0,0 -2.37171,0.79057 -3.16228,-1.58114z" fill="#ffe6fd"/><path d="M239.20504,124.8761c0.79057,2.37171 -1.58114,3.16228 -1.58114,3.16228l-1.48048,0.44232c-8.31902,1.03958 -17.23714,2.0422 -25.31896,4.26455c0,0 -2.41191,0.65779 -3.0697,-1.75412c-0.65779,-2.41191 1.75412,-3.06971 1.75412,-3.06971c8.32853,-2.25449 17.45096,-3.33138 26.01438,-4.40212l0.51951,-0.22434c0,0 2.37171,-0.79057 3.16228,1.58114z" fill="#ffe6fd"/><path d="M244.20504,163.8761c0.79057,2.37171 -1.58114,3.16227 -1.58114,3.16227l-2.79057,0.79496c-4.03845,-0.00359 -7.94968,0.42005 -11.88841,0.66504c-0.27663,0.25303 -0.65557,0.46456 -1.17192,0.59365c-1.02364,0.25591 -1.72324,-0.02822 -2.19,-0.44213c-1.85988,0.04449 -3.73546,0.01191 -5.64267,-0.16017c0,0 -2.48973,-0.22634 -2.2634,-2.71607c0.22634,-2.48973 2.71607,-2.26339 2.71607,-2.26339c1.32436,0.12135 2.63404,0.17221 3.93439,0.17498c-0.08238,-11.6029 -0.99407,-23.05389 -0.99407,-34.68525c0,0 0,-2.5 2.5,-2.5c2.5,0 2.5,2.5 2.5,2.5c0,11.57102 0.90222,22.96117 0.99271,34.50382c3.81021,-0.24925 7.59937,-0.66726 11.50729,-0.67048l1.20943,-0.53838c0,0 2.37171,-0.79057 3.16228,1.58114z" fill="#ffe6fd"/><path d="M249.16667,122.5c2.5,0 2.5,2.5 2.5,2.5v0.33334c0,5.70088 0.79841,11.01287 1.63914,16.63004c1.19863,8.00843 1.87063,15.89123 3.63466,23.82764c0,0 0.54233,2.44047 -1.89814,2.9828c-2.44047,0.54233 -2.9828,-1.89814 -2.9828,-1.89814c-1.78873,-8.05103 -2.47763,-16.05067 -3.69867,-24.17236c-0.88094,-5.85959 -1.6942,-11.42102 -1.6942,-17.36997v-0.33334c0,0 0,-2.5 2.5,-2.5z" fill="#ffe6fd"/><path d="M281.73607,165.11803c-1.11804,2.23607 -3.3541,1.11804 -3.3541,1.11804l-0.78898,-0.3988c-4.23318,-2.41896 -8.40607,-4.93711 -12.65357,-7.3259c-0.29659,-0.1668 -4.95229,-2.82127 -5.02217,-2.90954c-0.08605,-0.10869 -0.16943,-0.21912 -0.25042,-0.33113l-0.04827,0.04223l-2.32536,-2.65755c-0.38989,-0.44092 -0.62653,-1.02052 -0.62653,-1.65538c0,-1.38071 1.11929,-2.5 2.5,-2.5h2.88365c2.41286,-0.29632 4.46423,-0.06103 6.66863,-1.07122c4.44924,-2.28616 4.42491,-8.97277 2.51311,-13.04358c-2.33564,-4.97332 -5.73012,-7.36605 -10.66361,-9.39858c-1.10412,-0.45489 -2.51459,-1.27328 -3.8274,-0.88684c-2.31456,0.68131 -4.50344,2.3207 -6.13995,4.00131c0,0 -1.76777,1.76776 -3.53554,0c-1.76776,-1.76777 0,-3.53553 0,-3.53553c2.25038,-2.20583 5.3359,-4.61167 8.52672,-5.33203c3.38419,-0.764 6.26023,0.8553 9.22584,2.13526c9.5809,4.13513 18.2411,19.6075 9.1163,28.7323c-0.82236,0.82235 -1.99114,1.20231 -2.98671,1.80346c-1.88322,0.77442 -3.49897,1.04525 -5.21816,1.23388c0.51675,0.32131 1.05632,0.67477 1.66436,1.01685c4.25605,2.39445 8.43779,4.91678 12.67976,7.34077l0.54435,0.26788c0,0 2.23607,1.11803 1.11803,3.3541z" fill="#ffe6fd"/><path d="M315.58013,175.38675c-1.38675,2.08013 -3.46687,0.69338 -3.46687,0.69338l0.38675,-0.24679c-4.88566,0 -9.27364,-0.77094 -14.09335,-1.37001c-2.80622,-0.62409 -8.51178,-1.42563 -10.29067,-4.0334c-2.25312,-3.30297 -0.02919,-9.38745 0.59011,-12.87213c1.97565,-11.1166 0.29391,-22.37746 0.29391,-33.5578c0,0 0,-2.5 2.5,-2.5c2.5,0 2.5,2.5 2.5,2.5c0,10.50434 1.04765,20.76454 -0.01265,31.25123c-0.28912,2.85947 -0.97727,5.54993 -1.33998,8.39219c-0.16668,1.30612 -1.20359,2.86116 -0.43001,3.92666c0.32054,0.44151 1.05247,0.28911 1.57269,0.45355c1.80382,0.57019 3.62315,1.10301 5.46997,1.51305c4.55224,0.57296 8.66277,1.29665 13.23999,1.29665l2.38675,1.08654c0,0 2.08013,1.38675 0.69338,3.46687z" fill="#ffe6fd"/><path d="M330.5,117.5c2.13117,0 2.44559,1.81677 2.49197,2.35282c2.60899,7.22138 -1.75369,15.2073 -9.71969,16.94168c-1.2142,0.26436 -2.47668,-0.20653 -3.71503,-0.30979c0,0 -2.48471,-0.27607 -2.20863,-2.76078c0.27608,-2.48471 2.76079,-2.20864 2.76079,-2.20864c5.61401,0.87683 10.50466,-4.93755 8.09272,-10.19715l-0.20213,-1.31814c0,0 0,-2.5 2.5,-2.5z" fill="#ffe6fd"/><path d="M329.84945,172.63657c-0.69973,-0.26237 -1.51612,-0.87461 -1.51612,-2.30324c0,-2.5 2.5,-2.5 2.5,-2.5l2.25389,0.89954c1.40733,1.71408 3.29539,3.87282 5.52042,4.55673c4.38383,1.34745 10.91893,-1.03448 14.84352,-2.89228c1.38939,-0.6577 5.45311,-2.32945 6.08216,-4.04374c1.04375,-2.84444 -0.46863,-8.35735 -3.72253,-9.28379c-2.88917,-0.8226 -7.5858,0.09725 -10.61625,0.07815c-2.75973,-0.67648 -7.51127,-1.48728 -9.35397,-3.97166c-2.92811,-3.94777 -1.24748,-13.75764 1.80459,-17.18579c8.27772,-9.29771 24.31373,-8.59651 30.0909,2.55815c0,0 1.11804,2.23606 -1.11803,3.3541c-2.23607,1.11803 -3.3541,-1.11803 -3.3541,-1.11803c-4.04796,-8.51524 -15.91031,-7.6581 -21.90909,-1.44185c-1.50464,1.55919 -1.57317,4.82229 -1.692,6.79541c-0.08059,1.33828 -0.65748,2.95866 0.16325,4.0188c0.92194,1.19087 4.61005,1.67671 5.97936,2.02834c3.24997,-0.02578 8.30259,-0.92999 11.38375,0.07814c5.96551,1.95188 9.32703,10.30712 6.94414,16.04955c-1.32671,3.19718 -5.68259,5.26402 -8.58451,6.62292c-5.17498,2.42333 -12.81797,4.89833 -18.48982,3.10772c-2.86099,-0.90322 -5.25647,-3.17664 -7.20957,-5.40716z" fill="#ffe6fd"/><path d="M205.6136,180.53401c2.46598,0.411 2.05499,2.87698 2.05499,2.87698l-0.31461,1.86508c-0.78863,6.98512 -3.0748,13.62848 -4.36055,20.5163c-0.90074,4.8253 -1.86741,9.58443 -2.96319,14.33972l0.31484,2.51869c0.01595,0.11411 0.02419,0.23069 0.02419,0.3492c0,1.38071 -1.11929,2.5 -2.5,2.5c-0.85068,0 -1.60213,-0.42488 -2.0537,-1.07402l-1.6473,-2.30622l0.10542,-0.0753l-0.2775,-0.20231c-0.72295,-1.88914 -1.44032,-3.78043 -2.15027,-5.67449c-2.22355,-6.66958 -4.77436,-13.06419 -7.59919,-19.49622c-0.55583,-1.2656 -1.13745,-2.52354 -1.61029,-3.82209c-0.33176,1.67151 -0.87167,3.3941 -0.94951,4.09676c-0.41363,3.73346 -0.78655,8.08249 -1.73802,11.70775c-0.89553,3.41215 -1.62989,4.38838 -1.25658,8.1198c0,0 0.22634,2.48973 -2.2634,2.71607c-2.48973,0.22634 -2.71607,-2.2634 -2.71607,-2.2634c-0.3438,-4.11652 0.3808,-6.09273 1.41009,-9.8802c1.25371,-4.61329 1.06199,-9.76863 1.95471,-14.46766c0.22536,-1.18623 2.13103,-8.21915 3.15885,-8.5176c5.48973,-1.59407 5.94392,3.7079 6.98703,6.46471c2.91757,7.71077 6.40611,15.0872 9.07676,22.90598c0.28808,-1.06955 0.56843,-2.14074 0.7851,-3.22643c1.70781,-8.55744 4.35315,-17.11104 5.29916,-25.78122l0.35206,-2.13492c0,0 0.411,-2.46599 2.87698,-2.05499z" fill="#ffe6fd"/><path d="M243.32072,227.17638c0.49029,2.45145 -1.96116,2.94174 -1.96116,2.94174l-2.15696,0.38188c-10.54943,0 -21.72816,-0.16016 -32.11388,-2.04032c0,0 -2.45968,-0.44721 -2.01246,-2.90688c0.44721,-2.45968 2.90689,-2.01247 2.90689,-2.01247c4.46296,0.81519 9.08234,1.29264 13.73353,1.57165l0.06056,-2.38497c2.61552,-10.36584 0.79892,-21.5091 1.74354,-32.13295c-3.59347,-0.31417 -7.15441,-0.82331 -10.47513,-1.47593c0,0 -2.45145,-0.49029 -1.96116,-2.94174c0.49029,-2.45145 2.94174,-1.96116 2.94174,-1.96116c6.67936,1.3627 14.5081,2.02431 21.35437,1.62295c2.76078,-0.16185 5.37028,-0.66672 8.15535,-0.67149h0.66666c0,0 2.5,0 2.5,2.5c0,2.5 -2.5,2.5 -2.5,2.5h-0.66666c-2.68351,-0.00516 -5.17948,0.50458 -7.84465,0.66183c-2.32165,0.13698 -4.7394,0.15521 -7.18684,0.07116c-1.07982,10.94051 0.78549,22.30401 -1.87648,33.04001l0.06055,1.40103c4.21232,0.14053 8.41439,0.15929 12.51408,0.15929l1.17638,-0.28478c0,0 2.45145,-0.49029 2.94174,1.96116z" fill="#ffe6fd"/><path d="M262.7026,209.66667c0,-2.5 2.5,-2.5 2.5,-2.5l2.31009,0.01931c4.02518,0.50323 11.18419,-0.35981 13.06649,4.37153c0.48613,1.22194 -0.4035,2.59914 -0.58575,3.90154c-0.93289,6.6669 -3.32016,12.08822 -10.4703,13.95393c-3.32056,0.86644 -9.21967,0.60631 -12.36864,-0.80997c-2.04245,-0.91861 -3.70664,-2.51561 -5.59532,-3.7191c-1.40733,-1.66572 -3.04551,-3.28302 -3.73363,-5.44294c-0.56071,-1.76002 -0.45627,-4.56109 -0.45627,-6.44098c0,-10.65876 6.75937,-22.06931 18.09954,-24.13439c3.92667,-0.71506 8.2964,0.11472 11.94493,1.46023c0,0 2.34082,0.8778 1.46301,3.21863c-0.87781,2.34082 -3.21864,1.46302 -3.21864,1.46302c-8.25341,-3.15837 -16.72982,0.36954 -21.30319,7.93098c-1.7882,2.95655 -1.98566,6.72996 -1.98566,10.06153c0,3.59776 0.19749,5.3192 2.47677,8.11609c1.50804,0.92024 2.82009,2.16646 4.40468,2.94756c1.50241,0.74059 2.84073,0.34107 4.44056,0.44118c3.51202,0.21975 7.48189,0.11614 9.77448,-3.23974c1.34293,-1.96578 1.0423,-4.5615 1.61268,-6.72414c0.13731,-0.5206 0.69396,-0.89606 0.74759,-1.43179c0.02013,-0.20108 -0.38926,-0.11901 -0.59053,-0.13712c-0.87416,-0.07865 -1.75422,-0.07691 -2.62865,-0.15251c-1.41273,-0.12213 -4.25177,-0.48937 -5.71433,-0.67216l-1.68991,0.01931c0,0 -2.5,0 -2.5,-2.5z" fill="#ffe6fd"/><path d="M310.50228,203.83333c-0.13544,-6.62744 0.05531,-13.2732 -0.78037,-19.85658c0,0 -0.31009,-2.48069 2.17061,-2.79078c2.48069,-0.31009 2.79078,2.17061 2.79078,2.17061c1.04293,8.4602 0.47585,16.99809 1.01447,25.48808c0.30035,4.7343 0.6715,9.39387 0.6715,14.15534l-0.35846,2.68689c0,0 -0.35355,2.47487 -2.82843,2.12132c-2.47487,-0.35355 -2.12132,-2.82843 -2.12132,-2.82843l0.30821,-1.97978c0,-4.6573 -0.37649,-9.21332 -0.66184,-13.84466c-0.00661,-0.10733 -0.01304,-0.21466 -0.0193,-0.32201c-6.46723,0 -13.67508,0 -20.19877,0c0.57058,6.19931 2.20466,12.21493 2.21324,18.5v1c0,0 0,2.5 -2.5,2.5c-2.5,0 -2.5,-2.5 -2.5,-2.5v-1c0.01019,-6.73233 -1.93222,-13.17382 -2.32951,-19.86175c-0.43238,-7.27862 -0.67049,-14.49293 -0.67049,-21.80492c0,0 0,-2.5 2.5,-2.5c2.5,0 2.5,2.5 2.5,2.5c0,6.09498 0.17398,12.11483 0.47986,18.16667c6.77327,0 13.54654,0 20.31982,0z" fill="#ffe6fd"/><path d="M338.90474,227.31813c-0.9848,-2.29786 1.31306,-3.28266 1.31306,-3.28266l1.23103,-0.07836c-0.65064,-2.03347 -0.30066,-4.05807 -0.70372,-6.16472c-1.07256,-5.60578 -1.37937,-11.07077 -1.37584,-16.79238c0.0025,-4.04787 0.01651,-8.63784 -1.34303,-12.52735c-0.11154,0.00804 -0.22319,0.01556 -0.33496,0.02252c-4.62453,0.28815 -9.50355,0.16108 -14.09809,-0.34379c0,0 -2.48471,-0.27608 -2.20863,-2.76079c0.27608,-2.48471 2.76079,-2.20863 2.76079,-2.20863c4.30692,0.48434 8.90065,0.59471 13.23524,0.32287c5.57948,-0.34991 10.85941,-1.99519 16.48868,-2.00483h2.33333c0,0 2.5,0 2.5,2.5c0,2.5 -2.5,2.5 -2.5,2.5h-2.33333c-3.69397,-0.00711 -7.24568,0.73879 -10.8354,1.334c1.71457,6.03081 0.9344,12.43263 1.33057,18.67732c0.43672,6.88371 1.96716,13.2604 1.2586,20.19824l-3.43564,1.92164c0,0 -2.29786,0.9848 -3.28266,-1.31306z" fill="#ffe6fd"/></g></g></svg>