<svg version="1.1" xmlns="http://www.w3.org/2000/svg" xmlns:xlink="http://www.w3.org/1999/xlink" width="458.57143" height="399.28571" viewBox="0,0,458.57143,399.28571"><defs><linearGradient x1="366.14559" y1="86.094" x2="368.28438" y2="148.93809" gradientUnits="userSpaceOnUse" id="color-1"><stop offset="0" stop-color="#67497d"/><stop offset="1" stop-color="#553783"/></linearGradient></defs><g transform="translate(-256.42857,11.78237)"><g data-paper-data="{&quot;isPaintingLayer&quot;:true}" fill-rule="nonzero" stroke-linecap="butt" stroke-linejoin="miter" stroke-miterlimit="10" stroke-dasharray="" stroke-dashoffset="0" style="mix-blend-mode: normal"><g data-paper-data="{&quot;index&quot;:null}" stroke-width="2.5"><path d="M360.52965,257.06926c-2.41035,0.05812 -4.54626,-0.95476 -5.95558,-1.85383c-1.09973,-0.70158 -1.38315,-2.95363 -1.20518,-4.31344c0.31406,-2.39963 0.7543,-5.47742 2.08739,-6.77948c3.21185,-3.13709 9.06499,-1.90291 11.01407,-2.31188c5.7323,-1.2028 11.35432,2.46908 12.55712,8.20138c0.60122,2.86531 -10.54715,6.86554 -18.49783,7.05727z" fill-opacity="0.41569" fill="#601d73" stroke="#ff6aff"/><path d="M375.55234,152.85525c0.14918,0.59061 0.32319,2.14219 0.57145,4.88014c1.90848,21.04759 5.14765,88.42825 4.69805,88.62446c-9.38254,2.97144 -26.49971,3.18379 -27.74876,-6.52868c-0.00079,-0.00611 16.32939,-82.29314 16.56223,-82.76454c2.86534,-5.80104 5.4977,-7.11717 5.91703,-4.21139z" fill="#9951b7" stroke="#541287"/></g><path d="M364.37273,204.20205c0.98575,-8.74613 2.36999,-14.72017 2.88778,-15.64612c3.67822,-6.57769 4.08392,7.99165 8.00945,8.60681c7.75968,1.21601 11.31417,19.11151 7.93917,39.97071c-2.91685,18.02758 3.3973,60.67774 -3.60245,63.37933c0,0 -16.62096,-2.67443 -16.74015,-4.92416c-0.25007,-4.72017 -5.20089,-32.07356 -4.92452,-37.35753c1.303,-24.91232 5.85825,-48.94977 6.43072,-54.02906z" fill="#725580" stroke="#541287" stroke-width="2.5"/><path d="M372.19779,303.36208c0.32157,-25.80219 0.34571,-106.48259 2.47033,-112.12144c2.69402,-7.15006 5.19307,7.47266 9.1674,7.53511c7.85616,0.12347 13.95095,17.65057 13.61309,39.14788c-0.14951,9.51304 5.76909,43.6538 6.29545,58.57829c0.10057,2.85179 -5.02013,4.51907 -11.1633,5.49345c-9.07567,1.43952 -20.38297,1.3667 -20.38297,1.3667z" fill="#6d3e90" stroke="none" stroke-width="0"/><path d="M372.19779,303.36208c0.32157,-25.80219 0.34571,-106.48259 2.47033,-112.12144c2.69402,-7.15006 5.19307,7.47266 9.1674,7.53511c7.85616,0.12347 13.95095,17.65057 13.61309,39.14788c-0.14951,9.51304 5.76909,43.6538 6.29545,58.57829c0.10057,2.85179 -5.02013,4.51907 -11.1633,5.49345c-9.07567,1.43952 -20.38297,1.3667 -20.38297,1.3667z" fill="#725580" stroke="none" stroke-width="0"/><path d="M372.19779,303.36208c0.07603,-6.1004 0.13543,-14.61209 0.2099,-24.12838c0.01004,-1.2839 -2.3291,-2.82526 5.24314,3.39559c4.76702,3.91626 4.19591,-30.36206 6.65093,-29.9183c2.39178,0.43233 1.10939,26.18598 8.34003,26.2996c1.08578,0.01706 2.16631,5.55097 3.88687,6.17635c2.562,0.93123 5.74906,-2.66869 6.07956,-0.3241c0.58074,4.11979 1.0107,8.0907 1.13584,11.63908c0.10057,2.85179 -5.02013,4.51907 -11.1633,5.49345c-9.07567,1.43952 -20.38297,1.3667 -20.38297,1.3667z" fill="#9857ca" stroke="none" stroke-width="0"/><path d="M372.19779,303.36208c0.32157,-25.80219 0.34571,-106.48259 2.47033,-112.12144c2.69402,-7.15006 5.19307,7.47266 9.1674,7.53511c7.85616,0.12347 13.95095,17.65057 13.61309,39.14788c-0.14951,9.51304 5.76909,43.6538 6.29545,58.57829c0.10057,2.85179 -5.02013,4.51907 -11.1633,5.49345c-9.07567,1.43952 -20.38297,1.3667 -20.38297,1.3667z" fill="none" stroke="#541287" stroke-width="2.5"/><path d="M390.53418,191.49202c0.23733,1.57628 3.19234,13.57344 3.03662,13.89644c-0.85452,1.7726 -10.16715,5.32337 -10.38621,5.28732c-3.08215,-0.50736 -7.06691,-1.91895 -9.67802,-3.35783c-2.37018,-1.30612 -9.31809,-2.5306 -9.42858,-2.55637c-1.04374,-0.24343 3.05677,-15.50133 3.06469,-17.4969c0.0051,-1.28315 -0.48928,-17.6601 -0.20192,-26.5193c0.11361,-3.50235 0.89976,-5.00421 1.05238,-5.18635c1.46889,-1.75302 2.7226,-3.16011 5.3287,-3.16011c2.96161,0 8.32766,-0.63229 11.5834,-0.35536c1.5296,0.13011 3.24268,4.46012 3.47465,6.61134c1.26531,11.73416 1.98035,31.68202 2.15427,32.83711z" fill="#9468de" stroke="#541287" stroke-width="2.5"/><path d="M370.23777,153.95794c0,-1.40055 -0.41129,-8.76139 0.39574,-9.73452c0.94932,-1.14472 4.81556,1.28711 6.36219,1.28711c2.86143,0 3.60423,4.94882 3.60423,7.99687c0,3.04804 -10.36216,3.49858 -10.36216,0.45053z" fill="#e5c2ff" stroke="#541287" stroke-width="2.5"/><g><g stroke="#541287" stroke-width="2.5"><path d="M403.99785,145.27064c-0.11206,4.5917 -55.34269,8.46 -68.26758,7.14365c-1.72899,-0.17609 -2.53447,-60.6618 -2.39406,-61.27961c0.56457,-2.48408 59.36684,-9.76927 63.9305,-9.65789c1.35304,0.03302 7.10694,48.39578 6.73113,63.79384z" fill="#9d7bb5"/><path d="M403.99785,145.27065c0.32132,-13.16522 -3.86419,-52.52025 -5.78071,-63.2746c-0.32504,-1.82395 5.32455,1.89457 8.91226,5.32918c2.69318,1.17919 5.71233,39.46024 5.69846,40.02865c-0.07261,2.97479 -8.95706,23.1227 -8.83001,17.91676z" fill="#9d7bb5"/><path d="M399.44643,142.93952c-0.10147,4.15759 -50.11045,7.66018 -61.81339,6.46828c-1.56552,-0.15944 -2.29485,-54.92669 -2.16772,-55.48608c0.51119,-2.24923 53.75415,-8.84566 57.88635,-8.7448c1.22512,0.0299 6.43504,43.82031 6.09476,57.76261z" fill="url(#color-1)"/></g><path d="M410.20559,106.47306c0.12885,3.78619 3.6406,8.38451 2.18142,10.85645c-0.66754,1.13085 -0.17131,1.16904 -1.28454,2.51824c-1.20103,1.45561 -2.82654,4.64124 -3.56655,4.66643c-1.49174,0.05077 -1.62819,-8.13316 -1.85745,-13.15321c-0.10442,-2.28661 -2.47717,-3.9437 -2.48422,-4.15066c-0.02857,-0.83967 1.02786,-3.95738 0.98426,-4.78465c-0.31573,-5.99089 -2.08381,-5.21661 -0.95676,-7.80908c0.5272,-1.21267 1.48674,-5.65737 2.16514,-5.68046c2.32896,-0.07926 4.48636,7.7723 4.81869,17.53695z" fill="#541287" stroke="none" stroke-width="0"/><path d="M406.43688,98.39954c-0.01405,-0.4129 5.66285,-29.28066 5.8132,-29.28578c2.06316,-0.07021 3.19569,23.31701 3.21276,23.81856c0.03109,0.91371 3.55691,-2.88525 3.41727,-1.80495c-0.50734,3.92481 -0.48202,10.30093 -2.19667,15.2489c-1.99038,5.74364 -5.77717,9.81405 -6.8253,9.84972c-2.19958,0.07486 -3.14604,-9.73974 -3.42126,-17.82644z" fill="#ca80ff" stroke="#541287" stroke-width="2.5"/></g><g stroke="#541287" stroke-width="2.5"><path d="M390.86651,252.88438c0.61811,-5.82442 5.84081,-10.04497 11.66524,-9.42686c1.98041,0.21016 7.3395,0.98934 10.85156,3.78625c2.28374,1.8187 3.16671,5.597 3.95033,6.84507c0,0 -3.07173,3.61968 -7.35149,3.94983c-7.92944,0.61169 -19.42461,-2.24293 -19.11565,-5.15428z" fill="#e5c2ff"/><path d="M384.36882,155.88813c0.12391,-2.93327 2.87567,-1.88953 6.31186,3.59269c0.27923,0.44549 24.83108,80.66416 24.83092,80.67033c-0.26241,9.78894 -17.3136,11.30527 -26.94814,9.29597c-0.46711,-0.14983 -4.04507,-67.51334 -4.27063,-88.64608c-0.02934,-2.74902 -0.01282,-4.31026 0.07599,-4.9129z" fill="#9951b7"/></g><path d="M259.50752,316.83102v-268.38565h232.60089v268.38565z" fill="none" stroke="none" stroke-width="0"/><path d="M308.82382,314.49947c14.44451,-19.06907 92.0928,-13.30391 189.68405,-13.30391c107.80333,0 195.1952,17.81449 195.1952,39.78979c0,21.9753 -87.39187,39.78979 -195.1952,39.78979c-107.80334,0 -191.44386,-15.67087 -191.44386,-37.64617c0,-2.0817 0.24831,-26.63409 1.75981,-28.6295z" fill="#aa5880" stroke="#3e0e6c" stroke-width="2.5"/><path d="M307.25377,319.40091c0,-21.9753 87.39186,-39.78979 195.19519,-39.78979c107.80333,0 195.19519,17.81449 195.19519,39.78979c0,21.97529 -87.39186,39.78979 -195.19519,39.78979c-107.80333,0 -195.1952,-17.81449 -195.1952,-39.78979z" fill="#aa5880" stroke="#3e0e6c" stroke-width="2.5"/><path d="M256.42857,387.50334v-399.28571h458.57143v399.28571z" fill="none" stroke="none" stroke-width="0"/><text transform="translate(354.4927,139.16911) rotate(-3.0651) scale(1.22123,1.42851) skewX(0.00008)" font-size="40" xml:space="preserve" fill="#ca80ff" fill-rule="nonzero" stroke="none" stroke-width="1" stroke-linecap="butt" stroke-linejoin="miter" stroke-miterlimit="10" stroke-dasharray="" stroke-dashoffset="0" font-family="&quot;Neon&quot;, Sans Serif" font-weight="normal" text-anchor="start" style="mix-blend-mode: normal"><tspan x="0" dy="0">3</tspan></text></g></g></svg>