<svg version="1.1" xmlns="http://www.w3.org/2000/svg" xmlns:xlink="http://www.w3.org/1999/xlink" width="97.88579" height="97.88579" viewBox="0,0,97.88579,97.88579"><g transform="translate(-271.05715,-131.05712)"><g data-paper-data="{&quot;isPaintingLayer&quot;:true}" fill-rule="nonzero" stroke-linecap="butt" stroke-linejoin="miter" stroke-miterlimit="10" stroke-dasharray="" stroke-dashoffset="0" style="mix-blend-mode: normal"><path d="" fill="#8b65ae" stroke="#5c00aa" stroke-width="2.5"/><path d="" fill="#a17cc4" stroke="#5c00aa" stroke-width="2.5"/><path d="" data-paper-data="{&quot;index&quot;:null}" fill="#b867ff" stroke="#5c00aa" stroke-width="2.5"/><path d="" data-paper-data="{&quot;index&quot;:null}" fill="#ffc374" stroke="none" stroke-width="0"/><path d="" data-paper-data="{&quot;index&quot;:null}" fill="none" stroke="#5c00aa" stroke-width="2.5"/><path d="" fill="#a17cc4" stroke="#5c00aa" stroke-width="2.5"/><path d="" fill="#8b65ae" stroke="#5c00aa" stroke-width="2.5"/><path d="" fill="#a17cc4" stroke="#5c00aa" stroke-width="2.5"/><path d="" data-paper-data="{&quot;index&quot;:null}" fill="#b867ff" stroke="#5c00aa" stroke-width="2.5"/><path d="" data-paper-data="{&quot;index&quot;:null}" fill="#ffc374" stroke="none" stroke-width="0"/><path d="" data-paper-data="{&quot;index&quot;:null}" fill="none" stroke="#5c00aa" stroke-width="2.5"/><path d="" fill="#a17cc4" stroke="#5c00aa" stroke-width="2.5"/><path d="M368.94294,131.05712v97.88579h-97.88579v-97.88579z" fill="none" stroke="none" stroke-width="0"/><path d="M320.77809,202.14284c-0.79452,0.02431 -21.24703,-8.52141 -21.24703,-9.82641c0,-2.18987 0.62897,-14.76531 2.29646,-21.85835c0.32435,-1.37968 9.10963,-9.1372 9.39352,-9.25833c2.19064,-0.93473 6.89291,-2.15666 8.5983,-2.79174c0.44945,-0.16738 3.47766,10.25321 4.21101,20.75554c0.76266,10.92218 -2.47376,22.95548 -3.25225,22.9793z" fill="#999dff" stroke="#322685" stroke-width="2.5"/><path d="M320.8,194.18867c0.2006,-3.49353 0.42478,-17.58312 -0.09722,-23.0766c-0.74906,-7.88313 -2.30602,-16.08105 -2.17924,-16.08105c1.80919,0 21.94545,17.69304 21.94545,18.04404c0,1.11696 -19.70256,31.89405 -20.38488,31.89405c-0.21317,0 0.36074,-4.59528 0.71589,-10.78044z" fill="#afc2ff" stroke="#322685" stroke-width="2.5"/><g stroke="#322685" stroke-width="2.5"><path d="M313.36943,166.62391c0,-5.52604 3.21561,-10.00577 7.18227,-10.00577c3.96667,0 7.18228,4.47973 7.18228,10.00577c0,5.52604 -3.21562,10.00578 -7.18228,10.00578c-3.96666,0 -7.18227,-4.47974 -7.18227,-10.00578z" fill="#ffeab3"/><path d="M318.41587,166.62391c0,-2.86944 1.52108,-5.19556 3.39743,-5.19556c1.87635,0 3.39744,2.32613 3.39744,5.19556c0,2.86943 -1.52109,5.19556 -3.39744,5.19556c-1.87635,0 -3.39743,-2.32613 -3.39743,-5.19556z" fill="#ffffff"/></g><g stroke="#322685" stroke-width="2.5"><path d="M314.88381,189.72736c0,-5.52604 2.94806,-10.00577 6.58467,-10.00577c3.63661,0 6.58467,4.47973 6.58467,10.00577c0,5.52604 -2.94806,10.00578 -6.58467,10.00578c-3.63662,0 -6.58467,-4.47974 -6.58467,-10.00578z" fill="#ffeab3"/><path d="M319.51038,189.72736c0,-2.86943 1.39452,-5.19555 3.11475,-5.19555c1.72023,0 3.11475,2.32612 3.11475,5.19555c0,2.86943 -1.39452,5.19556 -3.11475,5.19556c-1.72023,0 -3.11475,-2.32613 -3.11475,-5.19556z" fill="#ffffff"/></g></g></g></svg>