<svg version="1.1" xmlns="http://www.w3.org/2000/svg" xmlns:xlink="http://www.w3.org/1999/xlink" width="749.78096" height="431.27583" viewBox="0,0,749.78096,431.27583"><defs><linearGradient x1="333.41185" y1="76.87443" x2="333.41185" y2="284.58531" gradientUnits="userSpaceOnUse" id="color-1"><stop offset="0" stop-color="#ffa4f3"/><stop offset="1" stop-color="#ffd172"/></linearGradient><linearGradient x1="93.30082" y1="78.48054" x2="93.30082" y2="330.86251" gradientUnits="userSpaceOnUse" id="color-2"><stop offset="0" stop-color="#ffa4f3"/><stop offset="1" stop-color="#ffd172"/></linearGradient><linearGradient x1="551.68897" y1="78.56022" x2="551.68897" y2="332.10228" gradientUnits="userSpaceOnUse" id="color-3"><stop offset="0" stop-color="#ffa4f3"/><stop offset="1" stop-color="#ffd172"/></linearGradient></defs><g transform="translate(63.84878,41.40829)"><g data-paper-data="{&quot;isPaintingLayer&quot;:true}" fill-rule="nonzero" stroke-linejoin="miter" stroke-miterlimit="10" stroke-dasharray="" stroke-dashoffset="0" style="mix-blend-mode: normal"><path d="M-17.19515,388.61755v-124.62462h696.6967v124.62462z" fill="#664585" stroke="#3e0e6c" stroke-width="2.5" stroke-linecap="butt"/><path d="M-3.85495,95.46881v-126.12613h674.17418v126.12613z" fill="#664585" stroke="#3e0e6c" stroke-width="2.5" stroke-linecap="butt"/><path d="M89.89453,284.58531v-192.69587h472.49631v192.69587z" fill="url(#color-1)" stroke="#3e0e6c" stroke-width="2.5" stroke-linecap="butt"/><path d="M-11.73875,356.49506l6.54226,-310.21951l93.04543,46.56277l2.18075,192.01707z" fill="url(#color-2)" stroke="#3e0e6c" stroke-width="2.5" stroke-linecap="butt"/><path d="M306.53713,262.27314l-68.81025,-95.736l95.736,-68.81025l68.81026,95.736z" fill-opacity="0.51373" fill="#ffd6ec" stroke="none" stroke-width="0" stroke-linecap="butt"/><path d="M478.95785,255.75339l62.70097,-66.98821v66.98821z" fill-opacity="0.51373" fill="#ffd6ec" stroke="none" stroke-width="0" stroke-linecap="butt"/><path d="M546.60385,143.05843l-55.44208,-48.45789l66.02681,7.49538z" fill-opacity="0.51373" fill="#ffd6ec" stroke="none" stroke-width="0" stroke-linecap="butt"/><path d="M99.4029,123.65264c0,-15.53856 12.59649,-28.13505 28.13505,-28.13505c15.53856,0 28.13505,12.59649 28.13505,28.13505c0,15.53856 -12.59649,28.13505 -28.13505,28.13505c-15.53856,0 -28.13505,-12.59649 -28.13505,-28.13505z" fill-opacity="0.51373" fill="#ffd6ec" stroke="none" stroke-width="0" stroke-linecap="butt"/><path d="M3.87387,252.46595l13.08539,-49.33875l28.41777,16.74759l-13.08539,49.33875z" fill-opacity="0.51373" fill="#ffd6ec" stroke="none" stroke-width="0" stroke-linecap="butt"/><path d="M42.08487,187.79204l-8.58664,-37.61766l28.73571,-6.55924l8.58664,37.61766z" fill-opacity="0.51373" fill="#ffd6ec" stroke="none" stroke-width="0" stroke-linecap="butt"/><path d="M574.14595,180.17124v-71.29455l42.21388,-10.31895z" fill-opacity="0.51373" fill="#ffd6ec" stroke="none" stroke-width="0" stroke-linecap="butt"/><path d="M140.53214,285.60434v-156.8895h112.93339v156.8895z" fill="#3e0e6c" stroke="none" stroke-width="0" stroke-linecap="butt"/><path d="M555.82883,285.88368l2.7599,-192.9687l117.75585,-46.70778l8.27971,311.64545z" data-paper-data="{&quot;index&quot;:null}" fill="url(#color-3)" stroke="#3e0e6c" stroke-width="2.5" stroke-linecap="butt"/><path d="M316.44446,290.38921c0.05199,-1.89414 -4.22088,-35.05225 -3.79762,-50.56316c0.02488,-0.91163 39.44691,-1.02188 39.79688,-0.83548c1.8961,1.00985 29.6838,16.48629 31.87213,16.67573c1.8501,0.16016 213.1473,-2.25235 221.92112,-4.21487c6.20574,-1.38808 24.2362,13.32486 24.2362,13.32486l-5.94582,63.41249c0,0 -245.12832,8.47656 -248.37685,7.92836c-7.32554,-1.23622 -59.78816,-42.73622 -59.70603,-45.72793z" fill="#bb779b" stroke="#3e0e6c" stroke-width="2.5" stroke-linecap="butt"/><path d="M618.6795,266.61036c0,0 -244.49591,7.20593 -245.57748,7.25522c-3.16274,0.14414 -55.24108,-31.12971 -55.24108,-31.12971" fill="none" stroke="#3e0e6c" stroke-width="2.5" stroke-linecap="round"/><path d="M332.16231,212.85267c-0.86852,-21.51318 -3.07581,-105.91497 0.33886,-105.91497c17.48953,0 161.83969,0.3751 187.49106,0.3751c2.13096,0 2.20526,68.49231 0.581,99.96736c-0.14279,2.76695 -188.41092,5.57252 -188.41092,5.57252z" fill="#bb779b" stroke="#3e0e6c" stroke-width="2.5" stroke-linecap="butt"/><path d="M339.56961,206.85117c-0.81395,-18.93152 -2.88256,-93.20476 0.31757,-93.20476c16.39069,0 151.67162,0.33008 175.71137,0.33008c1.99707,0 2.06671,60.27297 0.5445,87.97089c-0.13382,2.4349 -176.57344,4.9038 -176.57344,4.9038z" fill="#ffd0e9" stroke="#3e0e6c" stroke-width="2.5" stroke-linecap="butt"/><path d="M349.26877,123.75953c0,-1.25 1.25,-1.25 1.25,-1.25h0.42457c7.07505,0.03745 4.9726,8.69365 2.81446,12.99301c-0.22479,0.44782 -2.72329,3.11818 -2.26405,3.82852c0.53519,0.82782 1.88729,0.80289 2.50583,1.57044c2.96404,3.67808 0.30082,7.83587 -2.16356,10.90541c-1.2614,1.0559 -3.9743,4.62625 -6.13102,3.15396c-0.64092,-0.43753 -0.08282,-1.54995 -0.10835,-2.32556c-0.06514,-1.97911 0.13432,-3.9658 0.13405,-5.94908c-0.0011,-8.08656 0.97646,-16.87662 -0.26851,-24.85946c0,0 -0.19007,-1.23547 1.04539,-1.42554c1.23546,-0.19007 1.42553,1.04539 1.42553,1.04539c1.06871,7.03363 0.29758,14.67863 0.29758,21.79494c0,2.77205 -0.03056,5.52588 -0.14211,8.29465c-0.00227,0.0564 -0.00563,0.11938 -0.01033,0.18688c0.11953,-0.11304 0.23262,-0.21541 0.32388,-0.29898c0.52652,-0.4821 1.09901,-0.91146 1.64852,-1.3672c1.14105,-1.43273 3.45762,-4.23405 2.7995,-6.29948c-1.01022,-3.17046 -4.83834,-1.71948 -3.49543,-6.30115c0.35322,-1.20509 1.61121,-1.95488 2.1707,-3.07915c1.27151,-2.55508 3.83194,-9.39656 -0.58209,-9.36759h-0.42457c0,0 -1.25,0 -1.25,-1.25z" fill="#3e0e6c" stroke="none" stroke-width="0.5" stroke-linecap="butt"/><path d="M364.12794,146.15862c-2.18452,-0.01434 -4.28988,0.39479 -6.51402,0.39479c0,0 -0.97746,0 -1.20367,-0.86435c-0.85324,1.82968 -1.53528,3.75234 -1.49422,5.33878c0,0 0,1.25 -1.25,1.25c-1.25,0 -1.25,-1.25 -1.25,-1.25c0.09306,-5.19395 4.22097,-9.57457 6.00421,-14.26389c0.41791,-1.09895 0.26042,-3.68321 2.2853,-3.76286c1.82862,-0.07193 2.67431,3.22162 3.14307,4.2014c1.45837,3.04819 2.42629,6.26198 3.62106,9.43855l0.2527,1.18073c0,0 0.24515,1.22572 -0.98058,1.47087c-1.22573,0.24515 -1.47087,-0.98058 -1.47087,-0.98058l-0.14208,-0.79321c-0.18172,-0.48616 -0.35835,-0.9734 -0.53247,-1.46087zM357.61393,144.05341c2.10787,0 4.06769,-0.34023 6.1357,-0.38923c-0.64913,-1.82557 -1.32245,-3.63505 -2.15676,-5.38393c-0.15371,-0.32221 -0.42224,-0.74464 -0.65263,-1.16486c-0.06338,0.20869 -0.1295,0.39869 -0.18475,0.54112c-0.54669,1.40904 -1.47992,2.63574 -2.20774,3.96034c-0.40373,0.73478 -0.88596,1.59382 -1.3651,2.51367c0.23611,-0.07712 0.43127,-0.07712 0.43127,-0.07712z" fill="#3e0e6c" stroke="none" stroke-width="0.5" stroke-linecap="butt"/><path d="M378.44153,147.13305c-1.04007,0.69338 -1.73343,-0.34669 -1.73343,-0.34669l-0.36996,-0.55631c-1.81023,-2.52143 -3.93097,-4.78295 -5.72963,-7.31088c-0.00164,-0.0023 -0.00327,-0.0046 -0.00492,-0.00691c0.0052,2.98782 0.104,5.98586 0.104,8.95727c0,0 0,1.25 -1.25,1.25c-1.25,0 -1.25,-1.25 -1.25,-1.25c0,-6.36506 -0.79516,-13.04863 1.24725,-19.14393c0.49343,-1.47257 1.59442,-5.19625 4.09181,-4.36491c2.33459,0.77715 3.85952,7.24183 2.75828,9.25345c-1.07587,1.96527 -2.31782,2.20561 -4.13309,3.02085c-0.03537,-0.01689 -0.07136,-0.03276 -0.10767,-0.04809c0.22749,0.26909 0.3769,0.60216 0.58519,0.88834c0.476,0.65402 0.95059,1.30982 1.45594,1.94145c1.43165,1.78937 2.92372,3.49088 4.26331,5.35486l0.41962,0.62805c0,0 0.69338,1.04006 -0.34669,1.73344zM370.69281,134.38327c0.2755,-0.0352 0.55179,-0.06948 0.78799,-0.15088c3.78447,-1.65535 2.53237,-4.05652 1.38872,-7.46514c-0.17278,-0.51498 -0.47749,0.97636 -0.69063,1.47599c-0.1717,0.40249 -0.21217,0.84992 -0.34982,1.2653c-0.51208,1.54522 -1.04024,2.96798 -1.1239,4.62106c-0.00428,0.08453 -0.0084,0.16909 -0.01236,0.25367z" fill="#3e0e6c" stroke="none" stroke-width="0.5" stroke-linecap="butt"/><path d="M-62.59877,330.33757c0,-16.99975 68.23288,-30.78078 152.4024,-30.78078c84.16952,0 152.4024,13.78103 152.4024,30.78078c0,3.78185 -0.64838,29.91464 -6.82639,33.26161c-21.59268,11.69795 -80.13127,-2.48082 -145.57601,-2.48082c-84.16952,0 -152.4024,-13.78103 -152.4024,-30.78078z" fill="#a85380" stroke="#3e0e6c" stroke-width="2.5" stroke-linecap="butt"/><path d="M89.80363,299.5568c84.16952,0 152.4024,13.78103 152.4024,30.78078c0,16.99975 -68.23287,30.78078 -152.4024,30.78078c-84.16952,0 -152.4024,-13.78103 -152.4024,-30.78078c0,-16.99975 68.23288,-30.78078 152.4024,-30.78078z" fill="#bb779b" stroke="#3e0e6c" stroke-width="2.5" stroke-linecap="butt"/><path d="M429.95488,260.7179c0.76,-7.97294 6.66668,-39.84076 7.12902,-39.84076c2.96435,0 38.81608,0.09123 43.78374,0.81867c0.94072,0.13775 -3.75291,44.59157 -4.43746,44.56955c-11.07594,-0.35618 -46.67816,-3.41936 -46.4753,-5.54746z" fill="#9351d1" stroke="#3e0e6c" stroke-width="2.5" stroke-linecap="butt"/><path d="M494.19104,226.21094c-1.08234,6.52919 -0.15693,33.17328 -2.10825,34.0257c-4.37488,1.91114 -16.07601,6.0068 -15.39394,6.02873c0.68455,0.02202 5.37818,-44.4318 4.43746,-44.56955c-1.46776,-0.21493 13.14614,4.02403 13.06473,4.51512z" fill="#9351d1" stroke="#3e0e6c" stroke-width="2.5" stroke-linecap="butt"/><path d="M432.63525,257.70927c0.6286,-6.59438 5.51399,-32.95213 5.89639,-32.95213c2.4518,0 32.10463,0.07546 36.21336,0.67712c0.77807,0.11393 -3.10402,36.88151 -3.67021,36.86329c-9.16087,-0.2946 -38.60732,-2.82813 -38.43954,-4.58828z" fill="#3e0e6c" stroke="none" stroke-width="0" stroke-linecap="butt"/><path d="M128.17542,-15.79073c0,24.88685 -29.44652,102.7191 -66.93715,139.71941c-49.3401,48.69479 -110.11614,54.63039 -111.17211,54.59043c-24.0184,-0.90902 7.5772,5.16576 7.5772,-48.33439c0,-13.99174 44.45143,-20.65127 75.29591,-53.73644c30.65791,-32.88504 47.70022,-92.23899 50.89782,-92.23899c12.43206,0 44.33834,-57.63954 44.33834,0z" fill="#3e0e6c" stroke="none" stroke-width="0" stroke-linecap="butt"/><text transform="translate(342.79102,202.24221) rotate(-0.97282) scale(0.15962,0.18267) skewX(0.00132)" font-size="40" xml:space="preserve" data-paper-data="{&quot;index&quot;:null}" fill="#3e0e6c" fill-rule="nonzero" stroke="none" stroke-width="1" stroke-linecap="butt" stroke-linejoin="miter" stroke-miterlimit="10" stroke-dasharray="" stroke-dashoffset="0" font-family="&quot;Neon&quot;, Sans Serif" font-weight="normal" text-anchor="start" style="mix-blend-mode: normal"><tspan x="0" dy="0">(now with invisible beer-creating machine 2000)</tspan></text></g></g></svg>