<svg version="1.1" xmlns="http://www.w3.org/2000/svg" xmlns:xlink="http://www.w3.org/1999/xlink" width="97.88579" height="97.88579" viewBox="0,0,97.88579,97.88579"><g transform="translate(-271.05711,-131.0571)"><g data-paper-data="{&quot;isPaintingLayer&quot;:true}" fill-rule="nonzero" stroke-linecap="butt" stroke-linejoin="miter" stroke-miterlimit="10" stroke-dasharray="" stroke-dashoffset="0" style="mix-blend-mode: normal"><path d="" fill="#8b65ae" stroke="#5c00aa" stroke-width="2.5"/><path d="" fill="#a17cc4" stroke="#5c00aa" stroke-width="2.5"/><path d="" data-paper-data="{&quot;index&quot;:null}" fill="#b867ff" stroke="#5c00aa" stroke-width="2.5"/><path d="" data-paper-data="{&quot;index&quot;:null}" fill="#ffc374" stroke="none" stroke-width="0"/><path d="" data-paper-data="{&quot;index&quot;:null}" fill="none" stroke="#5c00aa" stroke-width="2.5"/><path d="" fill="#a17cc4" stroke="#5c00aa" stroke-width="2.5"/><path d="M368.9429,228.9429h-97.88579v-97.88579h97.88579z" fill="none" stroke="none" stroke-width="0"/><g><path d="M302.65713,195.05957c-1.51154,0 -2.73688,-1.22534 -2.73688,-2.73688c0,-1.51154 1.22534,-2.73689 2.73688,-2.73689c1.51154,0 2.73689,1.22535 2.73689,2.73689c0,1.51154 -1.22535,2.73688 -2.73689,2.73688z" fill="#d5c3ff" stroke="#403185" stroke-width="2.5"/><path d="M325.14979,200.68563c-11.0414,0 -19.99222,-8.95082 -19.99222,-19.99222c0,-11.0414 8.95082,-19.99222 19.99222,-19.99222c11.0414,0 18.35957,8.95082 18.35957,19.99222c0,11.0414 -7.31817,19.99222 -18.35957,19.99222z" fill="#d5c3ff" stroke="#403185" stroke-width="2.5"/><path d="M322.00108,175.86486c0.09,1.969 -1.44402,7.5416 -2.16813,12.60127c-0.59877,4.18392 -0.37195,7.94914 -0.63431,9.64083c-0.15327,0.98824 1.60769,1.74088 1.41538,2.38486c-0.12142,0.40657 -2.97585,0.86332 -4.22355,0.38556c-2.26526,-0.8674 -5.17921,-3.54984 -6.77704,-4.5056c-2.9769,-1.78068 -5.69035,-2.81727 -6.27665,-3.46311c-1.83859,-2.02531 -3.42506,-4.35355 -4.58944,-5.65747c-1.41628,-1.58602 4.51855,6.01781 3.0518,4.47834c-0.20172,-0.21173 -1.23934,0.35628 -1.90571,1.12778c-1.19506,1.38361 -11.16784,-7.75959 -8.29402,-10.53248c3.64926,-3.52111 2.67327,-8.12884 7.83206,-11.68081c1.09088,-0.7511 4.09587,-5.21104 6.22313,-6.45116c6.07669,-3.54251 15.1721,-5.94781 16.23114,-5.06509c0.63545,0.52965 2.73489,0.0121 2.93788,0.94917c0.18174,0.83897 -1.26879,2.08758 -1.46144,3.23365c-0.68419,4.07027 -1.50791,9.34258 -1.36112,12.55424z" fill="#5e5db2" stroke="#403185" stroke-width="2.5"/><path d="M322.55723,175.42981c0.2767,2.0227 -0.72141,7.91137 -0.96174,13.19667c-0.19874,4.37049 0.38486,8.2334 0.28433,10.00238c-0.05873,1.0334 1.76632,1.6482 1.63601,2.33009c-0.08228,0.4305 -2.77428,1.15359 -4.06212,0.77524c-3.58024,-3.1946 -1.34921,-15.38424 -1.55224,-25.35522c-0.00366,-0.18006 -0.00774,-0.35695 -0.01221,-0.53083c-0.1672,-6.50819 -0.2265,-8.34336 0.32976,-13.0774c0.45735,-3.89217 2.41801,-4.74783 2.63319,-4.5941c0.6831,0.48803 2.93848,-0.25808 3.22965,0.68985c0.26069,0.8487 -1.27907,2.28936 -1.36202,3.48917c-0.29459,4.26111 -0.6139,9.77488 -0.16259,13.07414z" fill="#7c7ad4" stroke="#403185" stroke-width="2.5"/><path d="M336.08039,181.05641c4.47679,0 8.10595,1.97707 8.10595,4.41592c0,1.67077 -1.70321,3.12483 -4.21535,3.87498c-0.25475,0.07607 -0.87951,2.26398 -1.59477,2.30273c-0.73633,0.0399 -4.16318,-1.87916 -4.26309,-1.89273c-3.52616,-0.4789 -6.13869,-2.21574 -6.13869,-4.28499c0,-2.43885 3.62916,-4.41592 8.10595,-4.41592z" fill="#403185" stroke="none" stroke-width="0"/><path d="M325.78794,174.50822c0,-2.06925 2.61253,-3.80608 6.13869,-4.28498c0.09991,-0.01357 3.52676,-1.93262 4.26309,-1.89273c0.71526,0.03875 1.34001,2.22667 1.59476,2.30274c2.51214,0.75015 4.21535,2.2042 4.21535,3.87497c0,2.43885 -3.62916,4.41593 -8.10595,4.41593c-4.47679,0 -8.10594,-1.97708 -8.10594,-4.41593z" data-paper-data="{&quot;index&quot;:null}" fill="#403185" stroke="none" stroke-width="0"/></g></g></g></svg>