<svg version="1.1" xmlns="http://www.w3.org/2000/svg" xmlns:xlink="http://www.w3.org/1999/xlink" width="219.63933" height="109.28831" viewBox="0,0,219.63933,109.28831"><g transform="translate(-213.59642,-234.24565)"><g data-paper-data="{&quot;isPaintingLayer&quot;:true}" fill-rule="nonzero" stroke-linejoin="miter" stroke-miterlimit="10" stroke-dasharray="" stroke-dashoffset="0" style="mix-blend-mode: normal"><g><path d="M230.13282,333.79116c-1.97197,-14.5735 -9.61964,-71.09251 -10.69819,-79.06339c-0.24792,-1.83221 1.04005,-3.49896 2.89348,-3.74975c8.00527,-1.08321 64.39491,-8.71338 78.99695,-10.6892c2.19517,-0.29703 3.65323,1.06571 3.91035,2.96591c1.10116,8.13796 8.79483,64.16355 10.71135,78.32729c0.27549,2.03602 -1.18496,4.24187 -3.1708,4.51058c-8.25103,1.11646 -64.33697,8.70554 -78.78899,10.66106c-2.16108,0.29242 -3.55917,-0.78254 -3.85415,-2.96249z" fill-opacity="0.74902" fill="#0b5443" stroke="none" stroke-width="0" stroke-linecap="butt"/><g stroke="#176e4a"><path d="M242.44273,328.52825c-0.3847,-10.11458 -1.82208,-21.17467 -2.04807,-22.1478c-0.62419,-2.68793 23.60081,-21.41611 23.60081,-21.41611l15.64153,-3.63227l11.57412,14.34679c0,0 3.57576,12.46376 5.20285,25.18775c0.34127,2.66874 0.82876,5.50143 1.23181,8.11511c-15.02822,1.60178 -30.15568,3.11759 -45.15762,4.60308c-3.20321,0.31718 -6.63401,0.70885 -9.89132,1.46396c-0.0379,-2.05469 -0.06829,-4.26379 -0.15413,-6.5205z" fill="#9f697a" stroke-width="2.5" stroke-linecap="butt"/><path d="M290.93058,318.72248c1.3566,3.94976 1.28184,7.76883 -0.12804,10.98224c-8.85151,0.92729 -17.72555,1.82778 -26.57642,2.71278c-1.07662,-1.32932 -1.9394,-2.85978 -2.52387,-4.56145c-2.78418,-8.10619 1.80207,-17.02797 10.24369,-19.92737c3.77757,-1.29746 7.59906,-3.40217 11.01543,-2.13782c4.21806,1.56105 6.43095,8.45292 7.96922,12.93163z" fill="#c17c6c" stroke-width="2.5" stroke-linecap="butt"/><path d="M241.55894,334.75031c-0.38748,0.39471 -3.77051,-7.33688 -5.15681,-16.21928c-2.44867,-15.6893 -2.86559,-36.92434 0.47501,-37.27477c7.58226,-0.79537 12.94329,21.90558 13.01051,22.54645c0.19076,1.81852 0.13067,5.38877 0.3983,9.24916c0.4754,6.85763 1.18171,14.71511 0.43951,15.89585c-0.54505,0.8671 -3.55412,0.00335 -6.48263,-1.28657c-0.61104,-0.26915 -0.94734,5.32015 -2.68391,7.08918z" data-paper-data="{&quot;index&quot;:null}" fill="#b9818a" stroke-width="2.5" stroke-linecap="butt"/><path d="M260.64178,327.6877c0.14067,-0.56465 0.81056,-10.71452 1.93216,-17.67804c0.41978,-2.6062 2.74345,-5.08618 2.86723,-5.12869c2.0399,-0.70065 9.52117,-1.08694 11.76489,-0.48905c1.42253,0.37908 2.84893,1.17587 3.8734,2.39812c2.42299,2.89074 2.38305,17.71237 2.55539,19.11315c0.06981,0.56744 0.90323,2.44075 1.79636,4.36079c-9.12833,0.94482 -18.27078,1.8636 -27.37734,2.76873c1.2207,-2.07403 2.26493,-4.04859 2.58791,-5.34501z" fill="#ffbdb7" stroke-width="2.5" stroke-linecap="butt"/><path d="M303.54176,323.59406c-2.35111,2.17078 -4.9168,3.96463 -5.71382,3.32144c-1.08532,-0.87584 -2.96816,-8.53702 -4.74482,-15.17754c-1.00014,-3.73818 -2.21603,-7.09554 -2.62598,-8.87749c-0.14447,-0.62797 -2.44359,-23.83978 4.9862,-25.54904c3.27342,-0.75306 9.77296,19.46715 12.55039,35.10159c1.15993,6.52932 1.08889,12.8191 0.77324,15.57046c-0.68439,0.01886 -1.34216,0.0484 -1.94047,0.08252c-1.58798,-1.90249 -2.91153,-4.81651 -3.28474,-4.47192z" fill="#b9818a" stroke-width="2.5" stroke-linecap="butt"/><path d="M236.47693,284.48342c-3.44065,-16.85415 7.43314,-33.30634 24.28728,-36.74699c16.85415,-3.44065 33.30633,7.43315 36.74698,24.28729c3.44065,16.85415 -7.43315,33.30633 -24.28729,36.74698c-16.85415,3.44065 -33.30633,-7.43315 -36.74698,-24.28729z" fill="#acffcf" stroke-width="2.5" stroke-linecap="butt"/><path d="M235.68504,275.96497c-1.38384,-4.02903 22.84072,-6.72001 34.92785,-10.8715c12.08712,-4.15149 23.00749,-4.25076 24.39132,-0.22172c0.25317,0.73711 1.81601,3.3346 2.52887,5.89753c0.56002,2.01342 0.44046,4.05874 -0.20336,4.80424c-0.44324,0.51324 -4.62914,-3.49666 -6.76101,-3.76758c-1.037,-0.13179 1.93964,1.78698 0.90049,1.91436c-0.29899,0.03665 -13.0082,6.9886 -13.9472,8.35262c-0.22375,0.32503 -0.2626,-2.95063 -1.89781,-2.38899c-1.27598,0.43825 -10.13646,1.38007 -16.08143,1.5471c-6.02815,0.16938 -9.15665,-0.4373 -12.64722,-0.17648c-5.26075,0.39309 1.40813,1.41246 -0.21226,1.59158c-0.57902,0.06401 -7.05366,4.61686 -10.82372,4.21807c-1.71339,-0.18123 3.70592,-5.99901 2.18664,-5.9974c-3.09882,0.00326 -3.15099,1.84948 -3.38721,1.68603c-0.24556,-0.16991 0.68198,-1.44029 0.91089,-2.60595c0.35829,-1.82449 0.1791,-3.79569 0.11515,-3.9819z" fill="#b9818a" stroke-width="2.5" stroke-linecap="butt"/><path d="M271.51449,252.13363c-5.41699,1.86055 -11.2625,-0.49062 -13.97199,-5.31159c6.01108,-1.15745 11.94594,-2.65749 17.95809,-3.82606c1.26991,-0.24683 2.54845,-0.45166 3.83229,-0.62698c-0.48341,4.35043 -3.40381,8.24838 -7.81838,9.76463z" fill="#ff96d4" stroke-width="2.5" stroke-linecap="butt"/><path d="M235.45604,276.78879c-0.10712,-1.82086 -0.99598,-3.15351 -0.74906,-5.00667c0.35409,-2.65753 1.90171,-4.21214 2.90147,-6.7964c2.24827,-5.81147 7.56764,-12.05785 13.37075,-16.70215c0.92536,-0.29757 1.82693,-0.63329 2.50751,-0.74236c7.40988,-1.18743 14.65396,-3.1147 22.01387,-4.54523c0.57487,-0.11174 1.1515,-0.21487 1.7296,-0.31055c4.69305,1.78665 8.98148,4.96569 12.76468,9.35827c1.43563,1.66687 2.73814,3.45679 3.65553,5.79999c0.67034,1.71216 1.80313,9.59208 2.46972,11.02785c0.5476,1.17946 -1.73094,-0.81216 -7.16049,0.32404c-4.52476,0.94685 -11.47773,4.97812 -18.56769,6.31203c-15.00394,2.82289 -34.84938,2.75217 -34.9359,1.28119z" fill="#96a5ff" stroke-width="2.5" stroke-linecap="butt"/><path d="M280.63938,310.24051l-18.19648,4.18319" fill="none" stroke-width="2.5" stroke-linecap="round"/><path d="M262.44007,325.44683l20.22861,-7.29225" fill="none" stroke-width="2.5" stroke-linecap="round"/><path d="M282.86814,328.76384l-6.5851,2.43847" fill="none" stroke-width="2.5" stroke-linecap="round"/><g fill="#176e4a" stroke-width="0" stroke-linecap="butt"><path d="M283.57033,283.23376c1.88457,9.83041 1.90838,17.84015 -2.2481,18.63699c-4.15648,0.79683 -6.85764,-6.69964 -8.74222,-16.53004c-1.88457,-9.83041 -2.23891,-18.27219 1.91757,-19.06901c4.15648,-0.79683 7.18817,7.13166 9.07274,16.96207z"/><path d="M287.96249,282.88713c0.43868,2.28824 -2.32387,8.74348 -3.12453,8.89697c-1.78135,0.3415 -3.87138,-2.75115 -4.66821,-6.90764c-0.79683,-4.15649 0.00126,-7.80281 1.78261,-8.14431c0.90578,-0.17365 5.61847,4.11199 6.01013,6.15498z"/></g><g data-paper-data="{&quot;index&quot;:null}" fill="#176e4a" stroke-width="0" stroke-linecap="butt"><path d="M257.60191,270.6915c4.19757,-0.54008 6.49535,7.59068 7.77267,17.51827c1.27732,9.92759 1.05049,17.89262 -3.14708,18.43269c-4.19757,0.54008 -6.67455,-7.07708 -7.95188,-17.00466c-1.27732,-9.92759 -0.87129,-18.40623 3.32628,-18.9463z"/><path d="M253.78384,282.95599c1.79896,-0.23146 3.69513,2.98371 4.2352,7.18128c0.54008,4.19758 -0.48045,7.78801 -2.27941,8.01947c-0.80858,0.10403 -5.44766,-5.16671 -5.74498,-7.47758c-0.26545,-2.06322 2.87447,-7.60548 3.7892,-7.72316z"/></g><path d="" fill="#bcc6ff" stroke-width="2.5" stroke-linecap="butt"/></g><path d="M230.13282,333.79116c-1.97197,-14.5735 -9.61964,-71.09251 -10.69819,-79.06339c-0.24792,-1.83221 1.04005,-3.49896 2.89348,-3.74975c8.00527,-1.08321 64.39491,-8.71338 78.99695,-10.6892c2.19517,-0.29703 3.65323,1.06571 3.91035,2.96591c1.10116,8.13796 8.79483,64.16355 10.71135,78.32729c0.27549,2.03602 -1.18496,4.24187 -3.1708,4.51058c-8.25103,1.11646 -64.33697,8.70554 -78.78899,10.66106c-2.16108,0.29242 -3.55917,-0.78254 -3.85415,-2.96249z" fill="none" stroke="#0b5544" stroke-width="6.5" stroke-linecap="butt"/><path d="M225.13724,343.53396l-11.54082,-97.36525l95.7547,-11.92306l13.38061,96.79916z" fill="none" stroke="none" stroke-width="0" stroke-linecap="butt"/></g><path d="M225.13724,343.53396l-11.54082,-97.36525l95.7547,-11.92306l13.38061,96.79916z" fill="none" stroke="none" stroke-width="0" stroke-linecap="butt"/><text transform="translate(329.8984,278.37322) scale(0.49479,0.49479)" font-size="40" xml:space="preserve" fill="#2a0745" fill-rule="nonzero" stroke="none" stroke-width="1" stroke-linecap="butt" stroke-linejoin="miter" stroke-miterlimit="10" stroke-dasharray="" stroke-dashoffset="0" font-family="&quot;Neon&quot;, Sans Serif" font-weight="normal" text-anchor="start" style="mix-blend-mode: normal"><tspan x="0" dy="0">Died to: </tspan></text><text transform="translate(328.61149,307.05292) scale(0.84716,0.84716)" font-size="40" xml:space="preserve" fill="#2a0745" fill-rule="nonzero" stroke="none" stroke-width="1" stroke-linecap="butt" stroke-linejoin="miter" stroke-miterlimit="10" stroke-dasharray="" stroke-dashoffset="0" font-family="&quot;Neon&quot;, Sans Serif" font-weight="normal" text-anchor="start" style="mix-blend-mode: normal"><tspan x="0" dy="0">DTurtle</tspan></text></g></g></svg>