<svg version="1.1" xmlns="http://www.w3.org/2000/svg" xmlns:xlink="http://www.w3.org/1999/xlink" width="701.14531" height="446.58325" viewBox="0,0,701.14531,446.58325"><defs><linearGradient x1="293.15128" y1="109.32382" x2="293.15128" y2="312.15824" gradientUnits="userSpaceOnUse" id="color-1"><stop offset="0" stop-color="#ffa4f3"/><stop offset="1" stop-color="#ffd172"/></linearGradient><linearGradient x1="-4.26464" y1="46.36638" x2="-4.26464" y2="399.21924" gradientUnits="userSpaceOnUse" id="color-2"><stop offset="0" stop-color="#ffa4f3"/><stop offset="1" stop-color="#ffd172"/></linearGradient><linearGradient x1="585.2764" y1="46.36638" x2="585.2764" y2="399.21924" gradientUnits="userSpaceOnUse" id="color-3"><stop offset="0" stop-color="#ffa4f3"/><stop offset="1" stop-color="#ffd172"/></linearGradient></defs><g transform="translate(59.3135,38.55583)"><g data-paper-data="{&quot;isPaintingLayer&quot;:true}" fill-rule="nonzero" stroke-linejoin="miter" stroke-miterlimit="10" stroke-dasharray="" stroke-dashoffset="0" style="mix-blend-mode: normal"><path d="M-36.60659,376.69672v-117.11711h668.16817v117.11711z" fill="#664585" stroke="#3e0e6c" stroke-width="2.5" stroke-linecap="butt"/><path d="M-32.10209,107.92795v-114.11411h664.68931v114.11412z" fill="#664585" stroke="#3e0e6c" stroke-width="2.5" stroke-linecap="butt"/><path d="M96.27531,267.11321v-195.32694h384.74295v195.32694z" fill="url(#color-1)" stroke="#3e0e6c" stroke-width="2.5" stroke-linecap="butt"/><path d="M139.10946,213.39699l-45.36251,-73.8645l70.11316,-60.90378l53.937,78.68765z" fill-opacity="0.51373" fill="#ffd6ec" stroke="none" stroke-width="0" stroke-linecap="butt"/><path d="M237.78102,267.40815l-7.50469,-149.37813l114.26433,0.93809l-9.38086,148.44004z" fill="#3e0e6c" stroke="none" stroke-width="0" stroke-linecap="butt"/><path d="M-56.55581,405.22525l-1.5015,-358.85886l154.11491,25.68193v195.38288z" fill="url(#color-2)" stroke="#3e0e6c" stroke-width="2.5" stroke-linecap="butt"/><path d="M475.94515,267.4312v-195.38288l163.12391,-25.68193l1.5015,358.85887z" data-paper-data="{&quot;index&quot;:null}" fill="url(#color-3)" stroke="#3e0e6c" stroke-width="2.5" stroke-linecap="butt"/><g stroke="#3e0e6c" stroke-width="2.5" stroke-linecap="butt"><path d="M149.91637,276.96214c0.38085,5.84293 -12.00735,11.74895 -27.66983,13.19147c-15.66248,1.44252 -28.66817,-2.12472 -29.04902,-7.96764c-0.38085,-5.84293 12.00735,-11.74895 27.66983,-13.19147c15.66248,-1.44252 28.66817,2.12472 29.04902,7.96764z" fill="#ede1ff"/><path d="M146.9357,270.40617c0.5239,4.09838 -10.16722,8.84914 -23.87927,10.61114c-13.71206,1.76199 -25.25258,-0.13202 -25.77648,-4.2304c-0.5239,-4.09838 10.16722,-8.84915 23.87927,-10.61114c13.71206,-1.76199 25.25258,0.13202 25.77648,4.2304z" fill="#c4afe4"/><path d="M80.35405,237.00755c2.56389,1.51203 6.30241,3.44697 8.50088,3.34878c4.0092,-0.17905 11.65817,-6.11278 11.65817,-6.11278l-5.23444,34.68848c0,0 -7.79944,-1.11967 -11.98052,-5.4877c-0.14866,-0.15531 -3.72742,-26.89875 -2.94408,-26.43678z" fill="#c4afe4"/><path d="M76.88516,230.84878c1.05478,0.62205 3.70554,0.41639 6.49162,-0.05164c2.98783,-0.50192 6.13128,-1.3056 7.62889,-1.71382c0.5004,-0.1364 0.43685,-0.21167 0.53003,-0.23498c4.49285,-1.12403 5.5085,-0.76356 5.5085,-0.76356l-0.66602,39.35502c0,0 -4.43476,-3.17181 -9.17696,-6.57983c-3.17881,-2.28448 -6.49575,-4.6751 -8.7077,-6.28765c-1.44255,-1.05166 -2.50878,-24.25455 -1.60837,-23.72354z" fill="#ede1ff"/><path d="M76.88517,230.84877c-0.90041,-0.53101 15.24472,-4.15827 16.68727,-3.10661c5.51175,4.01819 5.40625,36.87562 5.40625,36.87562l-1.93448,-36.53301c0,0 -5.36106,7.98681 -5.56856,8.04702c-1.99515,0.57889 -12.26813,-3.91342 -14.59049,-5.28301z" fill="#c4afe4"/><path d="M132.4225,224.79105c0.13947,2.63389 -9.66147,5.21185 -21.89099,5.75802c-12.22953,0.54617 -22.93976,-2.91966 -23.07923,-5.55355c-0.13648,-2.57754 47.61583,-8.35003 47.87749,-8.36172c4.86364,-0.21721 21.77316,3.35404 20.31717,4.23348c-2.20507,1.33189 -23.30844,2.33736 -23.22444,3.92376z" fill="#ede1ff"/><path d="M99.28017,233.21626c0.29652,5.59981 6.58275,47.31911 5.11948,46.66136c-2.3052,-1.0362 -8.78154,-4.11755 -11.93474,-6.9997c-2.61648,-2.39156 -5.90586,-42.49435 -5.60527,-47.94612c0.03925,-0.71202 15.30209,3.92022 14.41276,4.06835c-1.51677,0.25264 -2.08299,2.50233 -1.99224,4.21611z" fill="#ede1ff"/><path d="M103.42617,278.12888c-0.47844,-9.03539 -3.9162,-40.57258 -4.21272,-46.17239c-0.09075,-1.71378 0.11214,-3.40608 1.62891,-3.65871c5.61764,-0.9357 40.63443,-5.97564 52.83667,-7.73479c2.63807,-0.38032 4.51099,1.1984 4.61501,3.16282c0.30635,5.78545 1.70285,34.72782 2.16286,44.27732c0.09275,1.92534 -1.84288,3.39389 -4.02293,3.75701c-6.57689,1.09548 -38.03877,6.41716 -49.23792,8.28255c-2.28444,0.38051 -3.68545,-0.31921 -3.76988,-1.91381z" fill="#ede1ff"/><path d="M111.41091,269.96762c-0.36807,-6.95111 -3.06048,-28.77835 -3.2886,-33.08639c-0.06981,-1.31844 0.08627,-2.62036 1.25315,-2.81472c4.32177,-0.71986 31.26091,-4.59718 40.64834,-5.95053c2.02952,-0.29259 3.4704,0.92195 3.55042,2.43322c0.23568,4.45086 1.18152,24.28972 1.53541,31.63635c0.07135,1.48121 -1.24158,2.60312 -2.91873,2.88248c-5.05973,0.84277 -29.26401,4.93685 -37.87975,6.37193c-1.75746,0.29273 -2.83529,-0.24558 -2.90025,-1.47233z" fill="#674a94"/></g><path d="M410.54559,181.36762l-10.27587,-88.34278c0,0 4.5348,-3.09614 9.70551,-2.96012c17.22051,0.453 111.65247,3.08883 142.48934,4.63416c6.00184,0.30077 11.14141,2.62265 11.14141,2.62265l-15.98351,93.16593z" fill="#3e0e6c" stroke="none" stroke-width="0" stroke-linecap="butt"/><path d="M503.52651,126.46916l8.85749,-131.32401l22.5127,-0.24876l-16.36218,131.32401z" fill="#3e0e6c" stroke="none" stroke-width="0" stroke-linecap="butt"/><path d="M451.5707,123.23364l-3.56951,-132.06346l19.73243,1.8759l-3.01518,131.52077z" data-paper-data="{&quot;index&quot;:null}" fill="#3e0e6c" stroke="none" stroke-width="0" stroke-linecap="butt"/><path d="M443.32909,261.65374c0.30133,-8.54458 2.9169,-28.13813 3.19876,-28.13962c0.08697,-0.00046 5.28392,-1.61853 7.43908,-1.28976c11.45162,1.74693 46.89659,7.11154 46.89659,8.01586c0,2.55224 -5.74138,27.79328 -6.59247,35.4416c-0.08471,0.76124 -2.05698,2.17088 -2.08028,2.59821c-0.05241,0.96132 -48.98132,-13.23372 -48.86168,-16.62628z" fill="#50298a" stroke="#3e0e6c" stroke-width="2.5" stroke-linecap="butt"/><path d="M443.51205,261.65374c-0.11964,3.39256 48.80927,16.31087 48.86168,15.34955c0.01033,-0.18957 0.77338,3.138 -0.4859,4.81194c-3.39725,4.51592 -15.34085,15.38737 -20.19856,18.90655c-1.28217,0.92887 -56.17639,-24.63428 -49.87918,-29.28965c1.46113,-1.08018 21.71572,-10.16893 21.70195,-9.77839z" fill="#50298a" stroke="#3e0e6c" stroke-width="2.5" stroke-linecap="butt"/><path d="M446.07926,260.36878c0.2518,-7.14041 2.59044,-24.14543 2.82598,-24.14668c0.07268,-0.00038 46.82974,8.24835 46.82974,9.00405c0,2.34511 -6.59616,25.45764 -6.81125,29.40254c-0.0438,0.80334 -42.94445,-11.42487 -42.84447,-14.25991z" fill="#3e0e6c" stroke="none" stroke-width="0" stroke-linecap="butt"/><path d="M486.81172,285.45299l-49.85168,-20.23729" fill="none" stroke="#3e0e6c" stroke-width="2.5" stroke-linecap="round"/><path d="M484.61633,276.30552" fill="none" stroke="#3e0e6c" stroke-width="2.5" stroke-linecap="round"/><path d="M481.82929,291.70052l-52.8295,-23.62771" fill="none" stroke="#3e0e6c" stroke-width="2.5" stroke-linecap="round"/><path d="M436.07256,271.22965l10.24515,-6.58617" fill="none" stroke="#3e0e6c" stroke-width="2.5" stroke-linecap="round"/><path d="M460.63055,269.47024l-8.61805,8.186" fill="none" stroke="#3e0e6c" stroke-width="2.5" stroke-linecap="round"/><path d="M478.47349,275.07919l-9.25631,10.21385" fill="none" stroke="#3e0e6c" stroke-width="2.5" stroke-linecap="round"/><path d="M432.51115,279.86692c0,0 3.16507,-2.48073 4.25366,-3.33395c0.67824,-0.53159 2.17717,-1.03581 3.05865,-0.6026c3.8915,1.91249 14.71254,7.23198 17.80397,8.76673c1.61366,0.80111 2.67813,2.20634 2.28257,2.6368c-0.91854,0.99958 -4.41768,4.98115 -4.41768,4.98115" fill="none" stroke="#3e0e6c" stroke-width="2.5" stroke-linecap="round"/><path d="M444.95928,283.53753l-2.55346,2.39387" fill="none" stroke="#3e0e6c" stroke-width="2.5" stroke-linecap="round"/><path d="M452.88772,267.27331c-0.79705,0.71735 -7.76884,6.52915 -7.76884,6.52915" fill="none" stroke="#3e0e6c" stroke-width="2.5" stroke-linecap="round"/><path d="M469.21719,272.52572l-8.45834,9.09671" fill="none" stroke="#3e0e6c" stroke-width="2.5" stroke-linecap="round"/><path d="M477.03717,288.32528l9.57548,-11.33099" fill="none" stroke="#3e0e6c" stroke-width="2.5" stroke-linecap="round"/><path d="M37.00764,177.20097c-1.69541,-17.03243 -2.82059,-33.59197 -2.91608,-54.27225c-0.0033,-0.7141 53.24087,-0.37712 53.20393,0.21389c-0.12154,1.94476 0.56426,29.16378 0.21016,34.77973c-0.03205,0.50835 -50.39578,20.30561 -50.498,19.27864z" fill="#54297c" stroke="#3e0e6c" stroke-width="2.5" stroke-linecap="butt"/><path d="M43.43715,171.373c-1.41674,-13.98708 -2.35699,-27.58582 -2.43678,-44.56852c-0.00276,-0.58642 44.48987,-0.3097 44.459,0.17564c-0.10156,1.59704 0.47152,23.94938 0.17562,28.56121c-0.02679,0.41746 -42.11241,16.67503 -42.19783,15.83167z" fill="#3e0e6c" stroke="none" stroke-width="0" stroke-linecap="butt"/><path d="M-49.22688,132.8973c2.67117,-7.38555 4.49437,-18.35303 4.49437,-34.34356c0,-31.38699 76.14013,-26.2224 105.75141,-49.3897c38.45241,-30.08444 33.4795,-84.24394 42.14649,-84.24394c3.28554,0 26.32744,-11.8688 33.03117,8.25722c7.42293,22.28522 -2.47036,77.68836 -22.04297,98.32067c-45.2872,47.73912 -170.1641,80.15546 -163.38047,61.39931z" fill="#3e0e6c" stroke="none" stroke-width="0" stroke-linecap="butt"/><path d="M288.4842,284.71025c112.07688,0 202.93315,18.93475 202.93315,42.29195c0,23.3572 -90.85627,42.29195 -202.93315,42.29195c-112.07688,0 -202.93315,-18.93475 -202.93315,-42.29195c0,-23.3572 90.85627,-42.29195 202.93315,-42.29195z" fill="#7b3bb7" stroke="#3e0e6c" stroke-width="2.5" stroke-linecap="butt"/><path d="M187.47359,235.67125c0,-9.47112 7.67786,-17.14898 17.14898,-17.14898c9.47112,0 17.14898,7.67786 17.14898,17.14898c0,9.47112 -7.67786,17.14898 -17.14898,17.14898c-9.47112,0 -17.14898,-7.67786 -17.14898,-17.14898z" fill-opacity="0.51373" fill="#ffd6ec" stroke="none" stroke-width="0" stroke-linecap="butt"/><path d="M205.92176,195.96451c0,-5.03153 4.07886,-9.1104 9.1104,-9.1104c5.03153,0 9.1104,4.07886 9.1104,9.1104c0,5.03153 -4.07886,9.1104 -9.1104,9.1104c-5.03153,0 -9.1104,-4.07886 -9.1104,-9.1104z" fill-opacity="0.51373" fill="#ffd6ec" stroke="none" stroke-width="0" stroke-linecap="butt"/><path d="M358.54668,183.74031l62.16506,4.28725l-12.86174,69.66774z" fill-opacity="0.51373" fill="#ffd6ec" stroke="none" stroke-width="0" stroke-linecap="butt"/><path d="M345.70232,115.54985l6.90874,-31.40336l31.40336,6.90874l-6.90874,31.40336z" fill-opacity="0.51373" fill="#ffd6ec" stroke="none" stroke-width="0" stroke-linecap="butt"/><path d="M545.22013,275.17246l-4.09277,-62.07367l38.19918,-38.88131z" fill-opacity="0.51373" fill="#ffd6ec" stroke="none" stroke-width="0" stroke-linecap="butt"/><path d="M22.7163,294.96249l-10.15576,-60.29219l10.15576,-60.29219l10.15576,60.29219z" fill-opacity="0.51373" fill="#ffd6ec" stroke="none" stroke-width="0" stroke-linecap="butt"/><path d="M60.95643,195.06079c0,-9.58468 4.19996,-17.3546 9.38086,-17.3546c5.18091,0 9.38086,7.76992 9.38086,17.3546c0,9.58468 -4.19996,17.3546 -9.38086,17.3546c-5.18091,0 -9.38086,-7.76992 -9.38086,-17.3546z" fill-opacity="0.51373" fill="#ffd6ec" stroke="none" stroke-width="0" stroke-linecap="butt"/><path d="M435.20572,198.2912c0,-2.17516 1.76332,-3.93848 3.93848,-3.93848c2.17516,0 3.93848,1.76332 3.93848,3.93848c0,2.17516 -1.76332,3.93848 -3.93848,3.93848c-2.17516,0 -3.93848,-1.76332 -3.93848,-3.93848z" fill-opacity="0.51373" fill="#ffd6ec" stroke="none" stroke-width="0" stroke-linecap="butt"/></g></g></svg>