<svg version="1.1" xmlns="http://www.w3.org/2000/svg" xmlns:xlink="http://www.w3.org/1999/xlink" width="97.88579" height="97.88579" viewBox="0,0,97.88579,97.88579"><g transform="translate(-271.0571,-131.05711)"><g data-paper-data="{&quot;isPaintingLayer&quot;:true}" fill-rule="nonzero" stroke-linecap="butt" stroke-linejoin="miter" stroke-miterlimit="10" stroke-dasharray="" stroke-dashoffset="0" style="mix-blend-mode: normal"><path d="M322.8518,169.28722c-4.26566,-0.67253 -16.62446,-1.38583 -16.02765,-5.17125c0.59682,-3.78542 6.47426,-10.33195 18.1889,-8.53697c4.26854,0.65404 7.23985,4.2864 6.64304,8.07182c-0.59681,3.78542 -4.53862,6.30893 -8.80428,5.6364z" fill="#ffc39f" stroke="#843500" stroke-width="2.5"/><path d="M323.05589,190.68836c4.26566,-0.67253 8.20748,1.85098 8.80429,5.63639c0.59681,3.78542 -2.37451,7.41779 -6.64305,8.07183c-11.71464,1.79498 -17.59208,-4.75156 -18.1889,-8.53698c-0.59681,-3.78542 11.76199,-4.49872 16.02765,-5.17125z" data-paper-data="{&quot;index&quot;:null}" fill="#ffc39f" stroke="#843500" stroke-width="2.5"/><path d="" fill="#8b65ae" stroke="#5c00aa" stroke-width="2.5"/><path d="" fill="#a17cc4" stroke="#5c00aa" stroke-width="2.5"/><path d="" data-paper-data="{&quot;index&quot;:null}" fill="#b867ff" stroke="#5c00aa" stroke-width="2.5"/><path d="" data-paper-data="{&quot;index&quot;:null}" fill="#ffc374" stroke="none" stroke-width="0"/><path d="" data-paper-data="{&quot;index&quot;:null}" fill="none" stroke="#5c00aa" stroke-width="2.5"/><path d="" fill="#a17cc4" stroke="#5c00aa" stroke-width="2.5"/><path d="M318.7143,199.9922c-11.0414,0 -19.99222,-8.95082 -19.99222,-19.99222c0,-11.0414 8.95082,-19.99222 19.99222,-19.99222c11.0414,0 18.35957,8.95082 18.35957,19.99222c0,11.0414 -7.31817,19.99222 -18.35957,19.99222z" fill="#ffc39f" stroke="#843500" stroke-width="2.5"/><path d="M327.97407,164.68253c2.55049,0 4.61808,3.25174 4.61808,7.26297c0,4.01123 -1.89965,6.25539 -4.45014,6.25539c-2.55049,0 -4.78601,-2.24416 -4.78601,-6.25539c0,-4.01123 2.06759,-7.26297 4.61808,-7.26297z" fill="#ffffff" stroke="#843500" stroke-width="2.5"/><path d="M323.6079,186.80735c0,-4.01123 2.23551,-6.2554 4.786,-6.2554c2.55049,0 4.45014,2.24417 4.45014,6.2554c0,4.01123 -2.06758,7.26297 -4.61807,7.26297c-2.55049,0 -4.61808,-3.25174 -4.61808,-7.26297z" data-paper-data="{&quot;index&quot;:null}" fill="#ffffff" stroke="#843500" stroke-width="2.5"/><path d="M328.56183,165.94203c1.39118,0 2.51895,2.57926 2.51895,5.76093c0,3.18167 -1.12777,5.15452 -2.51895,5.15452c-1.39118,0 -2.51895,-1.97285 -2.51895,-5.15452c0,-3.18167 1.12777,-5.76093 2.51895,-5.76093z" fill="#843500" stroke="none" stroke-width="0"/><path d="M326.29478,187.21781c0,-3.18167 1.12777,-5.15452 2.51895,-5.15452c1.39118,0 2.51895,1.97285 2.51895,5.15452c0,3.18167 -1.12777,5.76093 -2.51895,5.76093c-1.39118,0 -2.51895,-2.57926 -2.51895,-5.76093z" data-paper-data="{&quot;index&quot;:null}" fill="#843500" stroke="none" stroke-width="0"/><path d="M333.84722,179.07032c0,-1.93474 0.4797,-3.50316 1.07143,-3.50316c0.59174,0 1.68368,1.56842 1.68368,3.50316c0,1.93472 -1.09195,3.50314 -1.68368,3.50314c-0.59174,0 -1.07143,-1.5684 -1.07143,-3.50314z" fill="#843500" stroke="none" stroke-width="0"/><path d="M368.9429,228.94291h-97.88579v-97.88579l97.88579,0z" fill="none" stroke="none" stroke-width="0"/></g></g></svg>