<svg version="1.1" xmlns="http://www.w3.org/2000/svg" xmlns:xlink="http://www.w3.org/1999/xlink" width="202.1497" height="119.06088" viewBox="0,0,202.1497,119.06088"><g transform="translate(-189.69623,-285.73749)"><g data-paper-data="{&quot;isPaintingLayer&quot;:true}" fill="#ff8dae" fill-rule="nonzero" stroke="#54002b" stroke-width="2.5" stroke-linecap="butt" stroke-linejoin="miter" stroke-miterlimit="10" stroke-dasharray="" stroke-dashoffset="0" style="mix-blend-mode: normal"><path d="M364.78362,286.98749c15.44925,0 25.81231,20.71872 25.81231,54.81824c0,34.09952 -12.52409,61.74264 -27.97334,61.74264c-15.44925,0 -46.78669,-19.92141 -46.78669,-54.02093c0,-34.09952 33.49847,-62.53995 48.94772,-62.53995z"/><path d="M265.70626,349.52744c0,34.09952 -31.33745,54.02093 -46.7867,54.02093c-15.44925,0 -27.97333,-27.64313 -27.97333,-61.74265c0,-34.09952 10.36306,-54.81823 25.81231,-54.81823c15.44925,0 48.94773,28.44043 48.94773,62.53995z" data-paper-data="{&quot;index&quot;:null}"/><path d="M244.25108,344.84693c0,-26.37136 21.37821,-47.74957 47.74957,-47.74957c26.37136,0 47.74957,21.37821 47.74957,47.74957c0,26.37136 -21.37821,47.74957 -47.74957,47.74957c-26.37136,0 -47.74957,-21.37821 -47.74957,-47.74957z"/></g></g></svg>