<svg version="1.1" xmlns="http://www.w3.org/2000/svg" xmlns:xlink="http://www.w3.org/1999/xlink" width="129.28213" height="126.68236" viewBox="0,0,129.28213,126.68236"><defs><radialGradient cx="404.91394" cy="174.25507" r="54.76369" gradientUnits="userSpaceOnUse" id="color-1"><stop offset="0" stop-color="#3e0e6b" stop-opacity="0.51373"/><stop offset="1" stop-color="#3e0e6b" stop-opacity="0"/></radialGradient><linearGradient x1="410.856" y1="155.29875" x2="405.63151" y2="192.33952" gradientUnits="userSpaceOnUse" id="color-2"><stop offset="0" stop-color="#f2b34d"/><stop offset="1" stop-color="#f2544e"/></linearGradient><linearGradient x1="410.56304" y1="157.3758" x2="405.92447" y2="190.26247" gradientUnits="userSpaceOnUse" id="color-3"><stop offset="0" stop-color="#b9643b"/><stop offset="1" stop-color="#cb4641"/></linearGradient><linearGradient x1="410.38619" y1="158.62963" x2="406.10132" y2="189.00864" gradientUnits="userSpaceOnUse" id="color-4"><stop offset="0" stop-color="#f2b34d"/><stop offset="1" stop-color="#f2544e"/></linearGradient></defs><g transform="translate(-345.20588,-114.60592)"><g data-paper-data="{&quot;isPaintingLayer&quot;:true}" fill-rule="nonzero" stroke-linecap="butt" stroke-linejoin="miter" stroke-miterlimit="10" stroke-dasharray="" stroke-dashoffset="0" style="mix-blend-mode: normal"><path d="M350.15025,174.25507c0,-30.24515 24.51854,-54.76369 54.76369,-54.76369c30.24515,0 54.76369,24.51854 54.76369,54.76369c0,30.24515 -24.51854,54.76369 -54.76369,54.76369c-30.24515,0 -54.76369,-24.51854 -54.76369,-54.76369z" fill="url(#color-1)" stroke="none" stroke-width="0"/><path d="M355.20755,215.33359c0.84315,0.31186 -1.80435,3.07209 -1.66571,3.12821c0.19314,0.07817 9.09355,-6.86855 13.74023,-13.23266c0.45939,-0.62919 1.06705,-0.18841 1.52974,-0.82313c5.12165,-7.0259 12.07021,-15.42553 12.24365,-15.48901c5.41258,-1.98101 13.07363,8.13957 12.96169,9.14285c-0.00504,0.04514 -11.07044,9.21777 -18.25212,16.41244c-0.37911,0.3798 0.49218,0.55407 0.11527,0.93069c-5.38232,5.37804 -12.4661,10.25439 -13.93127,11.37203c-3.49673,2.6673 -15.33672,3.24098 -15.49315,-0.49506c-0.22279,-5.32076 4.02618,-13.94628 4.74317,-17.44977c0.05907,-0.28866 3.78868,6.42211 4.00849,6.50341z" data-paper-data="{&quot;index&quot;:null}" fill="#915c9c" stroke="#3e0e6c" stroke-width="2.5"/><path d="M359.50532,135.74317c-0.2828,-3.5649 -3.44417,-12.64559 -2.57186,-17.8991c0.61251,-3.68882 12.29329,-1.67036 15.43728,1.40485c1.31737,1.28856 7.75108,6.99522 12.43472,12.99156c0.32799,0.41992 -0.55808,0.48624 -0.22831,0.90958c6.24714,8.01954 16.10672,18.47749 16.1062,18.5229c-0.01168,1.00944 -8.85378,10.11631 -13.98322,7.48776c-0.16436,-0.08423 -6.03268,-9.27113 -10.25593,-16.87104c-0.38154,-0.68658 -1.03857,-0.32349 -1.41751,-1.00417c-3.83285,-6.88496 -11.81615,-14.86877 -12.0174,-14.81482c-0.14447,0.03874 2.14531,3.10223 1.27033,3.30855c-0.22811,0.05379 -4.75101,6.25764 -4.7743,5.96393z" data-paper-data="{&quot;index&quot;:null}" fill="#915c9c" stroke="#3e0e6c" stroke-width="2.5"/><path d="M458.4603,220.41528c-0.12793,3.57382 1.97105,12.95718 0.50194,18.07595c-1.03156,3.59421 -12.40374,0.24935 -15.17427,-3.16616c-1.16089,-1.43114 -6.89761,-7.83806 -10.86259,-14.33203c-0.27766,-0.45476 0.61017,-0.41902 0.33112,-0.87739c-5.28611,-8.68313 -13.88115,-20.20292 -13.87542,-20.24797c0.12739,-1.00144 9.95565,-9.03406 14.74975,-5.83453c0.15362,0.10253 4.92951,9.90186 8.25322,17.93601c0.30027,0.72582 0.99462,0.44047 1.29298,1.16012c3.01788,7.27914 10.0328,16.1259 10.23891,16.09539c0.14796,-0.02191 -1.77534,-3.32782 -0.88247,-3.43242c0.23277,-0.02726 5.43737,-5.67142 5.42683,-5.37697z" data-paper-data="{&quot;index&quot;:null}" fill="#915c9c" stroke="#3e0e6c" stroke-width="2.5"/><path d="M464.32666,136.91218c-0.83848,-0.3242 1.84924,-3.04528 1.71144,-3.10343c-0.19197,-0.081 -9.19337,6.73436 -13.93294,13.02959c-0.46857,0.62238 -1.0697,0.17272 -1.54167,0.80059c-5.2242,6.94998 -12.29528,15.24674 -12.46963,15.30766c-5.44108,1.90136 -12.95278,-8.33055 -12.82612,-9.33208c0.0057,-0.04506 11.20452,-9.05432 18.491,-16.14283c0.38464,-0.3742 -0.484,-0.56124 -0.1016,-0.93228c5.46066,-5.29847 12.61523,-10.07034 14.09665,-11.16635c3.53549,-2.6157 15.38263,-3.01556 15.48422,0.72237c0.14468,5.32346 -4.23041,13.88569 -4.99874,17.37828c-0.0633,0.28776 -3.69403,-6.47702 -3.91262,-6.56153z" data-paper-data="{&quot;index&quot;:null}" fill="#915c9c" stroke="#3e0e6c" stroke-width="2.5"/><path d="" data-paper-data="{&quot;index&quot;:null}" fill="#915c9c" stroke="#3e0e6c" stroke-width="2.5"/><g><g><path d="M435.83784,177.84747c-2.18549,15.4947 -16.23076,26.32448 -31.37101,24.18899c-15.14024,-2.13549 -25.64216,-16.42758 -23.45667,-31.92228c2.18549,-15.4947 16.23076,-26.32448 31.371,-24.18899c15.14024,2.13549 25.64216,16.42758 23.45667,31.92228z" fill="#762e36" stroke="#3e0e6c" stroke-width="2.5"/><g fill="#4e175c" stroke="none" stroke-width="0"><g><g><path d="M407.76691,150.6139c-0.02848,-1.02838 1.52472,-1.90338 3.46918,-1.95436c1.94446,-0.05098 3.54383,0.74137 3.57231,1.76975c0.02125,0.76716 -2.90927,4.32483 -3.40317,4.33778c-0.88592,0.02323 -3.62281,-3.59335 -3.63831,-4.15318z"/><path d="M415.27916,150.49935c0.41456,-0.9286 2.1772,-0.96371 3.93694,-0.07842c1.75974,0.88528 2.85021,2.35572 2.43565,3.28431c-0.30926,0.69273 -4.45076,2.45544 -4.89774,2.23058c-0.80176,-0.40335 -1.70053,-4.93096 -1.47485,-5.43648z"/><path d="M422.07845,153.94317c0.61085,-0.7976 2.33321,-0.3909 3.84703,0.90838c1.51382,1.29929 2.24582,2.99917 1.63498,3.79678c-0.45569,0.59502 -4.87823,1.27023 -5.26275,0.9402c-0.68972,-0.59198 -0.5518,-5.21114 -0.21926,-5.64535z"/><path d="M430.92603,161.67466c0.7971,1.88052 0.72401,3.74327 -0.16323,4.16055c-0.66187,0.3113 -4.9036,-1.20464 -5.10607,-1.68231c-0.36317,-0.8568 1.73653,-4.9005 2.21953,-5.12767c0.88724,-0.41728 2.25267,0.76891 3.04977,2.64943z"/><path d="M431.8394,166.33582c0.97179,0.04795 1.69317,1.75285 1.61127,3.80801c-0.0819,2.05517 -0.93609,3.68234 -1.90787,3.6344c-0.72494,-0.03577 -3.8843,-3.3971 -3.8635,-3.91912c0.03732,-0.93637 3.63109,-3.54939 4.16011,-3.52329z"/></g><g data-paper-data="{&quot;index&quot;:null}"><path d="M407.68683,150.31784c0.0155,0.55983 -2.51723,4.31454 -3.40316,4.33777c-0.4939,0.01295 -3.61708,-3.386 -3.63833,-4.15317c-0.02848,-1.02838 1.52471,-1.90338 3.46917,-1.95436c1.94446,-0.05098 3.54383,0.74137 3.57232,1.76975z"/><path d="M400.17916,150.59707c0.25333,0.49295 -0.39354,5.06109 -1.17182,5.50587c-0.43389,0.24796 -4.66695,-1.29521 -5.0141,-1.97072c-0.46535,-0.90553 0.54216,-2.43096 2.25035,-3.40717c1.70819,-0.97621 3.47021,-1.03351 3.93556,-0.12798z"/><path d="M393.58034,154.39218c0.35609,0.41615 0.74947,5.02139 0.09352,5.64865c-0.3657,0.34969 -4.81919,-0.09283 -5.30715,-0.66309c-0.65411,-0.76444 -0.01724,-2.5002 1.42246,-3.87692c1.4397,-1.37672 3.13706,-1.87307 3.79117,-1.10863z"/><path d="M388.07222,159.77063c0.49487,0.20153 2.81534,4.12937 2.50013,5.00394c-0.17573,0.48757 -4.32741,2.22357 -5.00555,1.94741c-0.90904,-0.37019 -1.08512,-2.2264 -0.39326,-4.14596c0.69185,-1.91956 1.98964,-3.17558 2.89869,-2.80539z"/><path d="M384.51945,167.27827c0.52681,-0.05378 4.26,2.36714 4.34909,3.3002c0.04966,0.52017 -2.91907,4.04217 -3.64099,4.11587c-0.96772,0.09879 -1.91073,-1.48127 -2.10626,-3.52916c-0.19553,-2.04789 0.43045,-3.78812 1.39817,-3.88691z"/></g></g><g data-paper-data="{&quot;index&quot;:null}"><g><path d="M408.19433,197.22613c-0.002,-0.56004 2.62055,-4.25643 3.50679,-4.2596c0.49408,-0.00177 3.53445,3.46695 3.53719,4.2344c0.00368,1.02875 -1.57018,1.86837 -3.51532,1.87533c-1.94515,0.00696 -3.52498,-0.82137 -3.52866,-1.85012z"/><path d="M415.70666,197.11688c-0.24138,-0.49856 0.51542,-5.05083 1.30421,-5.47787c0.43975,-0.23807 4.63441,1.40046 4.96519,2.08365c0.4434,0.91582 -0.60061,2.41805 -2.33185,3.35534c-1.73125,0.93729 -3.49415,0.9547 -3.93755,0.03888z"/><path d="M422.39512,193.47212c-0.34596,-0.4241 -0.62822,-5.03701 0.04267,-5.64925c0.37402,-0.34133 4.81561,0.20185 5.28969,0.78302c0.63549,0.77903 -0.04303,2.49993 -1.51552,3.8437c-1.47249,1.34377 -3.18135,1.80157 -3.81684,1.02254z"/><path d="M428.03136,188.21976c-0.48988,-0.21267 -2.715,-4.19196 -2.37879,-5.05918c0.18744,-0.48347 4.3798,-2.12505 5.05109,-1.83361c0.89988,0.39067 1.03116,2.25035 0.29322,4.15374c-0.73794,1.90339 -2.06565,3.12971 -2.96552,2.73905z"/><path d="M431.76413,180.79452c-0.52796,0.04184 -4.20175,-2.46292 -4.26832,-3.39774c-0.03711,-0.52115 3.0157,-3.97502 3.73919,-4.03236c0.96983,-0.07686 1.87448,1.52411 2.0206,3.57587c0.14612,2.05176 -0.52164,3.77736 -1.49147,3.85422z"/></g><g data-paper-data="{&quot;index&quot;:null}"><path d="M404.60822,199.39975c-1.94515,0.00696 -3.52498,-0.82136 -3.52866,-1.85011c-0.00275,-0.76745 3.01272,-4.25784 3.5068,-4.25961c0.88624,-0.00317 3.53519,3.67436 3.53719,4.2344c0.00368,1.02875 -1.57018,1.86836 -3.51533,1.87532z"/><path d="M396.6729,197.45825c-1.73791,-0.92487 -2.79265,-2.4196 -2.35581,-3.33856c0.32587,-0.68554 4.50871,-2.35405 4.95015,-2.11913c0.79183,0.42138 1.58119,4.96812 1.34339,5.46839c-0.43684,0.91896 -2.19982,0.91418 -3.93773,-0.01069z"/><path d="M390.07219,192.87695c-1.48207,-1.3332 -2.1729,-3.04919 -1.543,-3.83275c0.46991,-0.58454 4.9075,-1.15949 5.28395,-0.82085c0.67525,0.60742 0.42601,5.22224 0.0831,5.64881c-0.6299,0.78357 -2.34199,0.33801 -3.82406,-0.9952z"/><path d="M385.23751,185.9425c-0.75154,-1.89806 -0.63356,-3.75864 0.26349,-4.15573c0.66919,-0.29623 4.8732,1.31529 5.0641,1.79741c0.34241,0.86479 -1.85418,4.8599 -2.34252,5.07608c-0.89705,0.3971 -2.23352,-0.81969 -2.98506,-2.71775z"/><path d="M382.91773,177.41847c0.13142,-2.05276 1.0246,-3.66016 1.99495,-3.59024c0.72388,0.05216 3.80135,3.48409 3.76797,4.0055c-0.05987,0.93527 -3.71566,3.46625 -4.2439,3.42819c-0.97035,-0.06992 -1.65044,-1.79068 -1.51902,-3.84345z"/></g></g></g><g><path d="M389.86483,171.22684c1.4427,-10.22852 10.84078,-17.35977 20.99118,-15.92809c10.1504,1.43168 17.20939,10.88416 15.76668,21.11269c-1.4427,10.22852 -10.84078,17.35977 -20.99118,15.92809c-10.1504,-1.43168 -17.20938,-10.88416 -15.76668,-21.11268z" fill="url(#color-2)" stroke="#3e0e6c" stroke-width="2.5"/><path d="M391.92601,171.51756c1.28091,-9.0814 9.62499,-15.41289 18.63703,-14.14176c9.01204,1.27113 15.27936,9.6635 13.99846,18.7449c-1.28091,9.0814 -9.625,15.41289 -18.63703,14.14176c-9.01204,-1.27113 -15.27936,-9.66351 -13.99845,-18.74491z" fill="url(#color-3)" stroke="none" stroke-width="0"/><path d="M393.17027,171.69306c1.18324,-8.38893 8.89107,-14.23763 17.21592,-13.06343c8.32486,1.17419 14.11429,8.92665 12.93105,17.31558c-1.18324,8.38893 -8.89107,14.23762 -17.21593,13.06342c-8.32486,-1.17419 -14.11428,-8.92665 -12.93105,-17.31557z" fill="url(#color-4)" stroke="none" stroke-width="0"/></g><path d="M377.06309,170.65691c1.31527,-9.32502 6.02152,-16.94467 12.76469,-21.72266c0.39664,-0.28105 -0.24817,-1.07418 0.16228,-1.33533c5.92203,-3.76784 14.30222,-4.91899 22.21597,-3.80278c0.60994,0.08603 1.52447,-0.70582 2.11795,-0.59387c9.18804,1.73302 16.44329,6.99957 20.67621,13.93361c0.2844,0.46588 0.99923,0.44057 1.25577,0.92061c3.03541,5.67998 3.67,12.83279 2.65028,20.06243c-0.13035,0.92416 1.27361,1.30325 1.07254,2.18938c-1.70303,7.50536 -6.34833,14.51009 -12.47306,18.73612c-0.54794,0.37808 -0.99833,-0.04157 -1.57083,0.30403c-6.59786,3.98291 -14.76749,5.77499 -23.14727,4.59305c-0.57022,-0.08043 -1.17365,0.08704 -1.73624,-0.01835c-11.57506,-2.16845 -20.78688,-10.24434 -24.11294,-19.3103c-0.35417,-0.96536 0.84626,-0.46926 0.59803,-1.49262c-0.92249,-3.80297 -1.10399,-7.99231 -0.47337,-12.46332zM404.98731,199.0093c13.67179,1.92837 26.31822,-7.59155 28.24659,-21.26335c1.92837,-13.6718 -7.59156,-26.31822 -21.26335,-28.24659c-13.67179,-1.92837 -26.31822,7.59156 -28.24659,21.26335c-1.92837,13.6718 7.59156,26.31822 21.26335,28.24659z" fill="#75587b" stroke="#3e0e6c" stroke-width="2.5"/><g fill="#ffe1da" stroke="#3e0e6c" stroke-width="2.5"><g><g><path d="M415.21211,147.93247c2.04323,0.24117 3.59746,1.31287 3.47151,2.39372c-0.09397,0.80631 -3.7006,4.08667 -4.21958,4.02541c-0.93093,-0.10988 -3.24815,-4.31035 -3.17958,-4.89875c0.12595,-1.08085 1.88442,-1.76155 3.92765,-1.52038z"/><path d="M419.16581,150.47086c0.57463,-0.90928 2.42512,-0.67905 4.13316,0.51425c1.70803,1.1933 2.62685,2.89776 2.05221,3.80704c-0.42868,0.67831 -5.0311,1.89623 -5.46495,1.59313c-0.77821,-0.54369 -1.03325,-5.41943 -0.72043,-5.91443z"/><path d="M425.76182,155.10586c0.76026,-0.74243 2.50168,-0.05579 3.88956,1.53364c1.38788,1.58943 1.89668,3.47979 1.13642,4.22221c-0.56716,0.55385 -5.29906,0.59079 -5.65159,0.18706c-0.63234,-0.72418 0.21172,-5.53874 0.6256,-5.94291z"/><path d="M433.85255,164.53954c0.54956,2.08932 0.1909,4.02821 -0.80109,4.33064c-0.74002,0.22561 -4.95074,-2.00382 -5.09033,-2.53452c-0.25038,-0.95193 2.56014,-4.86693 3.10017,-5.03157c0.99199,-0.30243 2.24169,1.14613 2.79125,3.23545z"/><path d="M434.10266,169.55731c1.01001,0.19739 1.50693,2.0914 1.10989,4.23038c-0.39705,2.13898 -1.53771,3.71296 -2.54773,3.51557c-0.75347,-0.14725 -3.55162,-4.14453 -3.45077,-4.68784c0.1809,-0.97456 4.33877,-3.16556 4.8886,-3.05811z"/></g><g data-paper-data="{&quot;index&quot;:null}"><path d="M411.24546,149.13081c-0.06857,0.5884 -3.28865,4.13528 -4.21958,4.0254c-0.51898,-0.06126 -3.27355,-4.09244 -3.17958,-4.89875c0.12595,-1.08085 1.88442,-1.76155 3.92764,-1.52038c2.04323,0.24117 3.59747,1.31288 3.47152,2.39373z"/><path d="M403.34395,148.2859c0.19052,0.55441 -1.17859,5.23846 -2.06068,5.58617c-0.49176,0.19385 -4.68928,-2.06277 -4.95036,-2.8225c-0.34999,-1.01842 0.93577,-2.46266 2.87181,-3.22584c1.93604,-0.76317 3.78925,-0.55625 4.13923,0.46216z"/><path d="M395.8613,151.25916c0.30973,0.48958 0.02395,5.37004 -0.75773,5.92731c-0.43579,0.31067 -5.03078,-0.82715 -5.45521,-1.49804c-0.56894,-0.89932 0.36068,-2.61988 2.07632,-3.84299c1.71565,-1.22311 3.56767,-1.48559 4.13662,-0.58628z"/><path d="M389.28057,156.05511c0.48751,0.28592 2.32167,4.74917 1.85922,5.61695c-0.25781,0.48379 -4.86685,1.6722 -5.53491,1.28039c-0.89553,-0.52523 -0.7987,-2.49502 0.21632,-4.39966c1.01502,-1.90464 2.56384,-3.0229 3.45937,-2.49768z"/><path d="M384.42423,163.37614c0.55962,0.02351 4.1009,3.12326 4.05283,4.1135c-0.02681,0.55205 -3.66804,3.78927 -4.43492,3.75707c-1.02799,-0.04317 -1.77583,-1.84005 -1.67031,-4.01344c0.10552,-2.17339 1.0244,-3.90029 2.0524,-3.85712z"/></g></g><g data-paper-data="{&quot;index&quot;:null}"><g><path d="M404.67133,198.31241c0.08274,-0.58657 3.388,-4.05879 4.31622,-3.92787c0.51748,0.07299 3.17479,4.16467 3.06142,4.96847c-0.15197,1.07748 -1.92672,1.71801 -3.964,1.43066c-2.03728,-0.28735 -3.56561,-1.39377 -3.41364,-2.47125z"/><path d="M412.55197,199.33597c-0.17716,-0.55846 1.30464,-5.20926 2.19504,-5.53682c0.4964,-0.18261 4.63929,2.16803 4.88206,2.93331c0.32545,1.02586 -0.995,2.4403 -2.94929,3.15923c-1.95429,0.71893 -3.80237,0.47013 -4.12781,-0.55573z"/><path d="M420.1057,196.53367c-0.29791,-0.49636 0.10535,-5.36802 0.90039,-5.90731c0.44324,-0.30065 5.01052,0.94074 5.41877,1.62093c0.54724,0.91178 -0.42373,2.61046 -2.16871,3.79411c-1.74498,1.18365 -3.60321,1.40404 -4.15045,0.49227z"/><path d="M426.80145,191.88912c-0.48061,-0.29683 -2.20716,-4.7995 -1.72384,-5.65639c0.26945,-0.47771 4.90678,-1.56112 5.56536,-1.15436c0.88284,0.54527 0.73856,2.51192 -0.32225,4.39265c-1.06081,1.88073 -2.63644,2.96336 -3.51927,2.41809z"/><path d="M431.83373,184.68162c-0.55901,-0.03617 -4.02542,-3.2147 -3.95351,-4.20337c0.0401,-0.55119 3.75903,-3.70434 4.52508,-3.65478c1.02688,0.06644 1.73139,1.87941 1.57356,4.04938c-0.15783,2.16997 -1.11825,3.87521 -2.14513,3.80877z"/></g><g data-paper-data="{&quot;index&quot;:null}"><path d="M400.58806,200.0446c-2.03728,-0.28735 -3.56562,-1.39377 -3.41364,-2.47125c0.11338,-0.8038 3.79874,-4.00086 4.31622,-3.92787c0.92822,0.13092 3.14415,4.3819 3.06142,4.96847c-0.15197,1.07748 -1.92671,1.71801 -3.96399,1.43065z"/><path d="M392.57526,196.81019c-1.67919,-1.23143 -2.5569,-2.95591 -1.96041,-3.85173c0.44497,-0.66827 5.07641,-1.78133 5.50293,-1.46855c0.76507,0.56106 0.90269,5.44026 0.57797,5.92793c-0.59649,0.89582 -2.4413,0.62377 -4.1205,-0.60766z"/><path d="M386.35942,191.01455c-1.34952,-1.62013 -1.81276,-3.5211 -1.03468,-4.24595c0.58045,-0.54073 5.31292,-0.47043 5.65571,-0.05891c0.61487,0.73815 -0.34507,5.5313 -0.76864,5.92589c-0.77808,0.72484 -2.50286,-0.00091 -3.85238,-1.62104z"/><path d="M382.34876,183.02307c-0.49923,-2.10077 -0.09391,-4.03061 0.9053,-4.31042c0.7454,-0.20873 4.90215,2.11505 5.02896,2.64866c0.22745,0.95714 -2.67716,4.8066 -3.22111,4.95892c-0.99921,0.27981 -2.21393,-1.19639 -2.71315,-3.29717z"/><path d="M381.21152,173.74852c0.44852,-2.12897 1.627,-3.67635 2.6322,-3.45617c0.74987,0.16425 3.45159,4.22303 3.33767,4.7638c-0.20435,0.97 -4.41469,3.06574 -4.9619,2.94588c-1.0052,-0.22018 -1.45649,-2.12454 -1.00797,-4.25351z"/></g></g></g></g><path d="M409.19042,174.42509c-0.4826,3.42157 -2.29487,10.13472 -2.53226,10.10123c-0.24576,-0.03466 -0.111,-7.06501 0.36045,-10.40756c0.51267,-3.63472 2.31742,-10.13153 2.53225,-10.10122c0.17017,0.024 0.2117,6.35116 -0.36044,10.40755z" fill="#3e0e6c" stroke="none" stroke-width="0"/></g></g></g></svg>