<svg version="1.1" xmlns="http://www.w3.org/2000/svg" xmlns:xlink="http://www.w3.org/1999/xlink" width="312.31232" height="338.70968" viewBox="0,0,312.31232,338.70968"><g transform="translate(-172.1021,-9.89441)"><g data-paper-data="{&quot;isPaintingLayer&quot;:true}" fill-rule="nonzero" stroke-linejoin="miter" stroke-miterlimit="10" stroke-dasharray="" stroke-dashoffset="0" style="mix-blend-mode: normal"><path d="M334.23638,156.43458c0.52262,-6.42991 -3.92684,-11.63809 1.27381,-11.21538c0.90495,0.07355 20.39448,-0.35741 22.74984,3.56598c1.40206,2.33548 1.48596,10.72204 -3.48227,15.88715c-1.21738,1.26563 -14.5169,-3.43336 -15.49828,-3.51312c0,0 -5.56572,1.70528 -5.04312,-4.72461z" fill="#8194ff" stroke="#252674" stroke-width="2.5" stroke-linecap="butt"/><path d="M226.54787,103.76186c-1.67418,-1.69417 -11.89123,-8.16092 -12.69064,-13.10251c-0.83787,-5.17934 6.28331,-13.06434 11.72423,-16.73374c2.49534,-1.68287 14.38045,12.66121 15.91469,11.18758c1.28466,-1.23389 1.46558,-4.31911 2.48543,-6.06668c0.37948,-0.65027 1.95936,-1.41462 2.19306,-1.39819c2.74206,0.19264 6.72236,4.87156 7.0931,5.46249c1.99855,3.1855 -2.60866,16.20925 -5.44634,19.28297c-0.76738,0.83122 -1.92337,1.92263 -3.01046,2.59276c-5.85276,3.60788 -14.02944,3.05956 -18.2631,-1.22469z" fill="#8194ff" stroke="#252674" stroke-width="2.5" stroke-linecap="butt"/><path d="M429.4012,166.08492c-0.37982,-1.21924 -0.53495,-2.80147 -0.56787,-3.93226c-0.12176,-4.18154 4.95578,-17.02925 8.55485,-18.11933c0.66767,-0.20222 6.742,-1.11727 8.93653,0.53805c0.18707,0.14108 0.87664,1.75499 0.73584,2.49459c-0.37842,1.98769 -2.26789,4.43332 -2.10927,6.20749c0.18942,2.11885 18.57221,-0.89474 19.34908,2.01308c1.6939,6.34026 1.88682,16.96322 -2.14618,20.3192c-3.84787,3.20193 -15.79987,1.36989 -18.17503,1.54824c-6.00626,0.45103 -12.53306,-4.50475 -14.57798,-11.06904z" data-paper-data="{&quot;index&quot;:null}" fill="#8194ff" stroke="#252674" stroke-width="2.5" stroke-linecap="butt"/><path d="M258.45283,90.56277c0.10108,0.20786 74.01648,66.24499 73.70149,66.39818c-1.12857,0.54888 -4.53697,11.97864 -7.3748,11.46665c-1.03801,-0.18726 -63.33126,-35.80225 -89.89966,-52.58597c-7.75406,-4.89837 -9.27494,-9.40123 -9.29963,-9.45201c-1.26181,-2.59451 31.6108,-18.42138 32.8726,-15.82687z" fill="#475ac7" stroke="#252674" stroke-width="2.5" stroke-linecap="butt"/><path d="M429.29898,145.64137c2.65535,-1.12816 17.05445,32.39443 14.39909,33.52257c-0.05197,0.02208 -4.15586,2.41937 -13.22042,1.02186c-20.08746,-3.09696 -56.61769,-10.06605 -80.16426,-14.74935c-1.33432,-0.26539 1.38338,-5.57896 3.03693,-10.61658c1.32546,-4.03812 1.46401,-8.04283 2.04559,-8.0523c29.33927,-0.47852 73.7607,-1.06569 73.90304,-1.12619z" data-paper-data="{&quot;index&quot;:null}" fill="#475ac7" stroke="#252674" stroke-width="2.5" stroke-linecap="butt"/><path d="M311.6821,194.95474c4.67692,-7.70958 8.59121,-4.41158 10.88693,-3.55081c2.61588,0.98083 7.08457,3.58764 4.7809,14.63145c-1.76606,8.4664 -26.84334,85.47309 -35.98257,110.60124c-1.07189,2.94715 -39.12312,-2.81932 -39.59719,-8.27902c-1.42549,-16.41707 17.45646,-12.6614 17.46753,-12.69167c0,0 39.58629,-95.99981 42.4444,-100.71121z" data-paper-data="{&quot;index&quot;:null}" fill="#8194ff" stroke="#252674" stroke-width="2.5" stroke-linecap="butt"/><path d="M341.53688,201.60914c0.9832,4.70488 9.26685,85.4216 11.37862,105.75821c0.30932,2.97879 14.04922,3.5905 17.2415,15.82724c0.85818,3.28963 -0.53774,9.71624 -0.92854,14.65197c-0.15001,1.89459 -31.99654,3.29319 -36.25809,-0.48313c-3.84423,-3.40651 -11.75465,-14.06915 -11.85967,-19.4672c-0.15215,-7.81957 1.65005,-40.69211 2.77577,-69.8065c0.85766,-22.18182 0.98465,-42.37407 1.54136,-46.51534c1.50303,-11.18092 4.23126,-6.88248 7.02445,-6.93682c2.45135,-0.0477 7.24006,-1.855 9.08464,6.97158z" data-paper-data="{&quot;index&quot;:null}" fill="#8194ff" stroke="#252674" stroke-width="2.5" stroke-linecap="butt"/><path d="M316.57807,175.19848c0.03189,-0.60282 0.401,-18.53363 0.49748,-26.34048c0.03626,-2.93358 8.13662,-8.06365 13.14454,-7.79879c4.42608,0.23409 9.22394,2.28067 12.23039,5.9746c2.28773,2.81087 -3.95473,25.05023 -3.23384,29.90799c0.00138,0.00934 5.80958,21.15588 4.75867,21.81151c-2.02956,1.26616 -16.21804,5.69276 -16.31328,5.69325c-1.29457,0.0068 -16.71218,-7.19255 -16.67477,-8.62836c0.02728,-1.04621 5.52626,-19.39925 5.59083,-20.61972z" fill="#b3bfff" stroke="#252674" stroke-width="2.5" stroke-linecap="butt"/><path d="M333.63166,177.72415c0.48738,-13.18161 -0.56517,-27.22052 -0.24696,-28.54646c1.12486,-4.68698 3.88981,-4.03524 6.39341,-3.90282c1.10767,0.05858 4.83015,6.22044 4.64461,11.26275c-0.36027,9.78919 -0.30436,26.08374 -0.24617,26.39445c0.36237,1.93446 12.44958,39.26745 12.44041,39.44068c-0.39794,7.52397 -2.16667,12.99932 -4.59072,16.03355c-0.59591,0.74591 -3.51301,-2.51579 -3.97438,-1.83224c-4.38567,6.49763 -9.30554,3.94081 -13.48833,-4.26955c-3.02026,-5.92846 -4.21116,-16.11245 -3.69422,-25.88639c0.41893,-7.92096 2.35422,-17.65593 2.76234,-28.69396z" fill="#475ac7" stroke="#252674" stroke-width="2.5" stroke-linecap="butt"/><path d="M321.04752,174.0658c-1.55702,9.92402 -1.53337,18.95248 -2.53892,26.0961c-1.24077,8.81477 -4.06713,17.69636 -7.77578,22.459c-5.13613,6.59579 -9.94303,8.01611 -12.70216,1.44805c-0.29027,-0.69096 -3.44385,1.7094 -3.84257,0.93921c-1.62191,-3.13302 -2.23836,-8.33016 -1.28321,-15.11574c0.02199,-0.15623 17.22964,-31.36211 17.88724,-33.02532c0.1056,-0.26713 2.98786,-14.80183 4.37021,-23.60276c0.71204,-4.53326 5.08393,-9.38121 6.07627,-9.23945c2.24292,0.32041 4.80788,0.22303 4.99049,4.60368c0.05168,1.23928 -3.32218,13.586 -5.18155,25.43727z" data-paper-data="{&quot;index&quot;:null}" fill="#475ac7" stroke="#252674" stroke-width="2.5" stroke-linecap="butt"/><path d="M338.87308,145.28426c-0.16836,3.18335 -4.35178,4.3939 -9.41914,4.12589c-5.06736,-0.268 -9.09976,-1.91309 -8.93139,-5.09643c0.16836,-3.18335 4.38837,-5.08557 9.45575,-4.81756c5.06736,0.268 9.06317,2.60476 8.8948,5.78809z" fill="#475ac7" stroke="#252674" stroke-width="2.5" stroke-linecap="butt"/><path d="M329.82236,133.43342c4.75515,0.25149 6.07204,4.90843 5.8485,9.13524c-0.08382,1.58477 -2.12163,2.79227 -4.21538,3.09169c-3.49054,0.49916 -7.71904,-1.00149 -7.57929,-3.64351c0.22355,-4.2268 1.19101,-8.83491 5.94617,-8.58341z" fill="#b3bfff" stroke="#252674" stroke-width="2.5" stroke-linecap="butt"/><path d="M336.62977,25.51787c0.24087,0.01616 12.29175,15.95168 15.49018,20.70952c0.72046,1.07172 2.1849,11.99879 2.60464,17.06967c0.66962,8.09018 -2.05234,12.13998 -2.0951,12.51064c-1.74342,15.10611 -15.22033,6.25264 -19.66221,5.95461c-4.94002,-0.33144 -12.12544,-11.25809 -11.07993,-27.31391c0.01511,-0.23164 7.64799,-26.37073 9.6986,-28.0864c0,0 4.16585,-0.90303 5.04383,-0.84414z" data-paper-data="{&quot;index&quot;:null}" fill="#8194ff" stroke="#252674" stroke-width="2.5" stroke-linecap="butt"/><path d="M330.31502,139.60573c-23.80121,-1.59691 -39.71995,-21.29319 -38.21176,-44.45419c1.50819,-23.161 17.71012,-40.67179 41.51134,-39.07489c23.80121,1.59691 37.99691,21.1472 36.48869,44.30821c-1.50819,23.161 -15.98707,40.81778 -39.78831,39.22088z" data-paper-data="{&quot;index&quot;:null}" fill="#b3bfff" stroke="#252674" stroke-width="2.5" stroke-linecap="butt"/><path d="M292.40556,95.63709c1.50819,-23.161 17.71011,-40.67179 41.51133,-39.07489c23.80121,1.59691 37.99692,21.14721 36.48873,44.3082c-0.15952,2.44982 -3.75231,16.11672 -4.72143,16.58604c-8.15745,3.95034 -34.93294,8.9416 -35.73038,9.11223c-0.27465,0.05882 -32.50491,-9.40768 -35.69087,-14.90823c0,0 -1.8932,-15.47282 -1.85737,-16.02332z" data-paper-data="{&quot;index&quot;:null}" fill="#8194ff" stroke="none" stroke-width="0" stroke-linecap="butt"/><path d="M330.31502,139.60573c-23.80121,-1.59691 -39.71995,-21.29319 -38.21176,-44.45419c1.50819,-23.161 17.71012,-40.67179 41.51134,-39.07489c23.80121,1.59691 37.99691,21.1472 36.48869,44.30821c-1.50819,23.161 -15.98707,40.81778 -39.78831,39.22088z" data-paper-data="{&quot;index&quot;:null}" fill="none" stroke="#252674" stroke-width="2.5" stroke-linecap="butt"/><path d="M309.26667,112.5706c-0.02538,-0.11717 -16.45959,-15.39764 -16.4011,-15.5051c1.61083,-2.95951 6.77639,-22.62615 9.44724,-24.36906c1.43675,-0.93759 21.45867,38.19774 23.3528,51.50425c0.32713,2.29808 -23.62264,0.49344 -27.77207,-1.25776c-0.98534,-0.41585 -1.00432,-9.82642 -2.01246,-12.35856c0,0 13.61368,3.03895 13.38559,1.98623z" data-paper-data="{&quot;index&quot;:null}" fill="#252674" stroke="none" stroke-width="0" stroke-linecap="butt"/><path d="M340.56241,129.3667c0,0 -3.88525,3.56218 -5.3567,3.62574c-1.39136,0.06009 -6.7418,-3.05183 -6.79986,-2.98946c-0.0101,0.01084 -3.47445,2.8337 -4.86042,2.56994c-0.96591,-0.18383 -5.44891,-4.5047 -5.44891,-4.5047" fill="none" stroke="#252674" stroke-width="2.5" stroke-linecap="round"/><path d="M319.25689,130.72776c0.03452,-0.38737 2.1737,1.00287 4.0496,1.30619c0.76722,0.12406 3.99731,-1.18745 5.51953,-1.13966c2.86573,0.08996 5.46153,1.36831 7.12754,1.2952c1.04157,-0.0457 3.58189,-1.27181 3.5541,-0.95991c-0.0258,0.28953 -2.98538,4.25579 -5.96938,5.81719c-1.16469,0.60943 -5.65574,0.87026 -7.17283,0.02993c-3.17903,-1.7609 -7.13057,-6.10195 -7.10856,-6.34894z" fill="#252674" stroke="none" stroke-width="0" stroke-linecap="butt"/><path d="M360.52493,112.57535c-1.32388,2.4088 -2.35996,11.76357 -3.43154,12.07063c-4.5126,1.29308 -29.66192,0.50093 -29.07289,-1.74869c3.41063,-13.02594 28.49887,-49.77545 29.89464,-48.68806c2.59465,2.0214 5.85299,22.13358 7.21177,25.25013c0.04932,0.11315 -18.72446,13.53151 -18.76357,13.6453c-0.35135,1.02207 14.16159,-0.5293 14.16159,-0.5293z" data-paper-data="{&quot;index&quot;:null}" fill="#252674" stroke="none" stroke-width="0" stroke-linecap="butt"/><path d="M172.1021,348.60409v-338.70968h312.31232v338.70968z" fill="none" stroke="none" stroke-width="none" stroke-linecap="butt"/></g></g></svg>