<svg version="1.1" xmlns="http://www.w3.org/2000/svg" xmlns:xlink="http://www.w3.org/1999/xlink" width="24" height="24" viewBox="0,0,24,24"><g transform="translate(-417.32611,-333.9027)"><g data-paper-data="{&quot;isPaintingLayer&quot;:true}" fill-rule="nonzero" stroke-linejoin="miter" stroke-miterlimit="10" stroke-dasharray="" stroke-dashoffset="0" style="mix-blend-mode: normal"><path d="M417.32611,357.9027v-24h24v24z" fill-opacity="0.40784" fill="#450031" stroke="none" stroke-width="0" stroke-linecap="butt"/><g><path d="M420.67885,353.59404c-0.11244,-0.17515 -0.13032,-13.97141 0,-14.11953c0.05481,-0.06229 4.30343,-1.53635 8.61232,-1.47368c4.36773,0.06352 8.17075,1.37716 8.25209,1.47368c0.22663,0.26893 0.10321,14.05508 0,14.11953c-0.12329,0.07698 -4.29644,1.00263 -8.19946,0.94737c-3.71784,-0.05263 -8.59417,-0.83711 -8.66495,-0.94737z" fill="none" stroke="#ffe6fd" stroke-width="2.5" stroke-linecap="butt"/><text transform="translate(427.58829,346.48345) scale(0.21958,0.21958)" font-size="40" xml:space="preserve" fill="#ffe6fd" fill-rule="nonzero" stroke="none" stroke-width="1" stroke-linecap="butt" stroke-linejoin="miter" stroke-miterlimit="10" stroke-dasharray="" stroke-dashoffset="0" font-family="&quot;Neon&quot;, Sans Serif" font-weight="normal" text-anchor="start" style="mix-blend-mode: normal"><tspan x="0" dy="0">1</tspan></text><text transform="translate(423.20079,351.5445) scale(0.21958,0.21958)" font-size="40" xml:space="preserve" fill="#ffe6fd" fill-rule="nonzero" stroke="none" stroke-width="1" stroke-linecap="butt" stroke-linejoin="miter" stroke-miterlimit="10" stroke-dasharray="" stroke-dashoffset="0" font-family="&quot;Neon&quot;, Sans Serif" font-weight="normal" text-anchor="start" style="mix-blend-mode: normal"><tspan x="0" dy="0">2 3</tspan></text><path d="M436.14741,339.0321c0,0 1.37168,-3.64118 1.67939,-3.62595c0.31841,0.01575 0.30482,2.04372 0.45992,3.6566c0.00971,0.101 1.03445,-0.92652 1.41347,-0.27738c0.27835,0.47672 -0.05022,2.78644 -0.47526,4.51549c-0.42504,1.72906 -1.28364,2.63964 -1.28364,2.63964" fill="none" stroke="#ffe6fd" stroke-width="2.5" stroke-linecap="round"/></g></g></g></svg>