<svg version="1.1" xmlns="http://www.w3.org/2000/svg" xmlns:xlink="http://www.w3.org/1999/xlink" width="312.31232" height="338.70968" viewBox="0,0,312.31232,338.70968"><g transform="translate(-172.1021,-9.89441)"><g data-paper-data="{&quot;isPaintingLayer&quot;:true}" fill-rule="nonzero" stroke-linejoin="miter" stroke-miterlimit="10" stroke-dasharray="" stroke-dashoffset="0" style="mix-blend-mode: normal"><path d="M335.85079,157.24954c0.4356,-6.43639 -4.08391,-11.58391 1.12199,-11.23159c0.90587,0.06131 20.38779,-0.63324 22.79599,3.25793c1.43353,2.3163 1.63086,10.70096 -3.26705,15.9328c-1.20015,1.28198 -14.56201,-3.23668 -15.54438,-3.30317c0,0 -5.54215,1.78041 -5.10656,-4.65597z" fill="#8194ff" stroke="#252674" stroke-width="2.5" stroke-linecap="butt"/><path d="M228.62559,102.0401c-1.64903,-1.71866 -11.76969,-8.33524 -12.49621,-13.28807c-0.76147,-5.19112 6.47512,-12.97034 11.96951,-16.55918c2.51986,-1.64592 14.19234,12.87172 15.74812,11.42086c1.3027,-1.21483 1.52906,-4.29705 2.57455,-6.0294c0.38902,-0.64461 1.97999,-1.3856 2.21343,-1.36572c2.73892,0.23303 6.64985,4.97008 7.01185,5.56641c1.9514,3.2146 -2.84721,16.16906 -5.72987,19.20063c-0.77954,0.81982 -1.95149,1.89408 -3.04833,2.54812c-5.90529,3.52125 -14.073,2.85251 -18.24307,-1.49365z" fill="#8194ff" stroke="#252674" stroke-width="2.5" stroke-linecap="butt"/><path d="M431.13743,165.61175c-0.39627,-1.21399 -0.57279,-2.79398 -0.621,-3.92422c-0.1783,-4.17951 4.72498,-17.09473 8.30897,-18.23339c0.66487,-0.21124 6.72628,-1.20836 8.94299,0.41712c0.18896,0.13854 0.9003,1.74297 0.76951,2.48441c-0.35149,1.99263 -2.20772,4.46359 -2.02511,6.23545c0.21807,2.1161 18.55841,-1.14587 19.37454,1.75116c1.7795,6.31677 2.1161,16.93615 -1.87114,20.34637c-3.8042,3.25368 -15.7799,1.58348 -18.15242,1.79394c-5.99962,0.53223 -12.59284,-4.33481 -14.72636,-10.87084z" data-paper-data="{&quot;index&quot;:null}" fill="#8194ff" stroke="#252674" stroke-width="2.5" stroke-linecap="butt"/><path d="M260.72157,89.31253c0.09801,0.20933 73.03238,67.32837 72.71517,67.47689c-1.13654,0.53219 -4.71297,11.91049 -7.54296,11.35675c-1.03514,-0.20254 -62.79687,-36.73149 -89.1151,-53.90485c-7.68104,-5.01209 -9.13541,-9.53686 -9.15935,-9.58801c-1.22345,-2.61282 31.87879,-17.95362 33.10222,-15.3408z" fill="#475ac7" stroke="#252674" stroke-width="2.5" stroke-linecap="butt"/><path d="M430.7587,145.17145c2.63984,-1.16397 17.49107,32.16078 14.85122,33.32473c-0.05167,0.02278 -4.12275,2.47536 -13.20539,1.20059c-20.12751,-2.82497 -56.74866,-9.29929 -80.35643,-13.66366c-1.33779,-0.24732 1.3078,-5.59715 2.89305,-10.65669c1.27072,-4.05568 1.35508,-8.0619 1.93648,-8.07924c29.33011,-0.87533 73.73954,-2.06332 73.88104,-2.12573z" data-paper-data="{&quot;index&quot;:null}" fill="#475ac7" stroke="#252674" stroke-width="2.5" stroke-linecap="butt"/><path d="M312.40693,194.47746c4.79,-7.63983 8.65527,-4.28452 10.93807,-3.39001c2.60114,1.01927 7.03094,3.69164 4.56479,14.7003c-1.89062,8.43945 -28.0998,85.0683 -37.60827,110.05907c-1.1152,2.93103 -39.07733,-3.39546 -39.47091,-8.86155c-1.18345,-16.43629 17.64112,-12.40282 17.65264,-12.43293c0,0 40.99647,-95.40612 43.92368,-100.07489z" data-paper-data="{&quot;index&quot;:null}" fill="#8194ff" stroke="#252674" stroke-width="2.5" stroke-linecap="butt"/><path d="M343.01043,203.79031c0.91377,4.71885 8.00723,85.54887 9.81914,105.91439c0.2654,2.98302 13.99479,3.79712 17.00642,16.07956c0.80962,3.30191 -0.68084,9.70726 -1.14432,14.6367c-0.17791,1.89217 -32.04159,2.82139 -36.24704,-1.01731c-3.79362,-3.46278 -11.54607,-14.24081 -11.57155,-19.63983c-0.03692,-7.82096 2.24944,-40.66338 3.804,-69.75802c1.1844,-22.16677 1.60889,-42.35496 2.22655,-46.48758c1.66761,-11.15757 4.33221,-6.81939 7.1259,-6.83257c2.45178,-0.01158 7.26661,-1.74812 8.98093,7.10468z" data-paper-data="{&quot;index&quot;:null}" fill="#8194ff" stroke="#252674" stroke-width="2.5" stroke-linecap="butt"/><path d="M317.59346,174.79548c0.04076,-0.60228 0.67403,-18.52571 0.88553,-26.33029c0.07948,-2.93273 8.25455,-7.94289 13.25802,-7.60427c4.42215,0.29928 9.18934,2.41633 12.14104,6.15415c2.24607,2.84427 -4.32339,24.98924 -3.67416,29.85709c0.00124,0.00936 5.49724,21.23918 4.43678,21.87926c-2.048,1.23612 -16.30016,5.45318 -16.3954,5.45227c-1.29453,-0.01228 -16.60439,-7.43801 -16.54583,-8.87311c0.04269,-1.04569 5.8115,-19.31572 5.89403,-20.5351z" fill="#b3bfff" stroke="#252674" stroke-width="2.5" stroke-linecap="butt"/><path d="M334.60799,177.57215c0.68154,-13.17299 -0.16404,-27.22589 0.17368,-28.547c1.19379,-4.6699 3.94885,-3.97749 6.45022,-3.8082c1.10668,0.0749 4.73797,6.29093 4.47815,11.32996c-0.50446,9.78282 -0.68864,26.07643 -0.63504,26.38795c0.33383,1.93959 11.86966,39.44662 11.85794,39.6197c-0.50875,7.51729 -2.35797,12.96598 -4.82646,15.96417c-0.60683,0.73705 -3.47556,-2.56728 -3.94695,-1.8906c-4.48093,6.4323 -9.3626,3.80327 -13.42396,-4.46782c-2.93259,-5.97232 -3.9733,-16.17274 -3.31241,-25.93801c0.53559,-7.91393 2.61411,-17.61933 3.18482,-28.65014z" fill="#475ac7" stroke="#252674" stroke-width="2.5" stroke-linecap="butt"/><path d="M322.07912,173.72877c-1.70307,9.9 -1.81245,18.92783 -2.92314,26.05585c-1.37051,8.79553 -4.32743,17.63451 -8.10585,22.34199c-5.23276,6.51939 -10.06006,7.86874 -12.72212,1.26074c-0.28005,-0.69516 -3.46866,1.65847 -3.85599,0.88249c-1.57557,-3.15657 -2.11538,-8.36223 -1.06036,-15.13301c0.02429,-0.15589 17.68986,-31.10484 18.3719,-32.75818c0.10953,-0.26555 3.20563,-14.7562 4.7175,-23.53581c0.77876,-4.52228 5.2216,-9.30528 6.21174,-9.14891c2.23796,0.35342 4.80407,0.29384 4.92211,4.67671c0.03341,1.23991 -3.522,13.53557 -5.55579,25.35816z" data-paper-data="{&quot;index&quot;:null}" fill="#475ac7" stroke="#252674" stroke-width="2.5" stroke-linecap="butt"/><path d="M340.32682,145.21301c-0.21525,3.18053 -4.41605,4.3293 -9.47891,3.98666c-5.06286,-0.34264 -9.07058,-2.04696 -8.85533,-5.22747c0.21525,-3.18053 4.46282,-5.02036 9.5257,-4.67772c5.06286,0.34264 9.02381,2.73801 8.80856,5.91852z" fill="#475ac7" stroke="#252674" stroke-width="2.5" stroke-linecap="butt"/><path d="M331.45169,133.2301c4.75093,0.32153 5.99906,4.99736 5.71326,9.22042c-0.10716,1.58337 -2.16254,2.76071 -4.26047,3.02924c-3.49752,0.44768 -7.70344,-1.11512 -7.52479,-3.75479c0.2858,-4.22305 1.32106,-8.8164 6.072,-8.49486z" fill="#b3bfff" stroke="#252674" stroke-width="2.5" stroke-linecap="butt"/><path d="M339.8484,25.42656c0.2406,0.01971 12.05538,16.13106 15.18337,20.93551c0.70459,1.08222 2.00787,12.02968 2.35285,17.1062c0.55035,8.09917 -2.23099,12.10842 -2.27921,12.47841c-1.96581,15.07878 -15.31081,6.02771 -19.74782,5.66426c-4.9346,-0.40419 -11.95824,-11.43552 -10.67628,-27.4742c0.01852,-0.2314 8.03571,-26.25518 10.11137,-27.94045c0,0 4.1787,-0.84156 5.05572,-0.76973z" data-paper-data="{&quot;index&quot;:null}" fill="#8194ff" stroke="#252674" stroke-width="2.5" stroke-linecap="butt"/><path d="M331.85336,139.409c-23.7751,-1.94743 -39.4019,-21.87612 -37.55262,-45.01238c1.84928,-23.13627 18.30746,-40.40644 42.08257,-38.45902c23.7751,1.94743 37.6812,21.70476 35.83189,44.84103c-1.84928,23.13627 -16.58675,40.5778 -40.36188,38.63038z" data-paper-data="{&quot;index&quot;:null}" fill="#b3bfff" stroke="#252674" stroke-width="2.5" stroke-linecap="butt"/><path d="M294.59585,94.88657c1.84928,-23.13627 18.30745,-40.40644 42.08256,-38.45902c23.7751,1.94743 37.68121,21.70477 35.83193,44.84102c-0.1956,2.4472 -3.98937,16.05968 -4.9653,16.51467c-8.21477,3.82972 -35.06089,8.42592 -35.86077,8.58479c-0.27549,0.05476 -32.36277,-9.88559 -35.46734,-15.43249c0,0 -1.66501,-15.49903 -1.62107,-16.04895z" data-paper-data="{&quot;index&quot;:null}" fill="#8194ff" stroke="none" stroke-width="0" stroke-linecap="butt"/><path d="M331.85336,139.409c-23.7751,-1.94743 -39.4019,-21.87612 -37.55262,-45.01238c1.84928,-23.13627 18.30746,-40.40644 42.08257,-38.45902c23.7751,1.94743 37.6812,21.70476 35.83189,44.84103c-1.84928,23.13627 -16.58675,40.5778 -40.36188,38.63038z" data-paper-data="{&quot;index&quot;:null}" fill="none" stroke="#252674" stroke-width="2.5" stroke-linecap="butt"/><path d="M311.20563,112.06667c-0.02366,-0.11754 -16.23093,-15.63849 -16.17086,-15.74507c1.65426,-2.93545 7.10903,-22.52385 9.80527,-24.22722c1.45041,-0.91632 20.89353,38.50977 22.5914,51.84274c0.29323,2.30265 -23.62735,0.14533 -27.75053,-1.66682c-0.97911,-0.43032 -0.85943,-9.84015 -1.83015,-12.38687c0,0 13.56743,3.23921 13.35487,2.18324z" data-paper-data="{&quot;index&quot;:null}" fill="#252674" stroke="none" stroke-width="0" stroke-linecap="butt"/><path d="M341.17903,129.30627c0,0 -3.56671,3.51001 -4.89859,3.55395c-1.25938,0.04154 -6.05303,-3.14136 -6.10646,-3.07977c-0.0093,0.01071 -3.18442,2.78708 -4.43414,2.50488c-0.87096,-0.19668 -4.86219,-4.57683 -4.86219,-4.57683" fill="none" stroke="#252674" stroke-width="2.5" stroke-linecap="round"/><path d="M321.8875,130.41865c0.03992,-0.5899 1.9436,1.55735 3.63355,2.04463c0.69117,0.1993 3.64226,-1.7564 5.01804,-1.66329c2.59005,0.17529 4.90926,2.15811 6.41781,2.0689c0.94313,-0.05577 3.2684,-1.89052 3.23626,-1.41554c-0.02984,0.4409 -2.79588,6.44609 -5.52998,8.78591c-1.06716,0.91325 -5.13519,1.25091 -6.48854,-0.04999c-2.83591,-2.726 -6.3126,-9.3945 -6.28715,-9.77062z" fill="#252674" stroke="none" stroke-width="0" stroke-linecap="butt"/><path d="M362.45825,112.82666c-1.35923,2.38904 -2.53302,11.72752 -3.60902,12.01876c-4.53117,1.22645 -29.66608,0.06383 -29.04397,-2.17686c3.60218,-12.97427 29.22918,-49.35015 30.60877,-48.24231c2.56459,2.05941 5.52623,22.21741 6.83895,25.35365c0.04765,0.11387 -18.92181,13.25416 -18.96259,13.36735c-0.36637,1.01678 14.16785,-0.32059 14.16785,-0.32059z" data-paper-data="{&quot;index&quot;:null}" fill="#252674" stroke="none" stroke-width="0" stroke-linecap="butt"/><path d="M172.1021,348.60409v-338.70968h312.31232v338.70968z" fill="none" stroke="none" stroke-width="none" stroke-linecap="butt"/></g></g></svg>