<svg version="1.1" xmlns="http://www.w3.org/2000/svg" xmlns:xlink="http://www.w3.org/1999/xlink" width="289.61394" height="381.84899" viewBox="0,0,289.61394,381.84899"><defs><linearGradient x1="320.00001" y1="180.00008" x2="320.00001" y2="180.00008" gradientUnits="userSpaceOnUse" id="color-1"><stop offset="0" stop-color="#67497d"/><stop offset="1" stop-color="#553783"/></linearGradient></defs><g transform="translate(-382.73396,-19.33933)"><g data-paper-data="{&quot;isPaintingLayer&quot;:true}" fill-rule="nonzero" stroke-linejoin="miter" stroke-miterlimit="10" stroke-dasharray="" stroke-dashoffset="0" style="mix-blend-mode: normal"><path d="M586.01493,237.67049c0,-16.85712 -11.89139,-55.61304 -5.81997,-55.61304c6.07142,0 37.89446,78.59037 37.89446,95.44749c0,16.85712 -16.56179,22.50388 -22.63321,22.50388c-6.07141,0 -9.44128,-45.48123 -9.44128,-62.33834z" fill="#7a4469" stroke="#6b226b" stroke-width="2.5" stroke-linecap="butt"/><g data-paper-data="{&quot;index&quot;:null}" stroke="#541287" stroke-width="2.5" stroke-linecap="butt"><path d="" fill="#e5c2ff"/><path d="" fill="#9951b7"/></g><path d="" fill="#725580" stroke="#541287" stroke-width="2.5" stroke-linecap="butt"/><path d="" fill="#6d3e90" stroke="none" stroke-width="0" stroke-linecap="butt"/><path d="" fill="#725580" stroke="none" stroke-width="0" stroke-linecap="butt"/><path d="" fill="#9857ca" stroke="none" stroke-width="0" stroke-linecap="butt"/><path d="" fill="none" stroke="#541287" stroke-width="2.5" stroke-linecap="butt"/><path d="" fill="#9468de" stroke="#541287" stroke-width="2.5" stroke-linecap="butt"/><path d="" fill="#e5c2ff" stroke="#541287" stroke-width="2.5" stroke-linecap="butt"/><g stroke-linecap="butt"><g stroke="#541287" stroke-width="2.5"><path d="" fill="#9d7bb5"/><path d="" fill="#9d7bb5"/><path d="" fill="url(#color-1)"/></g><path d="" fill="#541287" stroke="none" stroke-width="0"/><path d="" fill="#ca80ff" stroke="#541287" stroke-width="2.5"/></g><g stroke="#541287" stroke-width="2.5" stroke-linecap="butt"><path d="" fill="#e5c2ff"/><path d="" fill="#9951b7"/></g><path d="M568.81002,235.46297c0,19.99302 -0.31439,51.19227 -0.46224,57.60813c-0.02113,0.91708 -36.24144,25.03032 -36.24144,2.89733c0,-9.70779 13.5782,-34.24266 17.32009,-51.32191c5.06601,-23.12296 6.77994,-50.5586 9.81839,-50.5586c5.28272,0 9.5652,18.52424 9.5652,41.37506z" fill="#7a4469" stroke="#6b226b" stroke-width="2.5" stroke-linecap="butt"/><path d="M575.07463,300.13735c-2.79628,20.6205 -27.18451,22.5257 -24.38824,1.9052c0.8414,-6.20465 4.26001,-50.26395 5.60369,-55.32505c3.1219,-11.75894 10.09943,-18.36659 13.57426,-17.89538c4.97042,0.67402 8.00656,50.69473 5.21028,71.31524z" fill="#b77598" stroke="#6b226b" stroke-width="2.5" stroke-linecap="butt"/><path d="M599.96761,296.74388c0,20.80924 -11.62938,5.64615 -16.64529,5.64615c-5.0159,0 -7.30253,20.05691 -7.30253,-0.75232c0,-6.26144 -4.39528,-49.85168 -3.74389,-55.04744c1.51346,-12.0718 7.53979,-19.55714 11.04642,-19.55714c5.0159,0 16.64529,48.90152 16.64529,69.71076z" fill="#b77598" stroke="#6b226b" stroke-width="2.5" stroke-linecap="butt"/><path d="M571.01348,232.4814c6.94135,-0.74858 12.96907,2.35954 13.46327,6.94218c0.4942,4.58264 -4.73224,8.90446 -11.67359,9.65303c-6.94135,0.74858 -12.96907,-2.35954 -13.46327,-6.94218c-0.4942,-4.58264 4.73224,-8.90446 11.67359,-9.65303z" fill="#785787" stroke="#6b226b" stroke-width="2.5" stroke-linecap="butt"/><path d="M560.61859,216.38146c0,-14.50546 4.0662,-26.26446 9.0821,-26.26446c5.01591,0 9.0821,11.759 9.0821,26.26446c0,8.83241 4.62896,18.61024 2.31735,23.37143c-0.27004,0.55619 -6.29602,3.26114 -11.2714,3.58566c-4.30357,0.2807 -7.63567,-1.71407 -8.01733,-2.44639c-2.45127,-4.7034 -1.19282,-15.36606 -1.19282,-24.51071z" fill="#abace6" stroke="none" stroke-width="0" stroke-linecap="butt"/><path d="M560.61859,216.62692c0,-14.50546 4.0662,-26.26447 9.0821,-26.26447c4.22538,0 7.77681,8.34455 8.7913,19.64605c0.15822,1.76253 0.66544,8.11115 0.66544,8.4916c0,0.27257 0.92726,2.36326 -3.43115,0.54978c-1.62213,-0.67495 -2.89523,-3.53843 -3.2936,-2.61285c-0.28504,0.66226 -0.2495,2.35931 -1.20654,4.4665c-0.76373,1.68156 -7.33326,7.34123 -11.284,7.51191c0.07183,-3.87994 0.67645,-7.87928 0.67645,-11.78853z" fill="#f3c0ef" stroke="none" stroke-width="0" stroke-linecap="butt"/><path d="M560.61858,216.62692c0,-14.50546 4.0662,-26.26447 9.0821,-26.26447c5.01591,0 9.0821,11.759 9.0821,26.26446c0,8.83241 4.62896,18.61024 2.31735,23.37143c-0.26273,0.54115 -5.76815,2.97572 -10.62174,3.31297c-4.44978,0.30919 -8.27338,-1.41849 -8.66698,-2.1737c-2.45127,-4.70339 -1.19282,-15.36605 -1.19282,-24.5107z" fill="none" stroke="#6b226b" stroke-width="2.5" stroke-linecap="butt"/><path d="M566.3181,190.8886c0.12407,0.24106 -2.78985,9.67668 -3.4171,20.05154c-0.40146,6.64036 1.45452,13.66548 1.31661,18.91084c-0.44894,17.07551 4.06404,32.69409 3.77769,34.04209c-0.10731,0.50519 0.72703,10.91232 -4.0582,11.90708c-5.04243,1.04823 -8.56113,-18.31126 -9.59187,-28.29002c-0.78479,-7.59773 4.44859,-12.95703 4.15787,-20.58965c-0.19241,-5.05129 -0.65225,-7.71944 -1.57815,-11.45558c-2.72944,-11.01373 6.07115,-31.03081 9.39314,-24.57631z" data-paper-data="{&quot;index&quot;:null}" fill="#7a4469" stroke="#6b226b" stroke-width="2.5" stroke-linecap="butt"/><path d="M571.62025,187.11596c2.77567,-7.11081 10.91704,-4.48429 14.11398,11.76766c0.09645,0.4903 -0.26852,7.91583 0.36419,17.62208c0.06065,0.93037 8.39523,27.87641 8.4639,28.80295c0.45529,6.14329 -4.07311,31.76889 -10.07096,31.15621c-4.86223,-0.49667 -5.10408,-10.9344 -5.26285,-11.42585c-0.42365,-1.31134 -0.55094,-32.5395 -2.75599,-49.47799c-1.73566,-13.33285 -5.01395,-28.03087 -4.85226,-28.44507z" fill="#7a4469" stroke="none" stroke-width="0" stroke-linecap="butt"/><path d="M571.62024,187.11595c2.77567,-7.11081 10.91704,-4.48429 14.11398,11.76766c0.06557,0.33331 1.01559,6.61584 1.11307,11.89688c0.04592,2.48745 -0.54993,6.44497 -0.22323,7.3978c2.18877,6.38363 10.46516,28.65213 10.52491,29.45834c0.4553,6.1433 -6.65976,29.44091 -12.65761,28.82823c-4.86223,-0.49667 -5.10408,-10.9344 -5.26285,-11.42585c-0.42365,-1.31134 -0.55094,-32.5395 -2.75599,-49.47799c-1.73566,-13.33285 -5.01395,-28.03087 -4.85226,-28.44507z" fill="#7a4469" stroke="#6b226b" stroke-width="2.5" stroke-linecap="butt"/><path d="M579.22852,265.039c-0.07987,-0.24722 4.35614,-7.75427 5.60084,-18.26418c1.87219,-15.80818 1.07198,-35.36748 1.45202,-29.53734c0.03679,0.56446 4.47217,11.90592 8.92846,20.30155c0.47992,0.90418 1.74854,10.07193 -1.79284,21.75228c-1.90671,6.28883 -7.363,17.33317 -8.92563,17.17355c-4.86223,-0.49667 -5.10408,-10.9344 -5.26285,-11.42585z" fill="#ed92ff" stroke="#6b226b" stroke-width="2.5" stroke-linecap="butt"/><g fill="#ff84dd" stroke="#6b226b" stroke-width="2.5" stroke-linecap="butt"><path d="M578.29624,174.25576c2.18062,-0.55359 5.32462,2.29016 7.67486,7.3504c0.78302,1.6859 -0.70331,3.27344 -0.16148,5.40774c0.2691,1.06001 2.63646,2.41099 2.75049,3.3625c0.80467,6.71467 -1.98073,10.68632 -4.52705,11.33274c-2.90714,0.73802 -11.45253,-3.00881 -13.62065,-11.54919c-2.16812,-8.54039 4.9767,-15.16615 7.88384,-15.90417z"/><path d="M564.11646,191.44675c1.68073,6.62051 -3.42187,14.01824 -5.69387,14.59501c-1.9195,0.48729 -4.69747,-2.24411 -6.52681,-7.09575c-0.33595,-0.89097 0.62293,-1.39425 0.36216,-2.42143c-0.20242,-0.79738 -1.62583,-2.02912 -1.74774,-2.77226c-0.89026,-5.42693 0.28199,-9.28516 2.28035,-9.79247c2.272,-0.57679 9.64519,0.86638 11.32592,7.48689z" data-paper-data="{&quot;index&quot;:null}"/><path d="M561.04278,191.95183c0.1712,-2.161 1.84578,-4.35442 4.25928,-4.96713c2.96527,-0.75279 5.92306,0.81903 6.6064,3.51074c0.68334,2.69171 -1.16654,5.48403 -4.13182,6.23682c-2.43444,0.61802 -4.86384,-0.33077 -6.03375,-2.17974c-0.2551,-0.40318 -0.45032,-0.84915 -0.57265,-1.33101c0,0 -0.1666,-0.77562 -0.12746,-1.26968z"/></g><path d="M574.71044,246.32961c0.09034,3.38792 -1.11683,3.46748 -2.60752,3.50723c-1.49068,0.03975 -2.70039,0.02465 -2.79073,-3.36328c-0.09034,-3.38792 1.11029,-3.71285 2.60098,-3.7526c1.49068,-0.03975 2.70693,0.22073 2.79727,3.60865z" fill="#fff2d8" stroke="#6b226b" stroke-width="2.5" stroke-linecap="butt"/><path d="M457.63319,334.65465v-315.31532h214.71471v315.31532z" data-paper-data="{&quot;index&quot;:null}" fill="none" stroke="none" stroke-width="0" stroke-linecap="butt"/><path d="M450.12357,386.52129c0,0 -65.49379,-52.87181 -66.139,-69.84341c-0.19813,-5.21159 243.42962,-24.95476 243.42962,-24.95476l2.66124,87.95693z" fill="#905c66" stroke="#3e0e6c" stroke-width="2.5" stroke-linecap="butt"/><path d="M630.07543,379.68004c0,0 -168.96132,21.98835 -212.1952,20.149c-24.24625,-1.03153 -25.05803,-30.2427 -25.05803,-30.2427c0,0 -8.92303,-55.1549 -8.83763,-52.90845c0.64521,16.9716 66.139,69.84341 66.139,69.84341z" fill="#80475d" stroke="#3e0e6c" stroke-width="2.5" stroke-linecap="butt"/><g><g stroke-linecap="butt"><path d="M519.35664,158.40063c-5.48317,-21.32763 7.3613,-43.06206 28.68892,-48.54523c21.32762,-5.48317 43.06206,7.3613 48.54523,28.68892c5.48317,21.32763 -7.73128,42.3797 -29.0589,47.86286c-21.32762,5.48317 -42.69208,-6.67892 -48.17524,-28.00655z" fill="#ffa1fe" stroke="#6b226b" stroke-width="2.5"/><path d="M519.35664,158.40063c-5.48317,-21.32763 7.3613,-43.06206 28.68892,-48.54523c21.32762,-5.48317 43.06206,7.3613 48.54523,28.68892c5.48317,21.32763 -7.73128,42.3797 -29.0589,47.86286c-21.32762,5.48317 -42.69208,-6.67892 -48.17524,-28.00655z" fill="#ffc7ee" stroke="#6b226b" stroke-width="2.5"/><path d="M519.78137,158.67797c-5.48317,-21.32763 7.36129,-43.06205 28.68891,-48.54522c9.1069,-2.34131 18.32269,-1.20596 26.31412,2.49833c4.10493,1.90277 10.88633,12.99769 8.02095,26.57201c-2.82235,13.37047 -15.22344,29.20496 -20.17778,33.4081c-3.45019,2.92706 -8.00406,4.41844 -9.55129,4.77486c-1.79016,0.41236 0.62714,1.88483 -3.04389,5.94081c-5.08399,4.74478 -10.83394,0.37111 -11.17819,0.17746c-9.14296,-5.14317 -16.25455,-13.86419 -19.07283,-24.82633z" fill="#b8a1ff" stroke="none" stroke-width="0"/><path d="M519.35664,158.40063c-5.48317,-21.32763 7.3613,-43.06206 28.68892,-48.54523c21.32762,-5.48317 43.06206,7.3613 48.54523,28.68892c5.48317,21.32763 -7.73128,42.3797 -29.0589,47.86286c-21.32762,5.48317 -42.69208,-6.67892 -48.17524,-28.00655z" fill="none" stroke="#6b226b" stroke-width="2.5"/></g><path d="M595.82695,142.14422c0.07817,0.49787 -0.06822,6.22321 -1.63346,10.49889c-1.85953,5.07957 -5.27417,8.80509 -6.42407,8.98565c-2.77405,0.43557 -5.39648,-4.21296 -6.11953,-8.8179c-0.72305,-4.60494 0.82507,-10.73178 3.59912,-11.16735c0.18566,-0.02915 2.24149,0.35069 4.27486,0.24498c2.93915,-0.15279 6.15333,-0.69786 6.30307,0.25573z" fill="#6b226b" stroke="none" stroke-width="0" stroke-linecap="butt"/><path d="M547.8355,156.41357c-1.71135,-10.89912 5.57043,-22.94861 16.86237,-24.72163c11.29193,-1.77301 22.318,7.40186 24.02934,18.30098c1.71134,10.89912 -5.09591,20.72621 -16.38784,22.49922c-11.29193,1.77301 -22.79254,-5.17945 -24.50387,-16.07857z" fill="#ffffff" stroke="#6b226b" stroke-width="2.5" stroke-linecap="butt"/><path d="M566.20636,135.27013c0,0 9.63297,29.96418 9.79991,30.66587" fill="none" stroke="#6b226b" stroke-width="2.5" stroke-linecap="round"/><g data-paper-data="{&quot;index&quot;:null}"><path d="M522.60498,167.41763c0.95305,-0.72177 1.68101,-1.78618 1.77747,-1.83866c1.44125,-0.78434 5.09384,2.82361 7.00232,6.27246c1.90849,3.44886 2.99562,7.66979 1.55437,8.45413c-0.59743,0.32512 -3.91543,-0.90243 -7.19915,-3.6686c-2.76405,-2.32841 -5.60053,-6.20794 -5.80687,-6.58083c-0.39521,-0.71418 1.29426,-1.59521 2.67185,-2.63849z" fill="#6b226b" stroke="none" stroke-width="0" stroke-linecap="butt"/><path d="M548.12681,161.11717c4.51707,8.16285 2.78169,17.43671 -3.08502,20.62941c-5.86671,3.1927 -13.64313,-0.90477 -18.16021,-9.06762c-4.51707,-8.16285 -4.068,-18.77944 1.79871,-21.97214c5.86671,-3.1927 14.92944,2.24749 19.44652,10.41034z" fill="#ffffff" stroke="#6b226b" stroke-width="2.5" stroke-linecap="butt"/><path d="M535.1138,153.29552l9.7163,24.74664" fill="none" stroke="#6b226b" stroke-width="2.5" stroke-linecap="round"/></g><path d="M581.32127,168.67256c0,0 -2.50172,4.93013 -9.16762,9.19822c-5.60972,3.59184 -14.54138,3.67928 -14.93018,3.80517c-2.33674,1.96513 -2.68529,3.18634 -6.12863,4.177c-4.45151,1.28071 -9.39703,-2.07451 -9.39703,-2.07451" fill="none" stroke="#6b226b" stroke-width="2.5" stroke-linecap="round"/><g stroke="#6b226b" stroke-width="2.5" stroke-linecap="butt"><path d="M551.60427,104.2986c24.2258,-4.22419 42.57505,3.56292 43.94011,12.43407c1.36506,8.87116 -16.39612,21.23091 -40.62192,25.45511c-24.2258,4.2242 -43.73869,-1.91362 -45.10375,-10.78477c-1.36507,-8.87116 17.55975,-22.88021 41.78556,-27.1044z" fill="#7a4469"/><g><path d="M518.97194,118.42144c-0.38074,-2.47437 -12.17182,-36.0524 -16.88305,-50.14501c-2.93651,-11.08975 34.86424,-24.92381 58.86784,-25.66945c10.5998,-0.32927 21.55228,1.6648 21.43892,12.02462c-0.18357,16.77545 -1.43498,49.62818 -0.64903,54.73578c1.33084,8.64883 -13.34632,17.77684 -28.77256,20.46667c-15.42623,2.68984 -32.67127,-2.76377 -34.00212,-11.4126z" fill="#7a4469"/><path d="M519.66052,122.36039c-0.11607,-0.75432 -1.98113,-8.33825 -3.6942,-13.44058c-0.44253,-1.31807 4.59677,10.96677 29.32051,7.69735c30.51964,-4.23685 36.71051,-19.16796 36.36085,-17.4831c-1.01891,4.90941 -0.12551,8.77465 0.09894,10.23331c1.33084,8.64883 -13.34632,17.77684 -28.77256,20.46667c-15.42623,2.68984 -31.98271,1.17518 -33.31355,-7.47364z" fill="#f2afff"/></g></g></g></g></g></svg>