<svg version="1.1" xmlns="http://www.w3.org/2000/svg" xmlns:xlink="http://www.w3.org/1999/xlink" width="88.12531" height="132.37561" viewBox="0,0,88.12531,132.37561"><defs><linearGradient x1="51.41721" y1="342.04133" x2="51.41721" y2="347.56747" gradientUnits="userSpaceOnUse" id="color-1"><stop offset="0" stop-color="#3e0080" stop-opacity="0.4"/><stop offset="1" stop-color="#3e0080" stop-opacity="0"/></linearGradient><linearGradient x1="44.39185" y1="343.66307" x2="44.39185" y2="349.42947" gradientUnits="userSpaceOnUse" id="color-2"><stop offset="0" stop-color="#fedbff"/><stop offset="1" stop-color="#fedbff" stop-opacity="0"/></linearGradient><linearGradient x1="58.08706" y1="343.66307" x2="58.08706" y2="349.42947" gradientUnits="userSpaceOnUse" id="color-3"><stop offset="0" stop-color="#fedbff"/><stop offset="1" stop-color="#fedbff" stop-opacity="0"/></linearGradient></defs><g transform="translate(-15.39102,-217.05386)"><g data-paper-data="{&quot;isPaintingLayer&quot;:true}" fill-rule="nonzero" stroke-linecap="butt" stroke-linejoin="miter" stroke-miterlimit="10" stroke-dasharray="" stroke-dashoffset="0" style="mix-blend-mode: normal"><g><path d="M58.26481,342.04133v5.52614h-13.69521v-5.52614z" fill="url(#color-1)" stroke="none" stroke-width="0"/><path d="M44.5696,342.04133v-8.64961h13.69521v8.64961z" fill-opacity="0.4" fill="#3e0080" stroke="none" stroke-width="0"/><path d="M30.80829,332.34443v-23.35704h40.86233v23.35704z" fill-opacity="0.4" fill="#3e0080" stroke="#fedbff" stroke-width="2.5"/><path d="M71.66215,323.78939v-49.49499h14.17575v49.49499z" fill-opacity="0.4" fill="#3e0080" stroke="#fedbff" stroke-width="2.5"/><path d="M16.64102,323.78939v-49.49499h14.17575v49.49499z" fill-opacity="0.4" fill="#3e0080" stroke="#fedbff" stroke-width="2.5"/><path d="M44.39185,343.90333v-11.53281h13.69521v11.53281" fill="none" stroke="#fedbff" stroke-width="2.5"/><path d="M44.39185,349.42947v-5.76641" fill="none" stroke="url(#color-2)" stroke-width="2.5"/><path d="M58.08706,349.42947v-5.76641" fill="none" stroke="url(#color-3)" stroke-width="2.5"/><path d="M86.41761,267.4725v-24.98776h15.84872v24.98776z" fill-opacity="0.4" fill="#3e0080" stroke="#fedbff" stroke-width="2.5"/><path d="M37.52705,293.31672v-19.18703h26.7726v19.18703z" fill-opacity="0.4" fill="#3e0080" stroke="#fedbff" stroke-width="2.5"/><path d="M48.85092,325.62672v-4.77707h4.77707v4.77707z" fill="#fedbff" stroke="none" stroke-width="0"/><path d="M16.9854,274.16592v-40.36484h69.89632v40.36485z" fill-opacity="0.4" fill="#3e0080" stroke="#fedbff" stroke-width="2.5"/><path d="M19.60249,233.57416v-15.2703h52.51161v15.2703z" fill-opacity="0.4" fill="#3e0080" stroke="#fedbff" stroke-width="2.5"/></g></g></g></svg>