<svg version="1.1" xmlns="http://www.w3.org/2000/svg" xmlns:xlink="http://www.w3.org/1999/xlink" width="17.78353" height="27.71747" viewBox="0,0,17.78353,27.71747"><g transform="translate(-311.09367,-167.16216)"><g data-paper-data="{&quot;isPaintingLayer&quot;:true}" fill-rule="nonzero" stroke-linecap="butt" stroke-linejoin="miter" stroke-miterlimit="10" stroke-dasharray="" stroke-dashoffset="0" style="mix-blend-mode: normal"><path d="M312.37442,183.26601c-0.00281,-0.1157 -0.00303,-6.50312 0,-6.64357c0.06853,-3.17583 1.00031,-4.06286 4.31941,-4.14851c0.09994,-0.00258 6.60455,0.00082 6.68486,0c3.33139,-0.0341 4.1779,0.97092 4.24851,4.17174c0.00121,0.05492 0.00011,6.62741 0,6.64357c-0.02378,3.36542 -0.92433,4.22289 -4.27206,4.23726c-0.0904,0.00039 -6.65679,0.00106 -6.7084,0c-3.35251,-0.06877 -4.19279,-0.98656 -4.27233,-4.26049z" fill="#4a0016" stroke="#ff004d" stroke-width="2.5"/><text transform="translate(316.17932,187.34479) scale(0.5382,0.5382)" font-size="40" xml:space="preserve" fill="#ff004d" fill-rule="nonzero" stroke="#4a0016" stroke-width="7" stroke-linecap="butt" stroke-linejoin="miter" stroke-miterlimit="10" stroke-dasharray="" stroke-dashoffset="0" font-family="&quot;Neon&quot;, Sans Serif" font-weight="normal" text-anchor="start" style="mix-blend-mode: normal"><tspan x="0" dy="0">1</tspan></text><text transform="translate(316.17932,187.34479) scale(0.5382,0.5382)" font-size="40" xml:space="preserve" fill="#ff004d" fill-rule="nonzero" stroke-opacity="0" stroke="#000000" stroke-width="0" stroke-linecap="butt" stroke-linejoin="miter" stroke-miterlimit="10" stroke-dasharray="" stroke-dashoffset="0" font-family="&quot;Neon&quot;, Sans Serif" font-weight="normal" text-anchor="start" style="mix-blend-mode: normal"><tspan x="0" dy="0">1</tspan></text></g></g></svg>