<svg version="1.1" xmlns="http://www.w3.org/2000/svg" xmlns:xlink="http://www.w3.org/1999/xlink" width="109.13531" height="109.28831" viewBox="0,0,109.13531,109.28831"><defs><radialGradient cx="176.15385" cy="201.18643" r="54.76369" gradientUnits="userSpaceOnUse" id="color-1"><stop offset="0" stop-color="#3e0e6b" stop-opacity="0.51373"/><stop offset="1" stop-color="#3e0e6b" stop-opacity="0"/></radialGradient><linearGradient x1="178.0116" y1="181.17125" x2="183.8079" y2="218.12688" gradientUnits="userSpaceOnUse" id="color-2"><stop offset="0" stop-color="#f2b34d"/><stop offset="1" stop-color="#f2544e"/></linearGradient><linearGradient x1="178.33663" y1="183.24355" x2="183.48286" y2="216.05461" gradientUnits="userSpaceOnUse" id="color-3"><stop offset="0" stop-color="#b9643b"/><stop offset="1" stop-color="#cb4641"/></linearGradient><linearGradient x1="178.53283" y1="184.49449" x2="183.28666" y2="214.80365" gradientUnits="userSpaceOnUse" id="color-4"><stop offset="0" stop-color="#f2b34d"/><stop offset="1" stop-color="#f2544e"/></linearGradient></defs><g transform="translate(-124.93708,-148.22817)"><g data-paper-data="{&quot;isPaintingLayer&quot;:true}" fill-rule="nonzero" stroke-linecap="butt" stroke-linejoin="miter" stroke-miterlimit="10" stroke-dasharray="" stroke-dashoffset="0" style="mix-blend-mode: normal"><g><path d="M141.75885,247.77368c-1.97197,-14.5735 -9.61964,-71.09251 -10.69819,-79.06339c-0.24792,-1.83221 1.04004,-3.49896 2.89348,-3.74975c8.00527,-1.08321 64.39492,-8.71338 78.99695,-10.6892c2.19517,-0.29703 3.65323,1.06571 3.91035,2.96591c1.10116,8.13796 8.79483,64.16355 10.71134,78.32729c0.27549,2.03602 -1.18496,4.24187 -3.1708,4.51058c-8.25103,1.11646 -64.33697,8.70554 -78.78899,10.66106c-2.16108,0.29242 -3.55917,-0.78254 -3.85414,-2.96249z" fill-opacity="0.74902" fill="#4b166b" stroke="none" stroke-width="0"/><g><path d="M144.843,163.08064c11.4488,-1.6222 22.53967,-4.53121 34.02651,-5.87294c3.09333,-0.36132 10.97698,-1.13504 15.91787,-2.5337c1.20766,0.64092 2.56233,1.04158 4.0003,1.13826c0.22499,0.01513 0.45203,0.02281 0.68085,0.02281c1.29494,0 2.53239,-0.24614 3.66812,-0.69418c0.69149,-0.11015 1.41476,-0.2258 2.1292,-0.3403c2.7692,1.73632 5.38709,3.7212 7.81649,5.93485c0.49328,1.68456 2.51308,0.82745 3.06147,2.54183c0.22453,0.70193 0.71826,2.8347 0.73187,3.62554c-0.41691,1.24099 1.66672,5.50034 1.69576,6.68504c0.07785,3.17588 0.1162,14.15933 1.03382,17.08369c1.12876,3.59725 1.6387,7.86864 2.30758,11.57444c1.62937,9.0272 0.66437,17.92445 1.15724,27.18901c-1.98621,3.30115 -4.32073,6.39729 -6.97113,9.22759c-4.17505,0.45392 -8.18667,1.03516 -10.73122,1.56019c-1.10104,0.22718 -1.93529,1.01128 -3.14714,1.0974c-10.83362,0.76992 -21.47932,1.6367 -32.18013,2.9743c-7.34467,0.91808 -14.32116,3.10352 -21.60761,4.1216c-2.73076,-1.60187 -5.32524,-3.44015 -7.74966,-5.49685c-0.63349,-4.59464 -1.68995,-10.31164 -2.63987,-12.31701c-0.12362,-0.26099 -0.68231,-0.54812 -1.19734,-0.78278c-0.25371,-1.37268 -0.47749,-2.55749 -0.62229,-3.42629c-0.47269,-2.83612 -0.38269,-6.55284 -0.90738,-9.9184c0.49455,-4.46883 -0.73309,-9.73219 -0.82347,-14.31202c-0.06304,-3.19439 0.77966,-13.04901 -1.55003,-17.16506c-0.33099,-0.5848 -1.5243,-0.36735 -1.7503,-1.00017c-1.4544,-4.07245 -0.02021,-8.82951 -0.57139,-13.24147c1.07046,-1.60373 2.22624,-3.15277 3.46327,-4.63951c1.33978,-0.48062 2.5138,-0.9797 3.20923,-1.42225c0.08056,-0.05126 0.15738,-0.10517 0.23075,-0.1615c2.53652,-0.49009 5.09442,-1.13694 7.31863,-1.45209z" fill="url(#color-1)" stroke="none" stroke-width="0"/><path d="M149.18138,241.78247c0.2561,-0.73576 0.96583,-0.49118 1.22348,-1.23318c2.85195,-8.21346 7.0512,-18.27341 7.19861,-18.38468c4.60038,-3.47231 14.87816,3.97653 15.06345,4.96888c0.00764,0.04096 -8.75198,12.24477 -13.53763,20.84359c-5.02632,1.0856 -7.90668,0.20842 -13.07633,0.72568c1.21128,-2.26805 2.34718,-4.67588 3.12842,-6.92029z" data-paper-data="{&quot;index&quot;:null}" fill="#915c9c" stroke="#3e0e6c" stroke-width="2.5"/><path d="" data-paper-data="{&quot;index&quot;:null}" fill="#915c9c" stroke="#3e0e6c" stroke-width="2.5"/><path d="M143.57879,167.69321c0.44913,0.28669 -0.36426,0.64436 0.08769,0.93369c8.5616,5.48077 21.34155,12.05746 21.35619,12.10045c0.32521,0.95568 -4.97861,12.4877 -10.69067,11.71778c-0.18303,-0.02468 -8.77627,-6.73233 -15.28978,-12.49156c-0.58844,-0.52029 -1.08701,0.04092 -1.67103,-0.47467c-1.92733,-1.70152 -4.3102,-3.36617 -6.65216,-4.83279c0.10087,-2.40793 0.03877,-4.80248 -0.92051,-7.02853c0.39034,-0.13901 0.7695,-0.30158 1.13578,-0.48601c2.46842,-0.71839 5.1443,-1.66415 6.35932,-2.43734c0.10504,-0.06685 0.20374,-0.13819 0.2967,-0.21354c0.19909,0.08113 0.38239,0.11408 0.54397,0.08148c1.82409,0.95795 3.69229,2.01254 5.44452,3.13103z" data-paper-data="{&quot;index&quot;:null}" fill="#915c9c" stroke="#3e0e6c" stroke-width="2.5"/><path d="M216.56944,237.73312c-0.39813,-0.35411 0.46158,-0.57865 0.06107,-0.93581c-7.58703,-6.76585 -19.16601,-15.28098 -19.17365,-15.32574c-0.16997,-0.9951 6.89095,-11.54314 12.40935,-9.87952c0.17579,0.053 11.8644,10.64224 17.37456,17.3341c0.23208,3.92095 0.86401,5.00584 1.05302,8.94742c-1.91053,0.11538 -8.31932,2.98784 -10.37264,3.19533c-0.30438,-0.25994 -1.05534,-3.07218 -1.35171,-3.33578z" data-paper-data="{&quot;index&quot;:null}" fill="#915c9c" stroke="#3e0e6c" stroke-width="2.5"/><path d="" data-paper-data="{&quot;index&quot;:null}" fill="#915c9c" stroke="#3e0e6c" stroke-width="2.5"/><path d="M212.06595,162.42277c-2.97217,8.17072 -7.3186,18.16797 -7.46763,18.27705c-4.65086,3.40442 -14.81821,-4.19443 -14.9889,-5.1894c-0.00745,-0.04345 7.61244,-11.23992 12.54497,-20.04017c0.33482,-0.09313 0.66257,-0.20325 0.98225,-0.32936c3.30309,-0.52615 9.13141,-2.078 9.45949,-2.12977c0.13547,-0.02138 1.17102,1.90744 1.30649,1.88604c0.63114,2.49842 0.11312,2.42748 0.85385,4.92894c-0.29678,0.58694 -2.43768,1.90164 -2.69051,2.59667z" data-paper-data="{&quot;index&quot;:null}" fill="#915c9c" stroke="#3e0e6c" stroke-width="2.5"/><path d="" data-paper-data="{&quot;index&quot;:null}" fill="#915c9c" stroke="#3e0e6c" stroke-width="2.5"/><path d="M206.78247,195.61139c2.42467,15.45908 -7.85512,29.91176 -22.96055,32.28096c-15.10543,2.3692 -29.3164,-8.24223 -31.74107,-23.70131c-2.42467,-15.45908 7.85511,-29.91175 22.96054,-32.28096c15.10543,-2.3692 29.3164,8.24222 31.74107,23.7013z" fill="#762e36" stroke="#3e0e6c" stroke-width="2.5"/><g fill="#4e175c" stroke="none" stroke-width="0"><g><g><path d="M171.99374,177.73996c-0.32692,-0.97545 0.90389,-2.26509 2.7491,-2.88049c1.84521,-0.6154 3.60607,-0.32351 3.93299,0.65194c0.24389,0.72767 -1.52271,4.98492 -1.9914,5.14123c-0.8407,0.28038 -4.51271,-2.38168 -4.69067,-2.91269z"/><path d="M179.14654,175.44122c0.12597,-1.00911 1.80187,-1.55633 3.74322,-1.22227c1.94135,0.33405 3.41299,1.4229 3.28702,2.43199c-0.09397,0.75278 -3.54205,3.64586 -4.03516,3.56102c-0.8845,-0.15221 -3.06365,-4.2214 -2.99508,-4.77074z"/><path d="M186.65432,176.7542c0.35191,-0.94099 2.11803,-1.05385 3.94477,-0.25211c1.82674,0.80176 3.02233,2.21455 2.67043,3.15554c-0.26252,0.70199 -4.29635,2.63666 -4.76036,2.43301c-0.83229,-0.3653 -2.04642,-4.82417 -1.85485,-5.33644z"/><path d="M197.37093,181.57186c1.31051,1.56662 1.78342,3.36982 1.05628,4.02755c-0.54243,0.49067 -5.04182,0.27659 -5.3747,-0.12134c-0.59709,-0.71378 0.2331,-5.19385 0.62894,-5.55191c0.72714,-0.65772 2.37897,0.07908 3.68947,1.6457z"/><path d="M199.60294,185.76456c0.94359,-0.23732 2.13048,1.18337 2.65103,3.1732c0.52055,1.98984 0.17761,3.79531 -0.76596,4.03263c-0.7039,0.17703 -4.70567,-2.11774 -4.83789,-2.62316c-0.23717,-0.90661 2.43917,-4.45347 2.95283,-4.58267z"/></g><g data-paper-data="{&quot;index&quot;:null}"><path d="M171.83084,177.48006c0.17797,0.53101 -1.15068,4.86083 -1.99139,5.14122c-0.46869,0.15632 -4.4468,-2.185 -4.69069,-2.91268c-0.32692,-0.97545 0.90387,-2.26508 2.74908,-2.88048c1.84521,-0.6154 3.60607,-0.32352 3.933,0.65193z"/><path d="M164.73041,179.935c0.38599,0.39773 1.09839,4.95611 0.4835,5.60839c-0.3428,0.36364 -4.84183,0.121 -5.37076,-0.42403c-0.70904,-0.73062 -0.18978,-2.48344 1.1598,-3.91506c1.34957,-1.43162 3.01842,-1.99991 3.72746,-1.26929z"/><path d="M159.5239,185.48835c0.46191,0.29432 2.18022,4.58505 1.73553,5.37624c-0.24793,0.44108 -4.63708,1.31556 -5.27004,0.91224c-0.84849,-0.54065 -0.74508,-2.38666 0.23095,-4.12318c0.97602,-1.73651 2.45507,-2.70595 3.30356,-2.1653z"/><path d="M155.82216,192.23849c0.53212,0.04857 3.89649,3.12973 3.84982,4.0582c-0.02602,0.51762 -3.49162,3.38811 -4.22081,3.32155c-0.97746,-0.08922 -1.68682,-1.81355 -1.58436,-3.85142c0.10244,-2.03786 0.97789,-3.61755 1.95537,-3.52833z"/><path d="M154.61139,200.4556c0.48827,-0.20496 4.76492,1.023 5.12204,1.8896c0.19908,0.48312 -1.61445,4.71738 -2.28356,4.99826c-0.89693,0.37651 -2.25946,-0.86017 -3.04327,-2.7622c-0.78382,-1.90203 -0.69212,-3.74915 0.20481,-4.12566z"/></g></g><g data-paper-data="{&quot;index&quot;:null}"><g><path d="M185.98586,222.20458c-0.16511,-0.53515 1.26645,-4.83535 2.1133,-5.09664c0.47212,-0.14568 4.39135,2.2865 4.61762,3.01985c0.30331,0.98303 -0.95757,2.24484 -2.81626,2.81833c-1.8587,0.5735 -3.61134,0.2415 -3.91465,-0.74153z"/><path d="M193.14029,219.91091c-0.37619,-0.40658 -0.97881,-4.98181 -0.3487,-5.62018c0.35129,-0.35589 4.84138,-0.01083 5.35689,0.54631c0.69103,0.74686 0.1301,2.48812 -1.25287,3.88923c-1.38297,1.40112 -3.06429,1.93149 -3.75532,1.18463z"/><path d="M198.47634,214.47526c-0.45453,-0.30488 -2.06878,-4.63533 -1.60542,-5.4165c0.25832,-0.43551 4.66542,-1.21023 5.28829,-0.79243c0.83492,0.56003 0.68734,2.40397 -0.32966,4.11852c-1.017,1.71454 -2.51828,2.65046 -3.35321,2.09043z"/><path d="M202.33737,207.80841c-0.53059,-0.06069 -3.81874,-3.21884 -3.74983,-4.1464c0.03841,-0.51711 3.57045,-3.30913 4.29753,-3.22597c0.97467,0.11148 1.64218,1.85219 1.49094,3.88801c-0.15124,2.03582 -1.06397,3.59583 -2.03863,3.48435z"/><path d="M203.74437,199.61767c-0.49285,0.19387 -4.73711,-1.13159 -5.07321,-2.00644c-0.18736,-0.48772 1.72646,-4.6813 2.40184,-4.94699c0.90534,-0.35614 2.23726,0.91172 2.97494,2.83185c0.73768,1.92013 0.60176,3.76543 -0.30358,4.12157z"/></g><g data-paper-data="{&quot;index&quot;:null}"><path d="M183.1888,225.32888c-1.8587,0.5735 -3.61134,0.2415 -3.91465,-0.74153c-0.22627,-0.73334 1.64119,-4.95097 2.1133,-5.09665c0.84685,-0.26129 4.4525,2.4847 4.61762,3.01985c0.30331,0.98303 -0.95757,2.24483 -2.81627,2.81833z"/><path d="M175.03211,225.78409c-1.932,-0.37829 -3.37654,-1.50078 -3.22646,-2.50715c0.11195,-0.75075 3.62703,-3.56576 4.11777,-3.46968c0.88026,0.17235 2.96032,4.29173 2.87863,4.83958c-0.15008,1.00637 -1.83794,1.51555 -3.76994,1.13726z"/><path d="M167.38284,223.32513c-1.80625,-0.84345 -2.96715,-2.28365 -2.59293,-3.21676c0.27918,-0.6961 4.35662,-2.53925 4.81542,-2.32502c0.82295,0.38429 1.92933,4.87144 1.72561,5.37943c-0.37422,0.93312 -2.14184,1.00582 -3.9481,0.16236z"/><path d="M160.73725,218.10052c-1.27203,-1.59668 -1.70136,-3.41089 -0.95896,-4.05215c0.55382,-0.47838 5.04498,-0.16189 5.36809,0.24367c0.57955,0.72747 -0.35748,5.1893 -0.76163,5.5384c-0.7424,0.64128 -2.37545,-0.13325 -3.64749,-1.72992z"/><path d="M156.03416,210.62244c-0.47248,-2.00197 -0.08648,-3.79988 0.86213,-4.01576c0.70766,-0.16105 4.65166,2.22513 4.77168,2.73363c0.21527,0.91213 -2.5443,4.39858 -3.0607,4.51611c-0.94861,0.21588 -2.10063,-1.23201 -2.57311,-3.23398z"/></g></g></g><g><path d="M162.57308,202.52508c-1.60061,-10.205 5.31148,-19.76543 15.43854,-21.35381c10.12706,-1.58838 19.63422,5.39679 21.23482,15.60181c1.60061,10.205 -5.31148,19.76543 -15.43854,21.35381c-10.12706,1.58838 -19.63421,-5.39679 -21.23481,-15.6018z" fill="url(#color-2)" stroke="#3e0e6c" stroke-width="2.5"/><path d="M164.62952,202.20254c-1.42109,-9.06052 4.71578,-17.54875 13.7071,-18.95899c8.99132,-1.41023 17.43225,4.79154 18.85335,13.85206c1.42109,9.06052 -4.7158,17.54876 -13.70711,18.95899c-8.99132,1.41024 -17.43225,-4.79155 -18.85334,-13.85207z" fill="url(#color-3)" stroke="none" stroke-width="0"/><path d="M165.87092,202.00783c-1.31273,-8.36964 4.3562,-16.21063 12.66191,-17.51334c8.30572,-1.30272 16.10302,4.42618 17.41574,12.79583c1.31273,8.36964 -4.3562,16.21063 -12.66192,17.51333c-8.30572,1.30272 -16.10301,-4.42619 -17.41574,-12.79582z" fill="url(#color-4)" stroke="none" stroke-width="0"/></g><path d="M148.46324,205.86045c-1.45922,-9.30358 0.82234,-17.96398 5.88049,-24.49962c0.29753,-0.38443 -0.55043,-0.95523 -0.23389,-1.32466c4.56702,-5.33005 12.24804,-8.87331 20.1436,-10.11168c0.60854,-0.09545 1.25262,-1.11943 1.85297,-1.18528c9.29429,-1.01968 17.76936,1.90405 23.83921,7.30363c0.40782,0.36279 1.08425,0.13026 1.46954,0.51471c4.55887,4.54891 7.25031,11.20635 8.38164,18.41937c0.14461,0.92203 1.59811,0.87555 1.664,1.78181c0.55802,7.67589 -1.84443,15.73029 -6.47182,21.55771c-0.41398,0.52134 -0.96712,0.25116 -1.41406,0.74859c-5.15085,5.73272 -12.44367,9.82773 -20.80418,11.13904c-0.56891,0.08923 -1.09735,0.42527 -1.66623,0.4884c-11.70459,1.29874 -22.86999,-3.74223 -28.6936,-11.44546c-0.62011,-0.82026 0.67279,-0.6955 0.13711,-1.60211c-1.99068,-3.36909 -3.38511,-7.32371 -4.08476,-11.78445zM183.43764,224.84492c13.64036,-2.13942 22.96372,-14.93144 20.8243,-28.57181c-2.13942,-13.64037 -14.93145,-22.96372 -28.57181,-20.8243c-13.64036,2.13942 -22.96372,14.93145 -20.8243,28.57181c2.13942,13.64037 14.93145,22.96372 28.57181,20.8243z" fill="#75587b" stroke="#3e0e6c" stroke-width="2.5"/><g fill="#ffe1da" stroke="#3e0e6c" stroke-width="2.5"><g><g><path d="M179.90075,173.0053c1.98729,-0.36471 3.75302,0.20756 3.9439,1.2782c0.14238,0.7987 -2.30555,4.98769 -2.81032,5.08033c-0.90544,0.16617 -4.28236,-3.17673 -4.38627,-3.75958c-0.19088,-1.07064 1.2654,-2.23424 3.25269,-2.59895z"/><path d="M184.33872,174.28137c0.27944,-1.03727 2.08264,-1.35628 4.02755,-0.71251c1.94491,0.64378 3.29504,2.00651 3.01559,3.04378c-0.20847,0.77379 -4.18118,3.28004 -4.6752,3.11652c-0.88613,-0.29332 -2.52007,-4.88312 -2.36795,-5.4478z"/><path d="M191.85714,176.79307c0.50144,-0.93176 2.33278,-0.78238 4.0904,0.33362c1.75762,1.11601 2.77597,2.77605 2.27453,3.70779c-0.37408,0.69509 -4.80613,2.10935 -5.25258,1.82587c-0.8008,-0.50848 -1.38535,-5.36005 -1.11236,-5.86729z"/><path d="M202.15131,183.45958c1.11352,1.83849 1.33132,3.79775 0.48648,4.37613c-0.63025,0.43147 -5.22118,-0.47415 -5.50402,-0.94115c-0.50733,-0.83765 1.01164,-5.40175 1.47158,-5.71661c0.84484,-0.57838 2.43245,0.44313 3.54596,2.28163z"/><path d="M203.82126,188.1867c1.00472,-0.1055 2.01296,1.5615 2.25196,3.72335c0.23899,2.16185 -0.38177,3.99991 -1.3865,4.10542c-0.74952,0.07871 -4.51985,-2.92967 -4.58056,-3.47879c-0.10889,-0.98498 3.16814,-4.29253 3.71509,-4.34997z"/></g><g data-paper-data="{&quot;index&quot;:null}"><path d="M176.51932,175.30755c0.1039,0.58284 -1.90488,4.91414 -2.81032,5.08031c-0.50477,0.09264 -4.24389,-2.96087 -4.38627,-3.75957c-0.19088,-1.07064 1.2654,-2.23424 3.25268,-2.59895c1.98729,-0.36471 3.75303,0.20757 3.94391,1.27821z"/><path d="M168.85922,176.80189c0.33743,0.47483 0.3917,5.35455 -0.33701,5.94422c-0.40625,0.32874 -4.99257,-0.60674 -5.45497,-1.25742c-0.61987,-0.87223 0.17422,-2.62847 1.77362,-3.92271c1.59941,-1.29423 3.3985,-1.63633 4.01836,-0.76411z"/><path d="M162.68442,181.82661c0.43081,0.37807 1.55836,5.12999 0.98385,5.89086c-0.32029,0.42418 -4.95979,0.67477 -5.55015,0.15668c-0.79137,-0.69449 -0.41068,-2.61128 0.85026,-4.28126c1.26094,-1.66998 2.92467,-2.46076 3.71604,-1.76628z"/><path d="M157.87766,188.3321c0.53948,0.13145 3.53803,3.86649 3.35205,4.83137c-0.10368,0.53792 -4.09106,3.01787 -4.83033,2.83775c-0.991,-0.24147 -1.46346,-2.15399 -1.05524,-4.27175c0.40822,-2.11776 1.54253,-3.63883 2.53352,-3.39737z"/><path d="M155.41211,196.75057c0.53214,-0.14059 4.74346,1.79266 4.98155,2.75394c0.13272,0.53591 -2.36004,4.69371 -3.08924,4.88638c-0.97749,0.25827 -2.19353,-1.24269 -2.71607,-3.35251c-0.52254,-2.10981 -0.15374,-4.02953 0.82376,-4.2878z"/></g></g><g data-paper-data="{&quot;index&quot;:null}"><g><path d="M184.41339,224.27036c-0.09008,-0.58523 2.02004,-4.86993 2.92895,-5.01519c0.50672,-0.08097 4.17182,3.05875 4.29528,3.8607c0.16549,1.075 -1.31757,2.20491 -3.31248,2.52372c-1.99491,0.3188 -3.74626,-0.29423 -3.91175,-1.36922z"/><path d="M192.105,222.953c-0.32605,-0.4826 -0.26501,-5.36335 0.47727,-5.93616c0.41383,-0.31934 4.97574,0.722 5.42254,1.38332c0.59895,0.88649 -0.23622,2.62434 -1.86542,3.88156c-1.6292,1.25723 -3.43545,1.55777 -4.0344,0.67127z"/><path d="M198.39546,218.07109c-0.42166,-0.388 -1.43639,-5.16574 -0.84419,-5.91331c0.33015,-0.41676 4.97326,-0.5602 5.55109,-0.0285c0.77456,0.71274 0.34879,2.62064 -0.95098,4.26142c-1.29977,1.64078 -2.98137,2.39311 -3.75592,1.68039z"/><path d="M203.35347,211.6769c-0.53612,-0.14389 -3.44492,-3.948 -3.23622,-4.90855c0.11634,-0.53549 4.16031,-2.92325 4.89496,-2.72606c0.98482,0.26433 1.41184,2.18767 0.95378,4.29591c-0.45806,2.10824 -1.62772,3.60303 -2.61253,3.33869z"/><path d="M206.01671,203.31577c-0.53518,0.1283 -4.69875,-1.90213 -4.91401,-2.86884c-0.11999,-0.53895 2.46976,-4.63898 3.20315,-4.81481c0.9831,-0.23568 2.16307,1.2933 2.63551,3.41508c0.47244,2.12178 0.05845,4.03289 -0.92465,4.26857z"/></g><g data-paper-data="{&quot;index&quot;:null}"><path d="M181.07518,227.11727c-1.99491,0.3188 -3.74626,-0.29423 -3.91174,-1.36923c-0.12345,-0.80195 2.42222,-4.9342 2.92894,-5.01518c0.90892,-0.14525 4.20518,3.27549 4.29528,3.8607c0.16549,1.075 -1.31755,2.2049 -3.31247,2.5237z"/><path d="M172.6272,226.35825c-1.92873,-0.68865 -3.24599,-2.08252 -2.94218,-3.11328c0.22663,-0.76893 4.25659,-3.18333 4.74649,-3.00842c0.87876,0.31376 2.40346,4.9411 2.23807,5.50223c-0.30381,1.03077 -2.11365,1.30811 -4.04239,0.61946z"/><path d="M165.13375,222.62548c-1.73039,-1.15655 -2.70899,-2.84002 -2.1858,-3.76015c0.39031,-0.68641 4.85356,-1.99824 5.2931,-1.70448c0.7884,0.52694 1.25802,5.39179 0.9732,5.89269c-0.5232,0.92012 -2.35011,0.72849 -4.0805,-0.42807z"/><path d="M159.08269,216.14961c-1.06955,-1.86411 -1.24095,-3.82831 -0.38286,-4.38716c0.64013,-0.41689 5.20738,0.59473 5.47905,1.06822c0.48729,0.84931 -1.13877,5.37813 -1.6059,5.68235c-0.85809,0.55884 -2.42075,-0.4993 -3.49029,-2.36343z"/><path d="M155.36236,207.60897c-0.1878,-2.16727 0.47607,-3.99091 1.48279,-4.07321c0.751,-0.0614 4.44839,3.03392 4.4961,3.58441c0.08557,0.98745 -3.26797,4.21917 -3.81601,4.26397c-1.00672,0.0823 -1.97508,-1.6079 -2.16288,-3.77517z"/></g></g></g><path d="M180.29428,200.10287c0.53543,3.4137 0.75808,10.36361 0.52124,10.40075c-0.24519,0.03846 -2.16499,-6.72602 -2.68806,-10.06089c-0.56877,-3.62636 -0.73558,-10.36712 -0.52124,-10.40073c0.16978,-0.02663 2.0533,6.01381 2.68806,10.06088z" fill="#3e0e6c" stroke="none" stroke-width="0"/></g><path d="M141.75885,247.77368c-1.97197,-14.5735 -9.61964,-71.09251 -10.69819,-79.06339c-0.24792,-1.83221 1.04004,-3.49896 2.89348,-3.74975c8.00527,-1.08321 64.39492,-8.71338 78.99695,-10.6892c2.19517,-0.29703 3.65323,1.06571 3.91035,2.96591c1.10116,8.13796 8.79483,64.16355 10.71134,78.32729c0.27549,2.03602 -1.18496,4.24187 -3.1708,4.51058c-8.25103,1.11646 -64.33697,8.70554 -78.78899,10.66106c-2.16108,0.29242 -3.55917,-0.78254 -3.85414,-2.96249z" fill="none" stroke="#4b176b" stroke-width="6.5"/><path d="M136.47789,257.51648l-11.54081,-97.36525l95.7547,-11.92306l13.38061,96.79916z" fill="none" stroke="none" stroke-width="0"/></g></g></g></svg>