<svg version="1.1" xmlns="http://www.w3.org/2000/svg" xmlns:xlink="http://www.w3.org/1999/xlink" width="97.88579" height="97.88579" viewBox="0,0,97.88579,97.88579"><g transform="translate(-271.0571,-131.05711)"><g data-paper-data="{&quot;isPaintingLayer&quot;:true}" fill-rule="nonzero" stroke-linecap="butt" stroke-linejoin="miter" stroke-miterlimit="10" stroke-dasharray="" stroke-dashoffset="0" style="mix-blend-mode: normal"><path d="" fill="#8b65ae" stroke="#5c00aa" stroke-width="2.5"/><path d="" fill="#a17cc4" stroke="#5c00aa" stroke-width="2.5"/><path d="" data-paper-data="{&quot;index&quot;:null}" fill="#b867ff" stroke="#5c00aa" stroke-width="2.5"/><path d="" data-paper-data="{&quot;index&quot;:null}" fill="#ffc374" stroke="none" stroke-width="0"/><path d="" data-paper-data="{&quot;index&quot;:null}" fill="none" stroke="#5c00aa" stroke-width="2.5"/><path d="" fill="#a17cc4" stroke="#5c00aa" stroke-width="2.5"/><path d="M318.95222,152.60265c3.80791,0 7.63775,14.05484 7.63775,15.95997c0,1.90514 -3.08692,3.44956 -6.89483,3.44956c-3.80791,0 -6.89483,-1.54442 -6.89483,-3.44956c0,-1.45832 0.73664,-10.21952 3.08877,-13.67132c0.17324,-0.25422 0.98856,0.80121 1.17225,0.59462c0.58051,-0.65286 1.21246,-2.88326 1.89087,-2.88326z" fill="#ff7a94" stroke="#85000d" stroke-width="2.5"/><path d="M317.03708,203.99498c-0.1837,-0.20659 -0.99902,0.84884 -1.17225,0.59462c-2.35213,-3.45181 -3.08878,-12.213 -3.08878,-13.67132c0,-1.90514 3.08692,-3.44956 6.89483,-3.44956c3.80791,0 6.89483,1.54443 6.89483,3.44956c0,1.90514 -3.82984,15.95996 -7.63775,15.95996c-0.67842,0 -1.31036,-2.2304 -1.89087,-2.88326z" data-paper-data="{&quot;index&quot;:null}" fill="#ff7a94" stroke="#85000d" stroke-width="2.5"/><path d="M318.53574,198.22486c-10.07785,0 -18.24756,-8.16971 -18.24756,-18.24756c0,-10.07785 8.16971,-18.24756 18.24756,-18.24756c1.88339,0 3.64807,0.28533 5.27267,0.81513c0.63377,0.20667 -0.13351,-2.30888 0.45633,-2.03022c5.98885,2.82923 11.02839,12.00291 11.02839,19.46266c0,7.26403 -4.53161,16.18999 -10.24343,19.12647c-0.71303,0.36657 -0.39966,-1.97214 -1.18015,-1.71411c-0.15407,0.05094 0.64578,-0.21874 0.48919,-0.17224c-1.51166,0.44883 -4.09496,1.00743 -5.82298,1.00743z" fill="#ff7a94" stroke="#85000d" stroke-width="2.5"/><path d="M334.51437,174.7301c1.23741,0 2.8313,2.23241 2.8313,4.98622c0,2.75382 -1.59389,4.98622 -2.8313,4.98622c-1.23741,0 -1.59152,-2.23241 -1.59152,-4.98622c0,-2.75382 0.35411,-4.98622 1.59152,-4.98622z" fill="#ffaf54" stroke="#85000d" stroke-width="2.5"/><path d="M325.2297,160.12219c0.83551,0 5.32562,4.65523 5.32562,5.27236c0,0.97062 -2.28585,0.15977 -4.58003,0.15977c-2.29418,0 -4.15398,-0.78684 -4.15398,-1.75745c0,-0.63763 2.62133,-3.67468 3.40839,-3.67468z" fill="#85000d" stroke="none" stroke-width="0"/><path d="M322.03432,195.13874c0,-0.97062 1.8598,-1.75745 4.15398,-1.75745c2.29418,0 4.58003,-0.81084 4.58003,0.15977c0,0.61713 -4.49012,5.27236 -5.32562,5.27236c-0.78706,0 -3.40839,-3.03705 -3.40839,-3.67468z" data-paper-data="{&quot;index&quot;:null}" fill="#85000d" stroke="none" stroke-width="0"/><path d="M317.09551,171.60706c0,-4.43411 3.63239,-8.02867 8.11318,-8.02867c4.48079,0 8.11318,4.23135 8.11318,8.66546c0,4.43411 -3.20787,7.07349 -7.68866,7.07349c-4.48079,0 -8.53771,-3.27616 -8.53771,-7.71028z" fill="#ffffff" stroke="#85000d" stroke-width="2.5"/><path d="M325.73936,180.03315c4.48079,0 7.68866,2.63938 7.68866,7.07349c0,4.43411 -3.63239,8.66546 -8.11318,8.66546c-4.48079,0 -8.11318,-3.59456 -8.11318,-8.02867c0,-4.43411 4.05692,-7.71028 8.53771,-7.71028z" data-paper-data="{&quot;index&quot;:null}" fill="#ffffff" stroke="#85000d" stroke-width="2.5"/><path d="M328.14901,169.84452c2.08083,0 3.76768,1.33047 3.76768,2.97168c0,1.64122 -1.68685,2.97168 -3.76768,2.97168c-2.08083,0 -3.76767,-1.33046 -3.76767,-2.97168c0,-1.64122 1.68685,-2.97168 3.76767,-2.97168z" fill="#85000d" stroke="none" stroke-width="0"/><path d="M324.48745,186.53431c0,-1.64122 1.68685,-2.97168 3.76767,-2.97168c2.08083,0 3.76768,1.33046 3.76768,2.97168c0,1.64122 -1.68685,2.97168 -3.76768,2.97168c-2.08083,0 -3.76767,-1.33047 -3.76767,-2.97168z" data-paper-data="{&quot;index&quot;:null}" fill="#85000d" stroke="none" stroke-width="0"/><path d="M292.11727,182.26193c0,-1.39287 12.52354,-3.43717 12.52354,-2.01651c0,1.41663 -2.46496,2.57265 -5.03981,4.00367c-2.53896,1.41108 -5.18477,3.10716 -5.6795,3.10716c-0.99645,0 -1.80424,-2.2808 -1.80424,-5.09432z" fill="#ff7a94" stroke="#85000d" stroke-width="2.5"/><path d="M368.9429,228.94291h-97.88579v-97.88579l97.88579,0z" fill="none" stroke="none" stroke-width="0"/></g></g></svg>