<svg version="1.1" xmlns="http://www.w3.org/2000/svg" xmlns:xlink="http://www.w3.org/1999/xlink" width="378.30091" height="295.07273" viewBox="0,0,378.30091,295.07273"><defs><linearGradient x1="454.70158" y1="273.54071" x2="631.3747" y2="281.57313" gradientUnits="userSpaceOnUse" id="color-1"><stop offset="0" stop-color="#dbe2fa"/><stop offset="1" stop-color="#e0c4fa"/></linearGradient></defs><g transform="translate(-249.61271,-97.34371)"><g data-paper-data="{&quot;isPaintingLayer&quot;:true}" fill-rule="nonzero" stroke-linejoin="miter" stroke-miterlimit="10" stroke-dasharray="" stroke-dashoffset="0" style="mix-blend-mode: normal"><path d="" fill="#ffffff" stroke="#3e0e6c" stroke-width="2.5" stroke-linecap="butt"/><path d="M294.76428,195.2647c-13.75726,0 -35.01811,23.04074 -41.08431,16.94371c-1.79292,-1.80203 3.579,-25.78466 3.579,-29.15474c0,-8.71184 38.36611,-40.99634 84.47614,-67.45183c32.07786,-18.40458 186.69528,56.5094 170.68329,126.94929c-10.33439,45.46305 -129.94648,63.58787 -138.4594,70.9484c-3.08972,2.67146 95.38236,-32.42324 83.55817,-72.77657c-9.78885,-33.40718 -146.75895,-45.45826 -162.75288,-45.45826z" fill="#ffffff" stroke="#3e0e6c" stroke-width="2.5" stroke-linecap="butt"/><path d="" fill="#ffffff" stroke="#3e0e6c" stroke-width="2.5" stroke-linecap="butt"/><path d="M250.86272,216.55948c0,-20.07133 16.27103,-36.34236 36.34236,-36.34236c20.07133,0 36.34236,16.27103 36.34236,36.34236c0,20.07133 -16.27103,36.34236 -36.34236,36.34236c-20.07133,0 -36.34236,-16.27103 -36.34236,-36.34236z" fill="#ffffff" stroke="#3e0e6c" stroke-width="2.5" stroke-linecap="butt"/><path d="M263.78327,161.47142c11.15269,-13.52764 43.21342,-38.55949 80.27775,-59.82504c30.71754,-17.62409 177.53433,43.92498 175.87116,111.03c-0.07366,2.97176 -0.4385,5.9544 -1.11753,8.94155c-0.1736,0.76373 -4.78994,-0.98495 -10.4531,-0.65154c-14.22278,0.83732 -38.13445,2.46262 -37.52632,-0.68419c0.7301,-3.77792 -9.84765,10.39123 -10.99215,6.4853c-4.35226,-14.85332 -46.74771,-34.79182 -89.91332,-44.25703c-42.07369,-9.22578 -84.7629,-8.12384 -102.51174,-11.40509c-1.86772,-0.34529 -5.33933,-7.56638 -3.63475,-9.63395z" fill="#ffffff" stroke="#3e0e6c" stroke-width="2.5" stroke-linecap="butt"/><path d="M337.304,177.06226c0,0 1.18227,5.20938 0.25073,6.44142c-2.42596,3.20852 -15.30016,13.46267 -15.30016,13.46267" fill="none" stroke="#3e0e6c" stroke-width="2.5" stroke-linecap="round"/><path d="M386.57876,187.49976c0,0 1.18227,4.44703 0.25073,5.49877c-2.42596,2.73898 -15.30016,11.49253 -15.30016,11.49253" fill="none" stroke="#3e0e6c" stroke-width="2.5" stroke-linecap="round"/><path d="M424.68782,202.06373c0,0 1.18227,2.92233 0.25073,3.61348c-2.42596,1.7999 -15.30016,7.55223 -15.30016,7.55223" fill="none" stroke="#3e0e6c" stroke-width="2.5" stroke-linecap="round"/><path d="M296.1404,228.596c0,28.82112 2.01126,92.95499 -7.17548,92.95499c-3.11836,0 -14.6288,12.69381 -18.56287,0.01685c-7.65576,-24.66959 -7.52976,-85.67548 -7.52976,-104.71352c0,-15.34532 9.61593,-30.62545 18.60811,-29.88945c7.89666,0.64633 14.65999,28.15534 14.65999,41.63114z" fill="#3e0e6c" stroke="none" stroke-width="0" stroke-linecap="butt"/><path d="" fill="#3e0e6c" stroke="none" stroke-width="0" stroke-linecap="butt"/><g stroke="none" stroke-width="0" stroke-linecap="butt"><path d="M289.72321,221.92315c0,3.60959 -0.325,9.84118 -1.77362,12.39316c-1.79537,3.16285 -15.10185,1.69671 -16.86095,-2.19499c-1.05609,-2.33643 -0.94099,-7.16583 -0.94099,-10.19817c0,-7.27175 5.40318,-21.95389 9.97072,-20.8562c5.25599,1.26315 9.60483,12.773 9.60483,20.8562z" fill="#ffffff"/><path d="M289.54026,222.49908c0,3.60267 -0.31589,9.82229 -1.7239,12.36938c-1.74503,3.15678 -14.67852,1.69346 -16.3883,-2.19078c-1.02648,-2.33195 -0.91461,-7.15208 -0.91461,-10.17861c0,-7.2578 5.25172,-21.91178 9.69122,-20.81619c5.10865,1.26072 9.33559,12.7485 9.33559,20.81619z" fill="#3e0e6c"/></g><path d="M308.34502,188.18317c4.91926,-1.19717 11.66917,13.52062 13.09167,28.79986c1.30499,14.01698 12.13165,61.39229 11.30741,83.76967c-0.86323,23.43594 -13.46768,21.58089 -16.07424,21.82356c-5.0954,0.47438 -9.92505,-63.48719 -12.59676,-92.18421c-1.2492,-13.41778 -0.04802,-41.15757 4.27192,-42.20889z" data-paper-data="{&quot;index&quot;:null}" fill="#3e0e6c" stroke="none" stroke-width="0" stroke-linecap="butt"/><g data-paper-data="{&quot;index&quot;:null}" stroke="none" stroke-width="0" stroke-linecap="butt"><path d="M310.51721,202.14401c2.43162,-1.32882 6.7895,13.0111 7.46359,20.25153c0.2811,3.01929 0.79263,7.82195 0.42346,10.20284c-0.61491,3.96578 -7.85941,6.11273 -9.1484,3.05621c-1.04004,-2.4662 -1.79796,-8.65416 -2.13256,-12.24821c-0.74931,-8.0484 0.5958,-19.73326 3.39392,-21.26237z" fill="#ffffff"/><path d="M310.52644,202.76175c2.3608,-1.32012 6.63207,12.99957 7.30486,20.22613c0.28056,3.01349 0.78943,7.80709 0.43626,10.182c-0.58826,3.9558 -7.62612,6.08068 -8.88663,3.02761c-1.01706,-2.46342 -1.76883,-8.63995 -2.10279,-12.22711c-0.74787,-8.03296 0.53167,-19.68954 3.2483,-21.20863z" fill="#3e0e6c"/></g><g><g stroke-linecap="butt"><path d="M449.72212,383.06369l31.82978,-114.41941c0,0 96.44025,-99.24754 99.50213,-99.10834c3.97056,0.18052 45.34122,221.56017 45.34122,221.56017z" fill="url(#color-1)" stroke="#3e0e6c" stroke-width="2.5"/><path d="M449.72212,383.06369l31.82978,-114.41941l22.73492,45.1623l96.11229,-69.48718l25.99614,146.77672z" fill-opacity="0.1098" fill="#3e0e6b" stroke="none" stroke-width="0"/><path d="M494.18419,386.52448l10.10263,-72.71791l96.11229,-69.48718l25.99614,146.77672z" fill-opacity="0.1098" fill="#3e0e6b" stroke="none" stroke-width="0"/></g><path d="M495.68909,297.38991l-13.81838,-26.44312" fill="none" stroke="#3e0e6c" stroke-width="2.5" stroke-linecap="round"/><path d="M590.63942,250.70846l-85.60765,62.86703l-2.9738,-4.93227" fill="none" stroke="#3e0e6c" stroke-width="2.5" stroke-linecap="round"/></g></g></g></svg>