<svg version="1.1" xmlns="http://www.w3.org/2000/svg" xmlns:xlink="http://www.w3.org/1999/xlink" width="97.88579" height="97.88579" viewBox="0,0,97.88579,97.88579"><g transform="translate(-271.05711,-131.0571)"><g data-paper-data="{&quot;isPaintingLayer&quot;:true}" fill-rule="nonzero" stroke-linecap="butt" stroke-linejoin="miter" stroke-miterlimit="10" stroke-dasharray="" stroke-dashoffset="0" style="mix-blend-mode: normal"><g data-paper-data="{&quot;index&quot;:null}" fill="#90ff9c" stroke="#008540" stroke-width="2.5"><path d="M316.65566,195.51883c0.59414,0.45431 -4.12245,14.95106 -5.02381,14.43094c-1.81336,-1.04636 0.34538,-10.28304 2.31311,-13.69314c0.8758,-1.51777 1.76318,-1.46232 2.7107,-0.7378z"/><path d="M310.00787,206.87053c0.98573,-1.70828 6.08697,-0.65826 11.90001,2.30553c0.03904,0.01991 2.41983,2.83101 5.31287,5.41914c0.24255,0.21698 1.14704,-0.31703 1.39369,-0.10249c3.13292,2.72513 5.79046,5.9325 5.56399,6.32498c-1.10812,1.92038 -7.4172,0.355 -14.09171,-3.49641c-6.67451,-3.8514 -11.18696,-8.53037 -10.07884,-10.45075z"/></g><g data-paper-data="{&quot;index&quot;:null}" fill="#90ff9c" stroke="#008540" stroke-width="2.5"><path d="M313.94496,163.4731c-1.96774,-3.4101 -4.12647,-12.64678 -2.31311,-13.69314c0.90136,-0.52012 5.61795,13.97663 5.02381,14.43094c-0.94752,0.72451 -1.8349,0.77997 -2.7107,-0.7378z"/><path d="M320.08671,142.40845c6.67451,-3.8514 12.98359,-5.41679 14.09171,-3.49641c0.22648,0.39249 -2.43106,3.59985 -5.56399,6.32498c-0.24664,0.21454 -1.15114,-0.31948 -1.39369,-0.10249c-2.89305,2.58813 -5.27383,5.39923 -5.31287,5.41914c-5.81303,2.9638 -10.91427,4.01381 -11.90001,2.30553c-1.10812,-1.92038 3.40433,-6.59935 10.07884,-10.45075z"/></g><path d="" fill="#8b65ae" stroke="#5c00aa" stroke-width="2.5"/><path d="" fill="#a17cc4" stroke="#5c00aa" stroke-width="2.5"/><path d="" data-paper-data="{&quot;index&quot;:null}" fill="#b867ff" stroke="#5c00aa" stroke-width="2.5"/><path d="" data-paper-data="{&quot;index&quot;:null}" fill="#ffc374" stroke="none" stroke-width="0"/><path d="" data-paper-data="{&quot;index&quot;:null}" fill="none" stroke="#5c00aa" stroke-width="2.5"/><path d="" fill="#a17cc4" stroke="#5c00aa" stroke-width="2.5"/><path d="M320.00001,199.9922c-11.0414,0 -17.42465,-8.95082 -17.42465,-19.99222c0,-11.0414 6.38325,-19.99222 17.42465,-19.99222c1.13843,0 4.11734,1.08535 6.36688,3.12653c4.85314,4.40359 9.76841,12.26824 9.83052,16.32515c0.0632,4.12761 -4.52469,12.09796 -9.15127,16.7779c-2.6628,2.69351 -5.51917,3.75486 -7.04614,3.75486z" fill="#90ff9c" stroke="#008540" stroke-width="2.5"/><g><path d="M321.2249,157.7027c0.65865,0 8.09482,5.47234 8.09482,6.21622c0,1.04487 -1.85359,1.89189 -4.1401,1.89189c-2.28652,0 -4.1401,-0.84702 -4.1401,-1.89189c0,-0.57829 -0.83564,-6.21622 0.18538,-6.21622z" fill="#008540" stroke="none" stroke-width="0"/><path d="M317.70272,171.14864c0,-4.51531 3.18153,-8.17568 7.10614,-8.17568c3.92461,0 7.10614,3.66038 7.10614,8.17568c0,4.51531 -3.18153,8.17568 -7.10614,8.17568c-3.92461,0 -7.10614,-3.66038 -7.10614,-8.17568z" fill="#ffffff" stroke="#008540" stroke-width="2.5"/><path d="M327.09519,165.54053c1.77461,0 3.21321,2.57134 3.21321,5.74325c0,3.1719 -1.4386,5.74325 -3.21321,5.74325c-1.77461,0 -3.21321,-2.57134 -3.21321,-5.74325c0,-3.1719 1.4386,-5.74325 3.21321,-5.74325z" fill="#008540" stroke="none" stroke-width="0"/></g><g data-paper-data="{&quot;index&quot;:null}"><path d="M321.15155,195.27027c0,-1.04487 1.85358,-1.89189 4.1401,-1.89189c2.28652,0 4.1401,0.84702 4.1401,1.89189c0,0.74388 -7.43617,6.21622 -8.09482,6.21622c-1.02102,0 -0.18537,-5.63793 -0.18537,-6.21622z" fill="#008540" stroke="none" stroke-width="0"/><path d="M324.9209,179.86486c3.92461,0 7.10614,3.66037 7.10614,8.17568c0,4.5153 -3.18153,8.17567 -7.10614,8.17567c-3.92461,0 -7.10614,-3.66037 -7.10614,-8.17567c0,-4.5153 3.18153,-8.17568 7.10614,-8.17568z" fill="#ffffff" stroke="#008540" stroke-width="2.5"/><path d="M324.12914,188.17567c0,-3.1719 1.4386,-5.74324 3.21321,-5.74324c1.77461,0 3.21322,2.57134 3.21322,5.74324c0,3.1719 -1.43861,5.74325 -3.21322,5.74325c-1.77461,0 -3.21321,-2.57134 -3.21321,-5.74325z" fill="#008540" stroke="none" stroke-width="0"/></g><path d="M368.9429,228.94289l-97.88579,0v-97.88579l97.88579,0z" fill="none" stroke="none" stroke-width="0"/></g></g></svg>