<svg version="1.1" xmlns="http://www.w3.org/2000/svg" xmlns:xlink="http://www.w3.org/1999/xlink" width="97.88579" height="97.88579" viewBox="0,0,97.88579,97.88579"><g transform="translate(-271.05715,-131.05712)"><g data-paper-data="{&quot;isPaintingLayer&quot;:true}" fill-rule="nonzero" stroke-linecap="butt" stroke-linejoin="miter" stroke-miterlimit="10" stroke-dasharray="" stroke-dashoffset="0" style="mix-blend-mode: normal"><path d="M368.94294,228.94291l-97.88579,0v-97.88579h97.88579z" data-paper-data="{&quot;index&quot;:null}" fill="none" stroke="none" stroke-width="0"/><path d="M333.61072,157.76315c2.22047,1.28085 3.14626,5.03318 3.14626,6.97003c0,3.92075 -5.16816,5.10251 -12.09074,5.10251c-6.92258,0 -12.75628,-2.7347 -12.75628,-6.65545c0,-1.77115 1.36703,-3.8345 3.26091,-5.0781c0.62872,-0.41284 5.78951,-1.56069 10.5013,-1.60223c3.86288,-0.03406 7.42396,0.96641 7.93855,1.26324z" fill="#bda452" stroke="#976733" stroke-width="2.5"/><path d="M325.67217,204.8869c-4.71179,-0.04154 -9.87258,-1.18939 -10.5013,-1.60223c-1.89388,-1.2436 -3.26091,-3.30696 -3.26091,-5.0781c0,-3.92075 5.83371,-6.65545 12.75628,-6.65545c6.92258,0 12.09074,1.18176 12.09074,5.10251c0,1.93685 -0.92579,5.68918 -3.14626,6.97003c-0.51459,0.29683 -4.07567,1.2973 -7.93855,1.26324z" data-paper-data="{&quot;index&quot;:null}" fill="#bda452" stroke="#976733" stroke-width="2.5"/><path d="" fill="#8b65ae" stroke="#5c00aa" stroke-width="2.5"/><path d="" fill="#a17cc4" stroke="#5c00aa" stroke-width="2.5"/><path d="" data-paper-data="{&quot;index&quot;:null}" fill="#b867ff" stroke="#5c00aa" stroke-width="2.5"/><path d="" data-paper-data="{&quot;index&quot;:null}" fill="#ffc374" stroke="none" stroke-width="0"/><path d="" data-paper-data="{&quot;index&quot;:null}" fill="none" stroke="#5c00aa" stroke-width="2.5"/><path d="" fill="#a17cc4" stroke="#5c00aa" stroke-width="2.5"/><path d="M325.1498,200.68562c-11.0414,0 -19.99222,-8.95082 -19.99222,-19.99222c0,-11.0414 8.95082,-19.99222 19.99222,-19.99222c11.0414,0 18.35957,8.95082 18.35957,19.99222c0,11.0414 -7.31817,19.99222 -18.35957,19.99222z" data-paper-data="{&quot;index&quot;:null}" fill="#ffe286" stroke="#976733" stroke-width="2.5"/><path d="M325.78794,174.50821c0,-2.06925 2.61253,-3.80608 6.13869,-4.28498c2.27124,-0.30849 3.66158,-0.24581 5.85785,0.41001c2.51214,0.75015 4.21535,2.2042 4.21535,3.87497c0,2.43885 -3.62916,4.41593 -8.10595,4.41593c-4.47679,0 -8.10594,-1.97708 -8.10594,-4.41593z" data-paper-data="{&quot;index&quot;:null}" fill="#976733" stroke="none" stroke-width="0"/><path d="M326.09527,184.95756c0,-2.06925 2.61253,-3.80608 6.13869,-4.28498c2.27124,-0.30849 3.66158,-0.24581 5.85785,0.41001c2.51214,0.75015 4.21535,2.2042 4.21535,3.87497c0,2.43885 -3.62916,4.41593 -8.10595,4.41593c-4.47679,0 -8.10594,-1.97708 -8.10594,-4.41593z" data-paper-data="{&quot;index&quot;:null}" fill="#976733" stroke="none" stroke-width="0"/><path d="M310.01104,197.68634c2.24727,0 2.64522,-34.60836 1.33109,-34.60836c-2.08684,0 10.49391,-6.4317 10.88542,-1.92088c0.81744,9.41829 1.20863,30.91127 0.30008,39.24993c-0.46211,4.24121 -14.84662,-2.72069 -12.51659,-2.72069z" fill="#c1a766" stroke="#976733" stroke-width="2.5"/><path d="M312.45138,199.46113c3.32628,0 3.78009,-37.27054 0,-37.27054c-3.31935,0 -11.22581,1.16562 -13.50807,4.17238c-2.60381,3.43039 -1.45194,25.13087 0.2486,28.30868c2.35463,4.4001 9.13316,4.78948 13.25946,4.78948z" fill="#c1a766" stroke="#976733" stroke-width="2.5"/></g></g></svg>