<svg version="1.1" xmlns="http://www.w3.org/2000/svg" xmlns:xlink="http://www.w3.org/1999/xlink" width="786.72819" height="488.22314" viewBox="0,0,786.72819,488.22314"><defs><linearGradient x1="14.5" y1="3.51053" x2="14.5" y2="347.51053" gradientUnits="userSpaceOnUse" id="color-1"><stop offset="0" stop-color="#ffa4f3"/><stop offset="1" stop-color="#ffd172"/></linearGradient><linearGradient x1="345.5" y1="66.51053" x2="345.5" y2="283.51052" gradientUnits="userSpaceOnUse" id="color-2"><stop offset="0" stop-color="#ffa4f3"/><stop offset="1" stop-color="#ffd172"/></linearGradient></defs><g transform="translate(68.35256,86.85346)"><g data-paper-data="{&quot;isPaintingLayer&quot;:true}" fill-rule="nonzero" stroke-linecap="butt" stroke-linejoin="miter" stroke-miterlimit="10" stroke-dasharray="" stroke-dashoffset="0" style="mix-blend-mode: normal"><g><path d="M-50.5,347.51053v-344h130v344z" fill="url(#color-1)" stroke="#3e0e6c" stroke-width="2.5"/><path d="M33.5,283.51052v-217h624v217z" fill="url(#color-2)" stroke="#3e0e6c" stroke-width="2.5"/><path d="M23.36311,79.637l41.90756,-60.38106l653.10496,204.92967l-41.90756,60.38106z" fill-opacity="0.51373" fill="#ffd6ec" stroke="none" stroke-width="0"/><path d="M-21.84628,262.3533l-34.45893,-62.47429l675.74609,-168.50554l34.45893,62.47428z" fill-opacity="0.51373" fill="#ffd6ec" stroke="none" stroke-width="0"/><path d="M-68.35256,140.31474l53.38503,-56.1374l607.20387,261.05494l-53.38504,56.1374z" fill-opacity="0.51373" fill="#ffd6ec" stroke="none" stroke-width="0"/><path d="M33.5,283.51052v-217h624v217z" fill="none" stroke="#3e0e6c" stroke-width="2.5"/><path d="M-9.5,393.51053c0,0 -16.79398,-56.76475 -11.00691,-74.00232c2.63002,-7.83386 53.42901,-46.99768 54.00692,-46.99768c85.04049,0 620,1 620,1l4,120z" fill="#664585" stroke="#3e0e6c" stroke-width="2.5"/><path d="M657.5,-35.48947l-4,120c0,0 -534.95951,1 -620,1c-0.5779,0 -51.3769,-39.16381 -54.00691,-46.99768c-5.78707,-17.23757 11.00692,-74.00232 11.00692,-74.00232z" data-paper-data="{&quot;index&quot;:null}" fill="#664585" stroke="#3e0e6c" stroke-width="2.5"/><path d="M322.30059,1.06597c8.1388,0 23.19236,1.46148 23.19236,1.46148l-217.59891,306.17993c0,0 -6.20036,5.90655 -13.20862,8.05741c-7.22998,2.21891 -15.23212,0.6161 -12.36156,-3.96848c29.23425,-46.69018 219.97673,-311.73032 219.97673,-311.73032z" fill="#854564" stroke="#3e0e6c" stroke-width="2.5"/><path d="M259.54358,5.60125c8.1388,0 23.19236,1.36426 23.19236,1.36426l-217.59891,285.81174c0,0 -12.87908,1.36426 -21.8281,1.36426c-4.06516,0 216.23465,-288.54025 216.23465,-288.54025z" fill="#854564" stroke="#3e0e6c" stroke-width="2.5"/><path d="M116.91335,303.03091c-1.34171,0 -62.68505,-21.18453 -62.68505,-24.51207c0,-3.05415 14.77618,-26.25773 16.28799,-26.25773c1.87632,0 70.15148,11.7614 69.60281,17.1671c-0.44912,4.42484 -23.20574,33.60269 -23.20574,33.60269z" fill="#aa5880" stroke="#3e0e6c" stroke-width="2.5"/><path d="M147.64728,256.40996c-1.34171,0 -66.39642,-13.42193 -66.39642,-16.74947c0,-3.05416 18.02202,-26.42253 19.53383,-26.42253c1.87632,0 70.617,4.1636 70.06833,9.5693c-0.44912,4.42484 -23.20574,33.6027 -23.20574,33.6027z" fill="#aa5880" stroke="#3e0e6c" stroke-width="2.5"/><path d="M176.42679,211.79505c-1.34171,0 -68.87437,-6.08452 -68.87437,-9.41206c0,-3.05416 18.20977,-25.99906 19.72158,-25.99906c1.87632,0 72.90721,-3.59727 72.35853,1.80843c-0.44912,4.42484 -23.20574,33.60269 -23.20574,33.60269z" fill="#aa5880" stroke="#3e0e6c" stroke-width="2.5"/><path d="M206.1206,170.44983c-1.34171,0 -71.38984,-2.05642 -71.38984,-5.38396c0,-3.05416 17.9511,-25.99906 19.46291,-25.99906c1.87632,0 75.14544,-4.94585 74.59677,0.45985c-0.44912,4.42484 -22.66984,30.92316 -22.66984,30.92316z" fill="#aa5880" stroke="#3e0e6c" stroke-width="2.5"/><path d="M162.21039,129.0931c0,-3.05415 19.52318,-26.508 21.75473,-26.93555c15.64478,-2.99741 76.73284,-14.17193 76.25266,-9.44104c-0.33922,3.3421 -16.46533,25.62857 -23.28792,33.97485c-2.21032,2.70395 -74.71946,5.72927 -74.71946,2.40174z" fill="#aa5880" stroke="#3e0e6c" stroke-width="2.5"/><path d="M271.18182,80.58087c-1.11021,0 -58.94413,9.24229 -77.01873,10.17645c-3.76878,0.19478 -4.43421,-1.53277 -4.43421,-2.10689c0,-3.05415 17.74816,-26.25772 19.25997,-26.25772c1.38395,0 81.79134,-17.36893 81.64737,-15.95044c-0.05687,0.56037 0.60029,4.73316 -0.0806,5.97798c-4.69561,8.5846 -19.3738,28.16062 -19.3738,28.16062z" fill="#aa5880" stroke="#3e0e6c" stroke-width="2.5"/><path d="M302.32536,34.5592c-0.27452,0 -5.84399,1.37187 -11.11759,2.66062c-16.33575,3.99211 -53.08103,10.18531 -66.13065,11.47765c-3.32728,0.32951 -4.77229,-2.37893 -4.77229,-2.91665c0,-3.05416 16.14044,-26.25773 17.65225,-26.25773c1.62828,0 82.28749,-20.88889 82.21496,-20.1743c-0.01466,0.14441 0.66703,4.71404 -0.75623,7.55058c-4.85203,9.67004 -17.09046,27.65984 -17.09046,27.65984z" fill="#aa5880" stroke="#3e0e6c" stroke-width="2.5"/><path d="M308.82382,314.49948c14.44451,-19.06907 92.0928,-13.30391 189.68405,-13.30391c107.80333,0 195.1952,17.81449 195.1952,39.78979c0,21.9753 -87.39187,39.78979 -195.1952,39.78979c-107.80334,0 -191.44386,-15.67087 -191.44386,-37.64617c0,-2.0817 0.24831,-26.63409 1.75981,-28.6295z" fill="#aa5880" stroke="#3e0e6c" stroke-width="2.5"/><path d="M307.25377,319.40092c0,-21.9753 87.39186,-39.78979 195.19519,-39.78979c107.80333,0 195.19519,17.81449 195.19519,39.78979c0,21.97529 -87.39186,39.78979 -195.19519,39.78979c-107.80333,0 -195.1952,-17.81449 -195.1952,-39.78979z" fill="#aa5880" stroke="#3e0e6c" stroke-width="2.5"/><path d="M395.72634,197.24785c0.72298,-20.67721 2.68173,-76.69748 3.046,-87.11572c0.11424,-3.26712 4.38032,-6.00322 9.25492,-5.83278c17.44306,0.60989 121.13681,4.23556 152.72703,5.34011c5.76495,0.20157 9.05487,2.42823 8.96599,4.97026c-0.31994,9.15042 -2.24086,64.0888 -3.02931,86.63845c-0.20815,5.95306 -4.70092,9.49622 -9.76089,9.3193c-17.1048,-0.59807 -112.84642,-3.98453 -147.78999,-5.20633c-7.8461,-0.27434 -13.58096,-3.33122 -13.41375,-8.11328z" fill="#3e0e6c" stroke="none" stroke-width="0"/><path d="M651.84881,82.30236c-0.39528,1.18586 -1.58114,0.79057 -1.58114,0.79057l-0.62829,-0.20943c-3.06332,-1.02524 -5.71492,-2.05967 -8.89796,-2.73292c-4.8388,0.01377 -12.26588,-1.37562 -16.74173,0.74869c-3.80854,1.8076 -4.97405,5.85515 -6.64074,9.26826c-1.78509,3.65559 -3.85176,6.77129 -4.54161,10.92533c-0.57257,3.44779 -0.61778,6.50182 -1.5943,9.94259c-1.47611,5.20105 -2.72095,11.09644 -3.31754,16.50802c-0.09695,0.87943 0.17667,1.79308 -0.02676,2.65413c-1.37737,5.82986 -6.75109,10.11119 -11.03383,13.78823c-1.87102,1.6064 -4.42105,3.55384 -6.89475,4.1378c-2.14269,0.50582 -5.08263,0.03346 -7.30517,0.03331c-11.13279,-0.3954 -18.75053,-12.70287 -24.62736,-20.74546c-1.56907,-2.14732 -5.11026,-7.1814 -4.32508,-10.07739c0.27158,-1.00168 1.39103,-1.5406 2.08654,-2.31091c0,0 0.88388,-0.88389 1.76777,0c0.88388,0.88389 0,1.76777 0,1.76777c-0.48299,0.40821 -1.26375,0.61997 -1.44899,1.22463c-0.17336,0.56588 0.33621,1.13682 0.5574,1.68578c0.91369,2.26772 1.93617,4.26874 3.37903,6.2326c4.21691,5.73958 8.36672,12.53806 14.50493,16.39745c2.70938,1.70352 4.87697,3.2587 8.14174,3.32579c2.02238,-0.00013 4.74638,0.49328 6.69483,0.03331c2.07379,-0.48955 4.27967,-2.2509 5.83707,-3.59846c3.80389,-3.29133 9.05995,-7.22352 10.23435,-12.47552c1.41428,-6.32478 1.58389,-12.9674 3.37082,-19.26366c0.95652,-3.37028 0.97117,-6.28583 1.5331,-9.66958c0.72807,-4.38414 2.87821,-7.74604 4.76081,-11.61161c1.93459,-3.97233 3.43148,-8.34584 7.81481,-10.43046c4.94403,-2.35128 12.72966,-0.99055 18.07122,-0.97745c3.37115,0.6944 6.19921,1.7751 9.43199,2.84801l0.62829,0.20943c0,0 1.18585,0.39529 0.79057,1.58114z" fill="#3e0e6c" stroke="none" stroke-width="0.5"/><path d="M363.60208,-20.74453c1.11804,-0.55901 1.67705,0.55902 1.67705,0.55902l0.88196,1.76393c3.38828,6.77671 5.64119,13.74953 8.58367,20.68953c2.71341,6.40531 4.56852,12.51118 5.78495,19.30241c0.71605,3.99767 2.86303,7.84096 3.89772,11.77539c1.78571,6.7902 2.17818,13.34608 1.68758,20.31917c-1.00101,3.93641 -1.62565,8.9563 -3.91458,12.40305c-1.85596,2.79476 -5.17948,4.77733 -7.73663,6.7569c-2.40972,1.86544 -4.27445,4.54933 -6.12508,6.93064c-3.89287,5.00916 -7.83393,10.26764 -6.42674,16.86825c0.80905,2.33892 1.86777,4.64105 2.58795,7.00445c0.64127,2.10443 0.5833,5.15863 1.6026,7.09479c1.03325,1.96267 7.7604,10.59941 9.00285,12.5381c5.49788,8.57878 6.8165,9.11729 14.482,15.80587c4.86662,4.2686 11.29472,6.67394 16.54731,10.49427c3.67205,2.67076 7.02965,6.68493 11.76279,7.58483c3.5608,0.67701 6.37088,-0.55966 9.82263,1.10941c0,0 1.11804,0.55902 0.55902,1.67705c-0.55901,1.11803 -1.67705,0.55902 -1.67705,0.55902c-3.67917,-1.91917 -7.85713,-0.18332 -11.77229,-1.90534c-4.0164,-1.76655 -6.68328,-4.4704 -10.16561,-7.00319c-5.32585,-3.87362 -11.75919,-6.32377 -16.72046,-10.63235c-7.84337,-6.84376 -14.00937,-14.13128 -19.63362,-22.90725c-1.26197,-1.96915 -3.39218,-4.16088 -4.42547,-6.16676c-1.10068,-2.13671 -1.07407,-5.2158 -1.77614,-7.51973c-0.72607,-2.38273 -1.79429,-4.70615 -2.6058,-7.06583c-1.57907,-7.52363 2.40291,-13.33188 6.86205,-19.06968c1.98634,-2.55593 3.98758,-5.35916 6.56472,-7.37033c2.33872,-1.82512 5.48916,-3.6036 7.1923,-6.17203c2.07583,-3.13048 2.60089,-7.83989 3.52506,-11.41164c0.4398,-6.62956 0.06057,-12.83007 -1.63718,-19.28583c-1.054,-4.00787 -3.19005,-7.89081 -3.93966,-11.96436c-1.21565,-6.60608 -2.98293,-12.53206 -5.62718,-18.77411c-2.91906,-6.89658 -5.15221,-13.81567 -8.51777,-20.54665l-0.88197,-1.76393c0,0 -0.55901,-1.11804 0.55902,-1.67705z" fill="#3e0e6c" stroke="none" stroke-width="0.5"/><path d="M394.28659,-22.94377c0.88389,-0.88388 1.76777,0 1.76777,0l0.23223,0.23224c2.62294,2.7247 2.79604,5.85741 4.1125,9.35201c2.39502,6.35769 5.60245,11.67113 9.18139,17.39715c4.16905,6.67048 8.82994,14.12855 11.75111,21.43956c0.60714,1.51952 0.76178,3.20147 1.4233,4.69812c0.37502,0.84847 2.41309,3.71462 2.62077,4.46927c0.0579,0.21039 0.04426,4.93778 0.0441,5.33219c-0.00186,4.50698 0.23879,8.79487 -2.00274,12.80399c-1.24928,1.8032 -2.8617,4.46993 -4.32512,6.00404c-0.16859,0.17674 -4.14904,2.60323 -4.48941,2.81215c-5.78596,3.55158 -12.07406,5.6195 -18.13787,8.60798c-5.9518,2.93327 -11.56488,6.03803 -17.71267,8.60527c-3.07089,1.27917 -5.80327,3.05679 -8.74287,4.59781c-2.79317,1.46425 -6.28576,2.45918 -8.84765,4.28482c-4.42953,3.15655 -8.38142,8.33567 -12.15527,12.2644c-3.03753,3.16219 -7.2208,7.00174 -8.60183,11.18313c0.04714,5.25596 -0.92088,11.4129 -0.0052,16.56975c0.51817,2.91818 2.54776,5.98528 3.85746,8.60278c3.71029,7.4152 7.74122,14.40824 12.94542,20.88347c3.64596,3.36999 7.5472,6.60535 10.9884,10.18279c1.56944,1.63159 2.91478,4.19809 4.71814,5.55215c1.63854,1.2303 4.56201,1.89873 6.45056,2.69962c3.07836,1.30547 5.84792,3.26123 8.86807,4.54956c3.24667,1.38495 8.00088,0.50965 11.4433,0.50965c4.54647,0 9.70028,0.62714 14.07672,-0.92615c3.10573,-1.10229 5.04187,-3.31157 7.21735,-5.63244c4.49765,-4.79824 8.94109,-9.32921 11.02007,-15.58669c0,0 0.39529,-1.18586 1.58114,-0.79057c1.18586,0.39529 0.79057,1.58114 0.79057,1.58114c-2.21412,6.6219 -6.82081,11.44158 -11.56781,16.50582c-2.44916,2.61284 -4.70461,5.03385 -8.19477,6.27505c-4.67897,1.66397 -10.05859,1.07385 -14.92327,1.07385c-3.87045,0 -8.74613,0.80204 -12.40742,-0.70303c-3.02581,-1.24383 -5.81268,-3.25379 -8.88,-4.55459c-2.07608,-0.88043 -5.14651,-1.63656 -6.95066,-2.98356c-1.9447,-1.45195 -3.3582,-4.08443 -5.04373,-5.83669c-3.45011,-3.5867 -7.36768,-6.82172 -11.01441,-10.21025c-5.37389,-6.65047 -9.53473,-13.83886 -13.3534,-21.47043c-1.42174,-2.84133 -3.51128,-6.09461 -4.07903,-9.26143c-0.97003,-5.41063 -0.0456,-11.92428 -0.00521,-17.43025c1.61329,-4.80879 5.76484,-8.86705 9.26637,-12.51429c3.8836,-4.04521 7.94408,-9.31667 12.50762,-12.56872c2.66402,-1.89843 6.23661,-2.94223 9.13774,-4.46308c3.00549,-1.57556 5.80181,-3.37689 8.94027,-4.69056c6.10201,-2.54812 11.66314,-5.62924 17.57085,-8.54078c5.99216,-2.95316 12.22024,-4.98817 17.9352,-8.49616c1.30981,-0.804 2.91013,-1.24322 3.95437,-2.37086c1.3854,-1.49605 2.84433,-3.891 4.05176,-5.64571c2.01563,-3.44356 1.61735,-7.56598 1.61896,-11.47401c0.00064,-1.55601 0.45838,-3.16757 0.04551,-4.66781c-0.42624,-1.54883 -1.84753,-2.65264 -2.49697,-4.12193c-0.41387,-0.93635 -1.05289,-3.76687 -1.45894,-4.78293c-2.86847,-7.17775 -7.45506,-14.49031 -11.54888,-21.04043c-3.66178,-5.85915 -6.95048,-11.3356 -9.40091,-17.84085c-1.12392,-2.98371 -1.24432,-6.28349 -3.54075,-8.46554l-0.23224,-0.23223c0,0 -0.88389,-0.88389 0,-1.76777z" fill="#3e0e6c" stroke="none" stroke-width="0.5"/><path d="M649.26016,-85.84452c0.23678,-1.22737 1.46415,-0.99059 1.46415,-0.99059l1.90327,0.62672c3.6312,4.05679 8.33098,8.9071 10.44733,13.99989c1.29621,3.11923 0.66942,7.14814 0.62084,10.44041c-0.12265,8.31139 -0.59098,16.7365 -3.84817,24.52891c-0.94247,2.24133 -1.71284,5.03466 -2.99968,7.09198c-1.28683,2.05729 -3.4615,3.97232 -5.06451,5.80044c-2.15224,2.45449 -4.35271,5.47517 -6.88596,7.53648c-6.95287,5.6576 -17.09822,8.02725 -25.14972,11.81556c-3.83681,1.43651 -7.23619,3.8556 -10.73789,5.97234c-2.7297,1.65009 -5.92817,3.11491 -8.43134,5.08561c-4.35627,3.42962 -7.79429,8.67062 -11.01869,13.11264c-2.3465,3.23261 -5.31167,6.28833 -6.91464,9.93954c-1.62807,3.5464 -0.90748,7.89855 -0.90761,11.77686c-0.00012,3.39616 0.64391,6.36352 1.00183,9.70191c0.26342,2.45696 -0.14008,5.01472 0.19576,7.46054c0.97273,7.08409 4.33452,14.2845 8.46236,19.99565c0.8829,1.37059 1.60815,2.85537 2.64148,4.11643c2.09795,2.56034 5.26354,4.34268 7.22089,7.01464c0.81903,1.11805 1.48391,3.32319 2.26277,4.51005c2.14824,3.27357 5.54523,5.84192 7.95446,8.93703c1.4603,1.87604 2.46678,4.12887 3.97273,5.96592c2.70821,3.30363 6.4722,5.10587 8.64234,8.83644c2.84345,4.97604 5.56332,10.03775 8.49451,14.96204c1.25537,2.10899 3.1217,4.26873 4.06029,6.53216c1.85649,4.47698 2.09059,11.15528 2.09059,15.90528c0,4.4337 0.59617,7.72848 -1.57555,11.70059c-5.49222,9.73703 -15.28007,15.86378 -24.80836,21.12248c-2.70518,1.493 -6.06654,4.18145 -9.04775,4.94819c-2.97902,0.76618 -7.23582,0.03751 -10.32073,0.01421c-3.12806,-0.02364 -7.31672,0.56909 -10.33251,-0.30157c-2.32899,-0.67238 -4.49397,-2.75342 -6.68989,-3.78749c-3.72109,-1.75226 -8.18812,-2.30857 -11.33182,-5.2271c-0.18528,-0.17201 -2.78215,-3.91515 -3.03074,-4.24184c-3.50314,-4.60368 -7.16079,-8.98505 -10.37923,-13.81194c-2.31213,-3.46819 -4.77616,-7.13196 -6.05361,-11.15165c-3.17774,-9.9993 -2.37633,-21.66532 -0.91727,-31.87875c0,0 0.17678,-1.23744 1.41421,-1.06066c1.23744,0.17678 1.06066,1.41421 1.06066,1.41421c-1.40558,9.8391 -2.23783,21.13043 0.82497,30.76803c1.20554,3.79342 3.56998,7.25032 5.75116,10.52208c3.18907,4.78437 6.81672,9.1222 10.2886,13.6848c0.96624,1.26979 1.57279,2.83795 2.74216,3.92356c2.89729,2.68976 7.24013,3.17275 10.68045,4.79025c2.04881,0.96327 4.16924,3.0297 6.33376,3.6546c2.77494,0.80113 6.77452,0.18176 9.65797,0.20355c2.85604,0.02159 6.92949,0.77169 9.67912,0.06451c2.75611,-0.70884 5.95372,-3.33117 8.46247,-4.71576c9.07042,-5.006 18.65156,-10.83121 23.83528,-20.15556c1.97442,-3.42124 1.25662,-7.54269 1.25662,-11.41683c0,-4.4348 -0.16854,-9.85932 -1.90941,-14.03281c-0.89188,-2.13815 -2.70273,-4.19376 -3.88969,-6.1878c-2.93877,-4.93704 -5.66609,-10.0115 -8.5169,-15.00042c-1.98508,-3.54991 -5.81545,-5.3366 -8.39627,-8.48113c-1.52765,-1.86132 -2.54792,-4.1348 -4.02727,-6.03408c-2.44695,-3.14153 -5.85547,-5.73983 -8.04554,-9.06297c-0.90873,-1.37887 -1.23347,-3.10205 -2.20937,-4.43423c-1.92043,-2.62156 -5.07253,-4.387 -7.13785,-6.90752c-0.06291,-0.07677 -2.66108,-4.11831 -2.77242,-4.29128c-4.34903,-6.01258 -7.851,-13.61181 -8.87445,-21.06523c-0.33989,-2.47532 0.06151,-5.05056 -0.20476,-7.53411c-0.75515,-7.04348 -2.79696,-16.04904 0.107,-22.76061c1.71933,-3.82744 4.70945,-6.99481 7.176,-10.39279c3.36303,-4.63301 6.95251,-10.0318 11.49541,-13.60834c2.58568,-2.03566 5.86561,-3.55679 8.6845,-5.26079c3.60921,-2.18174 7.10729,-4.64109 11.05744,-6.13543c3.77181,-1.77838 7.55869,-3.5444 11.42378,-5.11422c4.45146,-1.80798 9.31892,-3.24348 13.12179,-6.33791c2.42322,-1.97179 4.52469,-4.89673 6.58411,-7.24555c1.51351,-1.7262 3.60887,-3.53417 4.82472,-5.47799c1.21584,-1.9438 1.92479,-4.61904 2.81466,-6.73528c3.16239,-7.47109 3.53525,-15.62387 3.653,-23.59675c0.04206,-2.84799 0.73676,-6.73909 -0.42401,-9.43056c-2.0851,-4.8347 -6.53665,-9.43118 -10.00689,-13.30513l-0.51436,0.16031c0,0 -1.22737,-0.23678 -0.99059,-1.46415z" fill="#3e0e6c" stroke="none" stroke-width="0.5"/><path d="M467.17185,-19.8676c1.11915,-0.55678 1.67593,0.56237 1.67593,0.56237l0.80105,1.61014c1.86977,3.76211 3.26013,7.72108 4.86317,11.6015c0.88429,2.14056 2.40534,4.53963 2.88389,6.79365c0.96766,4.55777 0.05964,10.45859 -0.02006,15.12232c-0.13596,2.29294 0.20344,5.66597 -0.50875,7.83667c-0.4543,1.38466 -1.52258,2.52295 -1.93333,3.92115c-0.10355,0.35249 -1.44734,4.90321 -1.54916,5.07609c-0.45193,0.76731 -1.30717,1.21832 -1.86707,1.9108c-2.49358,3.08399 -4.40046,6.92274 -6.5401,10.26661c-1.34199,2.09728 -1.7441,4.87349 -3.12751,6.83836c-2.20583,3.13296 -6.64068,5.78038 -9.40167,8.54136c-7.47318,7.47318 -15.76701,14.75353 -24.2392,21.05109c-5.2355,3.89166 -11.69099,6.4701 -16.37916,11.06472c-7.1415,6.9455 -16.2024,12.15221 -24.35199,17.80375c-0.10485,0.07271 -4.13614,2.8693 -4.19271,2.9022c-1.7883,1.04018 -4.63921,1.3892 -5.52163,3.55987c-1.06849,2.6284 -0.71245,6.18304 -0.69022,8.9526c1.58987,3.11903 2.09465,6.02826 3.25323,9.23886c1.48046,4.10257 4.06437,6.62487 6.74874,9.8298c2.11805,2.5288 3.5211,5.39497 5.87744,7.74638c1.94645,1.94238 4.80738,6.78608 7.61275,5.06915c0,0 1.11804,-0.55902 1.67705,0.55902c0.55901,1.11803 -0.55902,1.67705 -0.55902,1.67705c-0.81173,0.35668 -1.54874,1.08833 -2.43519,1.07005c-2.99836,-0.06183 -6.1515,-4.69182 -8.06336,-6.6075c-2.41141,-2.41625 -3.86241,-5.32668 -6.03003,-7.91344c-2.85919,-3.41206 -5.60841,-6.22695 -7.17996,-10.58192c-1.19308,-3.30619 -1.7759,-6.25464 -3.33015,-9.49384c-0.10237,-3.19447 -0.55167,-7.53907 0.82794,-10.5474c1.60618,-3.50236 7.47505,-5.36252 10.58064,-7.51535c8.02781,-5.56498 17.01353,-10.68215 24.03142,-17.53948c4.81108,-4.66676 11.29212,-7.31108 16.63278,-11.28091c8.37289,-6.22374 16.57611,-13.42572 23.96285,-20.81245c1.80567,-1.80567 3.57092,-3.57045 5.5218,-5.22016c1.19225,-1.0082 2.7046,-1.71599 3.60347,-2.99267c1.33655,-1.89831 1.75618,-4.68731 3.06397,-6.74359c2.17627,-3.42184 4.14415,-7.34151 6.69855,-10.48751c0.48932,-0.60265 1.26722,-0.96019 1.66846,-1.62475c0.80857,-1.33919 0.85038,-3.01109 1.3007,-4.50923c0.42771,-1.42297 1.47554,-2.59896 1.95947,-4.0038c0.65593,-1.90413 0.26045,-5.11571 0.38075,-7.13693c0.07522,-4.45082 0.99785,-10.18542 0.06929,-14.52431c-0.44847,-2.09558 -1.92182,-4.34788 -2.74463,-6.33956c-1.58074,-3.82628 -2.9451,-7.73666 -4.79177,-11.44464l-0.80105,-1.61014c0,0 -0.55678,-1.11915 0.56237,-1.67593z" fill="#3e0e6c" stroke="none" stroke-width="0.5"/><path d="M461.264,203.46905c0.69338,1.04006 -0.34669,1.73344 -0.34669,1.73344l-0.73413,0.48942c-3.61135,2.30831 -3.20017,6.38736 -5.62816,9.63967c-1.92532,2.57898 -5.14327,4.52218 -7.63102,6.51265c-3.91319,3.13098 -7.73036,7.08203 -12.40619,8.92065c-2.23988,0.86649 -4.86198,2.32936 -7.21645,2.7689c-7.32951,1.36829 -15.37419,-0.8401 -22.30007,-2.9969c-2.94758,-0.91791 -6.81824,-2.13398 -9.38045,-3.87454c-3.37533,-2.29292 -6.37152,-5.63506 -8.9847,-8.73351c-1.48711,-5.12919 -1.69182,-13.30933 0.41146,-18.36795c1.59236,-3.82979 5.08179,-7.16092 7.74851,-10.26128c3.11029,-3.61607 8.09699,-7.86278 12.895,-7.96317c0,0 1.25,0 1.25,1.25c0,1.25 -1.25,1.25 -1.25,1.25c-3.88036,-0.11062 -8.50276,4.16959 -10.99686,7.09015c-2.47961,2.90359 -5.84305,6.02242 -7.33927,9.5966c-1.79764,4.29422 -1.72553,11.82046 -0.51749,16.2207c2.43435,2.75066 5.15373,5.7665 8.193,7.85377c2.3431,1.60916 6.0042,2.71129 8.71298,3.55193c6.53077,2.02674 14.18139,4.21807 21.09911,2.92665c2.20311,-0.41128 4.67932,-1.83294 6.77325,-2.64297c4.39837,-1.66895 8.08012,-5.60776 11.74631,-8.54111c2.30872,-1.84723 5.38101,-3.65852 7.1807,-6.04418c2.71605,-3.60038 2.2151,-7.45617 6.2536,-10.23619l0.73413,-0.48942c0,0 1.04006,-0.69338 1.73344,0.34669z" fill="#3e0e6c" stroke="none" stroke-width="0.5"/></g><path d="M-27.55178,-63.66121c0,-0.69035 0.55964,-1.25 1.25,-1.25c0.69036,0 1.25,0.55965 1.25,1.25c0,0.69035 -0.55964,1.25 -1.25,1.25c-0.69036,0 -1.25,-0.55965 -1.25,-1.25z" fill="#3e0e6c" stroke="none" stroke-width="0.5"/><path d="M432.42929,119.23293l0.20857,-0.10815c2.74909,0.00302 5.55749,0.38829 8.05421,1.62936c1.44518,0.71837 2.36257,1.52936 3.99023,1.82173c3.22287,-0.35285 3.5509,-3.4673 4.66155,-6.00107c0.30219,-0.68939 0.87296,-2.7112 1.4386,-2.99316c1.14765,-0.57207 4.83446,0.75984 5.92721,1.09852c2.96819,0.91996 6.00478,1.77098 8.894,2.92737c1.03022,0.41233 1.82737,1.423 2.92426,1.59094c0.21957,0.03362 -0.38136,-0.33656 -0.36426,-0.55803c0.05269,-0.68224 0.37326,-1.31667 0.55988,-1.975c3.9282,-5.14498 14.68847,-10.18005 18.72596,-2.42316c2.1794,4.18711 -0.15453,9.73212 1.23543,14.22226c3.18629,1.99481 5.5317,-0.64159 8.23141,-2.38924c0.96929,-0.62747 2.21403,-1.11703 2.67154,-2.2738c0.54805,-1.38568 -0.03183,-2.59763 -0.09204,-3.9726c-0.10991,-2.50968 1.02531,-4.26577 2.70475,-5.97371c0.52141,-0.53026 0.83261,-1.43035 1.55721,-1.59768c1.00391,-0.23183 2.57424,1.06177 3.34539,1.61293c1.98396,2.0105 3.47011,5.146 3.07952,7.89507c-0.02666,0.18762 0.11544,-0.39998 0.2793,-0.49518c0.40872,-0.23747 0.88918,-0.32435 1.34524,-0.44868c0.65623,-0.17891 1.3281,-0.29524 1.98801,-0.46005c2.20799,-0.55141 4.3785,-1.1279 6.62084,-1.52797c6.6476,-1.18604 13.23269,-2.79501 19.85099,-4.18768c0.6636,-0.107 1.31882,-0.30551 1.99082,-0.321c8.6344,-0.19898 2.10721,9.75203 0.59044,13.29136c-0.15067,0.35157 -1.90589,3.28036 -1.87078,3.48135c0.04231,0.24223 0.48438,0.16772 0.64932,0.3501c2.30711,2.551 3.80588,3.30824 7.28761,3.88957c1.65583,0.16482 5.00655,0.01927 6.36323,1.08879c3.46213,2.72931 -0.907,7.54113 -3.76782,8.79215c-2.65458,1.16083 -5.87869,-0.56057 -8.33018,1.22306c-0.93472,0.68007 -0.82675,1.03902 -1.5237,1.97625c-0.94383,1.26922 -1.01184,1.30245 -0.80939,2.94117c-0.0005,0.11398 0.07895,2.81672 0.18921,2.84084c0.60185,0.13166 3.01067,-1.05396 3.90068,-1.38811c3.89078,-1.4608 7.73562,-4.02376 11.94058,-4.4277c3.87229,-0.37199 4.58295,1.29078 3.73626,4.69674c-0.26337,1.05942 -0.29616,2.17304 -0.61838,3.21606c-0.45005,1.45683 -1.44016,2.46211 -2.11239,3.7878c-0.92878,4.58915 1.2208,9.55802 0.81256,14.25936c-0.0911,1.04917 -0.32103,4.19929 -1.16002,4.86714c-4.36754,3.47661 -5.75531,-4.27011 -6.11949,-6.58277c-0.03269,-0.20759 -0.08519,-0.41311 -0.14649,-0.61555c-2.67266,3.9176 -8.77914,3.58309 -13.45488,4.20663c-2.43568,0.32482 -4.63576,0.23195 -5.71005,2.68813c-0.1252,1.27321 -0.3167,2.40895 -0.12032,3.68873c0.13203,0.86044 0.32382,2.84099 0.99778,3.50152c1.49896,1.46909 6.44839,2.37085 8.47124,2.48534c2.75892,0.15616 5.74378,-1.58076 8.54357,-1.79709c0.74503,-0.05757 1.48997,0.03823 2.22415,0.22064l0.03465,-0.2079l1.77991,0.29665c0.60252,0.0895 1.06477,0.60895 1.06477,1.23637c0,0.41415 -0.20141,0.78127 -0.51163,1.00873l-1.18849,0.89136l-0.01176,-0.01569l-0.04075,0.053c-0.26084,0.15676 -4.43573,2.63952 -4.40735,2.71035c0.26207,0.65394 2.62688,1.07007 3.04186,1.27187c1.33002,0.64677 1.68782,1.1415 2.66242,2.11226c1.0183,1.47796 2.07261,2.19633 0.79642,4.28157c-0.24784,0.40496 -2.30737,1.02445 -2.89126,1.2836c-3.14161,1.39437 -6.7169,2.44162 -10.16883,1.39887c-2.03683,-0.61529 -4.35746,-2.50515 -4.62276,-4.79217c-0.07259,-0.62582 0.09688,-1.27857 0.3424,-1.85877c0.01067,-0.0252 0.02872,-0.05188 0.05193,-0.07865c-1.36006,-0.03948 -5.06943,-1.19969 -5.5229,-1.22536c-2.56561,2.01595 -0.75193,6.50636 -3.7251,8.0296c-2.17746,1.11558 -6.64101,0.47952 -9.05965,0.57997c-7.20033,0.29905 -14.35562,0.71671 -21.46443,-0.77742c-3.19539,-0.71006 -10.03316,-1.18895 -11.86801,-4.56571c-0.44308,-0.81544 -0.86523,-1.85375 -0.55472,-2.7283c0.25612,-0.72136 1.28684,-0.83094 1.95257,-1.20878c1.6171,-0.91778 3.5433,-1.41084 5.08003,-2.45273c0.52866,-0.35843 0.97274,-0.93618 1.52993,-1.21852c-0.00389,-0.00105 -0.00762,-0.00222 -0.01118,-0.00355c-0.16667,-0.06191 -2.42793,-1.47446 -2.6904,-1.64376c-2.26737,-1.46256 -4.41502,-3.10697 -6.20963,-5.11902c-1.19544,-1.06345 -2.59386,-3.09317 -4.26161,-3.38444c-1.15893,-0.2024 -3.51285,4.28145 -3.97568,4.88282c-2.52726,3.28374 -6.82518,9.91991 -11.72793,9.66071c-3.59914,-0.19028 -6.89707,-5.94852 -8.71641,-8.38486c-0.82061,-1.80689 -2.7295,-2.13354 -4.3063,-3.23512c-0.41657,-0.29102 -1.5522,-1.53243 -2.24162,-1.79194c-0.78904,-0.29701 -1.31176,0.10306 -2.10184,0.20514c-0.64206,0.08295 -2.43634,-0.3635 -1.94142,0.05383c3.67138,3.09588 8.28579,9.02752 8.8541,14.0119c-0.08913,0.91702 -0.19239,2.64737 -0.55306,3.49721c-1.83604,4.32627 -7.03682,3.25826 -10.59802,2.36669c-6.71979,-1.68234 -12.36703,-4.82028 -13.2342,-12.25966c-0.2989,-1.36886 -0.79749,-2.41303 -1.4995,-3.63013c-0.58443,-1.01324 -0.93762,-1.73714 -1.82437,-2.52052c-1.49508,-1.32081 -3.82076,-1.59928 -4.81746,0.48664c-1.04615,2.18941 0.97318,5.69914 -1.84286,7.43654c-2.19052,1.35147 -6.4905,-1.28999 -8.22205,-2.39959c-3.59301,-4.54725 -1.8528,-8.07038 -0.19837,-13.02444c0.58475,-1.751 1.13783,-3.55864 1.63137,-5.33892c0.06725,-0.24257 0.21216,-0.65453 0.37068,-1.00326c-1.06603,-0.09645 -3.20441,-1.14773 -3.34727,-1.24938c-2.13747,-1.52086 -2.44724,-3.61585 -2.91327,-5.99139c0.08216,-5.73797 6.13232,-4.89656 10.06745,-7.20491c1.42129,-0.83372 2.38018,-1.89467 3.39765,-3.14499c0.10126,-0.12444 0.22673,-0.29935 0.36274,-0.48671c-1.11164,0.23057 -2.61701,0.24578 -2.9207,0.26072c-3.16748,0.15582 -5.78088,-0.57106 -7.88213,-3.00113c-1.47874,-3.87671 0.20837,-5.46314 3.45805,-7.28836c1.2654,-0.71072 2.49839,-1.36622 3.87578,-1.86157c0.37459,-0.13471 1.27561,-0.21042 1.06194,-0.54629c-4.38051,-6.8858 -7.96255,-15.29044 -6.41745,-23.5838c0.40578,-0.86271 0.69597,-1.78995 1.21735,-2.58812c2.61765,-4.00721 7.67611,-2.16827 10.84395,-0.18864c2.6262,1.64114 5.02642,3.81505 7.22303,6.21456z" fill="#f2f2f2" stroke="none" stroke-width="0.5"/><path d="M484.17509,161.75548c-0.55901,-1.11803 0.55902,-1.67705 0.55902,-1.67705l1.2332,-0.616c2.30595,-0.98851 4.61278,-1.84886 6.79874,-3.0972c0.3868,-0.2209 0.75466,-0.47344 1.13316,-0.70829c0.07349,-0.0456 0.17942,-0.10684 0.2976,-0.17164c-0.59056,-0.07463 -1.2455,-0.50953 -1.53594,-0.617c-1.85407,-0.686 -3.33409,-1.6911 -4.69653,-2.92918l-0.06426,0.09638l-1.334,-0.88933c-0.34463,-0.22257 -0.57276,-0.61005 -0.57276,-1.05081c0,-0.55054 0.35591,-1.01796 0.85021,-1.18471l1.61866,-0.58861c2.23039,-0.83179 8.56738,-1.64901 9.59348,-4.31345c0.41226,-1.0705 -1.93009,-2.64093 -2.31705,-2.99526c-3.45553,-3.1642 -6.83193,-2.59165 -10.65521,-1.87441c0.69322,1.46051 2.26171,2.38791 1.88851,4.28526c-0.30651,1.55832 -1.57083,2.24606 -2.6718,3.08401c-2.40236,1.20746 -5.51835,1.92032 -7.42404,3.87098l-1.16972,0.57674c0,0 -1.1606,0.46424 -1.62484,-0.69636c-0.46424,-1.1606 0.69635,-1.62483 0.69635,-1.62483l0.33043,-0.02331c2.1703,-2.13244 5.19174,-2.89508 7.87748,-4.22984c2.5619,-1.87793 0.58434,-2.16237 -0.35779,-4.63415c-0.0208,-0.05457 -0.04103,-0.10927 -0.06072,-0.1641c-0.54327,0.08276 -1.09665,0.15426 -1.66143,0.20574c0,0 -1.24486,0.11317 -1.35803,-1.1317c-0.11317,-1.24487 1.13169,-1.35804 1.13169,-1.35804c0.41319,-0.03746 0.83364,-0.09378 1.25979,-0.16308c-0.24807,-1.21905 -0.48366,-2.4367 -1.05664,-3.56806c-0.54445,-1.07502 -2.08984,-2.35895 -1.18596,-3.87594c0.46124,-0.77409 1.57293,-0.89706 2.41958,-1.20553c2.11187,-0.76942 4.9074,-0.76395 7.10391,-1.21327c1.29389,-0.26468 2.33292,-0.18251 1.7479,-1.5354c0,0 -0.24515,-1.22573 0.98058,-1.47087c1.22573,-0.24514 1.47087,0.98058 1.47087,0.98058c0.08195,0.72706 0.53978,1.51114 0.24585,2.18116c-1.81302,4.13272 -8.64452,1.9619 -11.77675,3.46559c-0.58569,0.28117 0.9265,0.94213 1.21429,1.5246c0.34451,0.69726 0.62302,1.42985 0.84047,2.17656c0.19544,0.67111 0.32146,1.36202 0.45529,2.05024c2.88209,-0.63365 5.88435,-1.3462 8.58268,-0.50539c2.2844,0.71183 2.74723,1.48234 4.44217,3.02593c0.74154,0.67532 2.48331,2.03108 2.83769,3.12958c1.73534,5.3791 -6.40005,6.87127 -10.30081,8.15049c1.64902,0.61283 3.90887,2.16112 5.13356,2.64925c0.70211,0.27984 1.78766,0.19059 2.08798,0.88419c0.36561,0.84439 -0.11809,1.88699 -0.53231,2.70864c-0.16951,0.33625 -2.25599,1.62578 -2.62783,1.83838c-2.25446,1.28899 -4.62499,2.1847 -7.00264,3.20343l-1.16703,0.58412c0,0 -1.11804,0.55902 -1.67705,-0.55901z" fill="#3e0e6c" stroke="none" stroke-width="0.5"/><path d="M461.49062,131.79352c0,1.25 -1.25,1.25 -1.25,1.25h-0.60006c-3.74543,-0.01404 -6.15856,-1.4759 -8.4718,-4.36327c-0.80266,-1.00188 -2.00006,-3.57549 -3.27672,-4.1408c-3.0522,-1.35151 -5.85973,2.28897 -6.5529,4.75197c-0.39874,1.41682 -0.43705,2.1679 -0.5034,3.38417c3.20554,1.18717 6.40986,2.35095 9.52006,3.80526c0.96874,0.45298 6.15339,1.7355 6.52098,2.74326c0.63067,1.72894 -1.52378,3.29811 -2.56313,3.97335c-3.23491,2.10165 -7.77232,2.35083 -11.41562,3.44469l-0.1002,0.07076c0,0 -1.11804,0.55902 -1.67705,-0.55901c-0.55901,-1.11803 0.55902,-1.67705 0.55902,-1.67705l0.49986,-0.22926c2.97804,-0.89273 6.32705,-1.19972 9.19931,-2.36492c0.07104,-0.02882 1.43543,-0.81802 2.36647,-1.29155c-1.4482,-0.22562 -4.23735,-1.74707 -4.44758,-1.84516c-5.59022,-2.60797 -11.48808,-4.27715 -17.14321,-6.84974c-2.09497,-0.81036 -9.54549,-3.54736 -8.21323,-7.06787c1.19196,-3.14976 6.00286,-0.79305 8.18498,-0.58234c0.42757,0.04129 2.15006,0.27356 2.12563,-0.73919c-0.02303,-0.95509 -0.33743,-1.88252 -0.57573,-2.80769c-0.15357,-0.59625 -0.30836,-1.19579 -0.53825,-1.76697c-0.4017,-0.99807 -0.7628,-1.28399 -1.44927,-2.07675c0,0 -0.81349,-0.94907 0.13558,-1.76256c0.94907,-0.81349 1.76256,0.13558 1.76256,0.13558c1.87801,2.20974 4.73397,7.9235 2.18504,10.54825c-1.54042,1.58625 -4.2072,0.98525 -6.06351,0.64497c-0.66098,-0.12117 -1.31029,-0.29908 -1.96447,-0.45279c-0.47701,-0.11208 -1.82126,-0.67978 -1.4112,-0.41154c2.26465,1.48149 4.09594,3.00405 6.78827,4.03324c1.76657,0.80238 3.55639,1.51755 5.353,2.20105c0.81353,-5.06229 4.01334,-12.39515 10.41277,-9.54573c1.27458,0.56752 2.13921,2.06657 2.90833,3.10442c2.19639,2.96378 3.94962,5.21041 7.84539,5.1932h0.60006c0,0 1.25,0 1.25,1.25z" fill="#3e0e6c" stroke="none" stroke-width="0.5"/><path d="M448.23439,166.78725c-0.60807,-0.07601 -0.88077,-0.41285 -1.00079,-0.73652c-3.97847,2.63778 -9.33605,3.9321 -13.48631,5.63763c-1.38655,0.5698 -3.22483,1.8364 -4.84176,2.13132c-0.17979,0.2077 -0.36245,0.41476 -0.5481,0.6214l-0.16594,0.03784l0.03923,0.05884l-1.33591,0.89061c-0.20119,0.13841 -0.44494,0.21942 -0.7076,0.21942c-0.69036,0 -1.25,-0.55964 -1.25,-1.25c0,-0.37384 0.16411,-0.70935 0.42422,-0.93841l1.34546,-1.19597l0.01665,0.01873c0.02418,-0.03092 0.04877,-0.06156 0.07382,-0.09189c0.20522,-0.24859 0.48779,-0.48011 0.82172,-0.69634c1.57785,-1.92407 2.90157,-3.92131 4.10467,-6.15279c0.90765,-1.27936 1.46432,-2.56477 2.19081,-3.94242c0.23535,-0.4463 1.10942,-1.61859 0.68124,-1.3517c-4.09341,2.55148 -10.61005,3.22352 -15.32554,4.31704c-2.24439,0.52048 -5.7398,0.78572 -7.35066,2.5168c0,0 -0.88388,0.88388 -1.76777,0c-0.88389,-0.88388 0,-1.76776 0,-1.76776c1.84361,-1.76004 3.89312,-2.02786 6.31139,-2.58615c4.01313,-0.92648 7.97926,-2.03006 11.98213,-2.99587c1.36128,-0.32845 6.04508,-2.42882 7.3351,-1.68555c2.94492,1.69675 -0.75496,7.11069 -1.92843,8.8073c-0.56187,1.04483 -1.15311,2.03842 -1.78286,2.99654c0.27067,-0.0958 0.51696,-0.18668 0.72801,-0.27338c4.50241,-1.84969 11.42695,-3.19814 14.96349,-6.81083l-0.08176,-0.0327l0.58925,-1.47312c0.17726,-0.47474 0.63486,-0.81279 1.17141,-0.81279c0.69036,0 1.25,0.55964 1.25,1.25c0,0.10251 -0.01234,0.20214 -0.03562,0.29748l-0.29418,1.32382l-0.14863,-0.03303l0.04643,0.32089c-0.15493,0.18515 -0.31561,0.36528 -0.4817,0.54065c0.03388,0.22982 0.02997,0.46088 -0.01617,0.67165l-0.1299,1.084c0,0 -0.15505,1.24035 -1.3954,1.08531z" fill="#3e0e6c" stroke="none" stroke-width="0.5"/><path d="M464.32182,151.96955c0.97609,0.78087 0.19522,1.75696 0.19522,1.75696l-0.57614,0.71921c-1.65764,2.2082 -4.6048,3.01662 -3.70914,5.92199c0.95569,3.10009 2.11051,1.61447 4.43232,1.99905c3.82198,0.63307 4.61521,4.13842 3.96688,7.26637c2.19106,-1.64611 4.50756,-3.20808 6.12049,-5.05938l1.93594,-0.25258c0,0 1.22572,0.24515 0.98058,1.47088c-0.24514,1.22573 -1.47087,0.98058 -1.47087,0.98058l0.43579,-0.55261c-0.30558,0.34789 -0.62261,0.68325 -0.94894,1.00845c0.20811,0.34037 0.20811,0.71867 0.20811,0.71867c0,1.09958 -0.66109,4.73616 -0.14791,5.56079c0.40085,0.64414 2.42866,1.02918 3.06946,1.16977c2.46648,0.54116 5.48188,0.85298 8.06082,0.31093c0.0282,-0.22852 0.13702,-0.47659 0.38509,-0.72466c0.88389,-0.88388 1.76777,0 1.76777,0l0.14336,2.65869c-3.32544,1.17319 -7.46098,0.96778 -10.89936,0.1955c-1.48663,-0.3339 -3.8815,-0.99548 -4.73132,-2.43059c-0.63006,-1.06399 -0.37918,-3.54081 -0.22917,-5.34702c-2.5368,2.06491 -5.28955,3.89363 -7.48261,6.33453c-0.59364,0.66073 -1.97808,2.8505 -2.79869,2.96986c-0.6988,0.10164 -1.17328,-0.78626 -1.76689,-1.16872c-1.32457,-0.85342 -2.66284,-1.67742 -4.07189,-2.38268c-1.20571,-0.45251 -1.81963,-0.72799 -3.25344,-0.95526c-0.73363,-0.11629 -6.2975,-0.50071 -6.09802,0.85958c0.17847,1.21697 2.21766,2.66392 2.89077,3.27513c3.25538,2.95605 10.42271,8.06415 4.95344,12.16637c0,0 -1.04006,0.69338 -1.73343,-0.34669c-0.69338,-1.04006 0.34668,-1.73344 0.34668,-1.73344c1.88646,-0.97803 0.63616,-2.53581 -0.53347,-3.82175c-2.24826,-2.47182 -6.05914,-4.46693 -7.64313,-7.39192c-1.35604,-2.50407 -0.66277,-4.62305 2.16339,-5.32142c1.02458,-0.25318 3.53303,-0.17821 4.4061,-0.17649c1.95812,0.00385 3.67336,0.46962 5.5004,1.1543c1.13552,0.56727 2.23145,1.21355 3.30948,1.88368c0.44193,0.27471 0.96656,0.45178 1.31949,0.83415c0.14296,0.15489 -0.03725,0.83008 0.03329,0.63146c0.6084,-1.71304 1.79873,-3.14892 3.23913,-4.45714c-0.59023,-0.53711 -0.26072,-1.3609 -0.26072,-1.3609c0.80084,-1.91089 1.1676,-5.0378 -1.61269,-5.50654c-0.89808,-0.15141 -1.80712,0.65482 -2.69478,0.45102c-0.57252,-0.13145 -2.54492,-1.93039 -2.91306,-2.47344c-1.01693,-1.50014 -1.61963,-4.27783 -0.80641,-5.97581c0.57445,-1.19943 3.20432,-2.63777 4.13714,-3.8827l0.62397,-0.78095c0,0 0.78087,-0.97609 1.75696,-0.19522z" fill="#3e0e6c" stroke="none" stroke-width="0.5"/><path d="M444.53893,182.94864c0,0.50518 -0.20416,0.80619 -0.44747,0.98555c-0.19582,0.62142 -0.34199,1.29971 -0.89813,1.50827c-1.19164,0.44688 -3.80614,-1.32277 -4.80582,-2.83084c0.10544,0.69675 0.28231,1.37725 0.52128,1.99832c0,0 0.43891,1.17041 -0.7315,1.60931c-0.10122,0.03796 -0.19696,0.06388 -0.28742,0.07956c1.08688,0.65105 2.0453,1.27204 2.28893,1.53189c0.5754,0.61371 1.20446,1.38293 1.19282,2.22411c-0.00889,0.642 -2.82827,2.27615 -0.51476,2.00179c0.05095,-0.37926 0.26491,-0.9459 1.07691,-1.04739c1.24034,-0.15505 1.3954,1.08531 1.3954,1.08531l-1.21472,2.59896c-0.50005,-0.05 -1.0001,-0.10001 -1.50015,-0.15001c-0.71269,-0.13438 -1.57607,0.05527 -2.13806,-0.40315c-1.37348,-1.12035 -1.41251,-4.0234 0.42939,-4.49649c0.46346,-0.11904 -0.96524,-0.11587 -1.4007,-0.31423c-1.51834,-0.69162 -2.6059,-1.7549 -3.98717,-2.62242c-0.52388,-0.32903 -0.65933,0.6988 -0.72984,0.81986c-1.11368,1.91207 -2.18321,3.94851 -3.48073,5.74546c-1.12781,1.56191 -1.91447,1.84824 -2.19016,3.70112c0,0 -0.22361,1.22983 -1.45344,1.00623c-1.22983,-0.2236 -1.00623,-1.45344 -1.00623,-1.45344c0.60982,-2.98495 2.9725,-5.08148 4.48791,-7.73478c0.61645,-1.07933 1.5671,-3.59943 2.67709,-4.20084c0.69022,-0.37397 1.57376,-0.48853 2.33586,-0.30018c0.27211,0.06725 1.29856,0.60577 2.43266,1.25041c-0.01549,-0.03347 -0.02291,-0.05326 -0.02291,-0.05326c-0.91384,-2.48738 -1.87117,-8.62187 2.30501,-8.88791c1.34331,-0.08558 3.18136,1.2366 3.26371,2.67775c0.05413,0.94732 -1.10541,1.5426 -1.64817,2.32091c-0.10186,0.14606 0.38718,-0.0846 0.53397,0.01621c0.63756,0.43783 1.43496,2.25055 0.93056,0.93865l1.33587,-0.85471c0,0 1.25,0 1.25,1.25zM438.2775,180.88331c0.41348,-0.48513 1.14716,-0.86603 1.36319,-1.46435c0.01899,-0.0526 -1.1283,-0.60544 -1.28582,0.51654c-0.04338,0.30895 -0.06886,0.62632 -0.07737,0.94781z" fill="#3e0e6c" stroke="none" stroke-width="0.5"/><path d="M514.10104,191.53972c-1.24035,0.15505 -1.39539,-1.0853 -1.39539,-1.0853l-0.11563,-1.02627c-0.12857,-0.53436 0.07469,-2.08784 -0.23279,-1.63229c-0.60496,0.89627 -2.72867,2.11301 -2.86717,3.21926c-0.15585,1.24486 2.27724,2.61948 2.25546,3.91635c-0.01379,0.821 -0.78682,1.44146 -1.18022,2.16219c-2.37233,1.12517 -4.80867,1.54279 -7.42732,1.79825c-1.40519,0.13708 -3.67409,0.61781 -4.44444,-1.35444c-1.15519,-2.95749 2.39633,-6.77271 1.99704,-9.73145c-0.02683,-0.19881 -0.22327,0.37624 -0.41474,0.43614c-0.45644,0.14278 -0.95669,0.05839 -1.42789,0.14024c-2.98802,0.51904 -5.83311,1.67409 -8.39186,3.27702c0,0 -1.05999,0.6625 -1.72249,-0.3975c-0.6625,-1.06 0.39749,-1.7225 0.39749,-1.7225c2.84564,-1.77475 5.99268,-3.04262 9.30991,-3.62367c0.59054,-0.10344 3.56881,-0.38449 3.85795,-0.02367c2.24783,2.80505 -0.93795,7.81616 -1.30329,10.67058c-0.07882,0.61584 1.24116,-0.0693 1.85618,-0.15431c0.63808,-0.08821 1.27265,-0.20032 1.90985,-0.29471c1.48834,-0.22048 2.77399,-0.36953 4.16419,-0.90734c0.54136,-0.40281 -1.12068,-1.88247 -1.35328,-2.40751c-0.86057,-1.94249 -0.79303,-2.22458 0.42499,-4.0022c0.63053,-0.92022 3.39235,-3.59352 4.53689,-3.49441c1.89579,0.16416 2.1031,2.23301 2.46748,3.46821l0.18441,1.37398c0,0 0.15504,1.24034 -1.0853,1.39539z" fill="#3e0e6c" stroke="none" stroke-width="0.5"/><path d="M495.30682,150.66865c0.17678,-1.23744 1.41422,-1.06066 1.41422,-1.06066l1.26861,0.2016c2.4771,0.82592 4.74021,2.29942 7.17492,3.10559c0.82175,0.2721 1.43949,-1.3459 1.70167,-1.80047c1.45085,-2.51544 1.89054,-4.31521 1.36386,-7.17815c-0.35234,-1.18276 -0.75511,-2.54031 -1.63277,-3.47274c-1.93644,-2.05729 -5.82206,-4.13065 -3.05792,-7.52586c1.93801,-2.38046 4.73095,-1.94998 7.14825,-1.29663c3.82422,1.03363 10.12843,0.8671 13.77365,-0.69314c-1.54666,-2.61759 -5.36396,-4.32127 -7.02891,-6.97464c-0.42096,-0.67087 -1.03255,-1.48171 -0.7977,-2.2381c0.30488,-0.98195 2.87008,-2.27501 3.78313,-2.75098c2.71838,-1.41708 6.10079,-2.13117 8.57319,-3.97368c2.17702,-1.62238 2.9045,-3.23556 5.79593,-2.38949c0,0 1.17042,0.43891 0.73151,1.60932c-0.4389,1.17041 -1.60932,0.73151 -1.60932,0.73151c-1.30156,-0.79715 -2.52191,1.39369 -3.505,2.11096c-3.2716,2.38698 -8.29934,2.7207 -11.34605,5.27654c-0.1108,0.09295 0.29219,0.06852 0.40242,0.16214c0.83521,0.70939 1.63484,1.46139 2.40933,2.23662c2.14523,2.1473 4.43009,4.06289 4.96319,6.99036c-3.77388,3.69347 -10.00241,2.94224 -14.94174,2.5005c-2.21985,-0.19852 -4.45607,-1.66837 -6.44058,0.31021c-0.81351,0.81107 0.16753,1.83449 0.70348,2.38667c2.11726,2.18136 3.58004,3.34462 4.50682,6.41671c0.65233,3.62217 -0.52274,12.65431 -5.93538,12.02348c-2.31675,-0.27001 -5.21903,-2.42608 -7.52654,-3.19504l-0.83159,-0.09843c0,0 -1.23744,-0.17678 -1.06066,-1.41421z" fill="#3e0e6c" stroke="none" stroke-width="0.5"/><path d="M504.54427,165.80623c-0.29861,0.33739 0.89541,0.10127 1.34267,0.15563c0.95494,0.11606 1.92103,0.14518 2.86993,0.30324c1.97493,0.32897 5.98939,2.02718 7.94963,0.93966c0.36631,-0.20322 0.49023,-1.55169 0.49603,-1.63102c0.14453,-1.97585 0.298,-3.26491 1.0543,-5.1397c2.90527,-3.82973 6.78787,-3.03363 10.36906,-0.40337c6.7056,4.92505 11.18013,11.48051 16.16387,17.9554c0,0 0.76214,0.99078 -0.22864,1.75292c-0.99078,0.76214 -1.75292,-0.22865 -1.75292,-0.22865c-4.42428,-5.75497 -8.32586,-11.50927 -14.04686,-16.14199c-2.31106,-1.87143 -5.93282,-4.96236 -8.3251,-1.70951c-0.90377,2.28692 -0.08296,6.10338 -2.35006,7.63073c-0.85649,0.57702 -2.8211,0.57674 -3.77875,0.50447c-2.49957,-0.18864 -4.91068,-0.94355 -7.39333,-1.20388c-0.69146,-0.07251 -2.88696,-0.27318 -3.35075,-0.61449c-0.5603,-0.41233 -1.16906,-0.96161 -1.4121,-1.61058c-0.64941,0.19242 -1.31417,0.35311 -1.9083,0.52687c-0.21885,0.29157 -0.738,0.78274 -1.55743,0.37302c-1.11804,-0.55901 -0.55902,-1.67705 -0.55902,-1.67705l0.87277,-0.92686c1.87287,-0.62397 3.54684,-1.283 5.31607,-1.79391l-0.11881,-0.21782l1.62982,-0.88899c0.18248,-0.10419 0.39374,-0.16372 0.61891,-0.16372c0.69036,0 1.25,0.55964 1.25,1.25c0,0.41415 -0.20141,0.78126 -0.51164,1.00872l-1.16518,0.87389c-0.46605,0.39136 -1.07084,0.62129 -1.47416,1.07699z" fill="#3e0e6c" stroke="none" stroke-width="0.5"/><path d="M526.60214,153.72132c-1.22573,-0.24515 -0.98058,-1.47087 -0.98058,-1.47087l0.21514,-0.96917c0.33848,-0.84609 0.65634,-1.67565 0.9607,-2.51287v-1.0733h0.38124c0.13202,-0.3806 0.26194,-0.76483 0.3904,-1.15485l1.0589,0.57431l0.30334,-0.30334l1.02806,1.02806c1.90627,1.66938 3.54501,3.61106 5.42817,5.28591c0.00887,0.00333 0.01769,0.00676 0.02645,0.01028l0.56106,0.2104c-0.74771,-2.60684 -1.16776,-5.39901 -2.5403,-7.69387c-0.46524,-0.77787 -2.5854,-1.66135 -2.4355,-2.51667c0.68997,-3.93708 4.57732,0.02069 3.89898,-2.1909v-1.35014c0,0 0,-1.25 1.25,-1.25c1.25,0 1.25,1.25 1.25,1.25v1.35014c-0.07865,0.74368 0.22863,1.64503 -0.23595,2.23104c-0.31206,0.39363 -1.10745,0.64451 -1.88659,0.73463c0.14404,0.19922 0.24672,0.36685 0.28569,0.42757c1.95336,3.04398 2.07842,7.09505 3.5293,10.35051c0,0 0.19378,0.43601 0.07252,0.889c2.0258,0.82341 3.93215,0.48635 6.74634,0.17668c1.03402,-0.11378 2.17167,0.03127 3.08596,-0.46494c0.89473,-0.4856 -1.02277,-5.15839 -1.2664,-5.80478c0,0 -0.4389,-1.17041 0.73151,-1.60932c1.17041,-0.4389 1.60932,0.73151 1.60932,0.73151c0.8096,2.16878 2.84033,6.66756 0.53378,8.59666c-0.60708,0.50774 -3.5846,0.94214 -4.4148,1.03521c-4.40134,0.49342 -7.21273,0.81078 -10.80219,-2.05099l-0.07532,-0.05649c-0.31969,-0.07929 -0.54409,-0.25882 -0.54409,-0.25882c-2.06937,-1.66249 -3.79454,-3.67783 -5.72964,-5.49313c-0.20649,0.58584 -0.63783,1.22609 -0.87975,1.83096l-0.08489,0.53098c0,0 -0.24515,1.22573 -1.47087,0.98058z" fill="#3e0e6c" stroke="none" stroke-width="0.5"/><path d="M528.53476,186.82227c0.17678,1.23744 -1.06066,1.41421 -1.06066,1.41421l-1.1025,0.15637c-3.94265,0.37913 -6.05265,-0.80246 -7.21172,-4.66264c0.0172,-2.20366 0.88392,-2.84957 1.54861,-4.76985c0.7126,-2.0587 -0.92516,-4.61725 1.2003,-6.3215c1.00278,-0.80406 3.96519,-0.33616 5.17519,-0.52285c0.61981,-0.09563 1.60118,0.05364 1.80215,-0.54044c0.64185,-1.89733 -2.14238,-5.71202 -2.98154,-7.22181c0,0 -0.60705,-1.0927 0.48564,-1.69975c1.0927,-0.60705 1.69975,0.48564 1.69975,0.48564c1.2859,2.31565 4.43099,6.77706 3.01906,9.57987c-0.94141,1.86878 -4.01627,1.9452 -5.71395,2.02724c-0.66995,0.03237 -1.44581,-0.45267 -2.01018,-0.09022c-0.38862,0.24957 -0.07135,2.80924 -0.0894,3.0982c-0.13608,2.17761 -1.69394,3.54425 -1.66213,5.61243c0.75786,2.52978 1.98535,2.79984 4.48945,2.53808l0.99771,-0.14366c0,0 1.23744,-0.17678 1.41421,1.06066z" fill="#3e0e6c" stroke="none" stroke-width="0.5"/><path d="M545.95407,198.27577c-1.22573,-0.24515 -0.98058,-1.47087 -0.98058,-1.47087l0.15002,-0.25978c-0.21613,-1.11224 -0.18546,-1.49961 -0.75233,-2.46258c-2.14999,-3.6523 -6.73611,0.38745 -10.07095,-1.13643c-1.0887,-0.49749 -3.11168,-2.69217 -2.34675,-4.08359c0.4407,-0.80165 2.78801,-0.28156 3.71319,-0.39995c1.25764,-0.16093 1.90051,-1.17478 2.81837,-1.96255c0,0 0.94907,-0.81349 1.76256,0.13558c0.81349,0.94907 -0.13558,1.76256 -0.13558,1.76256c-1.27136,1.08822 -1.96466,1.99353 -3.53065,2.41614c0.36223,-0.019 0.7278,-0.07036 1.08062,-0.1073c1.97128,-0.20639 4.36538,-1.30791 6.32851,-0.50682c2.2497,0.91804 3.15382,3.75136 3.58447,5.85465l-0.15002,1.24037c0,0 -0.24515,1.22573 -1.47087,0.98058z" fill="#3e0e6c" stroke="none" stroke-width="0.5"/><path d="M431.03758,147.84513c0,1.25 -1.25,1.25 -1.25,1.25l-1.18814,-0.00765c-1.50863,-0.16765 -2.95629,-0.31847 -4.43981,-0.65076c-0.67502,-0.28214 -1.38996,-0.48323 -2.02506,-0.84641c-0.68253,-0.39031 -1.47401,-0.73703 -1.89978,-1.39802c-1.98278,-3.07814 1.28978,-4.04473 3.31234,-5.39014c0.52703,-0.35058 3.54516,-1.89853 2.43118,-2.95633c-1.0574,-1.00408 -2.79184,-0.80918 -4.09697,-0.75269c-2.79329,0.12089 -5.3413,0.72347 -8.1165,0.12104c0,0 -1.22023,-0.27116 -0.94907,-1.4914c0.27116,-1.22023 1.4914,-0.94907 1.4914,-0.94907c3.60583,0.82398 10.90072,-2.25012 13.58911,1.46856c3.17422,4.3907 -3.39715,6.47934 -5.93335,8.27549c-0.44464,0.3149 0.89023,0.63563 1.37625,0.88191c0.50713,0.25698 1.0502,0.43583 1.5753,0.65374c1.316,0.28941 2.62266,0.40067 3.96103,0.54936l0.91207,-0.00765c0,0 1.25,0 1.25,1.25z" fill="#3e0e6c" stroke="none" stroke-width="0.5"/><path d="M533.31413,125.05905c0.88388,-0.88388 1.76777,0 1.76777,0l0.29271,0.31676c0.47834,0.39842 1.15449,0.63952 1.43502,1.19526c0.47432,0.93969 -0.46399,2.79242 0.47956,3.54753c1.55296,1.24282 4.08526,0.87254 5.89383,0.88602c1.43276,-0.36735 3.47663,-2.09122 2.28379,-3.90697c-0.18007,-0.27411 -0.67373,-0.11332 -0.93191,-0.31556c-1.88306,-1.47514 -3.88114,-4.52888 -3.1376,-7.03434c0.60239,-2.02985 1.25808,-1.71612 2.79462,-2.66891c3.1666,-1.96356 5.62507,-2.73694 9.35803,-2.73694c0,0 1.25,0 1.25,1.25c0,1.25 -1.25,1.25 -1.25,1.25c-1.33661,0 -2.69451,-0.1496 -3.99425,0.24821c-1.24341,0.38057 -5.43606,1.96471 -5.75528,3.34684c-0.66148,2.86397 2.74978,3.54863 3.73127,5.25135c2.12092,3.67943 -0.78912,6.88256 -4.01684,7.7942c-2.44583,0.0149 -5.94765,0.40818 -7.90755,-1.51422c-1.45764,-1.42976 -0.36985,-3.95499 -1.68579,-4.55813l-0.60738,-0.58333c0,0 -0.88388,-0.88388 0,-1.76777z" fill="#3e0e6c" stroke="none" stroke-width="0.5"/></g></g></svg>