<svg version="1.1" xmlns="http://www.w3.org/2000/svg" xmlns:xlink="http://www.w3.org/1999/xlink" width="393.85176" height="295.23059" viewBox="0,0,393.85176,295.23059"><g transform="translate(-189.47171,-43.82227)"><g data-paper-data="{&quot;isPaintingLayer&quot;:true}" fill-rule="nonzero" stroke-linejoin="miter" stroke-miterlimit="10" stroke-dasharray="" stroke-dashoffset="0" style="mix-blend-mode: normal"><g stroke-linecap="butt"><path d="M256.23841,157.87011c7.43326,-16.58041 19.18398,-37.36939 32.35537,-41.10484c1.15265,-0.32689 0.66561,14.92206 1.77926,14.67141c4.44171,-0.99971 19.69405,-6.97965 21.05199,-6.37087c2.72554,3.43903 -8.90555,15.56744 -8.5822,20.50753c0.01165,0.17802 12.09437,-4.50874 12.09574,-3.54515c0.01022,7.21067 -8.64177,11.60379 -12.28673,19.73412c-0.07996,0.17835 5.79316,6.79238 3.23528,9.02063c-5.22542,4.55204 -17.0024,17.12809 -28.92407,25.63986c-22.53043,16.08617 -48.21483,29.35065 -49.70254,28.68369c-2.71776,-1.21841 20.06763,-47.36134 28.97791,-67.23637z" fill="#0e6b22" stroke="#00ff6f" stroke-width="2.5"/><path d="M256.23841,157.87011c7.43326,-16.58041 19.18398,-37.36939 32.35537,-41.10484c1.15265,-0.32689 0.66561,14.92206 1.77926,14.67141c4.44171,-0.99971 19.69405,-6.97965 21.05199,-6.37087c2.72554,3.43903 -8.90555,15.56744 -8.5822,20.50753c0.01165,0.17802 12.09437,-4.50874 12.09574,-3.54515c0.01022,7.21067 -8.64177,11.60379 -12.28673,19.73412c-0.07996,0.17835 5.79316,6.79238 3.23528,9.02063c-5.22542,4.55204 -17.0024,17.12809 -28.92407,25.63986c-2.61315,1.86573 -5.72196,-4.8873 -5.00241,-5.90823c1.44123,-2.04488 10.87136,-9.07891 10.98529,-9.38953c0.65165,-1.77661 -4.12215,-6.32352 -3.59524,-8.13154c0.43234,-1.48351 6.16243,-7.96118 6.36982,-9.34079c0.20518,-1.36493 -4.39978,-8.89991 -12.27427,-8.37051c-1.41957,0.09543 -4.16907,5.06417 -5.56123,5.09764c-6.2682,0.15069 -12.27024,-1.11864 -11.6466,-2.50972z" fill="#00ff6f" stroke="none" stroke-width="0"/><path d="M268.83047,164.64725c2.20761,0.29117 8.32737,2.71348 8.03303,4.94509c-0.19552,1.48244 -7.9187,12.12225 -8.62141,12.02957c-1.41289,-0.18635 -9.85263,-3.68145 -9.44278,-6.78887c0.19301,-1.46338 9.30933,-10.28099 10.03116,-10.18579z" fill="#00ff6f" stroke="none" stroke-width="0"/></g><path d="M276.4696,255.82073c-0.08225,0.77759 -1.63584,22.26149 -3.45047,23.67652c-8.5611,6.67587 -31.82874,-1.99069 -31.44069,-5.65919c0.47031,-4.44609 -6.46495,-110.92033 4.44961,-109.90313c0.25352,0.02363 7.76862,-1.30589 9.27858,5.45277c6.89174,30.84789 21.4989,83.25734 21.16297,86.43303z" data-paper-data="{&quot;index&quot;:null}" fill="#0e6b22" stroke="#00ff6f" stroke-width="2.5" stroke-linecap="butt"/><path d="M190.77245,255.09153c0.12692,-3.18878 16.90143,-53.35969 25.53203,-83.09779c1.89093,-6.51551 7.21008,-4.28223 7.39753,-4.27477c8.07027,0.32121 -9.44223,105.01764 -9.61992,109.48206c-0.14661,3.68363 -18.11123,9.44003 -23.56672,1.77985c-1.15636,-1.62368 0.22601,-23.10856 0.25709,-23.88935z" fill="#0e6b22" stroke="#00ff6f" stroke-width="2.5" stroke-linecap="butt"/><path d="M207.56857,314.5778c0,0 -3.42781,-34.39167 -3.16898,-38.21093c0.2894,-4.27042 9.71318,-54.366 10.79663,-58.46209c2.31214,-8.74124 4.47762,-8.3884 5.82943,-8.14062c1.19926,0.21982 12.33466,0.72694 11.91464,8.08207c-0.19915,3.48751 -6.35514,49.64797 -6.22639,54.09254c0.05272,1.82019 8.54272,36.87384 7.76836,41.46131c-3.00792,17.81964 -27.71976,20.41145 -34.51755,15.42161c-1.87464,-1.37606 8.13204,-14.14709 7.60387,-14.2439z" fill="#0e6b22" stroke="#00ff6f" stroke-width="2.5" stroke-linecap="butt"/><path d="M228.42119,278.68726c-0.42492,-4.25809 0.52818,-55.29744 0.91429,-59.52719c0.82398,-9.02646 3.01537,-9.06989 4.38794,-9.06989c1.21767,0 12.269,-1.51078 13.0781,5.80897c0.38364,3.47075 1.99473,50.04456 2.86042,54.39868c0.35453,1.78315 14.54369,34.77413 14.54369,39.43203c0,18.0932 -21.87262,31.13406 -29.39716,27.44684c-2.07506,-1.01684 3.62248,-21.42834 3.0862,-21.42834c0,0 -9.09346,-33.25286 -9.47348,-37.0611z" fill="#0e6b22" stroke="#00ff6f" stroke-width="2.5" stroke-linecap="butt"/><path d="M228.42119,278.68726c-0.42492,-4.25809 0.52818,-55.29744 0.91429,-59.52719c0.82398,-9.02646 3.01537,-9.06989 4.38794,-9.06989c1.21767,0 12.269,-1.51078 13.0781,5.80897c0.38364,3.47075 1.99473,50.04456 2.86042,54.39868c0.35453,1.78315 14.54369,34.77413 14.54369,39.43203c0,18.0932 -21.87262,31.13406 -29.39716,27.44684c-2.07506,-1.01684 3.62248,-21.42834 3.0862,-21.42834c0,0 -9.09346,-33.25286 -9.47348,-37.0611z" fill="#0e6b22" stroke="#00ff6f" stroke-width="2.5" stroke-linecap="butt"/><path d="M222.20355,169.67233c0.13038,-2.05883 2.23398,-6.13037 3.29569,-6.80974c0.44246,-0.28312 4.68168,-0.2138 8.0546,-0.2138c3.66725,0 6.94332,0.64295 9.10504,1.65124c1.67542,0.78146 3.86465,4.34719 3.92627,6.50048c0.01541,0.53861 -2.63786,26.76896 -2.62857,27.14229c0.12869,5.17491 3.05295,15.23294 1.9532,15.44266c-0.11568,0.02206 -15.39151,4.39384 -16.87451,4.28831c-0.37995,-0.02704 -11.52794,-6.31659 -11.6646,-6.35188c-0.0996,-0.02572 4.1731,-13.77714 4.22656,-14.28045c0.1438,-1.35369 0.12123,-19.70943 0.60631,-27.36911z" fill="#0e6b22" stroke="#00ff6f" stroke-width="2.5" stroke-linecap="butt"/><path d="M235.61584,193.71935c0.46306,-10.47459 0.64136,-20.87736 0.97841,-22.75855c1.52956,-8.53691 5.03076,-5.41134 8.16323,-5.41134c0.94762,0 3.10148,-1.62015 3.816,3.85623c0.34565,2.64915 -1.88824,25.45435 -1.90218,26.12357c-0.04318,2.07335 0.87348,8.65037 1.90442,15.49394c1.31157,8.70645 2.80812,17.8443 2.74861,18.68892c-0.18418,2.61401 -2.87292,-0.67709 -3.79565,-0.67709c-4.80017,0 -13.47809,15.60581 -13.47809,-0.88174c0,-3.35725 0.90955,-19.60184 1.56525,-34.43394z" fill="#0e6b22" stroke="#00ff6f" stroke-width="2.5" stroke-linecap="butt"/><path d="M224.16368,225.83595c-1.62802,15.86474 -6.41168,-0.28286 -9.91013,-0.90864c-0.67251,-0.12029 -2.95706,2.69596 -2.83319,0.15668c0.04003,-0.82047 2.03303,-9.41805 3.84862,-17.62463c1.42711,-6.45066 2.74462,-12.65974 2.91788,-14.6604c0.05593,-0.64575 0.67966,-22.88073 1.19316,-25.38476c1.06151,-5.17638 2.47131,-3.33664 3.16195,-3.2131c2.28299,0.40837 5.14336,-2.1427 5.41517,6.27114c0.0599,1.85407 -0.83735,11.88712 -1.53415,22.02641c-0.98667,14.3573 -1.92781,30.10684 -2.25931,33.33728z" data-paper-data="{&quot;index&quot;:null}" fill="#0e6b22" stroke="#00ff6f" stroke-width="2.5" stroke-linecap="butt"/><path d="M202.26184,153.09696c5.96228,-0.07815 25.10454,-2.62377 30.72071,-2.62377c5.61618,0 37.08923,2.52809 45.26159,4.24198c1.53394,0.32169 -15.79808,8.35408 -14.30794,8.55538c6.54945,0.88476 12.27802,-1.05729 12.17484,-0.77436c-0.34905,0.95718 -40.79225,12.71803 -43.96716,12.71803c-2.89497,0 -28.13854,-13.40814 -29.77454,-17.57049c-0.03804,-0.09678 2.88979,0.51239 6.39515,0.49807c0.48098,-0.00197 -6.99681,-5.03836 -6.50263,-5.04484z" fill="#0e6b22" stroke="#00ff6f" stroke-width="2.5" stroke-linecap="butt"/><path d="M199.18228,84.0181c0,-2.2489 1.6185,-34.3034 7.40231,-34.3034c6.68068,0 27.62325,24.0514 27.62325,40.80299c0,2.36891 -15.38773,22.02639 -21.12367,22.02639c-6.68069,0 -13.9019,-11.7744 -13.9019,-28.52598z" fill="#0e6b22" stroke="#00ff6f" stroke-width="2.5" stroke-linecap="butt"/><path d="M282.85239,84.22979c-2.33632,16.58786 -11.12912,27.24005 -17.74451,26.3083c-5.67989,-0.79999 -27.21397,-19.10018 -26.88358,-21.44594c2.33632,-16.58786 34.59071,-44.92922 41.2061,-43.99747c5.72728,0.80666 3.73564,36.9082 3.42199,39.13512z" data-paper-data="{&quot;index&quot;:null}" fill="#0e6b22" stroke="#00ff6f" stroke-width="2.5" stroke-linecap="butt"/><path d="M259.44176,110.31425" fill="none" stroke="#00ff6f" stroke-width="2.5" stroke-linecap="round"/><path d="M198.42368,85.68419c14.78019,0.3785 74.32902,1.97006 74.19193,2.9146c-1.38009,9.50933 -3.14564,59.60172 -4.51206,71.64689c-0.04345,0.38299 -65.72464,-6.13662 -73.80219,-7.26717c-1.78996,-0.25053 3.8495,-67.3013 4.12231,-67.29431z" fill="#0e6b22" stroke="#00ff6f" stroke-width="2.5" stroke-linecap="butt"/><path d="M272.4062,88.58845c0.02555,-0.17611 6.09052,9.06368 6.2095,10.6909c0.08708,1.19105 -1.93702,49.24734 -1.99636,49.80111c-0.42826,3.99654 -8.76139,11.47379 -8.72521,11.15487c1.36641,-12.04516 3.13197,-62.13756 4.51206,-71.64689z" fill="#0e6b22" stroke="#00ff6f" stroke-width="2.5" stroke-linecap="butt"/><path d="M204.46526,93.10753c11.84049,0.30322 59.54536,1.57822 59.43554,2.3349c-1.1056,7.61798 -2.51999,47.74725 -3.61463,57.3967c-0.03481,0.30681 -52.65235,-4.91608 -59.12332,-5.82177c-1.43394,-0.20069 3.08386,-53.91542 3.30241,-53.90982z" fill="#00ff6f" stroke="none" stroke-width="0" stroke-linecap="butt"/><g fill="#0e6b22" stroke="none" stroke-width="0" stroke-linecap="butt"><path d="M260.20944,124.65377c-0.92284,11.14522 -9.07053,19.59775 -18.19838,18.87926c-9.12785,-0.71849 -13.93115,-9.79082 -13.00831,-20.93604c0.92284,-11.14522 7.22236,-20.1429 16.35021,-19.4244c9.12785,0.7185 15.77933,10.33596 14.85648,21.48118z"/><path d="M258.66567,125.07773c0.21116,-2.55013 -1.01659,-6.80899 0.23115,-6.46637c0.68976,0.1894 7.29663,7.75544 7.23886,8.45319c-0.07784,0.9401 -8.05498,6.98614 -9.2161,6.89474c-1.4193,-0.11171 1.31815,-3.71345 1.74608,-8.88155z"/></g><g stroke="none" stroke-width="0" stroke-linecap="butt"><path d="M245.57429,123.80882c0.13114,-4.20531 2.69646,-7.5377 5.7298,-7.44311c3.03334,0.09459 5.38605,3.58035 5.25491,7.78566c-0.13114,4.20531 -2.69646,7.53772 -5.7298,7.44313c-3.03334,-0.09459 -5.38604,-3.58036 -5.25491,-7.78567z" fill="#00ff6f"/><path d="M247.10495,123.85656c0.09459,-3.03334 1.94498,-5.43703 4.13296,-5.3688c2.18798,0.06823 3.88501,2.58254 3.79042,5.61588c-0.09459,3.03334 -1.94499,5.43704 -4.13297,5.36881c-2.18798,-0.06823 -3.88501,-2.58255 -3.79042,-5.61589z" fill="#0e6b22"/><path d="M248.45552,123.89868c0.06234,-1.99925 1.28192,-3.5835 2.724,-3.53853c1.44208,0.04497 2.56058,1.70213 2.49823,3.70138c-0.06234,1.99925 -1.28192,3.5835 -2.724,3.53853c-1.44208,-0.04497 -2.56058,-1.70213 -2.49823,-3.70138z" fill="#00ff6f"/></g><g data-paper-data="{&quot;index&quot;:null}" fill="#0e6b22" stroke="none" stroke-width="0" stroke-linecap="butt"><path d="M219.09057,103.1225c7.35048,0.94868 10.62483,10.34804 9.24278,20.77689c-1.38205,10.42885 -6.89715,17.93801 -14.24763,16.98933c-7.35048,-0.94868 -12.18885,-10.172 -10.8068,-20.60085c1.38205,-10.42885 8.46116,-18.11405 15.81164,-17.16537z"/><path d="M204.41876,120.95079c-0.64086,4.83592 0.8404,8.63652 -0.30253,8.48901c-0.93503,-0.12068 -6.0945,-7.09725 -5.97792,-7.97692c0.08652,-0.6529 6.74176,-6.45638 7.3228,-6.50914c1.05109,-0.09545 -0.72612,3.61083 -1.04234,5.99705z"/></g><g data-paper-data="{&quot;index&quot;:null}" stroke="none" stroke-width="0" stroke-linecap="butt"><path d="M218.89415,130.25187c-2.41538,-0.47564 -3.81161,-4.21456 -3.11857,-8.35109c0.69304,-4.13653 3.21291,-7.10428 5.62828,-6.62863c2.41538,0.47565 3.81161,4.21456 3.11857,8.35109c-0.69304,4.13653 -3.21291,7.10427 -5.62828,6.62863z" fill="#00ff6f"/><path d="M219.24386,128.16453c-1.74223,-0.34309 -2.74935,-3.04001 -2.24946,-6.02374c0.4999,-2.98373 2.31751,-5.12439 4.05974,-4.78131c1.74223,0.34309 2.74936,3.04001 2.24946,6.02374c-0.4999,2.98373 -2.31751,5.1244 -4.05974,4.78131z" fill="#0e6b22"/><path d="M219.55244,126.32276c-1.14829,-0.22612 -1.81207,-2.00364 -1.4826,-3.97019c0.32948,-1.96655 1.52745,-3.37744 2.67574,-3.15131c1.14829,0.22612 1.81207,2.00364 1.4826,3.97019c-0.32948,1.96655 -1.52745,3.37744 -2.67574,3.15131z" fill="#00ff6f"/></g><g stroke-linecap="butt"><path d="M449.8781,186.30826c-0.52601,-8.79068 42.62334,-5.43952 64.81289,6.91881c7.48808,4.17043 18.06797,18.81847 19.26102,31.36906c1.11454,11.72466 -22.27925,26.15683 -34.1976,26.9075c-11.91836,0.75068 -49.17282,-53.4382 -49.87633,-65.19537z" fill="#094d3e" stroke="#00866e" stroke-width="2.5"/><path d="M512.72928,59.18306c39.42481,0.86383 70.45754,36.46299 69.31355,79.51295c-0.01273,0.47896 -3.35084,10.20279 -5.00403,19.14175c-1.06066,5.73506 0.39036,11.48878 -2.13603,13.14398c-4.6985,3.07829 -4.37771,-1.19514 -5.87096,-4.04901c-1.1514,-2.20052 -4.44106,-3.16419 -5.37789,-1.69639c-4.85345,7.60422 -0.99226,5.21105 -2.58448,15.04946c-3.59416,22.20856 3.46675,44.9807 -0.98146,46.30601c-12.53444,3.73452 -7.14698,-8.6794 -8.67758,-22.17393c-1.6753,-14.77026 -6.27631,-30.7176 -12.96719,-27.35207c-15.71334,7.90385 -28.92641,22.02204 -46.43414,26.72866c-8.20217,2.20501 -17.64449,-11.30392 -25.58614,-10.67326c-28.67297,2.27696 -51.70469,9.47157 -51.28672,-6.25711c0.03741,-1.40786 59.45758,-128.5166 97.59307,-127.68102z" fill="#094d3e" stroke="#00866e" stroke-width="2.5"/><path d="M474.76837,144.60382c-0.10529,-1.75957 25.12844,-34.07283 40.39816,-35.03459c20.25348,-1.27566 39.89384,34.48339 40.00963,36.41858c0.34451,5.7575 -25.15525,22.16975 -36.4613,22.88186c-14.62872,0.92138 -43.80448,-21.89273 -43.94648,-24.26583z" fill="#1be0b5" stroke="none" stroke-width="0"/><path d="M540.91074,137.08965c0.87906,14.69091 -10.65909,27.37187 -25.77117,28.32369c-15.11208,0.95183 -28.07544,-10.1859 -28.9545,-24.87681c-0.87905,-14.69092 10.65909,-27.37188 25.77117,-28.32369c15.11208,-0.95183 28.07545,10.1859 28.9545,24.87682z" fill="#094d3e" stroke="none" stroke-width="0"/></g><g stroke-linecap="butt"><path d="M436.47402,187.62654c-1.08128,10.0141 -34.7634,56.52398 -44.78871,56.00942c-10.02531,-0.51456 -29.16584,-12.55399 -27.7391,-22.5447c1.52724,-10.6945 11.06189,-23.27211 17.55316,-26.89978c19.23566,-10.74991 55.7831,-14.05235 54.97465,-6.56495z" data-paper-data="{&quot;index&quot;:null}" fill="#094d3e" stroke="#00866e" stroke-width="2.5"/><path d="M428.79797,180.68274c1.55379,11.6131 -13.15846,8.23407 -30.92317,8.97441c-4.92035,0.20505 -9.59416,11.00872 -14.80409,10.06988c-6.92768,-1.24838 -1.57054,31.75665 -8.65585,27.44842c-3.83132,-2.32963 -18.13612,-41.60792 -22.01387,-43.31357c-4.37923,-1.92622 -29.84516,-24.37267 -29.89247,-24.72631c-4.25277,-31.78547 11.83383,-60.77611 35.93043,-64.75244c23.30858,-3.84628 70.21994,85.26011 70.35902,86.29959z" data-paper-data="{&quot;index&quot;:null}" fill="#094d3e" stroke="#00866e" stroke-width="2.5"/><g stroke="none" stroke-width="0"><path d="M373.8788,171.86891c-8.75437,0.53791 -29.81398,-8.48429 -30.06047,-12.49581c-0.08285,-1.34833 11.83927,-27.85797 27.52172,-28.82157c11.82346,-0.72649 34.09073,19.31224 34.16606,20.53821c0.1016,1.65345 -20.30016,20.08317 -31.62732,20.77917z" data-paper-data="{&quot;index&quot;:null}" fill="#1be0b5"/><path d="M374.04261,132.08651c11.70141,-0.71899 21.69714,6.99595 22.32608,17.23179c0.62894,10.23585 -8.34707,19.1165 -20.04848,19.8355c-11.70141,0.71899 -21.69714,-6.99595 -22.32608,-17.23179c-0.62894,-10.23585 8.34707,-19.1165 20.04848,-19.8355z" data-paper-data="{&quot;index&quot;:null}" fill="#094d3e"/></g></g><path d="M427.86025,172.92844c2.73358,0.36397 4.17364,20.49248 3.21648,44.95828c-0.95716,24.46581 -3.94909,44.00422 -6.68267,43.64024c-2.46159,-0.32776 -10.88313,-46.75114 -10.78789,-49.18544c0.95716,-24.46581 11.52049,-39.77706 14.25408,-39.4131z" data-paper-data="{&quot;index&quot;:null}" fill="#46486e" stroke="#00866e" stroke-width="2.5" stroke-linecap="butt"/><path d="M473.17439,211.26193c0.23664,2.43275 -10.91009,48.98198 -14.66309,49.34705c-4.16767,0.4054 -9.47427,-19.08686 -11.85262,-43.53717c-2.37835,-24.45032 -0.92782,-44.59986 3.23985,-45.00526c4.16767,-0.4054 20.89751,14.74507 23.27586,39.19539z" fill="#094d3e" stroke="#00866e" stroke-width="2.5" stroke-linecap="butt"/><path d="M456.7814,169.48451c0.48382,4.97384 -7.57677,9.82814 -18.00383,10.84241c-10.42705,1.01427 -19.27208,-2.19558 -19.7559,-7.16942c-0.10343,-1.06331 -1.72723,-1.49716 -1.11002,-2.5132c2.2699,-3.73666 10.91591,-7.53177 19.11386,-8.32921c9.09145,-0.88435 18.71625,1.27371 20.90875,5.18122c0.3221,0.57405 -1.21482,1.35108 -1.15285,1.98819z" fill="#00866e" stroke="none" stroke-width="0" stroke-linecap="butt"/><path d="M405.27007,320.3241c-1.20984,-2.52416 -4.72821,-7.99055 -0.41548,-12.81563c4.61377,-5.16188 13.88176,-5.16776 13.90882,-5.43092c3.0256,-29.42055 5.85565,-86.3937 7.65684,-91.91992c1.45848,-4.47477 13.97719,1.56197 15.08513,4.73846c0.34127,0.97843 2.512,96.05441 2.48945,99.15936c-0.05646,7.77603 -36.73838,10.41292 -38.72476,6.26865z" data-paper-data="{&quot;index&quot;:null}" fill="#094d3e" stroke="#00866e" stroke-width="2.5" stroke-linecap="butt"/><path d="M461.9966,331.47403c-7.43725,-1.48853 -18.24031,-6.60456 -18.86386,-14.35575c-0.24899,-3.09503 -8.19386,-97.56577 -7.92487,-98.5665c0.87326,-3.24886 16.09247,-10.69298 17.8735,-6.33651c2.19951,5.3801 9.1781,61.995 14.34181,91.11646c0.08936,0.50396 9.90298,1.99774 11.53762,7.13909c1.49551,4.70381 1.98031,12.37754 -0.13605,17.77083c-1.67876,4.27814 -13.82873,3.83272 -16.82813,3.23241z" fill="#094d3e" stroke="#00866e" stroke-width="2.5" stroke-linecap="butt"/><path d="M446.71251,181.27757c0.57734,1.82924 8.16131,32.70826 6.87697,33.43163c-3.6135,2.03519 -17.68152,7.08104 -18.24025,7.09022c-0.49232,0.00807 -9.27541,-4.81824 -9.30844,-4.9601c-0.58995,-2.53388 1.32479,-35.32417 1.43741,-35.84235c2.76779,-12.73445 6.1497,-21.95838 7.61247,-22.10066c1.78118,-0.17326 6.82631,7.18697 11.62185,22.38127z" fill="#094d3e" stroke="#00866e" stroke-width="2.5" stroke-linecap="butt"/><g fill="#094d3e" stroke="#00866e" stroke-width="2.5" stroke-linecap="butt"><path d="M434.39468,175.51633c0.16623,5.03784 -7.01772,13.4798 -8.98588,13.54475c-1.96817,0.06494 -2.57017,-18.17868 -0.602,-18.24361c1.96817,-0.06494 9.42165,-0.33897 9.5879,4.69887z" data-paper-data="{&quot;index&quot;:null}"/><path d="M448.64776,169.90969c2.25209,-0.07432 2.85411,18.16929 0.60201,18.24361c-2.25209,0.07432 -11.05234,-7.8402 -11.21857,-12.87803c-0.16623,-5.03783 8.36446,-5.29126 10.61656,-5.36558z"/><path d="M438.60615,174.86746c0.07863,2.38276 -1.50059,3.4 -3.33873,3.46065c-1.83814,0.06065 -3.2391,-0.85824 -3.31772,-3.24099c-0.07863,-2.38276 1.39562,-2.91224 3.23374,-2.9729c1.83814,-0.06065 3.34407,0.37048 3.4227,2.75324z"/></g><path d="M478.71493,77.74103c9.87854,-8.82426 26.84371,-16.56805 37.24213,-8.07464c1.78214,1.45565 6.27901,43.20341 4.60333,50.80431c-2.09413,9.49893 -8.87374,-13.98498 -9.92227,-1.51756c-1.79264,21.31536 2.12468,41.80637 -1.5595,46.50515c-6.94349,8.8557 -0.66836,-40.18666 -9.32968,-50.8539c-8.56648,-10.55043 -32.09247,17.31638 -34.88103,18.12646c-8.78665,2.55253 -17.68239,3.08341 -20.30936,0.14257c-8.94446,-10.0131 24.27784,-46.30813 34.15639,-55.1324z" data-paper-data="{&quot;index&quot;:null}" fill="#094d3e" stroke="#00866e" stroke-width="2.5" stroke-linecap="butt"/><path d="M424.28628,138.5513c-3.12798,2.40108 -11.76987,0.22536 -19.92867,-3.91647c-8.06932,-4.09642 -63.17316,-58.03815 -38.47181,-71.46431c11.79636,-6.41179 27.02576,4.35149 35.09123,14.85872c8.06547,10.50723 33.95958,52.34676 23.30925,60.52206z" data-paper-data="{&quot;index&quot;:null}" fill="#46486e" stroke="#00866e" stroke-width="2.5" stroke-linecap="butt"/><path d="M398.04722,139.27662c-1.9665,-20.21626 12.82787,-38.19894 33.04412,-40.16543c20.21625,-1.96649 38.19894,12.82787 40.16544,33.04413c1.9665,20.21626 -12.82787,38.19893 -33.04413,40.16543c-20.21625,1.96649 -38.19893,-12.82787 -40.16542,-33.04413z" fill="#094d3e" stroke="#00866e" stroke-width="2.5" stroke-linecap="butt"/><path d="M430.36901,164.31691c-20.21626,1.9665 -29.96299,-4.8622 -31.92948,-25.07846c-1.9665,-20.21626 12.82788,-38.19894 33.04413,-40.16543c5.59344,-0.54409 22.51428,1.59625 24.88908,8.57855c6.20842,18.25369 -11.38092,55.24294 -26.00373,56.66534z" data-paper-data="{&quot;index&quot;:null}" fill="#46486e" stroke="none" stroke-width="0" stroke-linecap="butt"/><path d="M398.04722,139.27662c-1.9665,-20.21626 12.82787,-38.19894 33.04412,-40.16543c20.21625,-1.96649 38.19894,12.82787 40.16544,33.04413c1.9665,20.21626 -12.82787,38.19893 -33.04413,40.16543c-20.21625,1.96649 -38.19893,-12.82787 -40.16542,-33.04413z" fill="none" stroke="#00866e" stroke-width="2.5" stroke-linecap="butt"/><path d="M469.85338,135.688c1.07054,11.00547 -6.3319,20.73165 -16.5338,21.72402c-10.2019,0.99237 -19.34001,-7.12486 -20.41055,-18.13034c-1.07054,-11.00548 6.3319,-20.73164 16.5338,-21.72401c10.2019,-0.99237 19.34001,7.12486 20.41055,18.13033z" fill="#094d3e" stroke="#00866e" stroke-width="2.5" stroke-linecap="butt"/><path d="M431.54559,139.09364c1.07054,11.00547 -5.12306,20.61406 -13.83378,21.46138c-8.71071,0.84732 -16.63998,-7.3875 -17.71052,-18.39297c-1.07054,-11.00547 5.12306,-20.61407 13.83378,-21.46138c8.71071,-0.84731 16.63998,7.3875 17.71052,18.39297z" fill="#094d3e" stroke="#00866e" stroke-width="2.5" stroke-linecap="butt"/><path d="M451.91527,159.17797c0,0 -1.14803,2.73153 -2.27247,3.7577c-1.23228,1.12458 -4.65422,-0.51136 -5.03122,-0.37192c-0.36271,0.13416 -4.2208,5.30679 -4.90195,5.97833c-0.70959,0.69959 -4.26329,-4.68524 -4.4942,-4.65811c-0.74429,0.08746 -2.54696,0.29606 -3.95219,0.46118c-1.15855,0.13613 -2.7645,4.06494 -3.28737,5.23423c-1.05964,2.36964 -4.60043,-4.26739 -5.22988,-4.52833c-0.45605,-0.18906 -2.52855,0.23736 -3.81687,-0.48712c-1.32403,-0.74455 -1.85838,-2.63784 -1.85838,-2.63784" fill="none" stroke="#00866e" stroke-width="2.5" stroke-linecap="round"/><g stroke="none" stroke-width="0" stroke-linecap="butt"><path d="M434.79275,139.72763c-0.52474,-5.39458 2.49863,-10.10323 6.75288,-10.51705c4.25426,-0.41383 8.12842,3.62387 8.65317,9.01846c0.52474,5.39458 -2.49862,10.10322 -6.75289,10.51704c-4.25426,0.41383 -8.12842,-3.62387 -8.65316,-9.01845z" fill="#1be0b5"/><path d="M437.29779,139.48396c-0.35409,-3.64025 1.68607,-6.81762 4.55684,-7.09687c2.87077,-0.27925 5.48502,2.44538 5.83911,6.08563c0.35409,3.64025 -1.68606,6.81761 -4.55682,7.09686c-2.87077,0.27925 -5.48504,-2.44536 -5.83913,-6.08561z" fill="#094d3e"/><path d="M439.42709,139.27683c-0.20905,-2.14906 0.99539,-4.02487 2.69018,-4.18973c1.69479,-0.16486 3.23815,1.44366 3.4472,3.59273c0.20905,2.14906 -0.99538,4.02486 -2.69018,4.18972c-1.69479,0.16485 -3.23816,-1.44366 -3.4472,-3.59271z" fill="#1be0b5"/></g><g stroke="none" stroke-width="0" stroke-linecap="butt"><path d="M401.91499,144.37486c-0.52474,-5.39458 2.49863,-10.10322 6.75289,-10.51705c4.25426,-0.41383 8.12843,3.62387 8.65317,9.01846c0.52474,5.39458 -2.49863,10.10322 -6.7529,10.51704c-4.25426,0.41383 -8.12842,-3.62388 -8.65316,-9.01846z" fill="#1be0b5"/><path d="M404.42004,144.13119c-0.35409,-3.64025 1.68606,-6.81763 4.55683,-7.09688c2.87077,-0.27925 5.48502,2.44538 5.83911,6.08563c0.35409,3.64025 -1.68605,6.81761 -4.55681,7.09686c-2.87077,0.27925 -5.48504,-2.44536 -5.83913,-6.08561z" fill="#094d3e"/><path d="M406.54933,143.92406c-0.20905,-2.14906 0.99538,-4.02487 2.69018,-4.18972c1.69479,-0.16485 3.23815,1.44366 3.4472,3.59272c0.20905,2.14906 -0.99538,4.02486 -2.69018,4.18972c-1.69479,0.16485 -3.23815,-1.44366 -3.4472,-3.59272z" fill="#1be0b5"/></g><path d="M464.08887,227.50884c1.03087,10.59767 -23.09612,9.85131 -25.10326,0.2233c-0.6338,-3.0403 -1.51349,-43.53926 -0.74329,-43.61418c0.29102,-0.02831 5.83999,-0.9171 12.07364,-8.5717c0.78548,-0.96454 5.8134,-6.90005 6.46449,-7.94413c0.66544,-1.06708 3.0703,-1.62409 2.31241,4.89687c-0.47771,4.11035 -4.67113,13.08829 -4.73161,13.36466c-0.15783,0.72123 -0.97106,11.92276 1.55971,22.14944c2.33229,9.42458 8.01188,17.8919 8.16789,19.49575z" fill="#46486e" stroke="#00866e" stroke-width="2.5" stroke-linecap="butt"/><path d="M422.18065,206.0215c0.97674,-9.42185 -0.09922,-19.73832 -0.23162,-20.40246c-0.05073,-0.25449 -3.03279,-8.51955 -3.53492,-12.30496c-0.79663,-6.00543 4.89247,1.91044 5.41334,2.79807c4.13355,7.04418 7.5014,7.85735 7.67707,7.88314c0.46491,0.06824 1.95138,40.66839 1.73197,43.4693c-0.01543,0.19701 -0.03758,0.38838 -0.0661,0.57414c-1.25617,8.17737 -14.91093,5.4928 -14.85273,-4.05245c0.00901,-1.47739 2.96289,-9.28188 3.86301,-17.96476z" data-paper-data="{&quot;index&quot;:null}" fill="#46486e" stroke="#00866e" stroke-width="2.5" stroke-linecap="butt"/></g></g></svg>