<svg version="1.1" xmlns="http://www.w3.org/2000/svg" xmlns:xlink="http://www.w3.org/1999/xlink" width="315" height="276" viewBox="0,0,315,276"><g transform="translate(-141.5,-21)"><g data-paper-data="{&quot;isPaintingLayer&quot;:true}" fill-rule="nonzero" stroke-linecap="butt" stroke-linejoin="miter" stroke-miterlimit="10" stroke-dasharray="" stroke-dashoffset="0" style="mix-blend-mode: normal"><g><path d="M141.5,297v-276h315v276z" fill="none" stroke="none" stroke-width="0"/><path d="M251.96666,271.40295c10.25183,0 18.56259,4.33431 18.56259,9.68096c0,5.34665 -8.31076,9.68097 -18.56259,9.68097c-10.25182,0 -18.56258,-4.33431 -18.56258,-9.68097c0,-5.34665 8.31076,-9.68096 18.56258,-9.68096z" fill-opacity="0.26275" fill="#252673" stroke="none" stroke-width="0"/><g data-paper-data="{&quot;index&quot;:null}" stroke="#252674" stroke-width="2.5"><path d="M244.50666,270.79634c-1.84733,0 -3.34486,-1.49755 -3.34486,-3.34487c0,-1.84733 1.49755,-3.34487 3.34486,-3.34487c1.84733,0 3.34488,1.49755 3.34488,3.34487c0,1.84732 -1.49755,3.34487 -3.34488,3.34487z" fill="#8194ff"/><path d="M248.37622,246.00493c0,0.34327 -0.46828,8.38004 -0.37782,15.21915c0.03106,2.34776 0.24261,4.60353 0.38234,6.28167c0.14388,1.7281 -7.35012,-2.08556 -7.35012,-2.34979c0,-1.23155 2.82583,-20.51205 3.38954,-20.37604c0.58754,0.14175 1.17642,0.62405 1.84045,0.87597c1.0642,0.40374 2.11561,-0.0286 2.11561,0.34905z" fill="#475ac7"/></g><path d="M256.54294,278.59048c-0.70131,1.11953 -4.55473,0.38097 -5.59424,-0.07366c-2.20098,-0.96256 -0.17904,-5.36654 -0.44385,-5.85861c-0.045,-0.08362 2.33846,-1.0346 1.45202,-1.12714c-0.69529,-0.07257 -7.409,-2.8418 -8.41276,-4.74986c-0.71272,-1.3548 0.87346,-10.91385 0.78421,-11.16632c-0.63174,-1.78704 5.84689,-1.76353 6.55697,-2.1964c0,0 -0.19057,9.18966 0.23517,10.14414c0.18593,0.41683 4.47034,1.7926 6.61315,2.95495c1.79965,0.9762 0.63659,9.15598 -1.19066,12.0729z" fill="#b3bfff" stroke="#252674" stroke-width="2.5"/><path d="M255.77792,283.68129c-0.21342,0.00342 -1.13417,1.92846 -4.18759,3.51714c-1.17192,0.60974 -7.17517,-0.25828 -7.84095,-1.17698c-2.57267,-3.55 3.57894,-6.83983 3.62554,-8.07504c0.30636,-8.11924 1.12901,-21.11995 1.48732,-22.96704c0.36096,-1.86073 3.92591,-2.12216 4.75743,-2.1355c0.56153,-0.00901 3.18704,30.82092 2.15824,30.83741z" fill="#b3bfff" stroke="#252674" stroke-width="2.5"/><path d="M249.0953,256.35853c-1.04127,0.06282 -5.11629,-1.72272 -5.14427,-2.08252c-0.05453,-0.70116 1.42963,-5.51131 1.40477,-6.22619c-0.00342,-0.09876 -0.52036,-4.8476 0.057,-7.57192c0.56388,-2.66073 2.2139,-3.29955 2.90066,-3.29955c0.97772,0 1.94273,0.17418 2.80247,0.48428c0.77041,0.27787 2.05345,1.9459 2.02635,2.98889c-0.06121,2.35616 -0.26999,6.16016 -0.28188,6.54209c-0.05187,1.66729 1.12218,6.38353 1.12218,6.78204c0,0.30195 -3.18949,2.28045 -4.88728,2.38288z" fill="#b3bfff" stroke="#252674" stroke-width="2.5"/><path d="M255.18844,212.69835c-0.00254,0.0127 -4.55355,1.46599 -7.05523,1.16272c-2.72892,-0.33083 -4.34209,-1.60383 -4.182,-2.04519c0.48055,-1.3248 4.06044,-11.83442 4.29109,-12.12373c0.67699,-0.8491 2.98471,-1.47191 3.02192,-1.47191c0.5031,0 3.66502,6.44513 3.66502,6.5219c0,0 0.46161,6.94407 0.25921,7.95622z" fill="#8194ff" stroke="#252674" stroke-width="2.5"/><path d="M246.51097,237.48408c0,-1.92703 0.78883,-3.48918 2.76514,-3.48918c1.97631,0 2.76514,1.56216 2.76514,3.48918c0,0.34307 -1.69395,0.76557 -2.89821,0.8548c-1.52311,0.11285 -2.63209,-0.21256 -2.63209,-0.8548z" fill="#b3bfff" stroke="#252674" stroke-width="2.5"/><path d="M236.33456,223.47375c0,-7.29928 5.26661,-13.21651 12.56589,-13.21651c7.29928,0 12.40324,5.91723 12.40324,13.21651c0,7.29928 -5.10396,13.21652 -12.40324,13.21652c-7.29928,0 -12.56589,-5.91724 -12.56589,-13.21652z" fill="#b3bfff" stroke="#252674" stroke-width="2.5"/><path d="M236.46574,223.60492c0,-7.29928 5.26662,-13.21651 12.5659,-13.21651c7.29928,0 12.40324,5.91723 12.40324,13.21651c0,5.05093 -14.65624,10.28871 -14.85354,10.28871c-0.33473,0 -10.11559,-6.05908 -10.11559,-10.28871z" fill="#8194ff" stroke="none" stroke-width="0"/><path d="M236.33456,223.47375c0,-7.29928 5.26661,-13.21651 12.56589,-13.21651c7.29928,0 12.40324,5.91723 12.40324,13.21651c0,7.29928 -5.10396,13.21652 -12.40324,13.21652c-7.29928,0 -12.56589,-5.91724 -12.56589,-13.21652z" fill="none" stroke="#252674" stroke-width="2.5"/><path d="M255.21279,229.47441c0,0.26122 -1.75981,1.90991 -1.88417,2.35329c-0.52636,1.87654 -1.48337,3.59777 -2.70173,3.59777c-1.81407,0 -3.28467,-2.80101 -3.28467,-6.25623c0,-3.45523 1.4706,-6.25624 3.28467,-6.25624c1.58324,0 2.90485,2.13352 3.21555,4.97343c0.02099,0.1919 1.37037,1.35209 1.37037,1.58798z" fill="#252674" stroke="none" stroke-width="NaN"/><path d="M238.62791,228.4968c0.31071,-2.83992 1.63233,-4.97344 3.21556,-4.97344c1.81407,0 3.28466,2.80101 3.28466,6.25623c0,3.45523 -1.4706,6.25624 -3.28466,6.25624c-1.21837,0 -2.17538,-1.72122 -2.70174,-3.59776c-0.12437,-0.44338 -1.88417,-2.09207 -1.88417,-2.35329c0,-0.23589 1.34937,-1.39609 1.37036,-1.58799z" data-paper-data="{&quot;index&quot;:null}" fill="#252674" stroke="none" stroke-width="NaN"/><path d="M254.28721,253.33238c0,0.61454 1.22359,2.34148 2.30561,4.22893c1.4539,2.53614 2.86354,5.36209 2.71466,6.16854c-0.24965,1.35225 -3.16274,0.73011 -3.27938,0.75306c-1.40548,0.27666 -3.77003,3.04778 -4.01991,1.93621c-0.08629,-0.38385 -0.2312,-2.78402 -0.80473,-5.17727c-0.46467,-1.93902 -1.39097,-3.8735 -1.36818,-4.7274c0.10727,-4.01951 0.31544,-7.97468 0.45574,-11.11865c0.20351,-4.56083 0.38552,-7.5359 0.92153,-7.5359c0.46347,0 2.85661,-0.10884 3.44394,2.861c0.31707,1.60328 -0.36928,11.96515 -0.36928,12.61147z" fill="#475ac7" stroke="#252674" stroke-width="2.5"/><path d="M245.01339,240.74202c0.56167,-2.77828 1.33576,-2.51916 1.69112,-2.50501c0.41097,0.01637 -1.13807,2.928 -1.15301,7.22841c-0.0103,2.96445 -0.58145,6.84384 -0.6499,10.63164c-0.05926,3.27928 -0.23121,10.64828 -2.20674,8.03017c-0.30987,-0.41066 0.02681,-1.38035 -0.30203,-1.84284c-0.59978,-0.84352 -2.8966,0.06969 -2.59484,-1.22691c0.58897,-2.53075 3.74697,-8.72546 3.80096,-10.08154c0.02424,-0.60854 1.11123,-8.73405 1.41445,-10.23391z" data-paper-data="{&quot;index&quot;:null}" fill="#475ac7" stroke="#252674" stroke-width="2.5"/><path d="M254.48225,239.18402c1.34021,0 2.03315,1.98109 2.03315,4.26308c0,1.39487 -2.37353,2.7474 -3.32144,1.39362c-0.13992,-0.19981 -0.05193,-5.6567 1.28829,-5.6567z" fill="#8194ff" stroke="#252674" stroke-width="2.5"/><g stroke="#252674" stroke-width="2.5"><path d="M253.49846,266.27093c0,-1.84733 1.49755,-3.34486 3.34487,-3.34486c1.84733,0 3.34487,1.49755 3.34487,3.34486c0,1.84733 -1.49755,3.34487 -3.34487,3.34487c-1.84733,0 -3.34487,-1.49755 -3.34487,-3.34487z" fill="#8194ff"/><path d="M252.97376,244.8244c0,-0.37765 1.05142,0.0547 2.11562,-0.34904c0.66402,-0.25192 1.25291,-0.73422 1.84045,-0.87598c0.56372,-0.13601 3.38955,19.14449 3.38955,20.37605c0,0.26423 -7.494,4.0779 -7.35012,2.3498c0.13973,-1.67813 0.35129,-3.93391 0.38234,-6.28167c0.09046,-6.83911 -0.37782,-14.87589 -0.37782,-15.21915z" fill="#475ac7"/></g></g></g></g></svg>