<svg version="1.1" xmlns="http://www.w3.org/2000/svg" xmlns:xlink="http://www.w3.org/1999/xlink" width="97.88579" height="97.88579" viewBox="0,0,97.88579,97.88579"><g transform="translate(-271.05716,-131.05713)"><g data-paper-data="{&quot;isPaintingLayer&quot;:true}" fill-rule="nonzero" stroke-linecap="butt" stroke-linejoin="miter" stroke-miterlimit="10" stroke-dasharray="" stroke-dashoffset="0" style="mix-blend-mode: normal"><path d="" fill="#8b65ae" stroke="#5c00aa" stroke-width="2.5"/><path d="" fill="#a17cc4" stroke="#5c00aa" stroke-width="2.5"/><path d="" data-paper-data="{&quot;index&quot;:null}" fill="#b867ff" stroke="#5c00aa" stroke-width="2.5"/><path d="" data-paper-data="{&quot;index&quot;:null}" fill="#ffc374" stroke="none" stroke-width="0"/><path d="" data-paper-data="{&quot;index&quot;:null}" fill="none" stroke="#5c00aa" stroke-width="2.5"/><path d="" fill="#a17cc4" stroke="#5c00aa" stroke-width="2.5"/><path d="M368.94295,228.94292h-97.88579v-97.88579h97.88579z" data-paper-data="{&quot;index&quot;:null}" fill="none" stroke="none" stroke-width="0"/><path d="M325.1498,200.68563c-11.0414,0 -19.99222,-8.95082 -19.99222,-19.99222c0,-11.0414 8.95082,-19.99222 19.99222,-19.99222c11.0414,0 18.35957,8.95082 18.35957,19.99222c0,11.0414 -7.31817,19.99222 -18.35957,19.99222z" data-paper-data="{&quot;index&quot;:null}" fill="#ff99ad" stroke="#852235" stroke-width="2.5"/><path d="M325.78794,174.50822c0,-2.06925 2.61253,-3.80608 6.13869,-4.28498c2.27124,-0.30849 3.66158,-0.24581 5.85785,0.41001c2.51214,0.75015 4.21535,2.2042 4.21535,3.87497c0,2.43885 -3.62916,4.41593 -8.10595,4.41593c-4.47679,0 -8.10594,-1.97708 -8.10594,-4.41593z" data-paper-data="{&quot;index&quot;:null}" fill="#852235" stroke="none" stroke-width="0"/><path d="M326.09528,184.95757c0,-2.06925 2.61253,-3.80608 6.13869,-4.28498c2.27124,-0.30849 3.66158,-0.24581 5.85785,0.41001c2.51214,0.75015 4.21535,2.2042 4.21535,3.87497c0,2.43885 -3.62916,4.41593 -8.10595,4.41593c-4.47679,0 -8.10594,-1.97708 -8.10594,-4.41593z" data-paper-data="{&quot;index&quot;:null}" fill="#852235" stroke="none" stroke-width="0"/><path d="M304.60558,180.23984c0,-12.19531 4.04271,-22.08156 9.02964,-22.08156c4.98693,0 9.02964,9.88625 9.02964,22.08156c0,12.19531 -4.04271,22.08156 -9.02964,22.08156c-4.98693,0 -9.02964,-9.88625 -9.02964,-22.08156z" data-paper-data="{&quot;index&quot;:null}" fill="#ae4459" stroke="#852235" stroke-width="2.5"/><path d="M298.65679,180.23984c0,-8.74979 5.24638,-15.84291 11.71813,-15.84291c1.56087,0 4.96463,1.13608 5.76003,4.16033c1.62579,6.18158 1.62266,16.54439 -0.1314,22.35493c-0.78363,2.59587 -4.1352,5.17055 -5.62863,5.17055c-6.47174,0 -11.71813,-7.09311 -11.71813,-15.84291z" data-paper-data="{&quot;index&quot;:null}" fill="#ae4459" stroke="#852235" stroke-width="2.5"/></g></g></svg>