<svg version="1.1" xmlns="http://www.w3.org/2000/svg" xmlns:xlink="http://www.w3.org/1999/xlink" width="244.75848" height="590.83904" viewBox="0,0,244.75848,590.83904"><g transform="translate(-192.80508,304.70663)"><g data-paper-data="{&quot;isPaintingLayer&quot;:true}" fill-rule="nonzero" stroke-linecap="butt" stroke-linejoin="miter" stroke-miterlimit="10" stroke-dasharray="" stroke-dashoffset="0" style="mix-blend-mode: normal"><path d="M286.27216,151.10252v-455.80915h49.87604v455.80915z" fill="#211b1b" stroke="none" stroke-width="0"/><path d="" fill="#ffffff" stroke="none" stroke-width="0"/><path d="" fill="#ffffff" stroke="none" stroke-width="0"/><g><path d="M194.05714,141.59711c20.47688,0 154.18465,0 242.25643,0c2.20386,0 -12.73356,143.2853 -15.04206,143.2853c-14.54693,0 -183.19046,0 -215.33905,0c-2.0287,0 -6.48069,-50.93435 -9.37495,-92.06717c-1.96011,-27.85683 -3.20576,-51.21813 -2.50036,-51.21813z" fill="#787375" stroke="#211b1b" stroke-width="2.5"/><path d="M194.26415,141.38279c-2.06258,0 11.75576,-16.27132 14.25037,-17.16983c3.41444,-1.22981 208.64722,-1.34775 211.38061,-1.34775c3.43931,0 17.96017,18.51758 15.04207,18.51758c-32.0515,0 -224.76278,0 -240.67306,0z" fill="#6e5c60" stroke="#211b1b" stroke-width="2.5"/><path d="M202.16737,150.12349c19.07403,0 143.62168,0 225.65979,0c2.05287,0 -11.8612,131.67203 -14.01155,131.67203c-13.55034,0 -170.64034,0 -200.58649,0c-1.88972,0 -6.03672,-46.80612 -8.73269,-84.60512c-1.82583,-25.59903 -2.98613,-47.0669 -2.32906,-47.0669z" fill="#211b1b" stroke="none" stroke-width="0"/></g><path d="M394.4363,217.04546c0,31.2543 -35.10494,56.59091 -78.40909,56.59091c-43.30415,0 -78.4091,-25.33661 -78.4091,-56.59091c0,-31.2543 35.10495,-56.59091 78.4091,-56.59091c43.30415,0 78.40909,25.33661 78.40909,56.59091z" fill="#ffffff" stroke="none" stroke-width="0"/><path d="M381.70903,219.31818c0,26.36232 -29.61026,47.7332 -66.13636,47.7332c-36.5261,0 -66.13637,-21.37088 -66.13637,-47.7332c0,-26.36232 29.61027,-47.7332 66.13637,-47.7332c36.5261,0 66.13636,21.37088 66.13636,47.7332z" fill="#211b1b" stroke="none" stroke-width="0"/><path d="M345.32374,265.06249l-85.81139,-76.86561l24.03651,-17.35028l81.9946,83.58253z" data-paper-data="{&quot;index&quot;:null}" fill="#ffffff" stroke="none" stroke-width="0"/></g></g></svg>