<svg version="1.1" xmlns="http://www.w3.org/2000/svg" xmlns:xlink="http://www.w3.org/1999/xlink" width="79.07803" height="145.01256" viewBox="0,0,79.07803,145.01256"><defs><linearGradient x1="320.00005" y1="180.00011" x2="320.00005" y2="180.00011" gradientUnits="userSpaceOnUse" id="color-1"><stop offset="0" stop-color="#67497d"/><stop offset="1" stop-color="#553783"/></linearGradient><linearGradient x1="320.00005" y1="180.00009" x2="320.00005" y2="180.00009" gradientUnits="userSpaceOnUse" id="color-2"><stop offset="0" stop-color="#67497d"/><stop offset="1" stop-color="#553783"/></linearGradient><linearGradient x1="320.00005" y1="180.00011" x2="320.00005" y2="180.00011" gradientUnits="userSpaceOnUse" id="color-3"><stop offset="0" stop-color="#67497d"/><stop offset="1" stop-color="#553783"/></linearGradient></defs><g transform="translate(-378.03286,-149.61646)"><g data-paper-data="{&quot;isPaintingLayer&quot;:true}" fill-rule="nonzero" stroke-linejoin="miter" stroke-miterlimit="10" stroke-dasharray="" stroke-dashoffset="0" style="mix-blend-mode: normal"><path d="" fill="#5c3160" stroke="#5f0d63" stroke-width="2.5" stroke-linecap="butt"/><path d="" fill="none" stroke="#5f0d63" stroke-width="2.5" stroke-linecap="round"/><path d="" data-paper-data="{&quot;index&quot;:null}" fill="#5c3160" stroke="#5f0d63" stroke-width="2.5" stroke-linecap="butt"/><path d="" data-paper-data="{&quot;index&quot;:null}" fill="none" stroke="#5f0d63" stroke-width="2.5" stroke-linecap="round"/><path d="" data-paper-data="{&quot;index&quot;:null}" fill="#9468de" stroke="#541287" stroke-width="2.5" stroke-linecap="butt"/><path d="" fill="#ffffff" stroke="#3e0e6c" stroke-width="2.5" stroke-linecap="butt"/><path d="" fill="#ffffff" stroke="#3e0e6c" stroke-width="2.5" stroke-linecap="butt"/><path d="" fill="#3e0e6c" stroke="none" stroke-width="0" stroke-linecap="butt"/><path d="" data-paper-data="{&quot;index&quot;:null}" fill="#54002b" stroke="none" stroke-width="0" stroke-linecap="butt"/><path d="" fill="#54002b" stroke="none" stroke-width="0" stroke-linecap="butt"/><path d="" data-paper-data="{&quot;index&quot;:null}" fill="#54002b" stroke="none" stroke-width="0" stroke-linecap="butt"/><path d="" fill="#ff5971" stroke="#54002b" stroke-width="2.5" stroke-linecap="butt"/><g data-paper-data="{&quot;index&quot;:null}" stroke="#541287" stroke-width="2.5" stroke-linecap="butt"><path d="" fill="#e5c2ff"/><path d="" fill="#9951b7"/></g><path d="" fill="#725580" stroke="#541287" stroke-width="2.5" stroke-linecap="butt"/><path d="" fill="#6d3e90" stroke="none" stroke-width="0" stroke-linecap="butt"/><path d="" fill="#725580" stroke="none" stroke-width="0" stroke-linecap="butt"/><path d="" fill="#9857ca" stroke="none" stroke-width="0" stroke-linecap="butt"/><path d="" fill="none" stroke="#541287" stroke-width="2.5" stroke-linecap="butt"/><path d="" fill="#9468de" stroke="#541287" stroke-width="2.5" stroke-linecap="butt"/><path d="" fill="#e5c2ff" stroke="#541287" stroke-width="2.5" stroke-linecap="butt"/><g stroke-linecap="butt"><g stroke="#541287" stroke-width="2.5"><path d="" fill="#9d7bb5"/><path d="" fill="#9d7bb5"/><path d="" fill="url(#color-1)"/></g><path d="" fill="#541287" stroke="none" stroke-width="0"/><path d="" fill="#ca80ff" stroke="#541287" stroke-width="2.5"/></g><g stroke="#541287" stroke-width="2.5" stroke-linecap="butt"><path d="" fill="#e5c2ff"/><path d="" fill="#9951b7"/></g><path d="" fill="#ff8dae" stroke="#54002b" stroke-width="2.5" stroke-linecap="butt"/><path d="" data-paper-data="{&quot;index&quot;:null}" fill="#ff8dae" stroke="#54002b" stroke-width="2.5" stroke-linecap="butt"/><path d="" fill="#ff8dae" stroke="#54002b" stroke-width="2.5" stroke-linecap="butt"/><g data-paper-data="{&quot;index&quot;:null}" fill="#54002b" stroke="none" stroke-width="0" stroke-linecap="butt"><path d=""/><path d=""/></g><g data-paper-data="{&quot;index&quot;:null}" fill="#54002b" stroke="none" stroke-width="0" stroke-linecap="butt"><path d=""/><path d=""/></g><path d="" fill="#54002b" stroke="none" stroke-width="0" stroke-linecap="butt"/><path d="" fill="none" stroke="#54002b" stroke-width="2.5" stroke-linecap="round"/><path d="" fill="none" stroke="none" stroke-width="NaN" stroke-linecap="butt"/><g data-paper-data="{&quot;index&quot;:null}" stroke="#541287" stroke-width="2.5" stroke-linecap="butt"><path d="" fill="#e5c2ff"/><path d="" fill="#9951b7"/></g><path d="" fill="#725580" stroke="#541287" stroke-width="2.5" stroke-linecap="butt"/><path d="" fill="#6d3e90" stroke="none" stroke-width="0" stroke-linecap="butt"/><path d="" fill="#725580" stroke="none" stroke-width="0" stroke-linecap="butt"/><path d="" fill="#9857ca" stroke="none" stroke-width="0" stroke-linecap="butt"/><path d="" fill="none" stroke="#541287" stroke-width="2.5" stroke-linecap="butt"/><path d="" fill="#9468de" stroke="#541287" stroke-width="2.5" stroke-linecap="butt"/><path d="" fill="#e5c2ff" stroke="#541287" stroke-width="2.5" stroke-linecap="butt"/><g stroke-linecap="butt"><g stroke="#541287" stroke-width="2.5"><path d="" fill="#9d7bb5"/><path d="" fill="#9d7bb5"/><path d="" fill="url(#color-2)"/></g><path d="" fill="#541287" stroke="none" stroke-width="0"/><path d="" fill="#ca80ff" stroke="#541287" stroke-width="2.5"/></g><g stroke="#541287" stroke-width="2.5" stroke-linecap="butt"><path d="" fill="#e5c2ff"/><path d="" fill="#9951b7"/></g><path d="" fill="#5c3160" stroke="#5f0d63" stroke-width="2.5" stroke-linecap="butt"/><path d="" fill="none" stroke="#5f0d63" stroke-width="2.5" stroke-linecap="round"/><path d="" data-paper-data="{&quot;index&quot;:null}" fill="#54002b" stroke="none" stroke-width="0" stroke-linecap="butt"/><path d="" fill="#54002b" stroke="none" stroke-width="0" stroke-linecap="butt"/><path d="" data-paper-data="{&quot;index&quot;:null}" fill="#54002b" stroke="none" stroke-width="0" stroke-linecap="butt"/><path d="" fill="#ff5971" stroke="#54002b" stroke-width="2.5" stroke-linecap="butt"/><g data-paper-data="{&quot;index&quot;:null}" stroke="#541287" stroke-width="2.5" stroke-linecap="butt"><path d="" fill="#e5c2ff"/><path d="" fill="#9951b7"/></g><path d="" fill="#725580" stroke="#541287" stroke-width="2.5" stroke-linecap="butt"/><path d="" fill="#6d3e90" stroke="none" stroke-width="0" stroke-linecap="butt"/><path d="" fill="#725580" stroke="none" stroke-width="0" stroke-linecap="butt"/><path d="" fill="#9857ca" stroke="none" stroke-width="0" stroke-linecap="butt"/><path d="" fill="none" stroke="#541287" stroke-width="2.5" stroke-linecap="butt"/><path d="" fill="#9468de" stroke="#541287" stroke-width="2.5" stroke-linecap="butt"/><path d="" fill="#e5c2ff" stroke="#541287" stroke-width="2.5" stroke-linecap="butt"/><g stroke-linecap="butt"><g stroke="#541287" stroke-width="2.5"><path d="" fill="#9d7bb5"/><path d="" fill="#9d7bb5"/><path d="" fill="url(#color-3)"/></g><path d="" fill="#541287" stroke="none" stroke-width="0"/><path d="" fill="#ca80ff" stroke="#541287" stroke-width="2.5"/></g><g stroke="#541287" stroke-width="2.5" stroke-linecap="butt"><path d="" fill="#e5c2ff"/><path d="" fill="#9951b7"/></g><path d="" fill="#ff8dae" stroke="#54002b" stroke-width="2.5" stroke-linecap="butt"/><path d="" data-paper-data="{&quot;index&quot;:null}" fill="#ff8dae" stroke="#54002b" stroke-width="2.5" stroke-linecap="butt"/><path d="" fill="#ff8dae" stroke="#54002b" stroke-width="2.5" stroke-linecap="butt"/><g data-paper-data="{&quot;index&quot;:null}" fill="#54002b" stroke="none" stroke-width="0" stroke-linecap="butt"><path d=""/><path d=""/></g><g data-paper-data="{&quot;index&quot;:null}" fill="#54002b" stroke="none" stroke-width="0" stroke-linecap="butt"><path d=""/><path d=""/></g><path d="" fill="#54002b" stroke="none" stroke-width="0" stroke-linecap="butt"/><path d="" fill="none" stroke="#54002b" stroke-width="2.5" stroke-linecap="round"/><path d="" fill="none" stroke="none" stroke-width="NaN" stroke-linecap="butt"/><path d="" fill="#5c3160" stroke="#5f0d63" stroke-width="2.5" stroke-linecap="butt"/><path d="" fill="none" stroke="#5f0d63" stroke-width="2.5" stroke-linecap="round"/><path d="" data-paper-data="{&quot;index&quot;:null}" fill="#5c3160" stroke="#5f0d63" stroke-width="2.5" stroke-linecap="butt"/><path d="" data-paper-data="{&quot;index&quot;:null}" fill="none" stroke="#5f0d63" stroke-width="2.5" stroke-linecap="round"/><path d="" data-paper-data="{&quot;index&quot;:null}" fill="#9468de" stroke="#541287" stroke-width="2.5" stroke-linecap="butt"/><g stroke="#176e4a"><path d="M390.44014,257.64753c-3.77873,0.28747 -1.19268,-8.40567 0.53149,-18.23349c1.75118,-9.98169 2.67083,-21.11034 2.65434,-22.11044c-0.04555,-2.76241 27.60707,-15.99863 27.60707,-15.99863l16.07498,-0.26507l8.3114,16.47828c0,0 0.87823,12.9525 -0.20573,25.74979c-0.34549,4.0789 -0.4401,8.59945 -0.79345,12.0758c-0.62478,6.14686 -3.92293,10.88888 -3.95602,11.03036c-0.0647,0.2766 -0.8909,0.45543 -1.40833,0.53381c-1.73169,0.26229 -2.42036,-1.85441 -7.42826,-3.1146c-1.03944,-0.26157 -6.98795,2.38917 -8.09965,2.10394c-1.62881,-0.41791 -5.41644,-3.71018 -7.09927,-4.23348c-2.17209,-0.67545 -8.41263,0.02964 -10.4437,-0.59241c-2.15733,-0.66073 -4.5357,-2.89791 -6.09599,-3.57396c-2.36626,-1.02527 -9.21066,0.11677 -9.6489,0.15011z" fill="#9f697a" stroke-width="2.5" stroke-linecap="butt"/><path d="M428.67584,242.86451c-0.87843,8.53629 -7.00363,14.03748 -15.89314,13.12271c-8.88951,-0.91478 -15.38377,-8.57638 -14.50534,-17.11266c0.87843,-8.53629 8.79691,-14.71474 17.68642,-13.79996c3.978,0.40936 8.33532,0.10368 10.90799,2.68895c3.17638,3.19194 2.28942,10.38463 1.80408,15.10097z" fill="#c17c6c" stroke-width="2.5" stroke-linecap="butt"/><path d="M392.49298,238.87053c-0.46232,0.30486 -2.14739,-7.97497 -1.63585,-16.96123c0.90356,-15.87275 4.96255,-36.74659 8.30625,-36.38687c7.58929,0.81648 8.06152,24.16531 7.99251,24.80677c-0.19583,1.82021 -1.00569,5.30234 -1.55581,9.13742c-0.97725,6.81267 -1.9388,14.65263 -2.9137,15.65228c-0.71593,0.73411 -3.47969,-0.74437 -6.07494,-2.62309c-0.54151,-0.392 -2.04648,5.0084 -4.11848,6.37472z" data-paper-data="{&quot;index&quot;:null}" fill="#b9818a" stroke-width="2.5" stroke-linecap="butt"/><path d="M384.3638,248.02214c0.1019,-0.99032 10.57183,-6.70282 13.02075,-9.74642c0.36523,-0.45392 5.24146,-9.39491 9.18843,-15.25072c1.47721,-2.19161 4.63133,-3.46805 4.76168,-3.45464c2.14814,0.22105 9.1084,3.01556 10.89576,4.50221c1.1332,0.94255 2.09427,2.26629 2.51126,3.80762c0.98623,3.64541 -5.28186,17.09627 -5.71423,18.44154c-0.36826,1.14579 -0.09642,8.95618 -0.20864,10.04676c-0.45176,4.39006 -34.90677,-3.95631 -34.45501,-8.34636z" fill="#ffbdb7" stroke-width="2.5" stroke-linecap="butt"/><path d="M447.91554,252.36439c-2.75807,1.63031 -5.64687,2.8465 -6.29174,2.04925c-0.87813,-1.08563 -1.10954,-8.98095 -1.45171,-15.85484c-0.19262,-3.86955 -0.67654,-7.41171 -0.70296,-9.24223c-0.00931,-0.64509 2.6231,-23.84987 10.25539,-23.96004c3.36264,-0.04853 5.47118,21.1115 4.90097,36.99971c-0.32281,8.99502 -2.76739,17.08324 -3.1995,16.73687c-1.93656,-1.55232 -2.93496,-7.06889 -3.51045,-6.72872z" fill="#b9818a" stroke-width="2.5" stroke-linecap="butt"/><path d="M393.59259,188.8581c3.96004,-16.76111 20.75786,-27.13844 37.51896,-23.1784c16.76111,3.96004 27.13843,20.75786 23.17839,37.51896c-3.96004,16.76111 -20.75786,27.13843 -37.51896,23.17839c-16.76111,-3.96004 -27.13843,-20.75785 -23.17839,-37.51896z" fill="#acffcf" stroke-width="2.5" stroke-linecap="butt"/><path d="M396.45465,180.78486c0.4366,-4.24281 23.57961,3.49733 36.30805,4.80716c12.72844,1.30982 22.69294,5.81112 22.25633,10.05393c-0.07988,0.77622 0.24807,3.79352 -0.18178,6.42204c-0.33768,2.06495 -1.30629,3.87315 -2.20474,4.27986c-0.61854,0.27999 -2.73608,-5.12357 -4.55928,-6.26609c-0.88686,-0.55576 1.0111,2.43926 0.01333,2.11809c-0.28709,-0.0924 -14.75825,0.88084 -16.18498,1.72545c-0.33997,0.20126 1.00199,-2.79149 -0.71998,-2.96869c-1.34368,-0.13827 -9.79071,-3.00791 -15.26283,-5.35571c-5.54868,-2.38065 -8.1363,-4.24729 -11.41766,-5.47792c-4.94544,-1.85472 0.68563,1.87548 -0.86205,1.35694c-0.55303,-0.18529 -8.35046,1.22936 -11.60845,-0.71812c-1.48067,-0.88508 5.88968,-3.89281 4.50851,-4.53014c-2.81711,-1.29994 -3.64076,0.35568 -3.78667,0.10784c-0.15169,-0.25764 1.22525,-1.02197 1.92336,-1.9849c1.09267,-1.50717 1.75865,-3.37365 1.77883,-3.56973z" fill="#b9818a" stroke-width="2.5" stroke-linecap="butt"/><path d="M428.59487,161.36488c0.66115,-6.42483 6.40547,-11.09721 12.8303,-10.43607c6.42483,0.66115 11.09721,6.40547 10.43606,12.8303c-0.66115,6.42483 -6.40547,11.09721 -12.8303,10.43606c-6.42483,-0.66115 -11.09722,-6.40547 -10.43607,-12.8303z" fill="#ff96d4" stroke-width="2.5" stroke-linecap="butt"/><path d="M395.90018,181.43714c0.66826,-1.69955 0.4209,-3.2842 1.42443,-4.86425c1.43912,-2.26588 3.49899,-3.02777 5.49398,-4.9556c8.23773,-7.96038 26.5005,-12.89956 34.93159,-10.0938c9.15791,3.04763 15.22703,10.24105 18.11071,20.36009c0.60364,2.11821 1.03458,4.29227 0.88296,6.80712c-0.11078,1.8376 -2.39461,9.47396 -2.39258,11.05883c0.00167,1.30196 -1.23134,-1.46575 -6.6426,-2.71621c-4.50952,-1.04209 -12.52227,-0.30249 -19.5254,-2.07143c-14.82019,-3.74344 -32.82295,-12.15177 -32.28309,-13.52475z" fill="#96a5ff" stroke-width="2.5" stroke-linecap="butt"/><path d="M404.59801,226.9807l18.29302,3.84973" fill="none" stroke-width="2.5" stroke-linecap="round"/><path d="M421.40746,238.87476l-21.44673,-1.8791" fill="none" stroke-width="2.5" stroke-linecap="round"/><path d="M389.8079,246.44305l27.32011,2.15563" fill="none" stroke-width="2.5" stroke-linecap="round"/><g fill="#176e4a" stroke-width="0" stroke-linecap="butt"><path d="M436.9093,207.52313c-2.42081,9.72475 -5.76689,17.01279 -9.8787,15.98923c-4.11181,-1.02356 -3.4143,-8.97092 -0.99349,-18.69567c2.42081,-9.72475 5.64822,-17.54433 9.76002,-16.52076c4.11181,1.02356 3.53298,9.50245 1.11217,19.2272z"/><path d="M441.04597,209.05487c-0.5635,2.26365 -5.7878,6.96766 -6.57986,6.77049c-1.7622,-0.43867 -2.36099,-4.12756 -1.33742,-8.23937c1.02356,-4.11181 3.28187,-7.08948 5.04407,-6.65081c0.89605,0.22305 3.37632,6.09865 2.87321,8.11968z"/></g><g data-paper-data="{&quot;index&quot;:null}" fill="#176e4a" stroke-width="0" stroke-linecap="butt"><path d="M418.5866,185.20814c4.04119,1.27414 2.71046,9.62825 -0.30299,19.18598c-3.01345,9.55773 -6.56849,16.69977 -10.60967,15.42562c-4.04119,-1.27414 -3.08923,-9.23691 -0.07579,-18.79464c3.01345,-9.55773 6.94726,-17.09111 10.98844,-15.81696z"/><path d="M409.96068,194.74692c1.73194,0.54606 2.10305,4.26477 0.82891,8.30596c-1.27414,4.04119 -3.71105,6.87455 -5.44299,6.32848c-0.77846,-0.24544 -2.77765,-6.98519 -2.07619,-9.20997c0.62628,-1.98634 5.80962,-5.70212 6.69027,-5.42446z"/></g><path d="M418.62715,255.95961c-0.12326,1.04888 3.27776,5.31323 -2.71154,6.96201c-3.48189,0.95852 -11.74176,3.63583 -9.87867,8.39655c2.25766,5.76893 9.26816,4.40171 10.42886,8.7647c2.16049,5.52246 -6.83772,11.05765 -17.46591,13.29615c-9.23846,1.9458 -19.02421,1.59157 -19.71703,1.51015c-0.07812,-0.00918 22.65428,-5.33841 15.97539,-10.71315c-5.24032,-4.21707 -13.26703,-16.90207 -13.32919,-17.20257c-1.90143,-9.19193 -2.45581,-15.1835 1.89478,-18.49825c3.06722,-2.33695 35.04204,5.45295 34.80331,7.48441z" fill="#bcc6ff" stroke-width="2.5" stroke-linecap="butt"/></g></g></g></svg>