<svg version="1.1" xmlns="http://www.w3.org/2000/svg" xmlns:xlink="http://www.w3.org/1999/xlink" width="412.1195" height="141.84877" viewBox="0,0,412.1195,141.84877"><defs><linearGradient x1="334.40684" y1="234.35356" x2="333.94173" y2="238.69675" gradientUnits="userSpaceOnUse" id="color-1"><stop offset="0" stop-color="#ffffff"/><stop offset="1" stop-color="#ffffff" stop-opacity="0"/></linearGradient><linearGradient x1="341.91534" y1="236.41812" x2="341.7213" y2="240.78183" gradientUnits="userSpaceOnUse" id="color-2"><stop offset="0" stop-color="#ffffff"/><stop offset="1" stop-color="#ffffff" stop-opacity="0"/></linearGradient></defs><g transform="translate(-21.74431,-116.97539)"><g data-paper-data="{&quot;isPaintingLayer&quot;:true}" fill-rule="nonzero" stroke-linejoin="miter" stroke-miterlimit="10" stroke-dasharray="" stroke-dashoffset="0" style="mix-blend-mode: normal"><g stroke="#873000" stroke-width="2.5" stroke-linecap="butt"><path d="M410.2669,190.07391c2.59296,-2.13277 -0.25231,11.37869 -0.71494,13.92303c-1.29422,7.11779 -3.78526,11.96938 -6.43835,11.34301c-2.65308,-0.62636 -2.71927,-4.92546 -1.42505,-12.04325c0.00822,-0.04523 5.90357,-13.94186 8.57834,-13.22279z" data-paper-data="{&quot;index&quot;:null}" fill="#bf8e63"/><path d="M407.94632,201.58959c0.00956,0.10254 -0.58285,3.59394 -0.56671,4.0559c0.0401,1.14782 2.68716,-3.57137 2.37555,-1.61872c-0.77116,4.83234 -2.32232,11.40603 -2.32232,11.40603c-2.04642,4.53483 -15.80925,2.40492 -14.24978,0.42443c1.28956,-1.63771 2.67173,-3.45319 3.99713,-5.34212c0.96443,-1.37445 2.02475,-4.85974 3.40051,-7.09444c0.1373,-0.22302 1.58236,-2.14679 1.95318,-1.52378c0.50402,0.84679 0.03571,3.92042 0.22759,3.60788c2.45735,-4.00248 5.07973,-5.04319 5.18485,-3.91518z" data-paper-data="{&quot;index&quot;:null}" fill="#ae6947"/></g><g stroke-linecap="butt"><g stroke="#872900" stroke-width="2.5"><g><path d="M31.94278,224.4815c-0.511,-0.47609 -5.78555,-2.39706 -6.49927,-4.44389c-1.1785,-3.37976 -1.5376,-29.19148 -1.5376,-31.44842c0,-2.75833 33.30585,-5.44622 33.30585,-5.44622l105.21235,9.53233c0,0 7.3592,-1.86284 7.3592,2.90465c0,2.29083 1.08924,34.57235 1.08924,38.48657c0,0.76291 -5.32887,3.87893 -7.11015,4.2911c-2.2097,0.51129 -9.16548,-1.93011 -9.3824,-3.68084c-0.14465,-1.1674 -1.0483,-14.20245 -2.24166,-14.94412c-1.83412,-1.13991 -14.05291,5.41502 -16.13097,6.05276c-0.7767,0.23836 0.80666,22.78572 0.35706,23.40746c-2.24285,3.10154 -14.10587,8.33908 -14.71426,8.38128c-0.42056,0.02917 -8.66782,-1.92964 -17.91872,-6.18482c-1.27165,-0.58492 -2.22137,-23.70761 -3.56579,-24.3407c-14.02939,-6.60648 -37.43922,-10.41354 -52.23835,-15.08841c-0.53448,-0.16884 -0.45845,4.42363 -0.67368,8.52875c-0.12933,2.4667 -15.06208,4.22428 -15.31084,3.99251z" fill="#8e5538"/><path d="M24.25703,186.77396c-0.14667,-10.11683 -1.26271,-37.34978 -1.26271,-40.98933c0,-1.79693 6.80247,-3.44296 11.82912,-3.44296c5.7852,0 29.89424,0 41.1147,0c4.53998,0 12.77436,48.20149 12.77436,48.20149c0,0 -64.42148,-1.42518 -64.45546,-3.76919z" fill="#8e5538"/><path d="M30.4294,186.77396c-0.14668,-10.11683 -1.26271,-37.34978 -1.26271,-40.98933c0,-1.79693 6.80247,-3.44296 11.82912,-3.44296c5.7852,0 37.05828,0 48.27873,0c4.53998,0 5.61033,48.20149 5.61033,48.20149c0,0 -64.42148,-1.42518 -64.45546,-3.76919z" fill="#8e5538"/><path d="M31.81391,191.62533c-2.39084,-2.28956 -1.58642,-9.88816 -1.61082,-10.65323c-0.0248,-0.77739 63.27878,-2.31182 65.48514,-2.28923c42.02169,0.43033 71.70933,2.73765 72.27129,3.68858c1.59123,2.69264 0.42857,12.13922 0.42857,13.30193c0,0.62637 -50.34466,16.81459 -50.34466,16.81459c0,0 -82.99593,-17.76605 -86.22951,-20.86264z" fill="#c79982"/></g><path d="M36.32549,179.47487c-1.97448,-6.35732 -4.69195,-20.43017 -3.31081,-21.26612c1.3549,-0.82007 3.44474,-4.33898 6.02829,-4.87742c15.14622,-3.15663 53.79117,-1.94341 54.27136,-1.86847c10.16215,1.58578 12.85381,18.29782 12.85381,27.27045c0,2.98008 -60.95663,6.01642 -62.94818,3.9592c-0.65269,-0.67421 -6.33713,-1.42314 -6.89447,-3.21765z" fill="#ffece3"/></g><path d="M107.76426,170.26669c3.37238,0 9.67093,1.97238 10.96653,3.32135c0.18487,0.19248 -5.249,6.40101 -10.96653,6.40101c-5.71754,0 -10.35251,-2.17643 -10.35251,-4.86118c0,-0.34036 9.22818,-4.86118 10.35251,-4.86118z" fill="#9e4018" stroke="#872900" stroke-width="2.5"/><path d="M91.70637,178.94753c1.20684,-1.30205 6.36477,-6.59935 7.50709,-6.5504c0.93044,0.03987 6.37553,1.60674 11.40275,2.60733c4.62282,0.9201 12.9851,2.60405 12.92324,2.71509c-0.17861,0.32062 -16.76293,13.8408 -18.27925,14.26146c-0.42524,0.11797 -13.71117,-12.86374 -13.55384,-13.03348z" fill="#9e4018" stroke="#872900" stroke-width="2.5"/><path d="M98.94437,173.29033c-0.4832,0.40741 -1.73074,2.04649 -3.14073,3.26358c-0.90687,0.7828 -2.19764,1.39103 -2.34449,1.38471c-0.56708,-0.01208 -4.03004,-3.35446 -4.29484,-4.13896c-1.10958,-3.28719 1.72376,-4.80526 3.56973,-4.80526c1.71985,0 0.99631,-1.43745 2.52065,-1.02291c1.03667,0.28192 4.3213,4.78631 3.68968,5.31884z" fill="#9e7a50" stroke="#872900" stroke-width="2.5"/><path d="M92.4609,179.46727c0,-0.08235 4.90198,2.79402 6.64226,5.77659c0.04292,0.07356 3.39988,9.86313 2.70368,11.25648c-2.23363,4.47033 -22.68917,-3.44397 -22.69303,-3.7315c-0.04518,-3.36767 13.34709,-12.48646 13.34709,-13.30156z" fill="#9e4018" stroke="#872900" stroke-width="2.5"/><g stroke="#872900" stroke-width="2.5"><path d="M92.33889,132.0725c5.32918,5.42397 6.47994,12.93499 2.57027,16.77633c-3.90967,3.84134 -16.68051,-3.81405 -22.0097,-9.23802c-0.81798,-0.83253 -1.67848,-6.93465 -3.90411,-12.06243c-2.2206,-5.11619 -5.80734,-9.25893 -5.74214,-9.32299c0.1613,-0.15848 7.2082,0.23754 13.89812,2.96636c6.61477,2.69817 12.75541,8.40536 15.18755,10.88076z" data-paper-data="{&quot;index&quot;:null}" fill="#ff8800"/><path d="M61.4991,170.37974c-8.42404,-10.01483 -7.13447,-24.96248 2.88036,-33.38653c10.01483,-8.42405 24.96249,-7.13447 33.38653,2.88036c8.42405,10.01483 7.13447,24.96249 -2.88036,33.38654c-10.01483,8.42405 -24.96249,7.13446 -33.38653,-2.88037z" fill="#9e7a50"/><path d="M45.49619,149.27993c-1.54271,-7.05844 -0.72595,-14.06903 -0.54218,-14.20081c0.07429,-0.05326 3.54151,4.19001 8.20177,7.25405c4.67083,3.07099 10.5354,4.96389 11.21553,5.91238c4.43109,6.1794 9.78609,20.0727 5.3319,23.26668c-4.4542,3.19398 -11.65714,0.77381 -16.08823,-5.4056c-2.02226,-2.82017 -6.59341,-9.84755 -8.11879,-16.8267z" fill="#ff8800"/></g><path d="M119.707,181.89668c0,-0.13456 11.41103,-6.11475 18.61496,-9.5596c0.39424,-0.18852 3.96915,-1.776 5.22356,-0.00526c2.81516,3.97391 4.15121,13.63253 4.05567,14.29603c-0.44811,3.11194 -4.8486,4.33608 -4.8486,4.45105c0,1.41655 -23.04559,-2.94226 -23.04559,-9.18223z" fill="#814e2b" stroke="#872900" stroke-width="2.5"/><path d="M106.45244,191.51186c0,-0.32343 13.29868,-12.45637 13.92411,-12.29098c0.02801,0.0074 8.80303,-4.88749 10.13514,-2.14072c2.30547,4.7538 2.85576,15.76265 3.56445,19.82794c0.45928,2.6346 -7.86991,4.28294 -7.86991,4.58317c0,0.66122 -9.69759,-3.48076 -15.50336,-6.73617c-2.48038,-1.39081 -4.25042,-2.61978 -4.25042,-3.24326z" fill="#814e2b" stroke="#872900" stroke-width="2.5"/><path d="M99.22813,180.4028c0.02287,-0.56345 0.6006,-0.9975 1.29039,-0.9695c0.68979,0.028 1.23042,0.50746 1.20755,1.07091c-0.02287,0.56345 -0.6006,0.99751 -1.29039,0.96951c-0.68979,-0.028 -1.23042,-0.50746 -1.20755,-1.07091z" fill="#ff8800" stroke="none" stroke-width="0.5"/><path d="M102.9302,176.15949c0.02287,-0.56345 0.60061,-0.99751 1.29039,-0.96951c0.68979,0.028 1.23042,0.50746 1.20755,1.07091c-0.02287,0.56345 -0.6006,0.99751 -1.29039,0.96951c-0.68979,-0.028 -1.23043,-0.50746 -1.20756,-1.07091z" fill="#ff8800" stroke="none" stroke-width="0.5"/><path d="M107.10244,179.84149l0.31437,0.17638c2.29805,0.88357 2.83141,-1.47435 1.45427,-2.31292l-0.118,0.15762c-0.614,0.66312 -1.23959,1.28367 -1.85468,1.90046c0.1262,0.0397 0.20404,0.07845 0.20404,0.07845zM109.14438,175.56898c4.97059,1.79981 3.09496,7.93472 -2.5891,6.35472l-0.72718,-0.34221c0,0 -0.21469,-0.10689 -0.39531,-0.30279c-0.57115,0.62281 -1.11509,1.2722 -1.61109,1.98459c0,0 -0.61415,0.88119 -1.70248,0.36456c-1.08832,-0.51663 -0.47418,-1.39781 -0.47418,-1.39781c1.47132,-2.10899 3.3324,-3.70122 5.106,-5.61725l0.23466,-0.33183c0,0 0.29064,-0.39684 0.81052,-0.48959c0.52017,-0.48205 1.34815,-0.22239 1.34815,-0.22239z" fill="#ff8800" stroke="none" stroke-width="0.5"/><path d="M92.47736,157.56764c0,1.27273 -10.4901,14.84224 -11.54397,14.84224c-1.66086,0 -8.63372,-3.40513 -8.63372,-6.88757c0,-0.45692 11.35412,-14.55248 13.01622,-14.25196c2.7964,0.50561 7.16147,4.11309 7.16147,6.2973z" fill="#872900" stroke="none" stroke-width="0"/><path d="M89.27609,146.79188c0,-0.92238 5.54269,-9.30142 6.59655,-9.30142c1.66086,0 4.36537,3.63188 4.36537,6.1557c0,0.33113 -3.10842,8.50938 -4.77053,8.29159c-2.7964,-0.36643 -6.19139,-3.56291 -6.19139,-5.14586z" data-paper-data="{&quot;index&quot;:null}" fill="#872900" stroke="none" stroke-width="0"/></g><g><g stroke-linecap="butt"><path d="M225.67421,202.2991c-3.20137,-5.79905 3.16241,-22.42471 -0.20716,-30.28846c-4.08218,-9.76887 -22.05373,-8.41825 -18.58923,-16.4932c2.9263,-4.17685 21.83594,5.7109 25.01724,13.71461c3.78694,9.48173 -1.10927,25.41958 1.2521,30.25546c8.46879,11.54094 22.24442,11.73331 21.73768,11.73331c-0.24766,0 -2.65967,9.40611 -7.22843,7.15291c-5.85971,-2.88986 -17.45243,-5.70349 -21.98219,-16.07464z" fill="#8e41f3" stroke="none" stroke-width="0"/><path d="M225.36407,191.61643c0.31189,-2.5983 0.7222,-5.35541 0.99753,-8.03439c0.10231,-0.99545 3.49104,-9.68 2.1662,-13.1918c-0.75779,-2.39653 -2.48561,-5.36542 -4.47828,-5.95836c-3.67813,-1.09446 -7.5978,0.10303 -8.21487,-0.16034c-5.54411,-2.36622 -10.79397,-3.87246 -8.77677,-8.57406c2.92629,-4.17684 21.83594,5.7109 25.01724,13.71462c3.08319,7.71967 0.41065,19.71885 0.58523,26.52185c0.01139,0.44405 -1.41502,-0.92229 -3.44374,-2.17675c-1.58628,-0.98087 -3.89063,-1.82337 -3.85253,-2.14077z" fill="#f5b83d" stroke="none" stroke-width="0"/><path d="M236.90658,209.65661c-1.74635,-2.05543 -1.98713,-5.18824 -2.79146,-7.00071c0.44851,-0.14377 0.8709,-0.30618 1.28328,-0.48755c8.46148,9.06901 20.13368,9.23251 19.6665,9.23251c-0.24766,0 -2.65967,9.4061 -7.22843,7.15291c-2.05502,-1.01349 -8.00377,-5.45317 -10.92989,-8.89716z" fill="#f5b83d" stroke="none" stroke-width="0"/><path d="M225.67421,202.2991c-3.20137,-5.79905 3.16241,-22.42471 -0.20716,-30.28846c-4.08218,-9.76887 -22.05373,-8.41825 -18.58923,-16.4932c2.9263,-4.17685 21.83594,5.7109 25.01724,13.71461c3.78694,9.48173 -1.10927,25.41958 1.2521,30.25546c8.46879,11.54094 22.24442,11.73331 21.73768,11.73331c-0.24766,0 -2.65967,9.40611 -7.22843,7.15291c-5.85971,-2.88986 -17.45243,-5.70349 -21.98219,-16.07464z" fill="none" stroke="#4c0086" stroke-width="2.5"/></g><path d="M251.98344,221.42295c-0.71355,-2.43986 -0.57904,-16.92801 1.06244,-21.78819c1.19925,-3.55077 8.89952,13.75102 12.08535,19.69874c1.06117,1.98113 -11.82735,6.60444 -13.14779,2.08946z" data-paper-data="{&quot;index&quot;:null}" fill="#6f27cd" stroke="#4c0086" stroke-width="2.5" stroke-linecap="butt"/><path d="M249.00544,239.23474c0,-0.66439 -0.00248,-24.65585 0.63087,-24.65585c0.52152,0 7.36937,-3.24401 8.88521,0.01027c0.31398,0.67406 8.62507,23.18713 8.62507,23.48149c0,1.02169 -18.14115,2.44385 -18.14115,1.1641z" fill="#8e41f3" stroke="#4c0086" stroke-width="2.5" stroke-linecap="butt"/><path d="M237.20709,240.71362c0,-0.66439 6.59407,-27.37209 7.22742,-27.37209c0.52152,0 7.17536,-1.88591 8.6912,1.36837c0.31398,0.67405 5.3268,25.70935 5.3268,26.00371c0,1.02168 -21.24542,1.27975 -21.24542,0z" fill="#8e41f3" stroke="#4c0086" stroke-width="2.5" stroke-linecap="butt"/><g stroke-linecap="butt"><path d="M254.84803,194.86215c0.32688,0.41489 1.52403,5.41797 3.12715,10.02558c2.00908,5.77439 4.44059,11.35808 4.14165,11.41977c-4.65345,0.96028 -16.65087,3.10029 -21.11281,1.9361c-0.68246,-0.17807 5.2326,-21.81292 7.13203,-22.09199c2.04126,-0.29991 4.53816,-4.04843 6.71197,-1.28946z" fill="#8e41f3" stroke="#4c0086" stroke-width="2.5"/><path d="M258.62345,217.51002c0.07306,-0.59449 -4.6726,-21.98068 -4.66246,-22.01928c0.72497,-2.75897 0.88672,-0.89623 1.56748,-0.59633c0.03859,0.01701 2.19205,7.98971 4.06212,13.30778c1.4937,4.24775 2.71162,7.51901 2.62163,7.58941c-1.86353,1.45793 -3.67585,2.427 -3.58877,1.71841z" data-paper-data="{&quot;index&quot;:null}" fill="#6f27cd" stroke="#4c0086" stroke-width="2.5"/><g><path d="M254.39949,218.51578c0.26111,0.70859 -8.68773,2.1915 -14.27552,0.73357c-0.68246,-0.17806 5.2326,-21.81291 7.13203,-22.09198c2.04126,-0.2999 1.77234,-1.40832 3.94615,1.35065c0.05991,0.07603 -0.42268,3.98562 0.20239,8.34921c0.70696,4.93519 2.55003,10.45111 2.99496,11.65855z" fill="#6f27cd" stroke="none" stroke-width="0"/><path d="M243.57568,205.4767c2.57558,0.93013 5.19459,1.40783 7.90994,1.91832c0.34696,2.19462 0.89749,4.46795 1.43352,6.39924c-3.83439,-0.2841 -7.69595,-0.28604 -11.48415,-1.00018c0.6098,-2.28814 1.36518,-4.89593 2.14069,-7.31737z" fill="#ffdb40" stroke="none" stroke-width="0"/><path d="M240.12398,219.24935c-0.15882,-0.04144 0.03967,-1.24497 0.46171,-3.07097c4.43115,0.81643 8.9542,0.67566 13.40772,1.16035c0.17667,0.53451 0.31849,0.9393 0.40609,1.17705c0.26111,0.70859 -8.68773,2.19151 -14.27552,0.73357z" fill="#ffdb40" stroke="none" stroke-width="0"/><path d="M247.25601,197.15736c2.04126,-0.2999 1.77233,-1.40832 3.94615,1.35065c0.04528,0.05748 -0.21941,2.3054 -0.08135,5.2841c-2.19511,-0.40069 -4.33448,-0.83293 -6.42938,-1.61463c1.028,-2.85374 1.98393,-4.93481 2.56458,-5.02012z" fill="#ffdb40" stroke="none" stroke-width="0"/><path d="M254.39949,218.51578c0.26111,0.70859 -8.68773,2.1915 -14.27552,0.73357c-0.68246,-0.17806 5.2326,-21.81291 7.13203,-22.09198c2.04126,-0.2999 1.77234,-1.40832 3.94615,1.35065c0.05991,0.07603 -0.42268,3.98562 0.20239,8.34921c0.70696,4.93519 2.55003,10.45111 2.99496,11.65855z" fill="none" stroke="#4c0086" stroke-width="2.5"/></g></g><path d="M236.99949,194.92597c-0.00917,-0.06116 0.44782,-2.10004 1.77565,-4.12914c2.68906,-4.10923 7.78,-9.7379 11.61469,-9.7379c5.72822,0 16.98054,11.97603 17.0023,12.71349c0.00278,0.09396 -2.50447,0.53449 -3.42516,0.99009c-0.36353,0.1799 -2.21065,4.04318 -2.38576,4.2245c-0.20006,0.20716 -5.80451,-2.33831 -5.89364,-2.24492c-1.17838,1.23473 -2.7076,4.2186 -3.1023,4.25334c-0.39713,0.03496 -3.30881,-3.09007 -3.70407,-3.09007c-0.09643,0 -8.15104,2.2301 -8.49203,2.19476c-0.09912,-0.01028 1.20093,-3.82513 1.15916,-4.45915c-0.02962,-0.44959 -4.48197,-0.26911 -4.54882,-0.71501z" fill="#f5b83d" stroke="#4c0086" stroke-width="2.5" stroke-linecap="butt"/><path d="M279.81363,138.3639c3.47933,0.52287 -2.0694,22.36862 -6.25263,36.64096c-2.07443,7.07754 -4.66822,9.76006 -4.95466,9.43989c-3.19729,-3.57394 -19.50283,-30.97902 -19.50283,-30.97902c0,0 2.48735,-3.25197 8.15655,-6.88704c7.92132,-5.07913 20.53723,-9.46582 22.55357,-8.21479z" data-paper-data="{&quot;index&quot;:null}" fill="#f5b83d" stroke="#4c0086" stroke-width="2.5" stroke-linecap="butt"/><path d="M235.21269,183.78897c-0.30436,0.30319 -2.73978,-2.52389 -4.40427,-9.70889c-3.35655,-14.48904 -7.01936,-38.02439 -3.51574,-38.34655c3.57698,-1.94415 24.69218,7.9546 31.92302,14.36105c3.0162,2.67232 -2.82613,3.5752 -2.753,3.88671c0,0 -17.85271,26.42328 -21.25001,29.80767z" fill="#8e41f3" stroke="#4c0086" stroke-width="2.5" stroke-linecap="butt"/><path d="M231.18417,171.07299c0,-12.6105 10.22283,-22.83333 22.83333,-22.83333c12.6105,0 22.83334,10.22283 22.83334,22.83333c0,12.6105 -10.22284,21.88739 -22.83334,21.88739c-12.6105,0 -22.83333,-9.27689 -22.83333,-21.88739z" fill="#8e41f3" stroke="#4c0086" stroke-width="0" stroke-linecap="butt"/><path d="M253.6121,147.96938c12.6105,0 22.83333,10.22283 22.83333,22.83333c0,3.03347 -0.08086,10.46024 -4.03819,14.0634c-1.75949,1.60201 -2.64007,3.01229 -7.44379,2.55372c-12.57213,0.98299 -23.96185,-39.45044 -11.35135,-39.45044z" fill="#f5b83d" stroke="#4c0086" stroke-width="0" stroke-linecap="butt"/><path d="M231.18417,171.07299c0,-12.6105 10.22283,-22.83333 22.83333,-22.83333c12.6105,0 22.83334,10.22283 22.83334,22.83333c0,12.6105 -10.22284,21.88739 -22.83334,21.88739c-12.6105,0 -22.83333,-9.27689 -22.83333,-21.88739z" fill="none" stroke="#4c0086" stroke-width="2.5" stroke-linecap="butt"/><path d="M265.43532,187.83008c0,0 -3.25457,3.13125 -3.85044,2.47374c-0.69509,-0.767 -2.63605,-2.74401 -2.63605,-2.74401" fill="none" stroke="#4c0086" stroke-width="2.5" stroke-linecap="round"/><path d="M241.28046,175.70579c0,2.64947 -0.42075,6.0545 -2.02537,6.0545c-0.31292,0 -5.92268,-5.6733 -5.92268,-6.43166c0,-0.27108 3.35076,-5.80306 4.7912,-5.80306c1.60461,0 3.15685,3.53073 3.15685,6.18022z" fill="#4c0086" stroke="#4c0086" stroke-width="0" stroke-linecap="butt"/><path d="M263.96432,174.43142c0,7.61257 -5.83845,13.78378 -13.04054,13.78378c-7.20209,0 -13.04054,-6.17121 -13.04054,-13.78378c0,-7.61257 5.83845,-13.78378 13.04054,-13.78378c7.20209,0 13.04054,6.17121 13.04054,13.78378z" fill="#ff7945" stroke="#4c0086" stroke-width="2.5" stroke-linecap="butt"/><path d="M275.44937,171.15192c0.57731,0 1.92025,4.67422 1.92025,4.90327c0,0.64077 -2.24832,5.4344 -2.37373,5.4344c-0.64311,0 -0.81174,-2.87706 -0.81174,-5.11572c0,-2.23866 0.62212,-5.22195 1.26522,-5.22195z" data-paper-data="{&quot;index&quot;:null}" fill="#2c0055" stroke="#4c0086" stroke-width="0" stroke-linecap="butt"/><path d="M270.31917,163.52483c2.8865,0 5.22647,5.21434 5.22647,11.64655c0,6.43221 -3.07722,10.71218 -5.96372,10.71218c-2.8865,0 -4.48922,-4.27997 -4.48922,-10.71218c0,-6.43221 2.33997,-11.64655 5.22647,-11.64655z" data-paper-data="{&quot;index&quot;:null}" fill="#ff7945" stroke="#4c0086" stroke-width="2.5" stroke-linecap="butt"/><g stroke="#4c0086" stroke-width="0" stroke-linecap="butt"><path d="M249.87081,174.53586c0,-3.33279 2.70176,-6.03454 6.03455,-6.03454c3.33279,0 6.03454,2.70175 6.03454,6.03454c0,3.33279 -2.70175,6.03454 -6.03454,6.03454c-3.33279,0 -6.03455,-2.70175 -6.03455,-6.03454z" fill="#ffffff"/><path d="M252.25949,174.53586c0,-2.01355 1.63232,-3.64586 3.64587,-3.64586c2.01355,0 3.64586,1.63231 3.64586,3.64586c0,2.01355 -1.63231,3.64587 -3.64586,3.64587c-2.01355,0 -3.64587,-1.63231 -3.64587,-3.64587z" fill="#ff7945"/><path d="M253.26524,174.53586c0,-1.45809 1.18202,-2.64011 2.64012,-2.64011c1.4581,0 2.64011,1.18202 2.64011,2.64011c0,1.45809 -1.18201,2.64011 -2.64011,2.64011c-1.4581,0 -2.64012,-1.18202 -2.64012,-2.64011z" fill="#ffffff"/></g><g data-paper-data="{&quot;index&quot;:null}" stroke="#4c0086" stroke-width="0" stroke-linecap="butt"><path d="M271.51734,179.29885c-1.38866,0 -2.51439,-2.08261 -2.51439,-4.65162c0,-2.56902 1.12573,-4.65162 2.51439,-4.65162c1.38866,0 2.5144,2.08261 2.5144,4.65162c0,2.56902 -1.12574,4.65162 -2.5144,4.65162z" fill="#ffffff"/><path d="M271.51734,177.45758c-0.83898,0 -1.51911,-1.25824 -1.51911,-2.81035c0,-1.55211 0.68013,-2.81036 1.51911,-2.81036c0.83898,0 1.51911,1.25824 1.51911,2.81036c0,1.55211 -0.68014,2.81035 -1.51911,2.81035z" fill="#ff7945"/><path d="M271.51734,176.68231c-0.60754,0 -1.10004,-0.91114 -1.10004,-2.03509c0,-1.12395 0.4925,-2.03509 1.10004,-2.03509c0.60754,0 1.10005,0.91114 1.10005,2.03509c0,1.12395 -0.49251,2.03509 -1.10005,2.03509z" fill="#ffffff"/></g><path d="M247.66272,222.88337c-1.32044,4.51499 -16.61218,5.52215 -15.31605,3.4089c1.0718,-1.74749 2.20872,-3.67459 3.26989,-5.65572c3.18582,-5.94771 9.78446,-23.09213 10.98371,-19.54136c1.64147,4.86018 1.77599,19.34833 1.06244,21.78819z" fill="#6f27cd" stroke="#4c0086" stroke-width="2.5" stroke-linecap="butt"/></g><path d="M323.19235,237.54559l0.46512,-4.34318l21.49876,2.30231l-0.46512,4.34318z" fill="url(#color-1)" stroke="none" stroke-width="0" stroke-linecap="butt"/><path d="M330.92112,240.30157l0.19404,-4.36371l21.60035,0.9605l-0.19404,4.3637z" fill="url(#color-2)" stroke="none" stroke-width="0" stroke-linecap="butt"/><g data-paper-data="{&quot;index&quot;:null}" fill="#ffffff" stroke="#494949" stroke-width="2.5" stroke-linecap="butt"><path d="M322.5492,201.88916c-0.4325,-0.41624 0.9239,-6.13542 3.25437,-11.33415c3.00387,-6.70088 7.29143,-13.13499 7.93912,-12.51165c0,0 10.16539,18.19605 8.77632,21.38758c-0.38621,0.88736 -10.15512,-12.71922 -10.59089,-11.72795c-0.80888,1.84002 -9.04776,14.50488 -9.37892,14.18616z"/><path d="M322.5492,201.88916c-0.4325,-0.41624 0.9239,-6.13542 3.25437,-11.33415c3.00387,-6.70088 7.29143,-13.13499 7.93912,-12.51165c0,0 10.16539,18.19605 8.77632,21.38758c-0.38621,0.88736 -10.15512,-12.71922 -10.59089,-11.72795c-0.80888,1.84002 -9.04776,14.50488 -9.37892,14.18616z"/><path d="M323.1719,223.85433c-0.51057,-0.16791 -0.57464,-6.13933 0.41237,-12.11831c1.2722,-7.7066 3.83022,-15.81086 4.59483,-15.5594c0,0 13.99505,11.72878 13.42876,15.37842c-0.15744,1.01472 -12.68685,-6.66766 -12.86687,-5.53192c-0.33414,2.10817 -5.17815,17.95978 -5.56909,17.83121z"/></g><path d="M368.31564,208.96848c-0.57809,0.11636 -6.67116,-15.89771 -7.02925,-18.01773c-0.19291,-1.14212 -18.93819,6.15085 -19.10562,5.13052c-0.60216,-3.66977 20.52887,-14.96556 20.52887,-14.96556c1.13062,-0.22756 4.36461,7.96232 5.7476,15.71382c1.07296,6.01381 0.61338,11.98699 -0.14159,12.13895z" fill="#ffffff" stroke="#494949" stroke-width="2.5" stroke-linecap="butt"/><path d="M358.62903,229.54653c-0.58277,-0.09006 -0.78206,-17.22295 -0.38739,-19.33647c0.21262,-1.13862 -19.89771,-0.75447 -19.70315,-1.76998c0.69978,-3.65241 24.42947,-6.97163 24.42947,-6.97163c1.13977,0.17612 1.35233,8.97884 -0.02152,16.73197c-1.06588,6.01508 -3.55633,11.46372 -4.31741,11.3461z" fill="#ffffff" stroke="#494949" stroke-width="2.5" stroke-linecap="butt"/><path d="M338.20806,219.24488c-1.34271,4.59115 -14.44868,-0.11016 -13.3696,-2.12471c3.23958,-6.04807 11.06976,-23.64175 12.28924,-20.03107c1.66917,4.94217 1.80595,19.67476 1.08036,22.15578z" data-paper-data="{&quot;index&quot;:null}" fill="#ffffff" stroke="#494949" stroke-width="2.5" stroke-linecap="butt"/><path d="M323.75054,233.41917c2.22456,-6.16743 7.5568,-20.58165 7.80914,-21.12339c1.54141,-3.30918 8.50479,-0.01045 9.03511,-0.01045c0.53519,0 0.62389,16.84688 0.6386,22.92898z" fill="#ffffff" stroke="none" stroke-width="0" stroke-linecap="butt"/><path d="M322.4792,237.62384c0,-0.29933 8.58317,-24.64264 8.90244,-25.32807c1.54141,-3.30918 8.50479,-0.01045 9.03511,-0.01045c0.54176,0 0.626,17.26305 0.6391,23.14805" fill="none" stroke="#494949" stroke-width="2.5" stroke-linecap="butt"/><path d="M332.03747,236.14249c1.30417,-6.64016 4.64337,-23.17337 4.89983,-23.72393c1.54141,-3.30918 8.30751,-1.39146 8.83783,-1.39146c0.54404,0 5.41332,19.37972 6.91223,25.80479c0.08915,0.38215 -20.70719,-0.39764 -20.64988,-0.68941z" fill="#ffffff" stroke="none" stroke-width="0" stroke-linecap="butt"/><path d="M331.56869,240.44806c0.11359,-0.8841 0.53419,-4.08509 0.7229,-5.04164c1.39029,-7.0471 4.50748,-22.45666 4.75493,-22.98786c1.54141,-3.30918 8.3075,-1.39146 8.83783,-1.39146c0.49559,0 5.37147,21.79674 6.56885,29.51792" fill="none" stroke="#494949" stroke-width="2.5" stroke-linecap="butt"/><path d="M335.29515,192.23597c2.21049,-2.80552 4.74951,1.00625 6.82521,1.31122c1.93147,0.28378 7.94633,22.28363 7.25235,22.4647c-4.53722,1.18383 -16.73704,-0.99228 -21.469,-1.96876c-0.30399,-0.06273 2.16855,-5.74062 4.21152,-11.61243c1.63016,-4.68535 2.84751,-9.77283 3.17991,-10.19472z" fill="#ffffff" stroke="#494949" stroke-width="2.5" stroke-linecap="butt"/><path d="M335.29515,192.23597c2.21049,-2.80552 4.74951,1.00625 6.82521,1.31122c1.93147,0.28378 7.94633,22.28363 7.25235,22.4647c-4.53722,1.18383 -16.73704,-0.99228 -21.469,-1.96876c-0.30399,-0.06273 2.16855,-5.74062 4.21152,-11.61243c1.63016,-4.68535 2.84751,-9.77283 3.17991,-10.19472z" fill="#ffffff" stroke="#494949" stroke-width="2.5" stroke-linecap="butt"/><path d="M331.45599,215.26591c0.08855,0.72054 -1.75435,-0.26487 -3.64932,-1.7474c-0.09151,-0.07159 1.14696,-3.39803 2.66586,-7.71745c1.90162,-5.40779 4.09141,-13.515 4.13065,-13.53229c0.69225,-0.30496 0.85673,-2.19913 1.59393,0.60639c0.01031,0.03925 -4.81542,21.78624 -4.74112,22.39076z" data-paper-data="{&quot;index&quot;:null}" fill="#ffffff" stroke="#494949" stroke-width="2.5" stroke-linecap="butt"/><path d="M335.92041,215.24685c0.71999,-2.15813 2.09462,-6.49594 2.6864,-10.62706c0.63561,-4.43721 0.14488,-8.41276 0.2058,-8.49007c2.21049,-2.80552 1.93703,-1.67839 4.01272,-1.37344c1.93147,0.28378 7.94633,22.28363 7.25235,22.46469c-4.40933,1.15044 -10.78004,0.40335 -13.33206,-0.28244c-0.73663,-0.19795 -0.97987,-1.22813 -0.82522,-1.69168z" fill="#ffffff" stroke="#494949" stroke-width="2.5" stroke-linecap="butt"/><path d="M349.17762,193.50577c-0.04248,0.64471 4.86342,4.52392 4.76263,4.53438c-0.34674,0.03593 -12.12115,-2.23179 -12.2192,-2.23179c-0.40193,0 0.57957,4.014 0.17573,3.97844c-0.40136,-0.03533 -5.89868,-3.90578 -7.09695,-5.16135c-0.03975,-0.04164 -1.70928,2.04549 -4.2595,2.23818c-3.26533,0.24672 -7.59253,-1.39015 -7.70675,-1.50843c-0.17807,-0.18438 3.91685,-2.55981 3.54718,-2.74274c-0.93622,-0.46329 -7.03251,-5.10933 -7.02968,-5.20488c0.00549,-0.18585 2.11194,1.02345 3.62512,0.047c4.59265,-2.96363 12.82945,-8.77689 17.21076,-8.77689c3.49903,0 12.44681,1.38315 15.31534,5.34863c0.32822,0.45372 -3.78546,4.12453 -3.50471,4.55355c1.35023,2.06333 5.99616,-1.7171 5.98683,-1.65491c0,0 -0.92646,3.96602 -4.10101,5.33901c-2.15924,0.93388 -4.69361,1.0567 -4.7058,1.24177z" fill="#ffffff" stroke="#494949" stroke-width="2.5" stroke-linecap="butt"/><path d="M334.73107,191.31189c-12.26884,0.28186 -22.7996,-8.46477 -24.20844,-20.3088c-0.08741,-0.73492 0.84717,-0.77756 0.82968,-1.53883c-0.29935,-13.03011 10.021,-23.83578 23.05111,-24.13512c13.03012,-0.29934 23.83577,10.02099 24.13512,23.05111c0.01484,0.6463 1.79649,0.02898 1.75995,0.65874c-0.70024,12.06715 -13.1836,21.98841 -25.56743,22.27291z" fill="#ffffff" stroke="#494949" stroke-width="2.5" stroke-linecap="butt"/><path d="M342.23277,217.00386c-0.19669,-5.40972 0.19065,-14.70306 1.44928,-18.4297c1.21948,-3.61067 7.92944,13.82298 11.16901,19.87104c1.07907,2.01456 2.23517,3.97416 3.32505,5.75114c1.0028,1.635 -7.75908,1.43312 -12.59859,-0.77914c-1.52112,-0.69535 -2.65474,-1.58931 -2.97585,-2.68727c0,0 -0.30474,-1.96154 -0.3689,-3.72606z" fill="#ffffff" stroke="#494949" stroke-width="2.5" stroke-linecap="butt"/><path d="M337.22158,212.91148c0.72598,0 3.22184,2.16811 3.22184,2.68057c0,0.51246 -3.09297,2.62599 -3.09297,2.11353c0,-0.3185 -0.40363,-4.79409 -0.12887,-4.79409z" fill="#ffffff" stroke="#494949" stroke-width="2.5" stroke-linecap="butt"/><path d="M350.53297,169.149c0.67829,0 5.35024,4.07619 5.35024,5.38027c0,1.35962 -4.69454,5.38027 -5.35024,5.38027c-1.2088,0 -2.18874,-2.40883 -2.18874,-5.38027c0,-2.97144 0.97994,-5.38027 2.18874,-5.38027z" fill="#494949" stroke="none" stroke-width="0" stroke-linecap="butt"/><path d="M351.83537,174.34819c0,7.62239 -5.21051,13.80155 -12.79912,13.80155c-7.58861,0 -13.36389,-5.99809 -13.36389,-13.62047c0,-7.62239 5.58702,-14.88803 13.17564,-14.88803c7.58861,0 12.98738,7.08456 12.98738,14.70695z" fill="#838383" stroke="#494949" stroke-width="2.5" stroke-linecap="butt"/><g stroke="#4c0086" stroke-width="0" stroke-linecap="butt"><path d="M327.1529,174.06171c0,-3.20577 2.70176,-5.80456 6.03455,-5.80456c3.33279,0 6.03454,2.59879 6.03454,5.80456c0,3.20577 -2.70175,5.80456 -6.03454,5.80456c-3.33279,0 -6.03455,-2.59878 -6.03455,-5.80456z" fill="#ffffff"/><path d="M329.54159,174.06171c0,-1.93681 1.63232,-3.50691 3.64587,-3.50691c2.01355,0 3.64586,1.5701 3.64586,3.50691c0,1.93681 -1.63231,3.50692 -3.64586,3.50692c-2.01355,0 -3.64587,-1.5701 -3.64587,-3.50692z" fill="#838383"/><path d="M330.54733,174.06171c0,-1.40252 1.18202,-2.5395 2.64012,-2.5395c1.4581,0 2.64011,1.13698 2.64011,2.5395c0,1.40252 -1.18201,2.53949 -2.64011,2.53949c-1.4581,0 -2.64012,-1.13697 -2.64012,-2.53949z" fill="#ffffff"/></g><path d="M313.76533,172.99243c0.0595,2.57594 -0.37644,4.66183 -0.9737,4.65899c-0.32397,-0.00154 -2.72398,-3.49811 -2.7512,-4.67676c-0.02611,-1.13051 2.20063,-4.65313 2.53576,-4.65153c0.59726,0.00285 1.12965,2.09337 1.18914,4.66931z" fill="#494949" stroke="none" stroke-width="0" stroke-linecap="butt"/><path d="M318.15918,160.1084c3.74942,0.0179 6.65537,6.32964 6.80799,12.93749c0.15262,6.60784 -2.58078,11.79396 -6.33021,11.77606c-3.74942,-0.0179 -6.44758,-5.38689 -6.6002,-11.99473c-0.15262,-6.60784 2.373,-12.73672 6.12242,-12.71882z" fill="#838383" stroke="#494949" stroke-width="2.5" stroke-linecap="butt"/><g stroke="#4c0086" stroke-width="0" stroke-linecap="butt"><path d="M316.3721,178.06335c-1.64668,-0.00786 -3.03361,-2.26711 -3.0978,-5.0462c-0.06419,-2.77909 1.21868,-5.0256 2.86536,-5.01774c1.64668,0.00786 3.03362,2.26711 3.0978,5.0462c0.06419,2.77909 -1.21869,5.0256 -2.86537,5.01774z" fill="#ffffff"/><path d="M316.32613,176.07153c-0.99487,-0.00475 -1.83281,-1.36972 -1.87158,-3.04874c-0.03878,-1.67902 0.73629,-3.03629 1.73116,-3.03154c0.99487,0.00475 1.83281,1.36972 1.87158,3.04874c0.03878,1.67902 -0.73629,3.0363 -1.73116,3.03155z" fill="#838383"/><path d="M316.30674,175.23287c-0.72042,-0.00344 -1.32721,-0.99186 -1.35529,-2.20771c-0.02808,-1.21585 0.53318,-2.19871 1.2536,-2.19527c0.72042,0.00344 1.32721,0.99187 1.35529,2.20771c0.02808,1.21585 -0.53318,2.1987 -1.2536,2.19526z" fill="#ffffff"/></g><path d="M333.5044,186.74789c0,0 -1.47366,2.59389 -1.91246,2.38525c-0.80475,-0.38265 -1.82253,-1.1866 -2.7929,-1.43886c-0.86108,-0.22385 -1.71406,0.66392 -2.28115,0.78675c-0.24891,0.05391 -1.53674,-1.25514 -1.53674,-1.25514" fill="none" stroke="#494949" stroke-width="2.5" stroke-linecap="round"/><path d="M180.61757,220.7435c-1.32044,4.51498 -14.20896,-0.10833 -13.14779,-2.08946c3.18583,-5.94772 10.8861,-23.24951 12.08535,-19.69874c1.64148,4.86018 1.77599,19.34833 1.06244,21.78819z" data-paper-data="{&quot;index&quot;:null}" fill="#6f27cd" stroke="#4c0086" stroke-width="2.5" stroke-linecap="butt"/><path d="M183.59557,238.55529c0,1.27975 -18.14115,-0.14241 -18.14115,-1.1641c0,-0.29436 8.31109,-22.80743 8.62507,-23.48149c1.51584,-3.25428 8.36369,-0.01027 8.88521,-0.01027c0.63335,0 0.63087,23.99146 0.63087,24.65585z" fill="#8e41f3" stroke="#4c0086" stroke-width="2.5" stroke-linecap="butt"/><path d="M195.39392,240.03415c0,1.27975 -21.24542,1.02168 -21.24542,0c0,-0.29436 5.01282,-25.32966 5.3268,-26.00371c1.51584,-3.25428 8.16968,-1.36837 8.6912,-1.36837c0.63335,0 7.22742,26.7077 7.22742,27.37209z" fill="#8e41f3" stroke="#4c0086" stroke-width="2.5" stroke-linecap="butt"/><g stroke="#4c0086" stroke-width="2.5" stroke-linecap="butt"><path d="M177.75299,194.18269c2.17381,-2.75897 4.67071,0.98955 6.71197,1.28946c1.89943,0.27907 7.81449,21.91392 7.13203,22.09199c-4.46194,1.16419 -16.45936,-0.97582 -21.11281,-1.9361c-0.29894,-0.06169 2.13257,-5.64538 4.14165,-11.41977c1.60312,-4.60761 2.80027,-9.61069 3.12715,-10.02558z" fill="#8e41f3"/><path d="M173.97754,216.83055c0.08708,0.70859 -1.72524,-0.26048 -3.58877,-1.71841c-0.08999,-0.0704 1.12793,-3.34166 2.62163,-7.58941c1.87007,-5.31807 4.02353,-13.29077 4.06212,-13.30778c0.68076,-0.2999 0.84251,-2.16264 1.56748,0.59633c0.01014,0.0386 -4.73552,21.42479 -4.66246,22.01928z" data-paper-data="{&quot;index&quot;:null}" fill="#6f27cd"/><g fill="#6f27cd"><path d="M178.20151,217.83632c0.44493,-1.20744 2.288,-6.72336 2.99496,-11.65855c0.62507,-4.36359 0.14248,-8.27318 0.20239,-8.34921c2.17381,-2.75897 1.90489,-1.65055 3.94615,-1.35065c1.89943,0.27907 7.81449,21.91392 7.13203,22.09198c-5.58779,1.45793 -14.53663,-0.02498 -14.27552,-0.73357z"/></g></g><path d="M178.58351,192.28092c-12.6105,0 -22.83334,-9.27689 -22.83334,-21.88739c0,-12.6105 10.22284,-22.83333 22.83334,-22.83333c12.6105,0 22.83333,10.22283 22.83333,22.83333c0,12.6105 -10.22283,21.88739 -22.83333,21.88739z" fill="#8e41f3" stroke="#4c0086" stroke-width="0" stroke-linecap="butt"/><path d="M178.58351,192.28092c-12.6105,0 -22.83334,-9.27689 -22.83334,-21.88739c0,-12.6105 10.22284,-22.83333 22.83334,-22.83333c12.6105,0 22.83333,10.22283 22.83333,22.83333c0,12.6105 -10.22283,21.88739 -22.83333,21.88739z" fill="none" stroke="#4c0086" stroke-width="2.5" stroke-linecap="butt"/><path d="M184.9383,222.20392c-0.71355,-2.43986 -0.57903,-16.92801 1.06244,-21.78819c1.19925,-3.55077 7.79789,13.59365 10.98371,19.54136c1.06117,1.98113 2.19809,3.90823 3.26989,5.65572c1.29613,2.11325 -13.99561,1.10609 -15.31605,-3.4089z" fill="#6f27cd" stroke="#4c0086" stroke-width="2.5" stroke-linecap="butt"/><path d="M414.7001,235.03865c0,1.39274 -18.73048,-0.15499 -18.73048,-1.26688c0,-0.32035 8.58108,-24.82107 8.90526,-25.55465c1.56509,-3.5416 8.6354,-0.01118 9.17386,-0.01118c0.65393,0 0.65136,26.10965 0.65136,26.8327z" fill="#bf8e63" stroke="#873000" stroke-width="2.5" stroke-linecap="butt"/><path d="M427.02325,236.64807c0,1.39274 -21.9356,1.11189 -21.9356,0c0,-0.32035 5.17566,-27.56599 5.49984,-28.29955c1.56509,-3.5416 8.43509,-1.48918 8.97355,-1.48918c0.65393,0 7.46221,29.0657 7.46221,29.78875z" fill="#bf8e63" stroke="#873000" stroke-width="2.5" stroke-linecap="butt"/><g stroke="#873000" stroke-width="2.5" stroke-linecap="butt"><path d="M415.59773,188.15173c1.96114,0.30371 8.06835,23.84868 7.36372,24.04247c-4.60689,1.26698 -16.99406,-1.06197 -21.79868,-2.10703c-0.30865,-0.06714 2.20185,-6.14381 4.2762,-12.42801c1.13513,-3.4389 2.07313,-7.08021 2.65937,-9.17454c0.26858,-0.95952 5.39182,-0.65928 7.49939,-0.33289z" fill="#ffcda1"/><path d="M401.31196,217.20632c-2.43786,-2.48924 0.80147,-11.20189 2.3437,-15.82467c1.44266,-4.32434 3.3592,-9.49778 4.09569,-12.23123c0.24921,-0.92494 2.15719,-1.65047 2.01934,-0.9847c-0.03993,0.19287 -5.1795,22.80497 -5.11647,23.34555c0,0 -2.388,6.66942 -3.34226,5.69506z" data-paper-data="{&quot;index&quot;:null}" fill="#ae6947"/><g fill="#ae6947"><path d="M412.10766,199.91794c0.64538,-4.74884 0.14711,-9.00361 0.20896,-9.08635c2.24443,-3.00256 1.96677,-1.79628 4.07434,-1.4699c1.38836,0.215 7.47175,14.52246 8.09997,24.01569c0.25918,3.91654 -0.41014,7.01367 -2.72072,7.96374c-2.92703,1.20355 -3.99275,-4.01499 -5.06646,-3.34346c-2.89108,1.80819 -6.43863,5.30832 -8.37409,1.17478c-2.25405,-4.81396 3.04807,-13.88359 3.77799,-19.2545z"/></g></g><path d="M406.90575,186.29345c0,2.03936 2.32485,3.69259 5.19271,3.69259c2.86786,0 5.1927,-1.65323 5.1927,-3.69259c0,-2.03936 -2.32485,-3.69259 -5.1927,-3.69259c-2.86786,0 -5.19271,1.65323 -5.19271,3.69259z" fill="#ae6947" stroke="#873000" stroke-width="2.5" stroke-linecap="butt"/><path d="M424.95165,206.46967c0,7.26896 -0.94604,11.46335 -4.0334,11.46335c-3.08736,0 -4.88254,-5.32657 -4.88254,-12.59553c0,-2.59838 -0.43349,-16.48661 2.027,-13.79876c3.13036,-0.08576 6.88894,14.88475 6.88894,14.93094z" fill="#bf8e63" stroke="#873000" stroke-width="2.5" stroke-linecap="butt"/><g stroke-linecap="butt"><path d="M412.60359,149.8625c-1.34298,0 -5.17251,-0.46971 -4.44592,-8.14216c0.03602,-0.38029 2.50592,-5.0383 4.16523,-10.14989c1.84208,-5.67462 2.89436,-11.83851 2.98095,-11.83851c1.60776,0 5.43229,3.6187 7.14364,6.35927c0.16552,0.26507 -2.74101,2.7638 -2.96191,3.99417c-0.06419,0.35751 4.66781,3.44196 4.59532,3.84851c-0.05629,0.31568 0.48653,0.47465 0.63361,1.84667c0.35826,3.34186 0.58877,9.44054 0.22282,10.27635c-2.62292,5.99053 -10.60456,3.80559 -12.33375,3.80559z" fill="#bf8e63" stroke="#873000" stroke-width="2.5"/><path d="M408.22886,185.60197c-2.27944,0 -4.64769,-0.2404 -6.89434,-0.72604c-1.19567,-0.25846 -5.33351,-1.55405 -8.21112,-4.26214c-3.15287,-2.96712 -5.0321,-7.42482 -5.63615,-9.13047c-0.22757,-0.64259 -0.47226,-8.37069 -0.47226,-9.07202c0,-13.02016 9.65485,-22.675 22.67501,-22.675c13.02017,0 22.67501,9.95487 22.67501,22.97503c0,0.39993 0.31579,6.94 0.26607,7.23606c-0.27735,1.65141 -2.1938,5.71001 -5.975,9.08316c-3.38182,3.01687 -8.63049,5.45132 -9.47382,5.67564c-2.65179,0.70536 -5.47132,0.89579 -8.95339,0.89579z" fill="#ffcda1" stroke="#873000" stroke-width="2.5"/><path d="M387.63726,171.33331c-0.22757,-0.64259 -0.47226,-8.37069 -0.47226,-9.07202c0,-13.02016 9.65485,-22.675 22.67501,-22.675c13.02017,0 22.67501,9.95487 22.67501,22.97503c0,0.39993 0.31579,6.94 0.26607,7.23606c-0.03667,0.21832 -3.08931,1.68887 -4.67792,2.63872c-3.87405,2.31635 -19.61874,7.35337 -21.14689,7.38715c-0.76267,0.01686 -14.42326,-3.67547 -17.61712,-5.80393c-1.77088,-1.18016 -1.61891,-2.45167 -1.70189,-2.686z" fill="#bf8e63" stroke="none" stroke-width="0"/><path d="M408.22886,185.60197c-2.27944,0 -4.64769,-0.2404 -6.89434,-0.72604c-1.19567,-0.25846 -5.33351,-1.55405 -8.21112,-4.26214c-3.15287,-2.96712 -5.0321,-7.42482 -5.63615,-9.13047c-0.22757,-0.64259 -0.47226,-8.37069 -0.47226,-9.07202c0,-13.02016 9.65485,-22.675 22.67501,-22.675c13.02017,0 22.67501,9.95487 22.67501,22.97503c0,0.39993 0.31579,6.94 0.26607,7.23606c-0.27735,1.65141 -2.1938,5.71001 -5.975,9.08316c-3.38182,3.01687 -8.63049,5.45132 -9.47382,5.67564c-2.65179,0.70536 -5.47132,0.89579 -8.95339,0.89579z" fill="none" stroke="#873000" stroke-width="2.5"/></g><path d="M418.31565,203.35139c0.34614,-1.08025 3.06102,0.54506 4.99087,5.03239c0.15069,0.3504 0.25174,-2.76757 0.98592,-3.48023c0.54016,-0.52433 1.76224,1.6935 1.87019,1.94362c1.08168,2.50627 1.55769,6.16421 2.35493,7.73302c1.09564,2.15605 2.2695,4.25329 3.37612,6.15507c1.33823,2.29982 -14.45027,1.20374 -15.8136,-3.70987c0,0 -0.39708,-6.79557 -0.27714,-11.70569c0.04847,-1.98408 2.04458,3.24892 2.3222,2.13424c0.11173,-0.44862 0.15907,-4.00436 0.19054,-4.10256z" fill="#ae6947" stroke="#873000" stroke-width="2.5" stroke-linecap="butt"/><path d="M391.19843,179.02845c0,0 6.69025,2.88475 9.33476,2.96063c2.63601,0.07564 6.18305,0.11211 9.37744,-0.04381c0.79998,-0.03904 2.26499,1.962 3.00354,1.86552c2.51184,-0.32815 3.93697,-2.96991 5.39462,-3.1203c1.55121,-0.16004 3.6765,-0.70505 5.15924,-1.76485c1.42102,-1.01568 2.23305,-2.55123 2.23305,-2.55123" fill="none" stroke="#873000" stroke-width="2.5" stroke-linecap="round"/><g stroke-linecap="butt"><path d="M417.73742,169.35702c0,3.25607 0.44758,5.75007 3.1476,5.75007c2.29628,0 8.63916,-4.98429 8.63916,-6.18678c0,-0.97286 -4.84515,-4.14878 -5.15671,-4.14878c-2.70002,0 -6.63006,1.32943 -6.63006,4.5855z" fill="#873000" stroke="none" stroke-width="0"/><path d="M400.72698,164.39871c0,8.07988 5.09919,14.63437 11.7198,14.63437c6.62061,0 12.25556,-6.40447 12.25556,-14.48435c0,-0.05289 -0.28128,-2.73613 -0.86586,-4.53078c-0.17149,-0.52648 -12.2087,0.49264 -18.67794,1.33961c-2.73129,0.35759 -3.36062,0.68449 -3.47946,0.85144c-0.72962,1.02495 -0.9521,2.18452 -0.9521,2.18972z" fill="#ff9c00" stroke="#873000" stroke-width="2.5"/></g><g data-paper-data="{&quot;index&quot;:null}" stroke-linecap="butt"><path d="M391.08316,169.3643c0.10977,2.84498 -0.0498,5.03314 -1.51961,5.08758c-1.25002,0.0463 -4.87092,-4.18082 -4.91146,-5.23149c-0.0328,-0.85003 2.49769,-3.72268 2.66729,-3.72896c1.46981,-0.05444 3.654,1.0279 3.76378,3.87287z" fill="#873000" stroke="none" stroke-width="0"/><path d="M400.03605,164.80113c0.27239,7.05978 -2.28754,12.75848 -5.89159,12.89198c-3.60405,0.1335 -6.88744,-5.34876 -7.15983,-12.40854c-0.00986,-0.25548 -0.40399,-2.37914 1.67087,-3.05327c0.77849,-0.25294 7.73514,0.01663 8.95587,0.5429c1.13353,0.48868 2.4198,1.90038 2.42468,2.02693z" fill="#ff9c00" stroke="#873000" stroke-width="2.5"/></g><g stroke="#4c0086" stroke-width="0" stroke-linecap="butt"><path d="M402.89526,168.62319c0,-2.50153 2.10824,-4.52943 4.7089,-4.52943c2.60066,0 4.70889,2.0279 4.70889,4.52943c0,2.50153 -2.10823,4.52944 -4.70889,4.52944c-2.60066,0 -4.7089,-2.02789 -4.7089,-4.52944z" fill="#ffffff"/><path d="M404.15072,168.62319c0,-1.83459 1.54617,-3.32182 3.45345,-3.32182c1.90728,0 3.45344,1.48723 3.45344,3.32182c0,1.83459 -1.54616,3.32183 -3.45344,3.32183c-1.90728,0 -3.45345,-1.48723 -3.45345,-3.32183z" fill="#ff9c00"/><path d="M406.3959,168.62319c0,-0.64186 0.54095,-1.16221 1.20826,-1.16221c0.6673,0 1.20825,0.52034 1.20825,1.16221c0,0.64186 -0.54095,1.16221 -1.20825,1.16221c-0.6673,0 -1.20826,-0.52034 -1.20826,-1.16221z" fill="#ffffff"/></g><g stroke="#4c0086" stroke-width="0" stroke-linecap="butt"><path d="M388.91103,169.13171c0,-2.15749 1.22951,-3.96266 2.87579,-4.4184c0.26252,-0.07267 0.53565,-0.11103 0.81607,-0.11103c2.03896,0 3.69185,2.0279 3.69185,4.52943c0,2.50153 -1.6529,4.52944 -3.69185,4.52944c-2.03896,0 -3.69187,-2.02789 -3.69187,-4.52944z" fill="#ffffff"/><path d="M389.89533,169.13171c0,-1.83459 1.21222,-3.32182 2.70756,-3.32182c1.49534,0 2.70756,1.48723 2.70756,3.32182c0,1.83459 -1.21222,3.32183 -2.70756,3.32183c-1.49534,0 -2.70756,-1.48723 -2.70756,-3.32183z" fill="#ff9c00"/><path d="M391.65559,169.13171c0,-0.64186 0.42412,-1.16221 0.9473,-1.16221c0.52318,0 0.94729,0.52034 0.94729,1.16221c0,0.64186 -0.42411,1.16221 -0.94729,1.16221c-0.52318,0 -0.9473,-0.52034 -0.9473,-1.16221z" fill="#ffffff"/></g></g></g></svg>