<svg version="1.1" xmlns="http://www.w3.org/2000/svg" xmlns:xlink="http://www.w3.org/1999/xlink" width="133.28467" height="136.06859" viewBox="0,0,133.28467,136.06859"><defs><radialGradient cx="192.95034" cy="143.31572" r="54.76369" gradientUnits="userSpaceOnUse" id="color-1"><stop offset="0" stop-color="#3e0e6b" stop-opacity="0.51373"/><stop offset="1" stop-color="#3e0e6b" stop-opacity="0"/></radialGradient><linearGradient x1="189.8984" y1="124.8728" x2="194.85227" y2="161.95073" gradientUnits="userSpaceOnUse" id="color-2"><stop offset="0" stop-color="#f2b34d"/><stop offset="1" stop-color="#f2544e"/></linearGradient><linearGradient x1="190.17619" y1="126.95194" x2="194.57448" y2="159.8716" gradientUnits="userSpaceOnUse" id="color-3"><stop offset="0" stop-color="#b9643b"/><stop offset="1" stop-color="#cb4641"/></linearGradient><linearGradient x1="190.34387" y1="128.20702" x2="194.4068" y2="158.61651" gradientUnits="userSpaceOnUse" id="color-4"><stop offset="0" stop-color="#f2b34d"/><stop offset="1" stop-color="#f2544e"/></linearGradient></defs><g transform="translate(-126.61528,-77.20359)"><g data-paper-data="{&quot;isPaintingLayer&quot;:true}" fill-rule="nonzero" stroke-linecap="butt" stroke-linejoin="miter" stroke-miterlimit="10" stroke-dasharray="" stroke-dashoffset="0" style="mix-blend-mode: normal"><path d="M140.21391,158.07819c-8.15309,-29.12553 8.84843,-59.34582 37.97396,-67.4989c29.12553,-8.15309 59.34582,8.84843 67.4989,37.97396c8.15309,29.12553 -8.84843,59.34582 -37.97396,67.4989c-29.12553,8.15309 -59.34582,-8.84843 -67.4989,-37.97396z" data-paper-data="{&quot;index&quot;:null}" fill="url(#color-1)" stroke="none" stroke-width="0"/><path d="M152.49336,197.68623c0.89601,0.07303 -0.90942,3.44476 -0.76079,3.46143c0.20706,0.02321 6.90539,-9.06561 9.6645,-16.44672c0.27278,-0.72973 0.97676,-0.46908 1.25122,-1.20503c3.03811,-8.14644 7.46518,-18.10823 7.61509,-18.21611c4.6782,-3.36673 14.78382,4.31404 14.94648,5.31036c0.00731,0.04483 -8.17583,11.86077 -13.15221,20.72504c-0.26269,0.46794 0.62332,0.40088 0.36189,0.86516c-3.73333,6.62985 -9.24038,13.23524 -10.35004,14.70646c-2.64827,3.51116 -13.89532,7.25527 -15.05307,3.69971c-1.64884,-5.06374 0.11768,-14.51534 -0.13629,-18.08241c-0.02093,-0.2939 5.37962,5.16307 5.61321,5.18211z" data-paper-data="{&quot;index&quot;:null}" fill="#915c9c" stroke="#3e0e6c" stroke-width="2.5"/><path d="M135.1771,119.88357c-1.23331,-3.3567 -6.7255,-11.24904 -7.30166,-16.54322c-0.40455,-3.71738 11.38794,-4.92239 15.24452,-2.80853c1.61596,0.88574 9.34983,4.64684 15.4765,9.15865c0.42904,0.31596 -0.40635,0.61868 0.02533,0.93745c8.17768,6.03865 20.49139,13.45165 20.50313,13.49552c0.26086,0.97522 -5.79901,12.12851 -11.44713,10.97999c-0.18098,-0.03681 -8.30855,-7.30172 -14.42415,-13.48184c-0.5525,-0.55831 -1.08733,-0.03155 -1.63573,-0.58488c-5.54692,-5.59688 -15.38686,-11.13311 -15.56612,-11.02691c-0.12868,0.07625 2.90215,2.40909 2.11518,2.84363c-0.20517,0.11329 -2.88828,7.30671 -2.98989,7.03015z" data-paper-data="{&quot;index&quot;:null}" fill="#915c9c" stroke="#3e0e6c" stroke-width="2.5"/><path d="M253.29372,174.74629c0.84019,3.47601 5.39091,11.9462 5.35603,17.2715c-0.02449,3.73923 -11.87736,3.58376 -15.46604,1.04153c-1.5037,-1.06522 -8.75515,-5.68854 -14.32391,-10.87329c-0.38997,-0.36308 0.47463,-0.56799 0.08235,-0.93417c-7.43111,-6.93674 -18.81333,-15.71315 -18.81996,-15.75807c-0.14728,-0.99871 7.15183,-11.38335 12.63094,-9.59459c0.17557,0.05732 7.41624,8.20648 12.78265,15.04726c0.48481,0.61801 1.07654,0.15605 1.55785,0.76863c4.86838,6.19616 14.00841,12.82444 14.19867,12.7395c0.13658,-0.06098 -2.60669,-2.72606 -1.77507,-3.06747c0.2168,-0.089 3.70726,-6.92721 3.77649,-6.64082z" data-paper-data="{&quot;index&quot;:null}" fill="#915c9c" stroke="#3e0e6c" stroke-width="2.5"/><path d="M236.43326,92.75296c-0.89483,-0.08617 0.95988,-3.43104 0.8115,-3.44989c-0.2067,-0.02625 -7.03769,8.96329 -9.90482,16.30311c-0.28345,0.72565 -0.98354,0.45468 -1.26879,1.18654c-3.15733,8.10097 -7.73011,17.99673 -7.88159,18.10239c-4.72712,3.29771 -14.71893,-4.53053 -14.86694,-5.52913c-0.00666,-0.04493 8.349,-11.73951 13.45492,-20.52981c0.26953,-0.46403 -0.61737,-0.40999 -0.34915,-0.87038c3.83022,-6.57434 9.43361,-13.0982 10.56474,-14.55298c2.69951,-3.47192 14.0003,-7.05058 15.10575,-3.4784c1.57435,5.08739 -0.33069,14.51204 -0.12909,18.08246c0.01661,0.29417 -5.30327,-5.24146 -5.53655,-5.26392z" data-paper-data="{&quot;index&quot;:null}" fill="#915c9c" stroke="#3e0e6c" stroke-width="2.5"/><path d="" data-paper-data="{&quot;index&quot;:null}" fill="#915c9c" stroke="#3e0e6c" stroke-width="2.5"/><g data-paper-data="{&quot;index&quot;:null}"><g><path d="M220.03384,139.85253c2.07227,15.51025 -8.53372,29.72527 -23.68916,31.75014c-15.15543,2.02487 -29.12126,-8.90718 -31.19353,-24.41743c-2.07227,-15.51025 8.53372,-29.72527 23.68915,-31.75013c15.15543,-2.02487 29.12126,8.90718 31.19353,24.41743z" fill="#762e36" stroke="#3e0e6c" stroke-width="2.5"/><g fill="#4e175c" stroke="none" stroke-width="0"><g><g><path d="M185.66078,121.19409c-0.30464,-0.98263 0.95519,-2.24393 2.81393,-2.81719c1.85874,-0.57325 3.61249,-0.24137 3.91713,0.74126c0.22726,0.73303 -1.63574,4.94897 -2.10787,5.09458c-0.84686,0.26118 -4.45735,-2.48374 -4.62319,-3.01867z"/><path d="M192.86406,119.05873c0.14889,-1.00598 1.83682,-1.51494 3.77006,-1.13679c1.93324,0.37814 3.37972,1.50019 3.23083,2.50616c-0.11107,0.75045 -3.6241,3.56432 -4.11514,3.46828c-0.88081,-0.17229 -2.9668,-4.29002 -2.88575,-4.83766z"/><path d="M200.33999,120.5422c0.37323,-0.93274 2.14146,-1.00539 3.94949,-0.16228c1.80803,0.84312 2.97116,2.28275 2.59794,3.21549c-0.27842,0.69583 -4.35523,2.53822 -4.81449,2.32406c-0.82377,-0.38414 -1.93612,-4.86949 -1.73294,-5.37726z"/><path d="M210.9442,125.60247c1.27452,1.59603 1.70627,3.40953 0.96436,4.05053c-0.55345,0.47819 -5.04681,0.1618 -5.37055,-0.24361c-0.58069,-0.72718 0.35123,-5.1872 0.75512,-5.53616c0.74191,-0.641 2.37655,0.1332 3.65107,1.72924z"/><path d="M213.08026,129.84487c0.94874,-0.21579 2.103,1.23154 2.57814,3.2327c0.47514,2.00117 0.0912,3.79836 -0.85753,4.01416c-0.70775,0.16097 -4.65626,-2.22427 -4.77694,-2.73257c-0.21648,-0.91177 2.53988,-4.39682 3.05635,-4.51429z"/></g><g data-paper-data="{&quot;index&quot;:null}"><path d="M185.50386,120.93058c0.16584,0.53493 -1.26099,4.83338 -2.10786,5.09457c-0.47213,0.14561 -4.39593,-2.28561 -4.6232,-3.01865c-0.30464,-0.98263 0.95518,-2.24393 2.81392,-2.81719c1.85874,-0.57325 3.61249,-0.24137 3.91714,0.74126z"/><path d="M178.34938,123.22329c0.37684,0.40641 0.98533,4.97982 0.35576,5.61794c-0.35099,0.35574 -4.84333,0.01079 -5.35973,-0.54613c-0.69222,-0.74657 -0.13322,-2.48712 1.24859,-3.88766c1.3818,-1.40054 3.06315,-1.9307 3.75537,-1.18414z"/><path d="M173.01787,128.65674c0.45509,0.30475 2.07533,4.63347 1.61275,5.41434c-0.2579,0.43533 -4.66582,1.2097 -5.28944,0.79209c-0.83596,-0.55982 -0.69057,-2.403 0.32471,-4.11685c1.01529,-1.71385 2.51601,-2.64938 3.35198,-2.08956z"/><path d="M169.16351,135.32089c0.53088,0.06067 3.82426,3.21759 3.75648,4.14475c-0.03779,0.51689 -3.56782,3.30778 -4.2953,3.22465c-0.97518,-0.11144 -1.64511,-1.85147 -1.49632,-3.88647c0.14879,-2.035 1.05996,-3.59437 2.03515,-3.48293z"/><path d="M167.76606,143.50832c0.49281,-0.1938 4.7404,1.13116 5.07772,2.00566c0.18804,0.48753 -1.72138,4.67942 -2.3967,4.945c-0.90527,0.356 -2.2393,-0.91137 -2.97963,-2.83074c-0.74033,-1.91937 -0.60664,-3.76393 0.29863,-4.11992z"/></g></g><g data-paper-data="{&quot;index&quot;:null}"><g><path d="M198.63749,165.9656c-0.15289,-0.53877 1.37615,-4.80528 2.22873,-5.04723c0.47531,-0.13489 4.33819,2.38584 4.5477,3.12414c0.28086,0.98968 -1.0084,2.22247 -2.87966,2.75352c-1.87127,0.53105 -3.61591,0.15925 -3.89677,-0.83042z"/><path d="M205.84227,163.83532c-0.36684,-0.41504 -0.8652,-5.0028 -0.22072,-5.62666c0.3593,-0.3478 4.84037,0.09933 5.34307,0.66807c0.67386,0.76239 0.07345,2.49044 -1.34104,3.85972c-1.4145,1.36928 -3.10745,1.86127 -3.78131,1.09887z"/><path d="M211.30063,158.5225c-0.44748,-0.31514 -1.96277,-4.6812 -1.48176,-5.45163c0.26816,-0.42952 4.69176,-1.10375 5.30495,-0.67189c0.82197,0.57888 0.63246,2.41899 -0.42328,4.10995c-1.05575,1.69096 -2.57794,2.59247 -3.3999,2.01358z"/><path d="M215.31237,151.94523c-0.52907,-0.07274 -3.74451,-3.30491 -3.65452,-4.23065c0.05017,-0.5161 3.64482,-3.22703 4.36983,-3.12734c0.97188,0.13363 1.59961,1.88908 1.40208,3.92093c-0.19753,2.03185 -1.14552,3.57068 -2.11738,3.43706z"/><path d="M216.90536,143.78862c-0.49714,0.18261 -4.71013,-1.23909 -5.02623,-2.12136c-0.17622,-0.49185 1.83253,-4.6408 2.51378,-4.89105c0.91321,-0.33545 2.21594,0.96239 2.90974,2.89881c0.6938,1.93642 0.51592,3.77815 -0.39729,4.11359z"/></g><g data-paper-data="{&quot;index&quot;:null}"><path d="M195.77007,169.02545c-1.87127,0.53105 -3.6159,0.15926 -3.89676,-0.83041c-0.20953,-0.7383 1.75342,-4.91235 2.22873,-5.04724c0.85258,-0.24195 4.39481,2.58537 4.5477,3.12414c0.28086,0.98968 -1.00841,2.22246 -2.87967,2.75352z"/><path d="M187.60513,169.29492c-1.92289,-0.42215 -3.34151,-1.57722 -3.16857,-2.57992c0.12901,-0.74801 3.70723,-3.48231 4.19566,-3.37508c0.87611,0.19233 2.8619,4.35797 2.76776,4.90383c-0.17295,1.0027 -1.87195,1.47334 -3.79484,1.05119z"/><path d="M180.01381,166.66255c-1.78659,-0.88433 -2.91442,-2.35057 -2.51906,-3.27493c0.29494,-0.68957 4.41327,-2.43947 4.86707,-2.21484c0.81399,0.40291 1.81798,4.91408 1.60276,5.4173c-0.39536,0.92436 -2.16418,0.95682 -3.95077,0.07248z"/><path d="M173.4888,161.28807c-1.23537,-1.62521 -1.62331,-3.44871 -0.86651,-4.07292c0.56456,-0.46566 5.04736,-0.04705 5.36116,0.36576c0.56285,0.74047 -0.47547,5.17982 -0.88746,5.51964c-0.7568,0.62421 -2.3718,-0.18726 -3.60717,-1.81247z"/><path d="M168.9571,153.70492c-0.4268,-2.0122 0.00001,-3.80087 0.95329,-3.99511c0.71114,-0.1449 4.59983,2.3304 4.70824,2.8415c0.19446,0.91679 -2.64373,4.33955 -3.16267,4.4453c-0.95328,0.19424 -2.07205,-1.27949 -2.49885,-3.29169z"/></g></g></g><g><path d="M173.97797,145.86978c-1.36798,-10.23878 5.75986,-19.63946 15.92044,-20.99698c10.16058,-1.35753 19.50634,5.84217 20.8743,16.08096c1.36798,10.23878 -5.75986,19.63946 -15.92044,20.99698c-10.16058,1.35753 -19.50633,-5.84217 -20.8743,-16.08095z" fill="url(#color-2)" stroke="#3e0e6c" stroke-width="2.5"/><path d="M176.04122,145.59412c-1.21455,-9.09051 5.11389,-17.43691 14.13497,-18.64218c9.02108,-1.20527 17.3187,5.18697 18.53326,14.27748c1.21455,9.09051 -5.1139,17.43691 -14.13497,18.64218c-9.02108,1.20527 -17.31871,-5.18698 -18.53326,-14.27749z" fill="url(#color-3)" stroke="none" stroke-width="0"/><path d="M177.28673,145.42771c-1.12194,-8.39735 4.72395,-16.10731 13.05715,-17.22068c8.33321,-1.11338 15.99813,4.79146 17.12007,13.1888c1.12194,8.39735 -4.72395,16.1073 -13.05716,17.22068c-8.33321,1.11338 -15.99812,-4.79146 -17.12007,-13.1888z" fill="url(#color-4)" stroke="none" stroke-width="0"/></g><path d="M161.49649,148.77188c-1.24713,-9.33438 1.23089,-17.94061 6.43645,-24.35946c0.3062,-0.37757 -0.52855,-0.96752 -0.20369,-1.32964c4.68712,-5.22474 12.44678,-8.5923 20.36847,-9.6507c0.61055,-0.08157 1.27777,-1.09064 1.87946,-1.14281c9.31508,-0.80792 17.72144,2.30789 23.66685,7.84419c0.39946,0.37197 1.081,0.1549 1.45745,0.54802c4.45418,4.65147 6.99344,11.36843 7.96034,18.60533c0.1236,0.92509 1.57778,0.91168 1.62302,1.81921c0.38321,7.6866 -2.20189,15.68425 -6.96069,21.40486c-0.42574,0.51179 -0.97258,0.22909 -1.43072,0.71622c-5.27996,5.61403 -12.66408,9.54203 -21.05226,10.66276c-0.57079,0.07626 -1.10674,0.40019 -1.67691,0.45036c-11.73111,1.03207 -22.77892,-4.26166 -28.42574,-12.09542c-0.60129,-0.83415 0.68844,-0.68001 0.17353,-1.59857c-1.9135,-3.41352 -3.21758,-7.39885 -3.81554,-11.87434zM196.02987,168.54727c13.68551,-1.82848 23.29753,-14.40504 21.46906,-28.09056c-1.82848,-13.68552 -14.40505,-23.29753 -28.09056,-21.46906c-13.68551,1.82848 -23.29753,14.40505 -21.46906,28.09056c1.82848,13.68552 14.40505,23.29753 28.09056,21.46906z" fill="#75587b" stroke="#3e0e6c" stroke-width="2.5"/><g fill="#ffe1da" stroke="#3e0e6c" stroke-width="2.5"><g><g><path d="M192.10755,116.60495c2.0326,-0.31854 3.81819,0.29451 3.98827,1.3693c0.12686,0.80179 -2.46198,4.93295 -2.97826,5.01385c-0.92609,0.14514 -4.28984,-3.27519 -4.38242,-3.8603c-0.17007,-1.07479 1.33981,-2.20432 3.37241,-2.52286z"/><path d="M196.59915,117.98358c0.30825,-1.03052 2.1523,-1.30764 4.11878,-0.61895c1.96648,0.6887 3.31075,2.08238 3.00249,3.1129c-0.22996,0.76876 -4.3337,3.18225 -4.83319,3.00732c-0.89596,-0.31378 -2.4559,-4.94028 -2.28809,-5.50128z"/><path d="M204.20043,120.66894c0.53198,-0.91989 2.39403,-0.72809 4.15899,0.42837c1.76496,1.15647 2.7645,2.83969 2.23252,3.75957c-0.39687,0.68623 -4.94364,1.99737 -5.39195,1.70362c-0.80415,-0.52691 -1.28918,-5.39078 -0.99957,-5.89155z"/><path d="M214.53467,127.57241c1.09243,1.86383 1.2697,3.82763 0.39596,4.38627c-0.65181,0.41674 -5.30764,-0.59509 -5.58512,-1.06851c-0.49772,-0.8492 1.15341,-5.37689 1.62906,-5.68101c0.87374,-0.55864 2.46767,0.49942 3.56009,2.36325z"/><path d="M216.12814,132.33701c1.02583,-0.08218 2.01492,1.60776 2.20917,3.77459c0.19425,2.16683 -0.4799,3.99003 -1.50574,4.07221c-0.76527,0.06131 -4.53737,-3.03371 -4.58671,-3.58409c-0.08851,-0.98725 3.32483,-4.21796 3.88327,-4.26271z"/></g><g data-paper-data="{&quot;index&quot;:null}"><path d="M188.61077,118.8282c0.09258,0.5851 -2.05218,4.86871 -2.97826,5.01385c-0.51628,0.08091 -4.25555,-3.0585 -4.38242,-3.8603c-0.17007,-1.07479 1.33981,-2.20432 3.3724,-2.52286c2.0326,-0.31854 3.81821,0.29452 3.98828,1.36931z"/><path d="M180.774,120.14456c0.33292,0.48253 0.27715,5.36225 -0.47855,5.93487c-0.4213,0.31924 -5.07175,-0.72234 -5.52796,-1.38356c-0.61157,-0.88637 0.23728,-2.62375 1.89592,-3.88057c1.65865,-1.25681 3.49903,-1.55711 4.11059,-0.67075z"/><path d="M174.36984,125.02482c0.43024,0.38796 1.47065,5.16479 0.86813,5.91215c-0.33591,0.41664 -5.06752,0.5596 -5.65709,0.02796c-0.79031,-0.71266 -0.3589,-2.62012 0.96352,-4.26044c1.32243,-1.64031 3.03514,-2.39232 3.82545,-1.67967z"/><path d="M169.32554,131.41718c0.54654,0.14392 3.51594,3.94752 3.30454,4.90784c-0.11785,0.53538 -4.23592,2.92224 -4.98487,2.72502c-1.00396,-0.26438 -1.44171,-2.18736 -0.97769,-4.2951c0.46402,-2.10775 1.65406,-3.60212 2.65802,-3.33775z"/><path d="M166.62248,139.77631c0.54524,-0.12822 4.79102,1.90218 5.01166,2.86872c0.123,0.53884 -2.51079,4.63778 -3.25797,4.8135c-1.00157,0.23554 -2.20611,-1.29323 -2.69037,-3.41461c-0.48426,-2.12138 -0.06491,-4.03205 0.93667,-4.26759z"/></g></g><g data-paper-data="{&quot;index&quot;:null}"><g><path d="M195.53773,167.96135c-0.07844,-0.58716 2.16847,-4.82183 3.09762,-4.94598c0.518,-0.06921 4.17992,3.15468 4.28743,3.95929c0.14411,1.07856 -1.39228,2.17379 -3.4316,2.44626c-2.03932,0.27247 -3.80933,-0.381 -3.95344,-1.45956z"/><path d="M203.40256,166.82266c-0.32114,-0.49003 -0.1479,-5.36811 0.62124,-5.92357c0.4288,-0.30966 5.05198,0.83717 5.49206,1.50868c0.58994,0.90015 -0.30034,2.61818 -1.98849,3.83731c-1.68815,1.21913 -3.53488,1.47772 -4.12481,0.57756z"/><path d="M209.92126,162.08786c-0.42068,-0.39768 -1.34559,-5.1977 -0.72536,-5.93135c0.34579,-0.409 5.07863,-0.44475 5.65513,0.10021c0.77277,0.73051 0.29565,2.62805 -1.06566,4.23827c-1.36131,1.61022 -3.09134,2.32337 -3.86411,1.59287z"/><path d="M215.11712,155.81029c-0.54283,-0.15629 -3.41924,-4.02685 -3.1848,-4.98231c0.1307,-0.53266 4.30431,-2.82603 5.04816,-2.61186c0.99715,0.2871 1.38835,2.21984 0.87379,4.31691c-0.51456,2.09707 -1.74002,3.56436 -2.73716,3.27725z"/><path d="M218.02021,147.51307c-0.54807,0.11586 -4.74298,-2.01058 -4.94025,-2.98203c-0.10997,-0.5416 2.62131,-4.58052 3.37236,-4.7393c1.00678,-0.21283 2.17392,1.34311 2.60689,3.4753c0.43296,2.13219 -0.03223,4.0332 -1.039,4.24603z"/></g><g data-paper-data="{&quot;index&quot;:null}"><path d="M192.07256,170.73013c-2.03932,0.27247 -3.80934,-0.381 -3.95344,-1.45956c-0.10749,-0.80461 2.57962,-4.87677 3.09762,-4.94598c0.92915,-0.12414 4.20897,3.37213 4.28743,3.95929c0.14411,1.07856 -1.39227,2.17379 -3.43159,2.44625z"/><path d="M183.48449,169.77544c-1.94898,-0.73319 -3.25906,-2.15723 -2.92614,-3.18068c0.24835,-0.76348 4.4083,-3.08382 4.90335,-2.89759c0.88799,0.33405 2.33579,4.99554 2.15455,5.55269c-0.33293,1.02345 -2.18278,1.25877 -4.13177,0.52558z"/><path d="M175.93643,165.86993c-1.7363,-1.19637 -2.69483,-2.90209 -2.14095,-3.80986c0.4132,-0.67718 4.98943,-1.8852 5.43047,-1.58132c0.79109,0.54508 1.15876,5.41956 0.85724,5.91372c-0.55388,0.90775 -2.41045,0.67381 -4.14675,-0.52256z"/><path d="M169.92,159.25542c-1.04705,-1.88843 -1.17695,-3.85609 -0.29016,-4.39489c0.66154,-0.40194 5.29083,0.7153 5.55679,1.19497c0.47704,0.8604 -1.28236,5.35034 -1.76511,5.64365c-0.88679,0.53881 -2.45448,-0.5553 -3.50152,-2.44374z"/><path d="M166.32475,150.63076c-0.14198,-2.17107 0.57575,-3.97884 1.60309,-4.03778c0.76639,-0.04397 4.46221,3.13627 4.49828,3.68773c0.06469,0.98918 -3.42484,4.14231 -3.98411,4.17439c-1.02734,0.05894 -1.97528,-1.65327 -2.11726,-3.82434z"/></g></g></g></g><path d="M193.4503,143.7401c0.45761,3.425 0.52207,10.37817 0.28444,10.40991c-0.24601,0.03287 -2.01138,-6.77355 -2.45843,-10.11946c-0.48611,-3.63837 -0.49949,-10.38118 -0.28444,-10.4099c0.17034,-0.02276 1.91593,6.05898 2.45843,10.11944z" fill="#3e0e6c" stroke="none" stroke-width="0"/></g></g></g></svg>