<svg version="1.1" xmlns="http://www.w3.org/2000/svg" xmlns:xlink="http://www.w3.org/1999/xlink" width="237.44565" height="170.10064" viewBox="0,0,237.44565,170.10064"><defs><linearGradient x1="320.00001" y1="180.00005" x2="320.00001" y2="180.00005" gradientUnits="userSpaceOnUse" id="color-1"><stop offset="0" stop-color="#67497d"/><stop offset="1" stop-color="#553783"/></linearGradient><linearGradient x1="320.00001" y1="180.00004" x2="320.00001" y2="180.00004" gradientUnits="userSpaceOnUse" id="color-2"><stop offset="0" stop-color="#67497d"/><stop offset="1" stop-color="#553783"/></linearGradient></defs><g transform="translate(-25.09212,-133.72127)"><g data-paper-data="{&quot;isPaintingLayer&quot;:true}" fill-rule="nonzero" stroke-linejoin="miter" stroke-miterlimit="10" stroke-dasharray="" stroke-dashoffset="0" style="mix-blend-mode: normal"><g><g data-paper-data="{&quot;index&quot;:null}" stroke="#541287" stroke-width="2.5" stroke-linecap="butt"><path d="" fill="#e5c2ff"/><path d="" fill="#9951b7"/></g><path d="" fill="#725580" stroke="#541287" stroke-width="2.5" stroke-linecap="butt"/><path d="" fill="#6d3e90" stroke="none" stroke-width="0" stroke-linecap="butt"/><path d="" fill="#725580" stroke="none" stroke-width="0" stroke-linecap="butt"/><path d="" fill="#9857ca" stroke="none" stroke-width="0" stroke-linecap="butt"/><path d="" fill="none" stroke="#541287" stroke-width="2.5" stroke-linecap="butt"/><path d="" fill="#9468de" stroke="#541287" stroke-width="2.5" stroke-linecap="butt"/><path d="" fill="#e5c2ff" stroke="#541287" stroke-width="2.5" stroke-linecap="butt"/><g stroke-linecap="butt"><g stroke="#541287" stroke-width="2.5"><path d="" fill="#9d7bb5"/><path d="" fill="#9d7bb5"/><path d="" fill="url(#color-1)"/></g><path d="" fill="#541287" stroke="none" stroke-width="0"/><path d="" fill="#ca80ff" stroke="#541287" stroke-width="2.5"/></g><g stroke="#541287" stroke-width="2.5" stroke-linecap="butt"><path d="" fill="#e5c2ff"/><path d="" fill="#9951b7"/></g><g data-paper-data="{&quot;index&quot;:null}" stroke="#541287" stroke-width="2.5" stroke-linecap="butt"><path d="" fill="#e5c2ff"/><path d="" fill="#9951b7"/></g><path d="" fill="#725580" stroke="#541287" stroke-width="2.5" stroke-linecap="butt"/><path d="" fill="#6d3e90" stroke="none" stroke-width="0" stroke-linecap="butt"/><path d="" fill="#725580" stroke="none" stroke-width="0" stroke-linecap="butt"/><path d="" fill="#9857ca" stroke="none" stroke-width="0" stroke-linecap="butt"/><path d="" fill="none" stroke="#541287" stroke-width="2.5" stroke-linecap="butt"/><path d="" fill="#9468de" stroke="#541287" stroke-width="2.5" stroke-linecap="butt"/><path d="" fill="#e5c2ff" stroke="#541287" stroke-width="2.5" stroke-linecap="butt"/><g stroke-linecap="butt"><g stroke="#541287" stroke-width="2.5"><path d="" fill="#9d7bb5"/><path d="" fill="#9d7bb5"/><path d="" fill="url(#color-2)"/></g><path d="" fill="#541287" stroke="none" stroke-width="0"/><path d="" fill="#ca80ff" stroke="#541287" stroke-width="2.5"/></g><g stroke="#541287" stroke-width="2.5" stroke-linecap="butt"><path d="" fill="#e5c2ff"/><path d="" fill="#9951b7"/></g><g stroke-linecap="butt"><path d="" data-paper-data="{&quot;index&quot;:null}" fill="#54002b" stroke="none" stroke-width="0"/><path d="" data-paper-data="{&quot;index&quot;:null}" fill="#54002b" stroke="none" stroke-width="0"/><path d="" data-paper-data="{&quot;index&quot;:null}" fill="#54002b" stroke="none" stroke-width="0"/><path d="" data-paper-data="{&quot;index&quot;:null}" fill="#ff5971" stroke="#54002b" stroke-width="2.5"/><path d="" data-paper-data="{&quot;index&quot;:null}" fill="#54002b" stroke="none" stroke-width="0"/></g><path d="" data-paper-data="{&quot;index&quot;:null}" fill="#ff8dae" stroke="#54002b" stroke-width="2.5" stroke-linecap="butt"/><path d="" data-paper-data="{&quot;index&quot;:null}" fill="#ff8dae" stroke="#54002b" stroke-width="2.5" stroke-linecap="butt"/><path d="" data-paper-data="{&quot;index&quot;:null}" fill="#ff8dae" stroke="#54002b" stroke-width="2.5" stroke-linecap="butt"/><g data-paper-data="{&quot;index&quot;:null}" fill="#54002b" stroke="none" stroke-width="0" stroke-linecap="butt"><path d=""/><path d=""/></g><g data-paper-data="{&quot;index&quot;:null}" fill="#54002b" stroke="none" stroke-width="0" stroke-linecap="butt"><path d=""/><path d=""/></g><path d="" fill="none" stroke="#54002b" stroke-width="2.5" stroke-linecap="round"/><path d="" fill="none" stroke="#54002b" stroke-width="2.5" stroke-linecap="round"/><path d="M25.09212,303.82191v-170.10064h237.44565v170.10064z" fill="none" stroke="none" stroke-width="0" stroke-linecap="butt"/><g><path d="M199.00641,240.81182c0,-5.12384 -23.36379,-29.21437 -16.87722,-29.21437c2.74478,0 34.08923,20.87796 36.08884,22.12423c2.72594,1.69896 7.33371,11.26832 7.13891,11.93845c-0.66407,2.28448 -8.60306,-3.84858 -8.17383,-0.60461c0.4117,3.11157 -2.13011,8.98171 -3.27342,8.98171c-2.97326,0 -5.16768,-1.70218 -7.95554,-4.03954c-0.6785,-0.56886 -5.51752,4.35171 -6.19144,3.72299c-2.59808,-2.42383 -0.7563,-10.70526 -0.7563,-12.90888z" fill="#ffffff" stroke="#3e0e6c" stroke-width="2.5" stroke-linecap="butt"/><path d="M158.99925,226.43383c-2.07946,0 -8.94728,-6.06181 -18.33706,-8.27207c-4.69735,-1.10571 -11.43183,1.56443 -15.69954,0.81126c-13.80776,-2.43683 -18.13141,-13.93868 -26.45001,-18.72975c-7.32886,-4.22103 -14.85404,2.35026 -14.32916,1.53818c1.8454,-2.85516 10.08292,-10.73451 16.26524,-8.03167c5.95009,2.60132 14.5119,10.57173 17.51169,9.74158c9.73965,-2.69532 14.74221,-8.20938 24.61589,-7.71666c16.99202,0.84793 33.535,18.8278 33.535,20.93103c0,5.37267 -7.66132,9.72809 -17.11205,9.72809z" fill="#ffffff" stroke="#3e0e6c" stroke-width="2.5" stroke-linecap="butt"/><path d="M171.42306,218.46381c-4.80348,0 -21.11283,-4.64429 -32.73045,-9.99439c-8.81736,-4.06053 -14.23646,-8.627 -13.89252,-11.3038c0.0442,-0.34399 1.63755,-0.68069 1.92554,-1.71833c0.32767,-1.18062 -2.0267,-3.29592 -1.49847,-3.4421c9.73965,-2.69532 22.00897,-3.52115 31.88265,-3.02843c16.99202,0.84794 22.51766,13.90517 22.51766,16.0084c0,5.37267 1.24632,13.47867 -8.20441,13.47867z" fill="#ffffff" stroke="#3e0e6c" stroke-width="2.5" stroke-linecap="butt"/><path d="M91.36213,222.45411c-8.39711,0 -13.81622,3.39867 -16.90691,8.3594c-0.28884,0.4636 1.2192,-0.04612 0.9705,0.44328c-0.86255,1.69734 -3.2634,4.52772 -3.67159,6.45467c-0.18258,0.86189 2.04681,-0.62824 1.94873,0.26148c-0.3564,3.23295 -2.53677,8.9814 -1.89863,12.2394c0.23515,1.20052 2.60025,-1.31513 3.08797,-0.08868c2.54816,6.40768 5.75822,16.33655 5.09977,16.19091c-7.08871,-1.56784 -32.23915,-13.97466 -34.48789,-21.79107c-3.97738,-13.82496 13.74086,-37.9595 28.65991,-38.61954c0.46399,-0.02054 -0.64631,4.7065 -0.17257,4.7065c17.08383,0 40.22662,-1.13431 58.77635,1.51472c11.51685,1.64469 23.9319,6.80993 23.9319,8.355c0,1.54625 -9.94498,0.80952 -21.91021,1.01932c-18.95003,0.33228 -43.26517,0.95462 -43.42734,0.95462z" fill="#ffffff" stroke="#3e0e6c" stroke-width="2.5" stroke-linecap="butt"/><path d="M172.02372,202.25818c12.84383,0 23.25581,10.9158 23.25581,24.3811c0,13.4653 -10.41198,24.38109 -23.25581,24.38109c-12.84383,0 -23.98761,-11.09873 -23.98761,-24.56404c0,-13.46531 11.14378,-24.19815 23.98761,-24.19815z" fill="#ffffff" stroke="#3e0e6c" stroke-width="2.5" stroke-linecap="butt"/><path d="M187.79522,230.52091c0,0 -2.67291,20.8665 -22.5418,16.88725c-17.2436,-3.45347 -14.25413,-24.671 -14.25413,-24.671" fill="none" stroke="#3e0e6c" stroke-width="2.5" stroke-linecap="round"/><path d="M136.80084,213.06078l-3.00043,-6.85812" fill="none" stroke="#3e0e6c" stroke-width="2.5" stroke-linecap="round"/><path d="M146.01644,214.34667l-2.14316,-3.00043" fill="none" stroke="#3e0e6c" stroke-width="2.5" stroke-linecap="round"/><g fill="#3e0e6c" stroke="none" stroke-width="0" stroke-linecap="butt"><path d="M169.13318,225.15219c0,4.64852 -3.65532,8.41688 -8.16437,8.41688c-4.50906,0 -8.16437,-3.76837 -8.16437,-8.41688c0,-4.64852 3.65532,-8.41688 8.16437,-8.41688c4.50906,0 8.16437,3.76837 8.16437,8.41688z"/><path d="M184.78858,228.85562c0,4.64852 -3.65532,8.41688 -8.16437,8.41688c-4.50906,0 -8.16437,-3.76837 -8.16437,-8.41688c0,-4.64852 3.65532,-8.41688 8.16437,-8.41688c4.50906,0 8.16437,3.76837 8.16437,8.41688z"/></g></g></g></g></g></svg>