<svg version="1.1" xmlns="http://www.w3.org/2000/svg" xmlns:xlink="http://www.w3.org/1999/xlink" width="45.26611" height="45.26611" viewBox="0,0,45.26611,45.26611"><g transform="translate(-297.36695,-157.20822)"><g data-paper-data="{&quot;isPaintingLayer&quot;:true}" fill-rule="nonzero" stroke-linecap="butt" stroke-linejoin="miter" stroke-miterlimit="10" stroke-dasharray="" stroke-dashoffset="0" style="mix-blend-mode: normal"><path d="M298.61695,179.84127c0,-11.80953 9.57351,-21.38305 21.38305,-21.38305c11.80953,0 21.38305,9.57351 21.38305,21.38305c0,11.80953 -9.57351,21.38305 -21.38305,21.38305c-11.80953,0 -21.38305,-9.57351 -21.38305,-21.38305z" fill-opacity="0.4" fill="#3e0080" stroke="#fedbff" stroke-width="2.5"/><g fill="#fedbff" stroke="none" stroke-width="0"><path d="M312.27456,179.84127c0,-4.26664 3.4588,-7.72544 7.72544,-7.72544c4.26664,0 7.72544,3.4588 7.72544,7.72544c0,4.26664 -3.4588,7.72544 -7.72544,7.72544c-4.26664,0 -7.72544,-3.4588 -7.72544,-7.72544z"/><g><path d="M308.1339,190.80643c-4.75325,0 -4.75325,-21.93031 0,-21.93031c2.64788,0 5.01649,1.52347 6.59527,3.91994c-2.30926,1.66273 -3.8128,4.37443 -3.8128,7.43729c0,2.90104 1.34886,5.48704 3.45362,7.16506c-1.56784,2.09939 -3.78202,3.408 -6.23609,3.408z" data-paper-data="{&quot;index&quot;:null}"/><path d="M331.8661,168.87611c4.75325,0 4.75325,21.93031 0,21.93031c-2.42517,0 -4.61606,-1.27797 -6.18043,-3.33416c2.15845,-1.67545 3.54748,-4.29496 3.54748,-7.23891c0,-3.10756 -1.54773,-5.85363 -3.91439,-7.5094c1.57857,-2.35489 3.92611,-3.84783 6.54734,-3.84783z" data-paper-data="{&quot;index&quot;:null}"/></g></g><text transform="translate(314.42869,198.48751) scale(0.25452,0.25452)" font-size="40" xml:space="preserve" fill="#fedbff" fill-rule="nonzero" stroke="none" stroke-width="1" stroke-linecap="butt" stroke-linejoin="miter" stroke-miterlimit="10" stroke-dasharray="" stroke-dashoffset="0" font-family="&quot;Neon&quot;, Sans Serif" font-weight="normal" text-anchor="start" style="mix-blend-mode: normal"><tspan x="0" dy="0">TP</tspan></text></g></g></svg>