<svg version="1.1" xmlns="http://www.w3.org/2000/svg" xmlns:xlink="http://www.w3.org/1999/xlink" width="73.38852" height="81.94057" viewBox="0,0,73.38852,81.94057"><g transform="translate(-297.4037,-136.4827)"><g data-paper-data="{&quot;isPaintingLayer&quot;:true}" fill-rule="nonzero" stroke-linecap="butt" stroke-linejoin="miter" stroke-miterlimit="10" stroke-dasharray="" stroke-dashoffset="0" style="mix-blend-mode: normal"><g><path d="M342.54351,175.66669h18.66667v8.66667h-18.66667z" fill="#8b65ae" stroke="#5c00aa" stroke-width="2.5"/><path d="M336.30542,170.66669c5.15466,0 9.33334,4.17867 9.33334,9.33333c0,5.15466 -4.17867,9.33333 -9.33334,9.33333c-5.15466,0 -9.33334,-4.17867 -9.33334,-9.33333c0,-5.15466 4.17867,-9.33333 9.33334,-9.33333z" fill="#a17cc4" stroke="#5c00aa" stroke-width="2.5"/><path d="M328.23229,160.84441c2.57273,1.38506 15.94464,8.58198 16.02348,8.83246c0.1916,0.60878 -5.86273,6.97243 -5.76306,7.91985c0.08882,0.84422 0.30695,1.87621 0.30695,2.74813c0,0.82702 -0.04113,1.64293 -0.12116,2.44516c-0.09829,0.98526 5.78593,7.01517 5.69537,7.24242c-0.18093,0.45398 -11.75912,6.25558 -14.59607,8.18446c-2.7142,1.84542 -5.87715,2.90382 -9.254,2.90382c-10.09348,0 -17.06897,-9.28364 -17.06897,-20.94828c0,-11.66463 6.97549,-21.29311 17.06897,-21.29311c2.75428,0 5.36624,0.70412 7.70849,1.96508z" data-paper-data="{&quot;index&quot;:null}" fill="#b867ff" stroke="#5c00aa" stroke-width="2.5"/><path d="M338.79966,180.34485c0,0.82702 -0.04113,1.64293 -0.12116,2.44516c-0.09829,0.98526 5.78593,7.01517 5.69537,7.24242c-0.18093,0.45398 -11.75912,6.25558 -14.59607,8.18446c-2.7142,1.84542 -5.87715,2.90382 -9.254,2.90382c-10.09348,0 -17.06897,-9.28364 -17.06897,-20.94828c0,-0.01803 4.35231,2.52073 4.63114,2.51563c0.77229,-0.01412 1.91208,-3.04569 2.84833,-3.08878c0.34841,-0.01603 6.07919,3.28377 6.4385,3.27021c1.0393,-0.03921 3.24598,-3.45695 4.27828,-3.54055c0.69889,-0.05659 4.18514,2.73894 4.85466,2.71241c1.1326,-0.04487 3.081,-2.55095 4.01989,-2.66285c0.2118,-0.02524 3.43668,2.40333 3.6773,2.38288c0.52208,-0.04436 4.59673,-1.55816 4.59673,-1.41655z" data-paper-data="{&quot;index&quot;:null}" fill="#ffc374" stroke="none" stroke-width="0"/><path d="M328.23229,160.84441c2.57273,1.38506 15.94464,8.58198 16.02348,8.83246c0.1916,0.60878 -5.86273,6.97243 -5.76306,7.91985c0.08882,0.84422 0.30695,1.87621 0.30695,2.74813c0,0.82702 -0.04113,1.64293 -0.12116,2.44516c-0.09829,0.98526 5.78593,7.01517 5.69537,7.24242c-0.18093,0.45398 -11.75912,6.25558 -14.59607,8.18446c-2.7142,1.84542 -5.87715,2.90382 -9.254,2.90382c-10.09348,0 -17.06897,-9.28364 -17.06897,-20.94828c0,-11.66463 6.97549,-21.29311 17.06897,-21.29311c2.75428,0 5.36624,0.70412 7.70849,1.96508z" data-paper-data="{&quot;index&quot;:null}" fill="none" stroke="#5c00aa" stroke-width="2.5"/><path d="M359.68636,173.28574h4.85715v13.42857h-4.85715z" fill="#a17cc4" stroke="#5c00aa" stroke-width="2.5"/></g><path d="M297.4037,218.42327v-81.94057h73.38852v81.94057z" fill="none" stroke="none" stroke-width="0"/></g></g></svg>