<svg version="1.1" xmlns="http://www.w3.org/2000/svg" xmlns:xlink="http://www.w3.org/1999/xlink" width="109.13531" height="109.28831" viewBox="0,0,109.13531,109.28831"><defs><linearGradient x1="357.99371" y1="204.44456" x2="389.64409" y2="199.01404" gradientUnits="userSpaceOnUse" id="color-1"><stop offset="0" stop-color="#887aff"/><stop offset="1" stop-color="#e27aff"/></linearGradient><linearGradient x1="410.86645" y1="195.30257" x2="383.02269" y2="200.34158" gradientUnits="userSpaceOnUse" id="color-2"><stop offset="0" stop-color="#887aff"/><stop offset="1" stop-color="#e27aff"/></linearGradient><linearGradient x1="399.14886" y1="224.551" x2="427.22243" y2="294.15199" gradientUnits="userSpaceOnUse" id="color-3"><stop offset="0" stop-color="#55389c"/><stop offset="1" stop-color="#3c50a8"/></linearGradient><linearGradient x1="399.14886" y1="224.551" x2="427.22243" y2="294.15199" gradientUnits="userSpaceOnUse" id="color-4"><stop offset="0" stop-color="#55389c"/><stop offset="1" stop-color="#3c50a8"/></linearGradient><linearGradient x1="399.14886" y1="224.551" x2="427.22243" y2="294.15199" gradientUnits="userSpaceOnUse" id="color-5"><stop offset="0" stop-color="#55389c"/><stop offset="1" stop-color="#3c50a8"/></linearGradient><linearGradient x1="373.37208" y1="230.51815" x2="370.54209" y2="305.99352" gradientUnits="userSpaceOnUse" id="color-6"><stop offset="0" stop-color="#55389c"/><stop offset="1" stop-color="#3c50a8"/></linearGradient><linearGradient x1="373.37208" y1="230.51815" x2="370.54209" y2="305.99352" gradientUnits="userSpaceOnUse" id="color-7"><stop offset="0" stop-color="#55389c"/><stop offset="1" stop-color="#3c50a8"/></linearGradient><linearGradient x1="373.37208" y1="230.51815" x2="370.54209" y2="305.99352" gradientUnits="userSpaceOnUse" id="color-8"><stop offset="0" stop-color="#55389c"/><stop offset="1" stop-color="#3c50a8"/></linearGradient><linearGradient x1="387.70132" y1="226.90852" x2="395.44037" y2="272.06503" gradientUnits="userSpaceOnUse" id="color-9"><stop offset="0" stop-color="#55389c"/><stop offset="1" stop-color="#3c50a8"/></linearGradient><linearGradient x1="387.70132" y1="226.90852" x2="395.44037" y2="272.06503" gradientUnits="userSpaceOnUse" id="color-10"><stop offset="0" stop-color="#55389c"/><stop offset="1" stop-color="#3c50a8"/></linearGradient></defs><g transform="translate(-327.43708,-148.22817)"><g data-paper-data="{&quot;isPaintingLayer&quot;:true}" fill-rule="nonzero" stroke-linejoin="miter" stroke-miterlimit="10" stroke-dasharray="" stroke-dashoffset="0" style="mix-blend-mode: normal"><path d="M344.26016,247.77368c-1.97197,-14.5735 -9.61964,-71.09251 -10.69819,-79.06339c-0.24792,-1.83221 1.04005,-3.49896 2.89348,-3.74975c8.00527,-1.08321 64.39492,-8.71338 78.99695,-10.6892c2.19517,-0.29703 3.65323,1.06571 3.91035,2.96591c1.10116,8.13796 8.79483,64.16355 10.71134,78.32729c0.27549,2.03602 -1.18496,4.24187 -3.1708,4.51058c-8.25103,1.11646 -64.33697,8.70554 -78.78899,10.66106c-2.16108,0.29242 -3.55917,-0.78254 -3.85415,-2.96249z" fill-opacity="0.74902" fill="#36269e" stroke="none" stroke-width="0" stroke-linecap="butt"/><g><path d="" data-paper-data="{&quot;index&quot;:null}" fill="#3b276d" stroke="#250077" stroke-width="2.5" stroke-linecap="butt"/><path d="" data-paper-data="{&quot;index&quot;:null}" fill="#6770bb" stroke="#250077" stroke-width="2.5" stroke-linecap="butt"/><path d="" data-paper-data="{&quot;index&quot;:null}" fill="#3b276d" stroke="#250077" stroke-width="2.5" stroke-linecap="butt"/><path d="" data-paper-data="{&quot;index&quot;:null}" fill="#6770bb" stroke="#250077" stroke-width="2.5" stroke-linecap="butt"/><path d="M353.79989,202.72512c-0.21882,-0.58833 -1.84218,-1.577 -2.07355,-2.57071c-1.6017,-6.87929 -4.16857,-22.7452 -4.83882,-28.13407c-0.0873,-0.70189 1.2578,-3.47533 3.12018,-6.82512c3.46348,-0.71636 6.93791,-1.97826 10.39583,-2.61997c0.97586,-0.18109 1.94676,-0.37759 2.91432,-0.58605c0.62468,2.13612 1.32255,4.45153 2.08118,6.85102c4.23521,13.3957 9.82288,29.22065 9.82288,29.22065c0,0 -21.09742,5.537 -21.42203,4.66424z" data-paper-data="{&quot;index&quot;:null}" fill="#947aff" stroke="#250077" stroke-width="2.5" stroke-linecap="butt"/><path d="M387.28614,197.66147c0,0 0.65086,-16.76984 0.72926,-30.81888c0.01821,-3.26161 -0.01925,-6.35808 -0.07684,-9.08342c3.87223,-0.21004 7.7291,-0.51891 11.58636,-0.93395c3.74619,3.44434 6.95882,6.70815 7.11344,7.57308c0.95562,5.34564 3.20219,21.26008 3.70947,28.30513c0.07327,1.01764 -1.18449,2.44269 -1.21927,3.06944c-0.0516,0.92974 -21.84243,1.88861 -21.84243,1.88861z" data-paper-data="{&quot;index&quot;:null}" fill="#947aff" stroke="#250077" stroke-width="2.5" stroke-linecap="butt"/><path d="M352.89438,198.45493c-1.99187,-16.01499 9.3761,-30.61245 25.3911,-32.60432c16.015,-1.99187 30.61245,9.3761 32.60433,25.3911c1.99187,16.015 -9.37611,30.61245 -25.3911,32.60432c-16.01499,1.99187 -30.61245,-9.3761 -32.60432,-25.3911z" data-paper-data="{&quot;index&quot;:null}" fill="#c2bfff" stroke="#250077" stroke-width="2.5" stroke-linecap="butt"/><path d="M354.92681,164.36806c-0.01765,-0.14191 -0.0234,-0.28436 -0.01754,-0.42723c1.44628,-0.40525 2.89221,-0.80982 4.3358,-1.12914c-0.03623,0.20937 -0.04217,0.41795 -0.01641,0.62505c0.41565,3.34193 8.93028,5.03399 19.01796,3.77933c10.08768,-1.25466 17.9284,-4.98093 17.51274,-8.32286c-0.07362,-0.59194 -0.40134,-1.13212 -0.94688,-1.61333c1.59934,-0.13666 3.19764,-0.29104 4.79603,-0.46367c0.58446,0.56339 0.93645,1.18822 1.02094,1.86755c0.52002,4.181 -9.28932,8.84285 -21.90975,10.41252c-12.62043,1.56967 -23.27287,-0.54722 -23.79289,-4.72821z" data-paper-data="{&quot;index&quot;:null}" fill="#7ae7ff" stroke="#250077" stroke-width="2.5" stroke-linecap="butt"/><g data-paper-data="{&quot;index&quot;:null}" stroke-width="2" stroke-linecap="butt"><path d="M363.14199,208.76958c0.19025,1.02472 1.19774,5.44481 -0.25128,5.69343c-0.44004,0.07549 -6.27762,-3.30069 -6.63949,-5.24975c-0.22069,-1.18866 0.18095,-3.6871 1.45102,-3.90503c2.56758,-0.44055 5.00303,1.10914 5.43975,3.46134z" fill="#250077" stroke="none"/><path d="M357.99371,204.44456c-0.08393,-0.45209 19.87261,-3.64847 27.02998,-4.69453c1.55912,-0.22787 2.5845,8.28491 0.35201,11.65468c-1.85525,2.80039 -4.77025,4.83209 -8.73697,5.51269c-8.74003,1.4996 -17.08767,-4.08466 -18.64502,-12.47281z" fill="url(#color-1)" stroke="#250077"/><path d="M365.29904,203.21108c-0.0568,-0.30597 12.53845,-2.67004 12.58994,-2.39276c0.8655,4.66171 -1.36259,9.17611 -5.10031,9.81741c-3.73773,0.64132 -6.62411,-2.76291 -7.48961,-7.42463z" fill="#ffffff" stroke="#250077"/></g><g data-paper-data="{&quot;index&quot;:null}" stroke-width="2" stroke-linecap="butt"><path d="M411.42174,196.40853c1.11731,-0.20219 2.25948,1.96384 2.46357,3.12476c0.33465,1.90358 -3.37944,6.85119 -3.76655,6.92124c-1.27474,0.2307 -1.87967,-4.14541 -2.05562,-5.14622c-0.40386,-2.29731 1.09983,-4.491 3.35861,-4.89978z" fill="#250077" stroke="none"/><path d="M410.86647,195.30261c1.44022,8.1924 -3.62528,15.96166 -11.31414,17.35315c-3.48966,0.63154 -6.55134,-0.31012 -8.98933,-2.29296c-2.93372,-2.386 -4.85275,-10.5243 -3.49402,-10.80892c6.23746,-1.30658 23.71987,-4.69283 23.79749,-4.2513z" fill="url(#color-2)" stroke="#250077"/><path d="M402.11079,197.01887c0.80041,4.55294 -1.08103,8.64371 -4.3692,9.2388c-3.28818,0.59508 -5.98164,-2.89496 -6.78203,-7.44788c-0.04761,-0.27081 11.09871,-2.08975 11.15124,-1.79092z" fill="#ffffff" stroke="#250077"/></g><path d="M345.24876,233.02983c-0.61415,-1.94021 0.98981,-4.56803 -0.03775,-7.10668c-1.3281,-3.28116 -2.75948,-7.14531 -3.84411,-9.74318c-0.16804,-0.4025 -0.04995,-1.13773 -0.12952,-1.71232c-0.33249,-2.40118 -0.14199,-5.58747 0.98555,-5.82114c2.01807,-0.41822 4.58911,0.41292 5.68804,1.56795c3.58441,3.76739 3.47974,11.34865 4.84695,10.7408c0.33598,-0.14937 1.11119,-6.88996 1.43266,-11.55944c0.05712,-0.8296 2.51734,-3.60801 4.66979,-3.08191c2.67314,0.65336 4.44281,3.8631 4.70927,5.46357c0.8293,4.98114 -2.7182,11.41717 -1.91797,11.99138c1.13932,0.81751 2.42033,1.85429 3.52093,3.08882c0.79611,0.89299 1.51873,8.10397 1.70638,9.45167c0.67942,4.8796 0.20914,7.02904 -3.65715,8.74796c-4.93414,2.19367 -12.64413,-0.40899 -15.40557,-6.62019c-0.19887,-0.44728 -2.18368,-4.19482 -2.56748,-5.40729z" data-paper-data="{&quot;index&quot;:null}" fill="#c2bfff" stroke="#250077" stroke-width="2.5" stroke-linecap="butt"/><path d="M423.43274,239.07861c-4.21287,0.39329 -5.67496,-1.25093 -7.4707,-5.8387c-0.49597,-1.2671 -3.39506,-7.90905 -3.13786,-9.07743c0.35555,-1.61523 0.96524,-3.1463 1.55865,-4.41682c0.4168,-0.89237 -5.82675,-4.76864 -7.54147,-9.5183c-0.55095,-1.5261 -0.57865,-5.19125 1.43268,-7.06932c1.61955,-1.51225 5.12477,-0.29345 5.58062,0.40205c2.56571,3.91465 6.54074,9.41332 6.90684,9.37915c1.48976,-0.13908 -2.31198,-6.69906 -1.03008,-11.73868c0.39301,-1.54507 2.2283,-3.5282 4.19283,-4.1512c0.16466,-0.05221 0.34345,-0.03617 0.53141,0.03645c0.23059,1.00045 0.50687,2.00377 0.79942,2.97389c-0.73224,1.39009 -1.14668,2.97362 -1.14668,4.65395c0,0.62499 0.05734,1.23658 0.16703,1.82982c0.64407,3.86439 2.04877,7.66903 3.2167,11.41971c1.52987,4.91301 1.91408,10.43664 2.89699,15.59484c-0.19107,0.66533 -0.31493,1.35909 -0.36377,2.07347c-1.86627,1.94299 -4.23648,3.22716 -6.59264,3.44711z" data-paper-data="{&quot;index&quot;:null}" fill="#c2bfff" stroke="#250077" stroke-width="2.5" stroke-linecap="butt"/><path d="M408.11295,240.28204c-0.35627,-4.45436 0.5988,-8.7666 0.86028,-12.42895c0.14882,-2.08452 12.30674,-2.55304 20.74885,1.68377c0.20261,1.35344 0.41518,2.6993 0.66706,4.02117c-0.25223,0.87831 -0.38734,1.80617 -0.38734,2.76559c0,0.70341 0.07263,1.38986 0.21079,2.05226c-0.00943,0.02089 -0.01878,0.04182 -0.02807,0.06278c-1.00645,0.66944 -1.88468,1.51638 -2.59,2.49611c-0.96232,0.0461 -1.88899,0.22824 -2.7612,0.52758c-1.65557,0.24966 -3.30919,0.52245 -4.98204,0.78272c-3.3218,0.51683 -7.53507,0.80714 -11.73838,1.44921c0.03622,-1.56291 0.04416,-2.86075 0.00005,-3.41224z" data-paper-data="{&quot;index&quot;:null}" fill="url(#color-3)" stroke="#250077" stroke-width="2.5" stroke-linecap="butt"/><path d="" data-paper-data="{&quot;index&quot;:null}" fill="url(#color-4)" stroke="#250077" stroke-width="2.5" stroke-linecap="butt"/><path d="M391.57559,227.65096c0.65303,-0.2673 2.97476,-0.72451 6.33715,2.27158c3.26151,2.90621 7.54247,9.20555 9.66134,12.90753c0.12797,0.22359 0.18931,0.54586 0.21623,0.91419c-1.97718,0.31074 -3.94705,0.70264 -5.81571,1.2359c-2.65816,0.0729 -5.5015,0.20879 -8.20199,0.5735c-3.97303,-11.13256 -4.53406,-16.94607 -2.19702,-17.90269z" data-paper-data="{&quot;index&quot;:null}" fill="url(#color-5)" stroke="#250077" stroke-width="2.5" stroke-linecap="butt"/><path d="M345.73796,241.31866c4.85719,-9.72895 26.39011,-8.76629 27.44209,-6.5024c0.83538,1.79776 1.11463,7.52049 1.65959,12.63479c-0.30891,0.04035 -0.61675,0.08549 -0.92282,0.13632c-1.99941,0.03964 -5.78135,0.04556 -8.15984,0.32018c-4.58123,0.52893 -12.77248,0.95132 -19.87528,2.93868c-0.32952,-0.26082 -0.67587,-0.50133 -1.03714,-0.71962c-0.15419,-2.71292 -0.47831,-6.06042 0.89339,-8.80796z" data-paper-data="{&quot;index&quot;:null}" fill="url(#color-6)" stroke="#250077" stroke-width="2.5" stroke-linecap="butt"/><path d="" data-paper-data="{&quot;index&quot;:null}" fill="url(#color-7)" stroke="#250077" stroke-width="2.5" stroke-linecap="butt"/><path d="M381.85528,230.6261c2.43705,0.03101 3.90891,4.92663 4.14258,15.18861c0.00441,0.19375 0.00252,0.46345 -0.00594,0.80139c-1.21317,0.09158 -2.42654,0.18939 -3.64027,0.29469c-2.23423,0.19383 -4.78192,0.20456 -7.27242,0.50994c-0.22814,-2.09617 -0.33151,-3.64078 -0.12843,-3.56181c0.28276,0.10995 1.36374,-7.22709 2.82078,-10.37123c1.62509,-3.50679 3.64671,-2.86716 4.08372,-2.8616z" data-paper-data="{&quot;index&quot;:null}" fill="url(#color-8)" stroke="#250077" stroke-width="2.5" stroke-linecap="butt"/><path d="M379.62579,232.31105c1.1816,-2.44433 3.63741,-4.52053 6.32545,-5.09471c3.17374,-0.67794 6.33036,0.37318 8.29016,1.84007c1.08153,0.80952 4.9983,9.89843 5.78887,13.52716c0.03262,0.14974 0.10288,1.14388 0.17872,2.45513c-3.58393,0.14258 -7.3644,0.457 -10.5939,1.32118c-2.42059,0.16045 -4.8413,0.34078 -7.26343,0.55091c-0.54623,0.04739 -1.11119,0.08383 -1.68948,0.11631c-0.1357,-0.78074 -0.2747,-1.56516 -0.41606,-2.33766c0,0 -1.24454,-11.0871 -0.62033,-12.3784z" data-paper-data="{&quot;index&quot;:null}" fill="url(#color-9)" stroke="#250077" stroke-width="2.5" stroke-linecap="butt"/><path d="" data-paper-data="{&quot;index&quot;:null}" fill="url(#color-10)" stroke="#250077" stroke-width="2.5" stroke-linecap="butt"/><g data-paper-data="{&quot;index&quot;:null}"><g fill="none" stroke="#fdf7ff" stroke-width="2" stroke-linecap="round"><path d="M393.97219,242.67786c0,0 1.36903,-2.17617 3.13485,-2.62866c1.7794,-0.45601 2.71744,1.05087 2.71744,1.05087"/></g><path d="" fill="#ffffff" stroke="none" stroke-width="0.5" stroke-linecap="butt"/><path d="" fill="#ffffff" stroke="none" stroke-width="0.5" stroke-linecap="butt"/></g><path d="M392.23665,225.81691c0.82567,4.81765 -9.59955,6.60435 -10.42522,1.7867c-0.32894,-1.91931 -0.26266,-3.75733 0.11818,-5.3054c0.90093,0.2666 1.85489,0.40971 2.84228,0.40971c2.09829,0 4.04564,-0.64626 5.65386,-1.75059c0.84194,1.31745 1.49044,2.98969 1.81091,4.85959z" data-paper-data="{&quot;index&quot;:null}" fill="#c2bfff" stroke="#250077" stroke-width="2.5" stroke-linecap="butt"/><path d="M379.69245,218.70103c2.51364,-0.11769 4.50302,0.84178 7.29967,0.23771c1.38486,-0.29913 4.15799,-2.1471 5.46242,-1.79134c1.71658,0.46816 3.08311,2.03554 1.95656,3.91312c-1.74176,2.90294 -9.94108,3.49021 -12.62348,3.13155c-0.74559,-0.09969 -3.97672,-0.22763 -4.05386,-1.61603c-0.25403,-0.39131 -0.40157,-0.85814 -0.40157,-1.35943c0,-1.22776 0.88504,-2.24881 2.05194,-2.45996c0.0969,-0.03131 0.19936,-0.05051 0.30831,-0.05561z" fill="#c2bfff" stroke="none" stroke-width="0.5" stroke-linecap="butt"/><path d="M401.95496,216.09615c-4.36487,4.1281 -10.0373,6.95152 -16.45626,7.74988c-5.44415,0.67712 -10.72449,-0.18962 -15.40151,-2.25795" data-paper-data="{&quot;index&quot;:null}" fill="none" stroke="#250077" stroke-width="2.5" stroke-linecap="butt"/><path d="M399.92785,214.62774c0,0 -2.39031,2.2637 -6.14375,4.18879c-2.08537,1.06956 -5.21058,0.1736 -7.96131,0.58783c-2.94489,0.44347 -4.67053,2.24881 -7.6089,1.76403c-4.08747,-0.67436 -6.79458,-2.02588 -6.79458,-2.02588" data-paper-data="{&quot;index&quot;:null}" fill="none" stroke="#250077" stroke-width="2.5" stroke-linecap="round"/></g><path d="M344.26016,247.77368c-1.97197,-14.5735 -9.61964,-71.09251 -10.69819,-79.06339c-0.24792,-1.83221 1.04005,-3.49896 2.89348,-3.74975c8.00527,-1.08321 64.39492,-8.71338 78.99695,-10.6892c2.19517,-0.29703 3.65323,1.06571 3.91035,2.96591c1.10116,8.13796 8.79483,64.16355 10.71134,78.32729c0.27549,2.03602 -1.18496,4.24187 -3.1708,4.51058c-8.25103,1.11646 -64.33697,8.70554 -78.78899,10.66106c-2.16108,0.29242 -3.55917,-0.78254 -3.85415,-2.96249z" fill="none" stroke="#36269e" stroke-width="6.5" stroke-linecap="butt"/><path d="M338.9779,257.51648l-11.54082,-97.36525l95.7547,-11.92306l13.38061,96.79916z" fill="none" stroke="none" stroke-width="0" stroke-linecap="butt"/></g></g></svg>