<svg version="1.1" xmlns="http://www.w3.org/2000/svg" xmlns:xlink="http://www.w3.org/1999/xlink" width="35.40864" height="39.42754" viewBox="0,0,35.40864,39.42754"><g transform="translate(-302.17577,-161.81941)"><g data-paper-data="{&quot;isPaintingLayer&quot;:true}" fill-rule="nonzero" stroke-linecap="butt" stroke-linejoin="miter" stroke-miterlimit="10" stroke-dasharray="" stroke-dashoffset="0" style="mix-blend-mode: normal"><text transform="translate(315.27843,165.31405) scale(0.08034,0.08034)" font-size="40" xml:space="preserve" fill="#fedbff" fill-rule="nonzero" stroke="none" stroke-width="1" stroke-linecap="butt" stroke-linejoin="miter" stroke-miterlimit="10" stroke-dasharray="" stroke-dashoffset="0" font-family="&quot;Curvy wurvy&quot;, Handwriting" font-weight="normal" text-anchor="start" style="mix-blend-mode: normal"><tspan x="0" dy="0">RECHARGING</tspan></text><path d="M311.68264,194.83505v-22.42391h15.84401v22.42391z" fill="#644a73" stroke="#fedbff" stroke-width="2"/><path d="M311.68264,177.27914v-1.81171h15.84401v1.81171z" fill="#fedbff" stroke="none" stroke-width="0"/><path d="M311.68264,173.20539v-1.32674h15.84401v1.32674z" fill="#fedbff" stroke="none" stroke-width="0"/><path d="M317.08638,176.72835c1.20538,-1.41902 2.41361,-2.83315 3.68956,-4.20191h2.64096c-0.90937,1.37408 -1.71525,2.78365 -2.55546,4.20191z" fill="#fedbff" stroke="none" stroke-width="0"/><path d="M327.62364,172.52643v4.20191h-3.87645c0.84056,-1.43056 1.69469,-2.84084 2.718,-4.20191z" fill="#fedbff" stroke="none" stroke-width="0"/><path d="M311.77963,176.72835v-1.78551c0.98424,-0.84494 1.98583,-1.66298 3.04484,-2.41641h2.58823c-1.21935,1.38633 -2.39982,2.79976 -3.60287,4.20191z" fill="#fedbff" stroke="none" stroke-width="0"/><path d="M303.42577,199.99695v-32.7477h32.35774v32.7477z" fill-opacity="0.4" fill="#3e0080" stroke="#fedbff" stroke-width="2.5"/><path d="M329.87563,197.57087l-24.21876,-24.21877l3.67677,-3.67677l24.21877,24.21876z" fill="#fedbff" stroke="none" stroke-width="0"/><path d="M305.65687,193.8941l24.21876,-24.21876l3.67678,3.67677l-24.21877,24.21877z" data-paper-data="{&quot;index&quot;:null}" fill="#fedbff" stroke="none" stroke-width="0"/></g></g></svg>