<svg version="1.1" xmlns="http://www.w3.org/2000/svg" xmlns:xlink="http://www.w3.org/1999/xlink" width="738.4202" height="444.84031" viewBox="0,0,738.4202,444.84031"><defs><linearGradient x1="290.7929" y1="59.53999" x2="289.97256" y2="235.40633" gradientUnits="userSpaceOnUse" id="color-1"><stop offset="0" stop-color="#ffa4f3"/><stop offset="1" stop-color="#ffd172"/></linearGradient><linearGradient x1="614.64248" y1="97.49967" x2="613.61272" y2="318.26804" gradientUnits="userSpaceOnUse" id="color-2"><stop offset="0" stop-color="#ffa4f3"/><stop offset="1" stop-color="#ffd172"/></linearGradient><linearGradient x1="481.77576" y1="214.41609" x2="481.77576" y2="254.27656" gradientUnits="userSpaceOnUse" id="color-3"><stop offset="0" stop-color="#ffd582"/><stop offset="1" stop-color="#ffbf82"/></linearGradient><linearGradient x1="454.70157" y1="273.54071" x2="631.37469" y2="281.57313" gradientUnits="userSpaceOnUse" id="color-4"><stop offset="0" stop-color="#dbe2fa"/><stop offset="1" stop-color="#e0c4fa"/></linearGradient></defs><g transform="translate(91.67926,52.42388)"><g data-paper-data="{&quot;isPaintingLayer&quot;:true}" fill-rule="nonzero" stroke-linejoin="miter" stroke-miterlimit="10" stroke-dasharray="" stroke-dashoffset="0" style="mix-blend-mode: normal"><path d="M-13.87845,133.41771l-20.08374,-146.94591l639.20784,5.68011l-0.55416,118.80332z" data-paper-data="{&quot;index&quot;:null}" fill="#664585" stroke="#3e0e6c" stroke-width="2.5" stroke-linecap="butt"/><path d="M-32.06063,369.77379l0.95995,-205.80103l618.56993,-22.46248c0,0 37.78836,185.59669 37.6614,212.81626c0,0 -22.09682,12.82476 -50.20905,13.48553c-93.11393,2.18864 -606.98223,1.96172 -606.98223,1.96172z" data-paper-data="{&quot;index&quot;:null}" fill="#664585" stroke="#3e0e6c" stroke-width="2.5" stroke-linecap="butt"/><path d="M-41.12179,200.6645l-10.2174,-122.15337l610.39527,-4.39491l-4.42974,178.80331z" data-paper-data="{&quot;index&quot;:null}" fill="url(#color-1)" stroke="#3e0e6c" stroke-width="2.5" stroke-linecap="butt"/><path d="M550.98663,254.13588l7.13137,-179.83672l87.28098,-18.13429c0,0 -14.71622,254.71037 -21.09103,295.90183c-1.89505,12.24502 -24.32548,-2.43876 -24.32548,-2.43876z" data-paper-data="{&quot;index&quot;:null}" fill="url(#color-2)" stroke="#3e0e6c" stroke-width="2.5" stroke-linecap="butt"/><path d="M29.69189,183.82734l-44.27496,-50.59977l45.82847,-48.88453l44.27497,50.59977z" fill-opacity="0.51373" fill="#ffd6ec" stroke="none" stroke-width="0" stroke-linecap="butt"/><path d="M120.7059,127.62417l-5.30677,-24.49861l22.12778,-4.79321l5.30677,24.49861z" fill-opacity="0.51373" fill="#ffd6ec" stroke="none" stroke-width="0" stroke-linecap="butt"/><path d="M234.50241,189.43228c0,-14.24749 11.54988,-25.79737 25.79737,-25.79737c14.2475,0 25.79737,11.54988 25.79737,25.79737c0,14.24749 -11.54988,25.79737 -25.79737,25.79737c-14.2475,0 -25.79737,-11.54988 -25.79737,-25.79737z" fill-opacity="0.51373" fill="#ffd6ec" stroke="none" stroke-width="0" stroke-linecap="butt"/><path d="M440.42958,229.86997c0,-4.40377 3.56996,-7.97374 7.97373,-7.97374c4.40377,0 7.97374,3.56996 7.97374,7.97374c0,4.40377 -3.56997,7.97374 -7.97374,7.97374c-4.40377,0 -7.97373,-3.56996 -7.97373,-7.97374z" fill-opacity="0.51373" fill="#ffd6ec" stroke="none" stroke-width="0" stroke-linecap="butt"/><path d="M470.90016,171.1396v-79.73734l71.29456,49.71857z" fill-opacity="0.51373" fill="#ffd6ec" stroke="none" stroke-width="0" stroke-linecap="butt"/><path d="M96.60373,199.28219l17.82364,-34.70919l25.32833,34.70919z" fill-opacity="0.51373" fill="#ffd6ec" stroke="none" stroke-width="0" stroke-linecap="butt"/><path d="M509.3617,229.30095c0,-9.84372 7.97992,-17.82364 17.82364,-17.82364c9.84372,0 17.82364,7.97992 17.82364,17.82364c0,9.84372 -7.97992,17.82364 -17.82364,17.82364c-9.84372,0 -17.82364,-7.97992 -17.82364,-17.82364z" fill-opacity="0.51373" fill="#ffd6ec" stroke="none" stroke-width="0" stroke-linecap="butt"/><path d="M356.80455,213.47301l-36.11773,-80.44403l80.44403,-36.11773l36.11773,80.44403z" fill-opacity="0.51373" fill="#ffd6ec" stroke="none" stroke-width="0" stroke-linecap="butt"/><path d="M199.34757,165.60933l-29.25152,-53.52484l44.21412,-27.34708l29.25152,53.52484z" fill-opacity="0.51373" fill="#ffd6ec" stroke="none" stroke-width="0" stroke-linecap="butt"/><path d="M626.62248,213.35349c0,42.48344 -14.06985,76.92308 -31.42589,76.92308c-17.35604,0 -31.42589,-34.43963 -31.42589,-76.92308c0,-42.48344 14.06985,-76.92308 31.42589,-76.92308c17.35604,0 31.42589,34.43963 31.42589,76.92308z" fill-opacity="0.51373" fill="#ffd6ec" stroke="none" stroke-width="0" stroke-linecap="butt"/><path d="M427.12452,216.95199l-0.01541,-0.20034l-0.04873,-0.19494v-0.46234l0.01189,-0.04755l-0.00821,-0.04832l0.05137,-0.66783l0.0582,-0.1746l0.02311,-0.18259l0.35961,-0.92469l0.01752,-0.02475l0.00522,-0.02987l0.41097,-0.92469l0.02607,-0.03337l0.01005,-0.04114l0.51371,-0.97606l0.09138,-0.10222l0.06054,-0.12303l1.13018,-1.33566l0.11219,-0.0807l0.08656,-0.10773l1.48978,-1.13018l0.13344,-0.05705l0.11437,-0.08935l1.84937,-0.82194l0.05191,-0.00908l0.04406,-0.0289l2.20898,-0.77058l0.03084,-0.0028l0.02668,-0.01572l2.26035,-0.66783l0.02709,-0.00115l0.02392,-0.01276l1.84938,-0.46234h0.08523l0.0799,-0.02967l1.38703,-0.15411l0.01961,0.00265l0.01875,-0.00632l1.28429,-0.10274l0.05025,0.00838l0.04943,-0.01236h1.33566l0.08729,0.02182l0.08949,-0.00926l0.25949,0.03707l0.01001,-0.00501l0.03002,0.01073l0.06009,0.00858l0.25614,0.10435l0.26046,0.09302l0.0505,0.03367l0.02953,0.01203l0.00412,0.0104l0.06997,0.04665l0.08375,0.09213l0.10676,0.06405l0.10275,0.10274l0.03621,0.06036l0.05599,0.04265l0.16224,0.2028l0.31064,0.31064l0.03622,0.06036l0.05599,0.04265l0.36773,0.45965l0.38741,0.38742l0.42647,0.37908l0.33497,0.28712l0.19796,0.15837l0.2631,0.1754l0.05156,0.05671l0.06856,0.03428l0.19187,0.16446l0.20412,0.07655l0.0115,0.00793l0.01383,0.00189l0.15031,0.06012l0.14432,0.02886l0.10451,0.04951l0.11458,0.01563l0.25686,0.10274l0.0127,0.00917l0.01546,0.00249l0.3596,0.15412l0.05784,0.04395l0.06993,0.01967l0.27239,0.15565l0.25026,0.09385l0.3981,0.09952h0.21963l0.108,-0.01543l0.20764,-0.08899l0.02917,-0.00471l0.02432,-0.01678l0.41098,-0.15412l0.05858,-0.00669l0.05142,-0.02885l0.56509,-0.15411l0.00363,-0.00008l0.00318,-0.00176l0.75989,-0.20263l0.70857,-0.20245l0.07975,-0.00266l0.07358,-0.0309l0.62703,-0.09646l0.42205,-0.09379l0.13761,0.00362l0.13355,-0.03339h0.41097l0.07663,0.01915l0.07842,-0.0095l0.41098,0.05138l0.11611,0.04494l0.12414,0.00955l0.46234,0.15412l0.04475,0.02848l0.05237,0.00844l0.3596,0.15411l0.06846,0.05203l0.08226,0.02504l0.25686,0.15411l0.10881,0.10881l0.13195,0.07917l0.20549,0.20549l0.02189,0.03648l0.03494,0.02427l0.3596,0.41097l0.07308,0.14251l0.10423,0.1216l0.15508,0.31016l0.24061,0.3208l0.00816,0.01938l0.01588,0.01379l0.35619,0.50884l0.76711,1.07396l0.03634,0.09225l0.06453,0.07528l0.25686,0.51371l0.02362,0.10627l0.05563,0.09357l0.14382,0.4794l0.18646,0.51277l0.19812,0.4953l0.01162,0.0852l0.04046,0.07587l0.15411,0.61646v0.05095l0.02031,0.04672l0.10275,0.61646l-0.00833,0.10414l0.02533,0.10135v0.56509l-0.02182,0.08729l0.00926,0.08949l-0.10192,0.71342l-0.091,0.68255v0.73898l-0.03732,0.14929v0.15388l-0.01405,0.0562v0.10297l-0.05742,0.22967l-0.03199,0.23457l-0.04709,0.11774l-0.03018,0.21126l-0.06223,0.15277l-0.02627,0.16285l-0.13363,0.31181l-0.0863,0.2589l-0.02847,0.04475l-0.00844,0.05237l-0.15412,0.3596l-0.04396,0.05784l-0.01967,0.06994l-0.16242,0.28424l-0.07051,0.17628l-0.37719,0.52227l-0.10554,0.01472l-0.05287,0.09252l-0.43007,0.10752l-0.10787,0.03596l-0.05194,0.004l-0.03512,0.00878h-0.0362l-0.09525,0.0388l-0.24803,0.03544l-0.2013,0.0671l-0.20034,0.01541l-0.19494,0.04874h-0.22526l-0.68833,0.09178l-0.03547,-0.00401l-0.03386,0.01128l-0.66783,0.05138l-0.04832,-0.00821l-0.04755,0.01189h-0.77058l-0.23924,-0.05981l-0.09222,0.02515l-0.13772,-0.08264l-0.15582,-0.03895l-0.04742,-0.08299l-0.21146,-0.12688l-0.61646,-0.61646l-0.03622,-0.06036l-0.05599,-0.04265l-0.12662,-0.15828l-0.21124,-0.17604l-0.08628,-0.11807l-0.11349,-0.09221l-0.58819,-0.78427l-0.30118,-0.3442l-0.98656,-0.98656l-0.3399,-0.25493l-0.02626,-0.03231l-0.03723,-0.01861l-0.3023,-0.25911l-0.34566,-0.23043l-0.85652,-0.4508l-1.97575,-0.77103l-2.17908,-0.58109l-1.92769,-0.29657l-1.77775,-0.2469l-1.32391,-0.04904l-0.02838,-0.00823l-0.02916,0.00477l-1.18111,-0.09843h-0.72537l-0.66267,0.04733l-0.40856,0.03714l-0.17059,0.05687l-0.09886,0.0076l-0.09092,0.03953l-0.30823,0.05138l-0.10414,-0.00834l-0.10136,0.02534h-0.29037l-0.39353,0.04372l-0.06976,-0.00942l-0.06829,0.01708h-3.90353l-0.80276,0.13379l-0.7086,0.14172l-0.46773,0.12756l-0.35679,0.1338l-0.05102,0.00583l-0.04448,0.02566l-0.20117,0.05748l-0.11557,0.06934l-0.20465,0.06229l-0.19333,0.09158l-0.25686,0.05138l-0.02067,-0.00099l-0.01897,0.00825l-0.17495,0.02916l-0.1314,0.05256l-0.11458,0.01562l-0.10451,0.04951l-0.25686,0.05137l-0.12436,-0.00592l-0.12078,0.0302h-0.15412l-0.21388,-0.05348l-0.03036,-0.00144l-0.00684,-0.00786l-0.37392,-0.09347l-0.625,-1.09375l0.28175,-0.49306z" fill="#f2f2f2" stroke="none" stroke-width="0.5" stroke-linecap="butt"/><path d="M-83.85691,380.6352l-6.56661,-165.10319c0,0 3.27927,-14.03019 4.1829,-13.95042c16.35877,1.44409 556.30696,54.9008 561.15716,61.59666c5.38485,7.43395 -34.12914,85.51734 -39.25368,99.13131c-5.09304,13.53028 -519.51977,18.32564 -519.51977,18.32564z" data-paper-data="{&quot;index&quot;:null}" fill="#8f60bb" stroke="#3e0e6c" stroke-width="2.5" stroke-linecap="butt"/><path d="M334.29579,149.72693c0,0 5.06214,-11.59776 8.61401,-11.63881c7.34037,-0.08487 23.14749,2.1127 22.18861,0.96751c-4.34593,-5.19037 -13.02838,-13.31892 -27.32028,-15.74543c-56.06171,-0.25137 -131.25457,56.15105 -229.41791,54.02063c-89.06136,-1.93287 -158.06144,-85.44456 -158.36417,-90.84752c-0.42789,-7.63663 0.80788,-15.71847 8.62801,-11.79771c28.24241,14.15979 86.3178,84.7162 151.64148,85.58673c57.32809,0.76397 162.03772,-50.03186 222.64242,-52.87625c35.41499,-1.66214 55.51164,25.89201 63.04295,38.31908c0.23944,0.39508 16.19688,3.89369 22.71346,6.16759c7.87448,2.74772 7.54895,19.39738 7.54895,19.39738l-49.62063,6.83582z" data-paper-data="{&quot;index&quot;:null}" fill="#3e0e6c" stroke="none" stroke-width="0" stroke-linecap="butt"/><text transform="translate(215.61785,190.0301) rotate(5.00903) scale(0.8359,0.84537) skewX(0.65031)" font-size="40" xml:space="preserve" fill="#3e0e6c" fill-rule="nonzero" stroke="none" stroke-width="1" stroke-linecap="butt" stroke-linejoin="miter" stroke-miterlimit="10" stroke-dasharray="" stroke-dashoffset="0" font-family="&quot;Neon&quot;, Sans Serif" font-weight="normal" text-anchor="start" style="mix-blend-mode: normal"><tspan x="0" dy="0">OFFICE</tspan></text><path d="M408.49314,238.45866c5.44914,-1.56608 29.52152,-23.46701 37.08873,-22.37419c1.71767,0.24806 -0.78554,33.769 -3.07932,33.769c-4.93813,0 -26.12865,-2.30632 -33.63682,-3.27746c-1.8195,-0.23534 -0.90616,-7.964 -0.37259,-8.11735z" fill="#c080fb" stroke="#3e0e6c" stroke-width="2.5" stroke-linecap="butt"/><path d="M406.83702,222.10771c2.46135,-0.67526 0.96884,-1.05789 2.93464,-0.29482c1.79645,0.69734 3.5153,6.64309 -0.74565,6.49364c-2.96335,-0.10395 -7.46752,0.25462 -9.43757,-0.12386c-2.11183,-0.40573 -1.16039,-2.85749 0.61456,-3.34445c0,0 1.87338,0.33379 2.52271,-0.16371c0.5602,-0.4292 4.11131,-2.5668 4.11131,-2.5668z" fill="#bcb6e6" stroke="#3e0e6c" stroke-width="2.5" stroke-linecap="butt"/><path d="M399.25734,237.45564c1.63335,-0.99006 5.86312,-2.11521 8.62754,-3.1595c2.82157,-1.06589 4.577,4.31256 3.13511,5.59102c-1.57781,1.39899 -7.21076,2.55634 -9.75333,2.77905c-1.83353,0.1606 -3.84831,-4.09585 -2.00932,-5.21057z" data-paper-data="{&quot;index&quot;:null}" fill="#bcb6e6" stroke="#3e0e6c" stroke-width="2.5" stroke-linecap="butt"/><g stroke="#3e0e6c" stroke-width="2.5" stroke-linecap="butt"><path d="M410.82041,222.4744c0.30868,-0.08872 3.13914,-5.45409 3.77256,-5.59103c0.97701,-0.21123 2.13877,2.47368 2.86347,2.47341c0.86942,-0.00033 1.85734,-5.43191 2.82708,-5.4699c9.291,-0.36404 21.20494,1.44793 26.39604,2.1976c1.71767,0.24806 -0.78554,33.769 -3.07932,33.769c-4.93813,0 -26.12865,-2.30632 -33.63682,-3.27746c-1.8195,-0.23534 -1.58241,-26.6533 -1.04884,-26.80665z" fill="#7559ae"/><path d="M454.71299,217.6915c2.53427,0.52903 -0.79377,27.43656 -0.79377,27.43656c-0.0983,0.13874 -3.93934,2.41066 -6.96961,3.73643c-1.94442,0.8507 -3.77027,0.98898 -3.34936,0.98898c1.32455,0 3.17804,-33.75475 3.07932,-33.769c-0.82653,-0.11937 3.82726,0.72898 8.03342,1.60702z" fill="#6847ab"/></g><path d="M449.44025,239.20833c0.31892,-4.4622 0.83665,-13.47183 1.29501,-13.47183c0.22708,0 1.22598,0.04905 2.03006,0.32039c0.61644,0.20802 -0.77368,12.17258 -1.09885,12.33435c-1.37554,0.68431 -2.28203,1.59788 -2.22622,0.81709z" fill="#3e0e6c" stroke="none" stroke-width="0" stroke-linecap="butt"/><g fill="#9e5d70" stroke="#3e0e6c" stroke-width="2.5" stroke-linecap="butt"><path d="M112.64793,243.95811c-0.02736,-0.67062 1.25345,-42.39471 5.11186,-43.24241c2.45629,-0.53965 9.83903,5.56297 10.60975,5.57158c5.28337,0.05907 10.61168,32.89224 10.65948,34.06355c0.13495,3.30752 -2.85575,6.09556 -12.55469,6.42958c-9.69894,0.33402 -13.69144,0.48521 -13.82639,-2.82231z"/><path d="M34.51087,242.14402c0.09432,3.3017 -3.37959,3.2355 -11.81658,3.10786c-8.43699,-0.12764 -11.2102,-2.845 -11.30451,-6.14671c-0.03341,-1.16925 2.49126,-34.02917 7.07179,-34.20004c0.66819,-0.02493 6.68404,-6.26796 8.84981,-5.78177c3.40207,0.76372 7.18037,42.35121 7.1995,43.02066z" data-paper-data="{&quot;index&quot;:null}"/><path d="M152.85727,227.26656c-0.49305,-1.67682 -5.90143,-34.31588 -3.54192,-34.83427c2.45628,-0.53965 9.83902,5.56297 10.60974,5.57158c5.28337,0.05907 8.33264,28.17296 8.38044,29.34427c0.06955,1.70461 -14.63192,2.69471 -15.44826,-0.08158z"/><path d="M-4.05224,227.0092c-0.0251,-1.03569 0.70284,-26.08016 4.39513,-26.64799c0.53861,-0.08283 5.39726,-6.17535 7.14216,-5.94016c1.67617,0.22594 -0.47565,29.48393 -0.73672,31.00806c-0.43224,2.52348 -10.76404,3.08733 -10.80057,1.58008z" data-paper-data="{&quot;index&quot;:null}"/><g><path d="M-7.59435,194.15727c0.11259,-7.03075 40.81149,-11.79471 90.90353,-10.64061c50.09204,1.15411 90.60838,7.78926 90.49579,14.82001c-0.11259,7.03075 -40.8115,11.7947 -90.90354,10.6406c-50.09204,-1.1541 -90.60838,-7.78925 -90.49579,-14.82z"/><path d="M-7.87832,194.46834c-0.11259,7.03075 40.40375,13.66589 90.49579,14.82c50.09204,1.1541 90.79095,-3.60985 90.90354,-10.6406c0.02703,-1.68801 -1.90564,9.3247 -5.82467,11.07754c-12.40421,5.54798 -46.45767,10.96436 -84.52317,10.08734c-34.8643,-0.80327 -69.28536,-4.43355 -85.56786,-11.91203c-7.11172,-3.26639 -5.44939,-15.56956 -5.48362,-13.43224z"/></g></g><path d="M334.38775,-42.72774c11.88334,3.60877 83.81501,92.4239 158.72011,121.19828c64.63441,24.82895 134.54062,-9.86049 133.72352,-6.87289c-0.87392,3.19536 -6.97696,32.50163 -14.34413,38.65501c-23.74198,19.83034 -76.21725,23.13264 -139.3375,5.86945c-82.70655,-22.61998 -197.12501,-152.22534 -193.43474,-165.71825c1.55417,-5.68258 23.81597,-2.50227 54.67274,6.8684z" fill="#3e0e6c" stroke="none" stroke-width="0" stroke-linecap="butt"/><path d="M265.27743,321.17503c11.16428,-5.61609 72.59406,-37.42865 72.59406,-37.42865l115.40323,11.55083c0,0 -0.63796,7.47858 -2.81532,9.90943c-5.9404,6.63198 -34.61054,37.73444 -34.61054,37.73444c0,0 -1.97186,6.29322 -12.82738,5.85366c-35.86527,-1.45225 -120.02482,-16.86305 -135.40155,-18.12853c-2.47419,-0.20362 -4.00098,-8.65689 -2.34249,-9.49118z" fill="#3e0e6c" stroke="none" stroke-width="0" stroke-linecap="butt"/><g fill="#e6ccff" stroke="#3e0e6c" stroke-width="2.5" stroke-linecap="butt"><path d="M-11.61464,24.53703c-0.43583,-4.91272 1.92647,-14.56476 13.96917,-15.19879c12.04271,-0.63403 22.15856,2.83454 22.59439,7.74727c0.39482,4.45043 -16.50404,38.81689 -16.93714,38.43231c-6.10792,-5.42372 -19.28708,-27.15578 -19.62642,-30.98078z"/><path d="M42.53345,1.58303c12.0427,-0.63403 23.21842,5.52841 23.65425,10.44114c0.39483,4.45043 -17.15456,38.77809 -17.58766,38.39351c-6.10792,-5.42372 -25.6835,-32.27249 -26.02283,-36.09749c-0.43583,-4.91273 7.91354,-12.10313 19.95624,-12.73716z"/><path d="M69.70834,10.66689c-0.43583,-4.91272 8.58819,-12.32595 20.63089,-12.95998c12.04271,-0.63403 21.74853,7.2822 22.18436,12.19493c0.39482,4.45043 -15.85352,38.8557 -16.28661,38.47112c-6.10792,-5.42372 -26.1893,-33.88106 -26.52864,-37.70606z"/></g><path d="M453.25535,229.90032l-0.00942,0.01648l-0.03578,0.00894c-0.17555,0.094 -0.37616,0.14731 -0.58922,0.14731h-0.09317l-0.02033,-0.00509c-0.1315,-0.01183 -0.25714,-0.04404 -0.37372,-0.09343l-0.23095,-0.05773l-0.02449,-0.04286l-0.04928,-0.00274l-0.41926,-0.48914l-0.02512,-0.05023l-0.0718,-0.11966l-0.13382,-0.16727l-0.07671,-0.16738l-0.1078,-0.14925l-0.09317,-0.23292l-0.00508,-0.03725l-0.02018,-0.03171l-0.06142,-0.18428l-0.1041,-0.1735l-0.04788,-0.1573l-0.08216,-0.14242l-0.09317,-0.3261l-0.00178,-0.05334l-0.01239,-0.05575l-0.0256,-0.02229l-0.00503,-0.10564l-0.04989,-0.19955v-0.03483l-0.00778,-0.03505l0.00778,-0.01168v-0.01161l0.0302,-0.12078l-0.00592,-0.12436l0.04658,-0.23292l0.02153,-0.04545l-0.01114,-0.04086l0.14487,-0.24144l0.12053,-0.25447l0.04018,-0.01339l0.02588,-0.04313l0.19898,-0.19898l0.24827,-0.28964l0.03997,-0.02837l0.02522,-0.04202l0.11539,-0.11539l0.01052,-0.02369l0.03794,-0.37941l-0.03403,-0.03743l0.00678,-0.09826l-0.13004,-0.30885l0.18006,-0.41638l0.02988,-0.43324l0.2009,-0.10046l0.08916,-0.20617l0.43092,-0.05387l0.40576,-0.20288l0.31558,0.11271l0.09105,-0.01138l0.06036,-0.1006l0.00579,-0.01448l0.00736,-0.04418v-0.54957l-0.10364,-0.26947l-0.31248,-0.48608l-0.52116,-0.64143l-0.63215,-0.63215l-0.47051,-0.42773l-0.25883,-0.21569l-0.08628,-0.11807l-0.11349,-0.09221l-0.13975,-0.18634l-0.06401,-0.15204l-0.09658,-0.13373l-0.08751,-0.21878l-0.13376,-0.31208l-0.00844,-0.05236l-0.02847,-0.04475l-0.09317,-0.27952l-0.0102,-0.13258l-0.0463,-0.12466l-0.04658,-0.41926l0.00942,-0.06976l-0.01707,-0.06829v-0.37268l0.04228,-0.16915l0.00581,-0.17426l0.09317,-0.3261l0.02566,-0.04448l0.00583,-0.05102l0.13317,-0.3551l-0.00333,-0.0188l0.19145,-0.26199l0.18423,-0.26713l0.01885,-0.00305l0.26509,-0.2209l0.04284,-0.02068l0.03085,-0.03621l0.3261,-0.23292l0.2173,-0.08561l0.20608,-0.10991l0.55902,-0.13976h0.15389l0.14929,-0.03732h1.81683l0.12685,0.03171l0.13066,-0.0049l0.88512,0.18635l0.14458,0.07028l0.15693,0.03487l0.55903,0.27951l0.15256,0.13077l0.1723,0.10338l0.23292,0.23293l0.06114,0.10189l0.06276,0.02615l0.08558,0.22109l0.12198,0.20329l-0.01789,0.0656l0.04289,0.11082l0.04658,0.37268l-0.07752,0.63955l-1.00778,0.75584l-1.16283,-0.48451l-0.15745,-0.40677l-0.08833,-0.04416l-0.60024,-0.12636h-1.53279l-0.17949,0.04487l-0.08537,0.06098l-0.00534,0.01422l-0.03125,0.10938v0.12839l0.02432,0.21884l0.03485,0.10456l0.11928,0.2783l0.0025,0.01547l0.00917,0.0127l0.01765,0.04414l0.13442,0.11202l0.01629,0.02229l0.02432,0.01306l0.51243,0.46586l0.01691,0.02536l0.02613,0.01568l0.69878,0.69878l0.03376,0.05627l0.0525,0.03937l0.6056,0.74537l0.0299,0.06395l0.05143,0.04835l0.41927,0.6522l0.04126,0.1219l0.07395,0.10533l0.23293,0.6056l0.02787,0.22692l0.05545,0.2218v0.88512l-0.02534,0.10136l0.00833,0.10414l-0.04658,0.27951l-0.05408,0.12437l-0.01832,0.13437l-0.04281,0.10703l0.42511,0.49596l1.00558,0.69617l0.97991,0.48995l0.31125,0.11672l0.17003,0.11727l0.08983,0.00499l0.11942,0.13932l0.15105,0.10418l0.01437,0.08881l0.13442,0.15682l0.09317,0.18634l0.0115,0.05178l0.03105,0.043l0.09317,0.23292l0.03199,0.23457l0.05741,0.22967v0.27951l-0.01539,0.06158l0.00919,0.0628l-0.04659,0.46585l-0.03111,0.08669v0.09211l-0.13976,0.55902l-0.04046,0.07587l-0.01162,0.0852l-0.18634,0.46586l-0.05035,0.06972v0.16482l-0.04874,0.19494l-0.00765,0.0995l0.00015,0.00036l-0.0002,0.00026l-0.00771,0.10022l-0.04658,0.13976l-0.03793,0.05961l-0.00759,0.03035l-0.01843,0.01053l-0.28192,0.44302l-0.22054,0.04411l-0.13493,0.17991l-0.63956,0.07753l-0.34317,-0.0429l-0.57595,-0.0443l-0.07272,-0.02424l-0.07656,0.00365l-0.69878,-0.13976l-0.18652,-0.08835l-0.19817,-0.05765l-0.55902,-0.3261l-0.04205,-0.04103l-0.05466,-0.02153l-0.28139,-0.201l-0.01693,-0.00095l-0.02465,-0.02875l-0.00313,-0.00224l-0.19539,-0.22937l-0.1961,-0.22878l-0.00172,-0.00344l-0.01741,-0.02044c-0.10578,0.1646 -0.24912,0.30277 -0.41792,0.40239zM455.50142,227.44899l0.11548,0.2438l0.0119,0.05951l0.01237,0.02939l-0.00021,0.0005l0.01811,0.03623l0.01219,0.00696l0.00871,0.03483l0.01558,0.03116l0.03247,0.14612l0.04308,0.0754l0.04507,0.03219l0.32906,0.19196l0.27101,0.0542l0.01933,-0.03223l0.11764,-0.29409l0.09712,-0.38846l0.00506,-0.05056l-0.95982,-0.47991l-0.06831,-0.05855l-0.08418,-0.03175l-0.04165,-0.02884z" fill="#f2f2f2" stroke="none" stroke-width="0.5" stroke-linecap="butt"/><path d="M451.16463,228.89163c0.38278,-1.31909 0.89944,-2.57567 1.07065,-2.95578c0.55912,-1.24132 1.97359,-0.61406 2.08758,-1.5525c0.04357,-0.35873 0.02101,-0.62288 0.32477,-0.80228c0.0625,-0.03691 -0.77041,-1.3913 -0.84075,-1.61908c-0.50185,-1.62506 -1.18084,-3.00679 -1.78059,-4.66753c-0.322,-0.89161 1.08288,-3.14502 2.04274,-2.22516c0.0496,-0.00599 0.1001,-0.00907 0.15132,-0.00907c4.42177,0 5.4979,6.10478 4.05248,9.19777c-0.40197,0.86017 -1.15657,0.6316 -1.6448,1.215c-0.15598,0.18639 0.8193,1.57378 1.02335,2.6699c0.40453,0.29555 0.74113,0.70342 0.93624,1.13062c1.28457,2.81258 -1.34363,7.9352 -1.45736,11.3772c-0.06224,1.88371 2.18286,2.18205 2.27468,3.93937c0.20032,3.83372 -1.70565,2.95691 -4.2076,3.5986c-0.6783,0.17397 -2.64826,1.00376 -2.99291,-0.08414c-0.3558,-1.12308 0.08666,-1.05474 0.38216,-1.82945c0.00459,-0.01202 -0.00012,-0.03915 -0.01246,-0.07894l-0.0283,0.01192l-0.0632,0.05911l-0.41926,0.23292l-0.22997,0.0617l-0.22204,0.08596l-0.37268,0.04658l-0.07842,-0.0095l-0.07663,0.01915h-0.55902l-0.08728,-0.02182l-0.08949,0.00926l-0.65219,-0.09318l-0.12646,-0.05152l-0.13567,-0.0155l-0.66324,-0.24872l-0.32067,-0.07126l-0.45281,-0.09056l-0.12562,-0.05951l-0.13691,-0.02396l-0.33922,-0.15077l-0.24187,-0.06911l-0.10137,-0.05848l-0.11425,-0.02538l-0.00768,-0.00385l-0.09076,0.33276l-0.0983,0.17524l-0.06759,0.18923l-0.27951,0.41926l-0.17138,0.1558l-0.15186,0.17487l-0.46585,0.3261l-0.18623,0.07132l-0.17141,0.10192l-0.46585,0.13976l-0.02975,0.00138l-0.02627,0.01401l-0.23957,0.05989l-0.20702,0.10351l-0.19176,0.11505l-0.0068,0.00207l-0.01132,0.01981l-0.3012,0.0753l-0.29701,0.0904l-0.0199,-0.01117l-0.00689,0.00172h-0.37268l-0.06158,-0.01539l-0.0628,0.00919l-0.40382,-0.04038h-1.19546l-0.14928,-0.03732h-0.15389l-0.18634,-0.04658l-0.12147,-0.06479l-0.13439,-0.02986l-0.01558,-0.00779h-0.49686l-0.06829,-0.01707l-0.06975,0.00942l-0.41927,-0.04658l-0.03269,-0.01215l-0.03476,0.00278l-0.55903,-0.09317l-0.04672,-0.02031h-0.05095l-0.37268,-0.09317l-0.07587,-0.04046l-0.0852,-0.01162l-0.23292,-0.09317l-0.106,-0.07655l-0.02162,-0.00772l-0.01154,0.00181l-0.01466,-0.01117l-0.07532,-0.0269l-0.123,-0.082c-4.30294,4.2246 -15.27989,3.21251 -19.25795,2.68927c-1.7652,-0.23218 -5.3761,0.87109 -6.39621,-0.42774c-1.05633,-1.34495 -0.55283,-2.60492 0.38287,-3.75694c-0.01434,-0.01913 -0.02938,-0.038 -0.04516,-0.05661c-0.37178,-0.43827 -1.0164,-0.9809 -0.83305,-1.613c0.76549,-2.63906 3.21376,-4.67626 5.70892,-6.04129c0.60404,-1.10041 1.42654,-1.94033 2.61395,-1.84534c0.08357,0.00669 0.29699,0.04649 0.59671,0.11472l0.0255,-0.06474l0.46586,-0.65219l0.02655,-0.02262l0.01453,-0.03171l0.37268,-0.46586l0.1924,-0.14658l0.17663,-0.16524l0.41927,-0.23293l0.17439,-0.04678l0.1615,-0.08075l0.41927,-0.09317l0.13761,0.00362l0.13355,-0.03339h0.41926l0.09152,0.02288l0.0939,-0.00905l0.93171,0.13975l0.02433,0.01011l0.0263,-0.00145l1.21122,0.23293l0.02722,0.01265l0.03001,-0.00024l1.2903,0.31145l1.28127,0.17673l2.96769,0.37096l1.13393,0.13084h0.76424l0.47502,-0.07308l0.5322,-0.11405l0.4128,-0.15011l0.80967,-0.32387l0.21641,-0.13526l0.32239,-0.25791l0.20843,-0.2382l0.2345,-0.335l0.33836,-0.67672l0.00093,-0.00279v-0.06016l-0.00093,-0.0028l-0.13447,-0.26893l-0.21974,-0.39552l-0.00722,-0.02689l-0.01812,-0.02114l-0.36054,-0.72108l-0.1194,-0.21491l-0.17228,0.04307h-1.16463l-0.08161,-0.0204l-0.08359,0.00943l-0.69878,-0.09317l-0.03854,-0.01528l-0.0414,0.00197l-0.69878,-0.13976l-0.09911,-0.04694l-0.1088,-0.01378l-0.8186,-0.31834l-1.84323,-0.64513l-0.04041,-0.02657l-0.04768,-0.00806l-0.74537,-0.32609l-0.05376,-0.04151l-0.06538,-0.01839l-0.6522,-0.37268l-0.12054,-0.11552l-0.14317,-0.0859l-0.45476,-0.45477l-0.01377,-0.00275l-0.01927,-0.03029l-0.02463,-0.02463l-0.14777,-0.24629l-0.1542,-0.24231l-0.01102,-0.03304l-0.01847,-0.03079l0.00369,-0.01354l-0.3003,-0.90091l-0.01541,-0.20034l-0.04873,-0.19494v-1.16464l0.02804,-0.11219l-0.00715,-0.11542l0.23292,-1.25781l0.04038,-0.08847l0.0089,-0.09685l0.3261,-0.93171l0.07949,-0.12089l0.04575,-0.13726l0.6522,-1.02488l0.12016,-0.11399l0.09158,-0.13802l1.07146,-0.97829l0.15236,-0.08225l0.13146,-0.11268l1.77024,-0.88512l0.14056,-0.03124l0.12774,-0.06645l2.14292,-0.51244l0.03999,0.00041l0.03655,-0.01621l2.14293,-0.37268l0.03924,0.00286l0.03689,-0.0137l2.09634,-0.23292l0.06975,0.00942l0.06829,-0.01707h3.35414l0.07905,0.01976l0.08092,-0.00948l1.44414,0.18634l0.14741,0.05773l0.15687,0.0214l0.9317,0.37268l0.12837,0.09271l0.14659,0.05988l0.69878,0.51244l0.09766,0.11758l0.12341,0.09019l0.46586,0.55902l0.05007,0.10372l0.07912,0.08369l0.41926,0.74537l0.00825,0.03011l0.02032,0.0237l0.51244,1.02487l0.00549,0.0247l0.01569,0.01984l0.65219,1.44415l0.00745,0.04115l0.02374,0.03443l0.55903,1.49073l0.0027,0.02358l0.01274,0.02004l0.46585,1.39756l0.00272,0.03542l0.01738,0.03097l0.27951,1.02488l0.00356,0.16692l0.04049,0.16198v0.41926l-0.04873,0.19494l-0.01542,0.20034l-0.09317,0.27951l-0.11811,0.1856l-0.09166,0.19998l-0.07063,0.08828l-0.06443,0.16107l-0.05688,0.36977v0.51001l-0.01287,0.05146l0.00855,0.05235l-0.04658,0.55902l-0.04833,0.14196l-0.0115,0.14952l-0.13975,0.41926l-0.08262,0.12983l-0.04866,0.14598l-0.3261,0.51244l-0.00215,0.00204l-0.00095,0.00281l-0.41927,0.65219l-0.11774,0.11068l-0.08908,0.13482l-0.55902,0.51244l-0.06325,0.03431l-0.04619,0.05517l-0.51244,0.37269l-0.09688,0.03912l-0.07932,0.06799l-0.55902,0.27951l-0.06391,0.01421l0.26173,0.72704l0.00153,0.01521l0.00821,0.0129l0.44448,1.33346l0.43839,0.95648l0.21288,0.30751l0.04863,0.03094l0.54098,0.0541l0.66946,-0.03524l0.66295,-0.16574l0.3493,-0.18809l0.40475,-0.34693l0.30537,-0.48859l0.14866,-0.37165v-0.32084l-0.1359,-0.61153l-0.27535,-0.70804l-0.40013,-0.84472l-0.00598,-0.02989l-0.01819,-0.02445l-0.23292,-0.55903l-0.01417,-0.09385l-0.04467,-0.08375l-0.04658,-0.18634v-0.03048l-0.01304,-0.02755l-0.04658,-0.23292l0.00592,-0.12436l-0.03019,-0.12078v-0.18634c0,-0.21306 0.0533,-0.41367 0.1473,-0.58922l0.00895,-0.03578l0.01648,-0.00942c0.18847,-0.31933 0.51487,-0.54757 0.89725,-0.60272c0.02196,-1.34139 0.29576,-2.65488 0.77346,-3.21305z" fill="#f2f2f2" stroke="none" stroke-width="0.5" stroke-linecap="butt"/><path d="M411.97769,247.3968c-0.16295,0.50693 1.06535,-0.12739 1.56892,-0.30044c0.89164,-0.30641 3.12554,-1.82896 3.85988,-0.36028c0.83683,1.67365 -2.05726,2.37789 -3.03817,2.7214c-1.06308,0.37229 -1.36719,0.45699 -2.44479,0.44013c-5.16152,-0.08077 -1.13359,-8.01033 1.40804,-7.31716c0.10014,-0.02585 0.20513,-0.03959 0.31334,-0.03959c0.69036,0 1.25,0.55964 1.25,1.25c0,0.52135 -0.31917,0.96815 -0.77277,1.15567c-0.63127,0.58834 -1.72839,1.15593 -2.14445,2.45027z" fill="#f2f2f2" stroke="none" stroke-width="0.5" stroke-linecap="butt"/><path d="M426.20418,220.39419c-0.46859,1.92766 -2.70193,2.51031 -4.3467,2.95834c-0.55725,0.15179 -2.21257,0.01696 -1.70713,0.29642c1.50633,0.83283 3.87087,1.35064 3.3168,3.56694c-0.42052,1.68208 -5.79124,4.87236 -6.82618,3.49244c-1.35933,-1.81245 3.09349,-3.33588 3.95466,-4.02974c0.54179,-0.43652 -1.2361,-0.64034 -1.86919,-0.92893c-1.26535,-0.57681 -3.04349,-1.56429 -2.36365,-3.1789c0.87365,-2.07491 7.27795,-0.7862 7.37139,-2.74605c0.10242,-2.14844 -5.09034,-3.3373 -5.17513,-4.86353c-0.12701,-0.19565 -0.20078,-0.42908 -0.20078,-0.67972c0,-0.69036 0.55964,-1.25 1.25,-1.25c0.44344,0 0.83295,0.2309 1.05485,0.57904c2.76988,0.52093 6.11156,4.43679 5.54107,6.7837z" fill="#3e0e6c" stroke="none" stroke-width="0.5" stroke-linecap="butt"/><path d="M428.60449,219.56856c0.18268,2.28859 -2.44142,3.7912 -2.51195,1.34891c-0.00918,-0.31778 -0.34558,-0.23429 -0.75988,-0.0802c-0.22481,0.21681 -0.53064,0.35016 -0.86763,0.35016c-0.05725,0 -0.11361,-0.00384 -0.16882,-0.0113c-0.61052,-0.08242 -1.08118,-0.6056 -1.08118,-1.2387c0,-0.69036 0.55964,-1.25 1.25,-1.25c0.12267,0 0.2412,0.01767 0.35321,0.05061c1.55701,-0.71554 3.64439,-0.94663 3.78625,0.83053z" fill="#3e0e6c" stroke="none" stroke-width="0.5" stroke-linecap="butt"/><path d="M410.57101,230.06085c1.81862,-0.37992 2.40786,3.77928 3.36862,3.70587c0.54346,-0.04152 3.2425,-3.04195 2.61487,0.68957c-0.07065,0.42004 -0.55908,1.44716 -0.72867,1.94754c-1.30698,3.85637 -3.74881,-1.50986 -4.48507,-2.09896c-0.44543,-0.3564 -0.024,1.14104 -0.01157,1.71138c0.01423,0.65322 -0.11194,1.83766 0.15366,2.5238c0.13584,0.2 0.21522,0.44145 0.21522,0.70144c0,0.69036 -0.55964,1.25 -1.25,1.25c-0.69036,0 -1.25,-0.55964 -1.25,-1.25c0,-0.15496 0.02819,-0.30332 0.07973,-0.44025c-1.11927,-2.6485 -1.26922,-8.20509 1.29322,-8.7404z" fill="#3e0e6c" stroke="none" stroke-width="0.5" stroke-linecap="butt"/><path d="M441.61427,238.86159c-0.25663,-0.31475 -0.69741,0.42658 -1.07874,0.56626c-1.3628,0.49918 0.10923,3.23181 -1.5446,4.11205c-1.88597,1.0038 -10.30437,1.89684 -10.30437,0.00506c0,-2.3909 7.46403,-1.91914 8.47419,-1.98185c0.07868,-0.00489 0.37338,-0.09196 0.37863,-0.11765c0.22344,-1.09198 -0.16804,-2.31194 0.24622,-3.3821c0.23733,-0.61311 1.88456,-0.28311 1.74202,-0.92492c-0.07537,-0.33938 -0.47122,-1.69973 0.00456,-1.9716c3.03192,-1.73253 6.06695,4.61191 6.655,6.96412v0.18444c0,0.32692 -0.1255,0.62452 -0.33095,0.84726c-0.20628,0.32262 -0.45179,0.43155 -0.71934,0.38687c-0.06504,0.01045 -0.13174,0.01587 -0.19971,0.01587c-0.69036,0 -1.25,-0.55964 -1.25,-1.25c0,-0.0006 0,-0.00119 0,-0.00178c-0.98968,-1.31948 -1.90164,-3.24197 -2.07291,-3.45203z" fill="#3e0e6c" stroke="none" stroke-width="0.5" stroke-linecap="butt"/><path d="M446.12336,209.46205c0.4775,0.55708 0.02314,1.76421 0.6786,2.09394c1.0643,0.53539 2.82083,-0.32835 4.03633,0.02428c1.0322,0.29945 3.33954,3.5134 2.38555,4.80167c-1.83211,2.4741 -2.35607,-1.97603 -3.18327,-2.38742c-1.43715,-0.71474 -3.86272,0.7562 -5.35503,-0.19344c-0.61215,-0.38956 0.34135,-2.11193 -0.38359,-2.14271c-0.4297,-0.01825 -3.75729,0.11589 -3.40317,-1.18257c-0.02585,-0.10013 -0.0396,-0.20514 -0.0396,-0.31335c0,-0.69036 0.55964,-1.25 1.25,-1.25c0.2477,0 0.47857,0.07205 0.67281,0.19634c1.19916,-0.40341 2.60161,-0.50977 3.34136,0.35327z" fill="#3e0e6c" stroke="none" stroke-width="0.5" stroke-linecap="butt"/><path d="M422.36192,239.84606c0.58953,1.45423 -1.42548,4.01423 -1.29571,4.24283c0.78225,1.37804 5.69394,-1.32962 5.69394,1.48484c0,2.25036 -5.57839,1.58903 -7.0958,0.59348c-3.68153,-2.41541 -0.19782,-3.60056 0.24184,-4.7617c0.16593,-0.43822 -0.45302,-0.56397 -1.11652,-0.68857c-0.07346,0.01345 -0.14918,0.02048 -0.22653,0.02048c-0.2966,0 -0.56908,-0.10331 -0.78341,-0.2759c-0.24514,-0.10867 -0.39961,-0.25987 -0.37051,-0.49268c-0.06189,-0.14818 -0.09608,-0.3108 -0.09608,-0.48142c0,-0.69036 0.55964,-1.25 1.25,-1.25c0.36951,0 0.70157,0.16033 0.93041,0.41521c1.17525,-0.13488 2.43324,0.12007 2.86837,1.19343z" fill="#3e0e6c" stroke="none" stroke-width="0.5" stroke-linecap="butt"/><g stroke-linecap="butt"><path d="M454.58569,221.94093c1.40566,1.0694 14.91283,7.08873 15.23946,6.5804c2.99646,-4.66328 9.15388,-14.21685 9.23452,-14.10425c1.42708,1.9926 7.85968,10.97428 11.12034,15.52708c0.43322,0.60489 17.17186,-5.51445 18.75562,-6.52768c0.89155,-0.57038 -8.62115,30.86009 -8.62115,30.86009c0,0 -29.98293,-0.15992 -39.59945,-3.17975c-0.9271,-0.29113 -6.60984,-29.52143 -6.12934,-29.15587z" fill="url(#color-3)" stroke="#6b330e" stroke-width="2.5"/><path d="M490.18002,229.94415c0.43322,0.60489 17.17186,-5.51445 18.75562,-6.52768c0.89155,-0.57038 -8.62115,30.86009 -8.62115,30.86009c0,0 -5.83828,-0.03114 -13.18861,-0.32541c-0.65739,-0.02632 2.69367,-24.5103 3.05415,-24.00699z" fill-opacity="0.49804" fill="#d49f68" stroke="none" stroke-width="0"/><path d="M469.82515,228.15543c2.99646,-4.66328 9.15388,-14.21685 9.23452,-14.10425c0.32401,0.45242 -0.57586,12.12048 -0.49568,22.66628c0.0653,8.58882 1.15026,16.49484 1.06412,16.48949c-3.13207,-0.19479 -6.28088,-0.44312 -9.17439,-0.75956c0,0 -0.9552,-23.78362 -0.62856,-24.29195z" fill-opacity="0.48235" fill="#ffdda7" stroke="none" stroke-width="0"/><path d="M475.62381,227.12433c2.35512,0.06793 7.19914,-0.0356 7.58493,0.35019c0.42969,0.4297 -4.35176,6.85653 -4.48505,6.60999c-0.3451,-0.63831 -3.88815,-6.98291 -3.09988,-6.96018z" fill="#ff82a8" stroke="#6b330e" stroke-width="2.5"/><path d="M493.2014,240.91752c0.25888,-0.53881 0.7454,-6.87686 1.74005,-7.90023c0.58213,-0.59894 6.92645,-2.38061 7.22241,-2.68792c0.87459,-0.90813 -1.84937,10.40895 -1.84937,10.40895c0,0 -7.79633,1.60125 -7.11308,0.17919z" fill="#93ffbf" stroke="#6b330e" stroke-width="2.5"/><path d="M460.8924,240.00653c0,0 -2.12668,-11.31708 -1.44386,-10.40895c0.18496,0.24599 5.10276,1.98155 5.63876,2.68792c0.77655,1.02337 1.15639,7.36141 1.3585,7.90023c0.53343,1.42206 -5.5534,-0.17919 -5.5534,-0.17919z" data-paper-data="{&quot;index&quot;:null}" fill="#93ffbf" stroke="#6b330e" stroke-width="2.5"/><path d="M454.58569,221.94093c1.40566,1.0694 14.91283,7.08873 15.23946,6.5804c2.99646,-4.66328 9.15388,-14.21685 9.23452,-14.10425c1.42708,1.9926 7.85968,10.97428 11.12034,15.52708c0.43322,0.60489 17.17186,-5.51445 18.75562,-6.52768c0.89155,-0.57038 -8.62115,30.86009 -8.62115,30.86009c0,0 -29.98293,-0.15992 -39.59945,-3.17975c-0.9271,-0.29113 -6.60984,-29.52143 -6.12934,-29.15587z" fill="none" stroke="#6b330e" stroke-width="2.5"/></g><g><g stroke-linecap="butt"><path d="M449.72211,383.06369l31.82978,-114.41941c0,0 96.44025,-99.24754 99.50213,-99.10834c3.97056,0.18052 45.34122,221.56017 45.34122,221.56017z" fill="url(#color-4)" stroke="#3e0e6c" stroke-width="2.5"/><path d="M449.72211,383.06369l31.82978,-114.41941l22.73492,45.1623l96.11229,-69.48718l25.99614,146.77672z" fill-opacity="0.1098" fill="#3e0e6b" stroke="none" stroke-width="0"/><path d="M494.18418,386.52448l10.10263,-72.71791l96.11229,-69.48718l25.99614,146.77672z" fill-opacity="0.1098" fill="#3e0e6b" stroke="none" stroke-width="0"/></g><path d="M495.68908,297.38991l-13.81838,-26.44312" fill="none" stroke="#3e0e6c" stroke-width="2.5" stroke-linecap="round"/><path d="M590.63942,250.70846l-85.60765,62.86703l-2.9738,-4.93227" fill="none" stroke="#3e0e6c" stroke-width="2.5" stroke-linecap="round"/></g><path d="M425.55137,303.97847c-0.55901,-1.11804 0.55901,-1.67705 0.55901,-1.67705l-0.01025,0.02766c0.77682,-0.5826 1.63137,-1.06982 2.34488,-1.72843c0.41152,-0.37986 0.73913,-0.84162 1.10401,-1.26649c0.22235,-0.25891 0.87797,-0.86163 0.53684,-0.87181c-4.01692,-0.11983 -8.29946,0.51162 -12.31511,0.95817c0,0 -1.24236,0.13804 -1.3804,-1.10431c-0.13804,-1.24235 1.10431,-1.38039 1.10431,-1.38039c3.26916,-0.36293 6.51178,-0.64652 9.80602,-0.70634c0.98293,-0.01785 3.81501,-0.11339 4.26601,0.21865c3.5849,2.63935 -2.25658,6.59843 -3.96657,7.88096l-0.37171,0.2084c0,0 -1.11804,0.55902 -1.67705,-0.55901z" fill="#f2f2f2" stroke="none" stroke-width="0.5" stroke-linecap="butt"/><path d="M352.00949,299.22163c-0.33898,0.17235 -0.8741,0.28517 -1.40922,-0.24995c-0.88389,-0.88389 0,-1.76777 0,-1.76777l0.89057,-0.45367c7.49129,-0.50263 15.23507,0.25674 22.67287,-0.8026c1.27159,-0.18111 2.22878,-0.81375 3.10268,-1.46087c0.38011,-0.64004 0.78928,-1.28312 1.22951,-1.93574l0.05211,-0.03493l-0.01502,-0.01238l1.25869,-1.52841c0.22917,-0.28258 0.57917,-0.46319 0.97135,-0.46319c0.69036,0 1.25,0.55964 1.25,1.25c0,0.11989 -0.01687,0.23583 -0.04838,0.34559l-0.4446,1.6895l-0.02465,-0.00648c-0.00598,0.04825 -0.01278,0.09647 -0.02044,0.14463c-0.25853,1.62498 -1.41688,2.66848 -2.89542,3.34622c-1.28915,2.52483 -2.08185,5.05744 -2.67804,8.16757c-0.06956,0.36289 -0.84488,3.00696 0.03455,3.56808c1.00617,0.64198 5.35548,-0.27157 6.50885,-0.33505c9.88295,-1.45485 20.34003,-2.75716 29.41075,-7.18655c2.80705,-1.37073 5.61508,-2.73961 7.75031,-5.06897c0,0 0.84785,-0.9185 1.76635,-0.07065c0.9185,0.84785 0.07066,1.76635 0.07066,1.76635c-2.37437,2.55671 -5.38735,4.10417 -8.49023,5.61969c-9.34058,4.56216 -20.07583,5.94048 -30.2569,7.42751c-1.82056,0.10205 -6.71165,1.05251 -8.23892,-0.13685c-2.07549,-1.61629 -1.35328,-4.04771 -1.01576,-6.02709c0.42739,-2.5064 1.04981,-4.69911 1.93235,-6.79336c-1.27949,0.22246 -2.51951,0.31097 -3.44881,0.36653c-6.6374,0.39679 -13.27901,0.21911 -19.91521,0.64285z" fill="#f2f2f2" stroke="none" stroke-width="0.5" stroke-linecap="butt"/><path d="M427.73129,302.24696c0.35919,-1.19729 1.55647,-0.8381 1.55647,-0.8381l0.62246,0.22082c3.56964,0.23504 6.00562,1.02781 5.19087,5.11379c-0.83084,2.32319 -3.34272,7.69447 -5.66918,8.75456c-1.28146,0.58392 -6.38861,-0.63806 -6.68273,1.51461c-0.503,3.68144 5.58851,5.44305 1.65734,9.228c-0.38042,0.36627 -0.92107,0.51683 -1.38161,0.77524c-2.71283,1.52591 -5.11889,2.22267 -8.02113,3.14606c-0.58783,0.18703 -1.11377,0.84627 -1.71308,0.70012c-1.0008,-0.24406 -4.42597,-3.97395 -4.95006,-4.74469c-0.2277,-0.33486 -0.49982,-3.66195 -0.77213,-3.7437c-0.74871,-0.22476 -4.69615,1.2864 -5.57359,1.69c-0.43728,0.20114 0.58332,0.76606 0.86073,1.15939c0.77813,1.1033 0.96223,2.554 1.10559,3.89646c-3.28228,1.20695 -6.55833,1.80717 -9.90725,2.74937c-4.03708,1.1358 -7.83238,2.98807 -11.87105,4.11199c-1.97303,0.54908 -4.9542,1.2235 -6.19677,-1.19571c-0.50015,-0.97376 0.2479,-2.18594 0.18542,-3.27885c-0.04782,-0.83648 -0.24536,-1.61451 -0.49204,-2.38378c-1.28323,0.30851 -2.56546,0.62162 -3.8473,0.9377c-4.96024,1.22296 -10.13397,3.14039 -15.28423,3.24038c-2.78395,0.05404 -6.12652,-0.15868 -7.23718,-3.26028c-0.91528,-2.55601 0.5704,-4.95973 1.36731,-7.28366c0.55759,-1.62601 0.92946,-3.23887 1.21563,-4.89863c-0.72875,0.11684 -1.47001,0.27894 -1.50113,0.46621c-0.40062,2.41174 1.62207,3.90623 -1.28602,6.07507c-2.59652,1.93646 -6.66473,2.1987 -9.76926,2.51301c-8.22141,0.83235 -14.29102,-0.47214 -19.56257,-7.0408c-0.43588,-1.06266 -1.89285,-4.66098 -0.4632,-5.72278c1.11107,-0.82518 2.73983,0.43543 4.12264,0.49247c3.27251,0.135 6.43871,-0.29972 9.63344,-0.96067c1.94671,-0.40275 3.9714,-0.89175 5.78766,-1.72874c0.58425,-0.26923 1.12295,-0.62954 1.70211,-0.90953c0.17562,-0.0849 0.74943,-0.15609 0.55612,-0.18219c-4.22008,-0.5698 -7.78478,-2.1259 -10.93986,-5.16129c-2.77544,-3.15999 -6.00536,-10.50773 0.05131,-12.83387c2.28656,-0.87818 5.54951,-0.25303 7.90348,-0.03634c6.52227,0.60039 13.0491,1.75472 19.47465,3.03943c0,0 1.22573,0.24514 0.98058,1.47087c-0.24514,1.22573 -1.47087,0.98058 -1.47087,0.98058c-7.78024,-1.55654 -16.0807,-3.43056 -24.04268,-3.29266c-2.72828,0.04725 -4.74896,2.49048 -3.70076,5.42174c0.47261,1.32164 1.72696,2.52384 2.6132,3.52463c2.52338,2.46738 5.33666,3.32713 8.51951,4.57009c0.99849,0.38993 2.4898,0.36921 2.91775,1.352c1.18252,2.71567 -3.33265,4.27616 -4.89538,4.82448c-4.32482,1.51745 -8.82511,2.36192 -13.40974,2.42019c-0.30268,0.00385 -2.4482,0.18389 -3.65157,-0.07551c0.24706,0.68831 0.44756,1.49756 0.46155,1.5313c4.68153,5.7221 9.96939,6.55896 17.16054,5.82935c2.72402,-0.27638 6.13667,-0.47655 8.50227,-2.0113c2.00332,-1.29971 -0.22563,-3.34799 0.46974,-4.98177c0.75796,-1.78083 3.29178,-2.00693 4.87668,-2.23718l0.21491,-0.00603c0.12166,-0.01606 0.25769,-0.01569 0.40974,0.00603c0.38236,0.05462 0.6297,0.21051 0.78894,0.39988c0.16494,0.18442 0.28428,0.45132 0.28428,0.83756c0,0.12982 -0.01348,0.24615 -0.03764,0.35041c-0.33968,2.33029 -0.78771,4.5494 -1.55298,6.79001c-0.57248,1.67615 -1.97033,3.76024 -1.37185,5.63865c0.59057,1.85355 3.40475,1.62053 4.80915,1.59025c4.96254,-0.10699 9.97494,-1.98983 14.7552,-3.16864c1.25608,-0.30971 2.51252,-0.6166 3.76992,-0.91911c0.03829,-0.3562 0.22631,-0.77838 0.84574,-0.98486c0.75145,-0.25049 1.18544,0.13394 1.40257,0.44919c1.61966,-0.38187 3.24143,-0.755 4.8665,-1.11614l0.90373,-0.02976c0,0 1.25,0 1.25,1.25c0,1.25 -1.25,1.25 -1.25,1.25l-0.3614,-0.02976c-1.57545,0.35009 -3.14778,0.71154 -4.71807,1.08134c0.29806,1.79432 0.20854,3.39695 0.3678,5.28082c0.04532,0.53607 1.07653,0.19294 1.6095,0.11971c2.38103,-0.32718 4.67457,-1.44816 6.90919,-2.27523c4.71149,-1.74382 9.92074,-3.77502 14.98738,-3.87433c-1.47405,-0.8755 -3.10766,-3.61885 -1.80111,-5.29816c0.65161,-0.83751 3.37527,-1.43084 4.35861,-1.70558c0.68311,-0.19085 3.45171,-1.11692 4.16503,-0.7613c2.89301,1.44226 0.61085,3.05045 1.93888,4.75079c0.81392,1.0421 2.03111,1.72618 2.82959,2.78014c0.17401,0.22968 0.07565,0.71207 0.35336,0.78893c0.2332,0.06454 0.23471,-0.46656 0.45574,-0.56502c0.48098,-0.21425 1.03037,-0.21749 1.54551,-0.32646c2.26981,-0.48016 4.14769,-1.54205 6.1572,-2.67244c2.31469,-1.17152 0.99173,-1.84057 -0.108,-3.68441c-1.16584,-1.95468 -2.19799,-4.31962 -0.50779,-6.33772c2.10016,-2.50759 4.70963,-0.65508 7.22163,-1.59395c0.97488,-0.36437 1.13852,-1.8918 1.59868,-2.65913c0.95102,-1.58583 2.03633,-2.70648 2.67249,-4.49088c0.51144,-2.13261 -0.95617,-1.81848 -2.94215,-1.93483l-1.18488,-0.32138c0,0 -1.19729,-0.35918 -0.8381,-1.55647z" fill="#f2f2f2" stroke="none" stroke-width="0.5" stroke-linecap="butt"/><path d="M385.21163,313.16735c-1.5903,-0.06905 -3.18236,-0.39344 -4.49989,-0.87189c-0.07208,0.04849 -0.14672,0.087 -0.21982,0.1176v0.11831h-1.80733c-0.69036,0 -1.25,-0.55964 -1.25,-1.25c0,-0.69036 0.55964,-1.25 1.25,-1.25h1.80733v0.01284c0.01549,-0.00421 0.03109,-0.0082 0.04678,-0.01196c0.71154,-0.17061 1.57784,-0.08846 2.50331,0.06502c-0.00468,-0.05091 -0.00468,-0.08103 -0.00468,-0.08103l2.33531,-1.16237c0.38396,0.67197 0.73033,1.26617 1.06609,1.78882c1.33134,0.09449 2.5508,-0.10715 3.37864,-1.13584c3.2851,-4.08213 -6.64596,-9.92267 -0.3765,-13.5831c1.22622,-0.71593 3.41035,-0.97716 4.79559,-1.38468c0.57803,-0.16967 2.66267,-0.84338 3.27501,-0.76787c3.60496,0.44455 6.61804,6.42225 6.17713,9.73408c-0.17108,1.28505 -1.41008,2.23127 -1.18057,3.67732c0.24571,1.54814 1.65859,2.97688 1.33191,4.50998c-1.0071,4.72636 -7.21615,4.64135 -10.86321,4.72449c-3.90087,-0.00713 -5.949,-0.98371 -7.7651,-3.24971z" fill="#f2f2f2" stroke="none" stroke-width="0.5" stroke-linecap="butt"/><path d="M383.63719,295.54513c-0.19247,2.61676 -1.17838,4.21406 -3.12182,5.95623l-1.38206,0.55449c0,0 -0.73428,0.28242 -1.26184,-0.18338c-0.6792,0.32902 -1.38648,0.61614 -2.0936,0.87601c-0.42676,1.45764 -1.03622,2.8961 -1.17807,3.92241c0.00153,0.81796 -0.40033,2.51159 -0.06769,3.27352c0.3708,0.84933 4.26799,0.44867 5.05615,0.44842c0.62449,-0.0002 1.4806,0.08663 2.40815,0.18056c0.32251,-0.6324 1.11616,-0.6324 1.11616,-0.6324l1.10137,0.00216c1.40673,-0.08172 2.70607,-0.26312 4.09029,-0.52295c0,0 0.21309,-0.03995 0.47842,0.00216c2.28878,-0.76265 5.59036,-0.52576 7.792,-0.38503c3.20368,-0.21896 5.6594,-2.49071 8.91685,-3.30626l0.7426,-0.30939c0,0 0.36905,-0.14762 0.77418,-0.06827c0.12117,-0.03458 0.24169,-0.06687 0.36093,-0.09631c0.08688,-0.44527 0.41014,-0.80599 0.83382,-0.9462l1.23773,-0.44205l0.01781,0.04986l0.16981,-0.05306l0.06351,-0.0581c0.10911,0.03323 0.21807,0.06414 0.32626,0.09324c0.81955,-1.21009 3.44374,-0.74289 4.8342,-1.78676c1.11748,-0.83893 2.07584,-1.65607 3.02153,-2.38796l-1.42699,-1.85285c0,0 0.39528,-1.18585 1.58114,-0.79057c0.00975,0.00325 0.0194,0.00655 0.02893,0.00991c0.55743,-0.15927 1.11486,-0.31853 1.67229,-0.4778c0,0 1.2019,-0.3434 1.54531,0.8585c0.01586,0.0555 0.02842,0.10918 0.03796,0.16107c1.01593,-0.4131 2.16234,-0.69376 3.55134,-0.79342c1.22825,-0.08813 2.85206,-0.14755 4.00177,0.36515c0.21471,-0.17381 0.48816,-0.27792 0.78592,-0.27792c0.69036,0 1.25,0.55964 1.25,1.25c0,0.09908 -0.01153,0.19547 -0.03332,0.2879l-0.26553,1.23915l-0.29394,-0.06299c-0.08858,0.97201 -0.45859,1.6336 -1.15787,2.46555c1.04283,-0.09134 2.20967,0.08441 2.73475,0.45534c2.07896,1.46863 1.21694,5.99905 0.21615,7.87576c-2.14117,4.01517 -5.82474,3.79342 -9.44254,5.10273c-0.63809,0.23093 -0.27774,2.29704 -0.25495,2.61486c0.07268,1.09027 0.14184,2.17293 0.17011,3.26128c3.63345,4.93275 -5.92867,8.13744 -9.9004,7.45851c-2.27591,-0.38905 -3.73207,-2.47207 -4.44516,-4.53258c-0.26595,-0.76848 -0.04139,-3.44734 -0.94116,-3.31857c-2.08456,0.32773 -3.77868,1.47224 -5.70554,2.25172c-0.4045,0.16363 -1.31277,0.02915 -1.22668,0.45691c0.29298,1.45586 2.73749,1.18385 1.808,3.65126c-0.28005,0.74342 -2.26388,1.37001 -3.03711,1.6819c-3.80606,1.53517 -7.98043,1.65118 -11.91112,2.62401c0.24637,0.22831 0.40058,0.55468 0.40058,0.91706c0,0.6639 -0.51757,1.20692 -1.17124,1.24756l-0.946,0.06757c-1.3587,0.98662 -4.16567,1.19621 -5.13127,1.19919l-0.62799,0.04486c-0.15146,0.13689 -0.36281,0.24655 -0.65672,0.29841c-1.23098,0.21723 -1.44821,-1.01375 -1.44821,-1.01375c-0.40682,-2.30867 -0.89279,-5.15897 -0.65032,-7.48095c0.03012,-0.28845 -0.31564,0.51202 -0.56309,0.66328c-0.44209,0.27024 -0.95147,0.41602 -1.44645,0.5692c-0.86144,0.26659 -1.77563,0.36252 -2.61567,0.69034c-3.10394,1.21127 -6.30217,2.25663 -9.67091,2.25014c-3.29802,0.47701 -11.52966,2.50714 -12.35129,-1.70605c-0.62784,-3.21945 2.29258,-6.40642 2.52355,-9.41611c0.09823,-1.27993 0.86556,-3.47664 -0.57014,-3.11348c-0.83368,0.39579 -2.29447,0.62654 -2.99445,1.13094c-0.38638,0.27841 0.30588,2.4869 0.34184,2.66638l-0.13061,0.70016c0.02447,0.3272 -0.11273,0.60356 -0.24596,0.79012c-0.09548,0.14649 -0.23878,0.31417 -0.44057,0.42828c-6.22025,4.93163 -17.34858,4.26366 -23.65329,0.05448c-1.84923,-1.513 -2.86554,-2.06437 -3.83533,-4.00688c-0.28461,-0.22912 -0.46673,-0.5804 -0.46673,-0.97421c0,-0.55306 0.35917,-1.02222 0.85699,-1.18697l1.23773,-0.44205l0.17302,0.48447c4.64708,-1.76697 10.5283,0.13421 15.1898,-2.96953c1.04914,-0.69854 2.66637,-1.68996 3.53781,-2.88949c-0.62811,-0.12821 -0.83377,-0.63575 -0.90111,-0.95437c-4.09771,-1.19138 -8.6772,-2.49479 -10.84197,-5.9192c-0.55842,-0.18641 -0.77532,-0.79372 -0.77532,-0.79372c-0.21855,-0.61563 -0.51374,-1.42781 -0.75177,-2.28437c-0.3287,-0.1472 -0.67655,-0.45875 -0.67655,-1.11816c0,-0.39189 0.12286,-0.66092 0.29155,-0.84561c-0.0521,-0.59034 -0.02498,-1.14514 0.12844,-1.61083c0.56679,-1.72041 2.46261,-2.63254 4.01092,-3.08308c4.1762,-1.21523 10.91928,-0.3546 14.99293,1.09281c1.26769,0.33926 2.29199,0.48896 3.60458,0.4857l0.67526,-0.08272c0,0 1.24235,-0.13804 1.38039,1.10432c0.03788,0.34091 -0.02818,0.59867 -0.144,0.79324c0.25517,0.23983 0.50644,0.47922 0.76378,0.70069c0.21035,-0.16082 0.47327,-0.25635 0.7585,-0.25635h1.30341c2.95186,-0.33151 5.63906,-0.59968 8.36585,-0.0245v-0.2466h1.26514c0.42273,0 0.79646,0.20985 1.02268,0.53105c1.38718,-0.15634 2.76973,-0.3377 4.14447,-0.52018c1.28393,-0.17043 3.8984,-0.59015 4.93416,0.44561c0.12479,0.12479 0.23269,0.25751 0.32521,0.39724l0.43734,-0.71068l0.30466,0.18748c0.05547,-0.23116 0.0881,-0.44927 0.08358,-0.65078c-0.3084,0.21775 -0.80666,0.39469 -1.40572,-0.03322c-1.01717,-0.72655 -0.29062,-1.74371 -0.29062,-1.74371c0.63137,-0.88388 1.68396,-2.89244 2.91703,-4.06472c0.05138,-0.40095 0.29553,-0.69935 0.29553,-0.69935c0.5459,-0.48143 0.91029,-1.41889 1.63771,-1.44428c2.28773,-0.07984 3.17881,2.75707 3.54243,4.36589l0.14066,0.98064c0.26727,0.38142 0.23779,0.85304 0.23779,0.85304zM378.4534,295.17879c0.04371,-0.11973 0.0868,-0.24537 0.12973,-0.37801c0,0 0.36625,-1.09875 1.45129,-0.82845c-0.02339,-0.42547 -0.08555,-0.83833 -0.42718,-0.87188c-0.1131,-0.0111 -0.71788,0.86217 -1.32922,1.7883c0.07605,0.09237 0.1329,0.19229 0.17538,0.29004z" fill="#f2f2f2" stroke="none" stroke-width="0.5" stroke-linecap="butt"/><path d="M358.62295,313.31484c-0.94907,-0.81349 -0.13558,-1.76256 -0.13558,-1.76256l0.719,-0.80198c0.75678,-0.59457 1.49939,-1.207 2.25452,-1.80366c0.36718,-0.29013 0.77188,-0.53486 1.11498,-0.8531c0.54399,-0.50457 1.07227,-1.03139 1.53876,-1.60836c1.67464,-2.07126 -1.52657,-2.29438 -4.43758,-2.22139l-0.65109,0.61003l-0.01487,-0.01587c-0.04947,0.05212 -0.10134,0.10222 -0.15594,0.15004c-0.31379,0.27487 -3.16174,1.31145 -3.91019,1.69321c-2.29808,1.17217 -4.31927,2.79925 -6.52542,4.1174l-0.69873,0.22957c0,0 -1.21268,0.30317 -1.51585,-0.90951c-0.30317,-1.21268 0.90951,-1.51585 0.90951,-1.51585l0.0242,0.04884c2.59591,-1.54624 4.95932,-3.37491 7.70809,-4.6381c-2.64792,-0.24842 -5.32257,-0.49937 -7.9006,-1.11536c-1.40845,-0.33653 -3.49879,-0.92934 -3.47788,-3.01259c0.00842,-0.83837 1.17778,-1.22892 1.91121,-1.63512c3.16316,-1.75187 7.47962,-1.55055 10.99313,-1.90066c0.9405,-0.09372 5.13916,-0.94765 6.19429,-0.9818c-0.26012,-0.24411 -0.71403,-0.82884 -0.1944,-1.60828c0.69338,-1.04006 1.73344,-0.34669 1.73344,-0.34669c0.547,0.58516 1.79375,0.96916 1.641,1.75547c-0.21324,1.0977 -1.47749,1.72758 -2.43108,2.31161c-2.6907,1.64793 -6.98826,1.36655 -10.00363,1.65198c-1.61,0.1524 -3.16972,0.29358 -4.74284,0.69416c-0.36288,0.0924 -0.98313,0.30539 -1.53794,0.46654c0.1734,0.07262 0.34408,0.14245 0.49618,0.17395c0.78314,0.16216 1.56525,0.33334 2.3556,0.45559c0.80828,0.12502 1.62467,0.19034 2.43699,0.2857c1.45452,0.17077 2.911,0.32496 4.36822,0.4708l2.0222,0.12811c2.96905,-0.17739 6.83715,-0.40796 8.09403,1.62582c2.33291,3.7749 -3.64769,7.37268 -6.05377,9.26332l-0.36541,0.46316c0,0 -0.81349,0.94907 -1.76256,0.13558z" fill="#3e0e6c" stroke="none" stroke-width="0.5" stroke-linecap="butt"/><path d="M337.54958,313.2423c1.2019,0.3434 0.8585,1.54531 0.8585,1.54531l-0.372,1.30007c-0.06624,0.18836 -1.8034,4.65413 -1.79567,4.65438c2.0085,0.0665 4.41251,-0.4863 6.03183,-1.68937l0.01206,-0.1689c0.04064,-0.65366 0.58366,-1.17124 1.24756,-1.17124c0.66726,0 1.2124,0.52282 1.24814,1.18116l0.08799,1.40779c0.32906,2.63776 0.58191,5.33765 2.20216,7.50074c0,0 0.7392,1.00801 -0.2688,1.74721c-1.00801,0.7392 -1.74721,-0.2688 -1.74721,-0.2688c-1.57405,-2.18305 -2.11131,-4.63392 -2.47498,-7.21494c-1.8377,0.60819 -4.40532,0.86293 -5.4841,0.93794c-0.6637,0.04615 -1.43388,0.31944 -1.99557,-0.03712c-3.00236,-1.90589 -0.22636,-5.39424 0.55387,-7.63551l0.35093,-1.23021c0,0 0.3434,-1.2019 1.54531,-0.8585z" fill="#3e0e6c" stroke="none" stroke-width="0.5" stroke-linecap="butt"/><path d="M356.12493,317.38841c1.21268,0.30317 0.90951,1.51585 0.90951,1.51585l-0.23378,0.78123c0,1.6472 -0.16636,3.42018 -0.0762,5.03416c0.00755,0.13509 0.07884,-0.28077 0.18914,-0.35913c0.65025,-0.46193 1.44975,-0.67867 2.11633,-1.11672c1.21474,-0.79828 2.29626,-1.78609 3.49829,-2.60339c3.00193,-2.04111 5.68764,-2.94504 7.53774,-0.20751c0.51193,-0.39026 1.04086,-0.74906 1.58859,-1.06691c1.07331,-0.62283 3.70692,-2.1608 5.11254,-0.83548c2.29208,2.16112 -1.74741,5.34231 -2.77609,6.69505c-0.41814,0.54986 -1.28935,1.14576 -1.04263,1.79099c0.28161,0.73649 1.57721,0.02277 2.36548,0.0041c4.55307,-0.19134 9.14798,-1.43378 13.43099,-3.00178c0.03337,-0.18823 0.26538,-1.19603 1.39064,-1.05537c1.24035,0.15504 1.0853,1.39539 1.0853,1.39539l-0.89015,1.73768c-4.76012,1.79065 -9.8658,3.19527 -14.96248,3.42349c-2.48861,-0.04301 -5.61949,-0.09189 -4.55634,-3.6338c0.56809,-1.89259 1.31341,-2.21942 2.52175,-3.51938c0.07906,-0.08505 0.62871,-0.79924 1.07536,-1.36534c-0.47145,0.18259 -1.10909,0.29115 -1.48743,0.51963c-1.77402,1.07137 -2.09677,1.51633 -3.53907,3.00907c-2.81224,2.9106 -4.91562,7.26075 -8.15008,9.55729c0,0 -1.02774,0.71151 -1.73925,-0.31623c-0.71151,-1.02774 0.31623,-1.73925 0.31623,-1.73925c1.96842,-1.31608 2.85544,-3.63772 4.34514,-5.44749c1.23493,-1.50026 2.55641,-3.09894 4.01895,-4.51217c-1.00367,-1.82836 -2.31809,-0.67956 -4.23794,0.63433c-1.39479,0.95455 -6.48279,5.85184 -8.65494,4.05378c-0.72134,-0.59711 -0.67257,-1.75479 -0.87926,-2.6681c-0.30884,-1.36464 -0.1006,-3.01167 -0.1006,-4.4069l0.30842,-1.38757c0,0 0.30317,-1.21268 1.51585,-0.90951z" fill="#3e0e6c" stroke="none" stroke-width="0.5" stroke-linecap="butt"/><path d="M383.07893,315.27433c-0.11864,-0.23727 -0.16174,-0.44937 -0.15603,-0.63629c-0.18698,-0.14951 -0.33562,-0.3273 -0.41479,-0.55633c-0.00096,-0.00278 -0.00188,-0.00554 -0.00275,-0.00829c-2.80859,0.05969 -9.82293,0.36853 -8.99707,-3.503c0.17708,-0.83013 1.26701,-1.14636 1.99583,-1.58145c1.87003,-1.11638 4.1601,-1.21084 5.98457,-2.31163c0,0 1.07972,-0.62984 1.70956,0.44988c0.62984,1.07972 -0.44988,1.70956 -0.44988,1.70956c-1.29731,0.73813 -3.96198,2.04497 -5.82767,2.36904c0.14111,0.00027 0.26768,0.00251 0.3583,0.00716c1.97967,0.10152 3.91596,0.35674 5.89583,0.35617l0.06035,0.02224l0.00176,-0.01759l1.79359,0.17936c0.63854,0.05599 1.13937,0.5921 1.13937,1.24517c0,0.40827 -0.19573,0.77083 -0.49848,0.99895l-0.59661,0.45893l-0.31883,1.37713c0,0 -1.11803,0.55902 -1.67705,-0.55902z" fill="#3e0e6c" stroke="none" stroke-width="0.5" stroke-linecap="butt"/><path d="M410.78165,313.30307c-1.11803,0.55902 -1.67705,-0.55902 -1.67705,-0.55902l-0.14951,-0.31933c-0.32946,-0.92258 -0.57196,-2.5413 -1.37179,-3.20961c-1.06831,-0.89264 -1.49138,0.37068 -1.35512,1.16389c0,0 0.00305,0.04271 0.00012,0.11288c0.0153,0.01425 0.02981,0.02875 0.04352,0.04351c1.5807,1.70201 -1.09092,5.07594 -1.94286,6.46164l-2.04927,0.76108c0,0 -1.23546,0.19007 -1.42554,-1.04539c-0.19007,-1.23546 1.04539,-1.42554 1.04539,-1.42554l0.30027,0.39961c0.49644,-0.80591 0.94963,-1.6378 1.40868,-2.46558c0.20922,-0.37728 1.23173,-1.07871 0.80534,-1.01313c-1.87579,0.28846 -5.84519,-0.11849 -7.36261,-1.42786c-0.76466,-0.65982 -1.80909,-1.70574 -1.46165,-2.65408c0.20035,-0.54685 3.96602,-1.28161 4.72662,-1.54714c2.49872,-0.87231 5.22491,-3.37826 5.31531,-6.12926c0,0 0.07797,-1.24757 1.32554,-1.16959c1.24757,0.07797 1.16959,1.32554 1.16959,1.32554c-0.31332,3.80726 -3.42725,7.04972 -6.97459,8.32944c-0.13495,0.04868 -0.47289,0.20026 -0.88579,0.33766c0.07618,0.02395 0.14643,0.0454 0.20907,0.06338c0.67874,0.19485 2.04736,0.27195 3.3019,0.43502c0.34047,-2.55103 2.6089,-4.46074 5.28935,-2.56852c1.35082,0.95359 1.72665,2.93589 2.24288,4.38121l0.03122,0.04214c0,0 0.55902,1.11803 -0.55902,1.67705z" fill="#3e0e6c" stroke="none" stroke-width="0.5" stroke-linecap="butt"/><path d="M420.05283,319.75607c-0.62472,0.62472 -1.24944,0.36635 -1.56208,0.16113c-0.74879,0.20703 -1.52786,3.63344 -2.15765,4.61797c-0.53666,0.83895 -0.89043,2.03945 -1.83376,2.35878c-0.60463,0.20468 -0.91624,-0.90251 -1.45449,-1.24566c-0.33211,-0.21173 -0.59012,0.53924 -0.79015,0.87853c-1.00406,1.70307 -1.3316,3.60384 -1.32429,5.53893c0,0 0,1.25 -1.25,1.25c-1.25,0 -1.25,-1.25 -1.25,-1.25c0.00757,-2.33276 0.37104,-4.95125 1.74818,-6.9317c0.84636,-1.21713 2.01003,-2.31138 3.7282,-1.83248c0.07668,0.02137 0.12737,0.06735 0.16147,0.12965c0.1515,-0.63746 1.05882,-2.31544 1.25768,-2.73969c1.19515,-2.54975 1.00069,-3.51642 4.0747,-3.11751l0.65217,0.41428c0,0 0.88388,0.88388 0,1.76777zM414.15454,324.02384c0.01155,0.1439 0.03522,0.28113 0.10512,0.38162c0.10549,0.15165 -0.00828,-0.09538 -0.10512,-0.38162zM418.59546,319.90983l0.16104,0.07978c-0.05343,-0.04623 -0.10714,-0.07211 -0.16104,-0.07978z" fill="#3e0e6c" stroke="none" stroke-width="0.5" stroke-linecap="butt"/><path d="M414.84648,314.62494c0,-1.25 1.25,-1.25 1.25,-1.25l0.2847,0.11727c2.22288,-0.72645 -0.05761,0.00991 -1.08408,-1.15214c-1.05572,-1.19517 -1.11187,-2.91845 0.00587,-4.11139c1.01159,-1.07965 2.66107,-0.81983 3.89117,-0.72223c2.25791,0.17915 4.45266,0.83902 6.44516,1.87979c-0.06405,-0.93751 0.23279,-1.90657 1.0427,-2.85512c2.28753,-2.67908 7.59637,-2.26013 10.73712,-1.81882c0,0 1.23744,0.17678 1.06066,1.41421c-0.17678,1.23744 -1.41421,1.06066 -1.41421,1.06066c-2.12221,-0.3089 -6.79343,-0.86223 -8.42066,0.89218c-2.1441,2.31168 2.94722,4.95588 4.41461,5.22951l0.56816,-0.02427c0,0 1.25,0 1.25,1.25c0,1.25 -1.25,1.25 -1.25,1.25l-1.05845,-0.02427c-1.34825,-0.28342 -3.10266,-1.15597 -4.50996,-2.35996c-0.6132,0.21156 -1.17668,-0.23922 -1.17668,-0.23922c-1.96593,-1.58677 -4.19433,-2.50571 -6.68355,-3.0016c-0.70785,-0.14101 -2.47994,-0.60713 -3.1283,-0.16308c-0.56857,0.3894 2.66825,2.01395 2.71165,2.16396c0.73063,2.52502 -0.84536,2.78917 -2.344,3.59726l-1.34191,0.11727c0,0 -1.25,0 -1.25,-1.25z" fill="#3e0e6c" stroke="none" stroke-width="0.5" stroke-linecap="butt"/></g></g></svg>