<svg version="1.1" xmlns="http://www.w3.org/2000/svg" xmlns:xlink="http://www.w3.org/1999/xlink" width="97.88579" height="97.88579" viewBox="0,0,97.88579,97.88579"><g transform="translate(-271.05716,-131.05712)"><g data-paper-data="{&quot;isPaintingLayer&quot;:true}" fill-rule="nonzero" stroke-linecap="butt" stroke-linejoin="miter" stroke-miterlimit="10" stroke-dasharray="" stroke-dashoffset="0" style="mix-blend-mode: normal"><path d="" fill="#8b65ae" stroke="#5c00aa" stroke-width="2.5"/><path d="" fill="#a17cc4" stroke="#5c00aa" stroke-width="2.5"/><path d="" data-paper-data="{&quot;index&quot;:null}" fill="#b867ff" stroke="#5c00aa" stroke-width="2.5"/><path d="" data-paper-data="{&quot;index&quot;:null}" fill="#ffc374" stroke="none" stroke-width="0"/><path d="" data-paper-data="{&quot;index&quot;:null}" fill="none" stroke="#5c00aa" stroke-width="2.5"/><path d="" fill="#a17cc4" stroke="#5c00aa" stroke-width="2.5"/><path d="" fill="#8b65ae" stroke="#5c00aa" stroke-width="2.5"/><path d="" fill="#a17cc4" stroke="#5c00aa" stroke-width="2.5"/><path d="" data-paper-data="{&quot;index&quot;:null}" fill="#b867ff" stroke="#5c00aa" stroke-width="2.5"/><path d="" data-paper-data="{&quot;index&quot;:null}" fill="#ffc374" stroke="none" stroke-width="0"/><path d="" data-paper-data="{&quot;index&quot;:null}" fill="none" stroke="#5c00aa" stroke-width="2.5"/><path d="" fill="#a17cc4" stroke="#5c00aa" stroke-width="2.5"/><path d="M368.94295,131.05712v97.88579h-97.88579v-97.88579z" fill="none" stroke="none" stroke-width="0"/><path d="M317.35184,163.42586c4.60278,0 6.83822,2.3565 6.83822,5.36601c0,3.00951 -2.23543,5.5324 -6.83822,5.5324c-4.60278,0 -7.05191,-2.43969 -7.05191,-5.4492c0,-3.00951 2.44913,-5.44921 7.05191,-5.44921z" fill="#fff5dc" stroke="#308526" stroke-width="2.5"/><path d="M323.90597,181.8882c3.23125,4.2447 3.58875,9.833 0.21962,13.03135c-3.36913,3.19834 -8.32874,1.97888 -11.56,-2.26582c-3.23125,-4.2447 -3.51054,-9.90725 -0.14141,-13.10559c3.36913,-3.19834 8.25054,-1.90464 11.48179,2.34007z" fill="#fff5dc" stroke="#308526" stroke-width="2.5"/><path d="M317.19501,164.75628c2.63547,0 4.77193,1.44437 4.77193,3.2261c0,1.78173 -2.13647,3.2261 -4.77193,3.2261c-2.63547,0 -4.77193,-1.44437 -4.77193,-3.2261c0,-1.78173 2.13647,-3.2261 4.77193,-3.2261z" fill="#ffffff" stroke="#308526" stroke-width="2.5"/><path d="M323.7363,184.39362c2.37728,3.72292 2.098,8.14987 -0.6238,9.88788c-2.72179,1.73801 -6.85541,0.12894 -9.23269,-3.59398c-2.37728,-3.72292 -2.098,-8.14987 0.6238,-9.88788c2.72179,-1.73801 6.85541,-0.12894 9.23269,3.59398z" fill="#ffffff" stroke="#308526" stroke-width="2.5"/><g stroke="#853126" stroke-width="2.5"><path d="M319.17613,162.73004c1.44291,0.12621 7.33646,-1.12442 11.85181,-1.2612c1.02088,-1.95032 4.15875,0.14035 5.0028,0.934c3.61512,3.39928 2.65481,27.29659 1.661,33.99549c-0.14966,1.00882 -22.25287,2.88363 -27.37055,2.36679c-0.52863,-0.05339 -2.69686,-0.65274 -2.88546,-1.15654c-0.32095,-0.85729 0.19334,-2.04321 0.12209,-2.23095c-3.52772,-9.2944 2.13047,-33.47749 11.61832,-32.6476z" fill="#ffc1b8"/><path d="M330.66562,161.42653c1.89389,1.78083 6.84928,10.74682 1.43753,18.1431c-6.63468,9.06768 -24.28126,17.49464 -25.00628,16.85922c-3.38424,-2.96594 -8.48948,-18.66387 -2.80828,-30.52952c4.1596,-8.47193 25.51896,-6.15421 26.37704,-4.4728z" fill="#ffa799"/></g><g><path d="M326.32765,155.69942c1.69152,0 3.06276,1.33831 3.06276,2.98921c0,1.6509 -1.37124,2.98922 -3.06276,2.98922c-1.69152,0 -3.06276,-1.33832 -3.06276,-2.98922c0,-1.6509 1.37124,-2.98921 3.06276,-2.98921z" fill="#853126" stroke="none" stroke-width="0"/><path d="M318.84529,168.22028c0,-5.35763 3.16595,-9.70084 7.07134,-9.70084c3.90539,0 7.07134,4.34321 7.07134,9.70084c0,5.35763 -3.16595,9.70084 -7.07134,9.70084c-3.90539,0 -7.07134,-4.34321 -7.07134,-9.70084z" fill="#9dffe6" stroke="#853126" stroke-width="2.5"/></g><g data-paper-data="{&quot;index&quot;:null}"><path d="M325.79036,198.16881c0,-1.6509 1.37124,-2.98922 3.06276,-2.98922c1.69152,0 3.06276,1.33832 3.06276,2.98922c0,1.6509 -1.37124,2.98922 -3.06276,2.98922c-1.69152,0 -3.06276,-1.33832 -3.06276,-2.98922z" fill="#853126" stroke="none" stroke-width="0"/><path d="M328.44211,178.93633c3.90539,0 7.07134,4.34321 7.07134,9.70084c0,5.35763 -3.16595,9.70084 -7.07134,9.70084c-3.90539,0 -7.07134,-4.34321 -7.07134,-9.70084c0,-5.35763 3.16595,-9.70084 7.07134,-9.70084z" fill="#9dffe6" stroke="#853126" stroke-width="2.5"/></g><path d="M326.29546,189.03573c-0.00001,-3.62643 1.21549,-6.56624 2.71488,-6.56624c1.49939,-0.00001 2.71488,2.9398 2.71488,6.56624c0,3.62644 -1.21549,6.56624 -2.71488,6.56624c-1.49939,0 -2.71488,-2.9398 -2.71488,-6.56624z" fill="#ffffff" stroke="#853126" stroke-width="2.5"/><path d="M324.1488,167.56916c0,-3.27773 1.18723,-5.93487 2.65175,-5.93487c1.46452,0 2.65175,2.65714 2.65175,5.93487c0,3.27774 -1.18723,5.93488 -2.65175,5.93488c-1.46452,-0.00001 -2.65175,-2.65715 -2.65175,-5.93488z" fill="#ffffff" stroke="#853126" stroke-width="2.5"/></g></g></svg>