<svg version="1.1" xmlns="http://www.w3.org/2000/svg" xmlns:xlink="http://www.w3.org/1999/xlink" width="94.88085" height="101.94175" viewBox="0,0,94.88085,101.94175"><defs><linearGradient x1="320" y1="180.00005" x2="320" y2="180.00005" gradientUnits="userSpaceOnUse" id="color-1"><stop offset="0" stop-color="#67497d"/><stop offset="1" stop-color="#553783"/></linearGradient><linearGradient x1="320" y1="180.00003" x2="320" y2="180.00003" gradientUnits="userSpaceOnUse" id="color-2"><stop offset="0" stop-color="#67497d"/><stop offset="1" stop-color="#553783"/></linearGradient></defs><g transform="translate(-59.43292,-189.65578)"><g data-paper-data="{&quot;isPaintingLayer&quot;:true}" fill-rule="nonzero" stroke-linejoin="miter" stroke-miterlimit="10" stroke-dasharray="" stroke-dashoffset="0" style="mix-blend-mode: normal"><path d="M105.88466,252.75595c8.83046,0 15.98895,3.04899 15.98895,6.81011c0,3.76112 -7.1585,6.81011 -15.98895,6.81011c-8.83046,0 -15.98895,-3.04899 -15.98895,-6.81011c0,-3.76112 7.1585,-6.81011 15.98895,-6.81011z" fill-opacity="0.47451" fill="#391287" stroke="none" stroke-width="0" stroke-linecap="butt"/><path d="M103.87233,232.81205c1.17386,0.12658 0.88419,5.74054 0.35617,12.24996c-0.52801,6.50942 -1.90765,11.68374 -3.08151,11.55716c-0.79999,-0.08627 -2.51779,-2.14346 -2.58671,-5.80415c-0.03221,-1.71078 4.13818,-18.12955 5.31204,-18.00297z" data-paper-data="{&quot;index&quot;:null}" fill="#54002b" stroke="none" stroke-width="0" stroke-linecap="butt"/><path d="M114.53394,251.28384c-0.07946,3.66069 -2.06007,5.71788 -2.98245,5.80415c-1.35344,0.12658 -2.94415,-5.04773 -3.55295,-11.55716c-0.60879,-6.50942 -0.94278,-12.12338 0.41066,-12.24996c1.35344,-0.12658 6.16187,16.29219 6.12474,18.00297z" fill="#54002b" stroke="none" stroke-width="0" stroke-linecap="butt"/><path d="M112.98635,256.67507c0.00358,0.08965 2.21793,4.54312 1.57763,6.49314c-0.26208,0.79815 -6.60047,1.60175 -7.35041,0.97667c-3.48178,-2.90212 0.99692,-7.56178 0.84073,-7.87683c-0.03456,-0.0697 -1.11893,-15.37168 -1.04407,-15.32031c0.22428,0.1539 2.71009,-0.09254 3.20214,1.57647c1.09907,3.72795 2.76119,13.83094 2.77397,14.15085z" fill="#54002b" stroke="none" stroke-width="0" stroke-linecap="butt"/><path d="M103.51112,261.3527c-2.23665,0.42923 -5.61606,0.58603 -6.09884,0.06638c-3.31819,-3.57161 3.1443,-6.99976 3.00564,-7.36978c-0.03067,-0.08186 1.95901,-15.55131 2.03096,-15.48704c0.21556,0.19257 2.71243,0.11139 3.11194,2.04482c0.89235,4.31857 -0.23346,13.93389 -0.23833,14.29797c-0.00057,0.04268 -0.73693,6.24145 -1.81137,6.44765z" fill="#54002b" stroke="none" stroke-width="0" stroke-linecap="butt"/><path d="M100.2619,242.01462c0,-0.43603 1.58772,-0.52404 2.44465,-2.67292c1.85961,-4.66325 1.95021,-11.67803 2.44772,-11.67803c1.38226,0 3.13675,6.28234 5.01294,11.69991c0.80002,2.3101 2.63028,3.33622 2.60922,3.42427c-0.47519,1.98645 -5.65441,3.32338 -9.77171,2.05796c-2.71857,-0.83554 -2.74282,-1.92373 -2.74282,-2.83121z" fill="#ff5971" stroke="#54002b" stroke-width="2.5" stroke-linecap="butt"/><g data-paper-data="{&quot;index&quot;:null}" stroke="#541287" stroke-width="2.5" stroke-linecap="butt"><path d="" fill="#e5c2ff"/><path d="" fill="#9951b7"/></g><path d="" fill="#725580" stroke="#541287" stroke-width="2.5" stroke-linecap="butt"/><path d="" fill="#6d3e90" stroke="none" stroke-width="0" stroke-linecap="butt"/><path d="" fill="#725580" stroke="none" stroke-width="0" stroke-linecap="butt"/><path d="" fill="#9857ca" stroke="none" stroke-width="0" stroke-linecap="butt"/><path d="" fill="none" stroke="#541287" stroke-width="2.5" stroke-linecap="butt"/><path d="" fill="#9468de" stroke="#541287" stroke-width="2.5" stroke-linecap="butt"/><path d="" fill="#e5c2ff" stroke="#541287" stroke-width="2.5" stroke-linecap="butt"/><g stroke-linecap="butt"><g stroke="#541287" stroke-width="2.5"><path d="" fill="#9d7bb5"/><path d="" fill="#9d7bb5"/><path d="" fill="url(#color-1)"/></g><path d="" fill="#541287" stroke="none" stroke-width="0"/><path d="" fill="#ca80ff" stroke="#541287" stroke-width="2.5"/></g><g stroke="#541287" stroke-width="2.5" stroke-linecap="butt"><path d="" fill="#e5c2ff"/><path d="" fill="#9951b7"/></g><g data-paper-data="{&quot;index&quot;:null}" stroke="#541287" stroke-width="2.5" stroke-linecap="butt"><path d="" fill="#e5c2ff"/><path d="" fill="#9951b7"/></g><path d="" fill="#725580" stroke="#541287" stroke-width="2.5" stroke-linecap="butt"/><path d="" fill="#6d3e90" stroke="none" stroke-width="0" stroke-linecap="butt"/><path d="" fill="#725580" stroke="none" stroke-width="0" stroke-linecap="butt"/><path d="" fill="#9857ca" stroke="none" stroke-width="0" stroke-linecap="butt"/><path d="" fill="none" stroke="#541287" stroke-width="2.5" stroke-linecap="butt"/><path d="" fill="#9468de" stroke="#541287" stroke-width="2.5" stroke-linecap="butt"/><path d="" fill="#e5c2ff" stroke="#541287" stroke-width="2.5" stroke-linecap="butt"/><g stroke-linecap="butt"><g stroke="#541287" stroke-width="2.5"><path d="" fill="#9d7bb5"/><path d="" fill="#9d7bb5"/><path d="" fill="url(#color-2)"/></g><path d="" fill="#541287" stroke="none" stroke-width="0"/><path d="" fill="#ca80ff" stroke="#541287" stroke-width="2.5"/></g><g stroke="#541287" stroke-width="2.5" stroke-linecap="butt"><path d="" fill="#e5c2ff"/><path d="" fill="#9951b7"/></g><g stroke-linecap="butt"><path d="" data-paper-data="{&quot;index&quot;:null}" fill="#54002b" stroke="none" stroke-width="0"/><path d="" data-paper-data="{&quot;index&quot;:null}" fill="#54002b" stroke="none" stroke-width="0"/><path d="" data-paper-data="{&quot;index&quot;:null}" fill="#54002b" stroke="none" stroke-width="0"/><path d="" data-paper-data="{&quot;index&quot;:null}" fill="#ff5971" stroke="#54002b" stroke-width="2.5"/><path d="" data-paper-data="{&quot;index&quot;:null}" fill="#54002b" stroke="none" stroke-width="0"/></g><path d="" data-paper-data="{&quot;index&quot;:null}" fill="#ff8dae" stroke="#54002b" stroke-width="2.5" stroke-linecap="butt"/><path d="" data-paper-data="{&quot;index&quot;:null}" fill="#ff8dae" stroke="#54002b" stroke-width="2.5" stroke-linecap="butt"/><path d="" data-paper-data="{&quot;index&quot;:null}" fill="#ff8dae" stroke="#54002b" stroke-width="2.5" stroke-linecap="butt"/><g data-paper-data="{&quot;index&quot;:null}" fill="#54002b" stroke="none" stroke-width="0" stroke-linecap="butt"><path d=""/><path d=""/></g><g data-paper-data="{&quot;index&quot;:null}" fill="#54002b" stroke="none" stroke-width="0" stroke-linecap="butt"><path d=""/><path d=""/></g><path d="" fill="none" stroke="#54002b" stroke-width="2.5" stroke-linecap="round"/><path d="" fill="none" stroke="#54002b" stroke-width="2.5" stroke-linecap="round"/><path d="M117.45443,209.13482c10.31543,0 10.31543,25.07308 0,25.07308c-4.08929,0 -8.99698,-4.39145 -8.99698,-11.31519c0,-6.92374 4.90769,-13.75789 8.99698,-13.75789z" fill="#ff8dae" stroke="#54002b" stroke-width="2.5" stroke-linecap="butt"/><path d="M103.3714,222.01452c0,6.92374 -4.65771,11.31518 -8.5387,11.31518c-9.78999,0 -9.78999,-25.07307 0,-25.07307c3.88099,0 8.5387,6.83415 8.5387,13.75789z" data-paper-data="{&quot;index&quot;:null}" fill="#ff8dae" stroke="#54002b" stroke-width="2.5" stroke-linecap="butt"/><path d="M95.35122,221.3014c0,-5.67344 4.59923,-10.27267 10.27267,-10.27267c5.67344,0 10.27267,4.59923 10.27267,10.27267c0,5.67344 -4.59923,10.27266 -10.27267,10.27266c-5.67344,0 -10.27267,-4.59922 -10.27267,-10.27266z" fill="#ff8dae" stroke="#54002b" stroke-width="2.5" stroke-linecap="butt"/><g data-paper-data="{&quot;index&quot;:null}" fill="#54002b" stroke="none" stroke-width="0" stroke-linecap="butt"><path d="M110.81687,220.21041c1.49156,0.00865 2.68199,2.58693 2.65892,5.75875c-0.02308,3.17182 -1.25094,5.73607 -2.74249,5.72741c-1.49156,-0.00865 -2.68198,-2.58693 -2.65891,-5.75875c0.02308,-3.17182 1.25093,-5.73607 2.74248,-5.72741z"/><path d="M112.77897,223.68759c0.32897,0.00191 1.92366,1.75413 1.91581,2.83327c-0.00463,0.63521 -1.32332,2.81447 -1.95688,2.81079c-1.06942,-0.0062 -1.92716,-1.2747 -1.91582,-2.83327c0.01134,-1.55857 0.88747,-2.817 1.95689,-2.81079z"/></g><g data-paper-data="{&quot;index&quot;:null}" fill="#54002b" stroke="none" stroke-width="0" stroke-linecap="butt"><path d="M107.53821,225.61166c0.02883,3.17182 -1.45829,5.7501 -3.32159,5.75875c-1.86329,0.00866 -3.39716,-2.55559 -3.42599,-5.72741c-0.02883,-3.17182 1.45829,-5.7501 3.32158,-5.75875c1.86329,-0.00866 3.39716,2.5556 3.42599,5.72741z"/><path d="M104.10571,226.17223c0.01417,1.55856 -1.05735,2.82706 -2.39329,2.83326c-0.79146,0.00367 -2.43881,-2.17558 -2.44459,-2.81079c-0.00981,-1.07914 1.98234,-2.83136 2.39329,-2.83327c1.33594,-0.0062 2.43043,1.25223 2.4446,2.8108z"/></g><path d="M108.65032,219.82722l-10.7279,0.95088" fill="none" stroke="#54002b" stroke-width="2.5" stroke-linecap="round"/><path d="M59.43292,291.59753v-101.94175h94.88085v101.94175z" fill="none" stroke="none" stroke-width="0" stroke-linecap="butt"/></g></g></svg>