<svg version="1.1" xmlns="http://www.w3.org/2000/svg" xmlns:xlink="http://www.w3.org/1999/xlink" width="769.95486" height="481.20222" viewBox="0,0,769.95486,481.20222"><defs><linearGradient x1="332.53245" y1="65.13586" x2="332.53245" y2="241.49609" gradientUnits="userSpaceOnUse" id="color-1"><stop offset="0" stop-color="#ffa4f3"/><stop offset="1" stop-color="#ffd172"/></linearGradient><linearGradient x1="-6.58575" y1="114.85443" x2="-6.58575" y2="336.2428" gradientUnits="userSpaceOnUse" id="color-2"><stop offset="0" stop-color="#ffa4f3"/><stop offset="1" stop-color="#ffd172"/></linearGradient></defs><g transform="translate(79.10727,80.0139)"><g data-paper-data="{&quot;isPaintingLayer&quot;:true}" fill-rule="nonzero" stroke-linejoin="miter" stroke-miterlimit="10" stroke-dasharray="" stroke-dashoffset="0" style="mix-blend-mode: normal"><g stroke-linecap="butt"><path d="M3.73319,127.98764v-119.13696c0,0 526.78926,-29 604.95032,-29c18.561,0 40.45306,29 40.45306,29v119.13696z" fill="#664585" stroke="#3e0e6c" stroke-width="2.5"/><path d="M33.75196,397.21842c0,0 -52.53283,-17.00665 -52.53283,-24.39025c0,-27.29601 40.33771,-214.82176 40.33771,-214.82176h645.40338v206.37899z" fill="#664585" stroke="#3e0e6c" stroke-width="2.5"/><path d="M56.26603,268.70059l-3.75234,-179.17448l636.9606,-17.82364l-11.25703,122.8893z" fill="url(#color-1)" stroke="#3e0e6c" stroke-width="2.5"/><path d="M7.48554,367.19965l-45.96623,-292.68292l90.99437,15.00938l6.56661,180.11257z" fill="url(#color-2)" stroke="#3e0e6c" stroke-width="2.5"/><path d="M78.39991,201.71929l64.67542,-96.98653l100.25004,42.39378l-64.67542,96.98654z" fill-opacity="0.51373" fill="#ffd6ec" stroke="none" stroke-width="0"/><path d="M293.60186,159.88258l48.78049,-62.85178v62.85178z" fill-opacity="0.51373" fill="#ffd6ec" stroke="none" stroke-width="0"/><path d="M548.76133,127.98764c0,-23.83217 17.21982,-43.15197 38.46154,-43.15197c21.24172,0 38.46154,19.3198 38.46154,43.15197c0,23.83217 -17.21982,43.15197 -38.46154,43.15197c-21.24172,0 -38.46154,-19.31979 -38.46154,-43.15197z" fill-opacity="0.51373" fill="#ffd6ec" stroke="none" stroke-width="0"/><path d="M225.12156,105.94261c0,-6.47613 5.24994,-11.72608 11.72608,-11.72608c6.47613,0 11.72608,5.24994 11.72608,11.72608c0,6.47613 -5.24994,11.72608 -11.72608,11.72608c-6.47613,0 -11.72608,-5.24994 -11.72608,-11.72608z" fill-opacity="0.51373" fill="#ffd6ec" stroke="none" stroke-width="0"/><path d="M487.49095,189.20467l-4.70921,-32.49355l31.56516,-4.57466l4.70921,32.49355z" fill-opacity="0.51373" fill="#ffd6ec" stroke="none" stroke-width="0"/><path d="M380.18541,199.09095l19.93774,-41.74302l32.97396,25.23997l-19.93774,41.74302z" fill-opacity="0.51373" fill="#ffd6ec" stroke="none" stroke-width="0"/><path d="M-0.01917,231.17714v-105.06567l39.39962,9.38086l2.81426,71.29456z" fill-opacity="0.51373" fill="#ffd6ec" stroke="none" stroke-width="0"/><path d="M130.42737,393.09458c0,0 -95.94853,20.48185 -89.87271,-13.26903c2.07911,-11.54933 58.26162,-104.70909 61.79512,-104.82504c60.69026,-1.99156 538.06429,-58.40109 567.04665,-60.95954c0.90363,-0.07977 4.1829,13.95043 4.1829,13.95043l-6.5666,165.10319z" fill="#8f60bb" stroke="#3e0e6c" stroke-width="2.5"/><path d="M106.8747,238.55789c0.26866,-0.26179 16.34125,-7.32751 18.60458,-5.79191c1.2148,0.8242 10.09178,40.32743 10.17558,41.44473c0.89955,11.99448 -28.15634,17.00799 -29.0559,5.01352c0,0 -0.7087,-39.70706 0.27574,-40.66633z" fill="#80475d" stroke="#3e0e6c" stroke-width="2.5"/><g stroke="#3e0e6c" stroke-width="2.5"><path d="M112.85361,209.18169c29.90458,-3.8176 55.07969,0.39356 56.2302,9.4059c1.15051,9.01234 -22.15925,19.41306 -52.06383,23.23066c-29.90458,3.8176 -55.07969,-0.39355 -56.2302,-9.40589c-1.15051,-9.01234 22.15925,-19.41307 52.06383,-23.23067z" fill="#905c66"/><path d="M60.78978,232.41236c1.15051,9.01234 26.32562,13.22349 56.2302,9.40589c29.90458,-3.8176 53.21434,-14.21832 52.06383,-23.23066c-0.44605,-3.49407 2.01638,8.51719 -1.96598,14.6885c-6.28942,9.74651 -27.7304,15.63289 -46.04102,17.97042c-18.28322,2.33403 -40.56822,3.46524 -53.88141,-3.78122c-8.46226,-4.60607 -6.85272,-18.55526 -6.40561,-15.05293z" fill="#80475d"/></g><path d="M450.12357,386.52129c0,0 -65.49379,-52.87181 -66.139,-69.84341c-0.19813,-5.21159 243.42962,-24.95476 243.42962,-24.95476l2.66124,87.95693z" fill="#905c66" stroke="#3e0e6c" stroke-width="2.5"/><path d="M630.07543,379.68004c0,0 -168.96132,21.98835 -212.1952,20.149c-24.24625,-1.03153 -25.05803,-30.2427 -25.05803,-30.2427c0,0 -8.92303,-55.1549 -8.83763,-52.90845c0.64521,16.9716 66.139,69.84341 66.139,69.84341z" fill="#80475d" stroke="#3e0e6c" stroke-width="2.5"/><g><path d="M89.90821,225.56787c0.34432,-0.69764 19.53132,-13.16153 20.66503,-13.64245c1.08312,-0.45945 17.39515,0.19518 19.68122,0.24407c0.22089,0.00473 -0.19752,1.98697 -1.01824,3.10428c-3.21722,4.37984 -12.61638,13.94245 -13.92138,14.95677c-0.13248,0.10298 -14.97843,0.59663 -22.04356,-1.36529c-2.4631,-0.68398 -3.60397,-2.80926 -3.36307,-3.29738z" fill="#a47392" stroke="#3e0e6c" stroke-width="2.5"/><path d="M94.26292,224.6387c0.26376,-0.5344 15.28741,-11.0395 16.15586,-11.40788c0.82968,-0.35195 13.32494,0.14951 15.07609,0.18697c0.8325,0.01781 -9.86315,11.85953 -11.11781,12.83472c-0.13687,0.10638 -20.82801,-0.16739 -20.11414,-1.61381z" fill="#3e0e6c" stroke="none" stroke-width="0"/></g></g><path d="M239.92744,159.24244l-46.88672,-9.75244c0,0 0.76591,-16.63335 8.45431,-18.91004c6.36259,-1.88409 21.80914,-4.43259 22.06306,-4.81268c7.98685,-11.95565 28.93661,-38.26383 62.60832,-34.51318c57.62148,6.41839 154.21061,63.29126 208.94011,65.91543c62.36266,2.99016 122.31702,-63.98499 150.17034,-76.4462c7.7124,-3.45043 8.36859,4.68716 7.46676,12.28221c-0.63805,5.37355 -71.85003,84.63096 -156.92261,81.29863c-93.7669,-3.67289 -161.84019,-64.39673 -215.32866,-67.45761c-13.78863,1.57707 -22.59554,9.17537 -27.07629,14.09794c-0.98862,1.0861 14.23044,-0.17301 21.22627,0.34529c3.38516,0.25079 7.46368,12.12282 7.46368,12.12282z" fill="#3e0e6c" stroke="none" stroke-width="0" stroke-linecap="butt"/><g><path d="M511.17926,211.5484c-7.75682,-16.96335 -7.09126,-42.50355 -6.52615,-45.70239c2.1135,-11.96347 34.53886,-12.37132 49.77775,-12.58616c7.60999,2.53818 12.20358,23.36934 15.94903,40.05449c0.41408,1.8446 18.34004,10.38979 26.85211,16.97593c1.26156,1.23815 0.32245,7.86611 -2.01873,10.67483c-5.33395,6.39917 -17.94574,11.11019 -28.39129,16.24254c-5.34537,2.62642 -18.35651,2.24032 -23.91666,-0.05736c-11.2456,-4.64714 -26.25982,-13.64774 -31.72607,-25.60188z" fill="#ead4ff" stroke="#3e0e6c" stroke-width="2.5" stroke-linecap="butt"/><path d="M558.01951,207.09528c0.63934,-0.78914 4.25466,-0.867 4.7586,-0.42956c0.45178,0.39217 0.56172,4.82458 -0.11262,5.65693c-0.21546,0.26594 -3.27185,0.88107 -4.40739,-0.10463c-0.50738,-0.44043 -0.87562,-4.33644 -0.23858,-5.12273z" data-paper-data="{&quot;index&quot;:null}" fill="#7ec1a1" stroke="#552365" stroke-width="2.5" stroke-linecap="butt"/><path d="M553.30139,210.84558c0.63934,-0.78914 4.12753,-1.88404 4.63147,-1.4466c0.45178,0.39217 0.68885,5.84161 0.0145,6.67396c-0.21546,0.26594 -3.27184,0.88107 -4.40739,-0.10463c-0.50738,-0.44043 -0.87562,-4.33643 -0.23858,-5.12273z" data-paper-data="{&quot;index&quot;:null}" fill="#7ec1a1" stroke="#552365" stroke-width="2.5" stroke-linecap="butt"/><g stroke="#552365" stroke-width="2"><path d="M550.64761,208.10852c-2.59433,-3.65787 -3.64242,-8.49042 -3.79255,-9.48096c-0.56647,-3.73743 3.90742,-4.70099 4.38147,-4.65547c0.29437,0.02827 3.2391,12.35965 3.51579,12.64075c0.1897,0.19272 5.32324,3.85897 5.56044,4.37512c2.14012,4.65705 -8.99867,-1.93972 -9.66515,-2.87944z" fill="#7ec1a1" stroke-linecap="butt"/><path d="M553.88262,217.01758c0.14004,-1.45824 3.9286,-5.02437 4.76581,-4.94397c1.87373,0.17994 4.01013,3.97644 3.96276,4.46965c-0.14824,1.54365 -5.20329,6.8203 -5.94877,6.74871c-0.83154,-0.07985 -2.92033,-4.81086 -2.77979,-6.27438z" fill="#7ec1a1" stroke-linecap="butt"/><path d="M564.99884,207.57926c1.00206,0.05288 3.9945,2.15097 3.96772,2.78979c-0.024,0.57271 -4.07833,3.82872 -5.13525,3.77295c-0.3377,-0.01782 -2.69437,-2.0502 -2.63404,-3.48968c0.02696,-0.64318 2.80313,-3.12575 3.80156,-3.07306z" data-paper-data="{&quot;index&quot;:null}" fill="#7ec1a1" stroke-linecap="butt"/><g stroke-linecap="butt"><g fill="#f2b43a"><g><g><g data-paper-data="{&quot;index&quot;:null}"><path d="M524.50042,184.97486c0.09407,-2.4162 9.40129,-4.75152 10.15519,-4.68042c1.12389,0.10602 1.75666,3.95448 1.15855,7.6583c-0.11798,0.73059 -11.42005,-0.24777 -11.31374,-2.97788z"/></g><g data-paper-data="{&quot;index&quot;:null}"><path d="M552.51161,186.93382c-1.04813,-3.60336 -0.89234,-7.49994 0.21014,-7.74182c0.73951,-0.16225 10.26361,1.02392 10.65348,3.4106c0.44052,2.69674 -10.65686,5.042 -10.86361,4.33122z"/></g></g><g><g data-paper-data="{&quot;index&quot;:null}"><path d="M530.90811,198.56246c-1.62721,-1.77842 3.30625,-10.07152 3.88831,-10.55891c0.86771,-0.72661 4.01199,1.54776 6.18593,4.5977c0.42882,0.60162 -8.23562,7.97069 -10.07424,5.96121z"/></g><g data-paper-data="{&quot;index&quot;:null}"><path d="M552.05562,179.96894c-3.26568,-1.80448 -5.88701,-4.67545 -5.27827,-5.63318c0.40834,-0.64244 7.96328,-6.59606 9.91143,-5.18375c2.20125,1.59579 -3.98899,11.17288 -4.63317,10.81693z"/></g></g></g><g><g><g data-paper-data="{&quot;index&quot;:null}"><path d="M544.96135,203.70577c-2.39531,-0.09887 -4.72555,-9.49175 -4.6563,-10.25215c0.10325,-1.1336 3.91714,-1.76562 7.58968,-1.15617c0.72442,0.12022 -0.22687,11.52004 -2.93338,11.40832z"/></g><g data-paper-data="{&quot;index&quot;:null}"><path d="M546.85727,175.45158c-3.57024,1.05143 -7.43313,0.88788 -7.67471,-0.22468c-0.16205,-0.74629 0.99816,-10.35217 3.3634,-10.74154c2.67254,-0.43997 5.01557,10.75881 4.31131,10.96622z"/></g></g><g><g data-paper-data="{&quot;index&quot;:null}"><path d="M558.42009,197.26406c-1.76026,1.6386 -9.98921,-3.35183 -10.47332,-3.93981c-0.7217,-0.87653 1.52769,-4.04472 4.5475,-6.23277c0.59568,-0.4316 7.91477,8.3211 5.92582,10.17258z"/></g><g data-paper-data="{&quot;index&quot;:null}"><path d="M539.95382,175.90014c-1.78341,3.29144 -4.62504,5.93107 -5.57543,5.31542c-0.63751,-0.41298 -6.55168,-8.04411 -5.15488,-10.00707c1.57826,-2.21798 11.08209,4.04239 10.73031,4.69165z"/></g></g></g></g><g fill="#ffd03d"><g><g><g data-paper-data="{&quot;index&quot;:null}"><path d="M523.84151,176.22588c1.14352,-2.35607 11.40766,-0.55736 12.12595,-0.15338c1.07082,0.60225 0.02719,4.70105 -2.17679,8.11195c-0.43475,0.67282 -11.24124,-5.29639 -9.94916,-7.95856z"/></g><g data-paper-data="{&quot;index&quot;:null}"><path d="M550.82692,190.55778c0.52435,-4.03927 2.37252,-7.83706 3.57324,-7.58952c0.80543,0.16606 9.75472,5.55517 9.10496,8.09596c-0.73417,2.87089 -12.78162,0.29034 -12.67819,-0.50643z"/></g></g><g><g data-paper-data="{&quot;index&quot;:null}"><path d="M524.30441,192.5431c-0.84422,-2.48443 7.66251,-8.53209 8.45276,-8.75834c1.17809,-0.33729 3.31437,3.3102 4.14933,7.29819c0.1647,0.78665 -11.64819,4.26735 -12.60209,1.46015z"/></g><g data-paper-data="{&quot;index&quot;:null}"><path d="M553.40055,183.44463c-2.46116,-3.2349 -3.81848,-7.24312 -2.79732,-7.92429c0.68498,-0.45692 10.78018,-3.02371 12.10244,-0.76067c1.49406,2.55705 -8.81964,9.32306 -9.30512,8.68496z"/></g></g></g><g><g><g data-paper-data="{&quot;index&quot;:null}"><path d="M536.03497,203.86202c-2.33743,-1.15744 -0.57122,-11.50885 -0.17194,-12.23279c0.59524,-1.07924 4.66004,-0.01972 8.04485,2.20924c0.66768,0.43967 -5.23181,11.33136 -7.87291,10.02355z"/></g><g data-paper-data="{&quot;index&quot;:null}"><path d="M550.19773,176.66294c-4.00495,-0.53558 -7.77269,-2.40625 -7.52927,-3.61711c0.16328,-0.81223 5.49076,-9.83134 8.01048,-9.1717c2.84708,0.74534 0.30879,12.89445 -0.48121,12.78881z"/></g></g><g><g data-paper-data="{&quot;index&quot;:null}"><path d="M552.8919,203.27095c-2.46141,0.84756 -8.47034,-7.74387 -8.69592,-8.54143c-0.33628,-1.189 3.27592,-3.33808 7.2278,-4.17384c0.77953,-0.16486 4.24931,11.7576 1.46812,12.71527z"/></g><g data-paper-data="{&quot;index&quot;:null}"><path d="M543.82494,173.90413c-3.20268,2.47748 -7.17376,3.84016 -7.85068,2.80891c-0.45407,-0.69174 -3.01507,-10.87991 -0.77391,-12.21008c2.53233,-1.50299 9.25633,8.91247 8.62458,9.40117z"/></g></g></g></g><path d="M555.0273,176.6442c4.00472,5.83948 2.55055,13.92066 -3.24796,18.04982c-5.79851,4.12916 -13.7456,2.74267 -17.75032,-3.09681c-4.00472,-5.83948 -2.55056,-13.92066 3.24795,-18.04982c5.79851,-4.12916 13.74561,-2.74268 17.75032,3.0968z" fill="#ffa363"/></g><path d="M551.22286,188.11473c0,0 0.15735,2.8517 -0.27611,3.12462c-0.60014,0.37787 -2.99028,-1.068 -2.99028,-1.068" fill="none" stroke-linecap="round"/></g><g stroke-width="2" stroke-linecap="butt"><path d="M537.31206,186.29775c0,-2.60575 2.11238,-4.71812 4.71812,-4.71812c2.60574,0 4.71812,2.11237 4.71812,4.71812c0,2.60575 -2.11238,4.71812 -4.71812,4.71812c-2.60574,0 -4.71812,-2.11238 -4.71812,-4.71812z" fill="#ffffff" stroke="#552365"/><path d="M536.64667,192.22565c0,-0.67469 0.19115,-4.05274 0.5444,-4.05274c0.44601,0 4.2186,2.99384 3.69155,3.68921c-0.16998,0.22426 -4.23595,0.70699 -4.23595,0.36353z" fill="#552365" stroke="none"/></g><g data-paper-data="{&quot;index&quot;:null}" stroke-width="2" stroke-linecap="butt"><path d="M555.21899,183.12999c-0.481,2.13959 -2.47033,3.18714 -4.44327,2.33979c-1.97294,-0.84735 -3.18241,-3.26875 -2.7014,-5.40833c0.481,-2.13959 2.47033,-3.18714 4.44327,-2.33979c1.97294,0.84735 3.18241,3.26875 2.70141,5.40833z" fill="#ffffff" stroke="#552365"/><path d="M556.07157,182.46292c-0.62379,0.20664 -2.19419,-3.86461 -2.11185,-4.23083c0.06521,-0.29006 2.65819,0.6515 3.16904,0.8709c0.26005,0.11168 -0.856,3.29329 -1.05718,3.35993z" fill="#552365" stroke="none"/></g><path d="M539.32868,212.55882l28.45318,-15.77858" fill="none" stroke="#3e0e6c" stroke-width="2.5" stroke-linecap="round"/><path d="M559.66585,202.63213l-26.1252,14.22659" fill="none" stroke="#3e0e6c" stroke-width="2.5" stroke-linecap="round"/><path d="M543.71182,192.06717c0,0 -2.08722,0.49902 -2.87414,0.42907c-0.88364,-0.07855 -2.17124,-0.87755 -2.17124,-0.87755" fill="none" stroke="#552365" stroke-width="1.5" stroke-linecap="round"/></g><text transform="translate(283.04858,197.51852) rotate(-1.61701) scale(0.85494,0.90347) skewX(-2.28963)" font-size="40" xml:space="preserve" fill="#3e0e6c" fill-rule="nonzero" stroke="none" stroke-width="1" stroke-linecap="butt" stroke-linejoin="miter" stroke-miterlimit="10" stroke-dasharray="" stroke-dashoffset="0" font-family="&quot;Neon&quot;, Sans Serif" font-weight="normal" text-anchor="start" style="mix-blend-mode: normal"><tspan x="0" dy="0">OFFICE</tspan></text><path d="M77.67888,81.07125c-43.13955,52.79843 -110.17585,32.09333 -128.28405,35.17209c-2.81471,0.47855 -12.8815,25.81138 -13.57261,25.2467c-2.58658,-2.1134 14.14447,-51.24065 35.25578,-67.31237c20.81849,-15.84881 52.81406,13.27395 77.56257,-17.0157c34.13965,-41.78347 24.77987,-80.91749 48.23896,-129.50808c4.06803,-8.42608 18.00831,-8.2599 19.44779,-7.08375c5.13729,4.19748 11.19667,99.49578 -38.64843,160.50112z" fill="#3e0e6c" stroke="none" stroke-width="0" stroke-linecap="butt"/><path d="M43.75903,156.82374c-28.34243,62.01131 -98.43794,58.98028 -115.17373,66.54987c-2.60139,1.1766 -5.91592,28.23406 -6.72762,27.86307c-3.03793,-1.38849 0.68987,-53.15255 17.0362,-74.05196c16.1196,-20.60953 54.45383,-0.55114 70.71345,-36.12608c23.5719,-51.57369 6.20164,-121.42692 10.82202,-145.01463c1.79862,-9.1822 18.32846,-5.04857 20.01912,-4.27585c6.03371,2.75772 36.05851,93.40534 3.31057,165.05559z" fill="#3e0e6c" stroke="none" stroke-width="0" stroke-linecap="butt"/><path d="M120.56888,216.73533c-0.71662,2.8665 -2.38262,1.69015 -4.1804,2.99602c-0.37094,0.26944 -0.94744,0.97719 -1.61411,1.58229c0.23218,3.12939 -4.1098,4.97317 -6.97573,3.06849l-0.03127,0.01845l-1.19121,0.35295l-0.08207,0.00354l-0.07555,0.03226l-1.06296,0.17008l-0.93109,0.21161l-0.05795,-0.00124l-0.05387,0.02137l-0.54422,0.07256l-0.28455,0.09485l-0.04887,0.00376l-0.04324,0.02306l-0.21706,0.05427l-0.00238,0.00291l-0.01363,0.00109l-0.11988,0.02997h-0.25474l-0.25392,0.02032l-0.12189,-0.02032h-0.01368l-0.0026,-0.00271l-0.12654,-0.02109l-0.06599,-0.02869l-0.07191,-0.0024l-0.18062,-0.0516l-0.00487,0.00182l-0.01631,-0.00788l-0.10703,-0.03058l-0.22397,-0.12922l-0.23286,-0.11241l-0.08552,-0.07126l-0.01568,-0.00905l-0.00124,-0.00505l-0.15267,-0.12722l-0.12015,-0.09612l-0.00859,-0.00048l-0.01743,-0.02034l-0.06466,-0.05173l-0.12935,-0.16977l-0.01779,-0.01067l-0.22059,-0.22059l-0.07917,-0.13195l-0.10881,-0.10881l-0.12651,-0.21085l-0.20483,-0.32773l-0.07805,-0.11706l-0.21668,-0.60671l0.00436,-0.0087l-0.0054,-0.00809l0.13975,-0.62889l0.04412,-0.08823l0.32011,-0.37347l0.02452,-0.06189l0.04383,-0.01785l0.0308,-0.03593l0.06646,-0.0037l0.45553,-0.18559l0.2353,-0.03361l0.58376,-0.15567l0.73499,-0.20417l1.00742,-0.37778l0.01705,-0.00195l0.01438,-0.00935l0.69844,-0.24084c-0.60354,-0.43115 -0.83272,-1.06264 -0.23607,-1.95762c0.66665,-0.99997 4.04592,-1.2518 5.1585,-1.56098c0.91131,-0.25324 0.8567,-2.89203 2.08773,-2.89203c0.52013,0 1.98851,0.53245 3.05467,1.18159c0.06717,-0.06238 0.14119,-0.11745 0.22084,-0.16398c1.85574,-1.78289 6.73676,-0.57185 6.15364,1.76063zM106.36615,222.20832l0.06692,-0.01983c0.00128,-0.00247 0.00256,-0.00493 0.00384,-0.00739z" fill="#f2f2f2" stroke="none" stroke-width="0.5" stroke-linecap="butt"/><path d="M117.44561,221.90096c-1.65923,0 -1.57987,-2.17668 -2.68297,-2.32977c-0.31852,-0.04421 -0.69815,5.92383 -2.65112,1.86046c-0.7656,-1.59293 0.50401,-4.56157 1.89282,-5.35518c1.04608,-0.59776 3.25301,2.65399 3.63668,3.22949c0.0169,-0.00068 0.03388,-0.00102 0.05095,-0.00102c0.02029,0 0.04047,0.00048 0.06052,0.00144c1.01263,0.03533 1.30765,0.62249 1.18934,1.22928c0.0001,0.00642 0.00014,0.01284 0.00014,0.01928c0,0.58335 -0.39959,1.07337 -0.93999,1.21126c-0.17355,0.08529 -0.3616,0.13476 -0.55636,0.13476z" fill="#3e0e6c" stroke="none" stroke-width="0.5" stroke-linecap="butt"/><path d="M106.9784,218.40233c1.01252,0.92048 1.43379,5.28544 -1.00754,4.06478c-1.18322,-0.59161 -0.09999,-1.82854 -0.7981,-1.63815c-0.22595,0.32331 -0.60093,0.53478 -1.0253,0.53478c-0.69035,0 -1.25,-0.55964 -1.25,-1.25c0,-0.13326 0.02085,-0.26166 0.05947,-0.38209c0.21246,-1.31579 3.03334,-2.22763 4.02147,-1.32932z" fill="#3e0e6c" stroke="none" stroke-width="0.5" stroke-linecap="butt"/><path d="M108.50016,214.39281c1.48571,-2.97143 5.46231,2.63063 2.95513,3.86959c-0.22813,0.30266 -0.59063,0.49833 -0.99883,0.49833c-0.60094,0 -1.10284,-0.42406 -1.22277,-0.98927c-0.07411,-0.15974 -0.11547,-0.33776 -0.11547,-0.52544c0,-0.09254 0.01006,-0.18273 0.02914,-0.26954c-0.00336,-0.92936 -0.99777,-1.88249 -0.64719,-2.58366z" fill="#3e0e6c" stroke="none" stroke-width="0.5" stroke-linecap="butt"/><path d="M175.36371,214.85807c4.92433,2.73555 2.41745,5.39899 0.4843,8.12391c-0.9687,1.36546 -2.13865,2.59209 -3.49194,3.53677c0.00651,0.08416 0.01269,0.16785 0.01857,0.251c1.73167,1.16616 0.74571,3.13808 0.74571,3.13808l-1.15884,2.31717c-1.42224,2.88575 -2.60183,4.161 -4.39719,4.98229l0.14456,0.22487l-2.54212,1.63421c-0.39603,0.26341 -0.87146,0.41689 -1.38275,0.41689c-1.38071,0 -2.5,-1.11929 -2.5,-2.5c0,-0.47068 0.13007,-0.91098 0.35623,-1.28691l2.42163,-4.19732c0.43506,-1.01224 0.88076,-1.98302 1.29489,-2.95346c-2.54622,0.0202 -4.64186,-0.74476 -4.54243,-4.40425c-0.91245,0.05836 -1.90285,-0.35145 -2.83626,-0.41894l-1.58577,-2.7914c-0.16047,0.14968 -0.31428,0.30963 -0.46397,0.47572c-0.08728,1.54978 -1.92018,2.9045 -2.69305,4.37766l-0.82709,0.02033l0.10655,0.34097l-2.62719,0.821c-0.25155,0.08507 -0.52106,0.13119 -0.80133,0.13119c-1.38071,0 -2.5,-1.11929 -2.5,-2.5c0,-0.40548 0.09653,-0.78841 0.26787,-1.12707c-0.90379,0.37397 -1.87182,0.65811 -2.84188,0.86614c-0.08818,0.74027 -0.48779,1.67124 -1.86514,2.01558c-1.91709,0.47927 -2.69768,-0.93563 -2.94065,-1.5497c-0.34786,-0.00779 -0.67454,-0.02579 -0.97461,-0.05283c-1.99233,-0.17948 -4.92273,0.54461 -5.87726,-1.21336c-0.37282,-0.68663 -0.39135,-1.49432 -0.18675,-2.30746c-0.77316,0 -2.19681,0 -2.19681,0c-1.38071,0 -2.5,-1.11929 -2.5,-2.5c0,-0.85068 0.42489,-1.60213 1.07402,-2.0537l2.32037,-1.65741l0.03258,0.04561c0.13588,-0.1088 0.2778,-0.21089 0.42669,-0.30525c1.60319,-1.01609 3.69323,-0.90712 5.5736,-1.16564c0.54665,-0.07516 1.5103,-0.15956 2.65706,-0.22581l0.87331,-1.85579c0.38893,-0.87551 1.26608,-1.48607 2.28584,-1.48607c1.38071,0 2.5,1.11929 2.5,2.5c0,0.26354 -0.04078,0.51755 -0.11637,0.75607c1.36111,0.05523 2.50315,0.18919 3.06328,0.44439c1.5524,0.70729 3.40908,2.10341 3.41773,3.80932c0.0004,0.07876 -0.00068,0.15675 -0.0032,0.23396c0.12653,0.04791 0.25517,0.09591 0.38511,0.14438c0.76366,-0.75161 1.60706,-1.41149 2.54406,-1.94414c0.62462,-0.90318 1.79621,-1.05939 1.79621,-1.05939c0.55921,-0.0739 1.11972,-0.13825 1.6812,-0.19415c0.28866,-0.0515 0.58404,-0.09271 0.88637,-0.12308c1.35957,-0.13659 3.00933,-0.58041 4.27023,-0.18532c0.32108,-0.00853 0.64214,-0.01544 0.96312,-0.02095c0.83501,-0.01433 1.67051,-0.03201 2.50587,-0.03775c0.44596,-0.68474 1.21831,-1.13745 2.0964,-1.13745c0.87975,0 1.65336,0.45441 2.09893,1.14133c1.59322,-0.09033 3.21622,-0.24088 4.56031,0.50579zM172.3041,218.93811c0.04528,0.23204 0.08166,0.46626 0.1097,0.70239c0.20867,-0.17963 0.42922,-0.34891 0.66723,-0.50266c0.4988,-0.32222 0.02167,-0.31186 -0.77693,-0.19973z" fill="#f2f2f2" stroke="none" stroke-width="0.5" stroke-linecap="butt"/><path d="M177.34047,268.78506c-0.32479,0.1085 -0.87562,0.27682 -1.54824,0.47651c-0.1144,1.03766 -0.86384,1.88404 -1.85116,2.14196l-2.46311,0.70375l-0.02364,-0.08274l-0.17486,0.13078c-3.49694,0.40418 -11.31522,1.78628 -15.46977,-0.76637c-1.15085,0.44621 -2.45282,0.34155 -3.88469,-0.67314c-1.03091,-0.73055 -0.82661,-2.24633 -0.53292,-3.67791c-0.38282,0.01846 -0.81941,-0.06541 -1.30977,-0.31059c-2.23607,-1.11804 -1.11804,-3.35411 -1.11804,-3.35411c3.52412,-6.98989 8.92714,-12.52156 15.06323,-17.31158c3.63914,-2.84082 9.96594,-8.92711 12.10268,-0.15002c0.4075,1.67389 -0.53693,3.36369 -1.04232,5.05363c0.81934,-0.98511 1.74884,-1.92212 2.65922,-2.8925c1.24353,-1.32549 2.40891,-2.75961 3.86905,-3.84187c2.3007,-1.7053 6.93805,-4.80396 10.23939,-2.42838c1.35724,0.97664 1.65914,2.95157 2.05457,4.57624c0.07249,0.29781 0.14341,0.64191 0.21081,1.02374c3.36361,-1.81268 7.25408,-2.89476 10.44692,-3.01753c2.80382,-0.10781 9.53399,0.15925 10.49095,4.45523c0.13859,0.62216 0.11283,1.23955 -0.01257,1.85404c0.21276,0.00179 0.41855,0.00823 0.61622,0.01981c1.83774,0.10769 4.48309,-0.59652 5.4352,0.97904c1.91796,3.17382 -4.61267,8.09167 -5.99232,9.00277c-8.99033,5.93708 -19.33767,7.59371 -29.69234,9.31464c-0.47492,-0.06572 -5.19364,-0.62642 -8.0725,-1.22538zM171.31008,246.39848c-0.10324,0.26214 -0.26211,0.53283 -0.46522,0.80901c0.06028,0.04489 0.11848,0.09243 0.17441,0.14245c0.06286,-0.1946 0.12459,-0.38952 0.18429,-0.58498c0.02532,-0.0829 0.06698,-0.22846 0.10652,-0.36648zM188.58349,245.82686c0.15634,0.07179 0.30547,0.16054 0.44766,0.26427c-0.02507,-0.08917 -0.06415,-0.17304 -0.12274,-0.24953c-0.07813,-0.10203 -0.19571,-0.08191 -0.32492,-0.01474z" fill="#f2f2f2" stroke="none" stroke-width="0.5" stroke-linecap="butt"/><path d="M172.34763,221.15651c1.36973,0.83703 2.14568,1.7816 2.48256,2.79685c0.68031,2.05026 -0.43004,4.38886 -2.05698,6.71249c-0.84552,1.20759 -2.19376,3.9387 -3.91533,3.58688c-6.18222,-1.26338 0.08381,-6.86954 0.89655,-9.08521c0.10064,-0.27434 -0.0723,-2.61199 0.51714,-2.90431z" fill="#f2f2f2" stroke="none" stroke-width="0.5" stroke-linecap="butt"/><path d="M171.7732,237.17192c0.19431,-1.58225 1.44203,-3.54093 2.9964,-4.67636c0.31276,-0.31204 0.70773,-0.54171 1.14961,-0.65371c1.30093,-0.53092 2.68144,-0.37949 3.78075,1.03392c2.40223,3.08858 -4.39846,10.09813 -6.92242,9.377c-2.11624,-0.60464 -2.2421,-3.48129 -1.05924,-4.86129z" fill="#f2f2f2" stroke="none" stroke-width="0.5" stroke-linecap="butt"/><path d="M132.13308,217.51455c0.1249,0.93681 -0.28743,1.99079 -0.82057,2.72035c-1.25563,1.71822 -3.52479,2.92368 -5.453,3.53412c-0.61268,0.19397 -2.74686,3.76583 -3.31938,4.56264c-1.18023,1.64262 -5.52398,4.42186 -6.58951,0.90975c-0.10083,-0.33234 0.24279,-6.43398 0.27918,-6.56336c0.31073,-1.10483 5.00468,-3.80454 6.28287,-4.32861c0.34134,-0.13995 1.3011,-0.24163 1.30447,-0.24838c1.86946,-3.74175 9.39196,-13.81702 12.31916,-5.0354l0.03764,0.07529c0.18291,0.34741 0.28643,0.74312 0.28643,1.16302c0,1.38071 -1.11929,2.5 -2.5,2.5c-0.82488,0 -1.55645,-0.3995 -2.01179,-1.01557c-0.09737,-0.06685 0.17032,1.61982 0.18449,1.72615z" fill="#f2f2f2" stroke="none" stroke-width="0.5" stroke-linecap="butt"/><path d="M139.48774,216.87938c1.33506,-0.74704 3.54277,-1.5487 5.8708,-2.16796c0.64444,-1.62211 -0.89196,-1.47403 -2.14459,-1.07816c-1.32887,0.41995 -2.6668,0.84723 -3.91529,1.46651c-1.33725,0.66331 -2.48407,1.43287 -3.53223,2.30311h2.0854c0.23524,0 0.4629,0.03249 0.67872,0.09323c0.35633,-0.25442 0.6826,-0.46309 0.95719,-0.61674zM142.21499,208.73407c1.68238,-0.30257 3.58932,-0.70417 5.12796,0.0405c1.42298,0.68869 2.39981,2.28649 2.8257,3.80891c0.11114,0.3973 0.18609,0.78079 0.22814,1.15127c0.97992,-0.10378 1.86517,-0.12966 2.57903,-0.05344c2.00998,0.21461 3.90528,1.01993 5.836,1.64279c0.47664,0.00193 0.95112,0.01086 1.42289,0.0275c2.19375,0.07738 4.76675,-0.59929 6.55008,0.68066c1.47797,1.06079 1.97156,3.41293 1.64766,5.20311c-0.5101,2.81932 -6.60201,5.19619 -8.37495,5.78593c-4.69645,1.56221 -9.61939,1.92081 -14.49948,1.84496c-0.69308,-0.01077 -1.39286,0.03193 -2.09146,0.06424c-1.16361,1.02334 -2.70849,0.25089 -2.70849,0.25089l0.12239,0.00749c-0.13885,-0.03803 -1.56445,-0.42486 -3.2212,-0.8803c-1.635,-0.12891 -3.29921,-0.36632 -5.02189,-0.69086l-3.76481,-0.724c-0.65054,-0.11216 -1.21504,-0.47571 -1.58987,-0.98703c-1.57559,0.36808 -3.13791,0.74262 -4.69468,1.176c0.12362,0.61841 0.0153,1.37593 -0.7422,2.13344c-1.76776,1.76776 -3.53553,0 -3.53553,0l-0.73489,-5.80419c2.48023,-0.86522 4.95948,-1.5152 7.46801,-2.11731c-0.26708,-0.39782 -0.42291,-0.87659 -0.42291,-1.39175c0,-0.89739 0.47281,-1.68434 1.18292,-2.12533l1.5643,-1.00562c-1.8584,-0.48281 -1.73685,-2.54921 -1.73685,-2.54921c0.31945,-3.36867 -0.23097,-4.86363 3.22019,-7.08394c1.35493,-0.87169 3.09129,-1.85955 4.63078,-1.38453c2.24598,0.69302 3.34915,2.70407 3.56454,4.78424c1.61207,-0.84408 3.33397,-1.47447 5.16863,-1.80443zM158.71526,222.19967c1.29721,-0.43903 2.502,-1.12386 3.74647,-1.69849c0.41419,-0.19126 1.72279,-0.56867 1.27052,-0.50886c-1.35322,0.17897 -2.70954,0.29167 -4.06732,0.37416c-0.03128,0.09367 -0.06665,0.18645 -0.1065,0.27826c-0.25453,0.58626 -0.53644,1.10059 -0.84317,1.55494zM144.95703,221.82342c-0.80377,0.52883 -1.60512,1.01978 -2.33277,1.49032c1.98955,-0.18519 3.99472,-0.61003 6.12133,-1.31776c1.36127,-0.45302 2.84101,-0.62638 4.10458,-1.30101c-0.78026,0.04715 -1.56009,0.10419 -2.3392,0.17797c-1.78905,0.16941 -3.69792,0.71291 -5.55393,0.95048zM130.62455,214.02153c0.4414,-0.4992 0.85816,-1.09691 1.34365,-1.97903c0.23762,-0.43175 0.65262,-1.64363 0.193,-1.46581c-1.32484,0.51255 -1.51411,2.19794 -1.53665,3.44484z" fill="#f2f2f2" stroke="none" stroke-width="0.5" stroke-linecap="butt"/><path d="M129.88484,219.45912c-0.00342,0.0137 -0.00709,0.02739 -0.01097,0.04104c-0.06461,0.48595 -0.4084,0.88369 -0.86485,1.0267c-0.48922,0.24513 -1.07133,0.20005 -1.46793,-0.44275c-1.05056,-1.70272 1.8331,-9.50139 4.16319,-9.01614c2.31816,0.48277 3.40995,8.91802 2.47187,11.14595c-2.60999,6.19873 -13.27234,0.0249 -16.07675,-1.9076c-0.12615,-0.08693 -2.89576,-2.8427 -2.74643,-3.67877c0.20722,-1.16015 0.63452,-1.45794 1.79467,-1.25072c0.58584,0.10464 2.4297,2.9012 2.49791,2.95719c2.75128,2.25835 4.71155,3.33975 8.29291,3.86659c5.37773,0.7911 3.75575,-3.45872 3.14333,-6.79703c-0.03939,-0.21468 -1.04172,3.40058 -1.19694,4.02149z" fill="#f2f2f2" stroke="none" stroke-width="0.5" stroke-linecap="butt"/><path d="M133.8805,214.62105c-1.11939,0.96649 -1.67655,5.67839 -3.83375,3.52119c-1.86453,-1.86453 2.38001,-6.23089 4.47696,-6.01397c0.49072,0.05077 1.0693,0.26044 1.50715,0.52777c0.23224,0.1418 0.79029,0.47535 1.03441,0.76032c0.01839,0.02148 0.3304,0.68453 0.60637,1.46258c0.05384,0.03235 0.10505,0.06864 0.15322,0.10846c1.28981,-1.45725 3.06295,-2.48775 4.56943,-2.17452c1.91037,0.39721 4.68577,2.40516 4.85133,4.55737c0.09205,1.19667 -1.81973,2.39128 -2.5136,2.90094c-0.12168,0.08938 -0.56215,0.32523 -0.55564,0.32726c0.79711,0.2482 9.63551,0.45818 9.37733,2.52364c-0.2162,1.72961 -2.55491,0.9369 -3.39604,0.83523c-1.54776,-0.18709 -10.36676,-0.89541 -10.75889,-2.28962c-0.75021,-2.66742 6.27286,-3.42942 5.17993,-4.4357c-0.43135,-0.39714 -0.8646,-0.79545 -1.33553,-1.14475c-4.03007,-2.98911 -3.1126,3.36846 -4.88654,4.38213c-0.21744,0.36843 -0.61849,0.61558 -1.07727,0.61558c-0.69036,0 -1.25,-0.55964 -1.25,-1.25c0,-0.1335 0.02093,-0.26211 0.05969,-0.38273c-0.13658,-0.72436 0.0219,-1.55625 0.38238,-2.38188c-0.27843,-0.13894 -0.49773,-0.37871 -0.61007,-0.67149c-0.08001,-0.12634 -0.11557,-0.26429 -0.08213,-0.41476c-0.00028,-0.01094 -0.00043,-0.02191 -0.00043,-0.03291v0c0,-0.00361 0.00001,-0.00722 0.00005,-0.01082c-0.00889,-0.46832 -1.40227,-1.74765 -1.89835,-1.31932z" fill="#3e0e6c" stroke="none" stroke-width="0.5" stroke-linecap="butt"/><path d="M129.66113,220.77069c1.23901,0.30975 3.35522,2.68497 2.50412,4.10347c-1.06413,1.77355 -3.0607,-1.75632 -4.8766,-1.59673c-2.49759,0.2195 -3.54058,0.90888 -5.40939,2.17854c-0.06234,0.04235 -0.1359,0.07773 -0.21734,0.10577c-0.14817,0.06189 -0.31081,0.09608 -0.48143,0.09608c-0.1138,0 -0.22406,-0.01522 -0.32885,-0.04371c-0.56557,-0.09559 -1.07841,-0.46382 -0.92073,-1.17338c-0.00029,-0.01094 -0.00042,-0.02191 -0.00042,-0.03291c0,-0.35762 0.15018,-0.68016 0.3909,-0.908c1.61232,-2.54917 6.89218,-3.34102 9.33975,-2.72913z" fill="#3e0e6c" stroke="none" stroke-width="0.5" stroke-linecap="butt"/><path d="M169.91089,218.34109c1.06095,0.60626 1.16801,2.70214 0.84136,4.54796c1.43078,0.31973 2.66735,0.80782 3.21835,1.63432c1.37778,2.06668 -4.82807,7.07668 -6.43492,7.44429c-1.30184,0.29782 -1.94695,-0.7897 -1.40815,-1.97507c0.62026,-1.36459 4.87365,-2.12355 4.68242,-4.04559c-0.06211,-0.62426 -0.38489,-0.75596 -0.7938,-0.72051c-0.43249,0.81133 -0.94926,1.09716 -1.38016,0.28844c-0.09776,0.00617 -0.18951,0.00153 -0.27262,-0.01881c-2.69713,-0.66016 -7.43866,-1.31056 -9.35425,-3.96293c-2.29693,-3.18037 4.94306,-5.57053 6.21885,-5.06553c0.05798,-0.00824 0.11724,-0.01251 0.17749,-0.01251c0.69036,0 1.25,0.55964 1.25,1.25c0,0.15673 -0.02885,0.30674 -0.08152,0.44498c0.22462,1.63914 -4.86826,0.46198 -5.23388,2.17038c-0.23235,1.08568 1.86895,1.25291 2.92686,1.58982c0.5761,0.18347 1.5497,0.29404 2.66969,0.41862c0.04075,-2.14797 1.63596,-4.75261 2.97428,-3.98786z" fill="#3e0e6c" stroke="none" stroke-width="0.5" stroke-linecap="butt"/><path d="M177.93295,236.58592c-0.53597,0.58921 -1.66062,0.84772 -2.3042,1.27158c-0.56412,0.37152 0.90873,1.22924 0.74491,1.88455c-0.36322,1.45287 -3.62375,5.42528 -4.999,5.42528c-4.52685,0 2.21153,-5.34869 2.28289,-5.57725c0.27524,-0.8815 -1.80212,-1.38108 -1.57815,-2.27697c0.27426,-1.09703 3.60731,-2.44897 4.49178,-2.7438c0.1321,-0.04749 0.27451,-0.07337 0.42297,-0.07337c0.69036,0 1.25,0.55964 1.25,1.25c0,0.09616 -0.01085,0.18977 -0.03141,0.2797c-0.03388,0.19593 -0.12305,0.38797 -0.27979,0.56028z" fill="#3e0e6c" stroke="none" stroke-width="0.5" stroke-linecap="butt"/><path d="M170.17756,251.75889c0.78976,-0.43832 2.65547,-1.10306 3.44772,-0.3037c1.6818,1.6969 -3.78076,14.26987 -5.4636,14.60644c-1.12044,0.22409 -1.44538,-1.73119 -1.38307,-2.51006c0.10912,-1.36397 2.75027,-5.46277 3.22112,-6.70025c0.33724,-0.88631 4.63383,-2.19553 1.12766,-2.75759c-3.04404,-0.48799 -7.87671,6.3884 -10.985,7.60354c-0.18392,0.10645 -0.39746,0.16737 -0.62525,0.16737c-0.69036,0 -1.25,-0.55964 -1.25,-1.25c0,-0.19922 0.0466,-0.38756 0.1295,-0.5547c1.1934,-3.53082 9.19978,-6.86853 11.78091,-8.30106z" fill="#3e0e6c" stroke="none" stroke-width="0.5" stroke-linecap="butt"/><path d="M182.19623,262.105c0.87773,-0.08428 -0.95293,-6.07739 0.24222,-7.00695c2.78293,-2.1645 3.52879,7.87573 1.92126,9.44498c-1.36749,1.33493 -6.43973,-0.7655 -7.536,-0.86584c-0.53994,-0.04942 -6.07487,0.12074 -5.96633,-1.45303c-0.07981,-0.16462 -0.12456,-0.34939 -0.12456,-0.54461c0,-0.69036 0.55964,-1.25 1.25,-1.25c0.26778,0 0.51588,0.0842 0.7193,0.22757c2.83854,-0.51644 6.57354,1.72832 9.49411,1.44788z" fill="#3e0e6c" stroke="none" stroke-width="0.5" stroke-linecap="butt"/><path d="M189.27473,250.75555c-0.96405,-1.16654 -6.45208,1.553 -6.45208,-1.35375c0,-2.24544 5.1491,-1.25035 5.25906,-1.25c0.81268,0.00257 3.04979,0.02334 3.53677,0.87557c0.29684,0.51947 0.4509,1.63968 0.38265,2.83947c0.21303,-0.10938 0.43716,-0.22032 0.67273,-0.33288c1.04422,-0.49892 2.4128,-1.10753 3.56677,-1.49218c0.1321,-0.04749 0.27451,-0.07337 0.42297,-0.07337c0.22525,0 0.43659,0.05958 0.61911,0.16384c0.20427,0.10504 0.34866,0.25167 0.43988,0.42175c0.12101,0.19248 0.191,0.42027 0.191,0.66441c0,0.5623 -0.37128,1.03788 -0.88206,1.19497c-0.98057,0.56837 -5.75787,2.11508 -5.51703,2.65569c0.52268,1.17325 2.48254,1.43648 4.62371,1.58369c1.26977,-2.35561 5.53243,-4.77677 7.66611,-4.24335c0.79063,0.19766 2.23459,2.2519 2.82795,2.70256c0.81293,0.61743 5.25831,2.52456 4.42937,4.18245c-1.44393,2.88785 -8.03079,-4.51558 -8.4267,-4.44358c-1.18892,0.21623 -2.01732,1.1658 -2.83599,2.09551c1.47695,0.21387 2.63371,0.62935 2.90707,1.60255c0.83078,2.95771 -9.61345,8.87198 -10.7694,7.32623c-1.58553,-2.12019 6.42786,-4.91687 7.14594,-6.0577c0.66589,-1.05792 -2.4435,-0.53706 -3.64447,-0.88385c-3.09046,-0.89242 -6.06697,-1.89543 -6.73648,-3.265c-0.18935,-0.21909 -0.30388,-0.50465 -0.30388,-0.81695c0,-0.29195 0.10009,-0.56052 0.26782,-0.77328c0.50828,-1.03934 1.46354,-2.28894 0.60916,-3.32279z" fill="#3e0e6c" stroke="none" stroke-width="0.5" stroke-linecap="butt"/></g></g></svg>