<svg version="1.1" xmlns="http://www.w3.org/2000/svg" xmlns:xlink="http://www.w3.org/1999/xlink" width="97.88579" height="97.88579" viewBox="0,0,97.88579,97.88579"><defs><linearGradient x1="296.96531" y1="180.02181" x2="338.82431" y2="180.02181" gradientUnits="userSpaceOnUse" id="color-1"><stop offset="0" stop-color="#81402c"/><stop offset="1" stop-color="#aa624c"/></linearGradient></defs><g transform="translate(-271.05711,-131.05712)"><g data-paper-data="{&quot;isPaintingLayer&quot;:true}" fill-rule="nonzero" stroke-linecap="butt" stroke-linejoin="miter" stroke-miterlimit="10" stroke-dasharray="" stroke-dashoffset="0" style="mix-blend-mode: normal"><path d="" fill="#8b65ae" stroke="#5c00aa" stroke-width="2.5"/><path d="" fill="#a17cc4" stroke="#5c00aa" stroke-width="2.5"/><path d="" data-paper-data="{&quot;index&quot;:null}" fill="#b867ff" stroke="#5c00aa" stroke-width="2.5"/><path d="" data-paper-data="{&quot;index&quot;:null}" fill="#ffc374" stroke="none" stroke-width="0"/><path d="" data-paper-data="{&quot;index&quot;:null}" fill="none" stroke="#5c00aa" stroke-width="2.5"/><path d="" fill="#a17cc4" stroke="#5c00aa" stroke-width="2.5"/><path d="M318.78578,201.84228c-12.05112,0 -21.82047,-9.76936 -21.82047,-21.82047c0,-12.05112 9.76936,-21.82047 21.82047,-21.82047c4.17963,0 7.92376,1.0685 11.00173,3.02708c1.20835,0.76891 8.78796,0.23426 9.1139,1.62637c0.5025,2.14617 -4.83593,2.16281 -4.39547,2.75119c2.85153,3.80919 4.31837,9.01882 4.31837,14.41582c0,12.05112 -7.9874,21.82047 -20.03852,21.82047z" fill="url(#color-1)" stroke="#741e00" stroke-width="2.5"/><path d="M310.04573,200.02146c-7.70024,-3.36985 -13.08043,-11.05644 -13.08043,-19.99964c0,-12.05112 9.76936,-21.82047 21.82047,-21.82047c3.03196,0 11.25734,1.53959 10.6565,2.99251c-1.38139,3.34044 -10.91363,0.9712 -8.30149,3.4699c1.32267,1.26522 5.80528,2.49316 9.76579,3.77598c3.2573,1.05505 6.16143,2.10351 6.66401,3.61726c0.4575,1.378 -13.43498,2.47847 -13.85883,3.79051c-0.3351,1.03734 12.81525,2.25759 12.81525,3.49863c0,6.65303 -10.25758,5.02866 -18.1153,8.53381c-6.37553,2.84398 -8.36597,12.1415 -8.36597,12.1415z" fill-opacity="0.22353" fill="#731f00" stroke="none" stroke-width="0"/><path d="M310.04573,200.02146c-7.70024,-3.36985 -13.08043,-11.05644 -13.08043,-19.99964c0,-12.05112 9.76936,-21.82047 21.82047,-21.82047c3.03196,0 11.25734,1.53959 10.6565,2.99251c-1.38139,3.34044 -10.91363,0.9712 -8.30149,3.4699c1.32267,1.26522 5.80528,2.49316 9.76579,3.77598c3.2573,1.05505 6.16143,2.10351 6.66401,3.61726c0.4575,1.378 -13.43498,2.47847 -13.85883,3.79051c-0.3351,1.03734 12.81525,2.25759 12.81525,3.49863c0,6.65303 -10.25758,5.02866 -18.1153,8.53381c-2.7246,1.21539 -5.74591,3.60938 -7.05571,5.95266c-1.7551,3.13995 -1.31026,6.18884 -1.31026,6.18884z" fill-opacity="0.23922" fill="#731f00" stroke="none" stroke-width="0"/><path d="M310.04573,200.02146c-7.70024,-3.36985 -13.08043,-11.05644 -13.08043,-19.99964c0,-12.05112 9.76936,-21.82047 21.82047,-21.82047c1.88458,0 5.77563,0.47287 8.30644,1.27197c1.54082,0.48651 -15.27088,4.2771 -12.65874,6.7758c1.32267,1.26522 2.2687,3.71267 6.22921,4.9955c3.2573,1.05505 -6.40512,1.82743 -6.82897,3.13948c-0.3351,1.03734 9.64452,4.33076 9.64452,5.5718c0,1.16699 -3.58711,0.52154 -10.06652,3.41186c-2.13354,0.95173 -0.70395,0.26024 -0.29129,2.9758c0.03877,0.25515 -3.32991,1.97687 -3.27757,2.23748c1.05544,5.25401 0.20289,11.44042 0.20289,11.44042z" fill-opacity="0.23922" fill="#731f00" stroke="none" stroke-width="0"/><path d="M309.38311,199.71812c-0.79072,-0.37815 -1.5551,-0.80252 -2.28967,-1.26961c-6.08843,-3.87138 -10.12814,-10.67728 -10.12814,-18.4267c0,-12.05112 9.76936,-21.82047 21.82047,-21.82047c1.21916,0 -0.27022,3.20509 -2.913,5.82381c-0.40731,0.40361 0.11041,1.15044 -0.39949,1.49225c-1.29586,0.86866 -10.26526,0.18942 -9.69835,0.73172c1.32267,1.26522 4.70772,3.71267 8.66823,4.9955c3.2573,1.05505 -8.11244,2.55914 -8.53629,3.87118c-0.3351,1.03734 7.81525,3.721 7.81525,4.96204c0,1.16699 3.72997,-1.18577 -2.74944,1.70454c-2.13354,0.95173 -9.11858,2.21147 -8.70593,4.92702c0.03877,0.25515 4.59691,3.31833 4.64926,3.57894c1.05544,5.25401 3.12972,9.7331 3.12972,9.7331z" fill-opacity="0.23922" fill="#731f00" stroke="none" stroke-width="0"/><path d="M331.74616,165.5836c1.77219,1.55268 3.67308,3.75094 3.67308,5.91748c0,4.37805 -3.69499,6.6923 -6.47872,6.6923c-1.43202,0 -6.64237,0.28492 -11.29406,-1.18024c-4.39085,-1.38301 -8.29867,-4.4579 -7.57827,-6.458c1.08682,-3.01743 6.06292,-4.01946 7.69956,-5.40672c2.26727,-1.9218 1.35502,-3.58926 3.75394,-3.4742c1.90595,0.09141 3.68417,0.70344 5.06566,1.18138c0.59109,0.2045 1.38818,1.46198 2.65473,2.14773c0.72797,0.39414 1.96336,0.10653 2.50408,0.58027z" fill="#741e00" stroke="none" stroke-width="0"/><path d="M334.71263,179.15463c0,-2.11167 0.72901,-3.82352 1.62828,-3.82352c0.89928,0 2.55873,1.71185 2.55873,3.82352c0,2.11165 -1.65946,3.8235 -2.55873,3.8235c-0.89928,0 -1.62828,-1.71183 -1.62828,-3.8235z" fill="#741e00" stroke="none" stroke-width="0"/><path d="M306.06516,204.03575c-4.39874,0 -8.25961,-4.00836 -8.25961,-8.4071c0,-2.20922 0.83375,-3.53824 2.32823,-4.56332c2.0355,-1.39617 8.27728,1.91656 11.2351,5.01839c2.28741,2.39878 1.66229,4.61214 1.56305,4.79609c-1.34541,2.49382 -3.83445,3.15594 -6.86677,3.15594z" fill="#81402c" stroke="#741e00" stroke-width="2.5"/><path d="M312.54882,163.43778c-0.93839,0.98408 -6.48854,1.49527 -5.18921,2.4534c3.00107,2.21298 0.35986,2.23491 -2.46276,2.23073c-1.28748,-0.00191 -3.1478,0.63286 -3.58313,0.33427c-1.49448,-1.02508 -2.32823,-2.3541 -2.32823,-4.56332c0,-4.39874 3.86087,-8.4071 8.25961,-8.4071c0.28909,0 1.52648,0.09981 2.84063,0.12021c1.45767,0.02263 15.1177,-0.2243 14.99012,1.00349c0.50277,1.78148 -11.44637,1.13808 -10.96397,2.03224c0,0 3.63479,1.60001 -0.56094,3.1159c-0.63887,0.23082 -1.00213,1.68018 -1.00213,1.68018z" data-paper-data="{&quot;index&quot;:null}" fill="#7a2c10" stroke="#741e00" stroke-width="2.5"/><path d="M307.35961,166.06363c3.00107,2.21298 0.35986,2.23491 -2.46276,2.23073c-1.28748,-0.00191 -3.1478,0.63286 -3.58313,0.33427c-1.49448,-1.02508 -2.32823,-2.3541 -2.32823,-4.56332c0,-4.39874 3.86087,-8.4071 8.25961,-8.4071c0.28909,0 1.52648,0.09981 2.84063,0.12021c2.43075,0.03774 7.6481,2.21136 5.25996,2.66603c0,0 -8.94925,2.16076 -9.29484,2.98268c-0.1677,0.39886 3.28128,-0.05483 3.14117,0.27841c-0.29685,0.706 -2.37211,1.95116 -2.78378,2.93025c-0.33785,0.80353 0.95137,1.42785 0.95137,1.42785z" data-paper-data="{&quot;index&quot;:null}" fill-opacity="0.40784" fill="#731f00" stroke="none" stroke-width="0"/><path d="M328.26284,179.42913c4.1951,0 7.59589,3.56588 7.59589,7.96462c0,4.39874 -3.40079,7.96463 -7.59589,7.96463c-4.1951,0 -7.59588,-3.56589 -7.59588,-7.96463c0,-4.39874 3.40079,-7.96462 7.59588,-7.96462z" fill="#ffffff" stroke="#741e00" stroke-width="2.5"/><path d="M330.32775,182.94425c1.66989,0 3.02361,2.11311 3.02361,4.71978c0,2.60666 -1.35371,4.71978 -3.02361,4.71978c-1.66989,0 -3.02361,-2.11311 -3.02361,-4.71978c0,-2.60666 1.35371,-4.71978 3.02361,-4.71978z" fill="#741e00" stroke="none" stroke-width="0"/><g stroke="none" stroke-width="0"><path d="M328.95135,171.86672c-1.04486,0 -1.89189,-0.84702 -1.89189,-1.89189c0,-1.04487 0.84703,-1.8919 1.89189,-1.8919c1.04486,0 1.8919,0.84703 1.8919,1.8919c0,1.04487 -0.84703,1.89189 -1.8919,1.89189z" fill="#ffffff"/><path d="M329.4919,170.78559c-0.4478,0 -0.81081,-0.36301 -0.81081,-0.81081c0,-0.4478 0.36301,-0.81081 0.81081,-0.81081c0.4478,0 0.81081,0.36302 0.81081,0.81081c0,0.4478 -0.36301,0.81081 -0.81081,0.81081z" fill="#741e00"/></g><path d="M316.51892,161.86667c1.19413,0 2.02702,0.63528 2.02702,1.41892c0,0.50662 -3.59976,2.99262 -6.0853,3.76278c-1.35907,0.42111 -2.59626,-0.674 -2.13115,-0.82635c0.37257,-0.12203 1.0571,0.18843 1.65683,-0.07111c0.29058,-0.12576 1.49257,-0.46019 2.02506,-0.98969c0.49942,-0.49662 0.33332,-1.18669 0.52018,-1.39533c0.73999,-0.82623 1.53217,-1.89922 1.98735,-1.89922z" fill="#741e00" stroke="none" stroke-width="0"/><path d="M319.35677,160.24505c0.5119,0 1.51663,-0.28094 2.56429,-0.11449c1.70177,0.27038 5.21893,2.12081 5.21893,2.2594c0,0.11266 -3.3089,-1.15372 -4.80801,-1.11424c-1.48005,0.03897 -2.84835,0.32069 -3.51575,0.32069c-1.34339,0 -2.02702,-0.72204 -2.02702,-0.94594c0,-0.2239 1.22416,-0.40541 2.56757,-0.40541z" fill="#741e00" stroke="none" stroke-width="0"/><path d="M306.38379,169.9748c0.3613,0 1.16552,-0.0387 2.02567,-0.29901c6.25239,-4.08116 0.31586,0.2103 0.50641,1.93943c0.10807,0.98064 2.25149,2.54877 1.92738,2.54877c-0.52281,0 -3.04804,-0.73622 -4.60969,-1.746c-1.11352,-0.72001 -1.4714,-1.77839 -1.4714,-1.90265c0,-0.29853 0.72603,-0.54054 1.62162,-0.54054z" fill="#741e00" stroke="none" stroke-width="0"/><path d="M332.46732,163.62759c0,1.54709 -0.67828,1.63159 -2.50723,0.96319c-1.14093,-0.41696 -2.28001,-0.74277 -2.28001,-1.70787c0,-0.32315 4.78724,0.74468 4.78724,0.74468z" fill="#741e00" stroke="none" stroke-width="0"/><path d="M368.94291,228.94291h-97.88579v-97.88579h97.88579z" fill="none" stroke="none" stroke-width="0"/></g></g></svg>