<svg version="1.1" xmlns="http://www.w3.org/2000/svg" xmlns:xlink="http://www.w3.org/1999/xlink" width="458.57143" height="399.28571" viewBox="0,0,458.57143,399.28571"><g transform="translate(-256.42857,11.78237)"><g data-paper-data="{&quot;isPaintingLayer&quot;:true}" fill-rule="nonzero" stroke-linejoin="miter" stroke-miterlimit="10" stroke-dasharray="" stroke-dashoffset="0" style="mix-blend-mode: normal"><g stroke-linecap="butt"><path d="M548.06702,281.04593c0,18.8198 -21.89062,29.53631 -26.283,29.53631c-4.39237,0 -7.95308,-15.25646 -7.95308,-34.07627c0,-18.8198 1.51342,-35.43631 5.90373,-35.58476c7.43538,-0.25142 28.33235,36.26687 28.33235,40.12471z" fill="#803686" stroke="#5f0d63" stroke-width="2.5"/><path d="M478.83663,243.34749c4.20198,1.41236 3.58429,17.15247 -1.37963,35.15652c-4.96393,18.00405 -12.39436,31.45427 -16.59634,30.04191c-1.69339,-0.56918 -11.54466,-4.56547 -8.11217,-17.22633c5.08492,-18.75585 24.85853,-48.38539 26.08814,-47.9721z" data-paper-data="{&quot;index&quot;:null}" fill="#803686" stroke="#5f0d63" stroke-width="2.5"/><path d="M471.61558,290.99165c0,-0.07304 2.92323,-11.60293 4.18166,-23.72647c0.24531,-2.36329 0.2267,-7.60836 0.38654,-9.94128c0.75567,-11.02905 1.54283,-18.68586 1.80861,-18.83995c4.56457,-2.64641 12.21626,-3.66917 18.15583,-3.66917c9.17982,0 18.53258,-0.76082 23.74268,4.97735c1.17293,1.29181 -0.76341,14.88401 -2.08651,27.14599c-0.31615,2.93001 2.22843,10.54598 2.02092,13.13811c-0.48991,6.11955 -3.49761,6.0174 -3.49761,6.77038c0,13.39101 -4.44563,-3.53869 -20.17947,-3.53869c-15.73386,0 -24.53263,7.68373 -24.53263,7.68373z" fill="#803686" stroke="none" stroke-width="0"/><path d="M473.3573,282.67663c0,-0.34482 0.95739,-0.31768 0.97283,-0.94521c0.00626,-0.25465 4.08133,0.44794 6.66017,-3.87145c0.76016,-1.27322 -1.72796,-5.79975 -0.60197,-7.40467c0.75453,-1.07546 9.43903,-8.67327 9.84917,-9.7469c0.89653,-2.34691 -2.17417,-7.69414 -2.7765,-8.7515c-0.12291,-0.21575 6.04608,-17.38022 8.68722,-17.38022c1.23219,0 2.4675,-0.01371 3.69548,-0.02357c7.92052,-0.06359 15.53645,0.03297 20.04721,5.00092c1.17293,1.29181 -0.76341,14.88401 -2.08651,27.14599c-0.06324,0.58601 -10.85908,0.55819 -10.91584,1.15409c-0.01328,0.1394 2.42656,6.89018 1.02706,9.09084c-3.00783,4.72967 -11.39077,7.05014 -12.98283,8.52716c-8.33091,7.72894 -21.57549,7.66609 -21.57549,-2.79548z" fill="#b058b5" stroke="none" stroke-width="0"/><path d="M473.98178,282.50065c0.00898,-0.36511 1.48895,-13.26816 1.52521,-13.74152c0.05079,-0.66303 -0.06069,-6.76999 0.33944,-12.46989c0.60561,-8.62699 1.8265,-17.85818 2.14596,-18.04339c4.56457,-2.64641 12.21626,-3.66917 18.15583,-3.66917c9.17982,0 18.53258,-0.76082 23.74268,4.97735c1.17293,1.29181 -0.76341,14.88401 -2.08651,27.14599c-0.12477,1.15632 2.56275,17.30081 2.45547,18.42205c-0.80623,8.42717 -3.93217,0.54039 -3.93217,1.48645c0,13.39101 -4.44563,-3.53869 -20.17947,-3.53869c-15.73386,0 -22.79092,12.99782 -22.79092,-0.39319c0,0 0.60905,0.45155 0.62449,-0.17598z" fill="none" stroke="#5f0d63" stroke-width="2.5"/></g><path d="M492.83766,222.20479c0.83294,-2.83781 2.67625,-0.44265 4.55947,-0.75483c3.17804,-0.52684 4.99992,0.83355 6.93055,3.83736c0.42748,0.66511 1.69279,7.96469 1.83627,8.83018c0.93699,5.65223 -13.58143,7.85871 -14.51842,2.20647c-0.0263,-0.15869 0.62803,-12.19733 1.19212,-14.11918z" fill="#6a4a6d" stroke="#5f0d63" stroke-width="2.5" stroke-linecap="butt"/><path d="M437.86197,160.6884c-3.34551,-16.68595 3.31564,-94.79626 9.40111,-93.99274c1.89373,0.25005 15.69452,30.48913 21.01451,47.98144c0.7388,2.4292 0.26515,13.0562 -4.81877,23.591c-2.2117,4.58306 -5.33767,10.72433 -8.88217,14.15764c-7.64366,7.4039 -16.45025,9.58151 -16.71468,8.26265z" data-paper-data="{&quot;index&quot;:null}" fill="#ff3ef9" stroke="#5f0d63" stroke-width="2.5" stroke-linecap="butt"/><path d="M545.77587,151.14119c-3.98895,-4.11092 -6.76341,-10.78435 -8.66959,-15.73892c-4.38164,-11.38878 -2.48646,-21.89263 -0.90402,-24.1145c11.3949,-15.99936 37.33977,-42.6837 39.96872,-42.52791c8.44808,0.50061 -1.16779,78.37833 -9.69135,94.00593c-0.6737,1.23521 -12.10164,-2.75948 -20.70376,-11.6246z" fill="#ff3ef9" stroke="#5f0d63" stroke-width="2.5" stroke-linecap="butt"/><path d="M436.56798,160.35051c2.11173,-35.63665 32.71283,-62.81396 68.34948,-60.70223c35.63665,2.11173 62.81397,32.71284 60.70224,68.34948c-2.11173,35.63665 -32.71284,62.81396 -68.34948,60.70223c-35.63665,-2.11173 -62.81396,-32.71283 -60.70223,-68.34948z" fill="#6a4a6d" stroke="#5f0d63" stroke-width="2.5" stroke-linecap="butt"/><path d="M504.91746,99.64828c35.63665,2.11173 62.81397,32.71284 60.70224,68.34948c-1.68317,28.40444 -14.32524,43.85528 -38.17598,46.89608c-2.96645,0.3782 -17.64681,2.66649 -27.93396,-4.24825c-10.77218,-7.24077 -17.13964,-23.92459 -18.97106,-33.95523c-6.14381,-33.64956 1.86326,-78.37629 24.37876,-77.04208z" fill="#946798" stroke="none" stroke-width="0" stroke-linecap="butt"/><path d="M436.56798,160.35051c2.11173,-35.63665 32.71283,-62.81396 68.34948,-60.70223c35.63665,2.11173 62.81397,32.71284 60.70224,68.34948c-2.11173,35.63665 -32.71284,62.81396 -68.34948,60.70223c-35.63665,-2.11173 -62.81396,-32.71283 -60.70223,-68.34948z" fill="none" stroke="#5f0d63" stroke-width="2.5" stroke-linecap="butt"/><g fill="#a1a7ff" stroke="#5f0d63" stroke-width="2.5" stroke-linecap="butt"><path d="M500.16102,243.81502c0.88391,-9.37641 11.79173,-16.40097 16.68115,-16.2348c2.64081,0.08975 5.10619,1.93768 6.3967,5.50963c0.59375,1.64339 -3.37862,9.40362 -3.39052,9.58052c-0.01985,0.29509 2.27452,8.78637 2.15196,9.20299c-2.34502,7.97157 -22.67929,0.85235 -21.83928,-8.05835z"/><path d="M489.65629,243.07818c-0.76348,8.09894 -19.34674,13.30994 -20.02724,5.969c-0.03556,-0.38366 3.34009,-7.91579 3.37219,-8.18352c0.01924,-0.1605 -2.08885,-7.40812 -1.30745,-8.85691c1.69841,-3.14897 4.11529,-4.67026 6.38983,-4.59296c4.21127,0.14312 12.37606,7.14216 11.57267,15.66438z" data-paper-data="{&quot;index&quot;:null}"/><path d="M495.44993,235.59928c4.88942,0.16616 9.01698,1.33316 8.55114,6.27478c-0.46584,4.94162 -4.80715,8.81289 -9.69657,8.64672c-4.88942,-0.16616 -8.47543,-4.30684 -8.00959,-9.24846c0.46584,-4.94162 4.2656,-5.83921 9.15502,-5.67304z"/></g><g data-paper-data="{&quot;index&quot;:null}" stroke-linecap="butt"><path d="M446.53359,171.06022c6.18803,0 11.20443,5.21591 11.20443,11.65006c0,6.43415 -5.01639,11.65006 -11.20443,11.65006c-6.18803,0 -11.20442,-5.21591 -11.20442,-11.65006c0,-6.43415 5.01639,-11.65006 11.20442,-11.65006z" fill="#5f0d63" stroke="none" stroke-width="0"/><path d="M497.46279,177.60644c0,19.05733 -12.49538,34.50636 -27.9092,34.50636c-15.41383,0 -27.9092,-15.44903 -27.9092,-34.50636c0,-19.05733 12.49538,-34.50636 27.9092,-34.50636c15.41383,0 27.9092,15.44902 27.9092,34.50636z" fill="#ffffff" stroke="#5f0d63" stroke-width="2.5"/></g><g stroke-linecap="butt"><path d="M568.38977,182.69059c0,6.7602 -5.74119,12.24043 -12.82331,12.24043c-7.08212,0 -12.82331,-5.48023 -12.82331,-12.24043c0,-6.7602 5.74119,-12.24043 12.82331,-12.24043c7.08212,0 12.82331,5.48023 12.82331,12.24043z" fill="#5f0d63" stroke="none" stroke-width="0"/><path d="M529.2204,141.07312c17.64091,0 31.94169,16.23191 31.94169,36.25499c0,20.02308 -14.30078,36.25499 -31.94169,36.25499c-17.64092,0 -31.9417,-16.23191 -31.9417,-36.25499c0,-20.02308 14.30079,-36.25499 31.9417,-36.25499z" fill="#ffffff" stroke="#5f0d63" stroke-width="2.5"/></g><g stroke="none" stroke-width="0" stroke-linecap="butt"><path d="M552.20479,177.33573c0,7.28978 -5.23416,13.19931 -11.69082,13.19931c-6.45666,0 -11.69082,-5.90953 -11.69082,-13.19931c0,-7.28978 5.23416,-13.19931 11.69082,-13.19931c6.45666,0 11.69082,5.90954 11.69082,13.19931z" fill="#5f0d63"/><path d="M547.17649,176.95861c0,3.19362 -2.47638,5.78256 -5.53114,5.78256c-3.05476,0 -5.53114,-2.58894 -5.53114,-5.78256c0,-3.19362 2.47638,-5.78255 5.53114,-5.78255c3.05476,0 5.53114,2.58894 5.53114,5.78255z" fill="#ffffff"/></g><g stroke="none" stroke-width="0" stroke-linecap="butt"><path d="M490.85944,181.10696c0,6.87322 -4.89647,12.44506 -10.93657,12.44506c-6.0401,0 -10.93657,-5.57184 -10.93657,-12.44506c0,-6.87322 4.89647,-12.44506 10.93657,-12.44506c6.0401,0 10.93657,5.57184 10.93657,12.44506z" fill="#5f0d63"/><path d="M486.15554,180.75139c0,3.01112 -2.31661,5.45212 -5.17429,5.45212c-2.85768,0 -5.17429,-2.441 -5.17429,-5.45212c0,-3.01112 2.31661,-5.45212 5.17429,-5.45212c2.85768,0 5.17429,2.441 5.17429,5.45212z" fill="#ffffff"/></g><path d="M520.27505,212.65959c0,0 -2.29092,4.29607 -8.79782,6.67417c-1.69462,0.61934 -10.87659,-2.01071 -12.31738,-2.01924c-2.5207,-0.01492 -6.96787,4.85333 -10.70001,3.34624c-6.90409,-2.78795 -10.674,-8.25258 -10.674,-8.25258" fill="none" stroke="#5f0d63" stroke-width="2.5" stroke-linecap="round"/><path d="M308.82382,314.49947c14.44451,-19.06907 92.0928,-13.30391 189.68405,-13.30391c107.80333,0 195.1952,17.81449 195.1952,39.78979c0,21.9753 -87.39187,39.78979 -195.1952,39.78979c-107.80334,0 -191.44386,-15.67087 -191.44386,-37.64617c0,-2.0817 0.24831,-26.63409 1.75981,-28.6295z" fill="#aa5880" stroke="#3e0e6c" stroke-width="2.5" stroke-linecap="butt"/><path d="M307.25377,319.40091c0,-21.9753 87.39186,-39.78979 195.19519,-39.78979c107.80333,0 195.19519,17.81449 195.19519,39.78979c0,21.97529 -87.39186,39.78979 -195.19519,39.78979c-107.80333,0 -195.1952,-17.81449 -195.1952,-39.78979z" fill="#aa5880" stroke="#3e0e6c" stroke-width="2.5" stroke-linecap="butt"/><g stroke="#5f0d63" stroke-width="2.5" stroke-linecap="butt"><path d="M508.53325,92.60586c37.72104,4.95728 60.22878,20.90344 58.35613,30.23651c-3.42272,7.67482 -25.97162,15.05349 -69.99369,10.99311c-38.68975,-3.56855 -57.8064,-17.79323 -57.28857,-26.532c0.51784,-8.73877 30.40339,-19.76025 68.92613,-14.69762z" fill="#662b69"/><path d="M552.39274,105.31495c-0.8656,2.24673 -89.13217,2.83438 -91.67157,0.21785c-1.69071,-1.74206 -0.56694,-5.25634 -0.69761,-5.98629c-1.91374,-19.71464 -3.1404,-64.17769 0.59114,-82.36629c0.61267,-2.98633 14.87532,-14.19678 64.47454,-11.18134c34.58155,2.10242 52.49046,19.05888 52.6876,19.16454c1.33188,1.74376 1.39939,6.23807 0.01949,12.09144c-4.04966,17.17827 -17.58918,47.77731 -25.4036,68.06009z" fill="#662b69"/><path d="M550.43903,111.64312c-0.09093,0.25318 -17.5567,9.73574 -48.33842,7.8765c-32.41422,-1.83741 -40.29121,-13.28974 -40.96775,-13.98683c-1.69071,-1.74206 -0.56694,-5.25634 -0.69761,-5.98629c-0.39144,-4.03253 -0.75414,-9.10049 -1.05154,-14.76725c-0.02528,-0.48166 7.98477,11.31788 44.25855,12.78256c40.45483,1.63351 56.16116,-9.76728 55.9949,-9.35779c-3.56065,8.76956 -6.87419,16.96873 -9.19812,23.43911z" fill="#a1a7ff"/></g><path d="M256.42857,387.50334v-399.28571h458.57143v399.28571z" fill="none" stroke="none" stroke-width="0" stroke-linecap="butt"/></g></g></svg>