<svg version="1.1" xmlns="http://www.w3.org/2000/svg" xmlns:xlink="http://www.w3.org/1999/xlink" width="274.77477" height="385.2047" viewBox="0,0,274.77477,385.2047"><defs><linearGradient x1="320.00002" y1="180.00009" x2="320.00002" y2="180.00009" gradientUnits="userSpaceOnUse" id="color-1"><stop offset="0" stop-color="#67497d"/><stop offset="1" stop-color="#553783"/></linearGradient></defs><g transform="translate(60.15099,0.42968)"><g data-paper-data="{&quot;isPaintingLayer&quot;:true}" fill-rule="nonzero" stroke-linejoin="miter" stroke-miterlimit="10" stroke-dasharray="" stroke-dashoffset="0" style="mix-blend-mode: normal"><path d="M38.22866,367.53389c0.65766,-2.66164 -2.34606,-12.98841 5.08418,-15.17519c15.54163,-4.57401 47.62539,0.3012 50.14895,1.87554c7.31591,4.56407 0.41496,21.26684 -0.93172,26.71699c-2.03329,8.22893 -56.3347,-5.18842 -54.30142,-13.41735z" fill="#753779" stroke="#6b226b" stroke-width="2.5" stroke-linecap="butt"/><path d="M39.58267,346.01069c-1.33859,-2.59902 11.28722,-44.93556 10.7332,-48.39467c-0.78188,-4.88175 -11.88356,-67.82541 -10.07154,-68.75865c5.36289,-2.76208 5.29713,-13.81996 17.68435,9.28126c0.20126,0.37535 21.48319,39.77706 22.79,42.95539c9.70502,23.60393 -1.36262,60.4956 1.32638,71.03286c1.19634,4.68806 -29.65725,18.7464 -42.46238,-6.11619z" fill="#b77598" stroke="#6b226b" stroke-width="2.5" stroke-linecap="butt"/><path d="M-35.37343,327.71928c1.52544,-3.48785 43.31655,-82.06674 60.14347,-104.45345c3.37984,-4.49658 7.06172,1.12919 7.76645,1.43741c4.97181,2.17446 18.94213,-16.20462 13.52112,0.15494c-0.60525,1.82652 -56.66334,151.38582 -57.40826,151.41094c-9.59365,0.32352 -33.61119,-26.62631 -24.02278,-48.54983z" fill="#b77598" stroke="#6b226b" stroke-width="2.5" stroke-linecap="butt"/><path d="M170.62398,141.69133c-1.08136,1.59811 -3.29733,2.52483 -0.45956,2.54211c5.23749,0.03189 11.39619,-4.26028 15.10166,-5.96329c2.95971,-1.36025 6.95512,3.16073 7.71038,5.13022c1.90697,4.97281 4.11248,11.30291 3.72334,16.79414c-0.07337,1.03535 -5.94406,9.40977 -8.0382,10.12683c-0.20271,0.06941 -12.27633,5.60808 -21.07236,5.34721c-11.77242,-0.34913 -21.2354,-6.93157 -22.65636,-11.08145c-1.40193,-4.09429 5.07521,-20.63929 6.56856,-21.34628c2.99988,-1.42023 11.18202,-3.96994 15.01165,-5.02113c2.38259,-0.65399 4.68231,2.62717 4.1109,3.47163z" data-paper-data="{&quot;index&quot;:null}" fill="#ffc7ee" stroke="#6b226b" stroke-width="2.5" stroke-linecap="butt"/><path d="M47.95905,173.42791c0.47551,-0.29046 1.14611,-0.57318 2.047,-0.84484c11.32154,-3.4139 100.18514,-29.73005 100.6079,-29.67406c3.57389,0.47338 14.98174,13.81591 12.97347,28.78687c-0.3359,2.50405 -2.50798,11.19994 -4.21633,13.22639c-0.31365,0.37206 -5.23551,-4.28293 -12.96239,-3.70902c-26.64905,1.97934 -88.76018,10.58404 -96.53726,4.7895c-0.80316,-0.59842 7.08627,-4.43345 7.15608,-4.96044c0.16228,-1.22516 -13.69798,-4.78656 -9.06847,-7.6144z" fill="#7a4469" stroke="#6b226b" stroke-width="2.5" stroke-linecap="butt"/><path d="M146.02858,181.21325c-0.55671,0.04135 3.1083,-7.58013 4.10748,-15.90505c1.26942,-10.57648 0.03891,-22.40698 0.09777,-22.39919c3.57389,0.47338 14.98174,13.81591 12.97347,28.78687c-0.3359,2.50405 -2.50798,11.19994 -4.21633,13.22639c-0.31366,0.37206 -5.23552,-4.28293 -12.9624,-3.70902z" fill="#ed92ff" stroke="#6b226b" stroke-width="2.5" stroke-linecap="butt"/><path d="M39.32316,169.33318c0.03717,0.04548 7.60058,9.44304 7.62964,9.52599c1.59714,4.55984 -67.31212,38.72387 -67.78007,38.15139c-0.12427,-0.15203 -21.30387,-26.48301 -14.35029,-34.78126c0.35229,-0.42041 74.21344,-13.24759 74.50073,-12.89612z" fill="#7a4469" stroke="#6b226b" stroke-width="2.5" stroke-linecap="butt"/><path d="M55.97238,226.47708c-0.45249,4.752 -5.62261,7.99071 -14.31968,7.16257c-8.69707,-0.82814 -14.87491,-4.52305 -14.42242,-9.27506c0.45248,-4.752 7.86966,-7.93293 16.56672,-7.10479c8.69707,0.82814 12.62786,4.46528 12.17538,9.21728z" fill="#785787" stroke="#6b226b" stroke-width="2.5" stroke-linecap="butt"/><path d="M57.31938,199.73057c-1.25712,13.20217 0.3987,24.1734 -5.27076,27.09784c-0.53169,0.27426 -6.53263,0.51149 -11.26639,-0.25137c-5.72871,-0.92321 -10.37926,-3.02295 -11.29442,-4.56656c-3.20594,-5.40757 1.35346,-14.22942 2.35106,-24.70617c1.51769,-15.93861 8.45202,-28.31628 15.48826,-27.64629c7.03625,0.67 11.50993,14.13394 9.99225,30.07255z" fill="#abace6" stroke="none" stroke-width="0" stroke-linecap="butt"/><path d="M57.55661,197.23911c-0.73181,2.4319 -2.40024,4.02308 -4.31878,4.52238c-3.18196,0.8281 -3.98573,-0.45277 -4.27746,-0.18466c-0.52043,0.47827 -2.92271,2.438 -5.41715,2.37621c-4.2123,-0.10435 -12.04519,-3.06924 -11.70435,-6.64874c1.51769,-15.93861 8.45202,-28.31628 15.48826,-27.64629c7.03625,0.67 14.85255,12.21799 10.22948,27.5811z" fill="#f3c0ef" stroke="none" stroke-width="0" stroke-linecap="butt"/><path d="M57.31938,199.73057c-1.25712,13.20217 0.3987,24.1734 -5.27076,27.09784c-0.53169,0.27426 -6.53263,0.51149 -11.26639,-0.25137c-5.72871,-0.92321 -10.37926,-3.02295 -11.29442,-4.56656c-3.20594,-5.40757 1.35346,-14.22942 2.35106,-24.70617c1.51769,-15.93861 8.45202,-28.31628 15.48826,-27.64629c7.03625,0.67 11.50993,14.13394 9.99225,30.07255z" fill="none" stroke="#6b226b" stroke-width="2.5" stroke-linecap="butt"/><path d="M60.6263,195.51203c-1.49678,6.78953 -4.05304,14.64508 -4.31927,19.19921c-0.40225,6.88139 6.2401,9.02366 5.15796,15.86371c-1.42128,8.98363 -5.39944,29.33043 -12.33806,28.28395c-4.33781,-0.65422 -4.29719,-7.00473 -3.84623,-9.93754c0.21608,-1.40532 5.57899,-21.05703 5.95573,-36.12651c0.03051,-1.22045 2.98428,-12.29501 3.50655,-18.55602c0.62613,-7.50618 -0.7113,-16.80422 -1.6414,-21.77203c-0.49694,-2.65421 -0.83443,-3.41366 -0.79013,-3.46943c0,0 3.11062,-2.53029 6.59333,5.25764c1.77206,3.96261 2.98923,17.92398 1.72153,21.25701z" data-paper-data="{&quot;index&quot;:null}" fill="#7a4469" stroke="#6b226b" stroke-width="2.5" stroke-linecap="butt"/><path d="M57.57093,218.98816c0.83828,2.02238 2.21539,3.66373 3.23525,5.49662c0.95086,1.70888 1.80983,11.15526 -1.33748,18.32963c-2.15896,4.9214 -8.58307,16.2289 -9.80586,16.04448c-4.33781,-0.65422 -4.29719,-7.00473 -3.84623,-9.93754c0.43094,-2.80264 6.06331,-7.79039 8.6745,-14.17452c3.00021,-7.33525 3.00102,-15.94879 3.07982,-15.75868z" data-paper-data="{&quot;index&quot;:null}" fill="#f2afff" stroke="#6b226b" stroke-width="2.5" stroke-linecap="butt"/><path d="M48.21346,170.52751c0.16618,0.24919 -3.51026,2.62772 -6.67029,11.60166c-2.02254,5.74372 -3.46823,17.58483 -4.75617,22.17448c-4.19267,14.94095 -2.04279,36.77239 -2.8074,37.87828c-0.28654,0.41445 -1.48117,13.61361 -9.95012,13.08798c-4.5817,-0.28437 -10.99175,-21.17235 -7.91603,-28.20298c0.16402,-6.93678 12.16871,-15.73208 13.19357,-22.55472c0.28683,-1.90948 0.30243,-21.96901 3.95218,-28.6376c4.98063,-9.10031 12.38639,-9.19749 14.95425,-5.34711z" data-paper-data="{&quot;index&quot;:null}" fill="#7a4469" stroke="#6b226b" stroke-width="2.5" stroke-linecap="butt"/><g data-paper-data="{&quot;index&quot;:null}" fill="#ff84dd" stroke="#6b226b" stroke-width="2.5" stroke-linecap="butt"><path d="M40.34897,155.56058c2.94004,0.59357 10.4033,6.85846 8.65952,15.4955c-1.74378,8.63702 -10.09373,12.80122 -13.03377,12.20765c-2.57513,-0.5199 -5.55325,-4.34918 -5.08111,-11.09538c0.0669,-0.95597 2.36467,-2.42221 2.58111,-3.49422c0.43578,-2.15845 -1.12712,-3.67065 -0.4283,-5.39316c2.09752,-5.17012 5.09726,-8.16565 7.30255,-7.7204z"/><path d="M55.36029,172.03042c1.35178,-6.69542 8.64472,-8.50091 10.94243,-8.037c2.02098,0.40802 3.38229,4.20367 2.76108,9.66793c-0.08507,0.74826 -1.44592,2.04878 -1.60872,2.85518c-0.20973,1.0388 0.77283,1.49412 0.48128,2.40059c-1.58755,4.93605 -4.22727,7.80128 -6.16849,7.40937c-2.29771,-0.46389 -7.75936,-7.60063 -6.40758,-14.29606z" data-paper-data="{&quot;index&quot;:null}"/><path d="M58.39055,173.65754c-0.09839,0.48731 -0.27135,0.94238 -0.50623,1.35767c-1.07718,1.90448 -3.45678,2.97207 -5.91876,2.47501c-2.99883,-0.60546 -4.98433,-3.30302 -4.43473,-6.02519c0.5496,-2.72217 3.42617,-4.43812 6.42499,-3.83266c2.44081,0.49279 4.22164,2.60085 4.49934,4.75076c0.06349,0.49152 -0.06461,1.27442 -0.06461,1.27442z"/></g><g data-paper-data="{&quot;index&quot;:null}" stroke="#541287" stroke-width="2.5" stroke-linecap="butt"><path d="" fill="#e5c2ff"/><path d="" fill="#9951b7"/></g><path d="" fill="#725580" stroke="#541287" stroke-width="2.5" stroke-linecap="butt"/><path d="" fill="#6d3e90" stroke="none" stroke-width="0" stroke-linecap="butt"/><path d="" fill="#725580" stroke="none" stroke-width="0" stroke-linecap="butt"/><path d="" fill="#9857ca" stroke="none" stroke-width="0" stroke-linecap="butt"/><path d="" fill="none" stroke="#541287" stroke-width="2.5" stroke-linecap="butt"/><path d="" fill="#9468de" stroke="#541287" stroke-width="2.5" stroke-linecap="butt"/><path d="" fill="#e5c2ff" stroke="#541287" stroke-width="2.5" stroke-linecap="butt"/><g stroke-linecap="butt"><g stroke="#541287" stroke-width="2.5"><path d="" fill="#9d7bb5"/><path d="" fill="#9d7bb5"/><path d="" fill="url(#color-1)"/></g><path d="" fill="#541287" stroke="none" stroke-width="0"/><path d="" fill="#ca80ff" stroke="#541287" stroke-width="2.5"/></g><g stroke="#541287" stroke-width="2.5" stroke-linecap="butt"><path d="" fill="#e5c2ff"/><path d="" fill="#9951b7"/></g><g fill="none" stroke="none" stroke-width="1" stroke-linecap="butt" font-family="sans-serif" font-weight="normal" font-size="12" text-anchor="start"/><g fill="none" stroke="none" stroke-width="1" stroke-linecap="butt" font-family="sans-serif" font-weight="normal" font-size="12" text-anchor="start"/><path d="" fill="#5c3160" stroke="#5f0d63" stroke-width="2.5" stroke-linecap="butt"/><path d="" fill="none" stroke="#5f0d63" stroke-width="2.5" stroke-linecap="round"/><g stroke-linecap="butt"><path d="M15.09375,125.62549c1.15564,-21.54234 19.55599,-38.06902 41.09834,-36.91338c21.54235,1.15564 38.06903,19.55599 36.91339,41.09833c-1.15564,21.54235 -19.55599,38.06903 -41.09834,36.91339c-21.54234,-1.15564 -38.06902,-19.55599 -36.91338,-41.09834z" fill="#ffc7ee" stroke="none" stroke-width="0"/><path d="M15.09375,125.62549c1.15564,-21.54234 19.55599,-38.06902 41.09834,-36.91338c9.5056,0.50992 18.03464,4.37745 24.49887,10.39099c4.66909,4.34355 14.04618,16.92895 5.12993,34.81176c-7.01743,10.07256 -16.18879,19.78454 -23.75774,19.93097c-8.91655,3.39346 -9.82051,-0.4278 -11.20404,0.22866c-1.38805,0.65859 -1.95591,2.78555 -4.66292,4.41489c-2.97489,1.79057 -17.14508,-0.48786 -18.39356,-1.62472c-8.37081,-7.62248 -13.36264,-19.05234 -12.70887,-31.23915z" fill="#b8a1ff" stroke="none" stroke-width="0"/><path d="M15.09375,125.62549c1.15564,-21.54234 19.55599,-38.06902 41.09834,-36.91338c21.54235,1.15564 38.06903,19.55599 36.91339,41.09833c-1.15564,21.54235 -19.55599,38.06903 -41.09834,36.91339c-21.54234,-1.15564 -38.06902,-19.55599 -36.91338,-41.09834z" fill="none" stroke="#6b226b" stroke-width="2.5"/></g><g stroke="#6b226b" stroke-width="2.5" stroke-linecap="butt"><path d="M13.66768,101.79286c-0.33047,-7.85784 16.05738,-16.04693 38.55408,-16.99302c22.4967,-0.94609 42.58324,5.70906 42.91371,13.5669c0.33047,7.85784 -17.42641,16.73313 -39.92312,17.67922c-22.49671,0.94609 -41.21421,-6.39526 -41.54468,-14.2531z" fill="#7a4469"/><path d="M52.58018,20.62835c20.30272,-0.85383 36.99378,3.98149 37.28053,10.79997c0.10781,2.56345 -5.14941,48.58035 -12.41536,65.07035c-6.19532,14.06023 -46.18727,8.3346 -50.32226,3.07779c-8.02416,-20.02026 -13.3885,-61.7324 -13.46809,-63.62491c-0.28674,-6.81848 18.62246,-14.46937 38.92518,-15.3232z" fill="#7a4469"/><path d="M54.04381,92.97339c20.01776,0.0364 27.68315,-8.22425 27.66835,-8.17471c-1.02822,3.44012 -2.37548,10.06015 -3.21966,11.976c-6.19532,14.06023 -46.18727,8.33461 -50.32226,3.0778c-0.84005,-2.09594 -4.56829,-13.1001 -5.34703,-15.60096c-0.04718,-0.1515 5.42002,7.83285 31.2206,8.72187z" fill="#f2afff"/></g><path d="M45.2057,230.76094c-0.56455,3.34178 -1.76441,3.18709 -3.23479,2.93869c-1.47037,-0.2484 -2.65449,-0.49645 -2.08993,-3.83823c0.56455,-3.34178 1.80531,-3.42912 3.27569,-3.18072c1.47037,0.2484 2.61358,0.73848 2.04903,4.08026z" fill="#fff2d8" stroke="#6b226b" stroke-width="2.5" stroke-linecap="butt"/><path d="M158.70494,159.4164c-0.06778,0.02738 -0.14622,0.04749 -0.23698,0.05782c-0.74519,0.08479 -0.82998,-0.6604 -0.82998,-0.6604c-0.10827,-1.2717 -1.14652,-2.12259 -2.40327,-1.07224c-3.72386,3.11226 -3.39803,7.97125 1.72389,8.64917c3.91277,0.22637 5.05642,-4.72615 2.17315,-6.90906l-0.38124,-0.04962c0,0 -0.01721,-0.00483 -0.04557,-0.01566zM158.97632,157.96261c0.1063,0.00471 0.17947,0.02524 0.17947,0.02524l0.89535,0.30863c3.99403,3.15901 2.19138,9.81314 -3.22754,9.58818c-6.33485,-0.83966 -7.5052,-7.5614 -2.43203,-11.3837c1.96554,-1.48091 3.97091,-0.46713 4.58474,1.46166z" fill="#6b226b" stroke="none" stroke-width="0.5" stroke-linecap="butt"/><path d="M158.77288,177.20232c-0.17303,-0.08067 -0.28136,-0.2041 -0.28136,-0.2041c-1.47598,-1.69573 -3.78777,-2.26244 -5.03995,-0.01021c-0.18147,0.3264 -0.83152,1.43462 -0.63933,1.87794c0.70245,1.6203 3.70353,1.71484 4.94839,1.03195c1.14128,-0.70619 1.23145,-1.67165 1.01225,-2.69557zM157.99606,174.59635c-0.01279,-0.22922 0.04922,-0.58795 0.51699,-0.7392c0.71362,-0.23075 0.94437,0.48288 0.94437,0.48288l0.20942,0.64768c0.78595,2.43368 1.28519,4.51335 -1.14391,6.20203c-0.68314,0.3416 -1.44238,0.67128 -2.20472,0.62421c-0.80438,-0.04966 -2.23196,-0.15507 -2.95837,-0.52338c-3.26645,-1.65619 -1.92352,-6.27357 1.24414,-7.19466c0.39004,-0.11342 0.76595,-0.16768 1.12789,-0.17117c-0.5593,-0.12918 -1.04224,-0.29402 -1.53127,-0.53193l-0.06934,0.15954l-1.23677,-0.53752c-0.30832,-0.12573 -0.50553,-0.44742 -0.45977,-0.79293c0.04094,-0.3091 0.26468,-0.54917 0.54796,-0.62578l0.86932,-0.25614c0.49382,-0.14422 0.89496,-0.32054 1.29404,-0.45695c-1.14965,-0.23326 -2.46098,-0.64559 -2.49471,-1.71833c-0.03749,-1.19226 4.0898,-2.04131 4.95316,-2.10693c0,0 0.74838,-0.04924 0.79763,0.69914c0.04925,0.74838 -0.69914,0.79762 -0.69914,0.79762c-0.2663,0.01397 -1.38505,0.33215 -2.29791,0.55872c0.52099,0.19017 1.09697,0.47751 1.51254,0.58588l0.733,0.1919c0.3664,0.09026 0.61389,0.44379 0.56319,0.82655c-0.03535,0.26689 -0.20697,0.4823 -0.43553,0.58548l-1.34611,0.63315l-0.03734,-0.07939c-0.28154,0.1705 -0.56879,0.32424 -0.87862,0.46502c0.61229,0.0993 1.22726,0.28211 1.86915,0.36669l0.72374,0.71649c0,0 0.33048,0.67326 -0.34278,1.00374c-0.01802,0.00885 -0.0358,0.01698 -0.05333,0.02442c0.09569,0.05116 0.19006,0.10564 0.2831,0.16317z" fill="#6b226b" stroke="none" stroke-width="0.5" stroke-linecap="butt"/><g stroke-linecap="butt"><path d="M25.69129,137.61904c1.62692,-0.20354 3.13186,-0.81988 3.286,-0.822c2.3033,-0.03191 5.28047,4.91324 6.03679,8.90159c0.75633,3.98836 0.03386,8.2869 -2.26944,8.31882c-0.95477,0.01323 -4.70698,-2.63773 -7.62751,-6.65467c-2.45833,-3.38124 -4.21945,-8.18947 -4.30122,-8.62069c-0.15662,-0.8259 2.52374,-0.82884 4.87537,-1.12304z" fill="#6b226b" stroke="none" stroke-width="0"/><path d="M49.85033,117.11455c10.85621,1.69709 17.96234,13.91284 16.30698,24.50209c-1.65535,10.58925 -11.89872,18.44225 -22.75493,16.74516c-10.85621,-1.69709 -18.21421,-12.30161 -16.55886,-22.89086c1.65536,-10.58925 12.1506,-20.05348 23.00681,-18.35639z" fill="#ffffff" stroke="#6b226b" stroke-width="2.5"/></g><g data-paper-data="{&quot;index&quot;:null}" stroke-linecap="butt"><path d="M94.51293,137.28797c1.47697,0.40972 3.19026,0.56913 3.01595,1.32419c-0.091,0.39423 -1.64874,4.74033 -3.52403,7.72526c-2.22787,3.54612 -4.86476,5.77969 -5.47396,5.71163c-1.46963,-0.1642 -1.54545,-4.18388 -0.7037,-7.83009c0.84173,-3.64621 3.18918,-8.0479 4.65882,-7.8837c0.09835,0.01098 1.00511,0.66926 2.02691,0.95272z" fill="#6b226b" stroke="none" stroke-width="0"/><path d="M93.21905,135.23297c0.1072,9.89502 -5.54922,19.27721 -12.64202,20.21281c-7.0928,0.9356 -12.93606,-6.92968 -13.04326,-16.82469c-0.1072,-9.89502 5.53292,-20.78281 12.62572,-21.71841c7.0928,-0.9356 12.95237,8.43527 13.05957,18.33029z" fill="#ffffff" stroke="#6b226b" stroke-width="2.5"/></g><path d="M70.49859,160.2542c0,0 -0.38188,1.92178 -9.01765,2.24504c-2.69417,0.10085 -5.63277,-1.1915 -8.7752,-1.50446c-3.08957,-0.3077 -6.39342,0.36585 -7.855,0.23954c-2.43499,-0.21043 -4.05585,-0.14522 -7.54478,-1.27971c-2.6825,-0.87226 -8.0344,-4.4677 -9.27705,-6.74347" fill="none" stroke="#6b226b" stroke-width="2.5" stroke-linecap="round"/><path d="M34.9041,158.55698c3.46765,1.76495 11.95458,2.70636 14.02831,2.70636c6.62908,0 12.003,-0.32483 12.003,1.12528c0,0.64555 -9.87804,8.02132 -19.44472,4.64272c-5.11958,-1.80805 -6.58659,-8.47436 -6.58659,-8.47436z" fill="#6b226b" stroke="none" stroke-width="0" stroke-linecap="butt"/><path d="M44.61883,154.69921l2.62566,-32.25807" fill="none" stroke="#6b226b" stroke-width="2.5" stroke-linecap="round"/><path d="M75.37652,150.57318l1.87547,-24.75619" fill="none" stroke="#6b226b" stroke-width="2.5" stroke-linecap="round"/><path d="M-60.15099,380.9517v-381.38138h274.77477v381.38138z" fill="none" stroke="none" stroke-width="0" stroke-linecap="butt"/></g></g></svg>