<svg version="1.1" xmlns="http://www.w3.org/2000/svg" xmlns:xlink="http://www.w3.org/1999/xlink" width="214.71471" height="247.74775" viewBox="0,0,214.71471,247.74775"><defs><linearGradient x1="229.32715" y1="109.202" x2="229.32715" y2="152.68567" gradientUnits="userSpaceOnUse" id="color-1"><stop offset="0" stop-color="#67497d"/><stop offset="1" stop-color="#553783"/></linearGradient></defs><g transform="translate(-110.54058,-64.38438)"><g data-paper-data="{&quot;isPaintingLayer&quot;:true}" fill-rule="nonzero" stroke-linejoin="miter" stroke-miterlimit="10" stroke-dasharray="" stroke-dashoffset="0" style="mix-blend-mode: normal"><path d="M220.94405,221.7492c0.17524,-0.61564 -3.9412,-25.42679 -3.60107,-27.4447c2.30191,-13.65649 3.79171,-33.79941 6.71959,-33.72385c5.08794,0.13131 -7.98082,78.25039 -3.11852,61.16855z" data-paper-data="{&quot;index&quot;:null}" fill="#9951b7" stroke="#541287" stroke-width="2.5" stroke-linecap="butt"/><path d="M237.89398,160.58064c2.44375,-0.06307 6.23246,16.89187 8.22348,29.66994c0.25176,1.61579 -2.93945,16.62509 -5.32095,22.24667c-1.7304,4.08465 -7.99047,-51.7853 -2.90253,-51.91661z" data-paper-data="{&quot;index&quot;:null}" fill="#9951b7" stroke="#541287" stroke-width="2.5" stroke-linecap="butt"/><path d="M211.79284,252.97569c0.16658,-7.53587 9.40019,-61.3385 9.56701,-62.32655c0.81974,-4.85509 2.09182,-5.2078 3.24653,-5.2078c1.6395,0 7.36987,-3.53431 8.21468,5.41195c0.11585,1.2268 -4.63909,63.30301 -4.59086,64.20763c0.01127,0.21143 -5.92691,0.14639 -10.7389,-0.51261c-2.92348,-0.40036 -5.70171,-1.42559 -5.69845,-1.57262z" data-paper-data="{&quot;index&quot;:null}" fill="#725580" stroke="#541287" stroke-width="2.5" stroke-linecap="butt"/><path d="M205.20226,248.54573c2.20393,-2.2273 6.7742,-2.72404 7.99625,-0.84584c0.62314,0.95772 -0.19317,2.73653 0.14823,4.69297c0.1662,0.95246 11.89552,0.15086 12.0321,1.00039c0.08226,0.51161 -0.13925,3.79125 -0.82059,4.88568c-1.85354,2.97732 -21.86275,3.6353 -22.02646,-0.61299c-0.14502,-3.7631 0.65031,-7.07862 2.67047,-9.12021z" data-paper-data="{&quot;index&quot;:null}" fill="#683980" stroke="#541287" stroke-width="2.5" stroke-linecap="butt"/><path d="M224.65315,261.01054c-0.19938,-2.1344 3.6037,-66.32192 3.77914,-67.36097c0.81974,-4.85509 2.09181,-5.2078 3.24652,-5.2078c1.6395,0 7.36988,-3.53431 8.21469,5.41195c0.11585,1.2268 5.21946,63.303 5.26769,64.20763c0.01812,0.33988 -20.09923,7.32554 -20.50803,2.94919z" data-paper-data="{&quot;index&quot;:null}" fill="#725580" stroke="#541287" stroke-width="2.5" stroke-linecap="butt"/><path d="M224.65315,261.01054c-0.0798,-0.85431 0.48161,-11.64999 1.19498,-24.35854c0.03212,-0.57216 0.54442,8.47143 1.87355,10.25966c1.01932,1.3714 2.9365,-4.36308 2.96186,-4.81063c0.27739,-4.89561 0.62447,-18.63305 1.20075,-17.96267c0.38506,0.44794 4.33392,10.97473 4.78423,12.27954c0.53047,1.53707 2.27842,4.50961 3.74749,3.34268c2.25466,-1.79095 2.57752,-8.31421 2.95028,-3.76686c0.97331,11.87343 1.7759,21.71147 1.79489,22.06763c0.01812,0.33988 -20.09923,7.32554 -20.50803,2.94919z" data-paper-data="{&quot;index&quot;:null}" fill="#9857ca" stroke="none" stroke-width="0" stroke-linecap="butt"/><path d="M224.65315,261.01054c-0.19938,-2.1344 3.6037,-66.32192 3.77914,-67.36097c0.81974,-4.85509 2.09181,-5.2078 3.24652,-5.2078c1.6395,0 7.36988,-3.53431 8.21469,5.41195c0.11585,1.2268 5.21946,63.303 5.26769,64.20763c0.01812,0.33988 -20.09923,7.32554 -20.50803,2.94919z" data-paper-data="{&quot;index&quot;:null}" fill="none" stroke="#541287" stroke-width="2.5" stroke-linecap="butt"/><path d="M220.82912,190.74171c-0.01672,-0.29654 1.90412,-8.02943 1.99495,-9.8736c0.07822,-1.58812 0.61234,-19.94738 1.41831,-21.18628c1.89767,-2.917 5.10291,-2.59886 7.75081,-2.59886c1.67626,0 4.55823,0.96046 5.97985,2.21555c0.09261,0.08176 1.00794,20.50529 1.05762,21.37183c0.10579,1.8454 2.27943,11.9256 2.26488,12.11751c-0.13774,1.81732 -4.12661,4.27997 -8.54687,4.27151c-2.55551,-0.0049 -3.96931,-0.86901 -6.15239,-1.89002c-2.54085,-1.18833 -5.66778,-2.66517 -5.76715,-4.42764z" data-paper-data="{&quot;index&quot;:null}" fill="#9468de" stroke="#541287" stroke-width="2.5" stroke-linecap="butt"/><path d="M235.2265,157.47098c0,3.07143 -9.05329,2.5541 -9.05329,-0.51733c0,-3.07143 2.02665,-5.56131 4.52665,-5.56131c2.5,0 4.52664,3.00721 4.52664,6.07863z" data-paper-data="{&quot;index&quot;:null}" fill="#e5c2ff" stroke="#541287" stroke-width="2.5" stroke-linecap="butt"/><path d="" data-paper-data="{&quot;index&quot;:null}" fill="#5c3160" stroke="#5f0d63" stroke-width="2.5" stroke-linecap="butt"/><path d="" data-paper-data="{&quot;index&quot;:null}" fill="none" stroke="#5f0d63" stroke-width="2.5" stroke-linecap="round"/><path d="M205.41825,105.5873c9.75922,-0.05497 44.92982,0.25078 50.18139,0.25078c0.82037,0 -0.51359,49.95157 -2.091,49.95157c-6.6014,0 -39.03872,-0.52284 -48.5084,-1.63349c-1.01454,-0.119 -0.71063,-48.5625 0.41799,-48.56886z" data-paper-data="{&quot;index&quot;:null}" fill="#9d7bb5" stroke="#541287" stroke-width="2.5" stroke-linecap="butt"/><path d="M255.54631,106.631c-0.02124,-1.96721 7.21954,2.96195 7.26651,5.43611c0.19884,10.4728 -1.40704,37.62919 -2.08018,38.0348c-0.27474,0.16555 -6.80614,6.4622 -6.68071,5.19037c0.97237,-9.86006 1.59419,-39.4135 1.49437,-48.66128z" data-paper-data="{&quot;index&quot;:null}" fill="#9d7bb5" stroke="#541287" stroke-width="2.5" stroke-linecap="butt"/><path d="M207.93748,109.20773c8.45201,-0.04761 38.91164,0.21719 43.45978,0.21719c0.71049,0 -0.4448,43.26075 -1.81092,43.26075c-5.71717,0 -33.80963,-0.45281 -42.01088,-1.41469c-0.87865,-0.10306 -0.61545,-42.05773 0.36201,-42.06324z" data-paper-data="{&quot;index&quot;:null}" fill="url(#color-1)" stroke="#541287" stroke-width="2.5" stroke-linecap="butt"/><path d="M260.83432,132.25112c-1.57142,0 -2.84532,-8.08375 -2.84532,-14.22659c0,-1.18116 7.5499,-23.47775 7.62158,-23.14051c0.07117,0.33486 0.96966,5.37702 1.29084,9.90352c0.32921,4.63958 0.07805,8.77668 -0.11721,10.01027c-0.15846,1.0011 3.30664,-2.15083 3.15792,-1.2026c-0.60706,3.87062 -7.53639,18.65591 -9.10782,18.65591z" data-paper-data="{&quot;index&quot;:null}" fill="#ca80ff" stroke="#541287" stroke-width="2.5" stroke-linecap="butt"/><path d="M217.3196,266.2386c-0.0889,-2.93925 -0.85118,-7.51471 0.21874,-9.85653c1.31332,-2.87457 17.10708,-5.20953 19.44927,-1.60974c0.62314,0.95771 0.87841,3.59379 1.21981,5.55023c0.16621,0.95247 7.39488,-2.42093 7.53146,-1.5714c0.08225,0.51161 0.07506,3.79125 -0.60628,4.88568c-1.11532,1.79153 -3.50931,3.95229 -5.23933,4.69476c-1.14509,0.49144 -22.42066,2.96537 -22.57366,-2.093z" data-paper-data="{&quot;index&quot;:null}" fill="#683980" stroke="#541287" stroke-width="2.5" stroke-linecap="butt"/><text transform="translate(216.87456,147.23262) rotate(0.38503) scale(1.17429,1.17429)" font-size="40" xml:space="preserve" data-paper-data="{&quot;index&quot;:null}" fill="#ca80ff" fill-rule="nonzero" stroke="none" stroke-width="1" stroke-linecap="butt" stroke-linejoin="miter" stroke-miterlimit="10" stroke-dasharray="" stroke-dashoffset="0" font-family="&quot;Neon&quot;, Sans Serif" font-weight="normal" text-anchor="start" style="mix-blend-mode: normal"><tspan x="0" dy="0">3</tspan></text><path d="M110.54058,312.13213v-247.74775h214.71471v247.74775z" data-paper-data="{&quot;index&quot;:null}" fill="none" stroke="none" stroke-width="0" stroke-linecap="butt"/><path d="" data-paper-data="{&quot;index&quot;:null}" fill="#9468de" stroke="#541287" stroke-width="2.5" stroke-linecap="butt"/></g></g></svg>