<svg version="1.1" xmlns="http://www.w3.org/2000/svg" xmlns:xlink="http://www.w3.org/1999/xlink" width="22.85858" height="22.85858" viewBox="0,0,22.85858,22.85858"><g transform="translate(-338.2797,-168.50976)"><g data-paper-data="{&quot;isPaintingLayer&quot;:true}" fill-rule="nonzero" stroke="none" stroke-width="0" stroke-linecap="butt" stroke-linejoin="miter" stroke-miterlimit="10" stroke-dasharray="" stroke-dashoffset="0" style="mix-blend-mode: normal"><g><path d="M341.73027,179.93905c0,-4.40653 3.57219,-7.97872 7.97872,-7.97872c4.40653,0 7.97873,3.57219 7.97873,7.97872c0,4.40653 -3.5722,7.97872 -7.97873,7.97872c-4.40653,0 -7.97872,-3.57219 -7.97872,-7.97872z" fill="#ffbf90"/><path d="M344.26896,179.93905c0,-3.00445 2.43559,-5.44003 5.44003,-5.44003c3.00445,0 5.44004,2.43559 5.44004,5.44003c0,3.00445 -2.43559,5.44003 -5.44004,5.44003c-3.00445,0 -5.44003,-2.43559 -5.44003,-5.44003z" fill="#ffffff"/></g><path d="M338.2797,191.36834v-22.85858h22.85858v22.85858z" fill="none"/></g></g></svg>