<svg version="1.1" xmlns="http://www.w3.org/2000/svg" xmlns:xlink="http://www.w3.org/1999/xlink" width="43.52525" height="43.52525" viewBox="0,0,43.52525,43.52525"><g transform="translate(-298.23738,-158.23737)"><g data-paper-data="{&quot;isPaintingLayer&quot;:true}" fill-rule="nonzero" stroke="none" stroke-width="0" stroke-linecap="butt" stroke-linejoin="miter" stroke-miterlimit="10" stroke-dasharray="" stroke-dashoffset="0" style="mix-blend-mode: normal"><path d="M307.05763,180c0,-7.14788 5.79448,-12.94236 12.94236,-12.94236c7.14788,0 12.94237,5.79448 12.94237,12.94236c0,7.14788 -5.7945,12.94236 -12.94237,12.94236c-7.14788,0 -12.94236,-5.79448 -12.94236,-12.94236z" fill="#1a0c11"/><path d="M308.98816,180c0,-6.08167 4.93018,-11.01183 11.01183,-11.01183c6.08167,0 11.01185,4.93018 11.01185,11.01183c0,6.08167 -4.93018,11.01183 -11.01185,11.01183c-6.08167,0 -11.01183,-4.93018 -11.01183,-11.01183z" fill="#ffffff"/><path d="M310.30764,180c0,-5.35295 4.33941,-9.69236 9.69236,-9.69236c5.35295,0 9.69237,4.33941 9.69237,9.69236c0,5.35295 -4.33942,9.69236 -9.69237,9.69236c-5.35295,0 -9.69236,-4.33941 -9.69236,-9.69236z" fill="#1a0c11"/><path d="M313.39158,180c0,-3.64973 2.9587,-6.60842 6.60842,-6.60842c3.64973,0 6.60843,2.9587 6.60843,6.60842c0,3.64973 -2.9587,6.60842 -6.60843,6.60842c-3.64973,0 -6.60842,-2.9587 -6.60842,-6.60842z" fill="#ffffff"/><path d="M298.23738,201.76262v-43.52525h43.52525v43.52525z" fill="none"/><path d="M313.93264,180c0,-3.35092 2.71644,-6.06736 6.06736,-6.06736c3.35092,0 6.06737,2.71644 6.06737,6.06736c0,3.35092 -2.71645,6.06736 -6.06737,6.06736c-3.35092,0 -6.06736,-2.71644 -6.06736,-6.06736z" fill="#1a0c11"/><path d="M315.23817,180c0,-2.62989 2.13195,-4.76183 4.76183,-4.76183c2.62989,0 4.76184,2.13195 4.76184,4.76183c0,2.62989 -2.13195,4.76183 -4.76184,4.76183c-2.62989,0 -4.76183,-2.13195 -4.76183,-4.76183z" fill="#ffffff"/></g></g></svg>