<svg version="1.1" xmlns="http://www.w3.org/2000/svg" xmlns:xlink="http://www.w3.org/1999/xlink" width="187.79913" height="109.28831" viewBox="0,0,187.79913,109.28831"><g transform="translate(-213.59642,-234.24565)"><g data-paper-data="{&quot;isPaintingLayer&quot;:true}" fill-rule="nonzero" stroke-linejoin="miter" stroke-miterlimit="10" stroke-dasharray="" stroke-dashoffset="0" style="mix-blend-mode: normal"><g><path d="M230.4055,333.66115c-1.97196,-14.5735 -9.61964,-71.09251 -10.69819,-79.06339c-0.24792,-1.83221 1.04004,-3.49896 2.89348,-3.74976c8.00527,-1.0832 64.39492,-8.71337 78.99695,-10.6892c2.19517,-0.29703 3.65323,1.06572 3.91035,2.96591c1.10116,8.13796 8.79483,64.16355 10.71134,78.32729c0.27549,2.03602 -1.18496,4.24187 -3.1708,4.51058c-8.25103,1.11646 -64.33697,8.70554 -78.78899,10.66106c-2.16108,0.29242 -3.55917,-0.78254 -3.85415,-2.96249z" fill-opacity="0.74902" fill="#ab4fc4" stroke="#ab4ec5" stroke-width="6.5" stroke-linecap="butt"/><g><path d="" fill="#753779" stroke="#6b226b" stroke-width="2.5" stroke-linecap="butt"/><path d="" fill="#b77598" stroke="#6b226b" stroke-width="2.5" stroke-linecap="butt"/><path d="" fill="#b77598" stroke="#6b226b" stroke-width="2.5" stroke-linecap="butt"/><path d="M275.33769,315.19626c0.25417,-0.36902 0.6542,-0.79622 1.22698,-1.29069c3.5382,-3.05441 19.02597,-16.30656 33.9002,-29.0049c0.20448,0.80182 0.35498,1.50493 0.4053,2.05846c0.66017,7.26191 1.05458,15.1749 2.4865,22.59872c-14.83232,8.23936 -28.50632,15.14579 -32.49756,14.24879c-0.78585,-0.17661 3.75359,-5.57635 3.63233,-5.98628c-0.2819,-0.95303 -11.62844,0.9686 -9.15375,-2.6241z" fill="#7a4469" stroke="#6b226b" stroke-width="2.5" stroke-linecap="butt"/><path d="M267.65395,315.01579c0.04219,0.02124 8.67422,4.44783 8.72272,4.49924c0.86213,0.91404 -2.67826,6.51618 -7.88183,13.6696c-0.54224,0.0723 -1.08458,0.14398 -1.62701,0.21514c-1.23478,0.04228 -2.43115,0.11138 -3.53139,0.15269c-9.22284,0.3463 -18.40446,1.63767 -27.55696,2.57519c14.31337,-9.6404 31.68283,-21.20831 31.87448,-21.11185z" fill="#7a4469" stroke="#6b226b" stroke-width="2.5" stroke-linecap="butt"/><path d="" fill="#7a4469" stroke="#6b226b" stroke-width="2.5" stroke-linecap="butt"/><path d="" fill="#785787" stroke="#6b226b" stroke-width="2.5" stroke-linecap="butt"/><path d="M273.63936,312.63407c5.08399,-1.70931 12.22158,5.6965 16.45776,16.79154c-3.03315,0.67916 -5.89678,1.40464 -7.46157,1.66635c-4.23438,0.7082 -8.48197,1.3276 -12.73645,1.90397c-2.31525,-10.16189 -0.89868,-18.80218 3.74027,-20.36186z" fill="#abace6" stroke="none" stroke-width="0" stroke-linecap="butt"/><path d="" fill="#abace6" stroke="none" stroke-width="0" stroke-linecap="butt"/><path d="M273.63934,312.63405c5.36882,-1.80507 14.84304,4.07074 16.52582,16.77634c-3.05832,0.68351 -5.95314,1.41791 -7.52962,1.68158c-4.23438,0.7082 -8.48198,1.3276 -12.73646,1.90397c-2.31526,-10.16189 -0.89869,-18.80219 3.74026,-20.36188z" fill="#f3c0ef" stroke="none" stroke-width="0" stroke-linecap="butt"/><path d="M269.89909,332.99594c-2.31525,-10.16189 -0.89868,-18.80218 3.74027,-20.36186c5.08399,-1.70931 12.22158,5.6965 16.45776,16.79154" fill="none" stroke="#6b226b" stroke-width="2.5" stroke-linecap="butt"/><path d="" data-paper-data="{&quot;index&quot;:null}" fill="#7a4469" stroke="#6b226b" stroke-width="2.5" stroke-linecap="butt"/><path d="M291.87187,327.27046c0.11416,0.55661 0.22388,1.12488 0.33026,1.70031c-1.53367,0.3171 -3.09011,0.67552 -4.52591,1.0105c-0.17752,-0.61482 -0.35877,-1.19373 -0.54257,-1.71993c-1.99746,-5.71841 -6.02379,-12.11015 -8.33333,-15.45461c-1.23394,-1.78688 -1.73046,-2.23422 -1.71618,-2.28969c0,0 1.45645,-2.87689 6.56416,1.70332c2.59888,2.33048 8.06357,12.18688 8.22358,15.05008z" data-paper-data="{&quot;index&quot;:null}" fill="#7a4469" stroke="#6b226b" stroke-width="2.5" stroke-linecap="butt"/><path d="" data-paper-data="{&quot;index&quot;:null}" fill="#f2afff" stroke="#6b226b" stroke-width="2.5" stroke-linecap="butt"/><path d="" data-paper-data="{&quot;index&quot;:null}" fill="#7a4469" stroke="#6b226b" stroke-width="2.5" stroke-linecap="butt"/><path d="M274.57503,312.98257c0.20364,0.12863 -1.71809,3.07929 -1.10132,10.70534c0.18273,2.25929 0.88392,5.43768 1.63965,8.5764c-2.45167,0.35738 -4.90649,0.69419 -7.36326,1.01923c-1.42943,-4.24723 -2.63257,-8.73712 -2.40872,-11.47775c0.67912,-8.3149 6.08698,-10.81076 9.23365,-8.82325z" data-paper-data="{&quot;index&quot;:null}" fill="#7a4469" stroke="#6b226b" stroke-width="2.5" stroke-linecap="butt"/><g data-paper-data="{&quot;index&quot;:null}" fill="#ff84dd" stroke="#6b226b" stroke-width="2.5" stroke-linecap="butt"><path d="M263.89856,304.56373c2.35383,-0.52652 9.88673,1.63186 11.43347,8.54679c1.54674,6.91493 -3.2232,12.7072 -5.57703,13.23372c-2.06168,0.46117 -5.50279,-1.37655 -7.36456,-6.48632c-0.26382,-0.72408 0.94391,-2.55331 0.75194,-3.41157c-0.38654,-1.72809 -2.02958,-2.32716 -2.0802,-3.82116c-0.15192,-4.48423 1.07078,-7.66656 2.83637,-8.06147z"/><path d="M280.31653,311.74677c-1.19903,-5.36045 3.5667,-9.07417 5.40628,-9.48564c1.61802,-0.36193 3.86055,1.98038 5.19314,6.19736c0.18248,0.57746 -0.39133,1.97824 -0.24691,2.62384c0.18603,0.83168 1.0568,0.84446 1.13941,1.60572c0.44987,4.14535 -0.55104,7.1141 -2.10521,7.46175c-1.83958,0.41148 -8.18768,-3.04256 -9.38671,-8.40302z" data-paper-data="{&quot;index&quot;:null}"/><path d="M283.07499,311.94987c0.08726,0.39015 0.1092,0.78103 0.07264,1.16296c-0.16772,1.75152 -1.56608,3.31472 -3.53718,3.75561c-2.40092,0.53703 -4.74242,-0.79437 -5.22991,-2.97378c-0.48748,-2.17941 1.06364,-4.38153 3.46454,-4.91856c1.95415,-0.4371 3.95234,0.5283 4.86015,2.01653c0.20754,0.34024 0.36976,0.95724 0.36976,0.95724z"/></g><g stroke-linecap="butt"><path d="M235.54805,290.84387c-6.20365,-16.20158 1.90127,-34.36461 18.10286,-40.56826c16.20159,-6.20366 34.36461,1.90127 40.56827,18.10285c6.20366,16.20159 -1.90127,34.36461 -18.10286,40.56827c-16.20158,6.20365 -34.36461,-1.90127 -40.56826,-18.10286z" fill="#ffc7ee" stroke="none" stroke-width="0"/><path d="M235.54805,290.84387c-6.20365,-16.20158 1.90127,-34.36461 18.10286,-40.56826c7.14897,-2.73738 14.67986,-2.68883 21.39666,-0.38802c4.85152,1.66186 15.85935,7.83622 15.16464,23.89046c-1.85689,9.69584 -5.41394,19.83196 -10.92553,22.41744c-5.43842,5.41164 -7.3534,2.90079 -8.15472,3.83592c-0.80394,0.93817 -0.52472,2.68636 -1.97966,4.76936c-1.59892,2.28912 -12.7531,5.25458 -14.04231,4.82827c-8.64395,-2.85844 -16.05244,-9.61966 -19.56192,-18.78514z" fill="#b8a1ff" stroke="none" stroke-width="0"/><path d="M235.54805,290.84387c-6.20365,-16.20158 1.90127,-34.36461 18.10286,-40.56826c16.20159,-6.20366 34.36461,1.90127 40.56827,18.10285c6.20366,16.20159 -1.90127,34.36461 -18.10286,40.56827c-16.20158,6.20365 -34.36461,-1.90127 -40.56826,-18.10286z" fill="none" stroke="#6b226b" stroke-width="2.5"/></g><g stroke="#6b226b" stroke-width="2.5" stroke-linecap="butt"><path d="M226.69828,273.8052c-2.66852,-5.36842 5.59899,-15.87313 20.27741,-23.81773c3.35817,-0.12624 6.68021,-0.45199 9.84945,-1.22726c4.66016,-1.13998 9.01186,-3.03553 13.57247,-4.47309c3.83069,-0.62412 7.65304,-1.27396 11.48688,-1.44787c0.58591,-0.02658 1.18886,-0.03103 1.80199,-0.02826c0.78478,0.48462 1.37156,1.08624 1.72977,1.80687c2.81522,5.66354 -7.32196,17.99582 -23.53649,26.05568c-16.21452,8.05985 -32.36628,8.79519 -35.1815,3.13166z" fill="#7a4469"/><path d="" fill="#7a4469"/><path d="M271.81098,249.03712c0.05244,12.35571 -31.19685,21.24263 -35.95504,18.73511c-4.13423,-4.01142 -8.83627,-9.87634 -13.29778,-15.97111c3.52233,-0.83534 7.05674,-1.72481 10.84887,-1.77727c7.63705,-0.10565 15.95163,0.56285 23.41811,-1.26361c4.66016,-1.13998 9.01186,-3.03553 13.57247,-4.47309c0.36065,-0.05876 0.72123,-0.11775 1.08175,-0.17654c0.20778,1.81618 0.32547,3.47662 0.33163,4.92651z" fill="#7a4469"/><path d="M253.46801,254.10889c6.12245,-2.71547 10.2041,-5.78588 12.88371,-8.44284c1.33918,-0.47894 2.68321,-0.94936 4.04589,-1.3789c0.52092,-0.08487 1.04168,-0.17022 1.56234,-0.25478c0.36984,2.03839 0.70673,3.96658 0.71054,4.86467c0.05244,12.35571 -31.19685,21.24263 -35.95503,18.73512c-1.3032,-1.26449 -7.64419,-8.12671 -9.03491,-9.7087c-0.08426,-0.09583 6.54541,3.97897 25.78747,-3.81457z" fill="#f2afff"/></g><path d="" fill="#fff2d8" stroke="#6b226b" stroke-width="2.5" stroke-linecap="butt"/><g stroke-linecap="butt"><path d="M247.25856,296.18396c1.12837,-0.68212 2.03199,-1.62752 2.14452,-1.67954c1.68137,-0.77749 5.48709,1.88016 7.34832,4.56207c1.86124,2.68192 2.73782,6.0758 1.05646,6.85329c-0.69696,0.32229 -4.3209,-0.3965 -7.78114,-2.3909c-2.91264,-1.67878 -5.78032,-4.63396 -5.98155,-4.92394c-0.38542,-0.55537 1.58239,-1.43501 3.21339,-2.42098z" fill="#6b226b" stroke="none" stroke-width="0"/><path d="M258.29111,273.21388c8.52968,-2.30755 17.74844,4.33876 19.99924,12.65869c2.2508,8.31992 -2.70224,17.44156 -11.23192,19.7491c-8.52968,2.30755 -17.40596,-3.07282 -19.65676,-11.39275c-2.2508,-8.31993 2.35977,-18.70749 10.88945,-21.01504z" fill="#ffffff" stroke="#6b226b" stroke-width="2.5"/></g><g data-paper-data="{&quot;index&quot;:null}" stroke-linecap="butt"><path d="M297.70097,273.41005c1.219,-0.18259 2.52963,-0.62638 2.64878,-0.01472c0.06223,0.31936 0.34086,4.02162 -0.05938,6.82803c-0.47549,3.33405 -1.68111,5.83791 -2.15087,5.98735c-1.13322,0.36052 -2.50487,-2.56719 -3.08028,-5.52097c-0.57543,-2.95377 -0.29219,-6.9554 0.84104,-7.31592c0.07584,-0.02414 0.95737,0.16253 1.8007,0.03622z" fill="#6b226b" stroke="none" stroke-width="0"/><path d="M296.07782,272.32422c3.31815,7.23299 2.23494,15.97616 -2.66856,18.98541c-4.9035,3.00925 -11.7704,-0.85499 -15.08855,-8.08797c-3.31815,-7.23299 -2.7398,-17.07672 2.16369,-20.08596c4.9035,-3.00925 12.27529,1.95554 15.59344,9.18852z" fill="#ffffff" stroke="#6b226b" stroke-width="2.5"/></g><path d="M287.58061,298.14094c0,0 0.34865,1.53661 -5.88865,4.60121c-1.9459,0.95609 -4.52745,0.96887 -6.93808,1.76776c-2.37009,0.78545 -4.57631,2.36179 -5.69123,2.7475c-1.85744,0.64259 -3.02664,1.22113 -5.96073,1.53003c-2.25591,0.23751 -7.36405,-0.65132 -9.02183,-1.9161" fill="none" stroke="#6b226b" stroke-width="2.5" stroke-linecap="round"/><path d="M260.88016,308.54718c3.12486,0.16115 9.66687,-1.9258 11.19006,-2.60469c4.86919,-2.17022 8.71008,-4.16811 9.18482,-3.10298c0.21134,0.47416 -4.6296,9.12567 -12.76258,9.77595c-4.35234,0.34799 -7.61229,-4.06826 -7.61229,-4.06826z" fill="#6b226b" stroke="none" stroke-width="0" stroke-linecap="butt"/><path d="M266.75288,302.53319l-8.632,-24.55373" fill="none" stroke="#6b226b" stroke-width="2.5" stroke-linecap="round"/><path d="M287.9942,289.43313l-6.72707,-18.79788" fill="none" stroke="#6b226b" stroke-width="2.5" stroke-linecap="round"/></g><path d="M230.4055,333.66115c-1.97196,-14.5735 -9.61964,-71.09251 -10.69819,-79.06339c-0.24792,-1.83221 1.04004,-3.49896 2.89348,-3.74976c8.00527,-1.0832 64.39492,-8.71337 78.99695,-10.6892c2.19517,-0.29703 3.65323,1.06572 3.91035,2.96591c1.10116,8.13796 8.79483,64.16355 10.71134,78.32729c0.27549,2.03602 -1.18496,4.24187 -3.1708,4.51058c-8.25103,1.11646 -64.33697,8.70554 -78.78899,10.66106c-2.16108,0.29242 -3.55917,-0.78254 -3.85415,-2.96249z" fill="none" stroke="#ab4ec5" stroke-width="6.5" stroke-linecap="butt"/><path d="M225.13724,343.53396l-11.54082,-97.36525l95.7547,-11.92306l13.38061,96.79916z" fill="none" stroke="none" stroke-width="0" stroke-linecap="butt"/></g><path d="M225.13724,343.53396l-11.54082,-97.36525l95.7547,-11.92306l13.38061,96.79916z" fill="none" stroke="none" stroke-width="0" stroke-linecap="butt"/><text transform="translate(329.8984,278.37322) scale(0.49479,0.49479)" font-size="40" xml:space="preserve" fill="#2a0745" fill-rule="nonzero" stroke="none" stroke-width="1" stroke-linecap="butt" stroke-linejoin="miter" stroke-miterlimit="10" stroke-dasharray="" stroke-dashoffset="0" font-family="&quot;Neon&quot;, Sans Serif" font-weight="normal" text-anchor="start" style="mix-blend-mode: normal"><tspan x="0" dy="0">Died to: </tspan></text><text transform="translate(328.61149,307.05292) scale(0.84716,0.84716)" font-size="40" xml:space="preserve" fill="#2a0745" fill-rule="nonzero" stroke="none" stroke-width="1" stroke-linecap="butt" stroke-linejoin="miter" stroke-miterlimit="10" stroke-dasharray="" stroke-dashoffset="0" font-family="&quot;Neon&quot;, Sans Serif" font-weight="normal" text-anchor="start" style="mix-blend-mode: normal"><tspan x="0" dy="0">Pam</tspan></text></g></g></svg>