<svg version="1.1" xmlns="http://www.w3.org/2000/svg" xmlns:xlink="http://www.w3.org/1999/xlink" width="130.66666" height="24" viewBox="0,0,130.66666,24"><g transform="translate(-337.32612,-333.9027)"><g data-paper-data="{&quot;isPaintingLayer&quot;:true}" fill-rule="nonzero" stroke-linejoin="miter" stroke-miterlimit="10" stroke-dasharray="" stroke-dashoffset="0" style="mix-blend-mode: normal"><path d="M337.32612,357.9027v-24h24v24z" fill-opacity="0.40784" fill="#450031" stroke="none" stroke-width="0" stroke-linecap="butt"/><path d="M340.6952,345.79129c0,-4.76673 3.86419,-8.63092 8.63092,-8.63092c4.76673,0 8.63092,3.8642 8.63092,8.63092c0,4.76673 -3.86419,8.63092 -8.63092,8.63092c-4.76673,0 -8.63092,-3.86419 -8.63092,-8.63092z" fill="none" stroke="#ffe6fd" stroke-width="2.5" stroke-linecap="butt"/><path d="M354.68007,347.69032h-5.34589v-7.29832" fill="none" stroke="#ffe6fd" stroke-width="2.5" stroke-linecap="round"/><path d="M358.64657,335.79679c0,0 -9.5983,20.11537 -9.80856,19.98901c-0.21824,-0.13116 -8.83235,-7.85615 -8.83235,-7.85615" fill="none" stroke="#ff4545" stroke-width="2.5" stroke-linecap="round"/><path d="M363.99278,357.9027v-24h24v24z" fill-opacity="0.40784" fill="#450031" stroke="none" stroke-width="0" stroke-linecap="butt"/><path d="M390.65945,357.9027v-24h24v24z" fill-opacity="0.40784" fill="#450031" stroke="none" stroke-width="0" stroke-linecap="butt"/><path d="M417.32611,357.9027v-24h24v24z" fill-opacity="0.40784" fill="#450031" stroke="none" stroke-width="0" stroke-linecap="butt"/><path d="M443.99278,357.9027v-24h24v24z" fill-opacity="0.40784" fill="#450031" stroke="none" stroke-width="0" stroke-linecap="butt"/><path d="M369.2721,355.41442v-19.02345h13.44136v19.02345z" fill="none" stroke="#ffe6fd" stroke-width="2.5" stroke-linecap="butt"/><path d="M382.39999,350.91561h-12.91209" data-paper-data="{&quot;index&quot;:null}" fill="none" stroke="#ffe6fd" stroke-width="2.5" stroke-linecap="round"/><path d="M376.93906,354.84419l3.79121,-3.79121" data-paper-data="{&quot;index&quot;:null}" fill="none" stroke="#ffe6fd" stroke-width="2.5" stroke-linecap="round"/><path d="M374.90609,351.10792l-3.84616,3.84616" data-paper-data="{&quot;index&quot;:null}" fill="none" stroke="#ffe6fd" stroke-width="2.5" stroke-linecap="round"/><path d="M379.41311,346.8505l-6.84066,-6.84066" fill="none" stroke="#ffe6fd" stroke-width="2.5" stroke-linecap="round"/><path d="M379.41311,340.00984l-6.84066,6.84066" data-paper-data="{&quot;index&quot;:null}" fill="none" stroke="#ffe6fd" stroke-width="2.5" stroke-linecap="round"/><path d="M385.31324,335.9079c0,0 -9.5983,20.11537 -9.80856,19.98901c-0.21824,-0.13116 -8.83235,-7.85615 -8.83235,-7.85615" fill="none" stroke="#ff4545" stroke-width="2.5" stroke-linecap="round"/><g fill="none" stroke="#ffe6fd" stroke-width="2.5"><path d="M434.50118,347.6829c0.2414,0.62223 0.37383,1.29883 0.37383,2.00635c0,3.06457 -2.48432,5.5489 -5.54889,5.5489c-3.06457,0 -5.54889,-2.48433 -5.54889,-5.5489c0,-0.55132 0.08041,-1.08386 0.23013,-1.58654" stroke-linecap="butt"/><path d="M424.40245,344.00199c-0.16589,-0.20644 -0.96083,-6.28067 -0.8397,-6.49989c0.12955,-0.23447 3.70606,-0.92851 5.5615,-0.93482c1.88456,-0.00641 5.63792,0.86566 5.65987,0.89664c0.17816,0.25151 -0.7175,6.48096 -0.87786,6.6144c-0.27024,0.22488 -3.2557,0.7769 -4.81841,0.76436c-1.60415,-0.01288 -4.62854,-0.76993 -4.6854,-0.84069z" stroke-linecap="butt"/><path d="M434.07602,343.91884c1.59081,0.52141 2.59742,1.29211 2.59742,2.15195c0,1.57043 -3.35787,2.84351 -7.5,2.84351c-4.14213,0 -7.5,-1.27308 -7.5,-2.84351c0,-0.95022 1.22935,-1.79158 3.11795,-2.30793" stroke-linecap="butt"/><path d="M421.50559,346.58606c0,0 -1.62204,-4.04945 -1.48855,-4.35114c0.07597,-0.17169 0.55705,-3.46802 1.23226,-3.78176c0.56434,-0.26222 1.97385,0.95733 1.97385,0.95733" stroke-linecap="round"/><path d="M435.42907,339.41049c0,0 1.40952,-1.21955 1.97386,-0.95733c0.67521,0.31374 1.15629,3.61007 1.23226,3.78176c0.13349,0.30169 -1.48856,4.35114 -1.48856,4.35114" data-paper-data="{&quot;index&quot;:null}" stroke-linecap="round"/><path d="M434.12033,342.86778c0,0 -3.2219,0.69106 -4.8374,0.69106c-1.64938,0 -4.95935,-0.69106 -4.95935,-0.69106" stroke-linecap="round"/></g><path d="M438.64657,335.9079c0,0 -9.5983,20.11537 -9.80856,19.98901c-0.21824,-0.13116 -8.83235,-7.85615 -8.83235,-7.85615" fill="none" stroke="#ff4545" stroke-width="2.5" stroke-linecap="round"/><path d="M447.56057,353.59404c-0.11244,-0.17515 -0.13032,-13.97141 0,-14.11953c0.05481,-0.06229 4.30343,-1.53635 8.61232,-1.47368c4.36773,0.06352 8.17075,1.37716 8.25209,1.47368c0.22663,0.26893 0.10321,14.05508 0,14.11953c-0.12329,0.07698 -4.29644,1.00263 -8.19946,0.94737c-3.71784,-0.05263 -8.59417,-0.83711 -8.66495,-0.94737z" fill="none" stroke="#ffe6fd" stroke-width="2.5" stroke-linecap="butt"/><text transform="translate(454.47001,346.48345) scale(0.21958,0.21958)" font-size="40" xml:space="preserve" fill="#ffe6fd" fill-rule="nonzero" stroke="none" stroke-width="1" stroke-linecap="butt" stroke-linejoin="miter" stroke-miterlimit="10" stroke-dasharray="" stroke-dashoffset="0" font-family="&quot;Neon&quot;, Sans Serif" font-weight="normal" text-anchor="start" style="mix-blend-mode: normal"><tspan x="0" dy="0">1</tspan></text><text transform="translate(450.08251,351.5445) scale(0.21958,0.21958)" font-size="40" xml:space="preserve" fill="#ffe6fd" fill-rule="nonzero" stroke="none" stroke-width="1" stroke-linecap="butt" stroke-linejoin="miter" stroke-miterlimit="10" stroke-dasharray="" stroke-dashoffset="0" font-family="&quot;Neon&quot;, Sans Serif" font-weight="normal" text-anchor="start" style="mix-blend-mode: normal"><tspan x="0" dy="0">2 3</tspan></text><path d="M463.02913,339.0321c0,0 1.37168,-3.64118 1.67939,-3.62595c0.31841,0.01575 0.30482,2.04372 0.45992,3.6566c0.00971,0.101 1.03445,-0.92652 1.41347,-0.27738c0.27835,0.47672 -0.05022,2.78644 -0.47526,4.51549c-0.42504,1.72906 -1.28364,2.63964 -1.28364,2.63964" fill="none" stroke="#ffe6fd" stroke-width="2.5" stroke-linecap="round"/><path d="M465.31324,335.9079c0,0 -9.5983,20.11537 -9.80856,19.98901c-0.21824,-0.13116 -8.83235,-7.85615 -8.83235,-7.85615" fill="none" stroke="#ff4545" stroke-width="2.5" stroke-linecap="round"/></g></g></svg>