<svg version="1.1" xmlns="http://www.w3.org/2000/svg" xmlns:xlink="http://www.w3.org/1999/xlink" width="608.28862" height="526.91691" viewBox="0,0,608.28862,526.91691"><defs><linearGradient x1="346.80602" y1="-38.59283" x2="346.80602" y2="83.27138" gradientUnits="userSpaceOnUse" id="color-1"><stop offset="0" stop-color="#ffa4f3"/><stop offset="1" stop-color="#ffd172"/></linearGradient><linearGradient x1="98.76514" y1="-59.11257" x2="98.76514" y2="232.17872" gradientUnits="userSpaceOnUse" id="color-2"><stop offset="0" stop-color="#ffa4f3"/><stop offset="1" stop-color="#ffd172"/></linearGradient><linearGradient x1="657.34462" y1="-64.55518" x2="657.34462" y2="283.79318" gradientUnits="userSpaceOnUse" id="color-3"><stop offset="0" stop-color="#ffa4f3"/><stop offset="1" stop-color="#ffd172"/></linearGradient><linearGradient x1="384.58334" y1="64.58341" x2="384.58334" y2="64.58341" gradientUnits="userSpaceOnUse" id="color-4"><stop offset="0" stop-color="#67497d"/><stop offset="1" stop-color="#553783"/></linearGradient><linearGradient x1="384.58334" y1="64.5834" x2="384.58334" y2="64.5834" gradientUnits="userSpaceOnUse" id="color-5"><stop offset="0" stop-color="#67497d"/><stop offset="1" stop-color="#553783"/></linearGradient><linearGradient x1="143.75029" y1="235.83962" x2="143.75029" y2="254.74151" gradientUnits="userSpaceOnUse" id="color-6"><stop offset="0" stop-color="#55389c"/><stop offset="1" stop-color="#3c50a8"/></linearGradient><linearGradient x1="140.14993" y1="236.5897" x2="140.14993" y2="255.49159" gradientUnits="userSpaceOnUse" id="color-7"><stop offset="0" stop-color="#55389c"/><stop offset="1" stop-color="#3c50a8"/></linearGradient><linearGradient x1="141.15651" y1="232.14036" x2="141.15651" y2="248.97168" gradientUnits="userSpaceOnUse" id="color-8"><stop offset="0" stop-color="#55389c"/><stop offset="1" stop-color="#3c50a8"/></linearGradient><linearGradient x1="131.98218" y1="224.0971" x2="143.20081" y2="224.0971" gradientUnits="userSpaceOnUse" id="color-9"><stop offset="0" stop-color="#887aff"/><stop offset="1" stop-color="#e27aff"/></linearGradient><linearGradient x1="153.15309" y1="224.0971" x2="141.93446" y2="224.0971" gradientUnits="userSpaceOnUse" id="color-10"><stop offset="0" stop-color="#887aff"/><stop offset="1" stop-color="#e27aff"/></linearGradient><linearGradient x1="256.82888" y1="107.79842" x2="256.82888" y2="124.94841" gradientUnits="userSpaceOnUse" id="color-11"><stop offset="0" stop-color="#67497d"/><stop offset="1" stop-color="#553783"/></linearGradient></defs><g transform="translate(38.61753,50.26273)"><g data-paper-data="{&quot;isPaintingLayer&quot;:true}" fill-rule="nonzero" stroke-linejoin="miter" stroke-miterlimit="10" stroke-dasharray="" stroke-dashoffset="0" style="mix-blend-mode: normal"><path d="M23.71099,268.21475v-253.75375h490.07615c0.05967,1.95782 0.1284,3.92983 0.20842,5.91911c0.47622,11.83933 1.37368,23.66746 1.47983,35.51588c0.3872,43.21951 0.37479,86.44412 0,129.66374c-0.35108,40.48506 57.10376,86.60882 52.70546,126.81463c-0.9782,8.94187 -0.65197,18.87663 -1.54575,27.13815c-1.10954,10.25576 -3.31128,18.80002 -4.44192,28.25717c-2.72168,22.76515 -2.18494,25.46519 -4.53972,46.67165c-0.55889,5.03314 -2.73819,14.23318 -3.10783,21.067c-0.68181,12.60526 -1.11918,25.21942 -1.39153,37.83913c-207.94055,5.84778 -541.79387,-2.6327 -570.50808,-2.6327c-62.40609,0 41.06498,-202.5 41.06498,-202.5z" fill="#664585" stroke="#3e0e6c" stroke-width="2.5" stroke-linecap="butt"/><path d="" fill="#664585" stroke="#3e0e6c" stroke-width="2.5" stroke-linecap="butt"/><path d="" fill="#664585" stroke="#3e0e6c" stroke-width="2.5" stroke-linecap="butt"/><path d="M31.21851,-14.18625v-25.45557c1.58364,-0.05311 3.16779,-0.08821 4.75238,-0.10292c10.38523,-0.0964 20.76795,-2.62678 31.16405,-3.00301c7.62501,-0.27594 15.26019,0.05459 22.89,0c10.9046,-0.07803 21.83952,-2.86034 32.77842,-3.003c30.6128,-0.39923 61.23081,0.00988 91.84621,0c20.8992,-0.00674 58.54144,-1.44413 63.36064,-1.5015c20.92034,-0.24905 41.84366,0.01649 62.76549,0c12.58319,-0.00992 27.78066,-1.45315 38.03734,-1.50151c44.48559,-0.20973 88.97173,-0.27523 133.45797,-0.25897c0.05799,2.37576 0.13525,4.6023 0.23594,6.60297c0.48713,9.67865 0.66123,18.96599 0.78427,28.2235z" fill="#664585" stroke="#3e0e6c" stroke-width="2.5" stroke-linecap="butt"/><path d="" fill="#664585" stroke="#3e0e6c" stroke-width="2.5" stroke-linecap="butt"/><path d="" fill="#664585" stroke="#3e0e6c" stroke-width="2.5" stroke-linecap="butt"/><path d="M125.26075,83.27138v-106.60661c0,0 279.45299,-8.81477 387.57071,-11.50272c0.66796,18.6358 0.39637,36.1315 1.1641,55.21805c0.42345,10.52728 1.17994,21.04569 1.41704,31.57741z" fill="url(#color-1)" stroke="#3e0e6c" stroke-width="2.5" stroke-linecap="butt"/><path d="M7.30938,420.92872l-1.60586,-458.52117c10.05831,-1.1337 20.15393,-2.05841 30.26737,-2.15228c10.38523,-0.0964 20.76795,-2.62678 31.16405,-3.00301c7.62501,-0.27594 15.26019,0.05459 22.89,0c0.78106,-0.00559 1.56228,-0.02505 2.34364,-0.05642l40.25049,19.72763v106.60661z" fill="url(#color-2)" stroke="#3e0e6c" stroke-width="2.5" stroke-linecap="butt"/><path d="" fill="url(#color-3)" stroke="#3e0e6c" stroke-width="2.5" stroke-linecap="butt"/><path d="M313.53792,68.69195l0.00897,-60.60791l48.81167,-2.71713l-2.35817,59.76535z" fill="#3e0e6c" stroke="none" stroke-width="0" stroke-linecap="butt"/><path d="M383.55914,103.13264c50.78195,-2.31694 96.00363,2.85827 132.20079,12.82628c0.01341,23.20067 -0.08336,46.40145 -0.28454,69.6008c-0.197,22.71817 -1.10382,45.32067 -2.63896,67.88797c-33.74727,8.64373 -75.14853,14.36838 -121.66675,16.49078c-127.83544,5.83251 -225.63055,-26.185 -227.73215,-72.24716c-2.1016,-46.06216 92.28617,-88.72617 220.12161,-94.55868z" fill="#7b3bb7" stroke="#3e0e6c" stroke-width="2.5" stroke-linecap="butt"/><path d="" fill="#7b3bb7" stroke="#3e0e6c" stroke-width="2.5" stroke-linecap="butt"/><path d="M460.07193,93.08024c0,0 -5.08966,-34.24076 -0.71764,-34.72145c10.80318,-1.18778 35.51876,-3.21209 56.08859,-4.89432c0.01428,0.81042 0.02525,1.62092 0.03251,2.43152c0.09112,10.17098 0.16011,20.34224 0.20746,30.51366c-27.90471,3.59606 -55.61092,6.67059 -55.61092,6.67059z" fill="#a162dc" stroke="#3e0e6c" stroke-width="2.5" stroke-linecap="butt"/><path d="" fill="#a162dc" stroke="#3e0e6c" stroke-width="2.5" stroke-linecap="butt"/><g stroke="#3e0e6c" stroke-width="2.5"><path d="M169.3816,60.04278c-0.02688,-0.64596 -3.87854,-65.79637 -1.21758,-66.13159c17.31729,-2.18153 128.0861,-5.68904 128.47513,-5.70352c0.03075,-0.00114 4.20955,2.04974 4.22319,3.97618c0.07627,10.76712 -2.40014,45.81091 -1.88587,59.775c0.01675,0.45477 -105.60152,12.03944 -126.00721,13.82959c-1.11861,0.09813 -3.55274,-4.90646 -3.58766,-5.74567z" fill="#7f3e64" stroke-linecap="butt"/><path d="M172.33188,65.67445c-0.52462,-12.6163 -1.41834,-59.96455 -1.59325,-68.50928c-0.01527,-0.74578 129.74626,-5.6625 130.36573,-5.68557c0.20264,-0.00754 -0.06865,47.84295 0.53763,64.30546c0.01855,0.50364 -129.22554,11.92312 -129.31011,9.88939z" fill="#895272" stroke-linecap="butt"/><path d="M176.15411,62.73604c0,0 -1.79908,-53.20943 -1.98297,-62.19296c-0.01382,-0.67524 123.83692,-5.25713 124.42466,-5.27856c0.19226,-0.00701 -0.10757,43.31815 0.45303,58.22315c0.01715,0.45599 -122.89471,9.24837 -122.89471,9.24837z" fill="#fac4e4" stroke-linecap="butt"/><path d="M170.29868,-2.8258l-1.86851,-2.80767" fill="none" stroke-linecap="round"/></g><path d="M122.67414,73.78382c3.78138,-1.23626 28.46265,-8.33418 36.54966,-10.69683c1.22344,-0.35743 12.5105,0.36697 13.44425,0.5947c1.38199,0.33706 2.56096,2.37261 3.29286,2.59665c1.32055,0.40423 -12.85356,6.84109 -22.78997,10.00637c-10.78851,3.43671 -24.87353,3.09719 -25.52058,3.05677c-0.3489,-0.0218 -8.53013,-4.39577 -4.97622,-5.55766z" fill="#aa5880" stroke="#3e0e6c" stroke-width="2.5" stroke-linecap="butt"/><path d="M129.54904,79.47544c1.243,0.07766 37.63277,-13.18444 46.02851,-13.18444c1.58938,0 6.57331,25.63593 3.67349,27.49513c-5.8551,3.75395 -37.98795,17.51694 -44.4538,20.26082c-0.65084,0.2762 -4.48026,-25.83354 -5.1753,-32.85284c-0.10821,-1.0928 -0.14044,-1.72289 -0.07289,-1.71867z" fill="#aa5880" stroke="#3e0e6c" stroke-width="2.5" stroke-linecap="butt"/><path d="M134.50743,114.28594c0.0503,0.33644 -6.50248,-5.96315 -8.36877,-8.81137c-1.56304,-2.38542 -4.42552,-29.743 -4.42858,-29.89445c-0.00881,-0.43704 2.73175,-0.18631 3.59465,0.26846c1.10918,0.58457 5.62958,3.70504 4.37823,3.62686c-0.45822,-0.02863 3.82161,28.10167 4.82447,34.81049z" fill="#aa5880" stroke="#3e0e6c" stroke-width="2.5" stroke-linecap="butt"/><path d="M140.92869,107.88102c-0.29829,-2.08937 -4.30989,-26.20178 -3.90857,-26.17812c0.99475,0.05865 30.11694,-10.60904 36.83592,-10.60904c1.27196,0 5.26052,20.01225 2.93984,21.41629c-5.23083,3.16473 -35.86718,15.37087 -35.86718,15.37087z" fill="#3e0e6c" stroke="none" stroke-width="0" stroke-linecap="butt"/><path d="M139.43744,70.07337c-0.66047,-2.31164 2.55201,-5.25641 7.17527,-6.57734c4.62326,-1.32093 8.90657,-0.51781 9.56704,1.79382c0.66046,2.31163 -2.01626,3.917 -6.63952,5.23793c-4.62326,1.32093 -9.44233,1.85721 -10.1028,-0.45442z" fill="#ab7790" stroke="#3e0e6c" stroke-width="2.5" stroke-linecap="butt"/><path d="M141.27092,54.77523c4.76396,10.06221 4.35005,11.50021 3.24688,12.02251c-1.10317,0.5223 -2.47783,-0.06891 -7.24179,-10.13111c-4.76396,-10.06221 -5.89755,-14.76878 -4.79438,-15.29108c1.10317,-0.5223 4.02533,3.33747 8.78929,13.39968z" fill="#cca3b7" stroke="#3e0e6c" stroke-width="2.5" stroke-linecap="butt"/><path d="M151.71353,52.49732c0.86962,11.05866 0.29181,12.28788 -0.52913,12.42869c-0.82094,0.14081 -1.57412,-0.86013 -2.44374,-11.91879c-0.86962,-11.05866 -0.57429,-15.88013 0.24665,-16.02094c0.82094,-0.14081 1.8566,4.45238 2.72622,15.51104z" fill="#cca3b7" stroke="#3e0e6c" stroke-width="2.5" stroke-linecap="butt"/><path d="M383.80869,118.31969c54.18025,-2.47198 100.38442,5.80333 131.93116,19.61985c-0.03805,15.87374 -0.12682,31.74729 -0.26446,47.62018c-0.12527,14.44592 -0.53755,28.84509 -1.21587,43.21817c-30.18834,11.80382 -73.42698,19.583 -124.41155,21.90918c-101.44274,4.62834 -179.04724,-20.77889 -180.71495,-57.33113c-1.66771,-36.55224 73.23292,-70.40791 174.67567,-75.03625z" fill="#c07cff" stroke="none" stroke-width="0" stroke-linecap="butt"/><path d="M194.31398,14.96907c-0.07463,0.74628 -0.82091,0.67165 -0.82091,0.67165l-0.72807,-0.07374c-0.67697,-0.00235 -3.98299,0.05039 -4.38896,0.60441c-1.59811,2.18089 -1.37781,5.99789 -1.56063,8.57291c0,0 -0.05343,0.7481 -0.80153,0.69466c-0.7481,-0.05344 -0.69466,-0.80153 -0.69466,-0.80153c0.19678,-2.73733 -0.04904,-7.31915 1.95996,-9.48924c0.9869,-1.06602 4.20116,-1.07578 5.56053,-1.07935l0.80261,0.07932c0,0 0.74628,0.07462 0.67165,0.82091z" fill="#3e0e6c" stroke="none" stroke-width="0.5" stroke-linecap="butt"/><path d="M198.82241,12.62451c0.12697,0.73917 -0.61221,0.86614 -0.61221,0.86614l-0.45086,0.06534c-1.15888,0.42141 -2.10636,0.60507 -3.0011,1.43672c0,0 -0.55747,0.50172 -1.05919,-0.05575c-0.50172,-0.55747 0.05575,-1.05919 0.05575,-1.05919c1.08981,-0.95725 2.13004,-1.23624 3.49194,-1.73147l0.70954,-0.13399c0,0 0.73918,-0.12696 0.86614,0.61221z" fill="#3e0e6c" stroke="none" stroke-width="0.5" stroke-linecap="butt"/><path d="M200.83847,15.56791c-0.44655,0 -0.62722,-0.26588 -0.70032,-0.48103c-0.03208,-0.08349 -0.04968,-0.17418 -0.04968,-0.26897v-0.15307c0.01746,-0.90332 -0.00962,-1.57972 -1.01029,-1.4695c0,0 -0.75,0 -0.75,-0.75c0,-0.75 0.75,-0.75 0.75,-0.75c1.90514,0.10395 2.48507,1.13653 2.51029,2.9695v0.15307c0,0 0.00001,0.12277 -0.04967,0.26897c-0.0731,0.21515 -0.25378,0.48103 -0.70033,0.48103z" fill="#3e0e6c" stroke="none" stroke-width="0.5" stroke-linecap="butt"/><path d="M205.24822,17.40209c-0.67082,-0.33541 -0.33541,-1.00623 -0.33541,-1.00623l0.19986,-0.38675c0.99561,-1.49341 1.25908,-2.32198 -0.66035,-2.1705c0.03747,0.12131 0.07411,0.25325 0.11082,0.39679l0.00485,0.168c0.0378,0.15749 0.00806,0.30727 -0.03407,0.42176c-0.03318,0.1108 -0.09429,0.24032 -0.20685,0.34151l-0.36294,0.48391c0,0 -0.45,0.6 -1.05,0.15c-0.6,-0.45 -0.15,-1.05 -0.15,-1.05l0.32323,-0.43097c-0.00167,-0.60801 -0.23062,-0.36762 -0.94778,-0.35893c0,0 -0.32956,0 -0.55176,-0.21846c-0.13705,0.17932 -0.35315,0.295 -0.59626,0.295c-0.41422,0 -0.75,-0.33578 -0.75,-0.75c0,-0.41421 0.33578,-0.75 0.75,-0.75c0.20679,0 0.39404,0.08369 0.52972,0.21905c0.21515,-0.29559 0.6183,-0.29559 0.6183,-0.29559c0.56778,0.00517 0.98544,0.02894 1.30606,0.12682c0.19626,-0.17229 0.45225,-0.19924 0.45225,-0.19924c3.48677,-0.31118 4.26555,1.74883 2.46285,4.45289l-0.10629,0.22552c0,0 -0.33541,0.67082 -1.00623,0.33541z" fill="#3e0e6c" stroke="none" stroke-width="0.5" stroke-linecap="butt"/><path d="M210.47993,35.31007c-6.48842,0.64884 -12.73811,1.08888 -19.26544,1.07303c-3.22056,-0.49959 -6.28239,-2.57052 -8.32033,-5.08321c-0.92776,-1.14389 -1.39928,-4.17397 -0.05662,-5.27645c0.58057,-0.47672 1.77902,-0.41165 2.71029,-0.35552c0.00507,-0.52758 0.03142,-1.05532 0.07872,-1.5807c0,0 0.0679,-0.74692 0.81482,-0.67902c0.74692,0.0679 0.67902,0.81482 0.67902,0.81482c-0.04932,0.53691 -0.07397,1.07668 -0.07345,1.61586v0.61227c0,0.26047 -0.09046,0.43049 -0.20855,0.54145c-0.11096,0.11809 -0.28098,0.20855 -0.54145,0.20855c-1.77526,0 -4.49896,0.61794 -2.26078,3.12619c1.91376,2.14469 4.37782,4.11652 7.29271,4.56014c6.43953,-0.01792 12.59745,-0.42951 19.00182,-1.06994l0.76534,-0.07654c0,0 0.0926,-0.00926 0.21583,0.01136c0.06098,-0.12195 0.12194,-0.24389 0.18292,-0.36584c0,0 0.00771,-0.01543 0.02315,-0.04045c0.01406,-0.02581 0.02364,-0.04017 0.02364,-0.04017l0.36574,-0.53706c1.94094,-2.216 2.49578,-3.93968 1.9354,-6.88604l-0.45102,-0.20045c0,0 -0.04447,-0.01976 -0.10571,-0.06055c-0.05254,0.0494 -0.09207,0.07576 -0.09207,0.07576l-0.25975,0.17216c-0.34499,0.19248 -0.65149,0.47859 -0.87172,0.81057c-0.03133,0.20692 -0.14934,0.44771 -0.50315,0.55966c-0.0187,0.00618 -0.03772,0.01164 -0.05703,0.01636c-0.41494,0.10697 -0.6543,-0.0973 -0.7803,-0.28092c-0.05758,-0.07727 -0.10062,-0.16602 -0.12509,-0.26218l-0.1641,-0.5871c-0.45799,-2.51942 -0.34997,-10.4166 -3.87727,-10.1009c0,0 -0.74809,0.05344 -0.80153,-0.69466c-0.05344,-0.7481 0.69466,-0.80153 0.69466,-0.80153c4.64728,-0.26944 4.81315,6.4459 5.31124,10.33888c0.12956,-0.10222 0.26406,-0.19735 0.40255,-0.28441l0.19945,-0.13399c0,0 0.43794,-0.29197 0.82466,-0.01984c0.33509,-0.33104 0.81438,-0.11802 0.81438,-0.11802l0.68881,0.30614c0,0 0.28835,0.12816 0.40786,0.40526c0.13727,0.16876 0.17604,0.36262 0.17604,0.36262c0.68844,3.49546 0.05065,5.75322 -2.23744,8.37095l-0.21795,0.33714c-0.17252,0.34502 -0.34502,0.69006 -0.51754,1.03508l-0.4432,0.63626c0,0 -0.43593,0.6103 -1.04623,0.17437c-0.27806,-0.19861 -0.33894,-0.43342 -0.32282,-0.63022z" fill="#3e0e6c" stroke="none" stroke-width="0.5" stroke-linecap="butt"/><path d="M186.35019,21.09177c-0.6103,0.43593 -1.04623,-0.17437 -1.04623,-0.17437l-0.45486,-0.66069c-0.39944,-0.87669 -0.78951,-1.75769 -1.17224,-2.64179c-0.94184,-2.17932 -1.79672,-4.5798 -2.07013,-6.95206c-0.08647,-0.75024 -0.40746,-2.81637 0.61798,-3.33387c0.46349,-0.2339 2.80663,0.91293 3.39028,1.13218c3.13923,1.17927 6.15632,2.9598 8.30359,5.57568c0,0 0.47493,0.58047 -0.10554,1.0554c-0.58047,0.47493 -1.0554,-0.10554 -1.0554,-0.10554c-1.9658,-2.41133 -4.78551,-4.04154 -7.66933,-5.12104c-0.11398,-0.04267 -2.16636,-1.1822 -2.21953,-1.18198c-0.60506,0.00257 0.15232,1.20051 0.22732,1.80091c0.27904,2.2337 1.06618,4.47932 1.95732,6.53443c0.37892,0.8754 0.76512,1.7477 1.16066,2.61572l0.31048,0.41079c0,0 0.43593,0.6103 -0.17437,1.04623z" fill="#3e0e6c" stroke="none" stroke-width="0.5" stroke-linecap="butt"/><path d="M187.48373,23.51401c0.1819,0.72761 -0.5457,0.90951 -0.5457,0.90951l-0.99151,0.14904c-2.85374,-0.85109 -4.15927,-6.59089 -0.19132,-6.05108c0,0 0.73544,0.14709 0.58835,0.88252c-0.14709,0.73543 -0.88253,0.58835 -0.88253,0.58835c-1.36808,-0.48646 -0.53273,2.80325 0.88017,3.13307l0.23304,-0.15711c0,0 0.7276,-0.1819 0.9095,0.5457z" fill="#3e0e6c" stroke="none" stroke-width="0.5" stroke-linecap="butt"/><path d="M210.14642,21.91763c-0.67082,-0.33541 -0.33541,-1.00623 -0.33541,-1.00623l0.07654,-0.15307c1.18397,-2.35822 1.7258,-4.70837 2.51064,-7.22714c0.29591,-0.94965 0.64592,-1.88162 0.9604,-2.82528c0.1033,-0.30996 0.57038,-1.0279 0.25391,-0.9467c-1.54361,0.39606 -3.25155,1.77347 -4.63395,2.53956c-0.78848,0.43695 -1.46963,1.065 -2.07998,1.7284c0,0 -0.51033,0.5496 -1.05993,0.03925c-0.5496,-0.51034 -0.03926,-1.05993 -0.03926,-1.05993c0.35516,-0.37941 0.66447,-0.80765 1.06548,-1.13821c1.30633,-1.0768 7.51779,-5.38165 8.18773,-2.11957c0.12774,0.62197 -0.61248,2.31527 -0.78206,2.81471c-1.02482,3.01828 -1.61767,6.00763 -3.04134,8.86573l-0.07654,0.15307c0,0 -0.33541,0.67082 -1.00623,0.33541z" fill="#3e0e6c" stroke="none" stroke-width="0.5" stroke-linecap="butt"/><path d="M210.21344,23.64821c-0.1819,-0.72761 0.5457,-0.90951 0.5457,-0.90951l0.33138,-0.01564c0.98708,-0.74633 1.89886,-2.23576 0.56845,-3.0048c0,0 -0.61442,-0.43009 -0.18433,-1.04452c0.43009,-0.61443 1.04452,-0.18433 1.04452,-0.18433c2.05516,1.58485 1.38713,3.89228 -0.50303,5.414l-0.89318,0.29049c0,0 -0.72761,0.1819 -0.90951,-0.5457z" fill="#3e0e6c" stroke="none" stroke-width="0.5" stroke-linecap="butt"/><path d="M184.85812,24.46126c0,-0.41422 0.33579,-0.75 0.75,-0.75c0.05846,0 0.11536,0.00669 0.16998,0.01934c0.12799,-0.06593 0.23825,-0.08496 0.23825,-0.08496l0.41718,-0.06858c4.6607,-1.26625 8.8254,-1.70263 13.63962,-1.70263c0,0 0.75,0 0.75,0.75c0,0.75 -0.75,0.75 -0.75,0.75c-4.68761,0 -8.70877,0.41669 -13.24624,1.65013l-0.55552,0.09924c0,0 -0.13408,0.02313 -0.29788,-0.00742c-0.10811,0.06043 -0.23273,0.09487 -0.36538,0.09487c-0.41421,0 -0.75,-0.33578 -0.75,-0.75z" fill="#3e0e6c" stroke="none" stroke-width="0.5" stroke-linecap="butt"/><path d="M189.85631,29.23523c-0.1819,0.72761 -0.90951,0.5457 -0.90951,0.5457l-0.70892,-0.18432c-1.92233,-0.81419 -2.81025,-2.55978 -3.21214,-4.52907c0,0 -0.14708,-0.73543 0.58835,-0.88252c0.73543,-0.14709 0.88252,0.58835 0.88252,0.58835c0.27428,1.40449 0.85971,2.9058 2.29835,3.43052l0.51564,0.12182c0,0 0.72761,0.1819 0.5457,0.90951z" fill="#3e0e6c" stroke="none" stroke-width="0.5" stroke-linecap="butt"/><path d="M205.43056,21.64482l0.10198,0.03692c1.11261,-0.06391 2.23112,-0.11216 3.34207,-0.11345h0.15307c0,0 0.75,0 0.75,0.75c0,0.03952 -0.00209,0.07696 -0.00603,0.11243c0.7214,-0.17509 0.90205,0.54755 0.90205,0.54755c0.39695,1.69127 0.09869,2.56109 -0.57799,4.08363l-0.65608,0.51929c0,0 -0.67082,0.33541 -1.00623,-0.33541c-0.33541,-0.67082 0.33541,-1.00624 0.33541,-1.00624l-0.04381,0.21315c0.54097,-1.21719 0.85674,-1.76726 0.49349,-3.11061c0,0 -0.03294,-0.13176 -0.01472,-0.29716c-0.10181,0.02337 -0.17609,0.02338 -0.17609,0.02338h-0.15307c-0.73148,-0.00093 -1.46704,0.02097 -2.20185,0.05482c0.38557,1.25233 0.38289,2.90783 -0.98197,3.28985c-2.10466,0.58909 -1.69316,-1.92686 -1.08113,-3.24461c-0.20668,-0.07256 -0.43803,-0.24466 -0.46338,-0.65021c-0.04678,-0.74854 0.70175,-0.79532 0.70175,-0.79532c0.09433,-0.00587 0.18873,-0.01167 0.28317,-0.01738c0.15916,-0.06061 0.29936,-0.06061 0.29936,-0.06061z" fill="#3e0e6c" stroke="none" stroke-width="0.5" stroke-linecap="butt"/><path d="M193.58179,22.97755c0.71837,-0.21551 0.93388,0.50285 0.93388,0.50285c0.16777,0.60919 0.20313,1.27099 0.0936,1.89329l-0.32291,0.27013c-0.58274,1.75876 -3.85996,3.25407 -4.77036,0.96151c-0.39578,-0.99664 -0.09474,-1.8835 0.1039,-2.83696c0,0 0.15715,-0.73335 0.8905,-0.5762c0.1273,0.02728 0.22777,0.07192 0.30689,0.12707l0.30673,-0.30673l0.14625,0.14625c0.56385,-0.55163 1.09764,-0.59429 1.90686,0.08524c0.08021,-0.10992 0.20713,-0.2072 0.40467,-0.26646z" fill="#3e0e6c" stroke="none" stroke-width="0.5" stroke-linecap="butt"/><path d="M205.12996,28.79025c0.75,0 0.75,0.75 0.75,0.75l-0.09158,0.92167c-0.50867,0.91455 -0.90962,2.00212 -2.14944,2.26593c-0.4655,0.09905 -0.91101,-0.93948 -1.27803,-0.6365c-2.02748,1.67369 -3.13099,0.65184 -4.42986,-1.40355c0,0 -0.3975,-0.636 0.2385,-1.0335c0.636,-0.3975 1.03349,0.2385 1.03349,0.2385c0.31562,0.51182 0.86802,1.42204 1.36152,1.77715c0.39954,0.28749 0.69348,-0.73818 1.14655,-0.93056c0.6048,-0.2568 1.2537,0.52625 1.90968,0.48857c0.56934,-0.0327 0.5828,-0.9809 0.85074,-1.48431l-0.09158,-0.2034c0,0 0,-0.75 0.75,-0.75z" fill="#3e0e6c" stroke="none" stroke-width="0.5" stroke-linecap="butt"/><path d="M294.83076,40.28211c0,0.75 -0.75,0.75 -0.75,0.75l-0.11612,-0.00221c-6.23979,-0.4847 -12.93327,0.00221 -19.22057,0.00221c0,0 -0.75,0 -0.75,-0.75c0,-0.75 0.75,-0.75 0.75,-0.75c6.32867,0 13.05267,-0.47669 19.33562,0.00221l0.00107,-0.00221c0,0 0.75,0 0.75,0.75z" fill="#3e0e6c" stroke="none" stroke-width="0.5" stroke-linecap="butt"/><path d="M283.50918,30.72952c-0.64312,0.38587 -1.029,-0.25725 -1.029,-0.25725l0.02621,-0.0723c-0.8758,-0.66033 -1.45276,-0.61851 -2.49716,-0.30206c-4.14114,1.25475 -4.55253,4.60905 -4.34041,8.62129c0,0 0.00478,0.09094 -0.02067,0.2111c0.22323,0.12992 0.37328,0.37177 0.37328,0.64866c0,0.41422 -0.33578,0.75 -0.75,0.75c-0.41422,0 -0.75,-0.33578 -0.75,-0.75c0,-0.05336 0.00557,-0.10542 0.01617,-0.15563c-0.34375,-0.18911 -0.3667,-0.6253 -0.3667,-0.6253c-0.08027,-1.53184 -0.3163,-3.51134 0.09333,-5.01458c0.98558,-3.6168 5.57876,-7.10872 9.12441,-4.59659l0.37778,0.51366c0,0 0.38587,0.64312 -0.25725,1.02899z" fill="#3e0e6c" stroke="none" stroke-width="0.5" stroke-linecap="butt"/><path d="M282.54909,30.145c0,-0.41422 0.33578,-0.75 0.75,-0.75c0.41422,0 0.75,0.33578 0.75,0.75c0,0.41422 -0.33578,0.75 -0.75,0.75c-0.41422,0 -0.75,-0.33578 -0.75,-0.75z" fill="#3e0e6c" stroke="none" stroke-width="0.5" stroke-linecap="butt"/><path d="M294.14043,39.56501c-0.74779,-0.05752 -0.69027,-0.80532 -0.69027,-0.80532l0.05694,-0.73301c-0.00205,-2.71942 -0.22579,-5.19129 -2.09275,-7.26218c-1.12436,-1.24717 -1.84167,-2.14954 -3.35426,-1.0562c0,0 -0.04626,0.03181 -0.12218,0.06536c-0.14488,0.21722 -0.38506,0.3096 -0.38506,0.3096l-0.269,0.10346c-0.00152,0.17859 -0.07452,0.38018 -0.31198,0.55828c-0.6,0.45 -1.05,-0.15 -1.05,-0.15l-0.18751,-0.30847c-0.3308,-0.26649 -0.7926,-0.44698 -1.21346,-0.38932c0,0 -0.74834,0.04989 -0.79823,-0.69845c-0.04989,-0.74834 0.69845,-0.79823 0.69845,-0.79823c0.6734,-0.01882 1.36899,0.18717 1.95987,0.52633l0.61907,-0.23811c0.09638,-0.13824 0.21024,-0.21651 0.21024,-0.21651c5.46885,-3.6239 7.79828,5.91656 7.7957,9.61201l-0.06025,0.79049c0,0 -0.05752,0.74779 -0.80532,0.69027z" fill="#3e0e6c" stroke="none" stroke-width="0.5" stroke-linecap="butt"/><path d="M274.52143,40.34069c0,-0.41422 0.33578,-0.75 0.75,-0.75c0.41422,0 0.75,0.33578 0.75,0.75c0,0.41422 -0.33578,0.75 -0.75,0.75c-0.41422,0 -0.75,-0.33578 -0.75,-0.75z" fill="#3e0e6c" stroke="none" stroke-width="0.5" stroke-linecap="butt"/><path d="M296.2668,36.32593c0.20604,0.72115 -0.5151,0.92719 -0.5151,0.92719l-0.61622,0.14605c-6.57674,-0.00152 -13.3005,-0.22905 -19.87437,0.07489c-0.02227,0.60624 -0.6638,0.68171 -0.6638,0.68171c-1.71288,0.17401 -4.30024,1.80177 -4.8218,3.52387c-0.20633,0.6813 -0.7171,2.51192 0.32242,2.68953c3.04494,0.52023 7.79894,-1.2894 10.80022,-1.90169c4.31681,-0.88059 8.70425,-1.97627 12.89661,-3.31023l0.43283,-0.16334c0,0 0.70225,-0.26334 0.96559,0.43891c0.26334,0.70225 -0.43891,0.96559 -0.43891,0.96559l-0.50471,0.18823c-4.24192,1.34967 -8.68426,2.45967 -13.0516,3.35057c-2.72761,0.55636 -5.46911,1.0406 -8.19863,1.58815c-0.91568,0.18369 -2.4015,0.59061 -3.33608,0.27945c-2.04757,-0.68171 -1.86938,-2.89289 -1.31827,-4.57638c0.68147,-2.08169 3.11651,-3.83784 5.29936,-4.40874c-0.0003,-0.00461 -0.00057,-0.00925 -0.00082,-0.01393c-0.03942,-0.74896 0.70954,-0.78838 0.70954,-0.78838c6.86685,-0.35676 13.89961,-0.11669 20.78242,-0.11823l0.20413,-0.08834c0,0 0.72115,-0.20605 0.92719,0.5151z" fill="#3e0e6c" stroke="none" stroke-width="0.5" stroke-linecap="butt"/><path d="M292.99159,40.41685c0.74421,-0.09303 0.83723,0.65118 0.83723,0.65118l0.04445,0.39001c0.82039,3.50463 0.71,5.80224 -2.67624,7.48872c-4.20409,1.32451 -7.55208,2.81916 -12.04974,2.15596c-1.74087,-0.2567 -3.9155,-0.66388 -4.15456,-2.78997c-0.14282,-1.27012 0.12004,-2.60929 0.43193,-3.82525c0,0 0.18931,-0.72571 0.91503,-0.53639c0.72572,0.18931 0.53639,0.91503 0.53639,0.91503c-0.16035,0.60306 -0.86744,3.14803 -0.33327,3.73496c3.23414,3.55361 10.64934,0.02084 14.0933,-1.04551c2.62448,-1.31821 2.4398,-2.95292 1.77705,-5.75399l-0.07274,-0.54752c0,0 -0.09303,-0.74421 0.65118,-0.83723z" fill="#3e0e6c" stroke="none" stroke-width="0.5" stroke-linecap="butt"/><path d="M288.58448,43.85647c0,-0.41422 0.33578,-0.75 0.75,-0.75c0.41422,0 0.75,0.33578 0.75,0.75c0,0.41422 -0.33578,0.75 -0.75,0.75c-0.41422,0 -0.75,-0.33578 -0.75,-0.75z" fill="#3e0e6c" stroke="none" stroke-width="0.5" stroke-linecap="butt"/><path d="M278.44737,46.31751c0,-0.41422 0.33578,-0.75 0.75,-0.75c0.41422,0 0.75,0.33578 0.75,0.75c0,0.41422 -0.33578,0.75 -0.75,0.75c-0.41422,0 -0.75,-0.33578 -0.75,-0.75z" fill="#3e0e6c" stroke="none" stroke-width="0.5" stroke-linecap="butt"/><path d="M286.20731,53.7931c-0.27545,-0.01279 -0.60464,-0.47978 -0.91195,-1.03772c-0.12226,0.28615 -0.27695,0.5811 -0.4695,0.91296l-0.55495,0.44101c0,0 -0.64312,0.38587 -1.02899,-0.25725c-0.38587,-0.64312 0.25725,-1.02899 0.25725,-1.02899l0.03101,0.08943c0.50041,-0.85256 0.67448,-1.25434 0.65959,-2.25892c0,0 -0.00001,-0.58448 0.51596,-0.7215c0.63152,-0.34507 0.99906,0.285 0.99906,0.285c0.21995,0.37787 0.73848,1.21814 0.84345,1.62483c0.04009,0.15533 -0.19259,0.57216 -0.0634,0.47706c0.48229,-0.35504 1.07203,-1.13762 1.57719,-1.79058c-0.10713,-0.11924 -0.2165,-0.23815 -0.32844,-0.35692c0,0 -0.51403,-0.54615 0.03212,-1.06017c0.24391,-0.22957 0.48142,-0.24767 0.66959,-0.19741c-0.30302,-0.64031 -0.58416,-1.28883 -0.89679,-1.93038c-1.56181,0.36425 -3.1141,0.74493 -4.66423,1.15193c0.10602,0.61596 0.3274,1.16695 0.48474,1.78926c0.12426,0.1106 0.22128,0.28333 0.22128,0.5531c0,0.75 -0.75,0.75 -0.75,0.75l-0.85578,-0.61966c-0.13038,-0.77044 -0.37814,-1.38903 -0.53279,-2.08869c-1.31758,0.36066 -2.63523,0.74253 -3.95748,1.15169c0,0 -0.71683,0.22056 -0.9374,-0.49627c-0.22056,-0.71684 0.49627,-0.9374 0.49627,-0.9374c5.12492,-1.56689 10.1755,-2.75678 15.41558,-3.88386l0.45012,-0.01664c0,0 0.75,0 0.75,0.75c0,0.75 -0.75,0.75 -0.75,0.75l-0.13583,-0.01665c-1.25553,0.2681 -2.50006,0.53964 -3.73722,0.81943c0.42672,0.90954 0.80761,1.8291 1.30395,2.70861l0.09632,0.42629c0,0 -0.00001,0.53523 -0.45215,0.70139c0.50965,0.6324 0.98576,1.28458 1.4674,1.97674l0.34415,0.42802c0,0 0.4682,0.58591 -0.11771,1.05411c-0.58591,0.4682 -1.05411,-0.11771 -1.05411,-0.11771l-0.40369,-0.50783c-0.39834,-0.57278 -0.79019,-1.11507 -1.20276,-1.64101c-0.8331,0.94018 -2.02593,2.16111 -2.80989,2.12471z" fill="#3e0e6c" stroke="none" stroke-width="0.5" stroke-linecap="butt"/><path d="M243.71241,39.7985c-0.75,0 -0.75,-0.75 -0.75,-0.75v-0.13274c0,-1.07706 0.01751,-2.15343 -0.0153,-3.22889c-2.04944,0.80009 -4.14493,1.46931 -6.21728,2.20946c0,0 -0.7063,0.25225 -0.95855,-0.45406c-0.25225,-0.7063 0.45406,-0.95856 0.45406,-0.95856c2.18249,-0.77944 4.39185,-1.47813 6.54364,-2.33925l0.50298,-0.22702c0,0 0.18688,-0.08408 0.40922,-0.06665c0.66716,0.01004 0.71321,0.70073 0.71321,0.70073c0.09632,1.45359 0.06803,2.90779 0.06803,4.36424v0.13274c0,0 0,0.75 -0.75,0.75z" fill="#3e0e6c" stroke="none" stroke-width="0.5" stroke-linecap="butt"/><path d="M248.09246,30.02222c0.53033,0.53033 0,1.06066 0,1.06066l-0.21018,0.20369c-1.12019,1.3989 -2.1948,2.55107 -3.64893,3.6164c-0.12865,0.22806 -0.37319,0.38207 -0.6537,0.38207c-0.41422,0 -0.75,-0.33578 -0.75,-0.75c0,-0.12584 0.031,-0.24445 0.08577,-0.3486c0.08624,-0.24556 0.29468,-0.39445 0.29468,-0.39445c1.4255,-1.01628 2.42732,-2.0993 3.50088,-3.44245l0.32082,-0.32731c0,0 0.53033,-0.53033 1.06066,0z" fill="#3e0e6c" stroke="none" stroke-width="0.5" stroke-linecap="butt"/><path d="M250.75519,32.0827c-0.33541,0.67082 -1.00623,0.33541 -1.00623,0.33541l-0.49293,-0.25552c-1.71015,-1.1992 -3.61773,-2.06531 -5.48078,-2.99684c0,0 -0.67082,-0.33542 -0.33541,-1.00624c0.33541,-0.67082 1.00623,-0.33541 1.00623,-0.33541c1.93045,0.96523 3.89634,1.86997 5.67015,3.10963l0.30356,0.14273c0,0 0.67082,0.33541 0.33541,1.00623z" fill="#3e0e6c" stroke="none" stroke-width="0.5" stroke-linecap="butt"/><path d="M248.0156,29.70838c0.11405,-0.74128 0.85532,-0.62723 0.85532,-0.62723l0.72103,0.12454c1.51812,-0.36121 3.71174,-3.14331 1.13796,-3.97541c-2.1992,-0.711 -4.84549,0.92548 -3.44918,3.21863c0,0 0.3779,0.64784 -0.26993,1.02574c-0.64783,0.3779 -1.02573,-0.26993 -1.02573,-0.26993c-1.94931,-3.44914 1.68475,-6.59027 5.17952,-5.41008c4.32409,1.46026 1.51824,6.22146 -1.51703,6.91003l-1.00472,-0.14096c0,0 -0.74128,-0.11405 -0.62724,-0.85532z" fill="#3e0e6c" stroke="none" stroke-width="0.5" stroke-linecap="butt"/><path d="" fill="#3e0e6c" stroke="none" stroke-width="0" stroke-linecap="butt"/><path d="" fill="#3e0e6c" stroke="none" stroke-width="0" stroke-linecap="butt"/><path d="M18.11697,7.06288c-6.25263,-3.33086 -13.97778,-19.77584 -13.6648,-44.51324c10.47223,-1.19765 20.98581,-2.19662 31.51872,-2.29438c10.38523,-0.0964 20.76795,-2.62678 31.16405,-3.00301c7.62501,-0.27594 15.26019,0.05459 22.89,0c8.0811,-0.05783 16.17885,-1.60081 24.28253,-2.45404c-29.92319,33.19673 -88.37703,56.42702 -96.1905,52.26467z" data-paper-data="{&quot;index&quot;:null}" fill="#3e0e6c" stroke="none" stroke-width="0" stroke-linecap="butt"/><path d="" data-paper-data="{&quot;index&quot;:null}" fill="#3e0e6c" stroke="none" stroke-width="0" stroke-linecap="butt"/><path d="M373.80711,22.26784c0,-14.95286 10.2326,-27.07455 22.85514,-27.07455c12.62254,0 22.85513,12.12169 22.85513,27.07454c0,14.95285 -10.23259,27.07454 -22.85513,27.07454c-12.62254,0 -22.85514,-12.12168 -22.85514,-27.07454z" fill-opacity="0.51373" fill="#ffd6ec" stroke="none" stroke-width="0" stroke-linecap="butt"/><path d="M430.03556,39.98989l13.38325,-37.4731l37.4731,13.38325l-13.38324,37.4731z" fill-opacity="0.51373" fill="#ffd6ec" stroke="none" stroke-width="0" stroke-linecap="butt"/><path d="M501.96366,6.26374l10.89415,-30.50362l0.26988,0.09639c0.239,11.54525 0.25614,22.84666 0.54859,34.59032z" fill-opacity="0.51373" fill="#ffd6ec" stroke="none" stroke-width="0" stroke-linecap="butt"/><path d="M461.36249,-19.92467l22.69302,-2.50669l2.50669,22.69302z" fill-opacity="0.51373" fill="#ffd6ec" stroke="none" stroke-width="0" stroke-linecap="butt"/><path d="M356.1584,-7.53075l4.09189,-16.84037l16.84037,4.09189z" fill-opacity="0.51373" fill="#ffd6ec" stroke="none" stroke-width="0" stroke-linecap="butt"/><path d="M513.19744,46.12255l-8.07626,-23.91803l9.1639,4.53744c0.30981,6.234 0.67622,12.46646 0.92206,18.70198z" fill-opacity="0.51373" fill="#ffd6ec" stroke="none" stroke-width="0" stroke-linecap="butt"/><g><g data-paper-data="{&quot;index&quot;:null}" stroke="#541287" stroke-width="2.5" stroke-linecap="butt"><path d="" fill="#e5c2ff"/><path d="" fill="#9951b7"/></g><path d="" fill="#725580" stroke="#541287" stroke-width="2.5" stroke-linecap="butt"/><path d="" fill="#6d3e90" stroke="none" stroke-width="0" stroke-linecap="butt"/><path d="" fill="#725580" stroke="none" stroke-width="0" stroke-linecap="butt"/><path d="" fill="#9857ca" stroke="none" stroke-width="0" stroke-linecap="butt"/><path d="" fill="none" stroke="#541287" stroke-width="2.5" stroke-linecap="butt"/><path d="" fill="#9468de" stroke="#541287" stroke-width="2.5" stroke-linecap="butt"/><path d="" fill="#e5c2ff" stroke="#541287" stroke-width="2.5" stroke-linecap="butt"/><g stroke-linecap="butt"><g stroke="#541287" stroke-width="2.5"><path d="" fill="#9d7bb5"/><path d="" fill="#9d7bb5"/><path d="" fill="url(#color-4)"/></g><path d="" fill="#541287" stroke="none" stroke-width="0"/><path d="" fill="#ca80ff" stroke="#541287" stroke-width="2.5"/></g><g stroke="#541287" stroke-width="2.5" stroke-linecap="butt"><path d="" fill="#e5c2ff"/><path d="" fill="#9951b7"/></g><g data-paper-data="{&quot;index&quot;:null}" stroke="#541287" stroke-width="2.5" stroke-linecap="butt"><path d="" fill="#e5c2ff"/><path d="" fill="#9951b7"/></g><path d="" fill="#725580" stroke="#541287" stroke-width="2.5" stroke-linecap="butt"/><path d="" fill="#6d3e90" stroke="none" stroke-width="0" stroke-linecap="butt"/><path d="" fill="#725580" stroke="none" stroke-width="0" stroke-linecap="butt"/><path d="" fill="#9857ca" stroke="none" stroke-width="0" stroke-linecap="butt"/><path d="" fill="none" stroke="#541287" stroke-width="2.5" stroke-linecap="butt"/><path d="" fill="#9468de" stroke="#541287" stroke-width="2.5" stroke-linecap="butt"/><path d="" fill="#e5c2ff" stroke="#541287" stroke-width="2.5" stroke-linecap="butt"/><g stroke-linecap="butt"><g stroke="#541287" stroke-width="2.5"><path d="" fill="#9d7bb5"/><path d="" fill="#9d7bb5"/><path d="" fill="url(#color-5)"/></g><path d="" fill="#541287" stroke="none" stroke-width="0"/><path d="" fill="#ca80ff" stroke="#541287" stroke-width="2.5"/></g><g stroke="#541287" stroke-width="2.5" stroke-linecap="butt"><path d="" fill="#e5c2ff"/><path d="" fill="#9951b7"/></g><g stroke-linecap="butt"><path d="" data-paper-data="{&quot;index&quot;:null}" fill="#54002b" stroke="none" stroke-width="0"/><path d="" data-paper-data="{&quot;index&quot;:null}" fill="#54002b" stroke="none" stroke-width="0"/><path d="" data-paper-data="{&quot;index&quot;:null}" fill="#54002b" stroke="none" stroke-width="0"/><path d="" data-paper-data="{&quot;index&quot;:null}" fill="#ff5971" stroke="#54002b" stroke-width="2.5"/><path d="" data-paper-data="{&quot;index&quot;:null}" fill="#54002b" stroke="none" stroke-width="0"/></g><path d="" data-paper-data="{&quot;index&quot;:null}" fill="#ff8dae" stroke="#54002b" stroke-width="2.5" stroke-linecap="butt"/><path d="" data-paper-data="{&quot;index&quot;:null}" fill="#ff8dae" stroke="#54002b" stroke-width="2.5" stroke-linecap="butt"/><path d="" data-paper-data="{&quot;index&quot;:null}" fill="#ff8dae" stroke="#54002b" stroke-width="2.5" stroke-linecap="butt"/><g data-paper-data="{&quot;index&quot;:null}" fill="#54002b" stroke="none" stroke-width="0" stroke-linecap="butt"><path d=""/><path d=""/></g><g data-paper-data="{&quot;index&quot;:null}" fill="#54002b" stroke="none" stroke-width="0" stroke-linecap="butt"><path d=""/><path d=""/></g><path d="" fill="none" stroke="#54002b" stroke-width="2.5" stroke-linecap="round"/><path d="" fill="none" stroke="#54002b" stroke-width="2.5" stroke-linecap="round"/><g><path d="M263.58974,125.39518c0,-5.12384 -23.36379,-29.21437 -16.87722,-29.21437c2.74478,0 34.08923,20.87796 36.08884,22.12423c2.72594,1.69896 7.33371,11.26832 7.13891,11.93845c-0.66407,2.28448 -8.60306,-3.84858 -8.17383,-0.60461c0.4117,3.11157 -2.13011,8.98171 -3.27342,8.98171c-2.97326,0 -5.16768,-1.70218 -7.95554,-4.03954c-0.6785,-0.56886 -5.51752,4.35171 -6.19144,3.72299c-2.59808,-2.42383 -0.7563,-10.70526 -0.7563,-12.90888z" fill="#ffffff" stroke="#3e0e6c" stroke-width="2.5" stroke-linecap="butt"/><path d="M223.58258,111.01719c-2.07946,0 -8.94728,-6.06181 -18.33706,-8.27207c-4.69735,-1.10571 -11.43183,1.56443 -15.69954,0.81126c-13.80776,-2.43683 -18.13141,-13.93868 -26.45001,-18.72975c-7.32886,-4.22103 -14.85404,2.35026 -14.32916,1.53818c1.8454,-2.85516 10.08292,-10.73451 16.26524,-8.03167c5.95009,2.60132 14.5119,10.57173 17.51169,9.74158c9.73965,-2.69532 14.74221,-8.20938 24.61589,-7.71666c16.99202,0.84793 33.535,18.8278 33.535,20.93103c0,5.37267 -7.66132,9.72809 -17.11205,9.72809z" fill="#ffffff" stroke="#3e0e6c" stroke-width="2.5" stroke-linecap="butt"/><path d="M236.00639,103.04717c-4.80348,0 -21.11283,-4.64429 -32.73045,-9.99439c-8.81736,-4.06053 -14.23646,-8.627 -13.89252,-11.3038c0.0442,-0.34399 1.63755,-0.68069 1.92554,-1.71833c0.32767,-1.18062 -2.0267,-3.29592 -1.49847,-3.4421c9.73965,-2.69532 22.00897,-3.52115 31.88265,-3.02843c16.99202,0.84794 22.51766,13.90517 22.51766,16.0084c0,5.37267 1.24632,13.47867 -8.20441,13.47867z" fill="#ffffff" stroke="#3e0e6c" stroke-width="2.5" stroke-linecap="butt"/><path d="M155.94546,107.03747c-8.39711,0 -13.81622,3.39867 -16.90691,8.3594c-0.28884,0.4636 1.2192,-0.04612 0.9705,0.44328c-0.86255,1.69734 -3.2634,4.52772 -3.67159,6.45467c-0.18258,0.86189 2.04681,-0.62824 1.94873,0.26148c-0.3564,3.23295 -2.53677,8.9814 -1.89863,12.2394c0.23515,1.20052 2.60025,-1.31513 3.08797,-0.08868c2.54816,6.40768 5.75822,16.33655 5.09977,16.19091c-7.08871,-1.56784 -32.23915,-13.97466 -34.48789,-21.79107c-3.97738,-13.82496 13.74086,-37.9595 28.65991,-38.61954c0.46399,-0.02054 -0.64631,4.7065 -0.17257,4.7065c17.08383,0 40.22662,-1.13431 58.77635,1.51472c11.51685,1.64469 23.9319,6.80993 23.9319,8.355c0,1.54625 -9.94498,0.80952 -21.91021,1.01932c-18.95003,0.33228 -43.26517,0.95462 -43.42734,0.95462z" fill="#ffffff" stroke="#3e0e6c" stroke-width="2.5" stroke-linecap="butt"/><path d="M236.60705,86.84154c12.84383,0 23.25581,10.9158 23.25581,24.3811c0,13.4653 -10.41198,24.38109 -23.25581,24.38109c-12.84383,0 -23.98761,-11.09873 -23.98761,-24.56404c0,-13.46531 11.14378,-24.19815 23.98761,-24.19815z" fill="#ffffff" stroke="#3e0e6c" stroke-width="2.5" stroke-linecap="butt"/><path d="M252.37855,115.10427c0,0 -2.67291,20.8665 -22.5418,16.88725c-17.2436,-3.45347 -14.25413,-24.671 -14.25413,-24.671" fill="none" stroke="#3e0e6c" stroke-width="2.5" stroke-linecap="round"/><path d="M198.38374,90.78602l3.00043,6.85812" fill="none" stroke="#3e0e6c" stroke-width="2.5" stroke-linecap="round"/><path d="M210.59977,98.93003l-2.14316,-3.00043" fill="none" stroke="#3e0e6c" stroke-width="2.5" stroke-linecap="round"/><g fill="#3e0e6c" stroke="none" stroke-width="0" stroke-linecap="butt"><path d="M233.71651,109.73555c0,4.64852 -3.65532,8.41688 -8.16437,8.41688c-4.50906,0 -8.16437,-3.76837 -8.16437,-8.41688c0,-4.64852 3.65532,-8.41688 8.16437,-8.41688c4.50906,0 8.16437,3.76837 8.16437,8.41688z"/><path d="M249.37191,113.43898c0,4.64852 -3.65532,8.41688 -8.16437,8.41688c-4.50906,0 -8.16437,-3.76837 -8.16437,-8.41688c0,-4.64852 3.65532,-8.41688 8.16437,-8.41688c4.50906,0 8.16437,3.76837 8.16437,8.41688z"/></g></g></g><g><path d="M170.05133,130.25597c8.83046,0 15.98895,3.04899 15.98895,6.81011c0,3.76112 -7.1585,6.81011 -15.98895,6.81011c-8.83046,0 -15.98895,-3.04899 -15.98895,-6.81011c0,-3.76112 7.1585,-6.81011 15.98895,-6.81011z" fill-opacity="0.47451" fill="#391287" stroke="none" stroke-width="0" stroke-linecap="butt"/><path d="M168.039,110.31207c1.17386,0.12658 0.88419,5.74054 0.35617,12.24996c-0.52801,6.50942 -1.90765,11.68374 -3.08151,11.55716c-0.79999,-0.08627 -2.51779,-2.14346 -2.58671,-5.80415c-0.03221,-1.71078 4.13818,-18.12955 5.31204,-18.00297z" data-paper-data="{&quot;index&quot;:null}" fill="#54002b" stroke="none" stroke-width="0" stroke-linecap="butt"/><path d="M178.70061,128.78385c-0.07946,3.66069 -2.06007,5.71788 -2.98245,5.80415c-1.35344,0.12658 -2.94415,-5.04773 -3.55295,-11.55716c-0.60879,-6.50942 -0.94278,-12.12338 0.41066,-12.24996c1.35344,-0.12658 6.16187,16.29219 6.12474,18.00297z" fill="#54002b" stroke="none" stroke-width="0" stroke-linecap="butt"/><path d="M177.15302,134.17509c0.00358,0.08965 2.21793,4.54312 1.57763,6.49314c-0.26208,0.79815 -6.60047,1.60175 -7.35041,0.97667c-3.48178,-2.90212 0.99692,-7.56178 0.84073,-7.87683c-0.03456,-0.0697 -1.11893,-15.37168 -1.04407,-15.32031c0.22428,0.1539 2.71009,-0.09254 3.20214,1.57647c1.09907,3.72795 2.76119,13.83094 2.77397,14.15085z" fill="#54002b" stroke="none" stroke-width="0" stroke-linecap="butt"/><path d="M167.67779,138.8527c-2.23665,0.42923 -5.61606,0.58603 -6.09884,0.06638c-3.31819,-3.57161 3.1443,-6.99976 3.00564,-7.36978c-0.03067,-0.08186 1.95901,-15.55131 2.03096,-15.48704c0.21556,0.19257 2.71243,0.11139 3.11194,2.04482c0.89235,4.31857 -0.23346,13.93389 -0.23833,14.29797c-0.00057,0.04268 -0.73693,6.24145 -1.81137,6.44765z" fill="#54002b" stroke="none" stroke-width="0" stroke-linecap="butt"/><path d="M164.42857,119.51464c0,-0.43603 1.58772,-0.52404 2.44465,-2.67292c1.85961,-4.66325 1.95021,-11.67803 2.44772,-11.67803c1.38226,0 3.13675,6.28234 5.01294,11.69991c0.80002,2.3101 2.63028,3.33622 2.60922,3.42427c-0.47519,1.98645 -5.65441,3.32338 -9.77171,2.05796c-2.71857,-0.83554 -2.74282,-1.92373 -2.74282,-2.83121z" fill="#ff5971" stroke="#54002b" stroke-width="2.5" stroke-linecap="butt"/><path d="M181.6211,86.63484c10.31543,0 10.31543,25.07308 0,25.07308c-4.08929,0 -8.99698,-4.39145 -8.99698,-11.31519c0,-6.92374 4.90769,-13.75789 8.99698,-13.75789z" fill="#ff8dae" stroke="#54002b" stroke-width="2.5" stroke-linecap="butt"/><path d="M167.53807,99.51454c0,6.92374 -4.65771,11.31518 -8.5387,11.31518c-9.78999,0 -9.78999,-25.07307 0,-25.07307c3.88099,0 8.5387,6.83415 8.5387,13.75789z" data-paper-data="{&quot;index&quot;:null}" fill="#ff8dae" stroke="#54002b" stroke-width="2.5" stroke-linecap="butt"/><path d="M159.51789,98.80142c0,-5.67344 4.59923,-10.27267 10.27267,-10.27267c5.67344,0 10.27267,4.59923 10.27267,10.27267c0,5.67344 -4.59923,10.27266 -10.27267,10.27266c-5.67344,0 -10.27267,-4.59922 -10.27267,-10.27266z" fill="#ff8dae" stroke="#54002b" stroke-width="2.5" stroke-linecap="butt"/><g data-paper-data="{&quot;index&quot;:null}" fill="#54002b" stroke="none" stroke-width="0" stroke-linecap="butt"><path d="M174.98354,97.71043c1.49156,0.00865 2.68199,2.58693 2.65892,5.75875c-0.02308,3.17182 -1.25094,5.73607 -2.74249,5.72741c-1.49156,-0.00865 -2.68198,-2.58693 -2.65891,-5.75875c0.02308,-3.17182 1.25093,-5.73607 2.74248,-5.72741z"/><path d="M176.94564,101.18761c0.32897,0.00191 1.92366,1.75413 1.91581,2.83327c-0.00463,0.63521 -1.32332,2.81447 -1.95688,2.81079c-1.06942,-0.0062 -1.92716,-1.2747 -1.91582,-2.83327c0.01134,-1.55857 0.88747,-2.817 1.95689,-2.81079z"/></g><g data-paper-data="{&quot;index&quot;:null}" fill="#54002b" stroke="none" stroke-width="0" stroke-linecap="butt"><path d="M171.70488,103.11168c0.02883,3.17182 -1.45829,5.7501 -3.32159,5.75875c-1.86329,0.00866 -3.39716,-2.55559 -3.42599,-5.72741c-0.02883,-3.17182 1.45829,-5.7501 3.32158,-5.75875c1.86329,-0.00866 3.39716,2.5556 3.42599,5.72741z"/><path d="M168.27238,103.67225c0.01417,1.55856 -1.05735,2.82706 -2.39329,2.83326c-0.79146,0.00367 -2.43881,-2.17558 -2.44459,-2.81079c-0.00981,-1.07914 1.98234,-2.83136 2.39329,-2.83327c1.33594,-0.0062 2.43043,1.25223 2.4446,2.8108z"/></g><path d="M172.81699,97.32724l-10.7279,0.95088" fill="none" stroke="#54002b" stroke-width="2.5" stroke-linecap="round"/><path d="" fill="none" stroke="none" stroke-width="0" stroke-linecap="butt"/></g><g stroke-linecap="butt"><path d="" fill="none" stroke="none" stroke-width="0"/><path d="" fill="none" stroke="none" stroke-width="0"/><path d="M303.46333,143.80915c10.25183,0 18.56259,4.33431 18.56259,9.68096c0,5.34665 -8.31076,9.68097 -18.56259,9.68097c-10.25182,0 -18.56258,-4.33431 -18.56258,-9.68097c0,-5.34665 8.31076,-9.68096 18.56258,-9.68096z" fill-opacity="0.26275" fill="#252673" stroke="none" stroke-width="0"/><g data-paper-data="{&quot;index&quot;:null}" stroke="#252674" stroke-width="2.5"><path d="M296.00333,143.20254c-1.84733,0 -3.34486,-1.49755 -3.34486,-3.34487c0,-1.84733 1.49755,-3.34487 3.34486,-3.34487c1.84733,0 3.34488,1.49755 3.34488,3.34487c0,1.84732 -1.49755,3.34487 -3.34488,3.34487z" fill="#8194ff"/><path d="M299.87289,118.41113c0,0.34327 -0.46828,8.38004 -0.37782,15.21915c0.03106,2.34776 0.24261,4.60353 0.38234,6.28167c0.14388,1.7281 -7.35012,-2.08556 -7.35012,-2.34979c0,-1.23155 2.82583,-20.51205 3.38954,-20.37604c0.58754,0.14175 1.17642,0.62405 1.84045,0.87597c1.0642,0.40374 2.11561,-0.0286 2.11561,0.34905z" fill="#475ac7"/></g><path d="M308.03961,150.99668c-0.70131,1.11953 -4.55473,0.38097 -5.59424,-0.07366c-2.20098,-0.96256 -0.17904,-5.36654 -0.44385,-5.85861c-0.045,-0.08362 2.33846,-1.0346 1.45202,-1.12714c-0.69529,-0.07257 -7.409,-2.8418 -8.41276,-4.74986c-0.71272,-1.3548 0.87346,-10.91385 0.78421,-11.16632c-0.63174,-1.78704 5.84689,-1.76353 6.55697,-2.1964c0,0 -0.19057,9.18966 0.23517,10.14414c0.18593,0.41683 4.47034,1.7926 6.61315,2.95495c1.79965,0.9762 0.63659,9.15598 -1.19066,12.0729z" fill="#b3bfff" stroke="#252674" stroke-width="2.5"/><path d="M303.087,159.60463c-1.17192,0.60974 -7.17517,-0.25828 -7.84095,-1.17698c-2.57267,-3.55 3.57894,-6.83983 3.62554,-8.07504c0.30636,-8.11924 1.12901,-21.11995 1.48732,-22.96704c0.36096,-1.86073 3.92591,-2.12216 4.75743,-2.1355c0.56153,-0.00901 3.18704,30.82092 2.15824,30.83741c0,0 -1.13416,1.92847 -4.18758,3.51715z" fill="#b3bfff" stroke="#252674" stroke-width="2.5"/><path d="M300.59197,128.76473c-1.04127,0.06282 -5.11629,-1.72272 -5.14427,-2.08252c-0.05453,-0.70116 1.42963,-5.51131 1.40477,-6.22619c-0.00342,-0.09876 -0.52036,-4.8476 0.057,-7.57192c0.56388,-2.66073 2.2139,-3.29955 2.90066,-3.29955c0.97772,0 1.94273,0.17418 2.80247,0.48428c0.77041,0.27787 2.05345,1.9459 2.02635,2.98889c-0.06121,2.35616 -0.26999,6.16016 -0.28188,6.54209c-0.05187,1.66729 1.12218,6.38353 1.12218,6.78204c0,0.30195 -3.18949,2.28045 -4.88728,2.38288z" fill="#b3bfff" stroke="#252674" stroke-width="2.5"/><path d="M306.68511,85.10455c-0.00254,0.0127 -4.55355,1.46599 -7.05523,1.16272c-2.72892,-0.33083 -4.34209,-1.60383 -4.182,-2.04519c0.48055,-1.3248 4.06044,-11.83442 4.29109,-12.12373c0.67699,-0.8491 2.98471,-1.47191 3.02192,-1.47191c0.5031,0 3.66502,6.44513 3.66502,6.5219c0,0 0.46161,6.94407 0.25921,7.95622z" fill="#8194ff" stroke="#252674" stroke-width="2.5"/><path d="M298.00764,109.89028c0,-1.92703 0.78883,-3.48918 2.76514,-3.48918c1.97631,0 2.76514,1.56216 2.76514,3.48918c0,0.34307 -1.69395,0.76557 -2.89821,0.8548c-1.52311,0.11285 -2.63209,-0.21256 -2.63209,-0.8548z" fill="#b3bfff" stroke="#252674" stroke-width="2.5"/><path d="M287.83123,95.87995c0,-7.29928 5.26661,-13.21651 12.56589,-13.21651c7.29928,0 12.40324,5.91723 12.40324,13.21651c0,7.29928 -5.10396,13.21652 -12.40324,13.21652c-7.29928,0 -12.56589,-5.91724 -12.56589,-13.21652z" fill="#b3bfff" stroke="#252674" stroke-width="2.5"/><path d="M287.96241,96.01112c0,-7.29928 5.26662,-13.21651 12.5659,-13.21651c7.29928,0 12.40324,5.91723 12.40324,13.21651c0,5.05093 -14.65624,10.28871 -14.85354,10.28871c-0.33473,0 -10.11559,-6.05908 -10.11559,-10.28871z" fill="#8194ff" stroke="none" stroke-width="0"/><path d="M287.83123,95.87995c0,-7.29928 5.26661,-13.21651 12.56589,-13.21651c7.29928,0 12.40324,5.91723 12.40324,13.21651c0,7.29928 -5.10396,13.21652 -12.40324,13.21652c-7.29928,0 -12.56589,-5.91724 -12.56589,-13.21652z" fill="none" stroke="#252674" stroke-width="2.5"/><path d="M306.70946,101.88061c0,0.26122 -1.75981,1.90991 -1.88417,2.35329c-0.52636,1.87654 -1.48337,3.59777 -2.70173,3.59777c-1.81407,0 -3.28467,-2.80101 -3.28467,-6.25623c0,-3.45523 1.4706,-6.25624 3.28467,-6.25624c1.58324,0 2.90485,2.13352 3.21555,4.97343c0.02099,0.1919 1.37037,1.35209 1.37037,1.58798z" fill="#252674" stroke="none" stroke-width="NaN"/><path d="M290.12458,100.903c0.31071,-2.83992 1.63233,-4.97344 3.21556,-4.97344c1.81407,0 3.28466,2.80101 3.28466,6.25623c0,3.45523 -1.4706,6.25624 -3.28466,6.25624c-1.21837,0 -2.17538,-1.72122 -2.70174,-3.59776c-0.12437,-0.44338 -1.88417,-2.09207 -1.88417,-2.35329c0,-0.23589 1.34937,-1.39609 1.37036,-1.58799z" data-paper-data="{&quot;index&quot;:null}" fill="#252674" stroke="none" stroke-width="NaN"/><path d="M305.78388,125.73858c0,0.61454 1.22359,2.34148 2.30561,4.22893c1.4539,2.53614 2.86354,5.36209 2.71466,6.16854c-0.24965,1.35225 -3.16274,0.73011 -3.27938,0.75306c-1.40548,0.27666 -3.77003,3.04778 -4.01991,1.93621c-0.08629,-0.38385 -0.2312,-2.78402 -0.80473,-5.17727c-0.46467,-1.93902 -1.39097,-3.8735 -1.36818,-4.7274c0.10727,-4.01951 0.31544,-7.97468 0.45574,-11.11865c0.20351,-4.56083 0.38552,-7.5359 0.92153,-7.5359c0.46347,0 2.85661,-0.10884 3.44394,2.861c0.31707,1.60328 -0.36928,11.96515 -0.36928,12.61147z" fill="#475ac7" stroke="#252674" stroke-width="2.5"/><path d="M296.51006,113.14822c0.56167,-2.77828 1.33576,-2.51916 1.69112,-2.50501c0.41097,0.01637 -1.13807,2.928 -1.15301,7.22841c-0.0103,2.96445 -0.58145,6.84384 -0.6499,10.63164c-0.05926,3.27928 -0.23121,10.64828 -2.20674,8.03017c-0.30987,-0.41066 0.02681,-1.38035 -0.30203,-1.84284c-0.59978,-0.84352 -2.8966,0.06969 -2.59484,-1.22691c0.58897,-2.53075 3.74697,-8.72546 3.80096,-10.08154c0.02424,-0.60854 1.11123,-8.73405 1.41445,-10.23391z" data-paper-data="{&quot;index&quot;:null}" fill="#475ac7" stroke="#252674" stroke-width="2.5"/><path d="M305.97891,111.59022c1.34021,0 2.03315,1.98109 2.03315,4.26308c0,1.39487 -2.37353,2.7474 -3.32144,1.39362c-0.13992,-0.19981 -0.05193,-5.6567 1.28829,-5.6567z" fill="#8194ff" stroke="#252674" stroke-width="2.5"/><g stroke="#252674" stroke-width="2.5"><path d="M304.99512,138.67712c0,-1.84733 1.49755,-3.34486 3.34487,-3.34486c1.84733,0 3.34487,1.49755 3.34487,3.34486c0,1.84733 -1.49755,3.34487 -3.34487,3.34487c-1.84733,0 -3.34487,-1.49755 -3.34487,-3.34487z" fill="#8194ff"/><path d="M304.47042,117.2306c0,-0.37765 1.05142,0.0547 2.11562,-0.34904c0.66402,-0.25192 1.25291,-0.73422 1.84045,-0.87598c0.56372,-0.13601 3.38955,19.14449 3.38955,20.37605c0,0.26423 -7.494,4.0779 -7.35012,2.3498c0.13973,-1.67813 0.35129,-3.93391 0.38234,-6.28167c0.09046,-6.83911 -0.37782,-14.87589 -0.37782,-15.21915z" fill="#475ac7"/></g></g><g stroke="#176e4a"><path d="M160.75625,192.97694c0,-5.10006 2.04568,-30.34436 2.04568,-30.34436h15.00171c0,0 1.36379,23.79935 1.36379,28.63962c0,0.83812 -2.71724,0.7348 -6.1313,1.39364c-1.56124,0.30129 -4.08494,1.02383 -5.64051,1.07947c-0.52817,0.01889 -1.38007,-0.65429 -1.86414,-0.65668c-0.5851,-0.00288 -1.31905,0.72833 -2.03476,0.7737c-1.40537,0.08909 -2.74048,-0.51894 -2.74048,-0.88539z" fill="#9f697a" stroke-width="2.5" stroke-linecap="butt"/><path d="M176.06798,187.74754c0,0.66853 3.24883,7.98125 -0.56381,12.84608c-1.78321,2.27533 -3.50288,3.36976 -6.71211,4.49996c-4.89986,1.72559 -1.72496,4.73298 -2.91845,4.73298c-0.66838,0 -6.77271,-4.53068 -3.59743,-8.14682c1.31164,-1.49376 5.09922,-1.94232 5.67332,-3.81c1.18628,-3.85921 -4.03026,-9.69548 -4.03026,-10.01655c0,-1.4586 2.95607,-2.64103 6.60258,-2.64103c3.6465,0 5.54617,1.07679 5.54617,2.53539z" fill="#bcc6ff" stroke-width="2.5" stroke-linecap="butt"/><path d="M176.06799,186.84958c0,1.27363 -5.74503,1.48664 -9.02617,1.00432c-1.31803,-0.19376 -2.23849,-1.11986 -2.22928,-1.17982c0.13549,-0.8814 1.09728,-4.60638 1.10036,-4.66512c0.06372,-1.21498 -0.43223,-4.73963 -0.04316,-5.73418c0.57072,-1.45889 2.94483,-2.2606 3.43721,-2.2606c0.58654,0 3.47765,0.03755 4.26341,1.84391c0.27887,0.6411 0.798,6.97999 0.86599,7.35539c0.11644,0.64287 1.63163,3.46284 1.63163,3.63611z" fill="#ffbdb7" stroke-width="2.5" stroke-linecap="butt"/><path d="M180.44285,169.41275c0,4.73879 0.48264,11.27202 -0.40877,12.50943c-0.12453,0.17286 -1.26352,-1.77688 -2.39265,-2.54563c-0.55531,-0.37807 -2.22376,1.62008 -2.31107,0.21629c-0.05926,-0.95274 1.04422,-9.68463 1.04422,-10.73161c0,-5.72631 0.95307,-10.3684 2.12874,-10.3684c1.11451,0 1.93953,10.62199 1.93953,10.91992z" fill="#b9818a" stroke-width="2.5" stroke-linecap="butt"/><path d="M161.52705,157.22514c1.17568,0 2.12874,4.64209 2.12874,10.3684c0,1.04697 1.10347,9.77886 1.04422,10.73161c-0.08731,1.4038 -1.75576,-0.59435 -2.31107,-0.21628c-1.12913,0.76875 -2.26812,2.71848 -2.39265,2.54562c-0.89141,-1.23742 -0.40877,-7.77065 -0.40877,-12.50943c0,-0.29793 0.82502,-10.91992 1.93953,-10.91992z" data-paper-data="{&quot;index&quot;:null}" fill="#b9818a" stroke-width="2.5" stroke-linecap="butt"/><path d="M159.24386,165.28753c0,-5.92306 4.80159,-10.72465 10.72465,-10.72465c5.92306,0 10.72465,4.80159 10.72465,10.72465c0,5.92306 -4.80159,10.72465 -10.72465,10.72465c-5.92306,0 -10.72465,-4.80159 -10.72465,-10.72465z" fill="#acffcf" stroke-width="2.5" stroke-linecap="butt"/><path d="M172.52451,162.49012c0,1.94939 6.51483,-0.91433 7.76723,-0.21578c0.14276,0.07963 0.36115,2.88435 0.19019,4.14388c-0.00796,0.05865 -1.0587,2.30336 -1.76229,1.97417c-0.56156,-0.26274 -1.60794,-2.39995 -2.55005,-2.41291c-2.77816,-0.03823 -3.3681,0.70443 -4.9718,0.89704c-0.42253,0.05075 -1.99973,-0.34398 -3.65243,-0.96067c-1.21425,-0.45309 -3.06275,0.47625 -3.31078,0.49188c-0.63113,0.03976 -1.71242,-1.4892 -2.80532,-1.31581c-1.03025,0.16345 -1.42127,0.05077 -1.72388,-0.11345c-0.18669,-0.10131 -1.88853,0.25114 -1.87001,-0.59138c0.02178,-0.9909 1.78377,-3.20547 1.78377,-3.44119c0,-1.94939 4.34435,-1.98544 7.39026,-1.98544c3.04591,0 5.51511,1.58028 5.51511,3.52967z" fill="#b9818a" stroke-width="2.5" stroke-linecap="butt"/><path d="M159.64765,160.57605c0,-3.85257 4.5402,-8.47585 11.25113,-8.47585c6.71093,0 9.90099,6.27344 9.90099,10.12601c0,3.85257 -21.15211,2.00007 -21.15211,-1.65017z" fill="#96a5ff" stroke-width="2.5" stroke-linecap="butt"/><path d="M168.88805,150.78703c0,-1.84933 1.49918,-3.34852 3.34852,-3.34852c1.84933,0 3.34851,1.49918 3.34851,3.34852c0,1.84933 -1.49918,3.34851 -3.34851,3.34851c-1.84933,0 -3.34852,-1.49918 -3.34852,-3.34851z" fill="#ff96d4" stroke-width="2.5" stroke-linecap="butt"/><path d="M173.00438,178.34547l-6.33848,0.31692" fill="none" stroke-width="2.5" stroke-linecap="round"/><path d="M174.69463,183.62753l-8.55694,0.31693" fill="none" stroke-width="2.5" stroke-linecap="round"/><path d="M174.00202,168.65568c0.04937,2.61712 -0.30847,4.68229 -1.43916,4.70272c-1.13069,0.02043 -1.50117,-2.03157 -1.55054,-4.6487c-0.04937,-2.61712 0.24108,-4.80832 1.37177,-4.82875c1.13069,-0.02043 1.56857,2.15761 1.61793,4.77473z" fill="#176e4a" stroke-width="0" stroke-linecap="butt"/><path d="M175.1743,168.76176c0.01149,0.60919 -1.00937,2.1498 -1.22718,2.15374c-0.48458,0.00876 -0.89434,-0.8812 -0.91521,-1.98777c-0.02087,-1.10657 0.35504,-2.01072 0.83962,-2.01947c0.2464,-0.00446 1.29251,1.30961 1.30277,1.85351z" fill="#176e4a" stroke-width="0" stroke-linecap="butt"/><path d="M165.60207,169.32384c0.04937,-2.61712 0.48724,-4.79516 1.61793,-4.77473c1.13069,0.02043 1.42113,2.21163 1.37176,4.82875c-0.04937,2.61712 -0.41985,4.66912 -1.55054,4.64869c-1.13069,-0.02043 -1.48852,-2.08558 -1.43916,-4.70271z" fill="#176e4a" stroke-width="0" stroke-linecap="butt"/><path d="M164.42979,169.42992c0.01026,-0.5439 1.05636,-1.85796 1.30276,-1.85351c0.48458,0.00876 0.8605,0.91291 0.83962,2.01948c-0.02087,1.10657 -0.43063,1.99652 -0.91521,1.98777c-0.2178,-0.00394 -1.23867,-1.54454 -1.22718,-2.15373z" fill="#176e4a" stroke-width="0" stroke-linecap="butt"/></g><g><path d="M143.31491,268.01435c9.64373,0 17.4615,3.97281 17.4615,8.87352c0,4.90071 -7.81778,8.87352 -17.4615,8.87352c-9.64373,0 -17.4615,-3.97281 -17.4615,-8.87352c0,-4.90071 7.81778,-8.87352 17.4615,-8.87352z" fill-opacity="0.47451" fill="#292487" stroke="none" stroke-width="0" stroke-linecap="butt"/><path d="M150.20093,248.5909c0,1.26437 -2.65533,10.80108 -4.35044,10.80108c-2.23697,0 -6.15061,-8.8818 -6.15061,-14.10141c0,-5.21961 1.81343,-9.45094 4.05041,-9.45094c0.51059,0 1.56788,-2.79834 2.84183,-0.78451c1.95125,3.08449 3.60881,12.20269 3.60881,13.53579z" data-paper-data="{&quot;index&quot;:null}" fill="url(#color-6)" stroke="#250077" stroke-width="2.5" stroke-linecap="butt"/><path d="M133.69928,249.34098c0,-1.33309 1.65756,-10.4513 3.60881,-13.53579c1.27396,-2.01383 2.33125,0.78451 2.84184,0.78451c2.23698,0 4.05041,4.23133 4.05041,9.45094c0,5.21961 -3.91365,14.10141 -6.15062,14.10141c-1.69511,0 -4.35044,-9.53671 -4.35044,-10.80108z" fill="url(#color-7)" stroke="#250077" stroke-width="2.5" stroke-linecap="butt"/><path d="M151.7285,279.91536c-2.65832,0.60951 -5.47825,-0.20746 -7.61344,-0.9829c-2.15493,-0.78262 -1.77137,-4.84854 -1.39328,-5.23816c1.20716,-1.244 3.90999,-2.24203 6.0014,-2.47998c0.74587,-0.08486 1.78051,-0.53048 3.09153,0.13028c0.53602,0.27015 3.04705,2.48534 3.28323,4.17016c0.31267,2.23041 -1.88025,4.05915 -3.36944,4.4006z" data-paper-data="{&quot;index&quot;:null}" fill="#6770bb" stroke="#250077" stroke-width="2.5" stroke-linecap="butt"/><path d="M132.10687,276.56487c0.23618,-1.68482 2.74721,-3.9 3.28323,-4.17015c1.31102,-0.66076 2.34566,-0.21514 3.09153,-0.13028c2.09141,0.23795 3.89416,0.78593 5.10131,2.02994c0.37808,0.38962 0.76164,4.45554 -1.39329,5.23815c-2.13519,0.77544 -4.05503,2.04246 -6.71335,1.43295c-1.48919,-0.34145 -3.68211,-2.17019 -3.36944,-4.4006z" data-paper-data="{&quot;index&quot;:null}" fill="#6770bb" stroke="#250077" stroke-width="2.5" stroke-linecap="butt"/><path d="M142.19648,248.20713c0.16886,-3.41974 2.03526,-2.08105 3.01163,-2.19826c0.81296,-0.0976 1.83495,1.16252 2.62861,3.54299c0.65346,1.95997 2.88619,19.38889 2.79096,19.9879c-0.57091,3.59103 -6.10552,6.26613 -6.48343,2.76403c-0.31434,-2.91304 -2.05817,-21.86088 -1.94778,-24.09665z" data-paper-data="{&quot;index&quot;:null}" fill="#3b276d" stroke="#250077" stroke-width="2.5" stroke-linecap="butt"/><path d="M143.26057,272.13513c0.14486,3.52024 -7.25194,2.67062 -7.41188,-1.21601c-0.03884,-0.9438 1.5882,-19.11456 1.87777,-20.93544c0.39499,-2.48374 1.15735,-3.90048 1.9184,-3.94188c0.91402,-0.04972 2.7416,-1.68705 3.37751,1.65929c0.41575,2.18778 0.1177,21.50592 0.2382,24.43405z" fill="#3b276d" stroke="#250077" stroke-width="2.5" stroke-linecap="butt"/><path d="M148.45612,248.3568c0,0.88446 -0.91733,2.25452 -1.66605,2.67318c-1.84253,1.03031 -4.93933,0.09135 -7.42043,-0.37549c-1.80885,-0.34034 -2.27208,-0.82842 -2.24187,-1.09951c0.1894,-1.69956 0.66293,-5.16239 0.64648,-5.43925c-0.0951,-1.60065 -0.22521,-7.25731 0.30627,-8.52447c0.79492,-1.89524 7.05974,-2.56175 7.7433,-0.88555c0.62202,1.52529 1.21001,3.20034 1.2656,4.15608c0.0257,0.44183 -0.4686,4.54591 -0.28898,5.33306c0.11941,0.52331 1.65567,3.77623 1.65567,4.16195z" fill="url(#color-8)" stroke="#250077" stroke-width="2.5" stroke-linecap="butt"/><path d="M144.20033,233.51439c0,1.20134 -1.00746,2.17522 -2.25023,2.17522c-1.24277,0 -2.25023,-0.97388 -2.25023,-2.17522c0,-1.20134 1.00746,-2.17522 2.25023,-2.17522c1.24277,0 2.25023,0.97388 2.25023,2.17522z" fill="#c2bfff" stroke="#250077" stroke-width="2.5" stroke-linecap="butt"/><path d="M155.46027,209.3949c0.13437,1.23327 -0.22852,10.83349 -0.64662,11.83943c-1.34089,3.22616 -4.74273,-3.2645 -6.55365,-3.00227c-1.66152,0.24061 1.82523,-17.6016 1.87539,-17.60887c0.62862,-0.09103 5.19178,7.55 5.32488,8.7717z" fill="#947aff" stroke="#250077" stroke-width="2.5" stroke-linecap="butt"/><path d="M136.30301,200.2814c0.06368,0.00778 4.39387,18.40019 2.28422,18.14244c-2.29933,-0.28093 -6.65774,6.38176 -8.34333,3.05183c-0.52558,-1.0383 -0.93293,-10.92545 -0.75532,-12.19448c0.17595,-1.25714 6.01627,-9.0973 6.81443,-8.99979z" data-paper-data="{&quot;index&quot;:null}" fill="#947aff" stroke="#250077" stroke-width="2.5" stroke-linecap="butt"/><path d="M130.06472,220.78873c0,-6.79676 5.50986,-12.30662 12.30661,-12.30662c6.79676,0 12.30661,5.50986 12.30661,12.30662c0,6.79676 -5.50985,12.30661 -12.30661,12.30661c-6.79676,0 -12.30661,-5.50985 -12.30661,-12.30661z" fill="#c2bfff" stroke="#250077" stroke-width="2.5" stroke-linecap="butt"/><path d="M130.31148,207.55456c0,-2.68827 5.21596,-4.86754 11.65018,-4.86754c6.43421,0 11.65017,2.17927 11.65017,4.86754c0,2.68827 -5.21596,4.86754 -11.65017,4.86754c-6.43421,0 -11.65018,-2.17927 -11.65018,-4.86754zM142.12124,210.81031c4.83249,0 8.75,-1.63677 8.75,-3.65582c0,-2.01905 -3.91751,-3.65582 -8.75,-3.65582c-4.83249,0 -8.75,1.63677 -8.75,3.65582c0,2.01905 3.91751,3.65582 8.75,3.65582z" fill="#7ae7ff" stroke="#250077" stroke-width="2.5" stroke-linecap="butt"/><g fill="none" stroke="#fdf7ff" stroke-width="2" stroke-linecap="round"><path d="M141.86793,243.23528l-3.14634,-0.23109"/><path d="M143.59169,241.4104c0,0 0.76043,-0.92032 1.56511,-0.99136c0.81088,-0.0716 1.10762,0.71889 1.10762,0.71889"/><path d="M139.1105,246.34257l6.50135,0.20822"/></g><path d="M143.79898,242.92366c0,-0.41422 0.33578,-0.75 0.75,-0.75c0.41422,0 0.75,0.33578 0.75,0.75c0,0.41422 -0.33578,0.75 -0.75,0.75c-0.41422,0 -0.75,-0.33578 -0.75,-0.75z" fill="#ffffff" stroke="none" stroke-width="0.5" stroke-linecap="butt"/><path d="M139.99101,244.19298c0,-0.41422 0.33578,-0.75 0.75,-0.75c0.41422,0 0.75,0.33578 0.75,0.75c0,0.41422 -0.33578,0.75 -0.75,0.75c-0.41422,0 -0.75,-0.33578 -0.75,-0.75z" fill="#ffffff" stroke="none" stroke-width="0.5" stroke-linecap="butt"/><g stroke-width="2" stroke-linecap="butt"><path d="M133.40534,226.08306c0,0.40318 0.06419,2.15448 -0.44942,2.15448c-0.15597,0 -3.74513,-1.38762 -3.74513,-2.15448c0,-0.46768 2.09651,-1.67571 2.54669,-1.67571c0.91009,0 1.64786,0.75024 1.64786,1.67571z" fill="#250077" stroke="none"/><path d="M131.98218,224.0971c0,-0.21662 10.4696,-0.35589 10.4696,-0.15959c0,3.30031 -1.76235,6.13534 -4.86029,6.13534c-3.09794,0 -5.60931,-2.67543 -5.60931,-5.97574z" fill="url(#color-9)" stroke="#250077"/><path d="M135.2779,224.17118c0,-0.12038 4.47739,-0.19779 4.47739,-0.08869c0,1.83415 -1.05329,3.40973 -2.37814,3.40973c-1.32485,0 -2.09925,-1.48688 -2.09925,-3.32103z" fill="#ffffff" stroke="#250077"/></g><g data-paper-data="{&quot;index&quot;:null}" stroke-width="2" stroke-linecap="butt"><path d="M153.37778,224.40735c0.45018,0 2.54669,1.20803 2.54669,1.67571c0,0.76686 -3.58916,2.15449 -3.74513,2.15449c-0.51361,0 -0.44942,-1.75131 -0.44942,-2.15449c0,-0.92547 0.73777,-1.67571 1.64786,-1.67571z" fill="#250077" stroke="none"/><path d="M147.54377,230.07284c-3.09794,0 -4.86029,-2.83502 -4.86029,-6.13533c0,-0.1963 10.4696,-0.05702 10.4696,0.1596c0,3.30031 -2.51138,5.97574 -5.60931,5.97574z" fill="url(#color-10)" stroke="#250077"/><path d="M147.75812,227.49222c-1.32485,0 -2.37814,-1.57557 -2.37814,-3.40973c0,-0.1091 4.47739,-0.0317 4.47739,0.08869c0,1.83416 -0.7744,3.32104 -2.09925,3.32104z" fill="#ffffff" stroke="#250077"/></g></g><g stroke-linecap="butt"><path d="M262.99851,159.01695c8.83046,0 15.98895,3.04899 15.98895,6.81011c0,3.76112 -7.1585,6.81011 -15.98895,6.81011c-8.83046,0 -15.98895,-3.04899 -15.98895,-6.81011c0,-3.76112 7.1585,-6.81011 15.98895,-6.81011z" fill-opacity="0.47451" fill="#541287" stroke="none" stroke-width="0"/><path d="M253.34166,150.66116c0.9737,-6.62742 3.69716,-22.49276 4.87022,-22.67926c1.95856,-0.31138 1.70144,11.03342 2.91236,18.65c1.21092,7.61659 -7.99046,5.44422 -7.78258,4.02926z" data-paper-data="{&quot;index&quot;:null}" fill="#9951b7" stroke="#541287" stroke-width="2.5"/><path d="M257.93481,139.52877c0.18704,0 3.30824,-2.63454 4.24403,1.41776c1.36898,5.9282 -0.56486,18.30182 -0.51034,23.72433c0.00281,0.27953 -6.56078,0.65104 -6.56078,-0.87992c0,0 1.99854,-24.26216 2.82709,-24.26216z" fill="#725580" stroke="#541287" stroke-width="2.5"/><path d="M261.64208,165.78024c0,2.73234 -11.01181,2.89193 -11.01181,0.15959c0,-2.73234 1.47415,-5.10693 4.86754,-5.10693c3.39339,0 6.14427,2.215 6.14427,4.94734z" fill="#683980" stroke="#541287" stroke-width="2.5"/><path d="M264.67432,147.50702c0,-7.71224 -1.58417,-19.23077 0.39899,-19.23077c0.387,0 1.77726,1.28261 2.68473,3.66643c1.91404,5.02797 3.8818,13.85415 5.21573,18.14781c0.58762,1.89142 -8.29944,5.12879 -8.29944,-2.58346z" fill="#9951b7" stroke="#541287" stroke-width="2.5"/><path d="M262.40337,137.93285c0.18704,0 3.78701,-0.08108 4.7228,3.97122c1.43954,6.2338 3.63723,19.10671 3.81574,24.19965c0.086,2.45322 -9.61012,4.26492 -9.61012,1.19822c0,0 0.18292,-29.36909 1.07158,-29.36909z" fill="#725580" stroke="#541287" stroke-width="2.5"/><path d="M267.08786,160.21674c0.07594,0.47871 3.43112,-0.21602 3.50896,0.39315c0.27321,2.13825 0.29841,4.16189 0.34509,5.49383c0.086,2.45322 -9.61012,4.26492 -9.61012,1.19822c0,0 0.0238,-3.82096 0.09593,-8.70648c0.00922,-0.62462 2.25351,1.44642 2.26437,0.79276c0.03538,-2.13079 0.0742,-5.04038 0.84299,-4.94708c0.95354,0.11572 2.36719,4.60566 2.55279,5.7756z" fill="#9857ca" stroke="none" stroke-width="0"/><path d="M262.40337,137.93285c0.18704,0 3.78701,-0.08108 4.7228,3.97122c1.43954,6.2338 3.63723,19.10671 3.81574,24.19965c0.086,2.45322 -9.61012,4.26492 -9.61012,1.19822c0,0 0.18292,-29.36909 1.07158,-29.36909z" fill="none" stroke="#541287" stroke-width="2.5"/><path d="M267.21723,140.49383c0,3.5626 -9.35067,2.19671 -9.95032,0.90345c-0.03756,-0.081 0.28823,-4.08226 0.26883,-4.49245c-0.0441,-0.93249 -0.30442,-8.66856 0.0128,-8.66856c0.35086,0 0.89135,-0.98274 1.8216,-1.30713c1.88005,-0.65558 4.6058,-0.861 5.35085,-0.50474c0.9767,0.46703 1.49422,10.00123 1.59014,10.89305c0.19891,1.84938 0.9061,3.09208 0.9061,3.17639z" fill="#9468de" stroke="#541287" stroke-width="2.5"/><path d="M260.93145,124.33991c1.26946,0 2.29857,0.7583 2.29857,1.69369c0,0.93539 -1.0291,1.69368 -2.29857,1.69368c-1.26946,0 -2.29857,-0.75829 -2.29857,-1.69368c0,-0.9354 1.0291,-1.69369 2.29857,-1.69369z" fill="#e5c2ff" stroke="#541287" stroke-width="2.5"/><path d="M248.38062,124.96335c-1.2465,-1.4957 -2.18683,-15.13172 -1.96995,-16.84621c0.11315,-0.89445 5.30266,-6.49077 6.36643,-6.5922c0.34301,-0.0327 16.42088,-0.49551 16.71346,-0.4596c1.23018,0.151 4.00417,12.56683 2.89809,18.49087c-0.03936,0.2108 -2.16214,4.5994 -2.16105,4.66878c0,0 -1.04656,1.27586 -2.47664,1.38691c-5.48865,0.42618 -18.68639,0.17216 -19.37034,-0.64855z" fill="#9d7bb5" stroke="#541287" stroke-width="2.5"/><path d="M249.07019,124.55776c-0.79655,-0.95581 -1.8901,-13.91756 -1.69045,-15.49588c0.05003,-0.39548 16.96287,-1.14381 18.09853,-1.04803c1.88091,0.15864 2.15694,16.28153 2.15435,16.54028c-0.72992,0.52658 -17.88065,0.82174 -18.56244,0.00364z" fill="url(#color-11)" stroke="#541287" stroke-width="2.5"/><path d="M268.59008,111.53317c0,-0.65746 -0.23522,-3.10485 -0.10385,-3.6382c0.23542,-0.95579 0.95405,0.071 1.37921,-1.04317c0.44779,-1.17349 0.83299,-3.39998 1.39227,-3.39998c0.90565,0 1.63236,2.13493 2.02755,4.4732c0.20987,1.24182 0.32624,2.54098 0.32624,3.60815c0,0.44164 -0.62986,1.08113 -0.64252,1.8043c-0.0363,2.07337 0.46892,4.83452 0.06455,5.59214c-0.43709,0.81894 -1.31586,-1.82582 -1.93274,-1.82582c-1.38662,0 -2.51071,-2.49406 -2.51071,-5.57063z" fill="#541287" stroke="none" stroke-width="0"/><path d="M273.21317,113.59663c-0.62457,-0.03004 -1.60671,-1.94445 -1.52973,-3.5449c0.00991,-0.20614 1.20596,-12.06073 1.75008,-12.03456c0.31522,0.01516 2.11799,6.48691 1.12996,9.87148c-0.12135,0.41569 2.39823,-1.11006 2.25892,-0.70658c-0.97391,2.82059 -3.33859,6.42758 -3.60922,6.41457z" fill="#ca80ff" stroke="#541287" stroke-width="2.5"/><path d="M261.16329,167.85493c0,-3.70188 2.71517,-4.30897 6.06448,-4.30897c3.34932,0 6.06448,0.60709 6.06448,4.30897c0,3.70188 -12.12895,3.70188 -12.12895,0z" fill="#683980" stroke="#541287" stroke-width="2.5"/><text transform="translate(252.40382,120.31429) rotate(-2.17872) scale(0.12955,0.16466) skewX(-3.03323)" font-size="40" xml:space="preserve" fill="#ca80ff" fill-rule="nonzero" stroke="none" stroke-width="1" stroke-linecap="butt" stroke-linejoin="miter" stroke-miterlimit="10" stroke-dasharray="" stroke-dashoffset="0" font-family="&quot;Neon&quot;, Sans Serif" font-weight="normal" text-anchor="start" style="mix-blend-mode: normal"><tspan x="0" dy="0">um..</tspan></text><path d="" fill="none" stroke="none" stroke-width="0"/></g><g stroke-linecap="butt"><path d="M348.35126,121.85257c9.45511,0 17.12,3.99747 17.12,8.92861c0,4.93113 -7.66489,8.92861 -17.12,8.92861c-9.45511,0 -17.12,-3.99747 -17.12,-8.92861c0,-4.93113 7.66489,-8.92861 17.12,-8.92861z" fill-opacity="0.27059" fill="#5f0d63" stroke="none" stroke-width="0"/><g><path d="M361.64377,114.45082c-0.21152,-0.01276 -1.99064,1.18743 -3.58852,1.39611c-1.7655,0.23057 -3.37661,-0.57741 -3.89698,-1.74012c-2.92169,-6.52821 -4.25391,-20.73164 -2.94178,-20.65248c1.18595,0.07155 4.81053,10.97565 7.37367,16.92673c0.27907,0.64795 3.08559,4.07169 3.05362,4.06976z" data-paper-data="{&quot;index&quot;:null}" fill="#803686" stroke="#5f0d63" stroke-width="2.5"/><path d="M340.92143,117.47122c0.07105,-0.36135 3.89619,-1.31494 5.24153,-1.07031c2.21517,0.40279 2.32571,2.47666 1.99863,4.14013c-0.71377,3.63009 -2.98293,6.24046 -5.0683,5.83043c-1.74075,-0.34228 -2.28982,-8.30035 -2.17186,-8.90026z" fill="#614b94" stroke="#5f0d63" stroke-width="2.5"/><path d="M333.80218,113.98479c3.99464,-7.26247 11.29064,-21.22534 12.45698,-20.95186c1.29042,0.30259 -3.61095,19.13064 -8.09945,27.06305c-0.72192,1.27581 -2.74604,2.47234 -4.51392,2.17889c-1.96169,-0.32563 -3.65368,-2.22459 -3.88398,-2.2786c-0.03621,-0.0085 3.70709,-5.40553 4.04037,-6.01147z" fill="#803686" stroke="#5f0d63" stroke-width="2.5"/><path d="M352.42464,121.59564c-2.22804,0.2585 -3.94428,-1.6751 -4.17476,-3.32553c-0.51332,-3.67577 -0.21634,-10.16741 -0.14228,-10.24981c1.19036,-1.32443 3.78283,-1.87443 4.32919,0.36385c0.10947,0.44849 4.03694,10.86278 3.03856,11.27103c-0.39583,0.16186 -2.40462,1.86551 -3.05072,1.94047z" fill="#5c3160" stroke="#5f0d63" stroke-width="2.5"/><path d="M352.26232,129.07039c0.57724,0.1135 5.76864,3.17727 6.09283,3.56402c1.32072,1.57561 1.47474,3.28422 1.18334,4.76621c-0.06689,0.34019 -4.4267,1.05638 -8.22602,0.25986c-2.12115,-0.44468 -7.63394,-3.94416 -7.51715,-4.53815c0.59769,-3.03977 4.38849,-4.85388 8.46699,-4.05195z" fill="#614b94" stroke="#5f0d63" stroke-width="2.5"/><path d="M343.70462,106.62035c1.25865,-1.33881 1.97217,0.41465 3.29861,0.67546c1.58122,0.3109 0.72441,-2.54938 1.33043,-0.26135c0.48426,1.82833 6.7339,22.57934 6.73007,22.59885c-0.22929,1.16611 -2.94845,0.52529 -5.52283,0.48289c-2.0444,-0.03367 -3.941,0.68856 -4.82946,0.29532c-0.7214,-0.31931 -1.13049,-23.65964 -1.00682,-23.79118z" fill="#5c3160" stroke="#5f0d63" stroke-width="2.5"/><path d="M343.71471,103.08419c0.06329,-0.55643 0.08149,-3.27895 0.13414,-5.76052c0.01314,-0.61957 0.9133,-4.57489 1.9273,-4.49099c1.50808,0.12477 3.72207,0.67875 5.28055,1.11278c1.12041,0.31203 1.01615,8.94251 1.04283,9.45075c0.0254,0.48407 0.9861,4.08982 0.97764,4.11357c-0.79138,2.2249 -8.0987,1.69708 -10.08161,-0.72267c0,0 0.68294,-3.38461 0.71914,-3.70293z" fill="#803686" stroke="none" stroke-width="0"/><path d="M348.80875,93.54597c0.78654,0.1842 1.55845,0.38809 2.21427,0.57074c1.12041,0.31203 1.50232,3.83812 1.4321,4.43744c-0.21372,1.82408 -0.33031,4.5219 -0.30363,5.03015c0.00772,0.1473 -1.49901,0.09097 -1.38277,0.62531c0.26577,1.22169 0.80249,1.47455 0.7966,1.49107c-0.09481,0.26654 -7.23445,2.1574 -7.71231,1.47178c-0.16343,-0.23449 3.53186,-3.98301 3.50984,-4.0409c-0.34218,-0.89952 -0.77921,-2.07923 -0.74782,-3.47367c0.0073,-0.32422 1.35116,-0.65456 1.36226,-0.97843c0.09202,-2.6891 0.3293,-5.25109 0.83146,-5.13348z" fill="#b058b5" stroke="none" stroke-width="0"/><path d="M343.71471,103.08419c0.06329,-0.55643 0.02964,-2.03027 0.08229,-4.51183c0.01314,-0.61957 0.96515,-5.82358 1.97915,-5.73968c1.50808,0.12477 3.72207,0.67875 5.28055,1.11278c0.40938,0.11401 0.56741,2.14963 0.66062,4.56561c0.03209,0.83184 0.10024,2.77025 0.32596,4.46964c0.13664,1.02874 1.0357,4.52403 1.03391,4.52908c-0.74432,2.09259 -7.25267,1.75011 -9.67387,-0.31123c-0.15308,-0.13033 -0.28229,-1.11177 -0.13269,-1.95517c0.21177,-1.19389 0.42286,-1.97266 0.44408,-2.1592z" fill="none" stroke="#5f0d63" stroke-width="2.5"/><g fill="#614b94" stroke="#5f0d63" stroke-width="2.5"><path d="M353.14019,93.953c0.48528,0.09542 0.5885,1.6485 0.23057,3.4689c-0.28846,1.46708 -2.71864,0.14593 -2.38921,-1.52945c0.06109,-0.31064 1.75616,-2.01859 2.15864,-1.93945z"/><path d="M348.88949,96.62815c0.21839,1.69345 -3.24542,2.97446 -3.43665,1.49156c-0.23728,-1.84002 0.11259,-3.40158 0.78148,-3.48784c0.55475,-0.07154 2.61467,1.68229 2.65517,1.99627z" data-paper-data="{&quot;index&quot;:null}"/><path d="M350.32725,94.86715c0.80183,0.15766 1.31023,1.00578 1.13552,1.89431c-0.17471,0.88852 -0.96637,1.48101 -1.76821,1.32335c-0.80183,-0.15766 -1.31023,-1.00578 -1.13553,-1.89431c0.17471,-0.88852 0.96638,-1.48101 1.76821,-1.32335z"/></g></g><path d="M349.39414,91.47304c1.17154,0.17774 1.97063,1.3147 1.78481,2.53949c-0.18582,1.22479 -1.18777,1.78132 -2.35931,1.60358c-1.17153,-0.17774 -2.06902,-1.02243 -1.88321,-2.24722c0.18582,-1.22479 1.28617,-2.07359 2.45771,-1.89586z" fill="#6a4a6d" stroke="#5f0d63" stroke-width="2.5"/><path d="M361.1194,82.75095c-0.37282,1.51878 -1.30011,1.88762 -1.59429,1.79062c-0.6746,-0.22245 -6.14796,-6.72446 -5.28717,-9.33495c0.03778,-0.11459 7.62684,-6.43941 8.6488,-6.72417c0.69441,-0.1935 -0.56531,9.37172 -1.76734,14.2685z" data-paper-data="{&quot;index&quot;:null}" fill="#ff3ef9" stroke="#5f0d63" stroke-width="2.5"/><path d="M341.04637,76.56958c3.17101,-5.16339 9.92739,-6.77854 15.0908,-3.60752c5.16338,3.17102 6.77853,9.9274 3.60751,15.0908c-3.17101,5.16339 -9.92739,6.77853 -15.09078,3.60751c-5.16338,-3.17102 -6.77853,-9.9274 -3.60751,-15.0908z" fill="#6a4a6d" stroke="#5f0d63" stroke-width="2.5"/><path d="M356.13716,72.96206c5.16338,3.17102 6.77853,9.92739 3.60751,15.09079c0,0 -3.77553,4.00047 -7.10883,2.77877c-2.90472,-1.06463 -6.13781,-6.42477 -5.23379,-10.96138c1.0311,-5.17437 5.98386,-8.5978 8.73511,-6.90819z" fill="#946798" stroke="none" stroke-width="0"/><path d="M341.04637,76.56958c3.17101,-5.16339 9.92739,-6.77854 15.0908,-3.60752c5.16338,3.17102 6.77853,9.9274 3.60751,15.0908c-3.17101,5.16339 -9.92739,6.77853 -15.09078,3.60751c-5.16338,-3.17102 -6.77853,-9.9274 -3.60751,-15.0908z" fill="none" stroke="#5f0d63" stroke-width="2.5"/><path d="M346.51334,73.41315c0.44397,2.11562 -2.53836,6.70307 -4.48455,8.41637c-0.52854,0.46528 -2.88452,0.08261 -3.08578,-1.46824c-0.64886,-5.00026 -2.33889,-14.39132 -1.67035,-14.12165c0,0 9.21592,7.05542 9.24069,7.1735z" data-paper-data="{&quot;index&quot;:null}" fill="#ff3ef9" stroke="#5f0d63" stroke-width="2.5"/><g stroke="#5f0d63" stroke-width="2.5"><path d="M339.84738,74.63403c-0.06163,-3.24724 4.53143,-7.28084 11.2111,-7.16272c5.86457,0.10369 9.96418,3.51245 10.02581,6.75969c0.06163,3.24723 -5.01076,6.42612 -10.87518,6.53741c-5.86443,0.1113 -10.30011,-2.88713 -10.36175,-6.13435z" fill="#662b69"/><path d="M360.69571,59.06205c0.87385,1.5336 -3.61566,12.57939 -4.13506,13.41003c-3.3299,4.04448 -10.68835,2.3157 -11.82416,1.39045c-1.18513,-0.96543 -5.20862,-8.78442 -4.98921,-12.26137c0.06237,-11.45503 20.23717,-8.60471 20.94843,-2.53911z" fill="#662b69"/><path d="M351.26318,72.43091c5.60811,-0.73043 6.86596,-3.63057 6.471,-2.64692c-0.56688,1.41182 -1.02738,2.45434 -1.17354,2.68807c-3.3299,4.04448 -10.68835,2.3157 -11.82416,1.39044c-0.42516,-0.34633 -1.55448,-1.86905 -2.38324,-3.46249c0,0 2.32279,2.88886 8.90993,2.03089z" fill="#a1a7ff"/></g><path d="M349.67494,86.81193c-0.41451,2.555 -1.8567,4.46072 -3.2212,4.25659c-1.05102,-0.15724 -1.7776,-1.43563 -1.85359,-3.22133c-0.00989,-0.23239 -0.96237,-1.03698 -0.9087,-1.36783c0.04488,-0.27661 1.31077,-1.56864 1.36767,-1.73954c0.61609,-1.85091 1.78178,-3.09039 2.89572,-2.92374c1.36451,0.20414 2.13464,2.44086 1.72012,4.99586z" fill="#5f0d63" stroke="none" stroke-width="0"/><path d="M354.09374,81.47399c0.91138,0.25178 1.53868,1.85565 1.59416,3.837c0.00511,0.18294 0.69882,1.8735 0.67013,2.15223c-0.03432,0.3334 -0.96644,0.7458 -1.02784,0.96246c-0.47179,1.66494 -1.33626,2.60961 -2.19618,2.37203c-1.11638,-0.30841 -1.80654,-2.64563 -1.54151,-5.22031c0.26502,-2.57468 1.38485,-4.41184 2.50123,-4.10342z" data-paper-data="{&quot;index&quot;:null}" fill="#5f0d63" stroke="none" stroke-width="0"/><path d="" fill="none" stroke="none" stroke-width="0"/></g></g></g></svg>