<svg version="1.1" xmlns="http://www.w3.org/2000/svg" xmlns:xlink="http://www.w3.org/1999/xlink" width="97.88579" height="97.88579" viewBox="0,0,97.88579,97.88579"><g transform="translate(-271.0571,-131.05711)"><g data-paper-data="{&quot;isPaintingLayer&quot;:true}" fill-rule="nonzero" stroke-linecap="butt" stroke-linejoin="miter" stroke-miterlimit="10" stroke-dasharray="" stroke-dashoffset="0" style="mix-blend-mode: normal"><path d="" fill="#8b65ae" stroke="#5c00aa" stroke-width="2.5"/><path d="" fill="#a17cc4" stroke="#5c00aa" stroke-width="2.5"/><path d="" data-paper-data="{&quot;index&quot;:null}" fill="#b867ff" stroke="#5c00aa" stroke-width="2.5"/><path d="" data-paper-data="{&quot;index&quot;:null}" fill="#ffc374" stroke="none" stroke-width="0"/><path d="" data-paper-data="{&quot;index&quot;:null}" fill="none" stroke="#5c00aa" stroke-width="2.5"/><path d="" fill="#a17cc4" stroke="#5c00aa" stroke-width="2.5"/><path d="M305.75483,168.23812c0,-4.45391 4.26051,-8.06452 9.51613,-8.06452c5.25562,0 9.51613,3.61061 9.51613,8.06452c0,4.45391 -4.26051,8.06452 -9.51613,8.06452c-5.25562,0 -9.51613,-3.61061 -9.51613,-8.06452z" fill="#ffd98f" stroke="#855500" stroke-width="2.25"/><path d="M305.59353,191.62523c0,-4.45391 4.2605,-8.06452 9.51612,-8.06452c5.25562,0 9.51613,3.61061 9.51613,8.06452c0,4.45391 -4.26051,8.06451 -9.51613,8.06451c-5.25561,0 -9.51612,-3.6106 -9.51612,-8.06451z" fill="#ffd98f" stroke="#855500" stroke-width="2.25"/><path d="M320.42857,168.80876c5.79008,0 10.48387,4.94653 10.48387,11.04838c0,6.10185 -4.69379,11.04838 -10.48387,11.04838c-5.79008,0 -10.48387,-4.94653 -10.48387,-11.04838c0,-6.10186 4.69379,-11.04838 10.48387,-11.04838z" fill="#ffd98f" stroke="#855500" stroke-width="2.25"/><path d="M318.58151,174.20586c0,-2.76142 2.20247,-5 4.91935,-5c2.71688,0 4.91935,2.23858 4.91935,5c0,2.76142 -2.20247,5 -4.91935,5c-2.71688,0 -4.91935,-2.23858 -4.91935,-5z" fill="#ffffff" stroke="#855500" stroke-width="2.25"/><path d="M319.46451,184.83461c0,-2.76142 2.20247,-5 4.91935,-5c2.71688,0 4.91935,2.23858 4.91935,5c0,2.76142 -2.20247,5 -4.91935,5c-2.71688,0 -4.91935,-2.23858 -4.91935,-5z" fill="#ffffff" stroke="#855500" stroke-width="2.25"/><path d="M323.63761,184.79082c0,-1.46979 0.90266,-2.66129 2.01613,-2.66129c1.11347,0 2.01612,1.1915 2.01612,2.66129c0,1.46979 -0.90265,2.66129 -2.01612,2.66129c-1.11347,0 -2.01613,-1.1915 -2.01613,-2.66129z" fill="#855500" stroke="none" stroke-width="2.25"/><path d="M323.05377,173.98437c0,-1.46979 0.90266,-2.66129 2.01613,-2.66129c1.11347,0 2.01613,1.1915 2.01613,2.66129c0,1.46979 -0.90266,2.66129 -2.01613,2.66129c-1.11347,0 -2.01613,-1.1915 -2.01613,-2.66129z" fill="#855500" stroke="none" stroke-width="2.25"/><path d="M328.88756,177.72677c0.54151,0 0.98049,0.65847 0.98049,1.47073c0,0.81226 -0.43898,1.47073 -0.98049,1.47073c-0.54151,0 -0.54151,-2.94145 0,-2.94145z" fill="#855500" stroke="none" stroke-width="2.25"/><path d="M368.9429,228.94291h-97.88579v-97.88579l97.88579,0z" fill="none" stroke="none" stroke-width="0"/></g></g></svg>