<svg version="1.1" xmlns="http://www.w3.org/2000/svg" xmlns:xlink="http://www.w3.org/1999/xlink" width="34.85774" height="35.2477" viewBox="0,0,34.85774,35.2477"><g transform="translate(-302.17575,-166.08037)"><g data-paper-data="{&quot;isPaintingLayer&quot;:true}" fill-rule="nonzero" stroke-linecap="butt" stroke-linejoin="miter" stroke-miterlimit="10" stroke-dasharray="" stroke-dashoffset="0" style="mix-blend-mode: normal"><path d="M303.42575,200.07807v-32.7477h32.35774v32.7477z" fill-opacity="0.4" fill="#3e0080" stroke="#fedbff" stroke-width="2.5"/><path d="M309.28298,177.02054v-2.19969h5.75304v2.19969z" fill="#fedbff" stroke="none" stroke-width="0"/><path d="M307.59091,192.5876v-15.22865h24.02742v15.22865z" fill="#fedbff" stroke="none" stroke-width="0"/><path d="M314.17452,184.97327c0,-2.99896 2.43113,-5.4301 5.4301,-5.4301c2.99896,0 5.4301,2.43113 5.4301,5.4301c0,2.99896 -2.43113,5.4301 -5.4301,5.4301c-2.99896,0 -5.4301,-2.43114 -5.4301,-5.4301z" fill="#644a73" stroke="none" stroke-width="0"/><path d="M315.63227,184.97327c0,-2.19387 1.77848,-3.97235 3.97235,-3.97235c2.19388,0 3.97236,1.77848 3.97236,3.97235c0,2.19387 -1.77848,3.97235 -3.97236,3.97235c-2.19388,0 -3.97235,-1.77848 -3.97235,-3.97235z" fill="#fedbff" stroke="none" stroke-width="0"/></g></g></svg>