<svg version="1.1" xmlns="http://www.w3.org/2000/svg" xmlns:xlink="http://www.w3.org/1999/xlink" width="17.78353" height="17.55257" viewBox="0,0,17.78353,17.55257"><g transform="translate(-311.09367,-171.22393)"><g data-paper-data="{&quot;isPaintingLayer&quot;:true}" fill-rule="nonzero" stroke="#fedbff" stroke-width="2.5" stroke-linecap="butt" stroke-linejoin="miter" stroke-miterlimit="10" stroke-dasharray="" stroke-dashoffset="0" style="mix-blend-mode: normal"><path d="M312.37442,183.26601c-0.00281,-0.1157 -0.00303,-6.50312 0,-6.64357c0.06853,-3.17583 1.00031,-4.06286 4.31941,-4.14851c0.09994,-0.00258 6.60455,0.00082 6.68486,0c3.33139,-0.0341 4.1779,0.97092 4.24851,4.17174c0.00121,0.05492 0.00011,6.62741 0,6.64357c-0.02378,3.36542 -0.92433,4.22289 -4.27206,4.23726c-0.0904,0.00039 -6.65679,0.00106 -6.7084,0c-3.35251,-0.06877 -4.19279,-0.98656 -4.27233,-4.26049z" fill="#3e007f"/><path d="M316.17628,181.63768c-0.00141,-0.05802 -0.00152,-3.26088 0,-3.33131c0.03436,-1.59247 0.50159,-2.03725 2.16589,-2.0802c0.05011,-0.00129 3.31174,0.00041 3.35201,0c1.67047,-0.0171 2.09494,0.48685 2.13034,2.09185c0.00061,0.02754 0.00006,3.3232 0,3.33131c-0.01192,1.68753 -0.46349,2.11749 -2.14215,2.1247c-0.04533,0.0002 -3.33793,0.00053 -3.36381,0c-1.68106,-0.03449 -2.1024,-0.49469 -2.14229,-2.13635z" fill="#fedbff"/></g></g></svg>