<svg version="1.1" xmlns="http://www.w3.org/2000/svg" xmlns:xlink="http://www.w3.org/1999/xlink" width="806.49451" height="378" viewBox="0,0,806.49451,378"><g transform="translate(41.5,9)"><g data-paper-data="{&quot;isPaintingLayer&quot;:true}" fill-rule="nonzero" stroke="none" stroke-linecap="butt" stroke-linejoin="miter" stroke-miterlimit="10" stroke-dasharray="" stroke-dashoffset="0" style="mix-blend-mode: normal"><path d="M-41.5,369v-378h723v378z" fill="#ffe6fd" stroke-width="0"/><text transform="translate(22.5,282.75377) scale(0.49015,0.49015)" font-size="40" xml:space="preserve" fill="#120011" fill-rule="nonzero" stroke="none" stroke-width="1" stroke-linecap="butt" stroke-linejoin="miter" stroke-miterlimit="10" stroke-dasharray="" stroke-dashoffset="0" font-family="&quot;Neon&quot;, Sans Serif" font-weight="normal" text-anchor="start" style="mix-blend-mode: normal"><tspan x="0" dy="0">BOP WAS TOO GOOD AT GAMING</tspan><tspan x="0" dy="48px">SHE BROKE OUT OF PRISON AND IS STILL AFTER THE !!!!!!!!</tspan></text><text transform="translate(17.5,338.60871) scale(0.79394,0.79394)" font-size="40" xml:space="preserve" fill="#120011" fill-rule="nonzero" stroke="none" stroke-width="1" stroke-linecap="butt" stroke-linejoin="miter" stroke-miterlimit="10" stroke-dasharray="" stroke-dashoffset="0" font-family="&quot;Neon&quot;, Sans Serif" font-weight="normal" text-anchor="start" style="mix-blend-mode: normal"><tspan x="0" dy="0">WHAAATTTRTRT78RTJJ!!!!!!!!!!!!!!!!!!!!!!!!!!!!!!!!!!!!!!!!!!!!!!!!!!!!!!!!!!!!!!!!!!</tspan></text><text transform="translate(386.5,27) scale(0.5,0.5)" font-size="40" xml:space="preserve" fill="#120011" fill-rule="nonzero" stroke="none" stroke-width="1" stroke-linecap="butt" stroke-linejoin="miter" stroke-miterlimit="10" stroke-dasharray="" stroke-dashoffset="0" font-family="&quot;Neon&quot;, Sans Serif" font-weight="normal" text-anchor="start" style="mix-blend-mode: normal"><tspan x="0" dy="0">Click to go back the menu</tspan></text><path d="M413.8576,131.4927c-1.25,0 -1.25,-1.25 -1.25,-1.25l0.03732,-0.57944c-0.30139,-1.20629 -0.57739,-2.41916 -0.82926,-3.63675c-1.00649,-4.93027 -0.53198,-10.17505 -0.53198,-15.20128c0,-9.56163 0,-19.12327 0,-28.6849c0,0 0,-0.50662 0.32252,-0.8748c-0.04058,-0.37823 -0.08651,-0.75598 -0.14124,-1.13321c-0.02904,-0.20012 -0.11173,0.42538 -0.27934,0.5385c-0.34465,0.2326 -0.77852,0.29232 -1.16789,0.43819c-2.06622,0.77406 -3.91494,1.65281 -5.89761,2.62098c-2.82137,1.37772 -6.20308,3.77775 -9.25289,4.48261c-2.13079,0.49246 -5.086,0.05052 -7.26256,-0.15458c-0.84888,-1.43024 -1.88305,-3.67602 -2.72156,-4.90363c-0.25417,-0.37212 -0.90385,0.21418 -1.25979,0.49057c-0.63437,0.4926 -1.03965,1.24674 -1.6915,1.71596c-1.80835,1.30173 -4.3227,2.25684 -6.32326,3.2776c-0.93708,0.47813 -1.79109,1.38506 -2.843,1.37039c-2.58146,-0.036 -2.76151,-2.67945 -2.95931,-4.37032c-0.53088,-4.53812 -0.0105,-9.45219 -0.0054,-14.02226c-10.30021,-1.21032 -20.62645,-2.20867 -31.0015,-2.79594c-11.13864,-0.63276 -22.42908,-0.13929 -33.58664,-0.13929c-2.75134,0 -7.7167,-0.93847 -10.30201,0.14095c-0.21495,0.08975 0.27461,0.39912 0.30129,0.63053c0.07379,0.63995 -0.00384,1.28838 -0.00576,1.93257c-0.2027,17.03813 -2.84386,34.43968 -5.91518,51.1971c-2.55069,13.91685 -4.98564,28.42915 -12.13739,40.68931c0,0 -0.62984,1.07972 -1.70956,0.44988c-1.07972,-0.62984 -0.44988,-1.70956 -0.44988,-1.70956c7.00067,-12.00115 9.34038,-26.25411 11.83781,-39.88032c3.04513,-16.61455 5.67444,-33.87124 5.87428,-50.76495c0.00153,-0.51704 -0.07138,-3.84486 0.30698,-4.17238c1.9466,-1.68499 7.41327,-1.01312 9.69943,-1.01312c12.03406,0 24.21393,-0.53439 36.22793,0.14328c17.11046,0.96851 34.08983,3.05201 51.03763,5.35912c9.49316,1.29306 19.04247,1.92045 28.61514,2.2697c3.28042,0.11968 6.80611,-0.11567 10.05315,0.3009c0.90143,0.11565 1.96181,0.04839 2.6497,0.64232c0.58509,0.50517 0.56037,1.45543 0.66671,2.22108c0.1764,1.27017 0.16406,2.63803 0.11495,4.00246c0.06603,-0.03262 0.13204,-0.06538 0.19802,-0.09828l0.55654,-0.64786c0,0 0.88388,-0.88389 1.76776,0c0.88389,0.88389 0,1.76777 0,1.76777l-1.20869,1.11736c-0.47167,0.2352 -0.94451,0.46331 -1.41862,0.68531c-0.00396,0.19884 -0.00633,0.39597 -0.00656,0.59104c-0.65078,4.98579 -0.97535,10.20807 -2.31426,15.0702c-3.30177,11.99001 -8.42458,23.62568 -12.11045,35.53248c-3.59085,11.10817 -6.88347,22.2635 -6.92897,33.97427l-0.06061,0.11349l0.04243,0.00849l-0.28398,1.41988c-0.10494,0.58424 -0.61583,1.02756 -1.23027,1.02756c-0.49901,0 -0.92971,-0.2924 -1.13014,-0.71521l-0.56493,-1.12984v0v-0.00001c0,0 -0.55902,-1.11804 0.55901,-1.67705l0.00001,-0.00001c0.06246,-0.03123 0.12318,-0.05723 0.18216,-0.07848c0.09717,-11.55793 3.48699,-22.7324 7.03175,-33.69726c3.67611,-11.87613 8.79064,-23.48364 12.08371,-35.44206c1.22897,-4.46285 1.55837,-9.24654 2.13605,-13.84285c-2.17449,0.92209 -4.37806,1.7554 -6.61854,2.59257c-1.84527,0.99836 -3.76504,2.35982 -5.72465,3.08346c-1.04709,0.38666 -2.24237,1.31185 -3.25104,0.8862c0,6.38803 0,12.77606 0,19.16409c0,4.837 -0.51292,9.95628 0.48021,14.69519c0.2446,1.18409 0.51296,2.36356 0.80638,3.53651l0.03732,1.18578c0,0 0,1.25 -1.25,1.25zM372.30089,83.02293c-0.0011,0.79479 -0.04996,1.59082 -0.00536,2.38436c0.04077,0.72545 -0.10459,2.37072 0.57114,2.10365c2.23886,-0.8849 5.66657,-2.76788 7.60338,-4.17813c1.51892,-1.10598 3.43772,-3.77511 5.87483,-2.20654c0.86345,0.55573 2.20519,3.75276 2.57412,4.80511c1.78407,-0.49953 3.63277,0.25045 5.38528,-0.15458c4.22868,-0.97732 8.41137,-4.4242 12.43946,-6.10852c0.58934,-0.24643 5.20555,-2.31695 5.97604,-1.69823c1.40629,1.12928 1.50377,6.22032 1.88474,7.93913c0.15897,0.71721 0.41591,1.41964 0.47623,2.15178c0.03771,0.45771 -0.59697,1.15917 -0.18647,1.36509c0.42235,0.21187 0.68438,-0.66046 1.08187,-0.91593c1.81126,-1.16412 3.84986,-2.0764 5.74932,-3.09482c2.62563,-0.98792 5.20433,-1.95958 7.74369,-3.07944c-0.00088,-0.84899 -0.00122,-1.6925 -0.00009,-2.59519c0.00126,-1.01414 0.96661,-2.5212 0.09575,-3.04091c-1.01638,-0.60655 -2.36743,0.05246 -3.55074,0.02572c-2.50387,-0.05658 -5.00894,-0.18263 -7.5118,-0.27394c-9.65504,-0.35225 -19.28655,-0.98672 -28.86141,-2.29092c-5.77505,-0.78709 -11.55369,-1.54768 -17.33996,-2.24641c0.00031,3.7029 0.00513,7.40583 -0.00002,11.10873z" fill="#120011" stroke-width="0.5"/><path d="M359.44746,134.22683c-1.25,0 -1.25,-1.25 -1.25,-1.25v-0.25867c0,-7.77 0.53972,-15.88942 -0.91266,-23.56841c-5.18372,-1.00507 -10.62973,-1.43485 -16.04058,-1.61471c0.05334,0.19861 0.05334,0.35126 0.05334,0.35126c0,9.15621 0.38772,18.40653 -0.00114,27.55334c-0.10521,2.47493 -0.36304,4.97009 -0.55255,7.45689c2.44292,0.11724 4.88273,0.24116 7.31519,0.39321c4.5831,0.24119 9.16793,0.45394 13.74942,0.72393c0.79081,0.0466 1.58614,0.04351 2.37242,0.1401c0.40085,0.04924 0.91205,0.60227 1.17493,0.29568c0.35524,-0.41431 -0.03247,-1.09137 -0.02478,-1.63708c0.00205,-0.14542 0.15731,-4.73631 0.18322,-4.86303c0.1393,-0.68102 1.53691,-4.00588 1.7496,-4.78138c1.57707,-5.75026 1.4598,-11.83391 2.85153,-17.62581c-0.00113,-0.86969 0.56022,-1.73682 0.36254,-2.58374c-0.22174,-0.95004 -1.76312,-0.84442 -2.68307,-1.16913c-2.19222,-0.77378 -4.59485,-1.23717 -6.84814,-1.81735c-0.34017,-0.08758 -0.68185,-0.1722 -1.02496,-0.25394c1.24216,7.53396 0.77569,15.41038 0.77569,23.00019v0.25867c0,0 0,1.25 -1.25,1.25zM338.75423,149.74675c-1.25,0 -1.25,-1.25 -1.25,-1.25c0,-1.09497 0.00741,-2.17291 0.03995,-3.24961c-8.01589,-0.37885 -16.0469,-0.78089 -23.9447,-1.95354c-0.01401,0.07577 -0.03487,0.14915 -0.06189,0.21947c-0.12183,0.35858 -0.42296,0.80171 -1.16721,0.80171c-0.74426,0 -1.04538,-0.44313 -1.16721,-0.80171c-0.05348,-0.13915 -0.08279,-0.2903 -0.08279,-0.44829c0,-0.00574 0.00004,-0.01148 0.00011,-0.0172l0.00113,-0.16788c-2.06095,-0.40996 -4.04136,-0.97978 -6.10933,-1.45027c-0.62482,-0.14216 -4.65462,-0.82279 -4.92503,-0.97943c-0.88102,-0.51037 -1.38128,-1.49625 -2.07192,-2.24437c1.97533,-8.62304 3.21618,-17.25344 5.78672,-25.76783c1.50043,-4.96985 4.16438,-9.81014 5.1637,-14.88502c0,0 0.24515,-1.22573 1.47087,-0.98058c1.22573,0.24515 0.98058,1.47087 0.98058,1.47087c-0.33351,1.64536 -0.77995,3.26679 -1.29426,4.87461c0.20205,0.04109 0.33903,0.10958 0.33903,0.10958l0.26317,0.18082c6.02035,1.20616 12.3693,1.70683 18.50846,1.70683c10.56186,0.02166 22.07507,-0.0062 32.33766,2.63628c2.79949,0.72083 9.93729,1.40704 11.24202,4.51496c0.4864,1.15863 -0.2129,2.50705 -0.21449,3.76363c-1.36266,5.92315 -1.31427,12.1302 -2.92396,17.99942c-0.43277,1.57793 -1.37726,2.99952 -1.70745,4.60205c-0.4359,2.11559 0.75923,6.22788 -0.99562,7.92575c-0.57975,0.56093 -4.54104,0.19751 -5.31009,0.15236c-4.58051,-0.26895 -9.16422,-0.48256 -13.74628,-0.72375c-2.43756,-0.15232 -4.88252,-0.27664 -7.33064,-0.3943c-0.04154,0.86531 -0.06574,1.72842 -0.06318,2.58812l-0.39063,1.07635c0,0 -0.43743,0.87486 -1.31229,0.68985c-0.0211,0.00075 -0.04256,0.00114 -0.06441,0.00114zM337.75081,141.83599l0.0179,-0.18492c0,0 0.07056,-0.72929 0.66199,-1.01714c0.14573,-1.76923 0.29237,-3.53867 0.368,-5.30097c0.39099,-9.11031 -0.00114,-18.32672 -0.00114,-27.44665c0,0 0,-0.1864 0.07198,-0.41523c-3.26272,-0.06873 -6.49664,-0.06345 -9.63592,-0.05616c-2.87907,0 -5.81043,-0.10964 -8.73494,-0.34677c0.19118,0.43524 0.05756,0.9029 0.05756,0.9029c-3.06583,10.71658 -3.72924,22.08757 -6.69891,32.83279c7.85469,1.16992 15.84203,1.57091 23.81509,1.9473c0.02295,-0.30407 0.04895,-0.60899 0.0784,-0.91513zM318.15243,107.28423c0,0 0.05703,-0.19959 0.20594,-0.41287c-2.74304,-0.28247 -5.46726,-0.68148 -8.12351,-1.21184l-0.8909,-0.39621c0,0 -0.00514,-0.00257 -0.01455,-0.00771c-1.97784,5.54486 -4.50923,10.9863 -5.70685,16.75679c-1.10142,5.30695 -0.88065,10.55493 -3.18221,15.58555c1.45162,1.1438 3.34966,0.98968 5.12077,1.39247c1.97448,0.44904 3.86362,0.99462 5.82565,1.3942c2.8351,-10.90107 3.67698,-22.2754 6.76567,-33.10038z" fill="#120011" stroke-width="0.5"/><path d="M256.94901,198.97484c0.15854,0.27423 0.22935,0.65241 -0.01172,1.13456c-0.55901,1.11803 -1.67705,0.55901 -1.67705,0.55901l-1.03018,-2.01982c0.2507,-0.41724 0.50141,-0.83448 0.75211,-1.25172c1.4977,-2.97706 3.74318,-5.17872 5.62384,-7.89834c3.28892,-4.7561 5.60619,-10.09393 8.15193,-15.25791c2.24219,-4.54824 4.46111,-8.90098 5.77075,-13.81212c0,0 0.32208,-1.2078 1.52988,-0.88572c1.20779,0.32208 0.88572,1.52987 0.88572,1.52987c-1.35298,5.07368 -3.62854,9.5765 -5.94401,14.27338c-2.60064,5.27534 -4.97823,10.71584 -8.33801,15.57442c-1.82946,2.64558 -4.04887,4.78088 -5.48858,7.67943c-0.07488,0.12498 -0.14978,0.24996 -0.22466,0.37494z" fill="#120011" stroke-width="0.5"/><path d="M403.04312,195.92907c0,-0.87704 0.61535,-1.13872 0.98256,-1.2168c0.60087,-3.45458 0.69398,-6.77432 1.09514,-10.30898c0.762,-6.71416 1.79368,-13.36629 1.03393,-20.15202c0,0 -0.13804,-1.24236 1.10432,-1.38039c1.24235,-0.13804 1.38039,1.10431 1.38039,1.10431c0.77024,6.98256 -0.25227,13.80745 -1.03539,20.7171c-0.44456,3.92246 -0.54257,7.6095 -1.30922,11.48191l-2.00172,1.00486c0,0 -1.25,0 -1.25,-1.25z" fill="#120011" stroke-width="0.5"/><path d="M361.11719,172.10896c0.69036,0 1.25,0.55964 1.25,1.25c0,0.69036 -0.55964,1.25 -1.25,1.25c-0.01424,0 -0.02842,-0.00024 -0.04255,-0.00071c-0.41424,0.04919 -0.77514,-0.13126 -0.77514,-0.13126l-0.70578,-0.67747c-0.2743,0.34826 -0.3826,0.99314 -0.8229,1.04479c-0.78956,0.09261 -1.6787,-0.72988 -2.36271,-0.32476c0,0 -1.16059,0.46424 -1.62483,-0.69636c-0.46424,-1.1606 0.69636,-1.62483 0.69636,-1.62483c0.61914,-0.20092 1.20801,-0.64724 1.8574,-0.60274c0.41283,0.02829 0.54318,0.85118 0.95319,0.79531c0.41532,-0.05659 0.48607,-0.68302 0.7291,-1.02453l2.03992,0.74388c0.0192,-0.00088 0.03851,-0.00132 0.05793,-0.00132z" fill="#120011" stroke-width="0.5"/><g fill="#120011" stroke-width="0.5"><path d="M286.75119,185.69035l-0.37478,-0.39255c-0.68394,-0.9138 -1.44262,-1.77037 -2.20588,-2.61904c-1.67337,-1.86416 -6.08881,-5.65983 -5.24318,-8.54604c0.56749,-1.93688 2.49527,-2.38389 3.58382,-3.80478c4.46087,-5.82274 10.83499,-9.83287 18.0702,-10.47742c0.70583,-0.34265 1.41541,-0.5891 2.11282,-0.6929c6.40967,-3.7833 12.77032,-6.16636 20.20832,-7.14674c0.86328,-0.11379 5.78762,-0.9332 6.48556,0.09588c0.63682,0.93896 0.29986,2.25127 0.36612,3.38388c0.25735,4.39917 -1.73389,8.28216 -3.56474,12.14635c-1.92832,3.69218 -3.72444,7.45066 -6.11765,10.86455l-1.89273,-0.7764c-0.38939,4.12887 -1.92577,8.23329 -4.1726,11.16343c-5.86575,7.64964 -17.39303,7.76728 -23.24081,0.53701c-0.78173,-1.16546 -1.65851,-2.35939 -2.3614,-3.63018c-0.84404,0.70398 -1.65307,-0.10504 -1.65307,-0.10504zM302.63766,162.25926c-0.36669,0 -0.73056,0.00955 -1.09154,0.02839c-0.4493,0.28327 -0.87482,0.58338 -1.23489,0.78859c-2.53704,1.44593 -4.61986,3.7154 -6.7603,5.69574c-3.09188,2.8606 -4.55456,9.1975 -3.90716,13.32595c0.33748,2.15211 1.96876,4.10462 3.13801,5.84937c4.68374,5.93365 14.45378,5.7657 19.1803,-0.49764c3.78774,-5.01933 5.74849,-14.81721 1.25364,-19.84491c-1.56308,-1.80166 -4.1451,-3.94744 -6.6754,-5.11596c-0.01574,0.01266 -0.03196,0.02527 -0.04867,0.0378c-1,0.75 -1.75,-0.25 -1.75,-0.25c-0.14342,-0.24631 -0.30521,-0.42516 -0.48094,-0.54849c-0.0192,-0.00357 -0.03838,-0.00705 -0.05753,-0.01045l-0.51181,0.01574c-0.35189,0.52587 -1.0537,0.52587 -1.0537,0.52587zM284.48169,171.86647c-0.7487,0.94963 -2.65073,1.80586 -3.14147,2.92052c-0.39054,0.88709 0.96909,1.68608 1.56381,2.45144c1.00164,1.28902 2.03485,2.55568 3.12627,3.76962c0.37313,0.4158 0.74482,0.83366 1.10847,1.25821c-0.9687,-6.3407 2.00631,-12.86677 6.56105,-17.0079c0.55631,-0.50579 1.20501,-1.12337 1.91769,-1.76995c-4.36247,1.57662 -8.13208,4.56823 -11.13582,8.37806zM318.51909,175.1852l0.82826,0.9236c0.09076,-3.00985 3.20598,-6.91021 4.60408,-9.58591c1.8721,-3.95319 3.82355,-8.18627 3.66889,-12.64837c-0.00634,-0.18297 -0.22893,0.33555 -0.40944,0.36611c-0.57236,0.09691 -1.16215,-0.03798 -1.74153,-0.00191c-1.4139,0.08802 -2.46891,0.28869 -3.82963,0.51082c-5.51502,0.90031 -10.29134,2.57929 -15.05171,5.09285c3.19578,1.23582 6.40686,3.73526 8.50841,6.11524c2.09713,2.43562 3.06866,5.70142 3.17074,9.12268c0.15394,0.0489 0.25195,0.1049 0.25195,0.1049z"/><path d="M311.35709,180.08956c-0.11058,0.01761 -0.18347,0.01761 -0.18347,0.01761c-1.7928,0 -2.97197,-0.11275 -4.70021,0.67873c-0.67509,0.30917 -1.33027,0.67754 -1.92175,1.12639c-0.85249,0.64693 -1.89687,1.21323 -2.35776,2.17907c-1.01866,2.13473 0.35615,4.54385 2.25279,5.52575c2.78009,1.43927 7.64836,-0.61485 8.69861,-3.27083c1.71416,-3.33401 1.1604,-4.7323 -1.78821,-6.25672zM310.88338,177.60696c0.18303,-0.15143 0.44178,-0.25847 0.80756,-0.25847c0.66663,0 0.97775,0.35552 1.12294,0.68736c3.89651,2.15762 4.72239,5.01755 2.59602,9.36944c-1.7806,3.83629 -7.85371,6.51172 -11.99462,4.48913c-3.80521,-1.85862 -5.47054,-7.0405 -2.29623,-10.16211c1.62739,-1.60038 2.18813,-2.26086 4.32072,-3.22275c2.012,-0.9075 3.43027,-0.90472 5.44361,-0.90261z"/><path d="M293.99382,190.60499c-0.88389,-0.88388 0,-1.76777 0,-1.76777l0.28318,-0.19246c0.42588,-0.84597 1.16913,-1.52974 1.48417,-2.42293c1.22758,-3.48046 -1.64431,-9.61568 -4.73852,-10.87171c0,0 -1.14893,-0.4924 -0.65654,-1.64133c0.4924,-1.14893 1.64134,-0.65654 1.64134,-0.65654c4.27364,1.90505 7.68978,9.1093 6.12543,13.96015c-0.32656,1.01262 -1.14695,1.79726 -1.61982,2.75039l-0.75148,0.8422c0,0 -0.88388,0.88388 -1.76776,0z"/><path d="M301.26917,181.76341c0.34735,0.0553 1.0665,0.28428 1.0665,1.23239c0,1.25 -1.25,1.25 -1.25,1.25l-1.00867,-0.25c-5.34309,-4.1078 -5.57858,-10.72356 -6.68781,-16.81365c0,0 -0.2236,-1.22984 1.00623,-1.45344c1.22983,-0.2236 1.45344,1.00623 1.45344,1.00623c0.9287,5.11651 0.9468,11.50998 5.4203,15.02846z"/><path d="M313.30152,189.20865c-0.78087,-0.97609 0.19521,-1.75696 0.19521,-1.75696l1.24054,-0.98998c0.29435,-0.07958 0.97915,0.05064 0.88306,-0.23874c-0.10593,-0.31899 -0.66763,-0.07852 -1.00145,-0.11777c0,0 -1.04007,-0.69338 -0.34669,-1.73344c0.69338,-1.04006 1.73344,-0.34669 1.73344,-0.34669c0.70085,0.65052 2.01419,0.99942 2.10253,1.95155c0.08934,0.96281 -1.13573,1.56528 -1.7036,2.34791l-1.3461,1.07933c0,0 -0.97609,0.78087 -1.75696,-0.19521z"/><path d="M289.27044,185.62414c-0.55901,1.11803 -1.67705,0.55902 -1.67705,0.55902l-0.70832,-0.3767c-2.52821,-2.31501 -1.36701,-3.52525 1.05811,-5.37981c0,0 1.01716,-0.72655 1.74371,0.29062c0.72655,1.01717 -0.29062,1.74372 -0.29062,1.74372c-1.19637,0.76798 -2.23523,0.90481 -1.01121,1.34548l0.32635,0.14063c0,0 1.11804,0.55901 0.55902,1.67705z"/><path d="M305.98679,205.43208c-1.22573,0.24515 -1.47087,-0.98058 -1.47087,-0.98058l-0.27686,-1.4153c0.05516,-2.06953 -1.05408,-3.26973 -1.47445,-5.25105c-0.21148,-0.28142 -0.46177,-0.43652 -0.80311,-0.35142c-0.23405,0.05836 -0.45553,0.14655 -0.66888,0.25427l0.1596,0.1596l-1.03466,1.03466c-0.2262,0.2262 -0.5387,0.36612 -0.88389,0.36612c-0.69036,0 -1.25,-0.55964 -1.25,-1.25v-1.29333h0.02999l-0.02684,-0.08862c0.15429,-1.0907 0.32281,-2.18027 0.53846,-3.26051c0,0 0.24515,-1.22573 1.47088,-0.98058c1.22573,0.24515 0.98058,1.47087 0.98058,1.47087c-0.0814,0.4062 -0.15627,0.81373 -0.22621,1.22213c0.91992,-0.19159 2.18536,0.13236 2.87631,0.65347c0.1091,0.08228 0.21135,0.17231 0.30781,0.26856c0.80523,0.15536 0.93378,1.05523 0.93378,1.05523c0.01648,0.1315 0.03616,0.25917 0.05861,0.38347c0.01215,0.02228 0.02426,0.04453 0.03632,0.06678c0.32633,-2.06916 1.54272,-3.63438 4.04367,-2.32989c0.33337,0.17389 -0.07848,1.11961 0.29623,1.0884c1.44464,-0.12032 1.61697,-2.53276 2.86302,-3.27358c0.37953,-0.22564 0.94319,0.37431 1.31724,0.13969c0.2786,-0.17476 0.03016,-0.65723 0.03216,-0.9861c0.01009,-1.66598 -0.01208,-3.3337 -0.01208,-4.99993v-0.51733c0,0 0,-1.25 1.25,-1.25c1.25,0 1.25,1.25 1.25,1.25v0.51733c0,2.31768 0.79603,6.1806 -1.01459,7.9819c-0.42351,0.42133 -1.26974,-0.15963 -1.78674,0.13968c-1.60864,0.93129 -2.52563,3.31823 -4.3796,3.45172c-0.69948,0.05036 -1.05586,-2.28381 -1.32333,-1.63554c-0.51644,1.25166 0.28725,2.34355 -1.59094,3.24779c0.27462,0.72402 0.49809,1.49089 0.5185,2.46986l0.24048,1.17135c0,0 0.24515,1.22572 -0.98058,1.47087z"/><path d="M316.96236,204.05721c-1.22573,0.24515 -1.47087,-0.98058 -1.47087,-0.98058l-0.24168,-1.21171c-0.4445,-2.67186 -1.18122,-5.21638 -1.18907,-7.94108c0,0 0,-1.25 1.25,-1.25c1.25,0 1.25,1.25 1.25,1.25c-0.00851,2.57526 0.73309,5.00275 1.15505,7.53008l0.22715,1.13242c0,0 0.24514,1.22572 -0.98058,1.47087z"/><path d="M313.05968,231.82641c0.2898,0.02907 1.15696,0.20304 1.15696,1.24417c0,1.25 -1.25,1.25 -1.25,1.25l-1.39794,-0.41379c-1.82046,-2.02274 -6.92303,-5.87858 -6.64855,-8.86615c0.55725,-6.06541 6.72895,-10.66987 7.51229,-16.52565c0,0 0.17678,-1.23743 1.41421,-1.06066c1.23744,0.17677 1.06066,1.41421 1.06066,1.41421c-0.88698,5.90644 -6.17101,10.4175 -7.49005,16.29198c-0.21845,0.97289 1.1301,1.65003 1.79608,2.39213c1.28008,1.4264 2.5639,2.84946 3.84633,4.27375z"/><path d="M305.24091,214.65448c-1.04007,-0.69338 -0.34669,-1.73343 -0.34669,-1.73343l0.34037,-0.4538c0.40296,-1.0476 0.62722,-2.15827 0.82829,-3.26422c-0.37165,-1.48661 -1.00356,-4.01426 -1.34128,-5.36514c0,0 -0.30317,-1.21268 0.90951,-1.51585c1.21268,-0.30317 1.51585,0.90951 1.51585,0.90951c0.35838,1.43355 0.71678,2.8671 1.07517,4.30065l0.28688,1.14754c0.0552,0.15887 0.07355,0.31533 0.07689,0.4403c0.00486,0.12639 -0.00352,0.28596 -0.04967,0.45011c-0.23803,1.28099 -0.50653,2.56635 -0.96461,3.78497l-0.59728,0.95268c0,0 -0.69337,1.04006 -1.73343,0.34669z"/><path d="M318.58266,208.79419c-1.04007,0.69338 -1.73343,-0.34669 -1.73343,-0.34669l-0.66176,-1.19111c-0.26701,-1.61678 -0.70761,-3.00858 -0.72024,-4.65932c0,0 0,-1.25 1.25,-1.25c1.25,0 1.25,1.25 1.25,1.25c-0.0146,1.49006 0.43953,2.78023 0.68622,4.24832l0.27589,0.21536c0,0 0.69338,1.04006 -0.34669,1.73344z"/><path d="M306.34076,214.83324c-0.75,-1 0.25,-1.75 0.25,-1.75l0.80376,-0.58712c1.50653,-1.50241 3.11849,-2.8794 4.84557,-4.11828c0,0 0.2109,-0.15064 0.50922,-0.2187c0.29174,-0.71737 1.15498,-0.71737 1.15498,-0.71737c0.93764,0 1.8753,0 2.81294,0h0.93764c0,0 0.07379,0 0.1855,0.01792c0.85435,-0.24578 1.35519,0.58895 1.35519,0.58895c1.50885,2.53035 1.57088,4.76441 1.09877,7.64656l-0.25473,1.03531c0,0 -0.30317,1.21268 -1.51585,0.90951c-1.21268,-0.30317 -0.90951,-1.51585 -0.90951,-1.51585l0.2141,-0.83998c0.34983,-2.05813 0.41345,-3.61091 -0.44282,-5.34243c-0.92118,0 -2.39493,0 -3.2854,0c-0.16362,0.2966 -0.40695,0.4704 -0.40695,0.4704c-1.61579,1.14871 -3.12923,2.44577 -4.53089,3.85171l-1.07153,0.81935c0,0 -1,0.75 -1.75,-0.25z"/><path d="M302.66632,229.71528c-0.39529,1.18586 -1.58114,0.79057 -1.58114,0.79057l-1.37982,-0.77715c-1.19721,-2.20378 -0.50184,-2.91119 -0.16877,-5.24967c0.60919,-4.27704 2.12302,-8.56751 2.57524,-12.86308c0.48395,-4.59701 -0.40766,-9.28486 0.24089,-13.88389c0,0 0.17678,-1.23744 1.41422,-1.06066c1.23744,0.17677 1.06066,1.41422 1.06066,1.41422c-0.66,4.55477 0.25531,9.21677 -0.22793,13.77668c-0.02267,0.21398 -0.04971,0.42813 -0.08055,0.6424c0.11241,-0.36491 0.40728,-0.84351 1.18075,-0.84351c1.25,0 1.25,1.25 1.25,1.25c0,5.77149 -1.19251,11.215 -1.40735,16.92479l0.00089,0.42167c0,0 0,1.25 -1.25,1.25c-1.25,0 -1.25,-1.25 -1.25,-1.25l0.00088,-0.51598c0.21479,-5.67285 1.4003,-11.06483 1.40557,-16.7922c-0.3585,2.14455 -1.0598,4.29594 -1.55392,6.38584c-0.49235,2.08239 -2.30441,7.35518 -1.04685,9.10716l0.02666,-0.30832c0,0 1.18585,0.39528 0.79057,1.58114z"/><path d="M315.93604,193.45502c0,-1.25 1.25,-1.25 1.25,-1.25l0.49774,0.017c4.87036,-0.81172 8.99705,-3.86998 13.60907,-5.5678c4.19985,-1.54609 8.7886,-2.2221 12.98863,-3.80016c2.85445,-1.0725 5.4798,-2.96314 8.26698,-4.21582c2.0804,0.31994 1.12786,-1.45831 1.12786,-3.31145c0,-4.10224 0.25551,-8.53268 -0.67106,-12.53235c-0.26288,-1.13476 -0.53969,-4.73099 -1.88302,-5.24082c-2.01708,-0.76553 -5.60892,1.03156 -7.42383,2.09127c-0.20655,0.71979 -0.9439,0.81987 -1.14495,0.83379c-8.4533,8.44212 -17.11095,16.71764 -24.62939,26.02618c0,0 -0.78542,0.97242 -1.75785,0.187c-0.97242,-0.78542 -0.187,-1.75785 -0.187,-1.75785c7.68172,-9.51071 16.54003,-17.95643 25.17059,-26.58698l0.44043,-0.1192c0.18567,-0.34686 0.50358,-0.5376 0.50358,-0.5376c2.38435,-1.4218 7.1882,-3.75699 10.07308,-2.40789c2.07653,0.97107 2.23247,3.0358 2.72922,4.87609c0.98758,3.65864 1.17232,7.21628 1.27974,10.9928c0.05838,2.05226 1.01945,8.31161 -1.01756,9.743c-0.56778,0.39898 -1.38234,0.12387 -2.07351,0.18581c-2.6479,1.26382 -5.17655,3.08642 -7.92575,4.11495c-4.21554,1.57712 -8.80077,2.26793 -13.01275,3.80906c-4.78643,1.75132 -8.97881,4.83851 -14.0515,5.68396l-0.90873,0.01701c0,0 -1.25,0 -1.25,-1.25z"/><path d="M317.15009,200.15693c0.55901,1.11803 -0.55901,1.67705 -0.55901,1.67705l-1.27673,0.63837c-4.62488,2.23218 -7.5054,0.03573 -7.55431,-4.78863c0,0 0,-1.25 1.25,-1.25c1.25,0 1.25,1.25 1.25,1.25c-0.03902,2.98074 0.99397,4.09666 3.93628,2.55256l1.27673,-0.63836c0,0 1.11804,-0.55901 1.67705,0.55902z"/><path d="M320.66021,184.41088c-1.25,0 -1.25,-1.25 -1.25,-1.25v-0.31918c0.1098,-2.64614 -2.17879,-1.53552 -4.19766,-1.31111c0,0 -1.24236,0.13804 -1.3804,-1.10431c-0.13804,-1.24236 1.10432,-1.3804 1.10432,-1.3804c3.61338,-0.40133 6.85633,-0.87606 6.97374,3.79582v0.31918c0,0 0,1.25 -1.25,1.25z"/><path d="M304.19556,199.75839c0,1.25 -1.25,1.25 -1.25,1.25l-1.339,-0.00155c-2.79134,-0.28575 -10.05285,-3.46032 -7.20315,-7.52558c0.53823,-0.76782 1.47097,-1.16326 2.20646,-1.74489c0,0 1,-0.75 1.75,0.25c0.75,1 -0.25,1.75 -0.25,1.75c-0.54125,0.37592 -1.12984,0.6915 -1.62374,1.12776c-0.68025,0.60086 0.91152,1.59936 1.56813,2.22595c1.23084,1.17458 2.01367,1.25849 3.67685,1.41986l1.21446,-0.00155c0,0 1.25,0 1.25,1.25z"/></g><path d="M323.76069,238.25505c-1.16825,0.4446 -1.61286,-0.72365 -1.61286,-0.72365l-0.13666,-0.46581c-2.23757,-3.21481 -3.35552,-6.88551 -5.07962,-10.38028c-0.10034,-0.15561 -0.15561,-0.32133 -0.18605,-0.45669c-0.03359,-0.1358 -0.0584,-0.31051 -0.03733,-0.49627c0,-3.03939 0,-6.86057 0,-9.86286c0,0 0,-1.25 1.25,-1.25c1.25,0 1.25,1.25 1.25,1.25c0,3.07187 0,6.14373 0,9.2156v0.56551c1.63588,3.35088 2.69619,6.92236 4.85108,9.98135l0.42509,1.01026c0,0 0.4446,1.16826 -0.72366,1.61286z" fill="#120011" stroke-width="0.5"/><path d="M322.4322,241.13219c0.88389,-0.88388 1.76777,0 1.76777,0l0.78672,1.17104c0.06645,0.59327 0.1329,1.18654 0.19934,1.77981c0.20958,0.78602 1.05907,3.42595 0.82772,4.42586c-0.96258,4.1603 -7.19973,6.95517 -10.90181,8.26839c-2.1707,0.77001 -6.03305,2.15877 -7.496,-0.7178c-0.72492,-1.42541 0.06621,-4.40832 0.43329,-5.79413c0.77553,-2.92775 1.97866,-5.61799 3.23767,-8.35066l-0.30113,-0.3606c-1.61235,-4.83745 -3.9789,-9.5196 -4.76457,-14.56441c0,0 -0.19007,-1.23547 1.0454,-1.42553c1.23546,-0.19007 1.42553,1.0454 1.42553,1.0454c0.7234,4.76601 2.98452,9.23462 4.54589,13.80025c0.03292,0.01279 0.06637,0.027 0.10038,0.0427c0.63986,0.29532 0.75248,0.78488 0.72898,1.1558c0.06518,0.31114 0.01418,0.69424 -0.36892,1.07735c-0.01233,0.01233 -0.02466,0.02431 -0.03698,0.03596c-1.70756,3.55173 -4.45729,8.32075 -3.79228,12.25492c0.12527,0.74107 1.51054,0.30531 2.24877,0.16424c0.56802,-0.10854 3.87378,-1.33704 4.35385,-1.57185c2.11186,-1.03295 6.56236,-2.97769 7.07287,-5.45219c0.24656,-1.19509 -0.50062,-2.38983 -0.81508,-3.56887c-0.07563,-0.65389 -0.15125,-1.30778 -0.22687,-1.96167l-0.07055,0.31377c0,0 -0.88389,-0.88389 0,-1.76777z" fill="#120011" stroke-width="0.5"/><path d="M302.77762,240.73018c0,-0.41667 0.13889,-0.69446 0.32408,-0.87965c0.41782,-3.16812 0.53318,-6.12656 0.53318,-9.40754c0,0 0,-1.25 1.25,-1.25c1.25,0 1.25,1.25 1.25,1.25c0,3.63108 -0.15547,6.91218 -0.65551,10.46396l-1.45175,1.07323c0,0 -1.25,0 -1.25,-1.25z" fill="#120011" stroke-width="0.5"/><path d="M306.928,250.40776c0.39529,1.18586 -0.79057,1.58114 -0.79057,1.58114l-0.64295,0.21431c-0.49365,0.15888 -0.96761,0.40308 -1.48095,0.47664c-0.61829,0.08859 -1.26338,0.13633 -1.87382,0.00406c-5.48111,-1.18764 -0.7446,-7.57157 0.03228,-10.75669c0,0 0.30317,-1.21267 1.51585,-0.9095c1.21268,0.30317 0.90951,1.51585 0.90951,1.51585c-0.53341,2.08951 -1.61905,3.59754 -2.1512,5.60272c-0.18991,0.71561 -1.21651,1.66963 -0.63534,2.12833c0.50214,0.39631 2.4057,-0.26304 2.89311,-0.43311l0.64294,-0.21431c0,0 1.18586,-0.39529 1.58114,0.79057z" fill="#120011" stroke-width="0.5"/><path d="M303.81359,233.01496c-0.64312,1.07187 -1.71499,0.42875 -1.71499,0.42875l-1.52116,-1.10776c-1.15526,-2.15944 -1.22889,-2.81596 -1.22889,-5.1077c0,0 0,-1.25 1.25,-1.25c1.25,0 1.25,1.25 1.25,1.25c0,1.91848 -0.1282,2.10704 0.91428,3.89359l0.62201,0.17813c0,0 1.07187,0.64312 0.42874,1.71498z" fill="#120011" stroke-width="0.5"/><path d="M304.21094,187.17333c-0.61827,0.54516 -1.21064,1.11464 -0.70839,1.43131c1.63255,1.02933 4.78133,-1.02814 1.9367,-1.13429l-0.35492,0.02427c0,0 -0.50533,0.00001 -0.8734,-0.32129zM305.12347,184.99575l0.80607,0.02315c0.68479,0.18825 1.53672,0.07854 2.05437,0.56477c5.71619,5.36913 -8.66978,8.74626 -6.68057,1.63284c0.2625,-0.93872 1.16533,-1.56281 1.74799,-2.34421c0,0 0.77228,-0.9829 1.75518,-0.21062c0.13786,0.10832 0.24118,0.22077 0.31696,0.33408z" fill="#120011" stroke-width="0.5"/><path d="M294.38714,185.54266c-0.43037,0.06246 -0.86841,0.09073 -1.28584,0.2108c-2.43206,0.69951 0.53874,2.90528 1.14337,1.22709c0.14654,-0.40673 0.09532,-0.85938 0.14298,-1.28907zM295.08273,183.29697c0.14938,-0.06381 0.33066,-0.10253 0.55066,-0.10253c1.25,0 1.25,1.25 1.25,1.25l-0.00426,1.45324c-0.46411,2.34685 -3.46545,6.3676 -6.3394,3.32159c-2.90947,-3.08366 1.02303,-5.66595 3.51991,-6.15467c0,0 0.58649,-0.10663 1.02309,0.23238z" fill="#120011" stroke-width="0.5"/></g></g></svg>