<svg version="1.1" xmlns="http://www.w3.org/2000/svg" xmlns:xlink="http://www.w3.org/1999/xlink" width="282.29907" height="203.49339" viewBox="0,0,282.29907,203.49339"><defs><linearGradient x1="301.50547" y1="211.3197" x2="340.97309" y2="229.00296" gradientUnits="userSpaceOnUse" id="color-1"><stop offset="0" stop-color="#3e0e6c" stop-opacity="0"/><stop offset="1" stop-color="#3e0e6c"/></linearGradient><linearGradient x1="312.16015" y1="215.15634" x2="342.94132" y2="215.15634" gradientUnits="userSpaceOnUse" id="color-2"><stop offset="0" stop-color="#3e0e6c" stop-opacity="0"/><stop offset="1" stop-color="#3e0e6c"/></linearGradient><linearGradient x1="326.77474" y1="218.77766" x2="326.77474" y2="228.8656" gradientUnits="userSpaceOnUse" id="color-3"><stop offset="0" stop-color="#3e0e6c" stop-opacity="0"/><stop offset="1" stop-color="#3e0e6c"/></linearGradient></defs><g transform="translate(-102.55869,-76.41466)"><g data-paper-data="{&quot;isPaintingLayer&quot;:true}" fill-rule="nonzero" stroke-linejoin="miter" stroke-miterlimit="10" stroke-dasharray="" stroke-dashoffset="0" style="mix-blend-mode: normal"><path d="M133.94673,144.09918c0.6896,-1.10497 68.89537,36.15421 75.43841,45.21566c2.70626,3.74789 -40.13556,-16.61664 -56.49583,-12.25451c-0.76056,0.20279 -10.38397,16.12383 -19.92118,32.74472c-1.93622,3.37433 -8.66752,1.88683 -10.02542,5.69902c-0.48311,1.3563 7.96695,10.48523 7.51611,11.83061c-0.3868,1.15423 -4.0074,-0.82453 -4.34984,0.33011c-0.20146,0.6793 0.35274,6.95753 6.37953,10.47896c6.15599,3.59692 17.78918,4.43176 17.75511,4.48635c-1.29561,2.07598 -26.25644,12.63528 -36.39037,-2.9382c-9.66048,-14.84591 -8.63861,-40.88971 -8.84408,-41.17426c-7.77336,-10.76533 24.58057,-47.43715 28.93757,-54.41847z" data-paper-data="{&quot;index&quot;:null}" fill="#ffffff" stroke="#3e0e6c" stroke-width="2.5" stroke-linecap="butt"/><path d="M344.251,85.78982c0,0.38604 22.50815,15.73644 23.71074,34.80939c1.26152,20.00769 -35.72956,38.52144 -38.90203,38.52144c-0.08342,0 12.43828,-12.24875 16.47819,-20.71492c3.95512,-8.28848 -0.56201,-12.79568 -1.34754,-13.01989c-1.33519,-0.38111 -3.82332,4.5122 -5.20854,4.17605c-1.61462,-0.39182 0.49494,-14.64925 -1.16525,-15.01542c-4.66636,-1.02921 -11.08845,6.69002 -16.05239,6.51902c-24.45082,-0.84229 -48.42584,-1.15755 -49.45545,-0.51861c-15.30646,9.49851 -36.85844,40.98365 -49.55547,55.32186c-5.67511,6.40866 -10.67292,6.11663 -10.67292,4.54603c0,-12.29313 53.02522,-99.68872 54.7138,-99.68872c10.66866,0 77.45686,-9.54091 77.45686,5.06377z" fill="#ffffff" stroke="#3e0e6c" stroke-width="2.5" stroke-linecap="butt"/><path d="M268.94333,201.53139c-0.02458,0.17816 1.91057,-1.78715 2.21412,-0.50494c0.94869,4.00733 1.13817,14.43916 0.08882,13.94454c-1.60846,-0.75817 -5.22917,-4.83282 -5.22917,-4.57668c0,4.17958 -54.71923,-28.4901 -54.71923,-29.35421c0,0 13.36817,-6.90995 25.27361,-2.93968c16.29934,5.43556 32.52405,22.32786 32.37187,23.43098z" fill="#ffffff" stroke="#3e0e6c" stroke-width="2.5" stroke-linecap="butt"/><path d="M280.35616,261.44007v-90.56806h104.5016l-1.34544,109.03604z" fill="#3e0e6c" stroke="#3e0e6c" stroke-width="0" stroke-linecap="butt"/><path d="M222.08858,229.34126c0,-10.0874 18.47227,-18.26484 41.25897,-18.26484c6.42903,0 12.30818,21.20718 23.23035,22.57342c5.37157,0.67192 11.4917,-31.23506 17.12776,-32.46526c6.77533,-1.47887 17.70607,13.1827 25.8275,17.12723c11.17458,5.42743 18.45235,-8.73169 18.45235,-8.21386c0,3.56864 -6.48338,21.76743 -17.5892,20.36346c-6.62636,-0.83769 -14.23102,-13.15232 -18.56232,-10.00537c-8.92913,6.48754 -7.75971,35.38567 -17.6753,35.38567c-22.7867,0 -72.07011,-16.41305 -72.07011,-26.50045z" fill="#ffffff" stroke="#3e0e6c" stroke-width="2.5" stroke-linecap="butt"/><path d="M238.89659,232.85351c-8.41969,1.50406 -19.21776,-1.44475 -19.49491,-2.55002c-0.88741,-3.53904 -1.71887,-12.82437 -4.0019,-22.46843c-3.60505,-15.22854 -8.88112,-31.83864 -8.88112,-31.83864c6.88701,1.98401 49.54368,29.9334 58.64808,36.11729c0.39564,0.26872 -0.4301,3.99658 -4.11926,7.24668c-6.71299,5.91407 -18.90631,12.9135 -22.15089,13.4931z" fill="#ffffff" stroke="#3e0e6c" stroke-width="2.5" stroke-linecap="butt"/><path d="M223.23255,185.1853c0,0 0.23886,4.13025 -0.85697,6.17247c-1.68279,3.13611 -8.2576,10.81378 -8.2576,10.81378" fill="none" stroke="#3e0e6c" stroke-width="2.5" stroke-linecap="round"/><path d="M237.68002,196.16081c0,0 -1.57997,4.60706 -3.26255,6.8505c-3.381,4.508 -15.77957,18.79766 -15.77957,18.79766" fill="none" stroke="#3e0e6c" stroke-width="2.5" stroke-linecap="round"/><path d="M256.98081,208.53718c0,0 -1.22585,2.57986 -3.01873,4.19542c-1.16074,1.04594 -2.41155,5.2576 -4.99856,7.43541c-7.13448,6.00599 -18.23776,12.02757 -18.23776,12.02757" fill="none" stroke="#3e0e6c" stroke-width="2.5" stroke-linecap="round"/><g fill="#ffffff" stroke="#3e0e6c" stroke-width="2.5" stroke-linecap="butt"><path d="M210.42927,188.18604c-2.41589,-3.8602 0.91418,-17.26337 1.81897,-17.69863c0.57506,-0.27664 2.28979,-0.97246 3.77901,0.79936c0.85387,1.0159 1.35321,3.99532 2.2336,5.40206c0.91598,1.46359 1.97282,0.49568 3.29168,1.94422c2.15961,2.37198 4.46802,6.90271 3.90628,7.17294c-0.90479,0.43526 -12.61366,6.24025 -15.02955,2.38004z"/><path d="M207.24454,191.59206c2.92191,3.20375 0.35959,11.61719 0.17067,12.2712c-0.11729,0.40604 -3.4838,-2.89959 -5.35983,-5.45045c-1.14567,-1.55778 -0.61153,-2.18835 -1.71937,-3.40304c-1.06481,-1.16751 -3.15701,-2.46277 -3.95202,-3.49399c-1.38655,-1.79852 -1.11658,-3.07542 -0.99651,-3.4911c0.18892,-0.65401 8.93514,0.36363 11.85705,3.56738z" data-paper-data="{&quot;index&quot;:null}"/><path d="M206.94612,191.08817c-1.20794,-1.9301 -0.8882,-4.11963 0.71415,-4.89046c1.60235,-0.77083 3.88055,0.16895 5.08849,2.09905c1.20794,1.9301 0.8882,4.11964 -0.71415,4.89047c-1.60235,0.77083 -3.88055,-0.16896 -5.08849,-2.09906z"/></g><path d="M140.84061,181.41758c-12.18096,-20.21032 -5.67187,-46.46862 14.53845,-58.64957c0.65188,-0.39289 16.97452,-5.75786 16.97452,-5.75786c0,0 16.90821,1.4896 17.28054,1.51288c1.45824,0.09118 21.58044,15.90763 22.06652,16.7141c0.11697,0.19407 4.76466,21.38033 4.76466,21.38033c0,0 -0.60588,16.34825 -0.81614,16.6622c-0.20796,0.31052 -13.20035,20.89318 -16.15898,22.67637c-20.21032,12.18096 -46.46861,5.67186 -58.64956,-14.53845z" fill="#ffffff" stroke="#3e0e6c" stroke-width="2.5" stroke-linecap="butt"/><path d="M214.97632,178.85976c-6.24185,13.34396 -26.98591,23.56063 -37.10793,23.03973c-3.56645,-0.18354 -8.12053,0.22092 -12.77973,-0.77568c-2.26382,-0.48423 -5.97041,-4.11664 -11.05427,-8.21214c-6.48116,-5.22114 -14.28563,-11.19492 -14.28563,-12.35798c0,-0.00514 2.39308,0.78265 5.73436,0.487c3.01189,-0.2665 6.72565,-1.51624 11.35081,-3.22185c7.53213,-2.77759 16.85723,-9.34522 23.21605,-14.02969c6.74599,-4.96969 18.36188,-7.37584 20.32871,-17.08232c1.77631,-8.76626 0.80318,-18.93272 5.70047,-9.10228c2.34059,4.69832 2.78905,11.99491 4.37528,19.1633c2.31563,10.46462 5.19355,20.656 4.52188,22.09192z" fill="#3e0e6c" stroke="#3e0e6c" stroke-width="0" stroke-linecap="butt"/><path d="M186.93691,163.43344c-0.07392,-0.68639 0.42258,-1.30274 1.10897,-1.37665c0.68639,-0.07392 1.30274,0.42258 1.37665,1.10897c0.04173,0.38746 -0.09831,0.7526 -0.35166,1.01046c0.06357,0.1284 0.10597,0.27 0.1222,0.42076c0.07176,0.6664 -0.39415,1.26678 -1.0495,1.36883l0.6273,0.60745c0,0 0.85276,0.91395 -0.06118,1.76671c-0.34359,0.32059 -0.67853,0.39148 -0.96277,0.35512c-0.1464,0.18821 -0.34617,0.33462 -0.57965,0.41478c0.02502,0.04883 0.05011,0.10378 0.07267,0.16374c0.34616,0.18991 0.597,0.54035 0.64249,0.96268c0.05285,0.49076 -0.18591,0.94572 -0.57718,1.19221l0.43707,0.30614c0,0 1.02345,0.71767 0.30578,1.74112c-0.71767,1.02345 -1.74112,0.30578 -1.74112,0.30578l-1.14014,-0.80034c-0.02579,-0.02076 -0.05157,-0.0415 -0.07736,-0.06225l0.2397,0.91679c0,0 0.13385,1.24281 -1.10897,1.37666c-0.24294,0.02616 -0.44351,-0.00027 -0.60898,-0.05975c-0.14814,0.14896 -0.35884,0.26927 -0.65797,0.32063c0.14752,0.25526 0.50856,1.05569 -0.33146,1.66358c-0.56512,0.40895 -1.04309,0.27432 -1.35519,0.07545c-0.18993,0.23033 -0.45118,0.34734 -0.63836,0.40513c0.09224,0.29977 0.07667,0.67955 -0.25685,1.09357c-0.08349,0.10364 -0.16912,0.18735 -0.25549,0.25422c0.03736,0.13475 0.06226,0.29536 0.04688,0.46531c0.11572,0.3572 0.13304,0.87523 -0.43813,1.32011c-0.98615,0.76812 -1.75427,-0.21803 -1.75427,-0.21803l-0.24063,-0.32892c-0.20504,-0.19833 -0.41008,-0.39667 -0.61512,-0.595c-0.00825,0.24424 -0.0797,0.71657 -0.48224,0.99995c0.14598,0.19719 0.29725,0.39031 0.455,0.57826l0.29323,0.35148c0,0 0.80076,0.95984 -0.15908,1.7606c-0.95985,0.80076 -1.7606,-0.15909 -1.7606,-0.15909l-0.04075,-0.04885c-0.5366,0.07666 -0.98922,-0.28794 -0.98922,-0.28794l-0.36193,-0.3444c-0.04766,-0.06468 -0.09542,-0.12929 -0.14328,-0.19383c-0.0004,0.00056 -0.0008,0.00114 -0.0012,0.0017c0.14808,0.3183 0.19934,0.76085 -0.19589,1.25148c-0.67041,0.83223 -1.47917,0.3798 -1.69971,0.23103c0.04182,0.10414 0.07021,0.21568 0.08282,0.33275c0.07392,0.68639 -0.42258,1.30274 -1.10897,1.37666c-0.2294,0.02471 -0.45097,-0.01431 -0.64708,-0.10282c-0.46151,-0.06624 -0.71215,-0.36057 -0.84655,-0.62885c-0.13431,-0.1068 -0.26913,-0.21297 -0.40453,-0.31841c0.03647,0.26692 -0.02438,0.58119 -0.2958,0.91813c-0.58832,0.73033 -1.28319,0.47133 -1.59357,0.29641c-0.05974,0.17756 -0.17421,0.36174 -0.36864,0.54315c-0.91395,0.85277 -1.76671,-0.06118 -1.76671,-0.06118l-0.15831,-0.24296c-0.17939,-0.10662 -0.35879,-0.21323 -0.53818,-0.31985c-0.15168,0.09191 -0.32541,0.15284 -0.51339,0.17309c-0.05485,0.00591 -0.10924,0.00816 -0.16295,0.00698c-0.04687,0.09823 -0.11024,0.19929 -0.19337,0.30248c-0.78416,0.97344 -1.75761,0.18928 -1.75761,0.18928l-0.98007,-0.7895c0,0 -0.45034,-0.36277 -0.49167,-0.90114c-0.17247,0.12761 -0.3801,0.21248 -0.60882,0.23711c-0.68639,0.07392 -1.30274,-0.42258 -1.37666,-1.10897c-0.07392,-0.68639 0.42258,-1.30274 1.10897,-1.37666c0.67104,-0.07226 1.27514,0.40067 1.37089,1.06322c0.17728,-0.13824 0.39403,-0.23038 0.63398,-0.25621c0.51325,-0.05527 0.98734,0.20839 1.22477,0.63191l0.06651,0.05358c0.1973,-0.28853 0.51376,-0.49299 0.88743,-0.53649c0.50539,-0.5426 1.15698,-0.33268 1.40876,-0.22036c0.03443,-0.08142 0.07912,-0.16552 0.13565,-0.25209c0.6834,-1.04664 1.73004,-0.36323 1.73004,-0.36323c0.03682,0.02404 0.07365,0.04808 0.11047,0.07212c-0.06991,-0.27339 -0.04175,-0.60884 0.22255,-0.98575c0.71767,-1.02345 1.74111,-0.30578 1.74111,-0.30578c0.15496,0.10878 0.30909,0.21876 0.46243,0.32983c-0.18616,-0.32187 -0.30344,-0.81097 0.13913,-1.36036c0.45831,-0.56895 0.98129,-0.53749 1.33678,-0.41311c0.07721,-0.28403 0.27747,-0.57446 0.72646,-0.76362c0.11205,-0.04721 0.2178,-0.07892 0.31741,-0.09772c0.06265,-0.19583 0.19172,-0.39808 0.42308,-0.59108c0.23148,-0.19312 0.45372,-0.28384 0.6577,-0.31031c0.0908,-0.10131 0.20866,-0.19793 0.35995,-0.28567c0.34489,-0.2 0.64356,-0.2262 0.89042,-0.16914c0.39837,-0.30938 0.77831,-0.30049 1.07279,-0.20033c0.01679,-0.06153 0.03835,-0.12526 0.06521,-0.19121c0.24954,-0.61287 0.69141,-0.76921 1.05206,-0.78061c0.04893,-0.01601 0.09731,-0.02789 0.14495,-0.03618c-0.12236,-0.36159 -0.18929,-0.97954 0.51223,-1.43011c0.34967,-0.22458 0.65775,-0.25825 0.91324,-0.20312c0.28987,-0.23777 0.61633,-0.26417 0.87705,-0.22756c-0.01462,-0.24884 0.05892,-0.53418 0.30363,-0.83795c0.17678,-0.21946 0.36318,-0.34958 0.54589,-0.4195c-0.14093,-0.17841 -0.23491,-0.39741 -0.26105,-0.64015c-0.07392,-0.68639 0.42258,-1.30274 1.10897,-1.37665c0.07618,-0.00821 0.15148,-0.00939 0.22528,-0.00406c0.65995,-0.938 1.66267,-0.31802 1.66267,-0.31802c0.01196,0.0074 0.02393,0.01479 0.03589,0.02219c0.40581,-0.18938 0.76194,-0.09888 1.0195,0.0425c0.03012,-0.19208 0.11759,-0.40028 0.29292,-0.61794c0.26828,-0.33304 0.55872,-0.46035 0.82475,-0.48373l-0.08311,-0.12283c-0.12964,-0.41225 -0.25928,-0.8245 -0.38892,-1.23675c0,0 -0.37498,-1.19244 0.81745,-1.56742c0.06374,-0.02005 0.12514,-0.03561 0.18427,-0.04712c-0.15141,-0.2883 -0.20974,-0.68265 0.07678,-1.16475c0.46955,-0.79009 1.17479,-0.654 1.51527,-0.52658c-0.03142,-0.08934 -0.05311,-0.18369 -0.06369,-0.28192c-0.04173,-0.38746 0.09831,-0.7526 0.35167,-1.01046c-0.06357,-0.1284 -0.10597,-0.27 -0.1222,-0.42076z" fill="#ffffff" stroke="#3e0e6c" stroke-width="0.5" stroke-linecap="butt"/><path d="M196.79458,178.96521c0.02848,0.11766 0.0393,0.23545 0.03415,0.3506l0.11542,0.2672c0.09972,0.41187 0.19943,0.82373 0.29915,1.2356c0,0 0.03189,0.13172 0.0313,0.31891l0.23019,0.50841c0.27278,0.31737 0.54558,0.63474 0.81837,0.95212c0,0 0.44891,0.53168 0.28015,1.1366c0.16792,0.69359 0.43105,1.78041 0.57404,2.37101c0,0 0.00437,0.01807 0.00985,0.05032c0.00737,0.02405 0.01406,0.04847 0.02006,0.07324c0.11927,0.49265 -0.07126,0.98781 -0.44655,1.2805l0.0639,0.43557c0.01548,0.37312 0.03095,0.74624 0.04642,1.11936c0.18006,0.53967 -0.14196,1.06742 -0.14196,1.06742l-0.4364,0.52116c-0.37198,0.26446 -0.74396,0.52892 -1.11594,0.79339c0,0 -0.05367,0.03815 -0.14513,0.08463l-0.1039,0.34496c-0.24972,0.40927 -0.49944,0.81853 -0.74916,1.2278c0,0 -0.09689,0.15879 -0.27717,0.31649l0.36301,0.57835c0,0 -0.50788,0.83235 -1.36165,0.57823c-0.24974,0.238 -0.64226,0.42071 -1.22154,0.22281c-0.0049,-0.00168 -0.00977,-0.00336 -0.01462,-0.00506c-0.12801,-0.0099 -0.27159,-0.03724 -0.4125,-0.09741c0.00087,0.37273 -0.18941,0.64589 -0.37805,0.82502c-0.10932,0.11234 -0.24066,0.20507 -0.38945,0.27067l-1.15476,0.53651c0,0 -0.30679,0.14254 -0.67533,0.11971c-0.15839,0.32024 -0.45223,0.57066 -0.82663,0.66131c-0.02392,0.00579 -0.04784,0.01085 -0.07175,0.0152c-0.02821,0.53764 -0.40438,1.01569 -0.95444,1.14887c-0.50501,0.12227 -1.01266,-0.08102 -1.30216,-0.47516c-0.03675,0.01261 -0.07441,0.02363 -0.11293,0.03295c-0.36984,0.08954 -0.7411,0.00448 -1.02704,-0.20227c-0.22457,0.25556 -0.52069,0.344 -0.7642,0.36776c-0.16458,0.02266 -0.3275,0.01178 -0.48107,-0.02795l-0.61485,-0.14503c-0.4717,-0.1474 -0.94339,-0.29481 -1.41508,-0.44221c0,0 -0.33742,-0.10544 -0.59731,-0.38362l-0.34597,-0.04615c-0.39929,-0.20854 -0.79859,-0.41706 -1.19788,-0.6256c0,0 -0.27878,-0.1456 -0.48364,-0.43057c-0.20807,-0.02895 -0.35218,-0.0909 -0.35218,-0.0909l-1.08109,-0.63722c-0.23478,-0.30517 -0.46956,-0.61035 -0.70434,-0.91553c-0.59616,0.04032 -1.15242,-0.35291 -1.29779,-0.95331c-0.16244,-0.67097 0.24979,-1.3466 0.92076,-1.50904c0.44857,-0.1086 0.8992,0.03965 1.1972,0.35034c0.65477,-0.07075 1.10216,0.51076 1.10216,0.51076c0.25449,0.33079 0.50897,0.66159 0.76346,0.99238l0.08688,-0.13518c0,0 0.34305,0.14745 0.57356,0.46866c0.25254,0.03973 0.43231,0.13362 0.43231,0.13362c0.39929,0.20854 0.79859,0.41706 1.19788,0.6256l-0.0452,-0.13807c0,0 0.71473,0.00532 1.05925,0.54838c0.31089,0.09715 0.62179,0.1943 0.93268,0.29145l0.42354,0.09396c0.16119,0.03195 0.31365,0.09537 0.44892,0.1851c0.02159,0.01317 0.04338,0.02722 0.06522,0.04218c0.16055,-0.17062 0.37083,-0.29811 0.61551,-0.35735c0.50501,-0.12227 1.01266,0.08103 1.30215,0.47516c0.03675,-0.01261 0.07442,-0.02363 0.11293,-0.03295c0.02392,-0.00579 0.04784,-0.01085 0.07175,-0.01519c0.02821,-0.53764 0.40438,-1.0157 0.95444,-1.14887c0.13956,-0.03378 0.27931,-0.04271 0.4146,-0.02962c0.21231,-0.39837 0.62226,-0.58884 0.62226,-0.58884l1.15236,-0.53539c0.08013,-0.03916 0.1657,-0.0703 0.25596,-0.09215c0.06857,-0.0166 0.13717,-0.0272 0.20528,-0.03213c0.19439,-0.02143 0.4299,-0.00924 0.65554,0.1006c-0.00749,-0.54212 0.3238,-0.84844 0.6005,-1.00941c0.09674,-0.28317 0.19347,-0.56634 0.29021,-0.84951l0.09215,-0.43021c0,0 0.24741,-1.07549 1.28784,-0.97292c0.09366,-0.24341 0.34023,-0.70831 0.88123,-0.81016c0.01813,-0.0145 0.02865,-0.02197 0.02865,-0.02197c0.2125,-0.15107 0.42498,-0.30215 0.63748,-0.45323c-0.01003,-0.25904 -0.02005,-0.51809 -0.03008,-0.77713l-0.19751,-1.32285c0,0 -0.10412,-0.70374 0.37564,-1.12795c-0.08158,-0.33698 -0.16317,-0.67396 -0.24475,-1.01094l-0.14957,-0.6178c-0.02298,-0.09489 -0.03445,-0.18987 -0.03533,-0.28348c-0.22886,-0.27492 -0.45773,-0.54985 -0.68659,-0.82477l-0.61019,-1.28777c-0.04159,-0.0831 -0.0745,-0.17219 -0.0973,-0.26637c-0.0166,-0.06857 -0.0272,-0.13717 -0.03213,-0.20528c-0.0135,-0.12246 -0.01366,-0.26123 0.01553,-0.40357c-0.053,-0.21889 -0.10599,-0.43777 -0.15899,-0.65666l-0.19186,-0.35534c0,0 -0.52668,-1.13362 0.60694,-1.6603c0.17878,-0.08306 0.34246,-0.12483 0.49135,-0.13627c0.62426,-0.08077 1.22226,0.31998 1.37379,0.94584z" fill="#ffffff" stroke="#3e0e6c" stroke-width="0.5" stroke-linecap="butt"/><path d="M148.66117,165.10333c0.33542,0.51447 0.7473,-1.35561 1.31772,-0.3398c0.63921,1.1383 1.4367,5.16588 1.73966,5.66927c0.49284,0.81889 1.46839,2.83258 4.98935,3.99811c3.56959,1.18162 9.68402,1.51344 10.01254,2.09133c1.75316,3.08393 -10.25245,3.28261 -10.93309,3.72636c-0.91407,0.59594 -2.48532,-2.27198 -6.91167,-7.48193c-0.10811,-0.12726 -0.15592,1.77737 0.77265,4.00781c0.55958,1.34412 3.18748,2.30484 3.33881,3.01804c0.59607,2.80908 -2.21568,2.56386 -2.83339,2.03377c-0.2638,-0.22638 -1.50633,0.56095 -2.01936,-1.06c-0.42015,-1.32746 -0.24662,-3.07943 -0.58862,-4.62016c-0.67022,-3.01934 -1.7538,-5.22747 -2.19445,-1.83996c0.57142,3.15581 7.2391,12.25853 3.03501,12.4804c-1.31913,0.06962 -4.29174,0.21422 -5.05508,-2.55502c-0.39902,-1.44758 0.66116,-3.15199 0.82355,-5.30145c0.19482,-2.57875 -0.46898,-5.62462 -0.67895,-7.30954c-0.23565,-1.89096 -3.34504,-8.39629 -3.6327,-10.60703c-0.38661,-2.97112 2.87448,1.99087 2.67029,0.92677c-0.8783,-4.57724 -2.05932,-8.7823 -2.72331,-11.32498c-0.38971,-1.49235 -0.19646,-3.55474 0.53247,-2.33125c0.46283,0.77684 1.3678,3.85059 2.22097,3.92102c1.53169,0.12643 -2.25441,-4.33543 -0.52199,-4.55195c2.26452,-0.28302 3.39802,6.24233 5.19464,11.31052c0.8344,2.3538 0.86001,5.24244 1.44495,6.13965z" fill="#3e0e6c" stroke="#3e0e6c" stroke-width="0" stroke-linecap="butt"/><g stroke="#3e0e6c" stroke-width="0" stroke-linecap="butt"><path d="M163.64586,143.28345c0,-9.32295 7.55774,-16.88068 16.88069,-16.88068c9.32295,0 16.88069,7.55774 16.88069,16.88068c0,9.32295 -7.55774,16.88069 -16.88068,16.88069c-9.32295,0 -16.88068,-7.55774 -16.88068,-16.88068z" fill="#3e0e6c"/><path d="M166.12831,143.28345c0,-7.95192 6.44631,-14.39823 14.39823,-14.39823c7.95192,0 14.39823,6.44631 14.39823,14.39823c0,7.95192 -6.44631,14.39823 -14.39823,14.39823c-7.95192,0 -14.39823,-6.44631 -14.39823,-14.39823z" fill="#ffffff"/><path d="M167.4523,143.28345c0,-7.22071 5.85354,-13.07425 13.07425,-13.07425c7.22071,0 13.07425,5.85354 13.07425,13.07425c0,7.22071 -5.85354,13.07426 -13.07425,13.07426c-7.22071,0 -13.07425,-5.85355 -13.07425,-13.07426z" fill="#3e0e6c"/><path d="M168.21651,143.28345c0,-6.79865 5.51139,-12.31005 12.31005,-12.31005c6.79865,0 12.31005,5.51139 12.31005,12.31005c0,6.79865 -5.51139,12.31005 -12.31005,12.31005c-6.79865,0 -12.31005,-5.5114 -12.31005,-12.31005z" fill="#ffffff"/></g><path d="M280.90004,236.3632l32.2439,-51.01964l39.46763,17.68326l-23.27695,51.95228c0,0 -37.26401,6.33133 -45.46034,3.01392c-4.64551,-1.88024 -2.97423,-21.62982 -2.97423,-21.62982z" fill="url(#color-1)" stroke="none" stroke-width="0" stroke-linecap="butt"/><path d="M312.16015,233.52158v-36.73047h30.78117v36.73047z" fill="url(#color-2)" stroke="none" stroke-width="0" stroke-linecap="butt"/><path d="M309.83216,228.8656v-10.08794h33.88515v10.08794z" fill="url(#color-3)" stroke="none" stroke-width="0" stroke-linecap="butt"/><path d="M169.43156,173.88962l-8.8083,-10.65807l-6.77162,-39.25538" fill="none" stroke="#3e0e6c" stroke-width="2.5" stroke-linecap="round"/></g></g></svg>