<svg version="1.1" xmlns="http://www.w3.org/2000/svg" xmlns:xlink="http://www.w3.org/1999/xlink" width="247.00658" height="183.76926" viewBox="0,0,247.00658,183.76926"><g transform="translate(-195.99795,-84.54806)"><g data-paper-data="{&quot;isPaintingLayer&quot;:true}" fill-rule="nonzero" stroke="none" stroke-linecap="butt" stroke-linejoin="miter" stroke-miterlimit="10" stroke-dasharray="" stroke-dashoffset="0" style="mix-blend-mode: normal"><g stroke-width="0.5"><g><path d="M320.48968,192.87562c-6.81691,4.24628 -13.67841,9.33456 -22.06124,11.02302c-3.97792,0.80122 -8.04945,2.03077 -12.1088,1.63309c-1.12181,-0.1099 -2.22393,-1.05339 -3.28298,-0.71686c-4.86305,1.54529 -12.91741,14.9556 -18.00687,17.83431c-6.4458,3.64589 -16.536,6.11382 -24.24863,5.9309c-8.05164,-0.19096 -24.30712,-9.3222 -27.51222,-13.95409c-1.74873,-2.52721 -3.18257,-5.23575 -4.25055,-8.02935c-0.8812,-2.30504 0.67403,-6.40423 -0.16955,-8.51992c-0.27202,-0.68222 -1.68401,-0.37609 -2.312,-0.8542c-2.6925,-2.04991 -9.3432,-10.88414 -9.90902,-13.78502c-1.23958,-6.35513 -0.61831,-13.81515 1.58817,-20.05561c7.77618,-21.99286 31.38244,-39.47473 51.10019,-53.03277c14.52087,-9.98463 24.00154,-14.58146 41.56369,-17.79116c4.75139,-0.86838 12.14436,-2.57402 17.27185,-1.68049c5.01474,0 9.77575,0.93404 14.06051,2.61081c3.30771,1.29442 6.33161,3.03146 8.96934,5.12312c2.10469,1.35377 4.12807,2.77129 5.63895,4.59055c0.35676,0.42957 0.36261,1.15758 0.42607,1.79202c0.0652,0.65183 0.1912,1.2049 0.82104,1.23407c3.26617,0.15132 7.87612,-1.65354 11.24446,-1.06945c2.82783,0.49036 5.4192,1.85609 8.28263,2.15717c2.88199,0.30303 6.63196,-1.86492 9.66322,-2.05408c7.23654,-0.45159 10.92373,-0.39441 17.42224,1.68475c3.07575,0.98406 7.1322,0.96735 9.10383,3.22301c3.68728,4.2185 7.16901,8.57006 10.56182,12.96744c1.81115,2.34741 0.84406,5.58831 1.14291,8.3935c0.31984,3.00218 1.02065,5.97317 1.22316,8.98288c0.18954,2.81693 -2.91966,5.057 -4.52833,7.5164c-6.59746,10.08646 -16.45227,11.66292 -27.22326,17.40614c-12.67995,6.7611 -23.0589,16.75233 -38.84582,15.49857z" fill="#791cff"/><path d="M433.30443,148.42044c0.33408,2.54603 -0.12538,5.08929 -0.71109,7.63057c-0.23645,2.0828 -0.69989,4.1084 -1.36877,6.05827c-0.2611,0.76114 -0.55351,1.51074 -0.87593,2.24771c7.84828,7.99772 13.32336,17.52082 12.59012,28.86853c-0.73455,11.36798 -9.1836,15.84777 -17.16691,22.32654c-15.83638,12.85187 -23.08311,29.41278 -44.90876,36.40425c-1.43437,0.45947 -3.03048,-0.48247 -4.56093,-0.45909c-3.70906,0.05665 -7.39612,0.88708 -11.09925,0.69827c-1.09527,-0.05585 -1.80415,-1.68341 -2.85415,-1.40972c-3.02343,0.78806 -8.83144,4.54566 -12.56478,6.19709c-7.67411,3.39461 -16.13887,4.98522 -24.76629,4.98522c-11.31854,0 -21.75792,-0.65298 -32.00036,-5.14073c-4.08599,-1.79029 -10.18329,0.80092 -13.7086,-1.41876c-5.59212,-3.52102 -11.02558,-7.22865 -16.38635,-11.00631c-2.81971,-1.98701 -2.9903,-5.71914 -4.36753,-8.62147c-1.49439,-3.14922 -3.35925,-6.16723 -4.73906,-9.35486c-1.27355,-2.94214 1.22005,-6.19275 2.00089,-9.25942c2.6742,-10.50272 10.06567,-15.00146 17.94636,-22.43784c1.47816,-1.39482 1.64945,-4.10822 2.68292,-5.78081c2.99507,-4.84727 7.9397,-9.36788 13.202,-12.48594c8.96237,-5.31047 18.08061,-10.42419 27.1695,-15.57325c8.45481,-4.78984 20.37937,-9.11369 27.44038,-12.76102c14.04351,-7.25411 25.50248,-27.24614 44.0013,-27.57156c2.092,-0.30615 4.24214,-0.4656 6.43559,-0.4656c3.27138,0 6.44641,0.35467 9.47591,1.02173c14.19341,2.42333 26.77102,9.30148 29.13379,27.30823z" fill="#ff871c"/></g><g fill="#450033"><path d="M320.39111,191.22231c-6.1371,3.82282 -12.31433,8.40367 -19.86119,9.92375c-3.58123,0.72132 -7.24672,1.82825 -10.90125,1.47023c-1.00994,-0.09894 -2.00215,-0.94834 -2.95559,-0.64538c-4.37808,1.39119 -11.62922,13.46416 -16.21113,16.05579c-5.80299,3.2823 -14.88695,5.50412 -21.83044,5.33944c-7.24869,-0.17192 -21.8831,-8.39254 -24.76857,-12.56252c-1.57434,-2.27518 -2.86519,-4.71362 -3.82666,-7.22863c-0.79333,-2.07517 0.60681,-5.76556 -0.15264,-7.67027c-0.24489,-0.61418 -1.51607,-0.33859 -2.08144,-0.76902c-2.42399,-1.84548 -8.41145,-9.79872 -8.92084,-12.4103c-1.11596,-5.72136 -0.55666,-12.43744 1.42979,-18.05557c7.0007,-19.79962 28.25283,-35.53813 46.00423,-47.74409c13.07278,-8.98892 21.60798,-13.12732 37.41875,-16.01694c4.27756,-0.78178 10.93327,-2.31733 15.54942,-1.51291c4.51465,0 8.80086,0.84089 12.65833,2.35045c2.97785,1.16534 5.70019,2.72915 8.07488,4.61222c1.8948,1.21877 3.7164,2.49492 5.07661,4.13275c0.32118,0.38673 0.32645,1.04214 0.38358,1.61331c0.0587,0.58682 0.17214,1.08473 0.73916,1.11101c2.94045,0.13623 7.09068,-1.48864 10.1231,-0.96279c2.54582,0.44147 4.87877,1.671 7.45665,1.94205c2.59459,0.27281 5.97059,-1.67895 8.69955,-1.84924c6.51488,-0.40655 9.83436,-0.35508 15.68482,1.51673c2.76902,0.88593 6.42094,0.87088 8.19594,2.9016c3.31957,3.79781 6.45409,7.7154 9.50855,11.67426c1.63053,2.11332 0.75988,5.03101 1.02893,7.55646c0.28794,2.70279 0.91887,5.3775 1.10118,8.08707c0.17064,2.53601 -2.6285,4.55269 -4.07675,6.76683c-5.93953,9.08059 -14.81157,10.49983 -24.50843,15.67031c-11.41545,6.08685 -20.75935,15.08171 -34.97193,13.95298z"/><path d="M421.95543,151.20042c0.30076,2.29213 -0.11288,4.58176 -0.64018,6.86961c-0.21287,1.87509 -0.63009,3.69869 -1.23227,5.45411c-0.23506,0.68523 -0.49831,1.36009 -0.78858,2.02355c7.06562,7.20015 11.99469,15.77356 11.33457,25.98962c-0.6613,10.23431 -8.26777,14.26734 -15.45494,20.10003c-14.2571,11.57021 -20.78116,26.47959 -40.43024,32.77384c-1.29133,0.41366 -2.72826,-0.43435 -4.10609,-0.41331c-3.33917,0.051 -6.65854,0.79862 -9.99238,0.62863c-0.98605,-0.05028 -1.62423,-1.51553 -2.56952,-1.26914c-2.72191,0.70947 -7.95074,4.09234 -11.31176,5.57908c-6.90881,3.05609 -14.52942,4.48807 -22.29648,4.48807c-10.1898,0 -19.58811,-0.58786 -28.80913,-4.62807c-3.67851,-1.61175 -9.16776,0.72105 -12.34151,-1.27727c-5.03445,-3.16989 -9.92606,-6.50777 -14.75223,-9.90871c-2.53852,-1.78885 -2.69209,-5.1488 -3.93198,-7.76169c-1.34536,-2.83516 -3.02425,-5.55221 -4.26646,-8.42195c-1.14654,-2.64874 1.09839,-5.57519 1.80135,-8.33603c2.40752,-9.45534 9.06187,-13.50544 16.15667,-20.20023c1.33075,-1.25572 1.48496,-3.69853 2.41537,-5.20432c2.69639,-4.36387 7.14791,-8.43366 11.88543,-11.24078c8.06861,-4.78088 16.27752,-9.38464 24.46003,-14.02021c7.61165,-4.31217 18.34705,-8.20483 24.7039,-11.48843c12.64302,-6.53069 22.95925,-24.52903 39.61327,-24.822c1.88338,-0.27562 3.8191,-0.41916 5.79381,-0.41916c2.94514,0 5.80354,0.3193 8.53093,0.91983c12.77797,2.18166 24.10129,8.37389 26.22843,24.58492z"/></g></g><path d="M274.24867,162.47893c-1.44295,2.30131 -3.74427,0.85836 -3.74427,0.85836l-0.3594,-0.25758c-0.52722,-0.31705 -1.05089,-0.64003 -1.58161,-0.95113c-0.16993,-0.09959 -0.60186,-0.45988 -0.51996,-0.28074c1.08318,2.36912 2.88036,4.73226 4.17409,7.00861c0,0 1.34214,2.36152 -1.0194,3.70366c-2.36152,1.34214 -3.70366,-1.01939 -3.70366,-1.01939c-0.29858,-0.52534 -0.63306,-1.08569 -0.98118,-1.66981c-1.50323,4.13652 -6.22879,7.23434 -10.76397,5.14228c-1.9818,-0.91419 -3.35818,-3.37837 -3.97986,-6.1029c-1.96933,0.70589 -3.90717,1.47411 -5.85201,2.22369c0.49069,1.4963 0.69244,3.07626 1.04913,4.61137c0,0 0.60695,2.64759 -2.04064,3.25455c-2.64759,0.60695 -3.25454,-2.04064 -3.25454,-2.04064c-0.26851,-1.18944 -0.73301,-2.48247 -1.26968,-3.8343c-0.05714,0.01847 -0.11432,0.03686 -0.17154,0.05517c0,0 -2.58804,0.82473 -3.41277,-1.76333c-0.67972,-2.13301 0.95875,-3.06824 1.55591,-3.33119c-1.80512,-4.84931 -2.73115,-9.75763 2.06545,-12.9732c1.0265,-0.68815 2.39059,-0.62776 3.58589,-0.94163l1.88227,0.16211c0,0 2.63952,0.64116 1.99835,3.28068c-0.64116,2.63951 -3.28069,1.99836 -3.28069,1.99836l0.61398,-0.14597c-4.05812,0.69964 -3.16981,3.71902 -1.67965,6.76747c2.64166,-1.01137 5.26215,-2.0789 7.95791,-2.9873l0.1042,0.01927c0.23004,-1.12272 0.63897,-2.11228 1.24099,-2.84608c1.07032,-1.30465 3.20394,-1.06088 4.80589,-1.59133c0,0 2.04709,-0.46929 2.95386,1.21746l0.36511,-0.0132c0.76297,0.33506 1.44478,0.58968 2.05083,0.82837c0.20916,-1.9934 1.70037,-3.5646 5.56083,-4.16447c1.32142,-0.20533 2.50164,0.94604 3.75244,1.41906l1.03933,0.61946c0,0 2.30131,1.44295 0.85836,3.74426zM256.81056,164.17436c-0.43808,0.88371 0.46795,5.51358 1.28901,5.94099c2.01765,1.05033 4.93475,-3.02292 2.99579,-4.46245c-0.56377,-0.41856 -1.35715,-0.36094 -2.03573,-0.54142l0.71716,0.30362c0,0 -2.06586,0.47359 -2.96624,-1.24076z" fill="#ffe6fd" stroke-width="0.5"/><text transform="translate(205.40625,264.95596) scale(0.24899,0.24899)" font-size="40" xml:space="preserve" fill="#ffffff" fill-rule="nonzero" stroke="none" stroke-width="1" stroke-linecap="butt" stroke-linejoin="miter" stroke-miterlimit="10" stroke-dasharray="" stroke-dashoffset="0" font-family="&quot;Neon&quot;, Sans Serif" font-weight="normal" text-anchor="start" style="mix-blend-mode: normal"><tspan x="0" dy="0">wow!</tspan></text><path d="M302.91076,161.30916l-0.21762,0.21762l-0.15834,0.26391l-0.16664,0.16664l-0.12092,0.24183l-0.13284,0.15498l-0.00692,0.12453l-0.37626,0.32251l-0.32251,0.37626l-0.12453,0.00692l-0.15497,0.13284l-0.46548,0.23274l-0.32401,0.21601l-0.40291,0.1439l-0.3775,0.20134l-0.60469,0.15117h-0.30777l-0.29857,0.07465h-2.41875l-0.29858,-0.07465h-0.30776l-0.60469,-0.15117l-0.0865,-0.04613l-0.09774,-0.00752l-0.75228,-0.25076l-0.0271,0.00738l-0.06157,-0.03694l-0.06609,-0.02203l-0.48462,-0.3084l-0.49257,-0.29554l-0.04926,-0.04926l-0.06058,-0.03855l-0.00551,-0.02754l-0.36372,-0.36371l-0.46255,-0.34691l-0.26692,-0.32852l-0.3132,-0.28473l-0.16503,-0.24754l-0.1273,-0.1273l-0.00731,-0.01218l-0.04394,-0.01236l-0.2922,-0.54787l-0.31946,-0.53244l0.01201,-0.04403l-0.00669,-0.01254l-0.15117,-0.60469v-0.30776l-0.07464,-0.29857v-0.13923l-0.01558,-0.02336l0.01558,-0.0701v-0.06966l0.07464,-0.29857v-0.08121l0.0267,-0.02559l0.03798,-0.1519l0.12462,-0.56076l0.03115,-0.06231l0.01742,-0.06966l0.02438,-0.01393l0.10667,-0.21333l0.08461,-0.33845l0.20134,-0.37751l0.14389,-0.40291l0.21601,-0.32401l0.23274,-0.46547l0.14788,-0.17253l0.08819,-0.20943l0.45351,-0.60469l0.13966,-0.11347l0.09258,-0.1543l0.27848,-0.27847l0.16502,-0.24755l0.18425,-0.1675l0.12811,-0.21352l0.60469,-0.60469l0.34461,-0.20676l0.30512,-0.26154l1.07016,-0.53508l0.32401,-0.21601l0.09472,-0.03383l0.04203,-0.07354l0.54633,-0.13658l0.33418,-0.11935l0.02652,-0.04641l0.31163,-0.07791l0.27545,-0.16527l0.18443,0.0503l0.47848,-0.11962h2.87226c0.42611,0 0.82734,0.10661 1.17843,0.29461l0.07157,0.01789l0.01884,0.03296c0.39577,0.23358 0.72157,0.57309 0.93839,0.97953l0.93111,0.84646l0.08119,0.12179l0.02618,0.01496l0.00973,0.03889l0.18525,0.27787l0.05313,0.14877l0.10281,0.11995l0.9886,1.97719l0.51835,0.77753l0.07779,0.21781l0.13995,0.18414l0.3631,0.84723l0.47737,0.71605l0.05313,0.14878l0.10281,0.11995l0.20153,0.40306l0.31826,0.42435l0.02254,0.05352l0.60721,-0.03373l0.82242,1.23362l0.09588,0.05479l0.03561,0.14245l0.44363,0.66545l-0.2795,1.25779l-0.03024,0.06047l-0.04069,0.1831l0.00304,0.03954l-0.01574,0.01758l-0.06756,0.304l-0.03115,0.0623l-0.01742,0.06966l-0.02438,0.01393l-0.07822,0.15645l-0.83853,0.97828l-0.37943,0.02108l-0.22754,0.25431l-0.94568,-0.18914l-0.96292,0.0535l-0.18929,-0.28394l-0.37264,-0.07452l-0.56765,-0.89203l-0.42719,-0.42718l-0.12811,-0.21352l-0.18425,-0.1675l-0.26385,-0.39577l-0.41188,-0.54918l-0.08819,-0.20943l-0.14433,-0.16839zM298.80179,155.56902l-0.27101,0.06776l-0.27545,0.16527l-0.18444,-0.0503l-0.33074,0.08268l-0.08791,0.07534l-0.84651,0.42326l-0.14277,0.14278l-0.16503,0.24755l-0.18425,0.1675l-0.12811,0.21352l-0.32788,0.32789l-0.21166,0.28221l-0.20153,0.40306l-0.10281,0.11994l-0.05313,0.14878l-0.06214,0.09321l-0.04615,0.18458l-0.00576,0.0108l0.13861,0.10396l0.11347,0.13965l0.1543,0.09258l0.18737,0.18738l0.25606,0.08535l0.21296,0.05325h1.73198l0.05046,-0.03365l0.14878,-0.05313l0.00633,-0.00543l0.16415,-0.19151l0.20677,-0.34461l0.23589,-0.23589l0.19211,-0.32018l0.20066,-0.50165l0.24875,-0.74625l0.05324,-0.21296v-1.04736l-0.01884,-0.07534z" fill="#ffe6fd" stroke-width="0.5"/><path d="M314.51223,164.95725c-3.53413,0.16547 -3.98923,-5.52507 -3.1698,-7.80824c1.67928,-4.67898 9.37311,-7.74193 13.11226,-3.58017c2.27419,2.53122 3.91562,12.99034 -0.70956,12.73338c-3.81603,-0.212 -2.07825,-4.08927 -1.89532,-6.16813c0.04113,-0.4674 -0.34323,-3.18292 -1.10546,-3.20452c-2.69252,-0.07631 -5.37355,0.40702 -4.51606,3.83698c0.06552,0.07253 0.12684,0.14892 0.18358,0.22879c0.45146,0.38697 0.56088,0.90468 0.46059,1.43794c0.00001,0.00279 0.00002,0.00559 0.00002,0.00839c0,1.24236 -0.90621,2.27306 -2.09368,2.46715c-0.09241,0.02786 -0.18178,0.04446 -0.26657,0.04843z" fill="#ffe6fd" stroke-width="0.5"/><path d="M345.55001,161.74147l-0.12081,0.36243l-0.12788,0.51154l-0.12957,0.24293l-0.05972,0.26877l-0.07172,0.14343l-0.09499,0.28496l-0.0966,0.15181l-0.03904,0.17566l-0.30234,0.60468l-0.83853,0.97828l-0.09857,0.00548l-0.04898,0.08571l-1.25,0.3125h-1.96524l-0.38988,-0.09747l-0.40069,-0.03082l-0.06864,-0.02288h-0.19899l-0.38988,-0.09747l-0.40069,-0.03082l-0.81594,-0.27198l-0.51154,-0.12789l-0.08649,-0.04613l-0.09774,-0.00752l-0.45352,-0.15117l-0.20051,-0.12759l-0.13565,0.00935l-0.35084,-0.31895l-0.40003,-0.25456l-0.02667,-0.13334l-0.17586,-0.15987l-0.05363,-0.08046l-0.23869,-0.14322l-0.60469,-0.60469l-0.20676,-0.34461l-0.26154,-0.30513l-0.07822,-0.15644l-0.02438,-0.01394l-0.01742,-0.06966l-0.03115,-0.06231l-0.02837,-0.12766l-0.01507,-0.02511l0.00523,-0.01918l-0.08641,-0.3888l-0.13932,-0.55728v-0.06966l-0.01558,-0.0701l0.01558,-0.02336v-3.30188l-0.01558,-0.02337l0.01558,-0.07009v-0.06966l0.13932,-0.55728l0.12462,-0.56076l0.03115,-0.0623l0.01742,-0.06966l0.02438,-0.01393l0.14994,-0.29988l0.09499,-0.28496l0.26479,-0.4161l0.0106,-0.19088l0.24389,-0.20905l0.17246,-0.27101l0.18746,-0.03749l0.16264,-0.13942l0.05144,-0.05143l0.00551,-0.02754l0.06058,-0.03855l0.04926,-0.04926l0.49257,-0.29555l0.48462,-0.30839l0.06609,-0.02203l0.06157,-0.03694l0.0271,0.00738l0.75228,-0.25076l0.40069,-0.03082l0.38988,-0.09747h3.62812c0.42611,0 0.82733,0.10661 1.17843,0.2946l0.07157,0.0179l0.01884,0.03296c0.0882,0.05205 0.17293,0.10936 0.25374,0.17151l1.03593,-0.2302l0.24226,0.16151l0.28089,-0.07661l1.053,0.63179l0.01551,-0.00107l0.03359,0.03053l0.00276,0.00165l0.00939,0.00939l0.43281,0.39346l0.49104,0.42089l0.00213,0.03826l0.03533,0.05299l0.23869,0.14321l0.90703,0.90704l0.15834,0.2639l0.21762,0.21762l0.40215,0.67024l1.41409,1.97972l0.47563,0.59454l0.35561,0.3556l0.05946,0.09911l0.09332,0.0682l0.20947,0.25135l0.25173,-0.29369l2.51557,-0.13976l1.39755,2.09632l-0.27951,1.25779l-0.30235,0.60469l-0.26153,0.30513l-0.20677,0.3446l-0.17671,0.17672l-0.24904,0.33206l-0.00155,0.02803l-0.05452,0.04673l-0.04179,0.05573l-0.44583,0.36223l-0.43614,0.37383l-0.0623,0.03115l-0.05573,0.04528l-0.02787,-0.00349l-0.01054,0.00528l-0.01394,0.02438l-0.06966,0.01741l-0.06231,0.03116l-0.56075,0.12461l-0.55728,0.13932h-0.06966l-0.07009,0.01558l-0.02337,-0.01558h-0.13923l-0.47848,-0.11962l-0.18444,0.0503l-0.27545,-0.16527l-0.31164,-0.07791l-0.09485,-0.16598l-0.42292,-0.25375l-0.23445,-0.23445l-0.9853,-0.84455l-0.12257,-0.17272l-0.171,-0.12496l-0.68326,-0.81992l-0.37333,-0.37332l-0.07243,-0.12072l-0.11198,-0.08531l-0.60469,-0.75586l-0.02907,-0.06341l-0.05309,-0.04523l-0.42502,-0.59503zM338.42206,158.15989v2.03333l0.16348,0.14862l0.09641,0.08263l0.2652,0.0663l0.08649,0.04613l0.09774,0.00752l0.52215,0.17405h0.19899l0.38988,0.09747l0.34821,0.02678l0.01116,-0.04466l0.04613,-0.08649l0.00752,-0.09774l0.10196,-0.30586l0.12064,-0.60324l0.02609,-0.05509v-0.06096l0.07653,-0.30611v-0.75044l0.09307,-0.37226z" fill="#ffe6fd" stroke-width="0.5"/><path d="M362.6769,152.93271c0.06168,0.03084 0.1212,0.06176 0.1786,0.09277c0.30461,0.13218 0.57774,0.32325 0.80503,0.55883c0.2052,0.19364 0.34328,0.39083 0.42434,0.59199c0.17662,0.34272 0.27634,0.73154 0.27634,1.14365c0,1.38071 -1.11929,2.5 -2.5,2.5c-0.00322,0 -0.00644,-0.00001 -0.00965,-0.00002c-0.23174,-0.00088 -0.45605,-0.03328 -0.66886,-0.09315c-1.10806,-0.12528 -2.86208,-0.06041 -2.53728,2.54024c0.59627,4.77415 7.0192,0.4075 8.84976,2.23807c4.34492,4.34492 -4.73173,5.76009 -7.65904,5.02826c-4.80069,-1.20017 -6.99774,-6.30241 -5.54013,-10.70334c1.04711,-3.16153 4.55715,-6.25785 8.20523,-3.93634z" fill="#ffe6fd" stroke-width="0.5"/><path d="M404.3559,163.98233c0.75689,-2.55511 0.8816,-5.4894 2.01173,-7.92096c0.69285,-1.49073 1.69211,-3.46076 3.95879,-2.32741c2.66114,1.33057 0.71828,3.90509 0.24912,5.71467c-1.02826,3.96609 -1.64271,12.08122 -5.41179,14.64192c-0.12467,0.0847 -0.2718,0.15546 -0.43469,0.21153c-0.29635,0.12378 -0.62162,0.19215 -0.96285,0.19215c-0.22762,0 -0.44812,-0.03042 -0.65768,-0.08741c-0.82182,-0.13889 -1.58795,-0.56562 -1.82459,-1.33284l-0.23882,0.05971h-0.13922l-0.02337,0.01558l-0.0701,-0.01558h-0.06966l-0.55728,-0.13932l-0.56075,-0.12462l-0.06231,-0.03115l-0.06966,-0.01741l-0.01393,-0.02438l-0.76114,-0.38057l-0.30512,-0.26154l-0.34461,-0.20676l-0.45352,-0.45352l-0.15834,-0.2639l-0.21762,-0.21762l-0.35408,-0.59012l-0.63212,-0.75855l-0.03943,-0.08167l-0.14981,0.59927l-0.04613,0.0865l-0.00751,0.09774l-0.02288,0.06864v0.04782l-0.09747,0.38988l-0.03082,0.40069l-0.15117,0.45351l-0.69175,1.08704l-0.28551,0.0571l-0.14445,0.2528l-1.25,0.3125h-0.45352l-0.38987,-0.09747l-0.4007,-0.03083l-0.45351,-0.15117l-0.15181,-0.09661l-0.17566,-0.03904l-0.14343,-0.07171l-0.13022,-0.04341l-0.02709,0.00738l-0.06157,-0.03694l-0.06609,-0.02203l-0.48462,-0.3084l-0.49257,-0.29554l-0.04926,-0.04926l-0.06058,-0.03854l-0.00551,-0.02754l-0.0095,-0.0095l-0.0867,-0.05517l-0.31447,-0.11231l-0.90703,-0.60468l-0.33018,-0.3632l-0.36319,-0.33018l-0.0561,-0.08415l-0.14842,-0.02969l-0.17246,-0.27101l-0.2439,-0.20905l-0.0106,-0.19088l-0.21422,-0.33663c-1.50766,1.35343 -3.53592,1.78755 -6.02802,0.29229c-3.68198,-2.20919 -3.7671,-5.23554 -2.94168,-9.66266c0.03805,-0.20406 0.14728,-0.52127 0.30722,-0.89062c-0.74571,0.07513 -1.65942,-0.11895 -2.61237,-0.45361c-0.09156,0.46303 -0.17091,0.90649 -0.23056,1.32415c-0.1623,1.13655 -0.15936,4.96882 -1.06836,5.83995c-2.7477,2.63322 -5.75079,-0.28533 -4.52617,-3.5582c0.6278,-1.67783 0.88056,-3.90939 1.05933,-5.79028c0.005,-0.05265 0.01246,-0.12619 0.02215,-0.21839c-0.50863,-0.31776 -0.91166,-0.58619 -1.15593,-0.75221c-0.56698,-0.38535 -2.52213,-1.49275 -2.27526,-2.39796c-0.05169,-0.20028 -0.07919,-0.41027 -0.07919,-0.6267c0,-1.38071 1.11929,-2.5 2.5,-2.5c0.17716,-0.13716 0.55232,-0.02569 1.01563,0.21492c0.14533,0.06469 0.28335,0.14283 0.41247,0.23286c0.09101,0.05488 0.18388,0.11286 0.27795,0.17325c0.16127,-1.16272 0.32953,-2.26342 0.48194,-3.0508c0.01229,-0.3385 0.09186,-0.65983 0.22576,-0.95101c0.39535,-0.85977 1.26425,-1.4567 2.27257,-1.4567c1.38071,0 2.5,1.11929 2.5,2.5c0,0.35061 -0.07218,0.68435 -0.20247,0.98719c0.25044,1.39953 0.12969,3.01351 -0.13215,4.65151c1.15371,0.27074 2.32777,0.55679 2.71274,0.94176c0.65478,0.65478 1.05232,1.2131 1.19261,1.75074c0.14042,-0.04543 0.27721,-0.05439 0.40764,-0.01881c0.20027,-0.05169 0.41027,-0.07919 0.62669,-0.07919c1.38071,0 2.5,1.11929 2.5,2.5c0.49591,0.64051 -1.35385,2.47394 -1.45801,3.26214c-0.02084,0.15769 -0.33731,4.94151 1.21463,3.70754c2.43333,-1.93478 -1.97173,-6.84715 2.88323,-7.50445c0.4465,-0.06045 1.98376,-0.01194 2.3082,0.3125c0.44788,0.44789 0.72681,1.20201 0.84452,2.12445l0.41557,-0.20779l0.17566,-0.03903l0.15181,-0.09661l0.28279,-0.09426l0.01364,-0.02388l0.06966,-0.01741l0.0623,-0.03115l0.56076,-0.12462l0.55728,-0.13932h0.06966l0.07009,-0.01557l0.02337,0.01557h1.19743c0.42611,0 0.82733,0.10661 1.17843,0.29461l0.07157,0.01789l0.01883,0.03296c0.65859,0.38869 1.12343,1.07074 1.21474,1.86639l0.27997,0.23998l0.44583,0.36223l0.0418,0.05573l0.05451,0.04673l0.00156,0.02804l0.24904,0.33206l0.7814,0.7814l0.07243,0.12071l0.11198,0.08531l1.20937,1.51172l0.02907,0.06341l0.0531,0.04523l0.70171,0.9824l0.69623,0.83547l0.08497,0.17602l0.13821,0.1382l0.27332,0.45555l0.275,0.1375l0.67434,0.16859l0.14987,0.26227c0.67674,-1.55793 1.43271,-3.11177 1.91092,-4.72613zM391.36321,165.55934l-0.00977,0.0293l-0.20441,0.81766v0.31144l0.18958,0.37917l0.01544,0.06948l0.22333,0.19143l0.06426,-0.25704l0.10074,-0.60446v-1.31615z" fill="#ffe6fd" stroke-width="0.5"/><g fill="#ffe6fd" stroke-width="0.5"><path d="M220.3304,153.47923c-0.64271,-7.36023 -1.05206,-14.70833 -2.32974,-22.00989c-2.05872,-11.76479 -4.93619,-23.31829 -6.81722,-35.1369c0,0 -0.42695,-2.68251 2.25556,-3.10946c2.68251,-0.42695 3.10947,2.25556 3.10947,2.25556c1.87514,11.78163 4.74289,23.29625 6.79809,35.02429c1.45099,8.28013 1.84294,16.61948 2.60343,24.97199l-0.09735,0.20927l0.09164,0.00608l-0.20092,3.03102c-0.09922,1.49687 -1.39311,2.62989 -2.88998,2.53066c-1.23682,-0.08199 -2.22523,-0.97959 -2.47536,-2.1334l-0.73181,-3.03379l0.84089,-0.20283l0.03652,-0.551l1.76313,0.11688l2.64054,-0.63695l0.19904,0.82517l0.7263,0.04815l-2.5883,5.56385l-3.61811,-5.16327c0,0 -0.38491,-1.59574 0.68419,-2.60544z"/><path d="M227.16991,151.09832c2.22821,-1.03043 3.37387,0.88424 3.57371,1.26222c5.2495,-2.00687 10.20358,-5.42469 12.8349,-10.61617c1.91412,-3.77648 2.73731,-10.40282 0.70883,-14.42135c-0.68883,-1.36462 -4.1675,-4.05082 -5.14188,-4.82695c-0.64724,-0.51555 -1.18595,-1.2715 -1.98318,-1.49308c-2.16195,-0.60088 -4.56027,-0.52528 -6.93959,-0.11275c-2.25321,1.75092 -4.19003,2.41173 -8.11094,2.44319l-0.62134,-0.03672c-0.57848,0.01002 -1.30248,-0.13167 -1.87289,-0.74296c-0.38407,-0.34444 -0.69808,-0.84848 -0.76812,-1.58508c-0.1405,-0.72647 0.01865,-1.29858 0.29001,-1.73735c0.37337,-0.74429 1.02425,-1.08466 1.5806,-1.23903c2.21926,-0.80782 4.65396,-1.59157 7.15411,-2.12587c0.40058,-0.39276 0.86067,-0.85515 1.42726,-1.39761c2.30739,-2.20915 6.00115,-4.17144 6.64665,-7.62732c1.23917,-6.63426 -4.80766,-13.21227 -11.27626,-14.15769c-3.31823,-0.48497 -6.44366,2.61922 -8.58725,4.5326c0,0 -2.04353,1.78945 -3.83298,-0.25407c-1.78945,-2.04352 0.25408,-3.83298 0.25408,-3.83298c3.43126,-2.95791 7.66814,-6.44024 12.65067,-5.85645c9.59841,1.12462 18.15668,11.077 16.09125,20.76357c-0.65655,3.0791 -2.60606,5.29367 -4.78532,7.30973c0.8457,0.11303 1.67885,0.28622 2.49331,0.52877c1.32987,0.39605 2.36155,1.4641 3.47395,2.29354c1.88401,1.4048 5.58044,4.46876 6.65788,6.61039c2.88181,5.72814 1.9799,14.04951 -0.72879,19.54696c-3.53932,7.18329 -10.96601,11.747 -18.25302,13.99379l-4.26089,-3.61576c0,0 -1.14012,-2.46542 1.32529,-3.60553zM228.81567,153.0318l-0.30411,0.09438c0.10138,-0.03095 0.20275,-0.06243 0.30411,-0.09438z"/><path d="M255.06542,131.12742c-0.29266,0.59898 -0.71788,0.97135 -0.71788,0.97135c-2.36571,1.91931 -3.79141,3.37916 -2.8902,6.76672c0.93597,3.51825 9.96661,6.20727 12.30296,3.65246c2.87962,-3.14891 3.07281,-10.3374 -1.58517,-12.08437c-2.33294,-0.87497 -4.79377,-0.21728 -7.1097,0.69385zM246.02437,132.94281c-0.00159,-0.00205 -0.00316,-0.00413 -0.00474,-0.0062c-1.64956,-2.15803 0.50849,-3.80759 0.50849,-3.80759l2.2696,-1.59961c4.57376,-1.7763 9.64841,-4.26594 14.67768,-2.19948c7.91848,3.25359 9.46413,15.1883 3.45368,20.97627c-5.49239,5.28909 -18.97466,1.66568 -21.31884,-5.8065c-0.9448,-3.01158 -0.64985,-5.42719 0.41415,-7.55689z"/><path d="M277.36321,145.13721l-3.84538,1.96051c-3.91261,-16.22032 -7.60377,-32.34941 -10.14053,-48.84194c0,0 -0.41258,-2.68476 2.27218,-3.09733c2.68475,-0.41258 3.09734,2.27218 3.09734,2.27218c2.27616,14.82499 5.50472,29.35211 8.97882,43.92013c1.77828,0.74926 1.48862,2.84273 1.48862,2.84273l-0.7197,0.36691c0.1013,0.42108 0.20274,0.84221 0.30434,1.26341z"/><path d="M270.94698,115.43879c-0.15789,-2.71167 2.55376,-2.86959 2.55376,-2.86959l0.71332,0.08655c2.81881,-1.079 5.80157,-1.43402 7.0338,-4.55746c1.82624,-4.62905 -1.08963,-10.90684 -4.7539,-13.50184c-0.35091,-0.2485 -3.33449,-2.01516 -4.05375,-1.8294c-0.47766,0.12337 -0.39539,0.91017 -0.6722,1.31852c-0.93711,1.38244 -1.59718,2.98651 -1.93274,4.62257c0,0 -0.60017,2.64914 -3.24931,2.04897c-2.64914,-0.60016 -2.04898,-3.24931 -2.04898,-3.24931c0.33225,-1.37159 0.42822,-2.82308 0.99676,-4.11474c2.81063,-6.38556 8.59011,-7.17584 14.03671,-3.27409c6.63095,4.75019 11.27832,17.78654 3.86633,24.3142c-1.18673,1.04513 -5.37635,2.5645 -7.2774,3.2949l-2.34283,0.26452c0,0 -2.71167,0.15789 -2.86958,-2.55378z"/><path d="M289.37879,96.85375c-2.64366,0.62391 -3.26757,-2.01973 -3.26757,-2.01973l-0.40767,-1.7553c-0.29393,-1.78683 -0.5879,-3.57367 -0.88182,-5.36051c0,0 -0.4409,-2.68025 2.23934,-3.12116c2.68026,-0.4409 3.12117,2.23934 3.12117,2.23934c0.29393,1.78683 0.58788,3.57366 0.88181,5.3605l0.33447,1.3893c0,0 0.62392,2.64365 -2.01972,3.26755z"/><path d="M293.47202,132.39888c1.6529,-2.15547 3.80837,-0.50257 3.80837,-0.50257l-0.5756,0.74559c2.18032,-0.37307 4.05658,-1.8996 5.73179,-3.34413c1.51623,-1.30742 4.51868,-2.86184 5.28961,-4.8857c0.78099,-2.05029 -0.51759,-5.60412 -1.99535,-7.10298c-4.29488,-4.35625 -13.62862,-5.02683 -15.36503,-11.65071c-1.62135,-6.185 3.12221,-15.64858 9.59737,-17.09814c2.04221,-0.45718 4.18131,0.18728 6.27196,0.28092c0,0 2.71032,0.17966 2.53066,2.88998c-0.17966,2.71032 -2.88998,2.53066 -2.88998,2.53066c-1.52312,-0.1459 -3.05708,-0.67056 -4.56934,-0.43771c-3.79534,0.5844 -6.23679,7.14861 -5.69305,10.42898c0.36315,2.19088 6.23974,4.07827 7.57276,4.80741c5.93108,3.2442 12.53537,9.31328 9.66032,17.16673c-1.40522,3.8385 -4.20664,4.96902 -6.93059,7.2427c-1.35293,1.12929 -2.39932,2.67034 -3.94086,3.52435c-1.24691,0.69079 -2.77713,0.64448 -4.16569,0.96671l-3.8348,-1.7537c0,0 -2.15546,-1.6529 -0.50256,-3.80838z"/></g><g fill="#ffe6fd" stroke-width="0.5"><path d="M347.08993,97.42269c-1.06652,-0.04032 -2.19627,-0.02317 -3.45492,0.03704c-1.68174,0.08045 -3.50785,-0.34722 -4.8551,0.9737c-5.44001,5.33371 -7.36256,12.49214 -8.89129,19.71216c-0.7252,3.42502 -1.62227,7.32568 -0.99505,10.8322c0.75694,4.23179 4.66721,6.81081 7.95811,8.8167c7.34566,1.48194 12.65341,-0.22303 18.97917,-3.841c2.38436,-1.36372 6.57783,-3.77576 7.90719,-6.41173c1.92681,-3.82058 1.16427,-13.01862 -0.55072,-16.73887c-1.96517,-4.26293 -8.99245,-7.05496 -12.78423,-9.07999l-2.01187,-1.10133c0,0 -2.0582,-1.12687 -1.30129,-3.19887zM357.35899,99.22612c4.24232,2.26381 8.75309,5.06755 10.65785,9.08915c2.30885,4.87477 1.55183,5.30044 1.65393,9.56866c0.09846,4.11532 0.82528,8.29638 -1.13041,12.19758c-1.80969,3.60992 -6.66749,6.65952 -9.99613,8.57839c-0.92291,0.53205 -8.57864,4.42009 -9.31846,4.62352c-4.44421,1.22203 -9.97989,0.51721 -14.38214,-0.44111c-4.92033,-3.01387 -10.01275,-6.45936 -11.25034,-12.67294c-0.8524,-4.2797 0.09325,-8.9551 0.98051,-13.14865c1.73965,-8.22231 4.1409,-17.07021 10.79094,-22.81211c2.74399,-2.36927 4.54625,-1.94773 7.95708,-2.17238c5.23944,-0.34507 9.03788,0.25363 13.96321,2.06875c0,0 2.54716,0.94347 1.60369,3.49063c-0.35595,0.96098 -0.94017,1.42511 -1.52975,1.63052z"/><path d="M370.05323,145.59466c-1.98299,1.85632 -3.8393,-0.12669 -3.8393,-0.12669l-1.01621,-1.12124c-5.67924,-4.64887 -11.29743,-9.73336 -15.38428,-15.86839c0,0 -1.50163,-2.26345 0.76183,-3.76508c2.26346,-1.50163 3.7651,0.76183 3.7651,0.76183c3.74745,5.67475 9.0371,10.39229 14.29131,14.66207l1.54823,1.6182c0,0 1.85632,1.98299 -0.12667,3.8393z"/><path d="M397.89751,139.5997c-0.92429,2.55419 -3.47847,1.62988 -3.47847,1.62988l-2.60283,-1.1485c-1.63592,-1.46408 -4.50136,-3.73442 -5.33132,-5.82783c-0.40655,-1.02544 -0.66307,-2.20976 -0.79181,-3.47112c-0.04388,0.05892 -0.08819,0.11756 -0.13289,0.17592c-3.24917,4.24158 -5.23824,7.4179 -10.26993,2.32719c-3.21542,-3.25315 -2.28062,-12.30786 -2.20515,-16.39281c0,0 0.05187,-2.71579 2.76764,-2.66392c2.71578,0.05187 2.66391,2.76764 2.66391,2.76764c-0.04926,2.49367 0.06182,4.98949 0.1993,7.47987c0.05129,0.92897 0.01472,1.86577 0.14058,2.78759c0.11643,0.85287 0.33743,1.69067 0.58341,2.51555c0.06655,0.2232 0.19297,0.78043 0.34747,0.60618c2.80304,-3.16132 4.41968,-8.58261 4.37846,-12.84095c-0.3988,-0.71701 -0.66546,-1.83509 0.399,-3.03002c1.80678,-2.02822 3.835,-0.22144 3.835,-0.22144l0.88137,1.59562c1.31763,-2.13833 3.11111,-4.1098 5.55172,-4.20638c5.13326,-0.20316 6.06168,5.06872 5.72942,8.35886c-0.34705,3.43659 -1.97425,8.04848 -5.46023,9.71212c-1.08636,0.51846 -2.36256,-0.0961 -3.58213,-0.3726c0.00432,0.12519 0.00873,0.24894 0.01312,0.37109c0.03025,0.84168 -0.2753,1.73514 0.01253,2.52666c0.24157,0.66434 3.78496,3.65855 3.88407,3.74638l0.83784,0.09659c0,0 2.55419,0.92428 1.62989,3.47848zM391.65524,123.92037c0.25937,0.01108 0.42653,0.04647 0.42653,0.04647c2.50327,1.36683 2.68947,-2.55211 3.077,-4.48548c0.15562,-0.77643 0.44494,-2.84996 -0.18379,-2.36853c-2.1234,1.62595 -2.992,4.17316 -3.31974,6.80755z"/><path d="M397.22224,142.37041c1.80678,-2.02821 3.835,-0.22144 3.835,-0.22144l-0.17482,-0.06911c2.07761,1.44797 3.81793,1.78884 6.14303,-0.36669c0.27342,-0.25348 -0.28748,-0.68805 -0.43083,-1.03225c-0.30237,-0.72606 -0.62874,-1.44261 -0.90629,-2.17849c-0.50229,-1.33163 -0.67505,-2.81727 -1.43258,-4.02213c-1.9645,-3.12453 -6.09585,-3.81659 -7.43896,-7.7617c-1.43183,-4.20566 1.2507,-9.28584 5.49982,-10.73276c2.6705,-0.90936 6.93117,-0.31954 9.71775,-0.08872c0,0 2.70664,0.2285 2.47815,2.93515c-0.2285,2.70664 -2.93514,2.47814 -2.93514,2.47814c-1.30676,-0.11261 -2.60965,-0.28747 -3.92028,-0.33781c-1.1088,-0.04259 -2.26329,-0.25197 -3.32832,0.05941c-0.59882,0.17507 -0.88407,0.88093 -1.34102,1.30571c-3.70207,3.44149 4.06591,6.46425 5.74608,9.06698c1.57184,2.43491 2.77537,5.22638 3.16411,8.09836c0.76701,5.66672 0.07148,5.45671 -5.26234,8.22305c-1.22404,0.63484 -2.55913,1.43794 -3.93012,1.29065c-1.65037,-0.17731 -2.98041,-1.46211 -4.47061,-2.19317l-0.79119,-0.61819c0,0 -2.02822,-1.80678 -0.22144,-3.835z"/><path d="M423.08991,146.21922c2.71386,-0.11428 2.82815,2.59959 2.82815,2.59959l0.1188,2.87821c-0.45619,2.54681 0.51926,5.87115 -1.36861,7.64041c-1.47046,1.37807 -4.0778,-0.13199 -6.00119,-0.73359c-4.25018,-1.32937 -7.57037,-7.56494 -8.53244,-11.54751c-2.8374,-11.74584 1.353,-26.54557 6.74524,-36.86908c0,0 1.26092,-2.40587 3.6668,-1.14496c2.40587,1.26092 1.14495,3.66679 1.14495,3.66679c-4.41514,8.3935 -7.14276,18.57322 -6.66789,28.11703c0.2168,4.3573 -0.11849,4.66271 1.86293,8.16382c0.71247,1.25893 1.46088,2.51743 2.41061,3.60854c0.43718,0.50225 1.21522,0.60616 1.67616,1.08669c0.30969,0.32287 0.62505,1.66706 0.54339,1.22719c-0.20338,-1.09531 -0.60832,-2.1434 -0.9125,-3.2151l-0.114,-2.64991c0,0 -0.11427,-2.71388 2.59959,-2.82816z"/><path d="M434.76356,126.90555c-1.30444,2.38255 -3.687,1.07811 -3.687,1.07811l-2.49784,-1.36947c-8.00074,-5.13829 -17.08086,-9.01971 -24.53168,-14.88356c0,0 -2.13083,-1.68456 -0.44626,-3.81539c1.68456,-2.13083 3.81538,-0.44626 3.81538,-0.44626c7.21554,5.73351 16.15677,9.47286 23.93706,14.47458l2.33223,1.27498c0,0 2.38255,1.30445 1.07809,3.687z"/></g><path d="M355.53382,190.32958c2.18225,1.21975 0.96249,3.40199 0.96249,3.40199l-1.69087,2.34212c-0.26576,0.15867 -0.55904,0.33832 -0.8755,0.53255c1.52105,1.01666 3.16051,1.87445 4.69565,2.63825c0,0 2.23627,1.11764 1.11862,3.35391c-1.11764,2.23627 -3.3539,1.11862 -3.3539,1.11862c-2.62227,-1.31587 -5.04503,-2.76184 -7.10172,-4.48254c-2.72217,1.31491 -5.67059,2.19471 -7.75625,1.04595c-1.40346,-0.77301 -2.04131,-2.55072 -2.56584,-4.0647c-0.41341,-1.19323 -0.1026,-2.52356 -0.1539,-3.78533c0.6768,-1.26947 1.07915,-2.72918 2.0304,-3.8084c0.16145,-0.18317 0.97304,-0.71612 1.9413,-1.32602c-0.00342,-0.03289 -0.00678,-0.06586 -0.01006,-0.09887c-0.33179,-3.34403 0.34756,-7.63541 3.36254,-9.82637c1.35505,-0.9847 3.05762,-2.36401 4.66079,-1.87858c1.71942,0.52063 2.6276,2.60496 3.2739,4.28118c1.91046,4.95487 -2.14091,7.38038 -5.82807,9.75915c0.32708,1.31687 0.93561,2.48241 1.73296,3.52362c0.75228,-0.39664 1.5024,-0.81824 2.26325,-1.27385l-0.10778,-0.49019c0,0 1.21976,-2.18224 3.402,-0.96249zM345.53617,195.1248c-0.49928,-0.7478 -0.94169,-1.53991 -1.32052,-2.38215c-0.2017,0.25281 -0.37826,0.51394 -0.52498,0.78521c0.05609,0.7799 -0.55074,2.0861 0.18946,2.33806c0.40639,0.13834 0.77038,-0.38085 1.16837,-0.54178c0.1637,-0.06619 0.32622,-0.13261 0.48767,-0.19934zM347.82494,183.93852c0.59729,-0.52949 1.17093,-1.145 1.40616,-1.70406c0.08411,-0.19991 0.0709,-0.48929 0.04093,-0.78267c-0.32171,0.49191 -0.74313,0.92516 -1.02399,1.44267c-0.18601,0.34274 -0.32417,0.69122 -0.42311,1.04407z" fill="#ffe6fd" stroke-width="0.5"/><g fill="#ffe6fd" stroke-width="0.5"><path d="M302.18816,179.42142c-0.16821,2.49434 -2.66254,2.32612 -2.66254,2.32612l-0.63133,-0.07667c-5.19928,0.50416 -10.649,0.71696 -15.69054,-0.71356c0,0 -2.40077,-0.69736 -1.70341,-3.09813c0.69736,-2.40077 3.09813,-1.70341 3.09813,-1.70341c4.36687,1.30534 9.29537,0.98752 13.80755,0.539l1.45604,0.0641c0,0 2.49432,0.16822 2.32611,2.66255z"/><g><path d="M264.18656,203.53673c2.13693,1.29752 0.8394,3.43445 0.8394,3.43445l-1.18865,1.51236c-2.56458,1.68875 -6.97256,4.29069 -10.15466,1.98957c-1.10609,-0.79986 -1.03797,-2.52519 -1.58499,-3.77578c-0.36122,-0.82583 -0.87616,-1.5903 -1.13928,-2.45242c-2.20804,-7.23488 -1.61491,-15.95178 -2.35202,-23.43462c0,0 -0.24414,-2.48806 2.24391,-2.73219c2.48805,-0.24414 2.73219,2.24391 2.73219,2.24391c0.56867,5.81689 0.972,11.65133 1.54183,17.47382c0.27752,2.83577 0.93848,4.50651 1.64934,7.1308c0.13947,0.51488 -0.2978,1.14435 -0.0207,1.60018c0.19751,0.3249 4.14934,-2.09226 4.2953,-2.19306l-0.29611,0.04242c0,0 1.29752,-2.13693 3.43444,-0.83941z"/><path d="M295.09443,204.97671c-2.39186,0.72735 -3.11919,-1.66451 -3.11919,-1.66451l-0.60643,-2.16109c-0.61525,-6.28789 -0.64585,-12.67503 -2.0065,-18.86266c0,0 -0.53317,-2.44249 1.90931,-2.97566c2.44248,-0.53317 2.97566,1.90931 2.97566,1.90931c1.38589,6.39128 1.45891,12.95087 2.09762,19.44073l0.41404,1.19468c0,0 0.72735,2.39185 -1.66451,3.1192z"/><path d="M274.80664,177.80958c2.45918,-0.44992 2.90911,2.00926 2.90911,2.00926l0.34745,1.91606c0.64396,2.75225 1.92021,5.6945 1.88192,8.55358c-0.03499,2.61325 -0.83412,5.93688 -1.08655,8.5875c-0.19472,2.04467 -0.94842,6.53017 -3.08621,7.41972c-2.97929,1.23971 -5.86827,-2.10806 -7.15642,-4.01106c-3.50569,-5.17893 -5.37153,-13.28625 -5.98191,-19.39494c0,0 -0.24414,-2.48805 2.24391,-2.73219c2.48805,-0.24414 2.73219,2.24391 2.73219,2.24391c0.4327,4.50182 1.84041,8.61589 3.42151,12.84063c0.38526,1.02943 1.17101,3.31636 1.78814,4.33561c0.18661,0.30821 0.45872,0.55886 0.70496,0.82581c-0.08675,-1.68777 0.3615,-4.40312 0.41345,-4.94718c0.16929,-1.77289 0.95829,-3.46672 1.00757,-5.24698c0.06468,-2.33678 -1.22185,-5.08372 -1.75047,-7.33274l-0.3979,-2.15789c0,0 -0.44992,-2.45918 2.00926,-2.9091z"/><path d="M323.3481,188.68219c0.24414,2.48805 -2.24391,2.73219 -2.24391,2.73219l-1.71147,0.16794c-2.69865,0.26096 -5.34693,0.27449 -8.03362,0.36474c-0.34427,1.99737 -0.77829,4.10747 -1.35804,5.93233c-0.12598,0.39655 -0.60922,0.69334 -0.57481,1.10799c0.01869,0.22507 0.4269,-0.16109 0.65127,-0.18675c0.71017,-0.08123 1.42786,-0.0744 2.14029,-0.13257c0.83107,-0.06787 1.65963,-0.16366 2.48945,-0.2455l1.10398,-0.91389c0,0 2.15674,-1.26431 3.42105,0.89243c1.26431,2.15674 -0.89244,3.42104 -0.89244,3.42104l-3.14432,1.57652c-2.96548,0.28962 -8.00692,1.45395 -10.04864,-1.82532c-1.01612,-1.63201 0.16531,-5.41482 0.53918,-7.23499c1.06241,-5.17237 1.47336,-10.14754 1.5747,-15.39673c-0.44912,-0.46587 -0.77846,-1.18463 -0.50869,-2.26265c0.6069,-2.42522 3.03212,-1.81831 3.03212,-1.81831c3.88882,0.99068 7.80273,0.67795 11.78368,0.98194l2.16015,0.3567c0,0 2.46462,0.41912 2.04551,2.88374c-0.41911,2.46462 -2.88374,2.04551 -2.88374,2.04551l-1.70585,-0.30071c-3.02731,-0.23524 -5.97872,-0.17864 -8.93241,-0.4909c-0.0221,2.19487 -0.05654,4.40335 -0.22882,6.59301c2.29642,-0.06099 4.57281,-0.09354 6.88169,-0.32371l1.71147,-0.16793c0,0 2.48805,-0.24414 2.73219,2.24391z"/><g><path d="M245.96937,182.47714c0.72735,2.39185 -1.6645,3.1192 -1.6645,3.1192l-1.19172,0.33504c-3.2456,0.49097 -6.52651,0.94154 -9.80746,1.12751c-0.64276,0.03644 -1.37371,-0.34056 -1.93128,-0.01872c-0.28808,0.16629 0.52468,0.45094 0.64583,0.76072c0.58787,1.50326 0.75006,3.15595 1.38403,4.64036c3.02983,7.09413 6.48732,14.16552 8.27078,21.72106c0,0 0.57083,2.43395 -1.86313,3.00478c-2.43396,0.57083 -3.00479,-1.86312 -3.00479,-1.86312c-1.94993,-8.37468 -6.63643,-15.69188 -9.05715,-23.8544c-0.4489,-1.51368 -1.51553,-5.98342 -0.52057,-7.20562c1.16454,-1.4305 3.34495,-1.60067 5.12255,-2.09324c3.03139,-0.83999 6.86689,-0.68539 10.01204,-1.16287l0.48617,-0.1752c0,0 2.39185,-0.72734 3.1192,1.66451z"/><path d="M242.21747,196.92138c0.64985,2.41406 -1.76421,3.06391 -1.76421,3.06391l-1.86252,0.49575c-1.95754,0.66807 -3.91959,1.32305 -5.88526,1.96681c0,0 -2.37584,0.77806 -3.1539,-1.59778c-0.77806,-2.37584 1.59778,-3.1539 1.59778,-3.1539c1.94601,-0.63727 3.88843,-1.28567 5.82636,-1.94712l2.17784,-0.59189c0,0 2.41406,-0.64985 3.06391,1.76421z"/></g></g></g><path d="M380.32093,204.55479c-2.5,0 -2.5,-2.5 -2.5,-2.5l0.07465,-1.46618c0.93469,-3.73755 1.7684,-7.49213 2.76127,-11.21582c0,0 0.64416,-2.41558 3.05975,-1.77143c2.41559,0.64416 1.77143,3.05974 1.77143,3.05974c-0.98636,3.69843 -1.81392,7.42772 -2.74174,11.14019l0.07464,0.2535c0,0 0,2.5 -2.5,2.5z" fill="#ffe6fd" stroke-width="0.5"/><path d="M382.29213,182.10636c0,-1.38071 1.11929,-2.5 2.5,-2.5c1.38071,0 2.5,1.11929 2.5,2.5c0,1.38071 -1.11929,2.5 -2.5,2.5c-1.38071,0 -2.5,-1.11929 -2.5,-2.5z" fill="#ffe6fd" stroke-width="0.5"/><path d="M402.75696,188.39243c0.24876,2.48759 -2.23883,2.73635 -2.23883,2.73635l-1.96845,0.18437c-0.01674,-0.00001 -0.03347,-0.00001 -0.05019,-0.00003c-0.67293,3.61657 -1.45321,7.21687 -2.1358,10.85845l0.04282,0.91503c0,0 0,2.5 -2.5,2.5c-2.5,0 -2.5,-2.5 -2.5,-2.5l0.04282,-1.83647c0.63874,-3.40562 1.37309,-6.77529 2.01709,-10.15774c-1.14634,-0.11364 -2.29671,-0.27945 -3.48959,-0.51566c0,0 -2.45145,-0.49029 -1.96116,-2.94174c0.49029,-2.45145 2.94174,-1.96116 2.94174,-1.96116c1.15865,0.23434 2.26049,0.3869 3.36085,0.48398c0.32051,-2.12946 0.57047,-4.27316 0.70447,-6.443c0,0 0.15595,-2.49513 2.65108,-2.33918c2.49513,0.15595 2.33918,2.65107 2.33918,2.65107c-0.13189,2.08696 -0.36448,4.15004 -0.66131,6.19946l0.66892,-0.07256c0,0 2.48759,-0.24876 2.73636,2.23883z" fill="#ffe6fd" stroke-width="0.5"/><path d="M410.8807,179.29849c2.12,1.325 0.795,3.44499 0.795,3.44499l-0.97984,1.55076c-1.0408,1.38722 -2.05305,2.7962 -3.03996,4.22226c0,0 -1.42302,2.05548 -3.4785,0.63245c-2.05548,-1.42302 -0.63246,-3.4785 -0.63246,-3.4785c1.02341,-1.47773 2.07267,-2.93801 3.15093,-4.37621l0.73985,-1.20075c0,0 1.325,-2.11999 3.445,-0.795z" fill="#ffe6fd" stroke-width="0.5"/><path d="M398.3777,201.44646c0.83549,0 1.39176,0.27921 1.76213,0.65103c2.15236,0.7904 4.28289,1.58883 6.63559,1.12872c0.86023,-0.16824 2.20851,-0.19974 2.4096,-1.05289c0.26313,-1.11635 -1.65472,-1.63712 -2.19818,-2.64714c-2.44722,-4.54808 -3.35768,-5.52661 2.05996,-7.95944c0.99184,-0.44539 2.1736,-0.063 3.2604,-0.0945c0,0 2.5,0 2.5,2.5c0,2.5 -2.5,2.5 -2.5,2.5c-0.5226,-0.02601 -1.05369,0.01438 -1.57223,-0.04331c2.0845,1.40007 3.89038,4.50692 3.31865,6.88309c-1.77326,7.36989 -11.95777,4.74838 -16.50181,3.16605l-1.67412,-2.53162c0,0 0,-2.5 2.5,-2.5z" fill="#ffe6fd" stroke-width="0.5"/><g fill="#ffe6fd" stroke-width="0.5"><path d="M330.80691,230.17792c-2.49136,-0.20762 -2.28375,-2.69898 -2.28375,-2.69898l0.20615,-2.31674c0.50272,-2.67216 1.19374,-5.27495 1.72542,-7.94016c0,0 0.49029,-2.45145 2.94174,-1.96116c2.45145,0.49029 1.96116,2.94174 1.96116,2.94174c-0.53031,2.64521 -1.21847,5.22876 -1.71397,7.88102l-0.13778,1.81052c0,0 -0.20762,2.49137 -2.69898,2.28376z"/><path d="M329.71831,211.00554c0,-1.38071 1.11929,-2.5 2.5,-2.5c1.38071,0 2.5,1.11929 2.5,2.5c0,1.38071 -1.11929,2.5 -2.5,2.5c-1.38071,0 -2.5,-1.11929 -2.5,-2.5z"/><path d="M347.83743,230.61437c-2.41191,0.65779 -3.0697,-1.75412 -3.0697,-1.75412l-0.56117,-2.08873c-0.15733,-0.85314 -0.26082,-1.71799 -0.47199,-2.55942c-0.15886,-0.63298 -0.35521,-1.26242 -0.63513,-1.85196c-2.40326,-5.06162 -1.75518,5.4074 -1.85182,6.86846c0,0 -0.1663,2.49447 -2.66076,2.32817c-2.49446,-0.1663 -2.32816,-2.66076 -2.32816,-2.66076c0.2169,-3.22664 -0.84779,-10.93861 3.02653,-12.69569c6.70235,-3.03966 9.01084,5.31262 9.8357,9.64977l0.47064,1.69459c0,0 0.65779,2.41191 -1.75412,3.0697z"/><path d="M361.3504,234.70143c-2.37171,-0.79057 -1.58114,-3.16227 -1.58114,-3.16227l0.13986,-0.41214c0.77436,-2.46261 0.34151,-3.84288 -0.34042,-6.35285c-0.20412,-0.7513 -1.00119,-4.52869 -1.35654,-1.33234c-0.09564,0.86023 -0.08722,1.72908 -0.10699,2.59439c-0.01876,0.82115 -0.0843,1.64621 -0.00857,2.46408c0.08454,0.91296 0.32493,1.80472 0.48739,2.70708c0,0 0.43446,2.46196 -2.02749,2.89642c-2.46196,0.43446 -2.89642,-2.02749 -2.89642,-2.02749c-0.6091,-3.51291 -1.9124,-10.75482 1.43759,-13.43406c3.63266,-2.90532 5.7809,-1.64152 8.1381,1.53908c2.37035,3.19834 2.42991,8.76446 1.48097,12.31929l-0.20407,0.61968c0,0 -0.79057,2.3717 -3.16228,1.58113z"/><path d="M377.16592,221.02748c1.5,-2 3.5,-0.5 3.5,-0.5l2.37088,2.87587c0.14044,3.55561 -0.54284,7.62392 -3.80542,9.93733c-2.95853,2.09782 -8.55793,1.36087 -10.71553,-1.64597c-2.12003,-2.95449 -0.6188,-9.0227 -0.62037,-12.43465c0,0 0,-2.5 2.5,-2.5c2.5,0 2.5,2.5 2.5,2.5c-0.00085,1.94627 -0.04404,3.8944 -0.17717,5.83611c-0.08533,1.24462 -0.75632,2.68082 -0.09927,3.74131c0.45254,0.73041 3.10266,0.96097 3.72989,0.41767c1.65824,-1.43634 1.89065,-3.58818 1.69759,-5.53991l-0.38062,0.81224c0,0 -2,-1.5 -0.5,-3.5z"/><path d="M396.11134,233.70548c0,2.5 -2.5,2.5 -2.5,2.5l-3.39236,-0.20213c-2.49055,-1.07513 -7.61475,-3.10992 -8.84161,-5.69972c-2.74322,-5.79068 5.58528,-13.65542 11.22517,-11.93706c5.35055,1.6302 4.99162,6.84322 1.62306,10.17617c-1.69856,1.68061 -2.65694,2.08284 -3.92593,2.11979c0.73872,0.29146 1.41462,0.54353 1.88891,0.74509l1.42277,-0.20214c0,0 2.5,0 2.5,2.5zM387.07805,225.56265c0.29464,-0.04002 0.49835,-0.02729 0.49835,-0.02729c2.53393,0.30752 3.17229,-0.31519 4.39238,-2.4468c0.07819,-0.1366 -0.29021,0.1273 -0.44408,0.16045c-0.54014,0.11637 -1.11366,0.09715 -1.63257,0.28693c-1.29779,0.47466 -2.17156,1.10995 -2.81408,2.0267z"/><path d="M419.94052,236.00226c0.09026,-1.41845 0.07105,-3.06118 -0.92679,-3.57921c-0.73789,-0.38307 -2.28332,1.45018 -2.27533,2.09928c0.01036,0.84184 2.18288,1.39448 2.23864,1.41829zM416.74098,240.41275c-1.91285,-1.03871 -3.60064,-1.53558 -4.44635,-3.28393c-0.06975,0.23176 -0.14312,0.46224 -0.21987,0.69126c-0.10051,0.67972 -0.54089,2.16872 -2.47027,2.16872c-2.5,0 -2.5,-2.5 -2.5,-2.5l0.14565,-1.01281c1.14004,-3.13237 1.16201,-5.75185 -0.08803,-8.94669c-1.82539,-4.66531 -3.10562,1.30346 -3.14126,2.98219c-0.03508,1.65238 0.11768,3.30793 0.32571,4.94753c0,0 0.31009,2.48069 -2.17061,2.79078c-2.4807,0.31008 -2.79078,-2.1706 -2.79078,-2.1706c-0.59015,-4.78529 -1.4959,-14.03606 5.27916,-15.31947c3.50185,-0.66336 5.70098,2.07112 7.03859,4.6765c0.8571,1.66945 1.29525,3.4288 1.41379,5.2062c1.76133,-2.40406 4.91835,-3.96 7.71483,-2.87723c0.45211,0.17505 0.914,0.50431 1.36233,0.94527c0.83535,-4.44961 1.49964,-8.95548 2.32232,-13.35052c0,0 0.46072,-2.45718 2.9179,-1.99646c2.45718,0.46072 1.99646,2.9179 1.99646,2.9179c-1.42738,7.59933 -2.41077,15.49873 -4.52458,22.92603l-0.67269,2.35442c-0.28053,1.07387 -1.25721,1.86634 -2.41899,1.86634c-1.38071,0 -2.5,-1.11929 -2.5,-2.5c0,-0.01424 0.00012,-0.02845 0.00036,-0.04263z"/><path d="M433.48781,237.26149c-0.67082,0.51753 -1.23652,1.20001 -2.1806,2.27439c-0.23194,0.26396 -0.76031,0.32659 -0.81018,0.67442c-0.05702,0.39762 4.27531,1.74329 4.81329,0.82331c0.46689,-0.79842 -0.62141,-2.38964 -1.8225,-3.77212zM437.81395,235.00155c2.82157,4.10976 4.22935,9.29819 -2.21392,11.29019c-3.52902,1.09103 -9.51036,-1.84163 -10.08666,-5.67748c-0.204,-1.3578 0.92012,-2.6024 1.59738,-3.79678c0.86239,-1.52087 1.87694,-2.60782 3.05539,-3.44659c-0.01165,-0.11184 -0.01778,-0.22949 -0.01778,-0.35328c0,-2.5 2.5,-2.5 2.5,-2.5l1.85365,0.65015c0.0377,0.03478 0.07554,0.06998 0.11352,0.10558c0.12635,-0.04228 0.25389,-0.08426 0.3826,-0.12603c0,0 2.3862,-0.74568 3.13189,1.64052c0.31511,1.00834 0.07096,1.72374 -0.31606,2.21372z"/></g><g fill="#ffe6fd" stroke-width="0.5"><path d="M300.1643,229.01118c-2,1.5 -3.5,-0.5 -3.5,-0.5l-0.55024,-0.73478c-0.32081,-0.44926 -0.67135,-0.85982 -1.01522,-1.24993c-0.29341,2.80555 -1.10903,5.74013 -3.60073,6.21984c-3.65362,0.70342 -7.35953,-6.81929 -6.80388,-9.50921c0.68289,-3.30588 3.32681,-4.81365 6.14733,-5.4965c0.45736,-0.58901 1.1723,-0.96805 1.97578,-0.96805c0.61444,0 1.17712,0.22167 1.61241,0.5894c0.74922,0.15904 1.81437,0.66798 1.91454,2.27057c0.00185,0.02969 0.00333,0.05904 0.00445,0.08807l0.32606,0.41499l-0.26398,0.20741c1.2853,1.21763 2.35304,2.54136 3.7719,4.52722l0.48158,0.64097c0,0 1.5,2 -0.5,3.5zM290.26181,223.18413c-0.32015,0.26636 -0.56092,0.6134 -0.67133,1.06629c-0.07196,0.2952 0.19679,0.71804 0.53447,1.17289c0.01165,-0.13294 0.02272,-0.25572 0.03114,-0.36291c0.04902,-0.62453 0.07829,-1.25034 0.10573,-1.87627z"/><path d="M311.11536,232.1344c-2.37171,-0.79057 -1.58114,-3.16227 -1.58114,-3.16227l0.38762,-0.75716c0.01453,-1.76407 0.31115,-4.07826 -1.31691,-5.32979c-0.34224,-0.26309 -1.62885,-0.74618 -2.08426,-0.19769c-0.6889,0.82971 0.5105,5.13964 0.62452,5.7809c0,0 0.43446,2.46195 -2.0275,2.89642c-2.46196,0.43446 -2.89642,-2.02749 -2.89642,-2.02749c-0.48777,-2.78317 -1.84598,-7.65565 0.62451,-10.04028c3.70691,-3.57808 9.01856,-1.51055 11.11727,2.45499c1.16952,2.20983 0.94369,4.13719 0.9588,6.46295l-0.6442,2.33829c0,0 -0.79057,2.37171 -3.16228,1.58114z"/></g><g fill="#ffe6fd" stroke-width="0.5"><path d="M233.60959,214.15194c2.48704,0.25422 2.23282,2.74126 2.23282,2.74126l-0.14192,1.2765c-1.18989,5.88078 0.10647,12.06395 -0.85232,17.84618l0.18488,2.91762c0.08731,1.37795 -0.95894,2.56579 -2.33689,2.6531c-0.96811,0.06134 -1.84238,-0.43686 -2.30708,-1.21651l-1.3156,-2.1114l0.02367,-0.01475l-0.06068,-0.0466c-1.54006,-2.81805 -3.01095,-5.62587 -4.61446,-8.39686c0.68118,3.16598 1.62559,6.26261 3.02662,9.20023c0,0 1.07341,2.25783 -1.18442,3.33124c-2.25782,1.07341 -3.33124,-1.18442 -3.33124,-1.18442c-2.55447,-5.3887 -3.76621,-11.20534 -4.53544,-17.10174l0.01838,-0.08453l-0.02502,0.00159l-0.17401,-2.746v0c-0.08731,-1.37795 0.95895,-2.56578 2.33689,-2.65309c0.62509,-0.03961 1.21106,0.15406 1.67292,0.50615l2.52212,1.89886l-0.02447,0.0325c0.12945,0.09133 0.25553,0.18808 0.3778,0.29097c1.39567,1.1744 1.91024,3.10796 2.8603,4.66504c0.64897,1.06362 1.26685,2.13625 1.86852,3.21504c0.13273,-4.03512 0.18018,-8.00722 0.96655,-11.98281l0.07082,-0.80475c0,0 0.25422,-2.48703 2.74126,-2.23281z"/><path d="M247.92861,219.52529c-3.0104,0.22663 -4.11232,5.99642 -4.29239,8.68565c-0.10414,1.55528 -0.84355,3.32042 -0.07354,4.67571c1.69128,2.97681 5.65789,3.36938 7.12342,0.33623c1.67193,-3.4603 0.58972,-8.5247 -2.02246,-11.12548l-0.73388,-2.41875c0,0 -0.00358,-0.05662 -0.00115,-0.15337zM251.04535,217.06988c1.75091,0.34387 1.87441,2.29258 1.87441,2.29258l-0.39692,-0.44604c2.86091,3.28946 4.54588,8.08446 3.87969,12.57691c-0.83573,5.63575 -4.87798,10.1247 -10.78987,8.40492c-8.58854,-2.49841 -8.50586,-12.38013 -5.20033,-19.10511c0.63768,-1.29732 2.97892,-5.31502 4.24372,-5.96462c1.15544,-0.59343 2.59144,-0.18239 3.88716,-0.27358c0,0 2.5,-0.00216 2.50216,2.49784c0,0.00571 0,0.01141 -0.00002,0.0171z"/><path d="M268.61665,239.8323c-2.28062,1.02409 -3.30471,-1.25654 -3.30471,-1.25654l-0.81625,-2.20636c-0.39313,-6.20407 -1.29052,-12.25138 0.36931,-18.11565c-2.34357,-0.42618 -4.70429,-0.74201 -7.09702,-0.85224c0,0 -2.4972,-0.11839 -2.37881,-2.61559c0.11839,-2.4972 2.61559,-2.3788 2.61559,-2.3788c3.23223,0.1572 6.40289,0.65175 9.55133,1.28886c0.48588,-0.16003 1.09159,-0.16085 1.82088,0.18588c0.20184,0.09597 0.37706,0.2014 0.5288,0.31384c2.28467,0.50648 4.56278,1.06274 6.84949,1.59374l-1.30419,2.50769l0.17318,2.36272c-0.41665,-0.09676 -0.83311,-0.19467 -1.24947,-0.29322l-0.03152,0.06061c0,0 -0.29035,-0.05334 -0.65316,-0.22314c-1.31876,-0.31379 -2.63702,-0.63079 -3.95747,-0.93358c-1.71959,5.32085 -0.60046,11.20392 -0.24695,16.78267l0.38751,0.47439c0,0 1.02409,2.28063 -1.25654,3.30472z"/></g><g fill="#ffffff" stroke-width="0.5"><path d="M337.76124,246.77578c0.60634,2.42536 -1.81902,3.0317 -1.81902,3.0317l-1.40395,0.27405c-1.85703,0 -3.69066,-0.06797 -5.51762,-0.17109c-0.17937,2.16663 -0.3732,4.3528 -0.35727,6.64419c0,0 0,2.5 -2.5,2.5c-2.5,0 -2.5,-2.5 -2.5,-2.5c0.01348,-2.41358 0.26848,-4.70462 0.46959,-6.981c-1.3039,-0.09966 -2.612,-0.20231 -3.93037,-0.29606c0,0 -2.49365,-0.17812 -2.31553,-2.67176c0.17812,-2.49365 2.67176,-2.31553 2.67176,-2.31553c1.27979,0.09181 2.54894,0.19227 3.81365,0.28987c-0.02159,-1.46026 -0.15051,-2.946 -0.46116,-4.48441l-0.04855,-1.6867c0,0 0,-2.5 2.5,-2.5c2.5,0 2.5,2.5 2.5,2.5l-0.04855,0.70612c0.39776,2.00615 0.51419,3.9234 0.49241,5.80643c1.73173,0.09675 3.47028,0.15994 5.23162,0.15994l0.19127,-0.12476c0,0 2.42536,-0.60634 3.0317,1.81902z"/><path d="M339.43249,255.9203c0.31753,-3.09135 0.16792,-6.19782 0.38882,-9.3145c0,0 0.17812,-2.49365 2.67176,-2.31553c2.49365,0.17812 2.31553,2.67176 2.31553,2.67176c-0.26989,3.74755 -0.05835,7.44839 -0.62092,11.16914l-3.66244,-0.86773l-1.27942,0.10745c0.02074,-0.13217 0.04038,-0.26437 0.05899,-0.3966l-0.08806,-0.02086c0,0 0,-0.4882 0.21574,-1.03313z"/><path d="M340.81196,241.79886c0,-1.38071 1.11929,-2.5 2.5,-2.5c1.38071,0 2.5,1.11929 2.5,2.5c0,1.38071 -1.11929,2.5 -2.5,2.5c-1.38071,0 -2.5,-1.11929 -2.5,-2.5z"/><path d="M365.645,258.45641c-2.5,0 -2.5,-2.5 -2.5,-2.5v-0.1994c0.00234,-0.77057 0.52636,-4.24925 -0.68339,-4.80677c-0.45968,-0.21185 -0.74257,-0.07147 -0.91371,0.22962c0.15816,0.76353 0.21862,1.56621 0.40173,2.31975l-0.10867,0.26338h0.12259v2.59223c0,1.38071 -1.11929,2.5 -2.5,2.5c-1.20482,0 -2.21057,-0.85227 -2.44728,-1.98682l-0.58691,-2.54326l0.06148,-0.01419c-0.0384,-0.08733 -0.07493,-0.17566 -0.10944,-0.26507c-0.28553,-0.73967 -0.38454,-1.49096 -0.33063,-2.22259c-0.76025,-1.27188 -1.87567,-2.40357 -2.93669,-1.59098c-0.9786,0.74946 -0.32302,5.4084 -0.32302,6.12291c0,0 0,2.5 -2.5,2.5c-2.5,0 -2.5,-2.5 -2.5,-2.5c0,-3.3386 -1.00004,-7.98145 2.46861,-10.22807c2.76811,-1.79288 6.15371,-0.92473 8.57026,1.04326c1.49298,-1.06115 3.39398,-1.53451 5.21283,-0.96359c4.39707,1.38021 4.09321,6.08976 4.10226,9.55018v0.1994c0,0 0,2.5 -2.5,2.5z"/><path d="M375.07005,252.14899c0.05403,0.01297 0.08386,0.02215 0.08386,0.02215c0.52356,0.2345 0.99852,0.66174 1.57067,0.70351c1.95444,0.14269 0.95534,-4.65476 -0.86014,-2.61311c-0.2855,0.32107 -0.54875,0.68917 -0.66925,1.10158c-0.07697,0.26341 -0.11736,0.526 -0.12514,0.78587zM379.51151,257.01934c0.48234,0.14106 0.9611,0.21745 1.41119,0.21713c1.17149,-1.13471 2.78952,-0.3257 2.78952,-0.3257l0.07134,4.80718c-1.12021,0.30654 -2.20311,1.01452 -3.36062,0.91961c-6.6873,-0.5483 -14.91934,-10.57938 -7.84879,-16.14085c1.2362,-0.97235 2.7861,-1.88987 4.35691,-1.81114c6.77423,0.33954 7.50505,9.35967 2.58045,12.33377z"/></g><g fill="#ffffff" stroke-width="0.5"><path d="M291.42307,258.94762c-2.48089,0.30854 -2.78943,-2.17235 -2.78943,-2.17235l0.0874,0.16426c-0.68906,-1.92937 -0.78659,-2.74994 -1.80035,-4.20406l-0.73324,1.6076c-0.34136,0.78292 -1.07539,1.37066 -1.98441,1.48371c-1.37016,0.1704 -2.61902,-0.80219 -2.78943,-2.17235l-0.37976,-3.05356l-0.14324,0.10113c-1.81728,0.81456 -3.64092,1.47448 -5.48969,2.05664c0.30287,1.8276 0.5465,3.67765 0.78125,5.56518l-4.80898,1.32284c0,0 -0.72033,-1.08195 -0.34204,-2.20496c-0.14349,-1.11316 -0.29404,-2.21375 -0.46539,-3.30533c-0.3566,0.09455 -0.71464,0.18868 -1.07425,0.28292c0,0 -2.41835,0.63371 -3.05206,-1.78463c-0.63371,-2.41835 1.78463,-3.05206 1.78463,-3.05206c0.45971,-0.12046 0.91664,-0.24031 1.37109,-0.36088c-0.33388,-1.34611 -0.73336,-2.68652 -1.22561,-4.02828c0,0 -0.85849,-2.34798 1.48949,-3.20647c2.34798,-0.85849 3.20647,1.48949 3.20647,1.48949c0.52969,1.45322 0.96394,2.90426 1.32947,4.36111c1.49477,-0.48475 2.97314,-1.03284 4.44665,-1.69644l0.81244,-0.68427c0,0 0.03177,-0.0238 0.09031,-0.06139c-0.31309,-1.00365 -0.66568,-2.0083 -1.06819,-3.0468c0,0 -0.90103,-2.33198 1.43095,-3.23301c2.33198,-0.90103 3.23301,1.43095 3.23301,1.43095c0.85309,2.21431 1.5084,4.31671 2.04221,6.52505c0.75513,0.07165 1.81081,0.33797 3.26563,0.8597c2.91294,1.04464 3.84542,4.8668 4.76156,7.27108l0.18583,0.95577c0,0 0.30854,2.48089 -2.17235,2.78943z"/><path d="M295.62952,253.85085c0.21716,-1.53364 0.41201,-3.07064 0.57087,-4.61125c0,0 0.25721,-2.48673 2.74395,-2.22952c2.48673,0.25721 2.22952,2.74395 2.22952,2.74395c-0.18085,1.74328 -0.41038,3.48239 -0.69386,5.21197l0.33646,2.7054c0.1704,1.37016 -0.80219,2.61902 -2.17235,2.78943c-1.25511,0.15609 -2.40844,-0.64692 -2.72426,-1.83605l-0.70508,-2.48584c0,0 -0.3761,-1.32597 0.41475,-2.28809z"/><path d="M293.83571,243.67014c-0.1704,-1.37016 0.80219,-2.61902 2.17235,-2.78943c1.37016,-0.1704 2.61902,0.80219 2.78943,2.17235c0.1704,1.37016 -0.80219,2.61902 -2.17235,2.78943c-1.37016,0.1704 -2.61902,-0.80219 -2.78943,-2.17235z"/><path d="M301.9448,256.1316c0.49182,-2.45115 2.94297,-1.95932 2.94297,-1.95932l0.24676,0.24933c0.03181,-0.00452 0.06566,-0.00956 0.1013,-0.01503c-0.6291,-0.40677 -1.21712,-0.97042 -1.53101,-1.44855c-0.95783,-1.45901 -2.16417,-3.37948 -1.53277,-5.00658c0.79255,-2.0424 5.66966,-2.30917 7.46096,-2.53611c0,0 2.48089,-0.30854 2.78943,2.17235c0.30854,2.48089 -2.17235,2.78943 -2.17235,2.78943c-0.30488,0.03711 -0.60957,0.0969 -0.91425,0.15697c1.57857,1.07115 3.16647,2.7481 3.12609,3.95786c-0.13619,4.07988 -3.80423,4.22778 -6.33159,4.82951l-2.22621,-0.24687c0,0 -2.45115,-0.49182 -1.95932,-2.94297z"/></g></g></g></svg>