<svg version="1.1" xmlns="http://www.w3.org/2000/svg" xmlns:xlink="http://www.w3.org/1999/xlink" width="97.88579" height="97.88579" viewBox="0,0,97.88579,97.88579"><g transform="translate(-271.0571,-131.05711)"><g data-paper-data="{&quot;isPaintingLayer&quot;:true}" fill-rule="nonzero" stroke-linejoin="miter" stroke-miterlimit="10" stroke-dasharray="" stroke-dashoffset="0" style="mix-blend-mode: normal"><path d="" fill="#8b65ae" stroke="#5c00aa" stroke-width="2.5" stroke-linecap="butt"/><path d="" fill="#a17cc4" stroke="#5c00aa" stroke-width="2.5" stroke-linecap="butt"/><path d="" data-paper-data="{&quot;index&quot;:null}" fill="#b867ff" stroke="#5c00aa" stroke-width="2.5" stroke-linecap="butt"/><path d="" data-paper-data="{&quot;index&quot;:null}" fill="#ffc374" stroke="none" stroke-width="0" stroke-linecap="butt"/><path d="" data-paper-data="{&quot;index&quot;:null}" fill="none" stroke="#5c00aa" stroke-width="2.5" stroke-linecap="butt"/><path d="" fill="#a17cc4" stroke="#5c00aa" stroke-width="2.5" stroke-linecap="butt"/><path d="M368.9429,228.94291h-97.88579v-97.88579l97.88579,0z" fill="none" stroke="none" stroke-width="0" stroke-linecap="butt"/><path d="M325.14975,200.6856c-11.0414,0 -20.19599,-8.95082 -20.19599,-19.99222c0,-11.0414 8.95082,-19.99222 19.99222,-19.99222c11.0414,0 18.56333,8.95082 18.56333,19.99222c0,11.0414 -7.31817,19.99222 -18.35957,19.99222z" fill="#b473dc" stroke="#532073" stroke-width="2.5" stroke-linecap="butt"/><path d="M325.14975,200.6856c-11.0414,0 -20.19599,-8.95082 -20.19599,-19.99222c0,-11.0414 8.95082,-19.99222 19.99222,-19.99222c11.0414,0 13.11416,8.69133 13.11416,19.73273c0,11.0414 -1.86899,20.25171 -12.91039,20.25171z" fill-opacity="0.3451" fill="#532073" stroke="none" stroke-width="0" stroke-linecap="butt"/><path d="M336.08035,181.05639c4.47679,0 8.10595,1.97707 8.10595,4.41592c0,1.67077 -1.70321,3.12483 -4.21535,3.87498c-0.25475,0.07607 -0.87951,2.26398 -1.59477,2.30273c-0.73633,0.0399 -4.16318,-1.87916 -4.26309,-1.89273c-3.52616,-0.4789 -6.13869,-2.21574 -6.13869,-4.28499c0,-2.43885 3.62916,-4.41592 8.10595,-4.41592z" fill="#ff72e7" stroke="none" stroke-width="0" stroke-linecap="butt"/><path d="M325.7879,174.50819c0,-2.06925 2.61253,-3.80608 6.13869,-4.28498c0.09991,-0.01357 3.52676,-1.93262 4.26309,-1.89273c0.71526,0.03875 1.34001,2.22667 1.59476,2.30274c2.51214,0.75015 4.21535,2.2042 4.21535,3.87497c0,2.43885 -3.62916,4.41593 -8.10595,4.41593c-4.47679,0 -8.10594,-1.97708 -8.10594,-4.41593z" data-paper-data="{&quot;index&quot;:null}" fill="#ff72e7" stroke="none" stroke-width="0" stroke-linecap="butt"/><g stroke="#532073" stroke-width="2.5"><path d="M299.63117,191.72765c-0.24341,-0.2717 4.43934,0.07742 5.04705,1.87863c0.19765,0.58583 -1.48483,3.06785 -2.59192,4.23768c-1.24167,1.31204 -2.95571,1.06818 -3.0457,1.24888c-0.35066,0.7041 0.99597,-3.69807 0.11607,-4.10076c-1.47369,-0.67445 -8.41028,-4.85468 -8.66893,-9.38218c-0.38088,-6.66698 6.0759,-14.42427 8.55604,-17.04102c4.69041,-4.94875 11.37068,-3.47049 13.03824,-4.26805c4.8738,-2.33104 7.19278,-7.41283 7.29031,-6.40638c1.22168,13.40765 2.43261,20.93348 2.53911,34.40163c0.05159,6.52425 -2.67638,13.49717 -4.09757,11.92878c-1.36663,-1.50818 -2.61594,-5.24633 -4.60278,-6.84563c-4.23512,-3.40904 -7.19556,-3.82453 -7.76247,-4.19943c-3.37038,-2.22888 -5.58246,-1.1898 -5.81747,-1.45213z" fill="#682890" stroke-linecap="butt"/><path d="M308.89804,166.93996l4.62976,19.0733" fill="none" stroke-linecap="round"/><path d="M310.48285,170.57742l5.17831,21.23716" fill="none" stroke-linecap="round"/></g></g></g></svg>