<svg version="1.1" xmlns="http://www.w3.org/2000/svg" xmlns:xlink="http://www.w3.org/1999/xlink" width="760.895" height="401.3762" viewBox="0,0,760.895,401.3762"><defs><linearGradient x1="326.13564" y1="73.93935" x2="326.13564" y2="369.20615" gradientUnits="userSpaceOnUse" id="color-1"><stop offset="0" stop-color="#ffa4f3"/><stop offset="1" stop-color="#ffd172"/></linearGradient><linearGradient x1="-20.3581" y1="38.05797" x2="-20.3581" y2="335.43009" gradientUnits="userSpaceOnUse" id="color-2"><stop offset="0" stop-color="#ffa4f3"/><stop offset="1" stop-color="#ffd172"/></linearGradient><linearGradient x1="661.10116" y1="38.05797" x2="661.10116" y2="335.43009" gradientUnits="userSpaceOnUse" id="color-3"><stop offset="0" stop-color="#ffa4f3"/><stop offset="1" stop-color="#ffd172"/></linearGradient><linearGradient x1="561.75699" y1="124.05885" x2="561.75699" y2="190.74521" gradientUnits="userSpaceOnUse" id="color-4"><stop offset="0" stop-color="#a7aaff"/><stop offset="1" stop-color="#ff84de"/></linearGradient><linearGradient x1="456.02635" y1="144.98933" x2="458.57735" y2="251.36459" gradientUnits="userSpaceOnUse" id="color-5"><stop offset="0" stop-color="#55389c"/><stop offset="1" stop-color="#3c50a8"/></linearGradient><linearGradient x1="501.02922" y1="143.26207" x2="506.63924" y2="249.51994" gradientUnits="userSpaceOnUse" id="color-6"><stop offset="0" stop-color="#55389c"/><stop offset="1" stop-color="#3c50a8"/></linearGradient><linearGradient x1="480.15816" y1="140.47713" x2="482.64933" y2="205.38372" gradientUnits="userSpaceOnUse" id="color-7"><stop offset="0" stop-color="#55389c"/><stop offset="1" stop-color="#3c50a8"/></linearGradient><linearGradient x1="441.86508" y1="105.73094" x2="487.23074" y2="101.88631" gradientUnits="userSpaceOnUse" id="color-8"><stop offset="0" stop-color="#887aff"/><stop offset="1" stop-color="#e27aff"/></linearGradient><linearGradient x1="517.5812" y1="98.89228" x2="477.6401" y2="102.64407" gradientUnits="userSpaceOnUse" id="color-9"><stop offset="0" stop-color="#887aff"/><stop offset="1" stop-color="#e27aff"/></linearGradient></defs><g transform="translate(60.4475,30.92002)"><g data-paper-data="{&quot;isPaintingLayer&quot;:true}" fill-rule="nonzero" stroke-linejoin="miter" stroke-miterlimit="10" stroke-dasharray="" stroke-dashoffset="0" style="mix-blend-mode: normal"><g><path d="M-2.82654,369.20615v-295.26677h657.92443v295.26679z" fill="url(#color-1)" stroke="#58076b" stroke-width="2.5" stroke-linecap="butt"/><path d="M-41.6219,368.65435v-95.56745h724.92664v95.56745z" fill="#664585" stroke="#58076b" stroke-width="2.5" stroke-linecap="butt"/><path d="M-41.6219,105.73518v-130.0552h724.92664v130.0552z" fill="#664585" stroke="#58076b" stroke-width="2.5" stroke-linecap="butt"/><path d="M-47.65138,334.40087c0,-53.05202 0,-222.0853 0,-279.99451c0,-7.06029 54.58659,51.87218 54.58659,51.87218l-1.04974,166.48714c0,0 -53.53684,71.84496 -53.53684,61.63519z" fill="url(#color-2)" stroke="#58076b" stroke-width="2.5" stroke-linecap="butt"/><path d="M633.80787,106.27855c0,0 54.58659,-51.50344 54.58659,-45.85882c0,62.79935 0,222.65956 0,273.98117c0,10.20977 -53.53685,-61.63519 -53.53685,-61.63519z" data-paper-data="{&quot;index&quot;:null}" fill="url(#color-3)" stroke="#58076b" stroke-width="2.5" stroke-linecap="butt"/><path d="M316.11723,287.05688c157.49662,0 285.17286,10.59015 285.17286,23.65376c0,13.06362 -127.67624,23.65376 -285.17286,23.65376c-157.49661,0 -285.17284,-10.59015 -285.17284,-23.65376c0,-13.06362 127.67624,-23.65376 285.17286,-23.65376z" fill="#f593ff" stroke="#58076b" stroke-width="2.5" stroke-linecap="butt"/><path d="M227.74817,227.90506l38.59172,-96.44164l99.62178,37.3598l-38.59173,96.44163z" fill-opacity="0.50588" fill="#ffcff8" stroke="none" stroke-width="2.5" stroke-linecap="butt"/><path d="M376.67286,266.31638l42.89689,-70.55186l101.07107,44.25682z" fill-opacity="0.50588" fill="#ffcff8" stroke="none" stroke-width="2.5" stroke-linecap="butt"/><path d="M219.65802,120.47871l-33.18849,63.41487l-65.50597,-32.12904z" fill-opacity="0.50588" fill="#ffcff8" stroke="none" stroke-width="2.5" stroke-linecap="butt"/><path d="M28.90691,283.85965v-31.79208h25.19932v31.79208z" fill="#8c437b" stroke="#58076b" stroke-width="2.5" stroke-linecap="butt"/><path d="M192.92358,280.23777v-31.7921h25.19933v31.7921z" fill="#8c437b" stroke="#58076b" stroke-width="2.5" stroke-linecap="butt"/><path d="M12.40108,295.78764l1.3667,-61.5819c0,0 24.83686,-9.82629 28.4209,-10.02468c2.54459,-0.14085 152.77929,0.11774 167.42839,0.11774c2.85947,0 22.82111,9.90693 22.82111,9.90693l0.42633,61.05713c0,0 -15.16822,0.776 -31.41413,0.75628c-0.98145,-0.00119 0.57446,-41.28613 -0.12534,-41.28613c-46.26017,0 -130.50198,0 -156.32156,0c-2.03431,0 0.68336,41.0546 -1.36669,41.0546c-12.85153,0 -31.23568,0 -31.23568,0z" fill="#ae5c9b" stroke="#58076b" stroke-width="2.5" stroke-linecap="butt"/><path d="M21.83341,233.95815l200.71044,-0.40243" fill="none" stroke="#58076b" stroke-width="2.5" stroke-linecap="round"/><path d="M507.07709,190.41513c0,-15.52389 0,-61.79114 0,-68.65472c0,-1.67239 1.70785,-3.01598 3.87399,-3.01598c9.27423,0 74.29155,0 96.98471,0c4.87197,0 7.79316,1.70927 7.79316,4.60732c0,14.72903 0,60.16471 0,67.97273c0,2.23645 -1.28489,4.15757 -3.56623,4.15757c-16.19061,0 -82.56999,0 -96.04537,0c-4.63156,0 -9.04026,-1.88947 -9.04026,-5.06692z" fill="#ae5c9b" stroke="#58076b" stroke-width="2.5" stroke-linecap="butt"/><path d="M514.54681,186.34196c0,-13.49052 0,-53.6976 0,-59.66216c0,-1.45334 1.48415,-2.62095 3.36657,-2.62095c8.05946,0 64.56066,0 84.2814,0c4.23383,0 6.7724,1.4854 6.7724,4.00384c0,12.79977 0,52.28417 0,59.06949c0,1.94351 -1.11658,3.613 -3.09911,3.613c-14.06992,0 -71.75475,0 -83.4651,0c-4.0249,0 -7.85614,-1.64198 -7.85614,-4.40324z" fill="url(#color-4)" stroke="#58076b" stroke-width="2.5" stroke-linecap="butt"/><path d="M544.04865,159.7499c-1.86951,1.41849 -4.73505,2.79802 -7.37468,2.7675c-4.68221,-0.05413 -6.84711,-0.58964 -6.83038,-1.94676c0.00082,-0.06562 9.13288,0.40497 11.15536,-4.49027c1.02559,-2.48238 2.59874,0.58335 2.95649,0.30724c0.86429,-0.66706 1.39059,-4.04218 3.08029,-1.60652c1.34108,1.93314 -2.4831,4.58641 -2.98709,4.96882z" data-paper-data="{&quot;index&quot;:null}" fill="#624542" stroke="none" stroke-width="2.5" stroke-linecap="butt"/><path d="M541.6057,162.23314c-0.17564,0.45491 -1.38802,8.80716 -2.91872,11.42806c-0.53296,0.91254 -3.05927,0.89042 -5.69629,0.31828c-3.16475,-0.68663 -6.48902,-2.16544 -6.71868,-3.7716c-0.55672,-3.89335 1.14983,-12.50982 1.35218,-13.03391c0.41232,-1.06789 14.3938,3.99125 13.98149,5.05916z" fill="#fad6e3" stroke="none" stroke-width="2.5" stroke-linecap="butt"/><path d="M546.25927,168.42944c-1.06025,2.74601 -5.5039,5.66905 -5.92413,5.51699c-0.11021,-0.03986 0.68386,-3.14907 0.87974,-3.34545c0.82405,-0.82624 2.51201,-0.8784 2.76808,-2.04232c0.22998,-1.04536 -1.5652,-1.39176 -1.72896,-1.79098c-0.37626,-0.91716 0.31818,-4.18483 0.49305,-4.12153c0.42024,0.15204 4.5725,3.03729 3.51225,5.78333z" fill="#fad6e3" stroke="none" stroke-width="2.5" stroke-linecap="butt"/><path d="M543.24719,149.22016c0.29512,-0.08676 0.68629,0.32714 0.87369,0.92453c0.18741,0.59736 0.1001,1.15197 -0.19502,1.23874c-0.29512,0.08676 -0.68629,-0.32714 -0.87369,-0.92453c-0.1874,-0.59736 -0.10009,-1.15197 0.19504,-1.23874z" data-paper-data="{&quot;index&quot;:null}" fill="#624542" stroke="none" stroke-width="2.5" stroke-linecap="butt"/><path d="M539.08056,152.86584c0.29512,-0.08676 0.68629,0.32714 0.87369,0.92453c0.1874,0.59736 0.10007,1.152 -0.19504,1.23876c-0.29512,0.08676 -0.68629,-0.32715 -0.87369,-0.92454c-0.1874,-0.59736 -0.1001,-1.15198 0.19502,-1.23875z" data-paper-data="{&quot;index&quot;:null}" fill="#624542" stroke="none" stroke-width="2.5" stroke-linecap="butt"/><text transform="translate(535.80474,165.65261) scale(0.07027,0.06278)" font-size="40" xml:space="preserve" fill="#351b24" fill-rule="nonzero" stroke="none" stroke-width="5" stroke-linecap="butt" stroke-linejoin="miter" stroke-miterlimit="10" stroke-dasharray="" stroke-dashoffset="0" font-family="Sans Serif" font-weight="normal" text-anchor="start" style="mix-blend-mode: normal"><tspan x="0" dy="0">5</tspan></text><path d="M582.2545,164.67148l-9.21069,-17.15047l10.34477,-1.75986l9.33187,16.7985z" fill="#926782" stroke="none" stroke-width="2.5" stroke-linecap="butt"/><path d="M581.51054,149.25355l-1.05829,-2.25394l2.64575,-0.51226l1.0583,2.35638z" fill="#ea88c6" stroke="none" stroke-width="2.5" stroke-linecap="butt"/><text transform="translate(583.29559,152.69753) scale(0.06486,0.06278)" font-size="40" xml:space="preserve" fill="#351b24" fill-rule="nonzero" stroke="none" stroke-width="5" stroke-linecap="butt" stroke-linejoin="miter" stroke-miterlimit="10" stroke-dasharray="" stroke-dashoffset="0" font-family="Sans Serif" font-weight="normal" text-anchor="start" style="mix-blend-mode: normal"><tspan x="0" dy="0">4</tspan></text><path d="M558.22134,168.42102c0.83148,-0.60049 5.8308,-1.03415 6.85406,-1.03415c3.16421,0 6.66854,13.18786 6.66854,17.23026c0,1.33248 -13.52493,3.07364 -13.52493,0.3637c0,-2.73514 -1.73732,-15.30347 0.00231,-16.55984z" fill="#ea7094" stroke="none" stroke-width="2.5" stroke-linecap="butt"/><path d="M561.38298,163.68405c0.15776,-0.79903 0.93038,0.16973 1.17727,0.16973c0.34096,0 1.59671,3.59078 1.59671,3.68246c0,0.11575 -3.2873,1.45517 -3.2873,0.63647c0,-1.01136 0.30648,-3.44099 0.51334,-4.48866z" fill="#fbb2cc" stroke="none" stroke-width="2.5" stroke-linecap="butt"/><path d="M546.85949,144.85537c0,-5.67659 4.38787,-10.27839 9.80059,-10.27839c1.18381,0 1.66522,0.22013 2.71578,0.62344c0.0875,0.03361 0.85001,-0.5568 1.74898,-0.70209c1.35555,-0.21908 3.02142,-0.0304 3.15126,0.02966c3.47787,1.60858 2.18459,6.15155 2.18459,10.32735c0,5.67661 -4.38788,10.27839 -9.8006,10.27839c-5.41272,0 -9.80059,-4.6018 -9.80059,-10.27839z" fill="#fa96b9" stroke="none" stroke-width="2.5" stroke-linecap="butt"/><path d="M544.94325,147.59871c0,-2.08447 0.4481,-4.06765 1.25615,-5.86411c0.39614,-0.88074 0.99367,4.65256 3.3578,7.49983c2.2973,2.7668 6.35832,2.84745 7.04153,2.20154c1.71117,-1.61779 5.83528,-5.00935 6.10253,-9.89306c0.16472,-3.00998 -4.07319,-8.6461 -2.48968,-8.6461c4.77739,0 9.12123,2.21458 11.90516,5.55334c2.10365,2.5229 3.19987,5.65381 3.19987,9.14855c0,8.11964 -5.16588,16.9157 -13.55326,16.9157c-4.03823,0 -7.51528,-1.32742 -10.62831,-4.34822c-2.87391,-2.78876 -0.33851,11.83233 -3.36208,9.19603c-1.14311,-0.99671 0.04042,-3.89978 -0.37452,-8.46902c-0.46159,-5.08324 -2.45518,-11.88909 -2.45518,-13.2945z" fill="#fbb2cc" stroke="none" stroke-width="2.5" stroke-linecap="butt"/><path d="M550.26112,140.25776c2.45829,0 4.61445,3.73943 4.61445,6.20657c0,2.46714 -2.40117,6.20654 -4.85945,6.20654c-2.45829,0 -4.04275,-3.73941 -4.04275,-6.20654c0,-2.46714 1.82947,-6.20657 4.28776,-6.20657z" fill="#fad4e1" stroke="none" stroke-width="2.5" stroke-linecap="butt"/><path d="M549.97815,141.83905c1.80067,0 3.38,2.73906 3.38,4.54622c0,1.80714 -1.75881,4.5462 -3.55947,4.5462c-1.80067,0 -2.96125,-2.73906 -2.96125,-4.5462c0,-1.80714 1.34007,-4.54622 3.14072,-4.54622z" fill="#733b4f" stroke="none" stroke-width="2.5" stroke-linecap="butt"/><path d="M574.96678,145.36927c0,2.46714 -1.58446,6.20656 -4.04275,6.20656c-2.45829,0 -4.85946,-3.73942 -4.85946,-6.20656c0,-1.82736 1.18291,-5.98943 2.79535,-7.17627c0.24015,-0.17677 1.47512,-0.5329 2.70707,0.66451c1.66393,1.61722 3.39979,5.09418 3.39979,6.51177z" fill="#fad4e1" stroke="none" stroke-width="2.5" stroke-linecap="butt"/><path d="M574.34775,145.29019c0,1.80714 -1.16058,4.54622 -2.96125,4.54622c-1.80067,0 -3.55947,-2.73906 -3.55947,-4.54622c0,-1.80714 1.57935,-4.54622 3.38,-4.54622c1.80067,0 3.14072,2.73906 3.14072,4.54622z" fill="#733b4f" stroke="none" stroke-width="2.5" stroke-linecap="butt"/><path d="M548.85963,144.51323c0.61452,0.12588 0.81591,1.30048 0.88012,1.29877c0.3662,-0.00973 0.38022,-0.80518 0.92257,-0.81387c0.81021,-0.01297 1.37474,0.47428 1.37474,0.84132c0,1.34187 -1.99905,3.10263 -2.41078,3.10263c-0.8726,0 -2.18387,-2.48238 -2.18387,-3.10263c0,-0.58229 0.93374,-1.42529 1.41724,-1.32624z" fill="#fa6599" stroke="none" stroke-width="2.5" stroke-linecap="butt"/><path d="M559.85526,172.36067c0.19888,-1.85914 1.41791,-2.74089 2.84657,-4.26721c0.32324,-0.34533 0.6575,-3.23884 0.99276,-3.33615c0.1877,-0.05448 0.72181,0.23308 0.85539,0.7753c0.20243,0.82162 -0.00532,2.04206 0.29915,2.07258c0.24015,0.02406 0.46076,-1.57662 0.68598,-1.51054c0.32325,0.09484 1.55829,0.17163 1.75867,0.93227c0.21341,0.81008 -0.24358,1.52535 0.01045,1.78388c0.17704,0.18019 1.5201,-2.7041 1.6688,-2.49279c0.22921,0.32571 1.09668,1.53238 1.08733,2.34221c-0.00251,0.21709 -1.44739,1.39007 -1.48222,1.60871c-0.24473,1.53653 0.24543,2.1109 0.1523,2.98153c-0.16,1.49569 -0.54378,4.12134 -2.22133,5.45854c-1.54377,1.23056 -4.34302,1.24196 -5.51754,1.12418c-1.11823,-0.1121 -1.30341,-5.91087 -1.13635,-7.47252z" fill="#e44c8e" stroke="none" stroke-width="2.5" stroke-linecap="butt"/><path d="M567.76247,168.77523c1.55619,-0.27608 4.34438,3.23985 5.06897,7.06788c0.72461,3.82803 0.05047,6.51859 -1.50574,6.79464c-1.55619,0.27608 -4.15653,0.30622 -4.88114,-3.52181c-0.72461,-3.82803 -0.23831,-10.06465 1.31789,-10.34072z" fill="#fe87ab" stroke="none" stroke-width="2.5" stroke-linecap="butt"/><path d="M561.18738,178.89513c-0.72461,3.82803 -3.32493,3.79787 -4.88114,3.5218c-1.5562,-0.27608 -2.23034,-2.96661 -1.50575,-6.79464c0.72461,-3.82803 3.51277,-7.34396 5.06897,-7.06789c1.5562,0.27608 2.0425,6.5127 1.31789,10.34072z" data-paper-data="{&quot;index&quot;:null}" fill="#fe87ab" stroke="none" stroke-width="2.5" stroke-linecap="butt"/><path d="M557.63435,156.59703c0,-0.56051 2.40537,-6.89612 3.02508,-6.89612c0.51957,0 4.09847,5.34663 4.09847,5.95145c0,0.83477 -7.12352,1.77946 -7.12352,0.94469z" fill="#fa7da9" stroke="none" stroke-width="2.5" stroke-linecap="butt"/><path d="M576.23594,149.48932c-0.0879,0 1.03688,-2.79684 0.01666,-5.91685c-1.42922,-4.37082 -6.12553,-9.12462 -6.00238,-9.12462c0.0375,0 6.38799,3.38382 7.37281,1.53243c0.41545,-0.78101 0.95938,-2.4997 0.28046,-4.19399c-0.9066,-2.26244 -3.19582,-4.48135 -3.19582,-4.366c0,0.30783 2.16963,1.30326 4.45085,3.88043c3.3255,3.75686 7.17476,9.62654 7.25986,11.28462c0.34733,6.76549 -10.03313,6.904 -10.18243,6.904z" fill="#3f2a25" stroke="none" stroke-width="2.5" stroke-linecap="butt"/><path d="M544.52436,149.94378c-0.14932,0 -10.52978,-0.13851 -10.18244,-6.904c0.08512,-1.65806 3.93437,-7.52775 7.25985,-11.28461c2.28124,-2.57716 4.45085,-3.5726 4.45085,-3.88042c0,-0.11535 -2.28923,2.10357 -3.19581,4.366c-0.67893,1.69429 -0.13497,3.41298 0.28048,4.19399c0.98482,1.85139 7.33532,-1.53243 7.37282,-1.53243c0.12312,0 -4.57317,4.75381 -6.00238,9.12462c-1.02021,3.12001 0.10454,5.91685 0.01666,5.91685z" data-paper-data="{&quot;index&quot;:null}" fill="#3f2a25" stroke="none" stroke-width="2.5" stroke-linecap="butt"/><text transform="translate(557.79067,138.21046) scale(0.06486,0.06278)" font-size="40" xml:space="preserve" fill="#351b24" fill-rule="nonzero" stroke="none" stroke-width="5" stroke-linecap="butt" stroke-linejoin="miter" stroke-miterlimit="10" stroke-dasharray="" stroke-dashoffset="0" font-family="Sans Serif" font-weight="normal" text-anchor="start" style="mix-blend-mode: normal"><tspan x="0" dy="0">2</tspan></text><text transform="translate(562.88491,174.21134) scale(0.06486,0.06278)" font-size="40" xml:space="preserve" fill="#351b24" fill-rule="nonzero" stroke="none" stroke-width="5" stroke-linecap="butt" stroke-linejoin="miter" stroke-miterlimit="10" stroke-dasharray="" stroke-dashoffset="0" font-family="Sans Serif" font-weight="normal" text-anchor="start" style="mix-blend-mode: normal"><tspan x="0" dy="0">3</tspan></text><text transform="translate(548.87758,148.19698) scale(0.07027,0.06278)" font-size="40" xml:space="preserve" fill="#351b24" fill-rule="nonzero" stroke="none" stroke-width="5" stroke-linecap="butt" stroke-linejoin="miter" stroke-miterlimit="10" stroke-dasharray="" stroke-dashoffset="0" font-family="Sans Serif" font-weight="normal" text-anchor="start" style="mix-blend-mode: normal"><tspan x="0" dy="0">1</tspan></text><path d="M573.28225,173.92408c0.18013,0.69083 -0.78584,2.77842 -1.02665,2.83726c-0.35522,0.08679 -1.85278,-0.93813 -1.92067,-1.19848c-0.13909,-0.5335 0.27672,-1.58013 0.63398,-2.18987c0.19453,-0.33197 2.22292,0.20425 2.31332,0.55109z" fill="#ff4888" stroke="none" stroke-width="2.5" stroke-linecap="butt"/><path d="M583.4795,169.61911c0.18012,0.69083 -0.78585,2.77841 -1.02665,2.83725c-0.35522,0.08679 -1.8528,-0.93812 -1.92069,-1.19848c-0.13909,-0.5335 0.27674,-1.58013 0.63398,-2.18987c0.19453,-0.33197 2.22291,0.20425 2.31333,0.55109z" fill="#ff4888" stroke="none" stroke-width="2.5" stroke-linecap="butt"/><path d="M577.7661,170.41486c0.30945,0.51008 0.04089,2.39132 -0.1369,2.49238c-0.26228,0.14913 -1.70201,-0.33072 -1.81864,-0.52296c-0.23899,-0.39392 -0.15891,-1.32169 -0.02058,-1.88805c0.07531,-0.30837 1.82075,-0.33747 1.97612,-0.0814z" fill="#ff4888" stroke="none" stroke-width="2.5" stroke-linecap="butt"/><path d="M570.05055,187.8787l-2.04925,-12.37525l10.53893,-1.32255l5.65982,9.82463z" fill="#ffbed5" stroke="none" stroke-width="2.5" stroke-linecap="butt"/><path d="M567.0074,175.09482l-0.96266,-2.40418l7.35483,-7.90841l2.8177,3.06291z" fill="#ffbed5" stroke="none" stroke-width="2.5" stroke-linecap="butt"/><text transform="translate(574.86847,181.69131) scale(0.06486,0.06278)" font-size="40" xml:space="preserve" fill="#351b24" fill-rule="nonzero" stroke="none" stroke-width="5" stroke-linecap="butt" stroke-linejoin="miter" stroke-miterlimit="10" stroke-dasharray="" stroke-dashoffset="0" font-family="Sans Serif" font-weight="normal" text-anchor="start" style="mix-blend-mode: normal"><tspan x="0" dy="0">6</tspan></text><text transform="translate(518.03722,187.28938) scale(0.08484,0.29402)" font-size="40" xml:space="preserve" fill-opacity="0.87843" fill="#292929" fill-rule="nonzero" stroke="none" stroke-width="5" stroke-linecap="butt" stroke-linejoin="miter" stroke-miterlimit="10" stroke-dasharray="" stroke-dashoffset="0" font-family="Sans Serif" font-weight="normal" text-anchor="start" style="mix-blend-mode: normal"><tspan x="0" dy="0">IT GETS ME GOING</tspan></text><text transform="translate(575.41133,135.18474) scale(0.08484,0.29402)" font-size="40" xml:space="preserve" fill-opacity="0.87843" fill="#292929" fill-rule="nonzero" stroke="none" stroke-width="5" stroke-linecap="butt" stroke-linejoin="miter" stroke-miterlimit="10" stroke-dasharray="" stroke-dashoffset="0" font-family="Sans Serif" font-weight="normal" text-anchor="start" style="mix-blend-mode: normal"><tspan x="0" dy="0">IT GETS ME GOING</tspan></text><path d="M43.45439,229.85845v-23.96693h68.52449c0,0 12.37863,7.14062 12.37863,8.13163c0,0.98798 -0.02859,8.90642 -0.87547,9.93818c-1.41832,1.72802 -11.50317,5.8971 -11.50317,5.8971z" fill="#895883" stroke="#58076b" stroke-width="2.5" stroke-linecap="butt"/><path d="M642.12088,281.09284l-1.57639,-162.27247l59.90301,-43.23876l-12.61116,263.50201z" fill="#58076b" stroke="none" stroke-width="2.5" stroke-linecap="butt"/><path d="M48.3174,216.59104c0,-3.30913 2.77105,-5.99173 6.18931,-5.99173c3.41825,0 6.18931,2.68259 6.18931,5.99173c0,3.30913 -2.77105,5.99173 -6.18931,5.99173c-3.41825,0 -6.18931,-2.6826 -6.18931,-5.99173z" fill="#ffd4fa" stroke="#58076b" stroke-width="2.5" stroke-linecap="butt"/><path d="M110.21052,223.8667v-14.97932" fill="none" stroke="#58076b" stroke-width="2.5" stroke-linecap="round"/><path d="M393.55497,170.03772c0,-27.98597 23.43521,-50.67307 52.344,-50.67307c28.9088,0 52.344,22.68711 52.344,50.67309c0,27.98597 -23.43521,50.67307 -52.344,50.67307c-28.9088,0 -52.344,-22.68711 -52.344,-50.67307z" fill-opacity="0.50588" fill="#ffcff8" stroke="none" stroke-width="2.5" stroke-linecap="butt"/><path d="M552.87002,252.46719l8.2507,-42.93181l44.34747,7.98733l-8.2507,42.93181z" fill-opacity="0.50588" fill="#ffcff8" stroke="none" stroke-width="2.5" stroke-linecap="butt"/><path d="M25.65064,146.74817l41.34943,-1.81952v46.39779z" fill-opacity="0.50588" fill="#ffcff8" stroke="none" stroke-width="2.5" stroke-linecap="butt"/><path d="M-47.83634,340.07288l-12.61116,-263.50201l59.90301,43.23873l-1.57639,162.27248z" data-paper-data="{&quot;index&quot;:null}" fill="#58076b" stroke="none" stroke-width="2.5" stroke-linecap="butt"/><path d="M147.58018,-25.98629c-4.50352,37.60524 -27.33259,104.97991 -81.68232,136.97763c-14.50114,8.53736 -85.69125,34.14312 -113.23432,29.76404c-16.42205,-2.61095 -8.78296,-24.51992 -3.11505,-36.25565c1.86276,-3.85694 60.35031,9.87488 108.6024,-24.64683c64.18106,-52.79616 55.04453,-101.52554 57.39234,-102.87386c20.74179,-11.91174 32.21994,-4.49312 32.03698,-2.96535z" fill="#9a6292" stroke="#58076b" stroke-width="2.5" stroke-linecap="butt"/></g><g><g data-paper-data="{&quot;index&quot;:null}" stroke="#252674" stroke-width="2.5" stroke-linecap="butt"><path d="M167.68408,170.32329c-4.01345,-2.0141 -4.35731,-20.07651 -4.46675,-20.91123c-0.2702,-2.0607 4.95144,-2.9889 9.82891,0.1503c0.60764,0.39107 2.0742,1.28891 2.62923,1.79618c1.40229,1.28166 4.40765,14.83973 4.21281,15.02892c0,0 -9.81511,5.13477 -12.2042,3.93583z" fill="#8194ff"/><path d="M187.79508,235.45394c6.63961,1.61457 11.85028,7.44692 11.63832,13.02688c-0.08381,2.20659 2.2215,13.1944 -0.82464,16.89283c-3.19269,3.87639 -13.81375,4.14876 -20.2156,2.84967c-2.93607,-0.59581 -0.65563,-17.7432 -2.78011,-17.82863c-1.77887,-0.07153 -4.14721,1.78163 -6.11808,2.21638c-0.73333,0.16176 -2.37318,-0.40816 -2.52158,-0.57536c-1.74103,-1.9615 -1.06817,-7.62418 -0.89267,-8.25092c0.94608,-3.37843 13.58044,-8.62484 17.76306,-8.68965c1.13108,-0.01753 2.71804,0.05892 3.95128,0.35881z" data-paper-data="{&quot;index&quot;:null}" fill="#8194ff"/><path d="M167.36591,236.2272c0.05477,-0.13434 -1.12371,-41.28624 -1.81145,-68.4699c-0.01365,-0.53886 3.98195,-0.83715 7.96377,-2.23574c4.96737,-1.74478 6.63791,-4.52385 6.95608,-3.29977c5.61473,21.60144 17.55934,55.1639 21.4517,73.63012c1.75644,8.33297 -0.47561,12.23428 -0.4956,12.28334c-1.02162,2.50632 -35.08611,-9.40169 -34.06449,-11.90801z" data-paper-data="{&quot;index&quot;:null}" fill="#475ac7"/></g><g stroke="#252674" stroke-width="2.5" stroke-linecap="butt"><path d="M117.36492,249.35037c0.15621,-5.22946 5.74336,-10.48169 12.47927,-11.73113c1.25113,-0.23207 2.84069,-0.24116 3.96889,-0.18025c4.17195,0.22524 16.44111,5.63143 17.16304,8.82982c0.13392,0.59332 0.43245,5.91833 -1.4352,7.68517c-0.15917,0.1506 -1.83409,0.61936 -2.55564,0.43912c-1.93919,-0.48433 -4.18174,-2.31154 -5.9626,-2.31461c-2.12687,-0.00368 -0.98033,16.13071 -3.95115,16.57266c-6.47768,0.96364 -17.06452,0.29079 -19.99679,-3.46192c-2.79767,-3.58045 0.22842,-13.77094 0.29021,-15.83889z" data-paper-data="{&quot;index&quot;:null}" fill="#8194ff"/><path d="M149.65903,238.48066c0.85486,2.38533 -33.94252,12.18706 -34.79735,9.80174c-0.01673,-0.04668 -1.98819,-3.78491 0.3149,-11.5129c7.89125,-26.47899 28.9497,-86.21802 29.57847,-86.9586c1.71904,-2.0247 12.02358,3.10093 13.22201,2.7679c0.3345,-0.09296 -8.38653,85.71075 -8.31803,85.90185z" data-paper-data="{&quot;index&quot;:null}" fill="#475ac7"/></g><path d="M139.65854,200.108c2.55635,-8.64733 7.18222,-6.4565 9.62155,-6.2096c2.77951,0.28136 7.76522,1.66245 8.35389,12.92861c0.40292,7.71132 -4.53588,112.44285 -4.79623,115.29632c-0.28492,3.12305 -40.34195,8.07447 -42.19258,2.91615c-5.56475,-15.51082 13.65069,-16.69426 13.65367,-16.72633c0,0 13.79746,-102.92069 15.35968,-108.20516z" data-paper-data="{&quot;index&quot;:null}" fill="#8194ff" stroke="#252674" stroke-width="2.5" stroke-linecap="butt"/><path d="M174.61622,202.75534c0.96748,4.70813 8.98148,85.45208 11.02532,105.79562c0.29936,2.97981 11.60833,-3.06564 14.75972,9.18168c0.84718,3.29249 -0.5702,9.71439 -0.97748,14.64878c-0.15634,1.89407 -32.00736,3.18631 -36.25627,-0.60423c-3.83284,-3.41932 -9.27877,-7.40528 -9.36576,-12.80365c-0.12603,-7.82003 1.78597,-40.68637 3.00891,-69.79685c0.93175,-22.17883 1.12617,-42.37054 1.69672,-46.50992c1.54036,-11.17585 4.25422,-6.8683 7.04758,-6.91333c2.45148,-0.03951 7.24623,-1.8308 9.06131,7.00187z" data-paper-data="{&quot;index&quot;:null}" fill="#8194ff" stroke="#252674" stroke-width="2.5" stroke-linecap="butt"/><path d="M145.7348,177.0173c-0.01018,-0.60357 -0.89109,-18.51655 -1.3387,-26.31115c-0.16819,-2.92898 7.5551,-8.61089 12.56932,-8.69554c4.43162,-0.07482 9.36041,1.63256 12.61688,5.10806c2.47799,2.64466 -2.20005,25.26488 -1.14249,30.06061c0.00202,0.00922 7.26926,20.69977 6.26657,21.42701c-1.93642,1.40448 -17.11057,7.23602 -17.20555,7.24315c-1.29095,0.09696 -15.84413,-6.43815 -15.90682,-7.87307c-0.04566,-1.04556 4.16143,-19.7371 4.14082,-20.95911z" fill="#b3bfff" stroke="#252674" stroke-width="2.5" stroke-linecap="butt"/><path d="M162.92291,178.34882c-0.43208,-13.18353 -2.46007,-27.11502 -2.23501,-28.4599c0.79561,-4.75395 3.59926,-4.29642 6.10599,-4.33873c1.10906,-0.01873 5.25175,5.86885 5.41793,10.91183c0.32254,9.79051 1.51346,26.04158 1.59315,26.34748c0.49625,1.90452 15.15484,38.30476 15.15776,38.47821c0.12717,7.5334 -1.25584,13.11867 -3.46262,16.31441c-0.54249,0.78561 -3.67974,-2.26495 -4.09238,-1.55092c-3.92236,6.78736 -9.0084,4.57949 -13.75299,-3.31954c-3.42592,-5.70365 -5.32337,-15.77993 -5.48858,-25.56616c-0.13389,-7.9309 1.11853,-17.77705 0.75672,-28.81669z" fill="#475ac7" stroke="#252674" stroke-width="2.5" stroke-linecap="butt"/><path d="M150.11449,175.57602c-0.86189,10.00838 -0.20936,19.01324 -0.71481,26.20957c-0.62369,8.8798 -2.82446,17.9367 -6.19232,22.94613c-4.66417,6.93757 -9.36045,8.68931 -12.57043,2.32941c-0.3377,-0.66905 -3.31641,1.94515 -3.7678,1.20461c-1.83623,-3.01242 -2.81323,-8.15399 -2.33311,-14.98963c0.01106,-0.15738 15.00299,-32.4862 15.54314,-34.19117c0.08675,-0.27384 1.94945,-14.97401 2.71535,-23.84986c0.39451,-4.57184 4.41805,-9.71258 5.41786,-9.6403c2.25979,0.16337 4.81173,-0.11245 5.29907,4.24484c0.13789,1.23267 -2.36767,13.78443 -3.39692,25.73644z" data-paper-data="{&quot;index&quot;:null}" fill="#475ac7" stroke="#252674" stroke-width="2.5" stroke-linecap="butt"/><path d="M165.89172,145.62258c0.05381,3.18734 -4.03511,4.68639 -9.10883,4.77205c-5.07372,0.08566 -9.21094,-1.27452 -9.26472,-4.46185c-0.05381,-3.18734 4.02344,-5.37893 9.09718,-5.46458c5.07372,-0.08566 9.22261,1.96706 9.27641,5.15438z" fill="#475ac7" stroke="#252674" stroke-width="2.5" stroke-linecap="butt"/><path d="M156.03742,134.43105c4.76112,-0.08039 6.39923,4.47351 6.47069,8.70562c0.02678,1.58677 -1.92195,2.93329 -3.98976,3.37784c-3.44728,0.74111 -7.77006,-0.46133 -7.81469,-3.10666c-0.07145,-4.2321 0.57265,-8.89641 5.33378,-8.97678z" fill="#b3bfff" stroke="#252674" stroke-width="2.5" stroke-linecap="butt"/><path d="M155.31053,26.30346c0.24142,-0.00065 13.37314,15.05664 16.89524,19.58011c0.79337,1.01892 3.01547,11.81743 3.78744,16.84675c1.23159,8.02388 -1.20164,12.25346 -1.21848,12.62619c-0.68684,15.19087 -14.74777,7.29776 -19.19963,7.30988c-4.95111,0.01351 -12.88025,-10.38603 -12.95578,-26.47569c-0.00106,-0.23213 5.79232,-26.83945 7.71843,-28.6938c0,0 4.09282,-1.19105 4.97277,-1.19346z" data-paper-data="{&quot;index&quot;:null}" fill="#8194ff" stroke="#252674" stroke-width="2.5" stroke-linecap="butt"/><g stroke-linecap="butt"><path d="M156.95887,140.55405c-23.85462,0.06504 -41.10681,-18.47443 -41.21576,-41.68423c-0.10895,-23.20979 14.83375,-41.80673 38.68839,-41.87178c23.85462,-0.06503 39.37778,18.44883 39.48671,41.65863c0.10895,23.20979 -13.10472,41.83234 -36.95938,41.89739z" data-paper-data="{&quot;index&quot;:null}" fill="#b3bfff" stroke="#252674" stroke-width="2.5"/><path d="M116.07851,99.33313c-0.10895,-23.20979 14.83374,-41.80673 38.68838,-41.87177c23.85462,-0.06503 39.3778,18.44885 39.48675,41.65863c0.01154,2.45498 -2.62045,16.33896 -3.55451,16.87465c-7.86243,4.50901 -34.22518,11.35342 -35.00879,11.57919c-0.26989,0.0778 -33.08132,-7.12043 -36.64272,-12.38566c0,0 -2.96648,-15.30334 -2.96909,-15.855z" data-paper-data="{&quot;index&quot;:null}" fill="#8194ff" stroke="none" stroke-width="0"/><path d="M157.33791,140.18293c-23.85462,0.06504 -41.10681,-18.47443 -41.21576,-41.68423c-0.10895,-23.20979 14.83375,-41.80673 38.68839,-41.87178c23.85462,-0.06503 39.37778,18.44883 39.48671,41.65863c0.10895,23.20979 -13.10472,41.83234 -36.95938,41.89739z" data-paper-data="{&quot;index&quot;:null}" fill="none" stroke="#252674" stroke-width="2.5"/></g><g><path d="M198.37848,111.72647c0.09475,1.18522 -5.94404,6.18897 -7.78574,6.33622c-2.35959,0.18866 -4.59721,-3.72067 -5.02897,-9.12082c-0.43177,-5.40014 1.13107,-9.93075 3.49065,-10.1194c1.78736,-0.1429 9.21934,11.59438 9.32407,12.90397z" fill="#252674" stroke="none" stroke-width="NaN" stroke-linecap="butt"/><path d="M168.70733,131.01368c0,0 -4.07068,3.78977 -5.72796,3.94237c-1.56707,0.14428 -7.89383,-2.63646 -7.95383,-2.5707c-0.01044,0.01144 -3.67192,3.03801 -5.26202,2.85884c-1.10818,-0.12489 -6.56327,-4.16447 -6.56327,-4.16447" fill="none" stroke="#252674" stroke-width="2.5" stroke-linecap="round"/><path d="M171.21495,83.73077c10.99998,-0.1854 20.0867,9.7212 20.29579,22.12697c0.13443,7.97587 -3.74597,14.73178 -9.23431,18.81112c-0.80738,0.60012 -10.42958,9.76254 -22.52322,-0.291c-2.14282,-1.75191 -8.10492,-11.6398 -6.53894,-20.93967c2.74034,-16.27404 11.79921,-19.60289 18.00066,-19.70741z" fill="#82c5ff" stroke="#252674" stroke-width="2.5" stroke-linecap="butt"/><g stroke-linecap="butt"><path d="M167.84107,106.2323c-0.32034,-4.00656 1.87935,-7.45116 4.9131,-7.69371c3.03376,-0.24256 5.7528,2.80876 6.07315,6.81532c0.32034,4.00655 -1.87934,7.45114 -4.91309,7.69369c-3.03375,0.24255 -5.75279,-2.80874 -6.07314,-6.8153z" fill="#82c5ff" stroke="#ffffff" stroke-width="2.5"/><path d="M173.00636,101.69273c1.71474,-0.13709 3.25159,1.58756 3.43263,3.85212c0.18105,2.26457 -1.06222,4.21154 -2.77696,4.34862c-1.71474,0.13709 -3.25159,-1.58758 -3.43263,-3.85214c-0.18105,-2.26457 1.06223,-4.21153 2.77696,-4.34861z" fill="#ffffff" stroke="none" stroke-width="0"/></g><path d="M119.76971,99.82223c2.0916,0.17822 3.4842,4.70181 3.11045,10.10375c-0.37376,5.40192 -2.35051,9.32107 -4.44212,9.14285c-1.63253,-0.13911 -6.99297,-5.11606 -6.91093,-6.30168c0.09065,-1.31002 6.65823,-13.07992 8.2426,-12.94492z" data-paper-data="{&quot;index&quot;:null}" fill="#252674" stroke="none" stroke-width="NaN" stroke-linecap="butt"/><path d="M151.54236,104.2794c1.40327,9.29275 -3.86459,19.20676 -5.76089,20.96812c-10.70198,10.10678 -19.24525,0.98709 -19.96181,0.39055c-4.87103,-4.055 -8.32135,-10.7936 -8.21537,-18.76989c0.16484,-12.40641 8.20205,-22.35296 17.95162,-22.21618c5.4965,0.0771 13.53085,3.36585 15.98646,19.62741z" data-paper-data="{&quot;index&quot;:null}" fill="#82c5ff" stroke="#252674" stroke-width="2.5" stroke-linecap="butt"/><g data-paper-data="{&quot;index&quot;:null}" stroke-linecap="butt"><path d="M143.97443,107.19512c-0.2773,4.00789 -2.68216,7.07114 -5.37137,6.842c-2.68921,-0.22913 -4.64445,-3.66392 -4.36714,-7.6718c0.2773,-4.00789 2.68215,-7.07117 5.37138,-6.84202c2.68921,0.22913 4.64445,3.66393 4.36715,7.67183z" fill="#82c5ff" stroke="#ffffff" stroke-width="2.5"/><path d="M141.85735,107.01472c-0.15672,2.26532 -1.51599,3.99675 -3.03599,3.86723c-1.51999,-0.12951 -2.62511,-2.07094 -2.46839,-4.33626c0.15672,-2.26532 1.51599,-3.99674 3.03599,-3.86722c1.51999,0.12951 2.62511,2.07093 2.46839,4.33625z" fill="#ffffff" stroke="none" stroke-width="0"/></g></g><path d="M-0.07975,347.72148v-338.70968h312.31232v338.70968z" fill="none" stroke="none" stroke-width="NaN" stroke-linecap="butt"/></g><g><path d="M531.45075,185.87644c-0.09139,0 -0.29306,-0.60097 -0.57456,-1.65544c0.35559,0.3016 0.812,0.78866 1.32664,1.32866c0.05876,0.0837 0.11953,0.16589 0.18222,0.2465c-0.34281,0.05264 -0.65595,0.08028 -0.9343,0.08028z" fill="#b5acd7" stroke="none" stroke-width="0" stroke-linecap="butt"/><path d="M468.58762,311.80158c-7.87827,5.5857 -29.74104,-23.79961 -21.17827,-29.87061c0.2127,-0.15081 6.31783,-4.04448 6.53259,-4.18216c8.43075,-5.40527 12.07848,2.39512 17.89005,10.59197c2.05005,2.89146 4.32752,7.27379 4.76167,10.16003c0.82794,5.50424 -2.38877,9.31813 -8.00604,13.30077z" data-paper-data="{&quot;index&quot;:null}" fill="#6770bb" stroke="#250077" stroke-width="2.5" stroke-linecap="butt"/><path d="M436.14879,102.79504c-0.23797,-0.85753 -2.41159,-2.45038 -2.61828,-3.88205c-1.43086,-9.91128 -3.13863,-32.63369 -3.43391,-40.327c-0.11223,-2.92406 19.13811,-29.29166 21.13769,-29.3684c0.14958,-0.00574 2.09999,12.43265 5.39601,27.11422c4.36311,19.43471 10.34299,42.46447 10.34299,42.46447c0,0 -30.47148,5.27089 -30.82451,3.99877z" fill="#947aff" stroke="#250077" stroke-width="2.5" stroke-linecap="butt"/><path d="M484.06342,99.69062c0,0 2.94684,-23.61027 4.75612,-43.44636c1.36678,-14.9848 1.68983,-27.57103 1.8389,-27.58471c1.99268,-0.18288 24.49586,23.46945 24.76328,26.38342c0.70361,7.66676 1.95308,30.41898 1.81792,40.4321c-0.01953,1.44638 -1.96853,3.30732 -2.09344,4.18846c-0.18529,1.30712 -31.08279,0.02712 -31.08279,0.02712z" data-paper-data="{&quot;index&quot;:null}" fill="#947aff" stroke="#250077" stroke-width="2.5" stroke-linecap="butt"/><path d="M468.13174,238.68248c-1.03007,0.0247 -19.83642,-34.36683 -18.59,-42.01719c0.807,-4.95322 15.51555,-51.89253 19.99807,-52.00003c11.34932,-0.27217 9.94125,93.74504 -1.40807,94.01722z" fill="url(#color-5)" stroke="#250077" stroke-width="2.5" stroke-linecap="butt"/><path d="M487.53068,143.97475c3.21922,-0.16996 10.42367,17.65439 16.10072,33.0441c3.69518,10.01714 7.07582,19.8342 7.14938,20.13677c0.09461,0.38913 -8.64809,3.13405 -4.76661,1.63001c8.1929,-3.17469 28.70169,-14.3389 28.89782,-13.51516c1.48228,6.22577 12.65431,19.52768 9.65422,33.95807c-1.83274,8.81545 1.14667,7.62942 -11.27403,14.73919c-0.53617,0.30691 -3.49093,0.8086 -7.2718,-0.82974c-5.46745,-2.36917 -12.45175,-2.86908 -17.05191,-4.55832c-10.93035,-4.01379 -24.34985,-12.97299 -25.44052,-28.23937c-2.04316,-28.59869 -1.40567,-56.07998 4.00274,-56.36553z" data-paper-data="{&quot;index&quot;:null}" fill="url(#color-6)" stroke="#250077" stroke-width="2.5" stroke-linecap="butt"/><path d="M554.08529,209.0648c0,2.16189 -2.82683,9.66136 -6.94933,15.33855c-5.00752,6.89597 -11.07538,9.90669 -13.39112,9.90669c-2.00878,0 -5.96323,-6.55306 -9.16983,-14.06366c-1.80039,-4.21694 -4.53474,-7.90149 -4.53474,-10.02751c0,-9.16225 10.0543,-24.95673 18.89787,-24.95673c8.84357,0 15.14714,14.6404 15.14714,23.80266z" fill="#250077" stroke="none" stroke-width="0" stroke-linecap="butt"/><path d="M476.5401,310.31629c-2.26724,-2.3475 -21.18739,-15.53066 -22.36979,-37.53582c-0.14853,-2.7643 29.01508,-12.8805 28.87636,-15.70155c-1.47877,-30.07239 -2.41854,-61.93374 -1.5579,-61.96678c1.54185,-0.05918 13.78614,-0.19596 15.23022,4.55095c0.58398,1.9196 5.83662,31.37701 10.59068,60.21485c0.09489,0.57558 -8.7595,8.84345 -16.47366,23.42591c-6.06017,11.45583 -10.76112,30.67236 -14.2959,27.01244z" data-paper-data="{&quot;index&quot;:null}" fill="#3b276d" stroke="#250077" stroke-width="2.5" stroke-linecap="butt"/><path d="M466.74732,204.66031c0.60894,-4.9437 15.02554,-7.32087 16.85055,-7.57914c1.87499,-0.26534 20.07143,109.48724 20.28674,110.64191c0.49534,2.65642 1.85794,7.69214 -0.26786,10.45548c-7.53307,9.79231 -29.84759,15.50023 -32.24492,2.64388c-2.74981,-14.74661 -5.07655,-112.49233 -4.62451,-116.16213z" fill="#3b276d" stroke="#250077" stroke-width="2.5" stroke-linecap="butt"/><path d="M467.80434,146.57083c2.11474,-3.21616 5.95207,-5.67825 9.83686,-5.98608c4.58672,-0.36345 8.82827,1.70018 11.31042,4.12593c1.3698,1.33867 5.187,14.84091 5.62425,20.08808c0.05892,0.7071 -0.99058,14.14686 -1.30654,14.29683c-0.09321,0.04424 3.85309,12.19212 5.63951,18.42327c0.75116,2.62011 -1.72775,5.72762 -6.66762,7.29225c-3.83984,1.21621 -23.5246,-1.49598 -25.46285,-1.47305c-2.51162,0.02971 0.43875,-20.86327 0.29091,-22.88197c-0.24666,-3.3679 -0.38185,-10.12671 -0.69194,-16.3717c0,0 0.30982,-15.81451 1.42699,-17.51355z" fill="url(#color-7)" stroke="#250077" stroke-width="2.5" stroke-linecap="butt"/><path d="M478.76181,127.53431c4.13796,-0.15882 7.7079,5.32606 7.97368,12.25081c0.26578,6.92475 -14.71911,7.49988 -14.98489,0.57513c-0.26578,-6.92476 2.87325,-12.66713 7.01121,-12.82594z" fill="#c2bfff" stroke="#250077" stroke-width="2.5" stroke-linecap="butt"/><path d="M435.38594,96.65354c-0.87752,-22.86348 16.94563,-42.10937 39.80911,-42.98689c22.86348,-0.87752 42.10937,16.94563 42.98689,39.80911c0.87752,22.86348 -16.94563,42.10937 -39.80911,42.98689c-22.86348,0.87752 -42.10937,-16.94563 -42.98689,-39.80911z" fill="#c2bfff" stroke="#250077" stroke-width="2.5" stroke-linecap="butt"/><path d="M480.03969,318.86519c2.89843,-1.4274 8.40918,-2.31617 12.42059,-2.47013c11.37174,-0.43646 20.90216,-2.33925 21.81405,7.63694c0.02323,0.25414 0.70209,7.46578 0.71209,7.72632c0.40257,10.48886 -41.07003,11.2409 -41.44042,1.59052c-0.26409,-6.88078 0.96622,-11.76153 6.49368,-14.48366z" fill="#6770bb" stroke="#250077" stroke-width="2.5" stroke-linecap="butt"/><path d="M442.3012,48.43138c-0.22909,-5.96892 14.19111,-11.36827 32.20842,-12.05979c18.01731,-0.69152 32.80895,3.58666 33.03804,9.55558c0.22909,5.96892 -14.19111,11.36827 -32.20842,12.05979c-18.01731,0.69152 -32.80895,-3.58666 -33.03804,-9.55557zM474.89828,55.27379c14.40147,-0.55274 25.92772,-4.86851 25.7446,-9.63954c-0.18312,-4.77103 -12.00625,-8.19063 -26.40772,-7.63789c-14.40147,0.55274 -25.92772,4.86851 -25.7446,9.63953c0.18312,4.77103 12.00625,8.19064 26.40772,7.6379z" fill="#7ae7ff" stroke="#250077" stroke-width="2.5" stroke-linecap="butt"/><g stroke-width="2" stroke-linecap="butt"><path d="M448.61462,112.46287c0.14486,1.47052 1.03366,7.83611 -1.04328,8.01212c-0.63072,0.05344 -8.46868,-5.42148 -8.74421,-8.21847c-0.16803,-1.70578 0.70137,-5.18651 2.52182,-5.34079c3.68021,-0.3119 6.93315,2.17163 7.26567,5.54713z" fill="#250077" stroke="none"/><path d="M441.86508,105.73094c-0.0639,-0.64876 28.51301,-2.75123 38.74993,-3.36357c2.22996,-0.13339 2.6492,12.01567 -0.91178,16.50589c-2.95928,3.73151 -7.32262,6.24904 -13.00828,6.73088c-12.5274,1.06167 -23.64409,-7.83584 -24.82987,-19.87317z" fill="url(#color-8)" stroke="#250077"/><path d="M452.33367,104.87173c-0.04325,-0.43908 18.03454,-2.2558 18.07374,-1.85789c0.659,6.68975 -3.03417,12.79737 -8.39157,13.25139c-5.35742,0.45403 -9.02314,-4.70372 -9.68214,-11.39347z" fill="#ffffff" stroke="#250077"/></g><g data-paper-data="{&quot;index&quot;:null}" stroke-width="2" stroke-linecap="butt"><path d="M518.23191,100.52168c1.60275,-0.15055 2.9543,3.04727 3.10225,4.71186c0.24258,2.72944 -5.60209,9.26938 -6.15739,9.32153c-1.82858,0.17177 -2.15404,-6.08302 -2.28158,-7.51804c-0.29275,-3.29399 2.09658,-6.21099 5.33673,-6.51535z" fill="#250077" stroke="none"/><path d="M517.58122,98.89233c1.04399,11.74665 -7.05079,22.10903 -18.08025,23.14507c-5.00581,0.4702 -9.21688,-1.23013 -12.42105,-4.32581c-3.85569,-3.72512 -5.58259,-15.45325 -3.62885,-15.69102c8.96894,-1.09156 34.07388,-3.76136 34.13014,-3.12827z" fill="url(#color-9)" stroke="#250077"/><path d="M505.00553,100.25817c0.5802,6.52822 -2.57207,12.07936 -7.28886,12.52243c-4.71681,0.44307 -8.09962,-4.81259 -8.67981,-11.34077c-0.03451,-0.3883 15.93062,-1.61015 15.96869,-1.18167z" fill="#ffffff" stroke="#250077"/></g><path d="M499.86981,125.18541c0,0 -3.65022,2.9087 -9.18504,5.17429c-3.07509,1.25873 -7.38141,-0.38473 -11.31715,-0.13215c-4.21355,0.27041 -6.86943,2.61199 -10.96155,1.57194c-5.6924,-1.44677 -9.35305,-3.6832 -9.35305,-3.6832" fill="none" stroke="#250077" stroke-width="2.5" stroke-linecap="round"/><g><g fill="none" stroke="#fdf7ff" stroke-width="2" stroke-linecap="round"><path d="M470.64535,169.0991l10.09055,0.29446"/><path d="M486.04349,163.8062c0,0 2.32838,-2.80444 4.89435,-3.11249c2.58572,-0.31048 3.6243,1.98172 3.6243,1.98172"/><path d="M472.53513,179.69385l20.81989,-0.18481"/></g><path d="M475.48446,172.21625c-0.02648,-0.68985 0.43835,-1.26774 1.03824,-1.29077c0.59988,-0.02302 1.10764,0.51754 1.13412,1.20739c0.02648,0.68985 -0.43835,1.26774 -1.03824,1.29077c-0.59988,0.02302 -1.10764,-0.51754 -1.13412,-1.20739z" fill="#ffffff" stroke="none" stroke-width="0.5" stroke-linecap="butt"/><path d="M488.67916,169.79979c-0.02648,-0.68985 0.43835,-1.26774 1.03824,-1.29077c0.59988,-0.02302 1.10764,0.51754 1.13412,1.20739c0.02648,0.68985 -0.43835,1.26774 -1.03824,1.29077c-0.59988,0.02302 -1.10764,-0.51754 -1.13412,-1.20739z" fill="#ffffff" stroke="none" stroke-width="0.5" stroke-linecap="butt"/></g><g stroke-linecap="butt"><path d="M517.91171,149.34676c0,-2.3934 4.68179,-16.96021 9.78474,-16.96021c0.13186,0 1.41887,2.76664 2.97815,6.3095c0.27554,0.62606 -2.31306,1.75514 -2.02539,2.4187c0.68273,1.5748 4.25855,2.74549 4.91704,4.3228c0.82797,1.98326 1.58532,3.85244 2.14257,5.31569c4.2572,11.17869 8.68835,23.88727 9.17326,26.98501c0.47505,3.03478 -14.39528,11.07361 -19.14258,11.07361c-0.69797,0 -7.82779,-35.0516 -7.82779,-39.4651z" fill="#928bad" stroke="none" stroke-width="0"/><path d="M544.04691,175.00785c-1.42957,-0.72359 -2.99966,-1.54214 -4.7715,-2.48505c-3.12894,-1.66513 -5.51252,-2.96545 -7.48343,-4.09699c0.07051,-0.11221 0.13966,-0.22823 0.20743,-0.34812c3.47514,-6.14833 -2.99895,-9.12578 -7.33748,-11.34851c0.39316,-1.69794 -0.13484,-3.66449 -0.69054,-5.33159c-0.78664,-2.35992 -3.28837,-3.43271 -5.97821,-3.60048c0.31734,-1.39529 0.934,-3.41641 1.76632,-5.53815c5.14158,4.70486 10.81778,8.58723 16.50406,12.65926c0.38827,0.27804 0.77671,0.55853 1.16566,0.84044c2.79568,7.54593 5.40118,15.04283 6.61768,19.24919z" fill="#b5acd7" stroke="none" stroke-width="0"/><path d="M522.40949,136.76742c0.89106,0.58594 1.89556,1.01346 2.97344,1.24253c1.70488,1.52542 4.98608,4.11791 7.60568,6.15759c0.91829,2.30748 1.88991,4.81468 2.8655,7.38809c-5.21494,-3.70938 -10.37847,-7.34667 -15.05333,-11.73798c0.49358,-1.06383 1.03333,-2.10262 1.60871,-3.05023z" fill="#b5acd7" stroke="none" stroke-width="0"/><path d="M517.75213,149.34676c0,-2.3934 4.68179,-16.96021 9.78474,-16.96021c0.38382,0 1.61979,2.54342 3.26584,6.43489c0.26417,0.62452 -2.97212,1.44336 -2.68865,2.13238c0.58031,1.41058 4.70824,2.78638 5.34608,4.40418c4.76455,12.08461 10.69687,28.76772 11.26236,32.38025c0.47505,3.03478 -14.39528,11.07361 -19.14258,11.07361c-0.69797,0 -7.82779,-35.0516 -7.82779,-39.4651z" fill="none" stroke="#250077" stroke-width="2.5"/><path d="M553.95565,215.23065c0,2.74835 -13.84809,7.50163 -15.00326,7.50163c-1.15542,0 -7.82653,-22.64371 -10.07288,-35.3471c-0.03798,-0.21476 11.60192,-12.29294 15.68081,-8.12241c0.38004,0.38857 9.39533,33.54481 9.39533,35.96789z" fill="#92596a" stroke="#250077" stroke-width="2.5"/><path d="M529.58637,198.1514c0,-4.38195 9.83671,-9.12835 10.97456,-7.37849c0.89401,1.37488 1.65822,11.39139 0.61515,12.81101c-1.13149,1.53995 -3.60401,2.5017 -5.38659,2.5017c-3.42588,0 -6.20312,-3.55226 -6.20312,-7.93421z" fill="#c2bfff" stroke="#250077" stroke-width="2.5"/><path d="M543.4266,215.92435c-4.99868,0.19186 -6.33338,-17.61054 -3.05686,-17.7363c1.57585,-0.06048 6.12821,-2.00845 7.30281,-3.66085c1.53774,-2.16326 -0.38519,-4.0528 1.13341,-2.88628c3.41272,2.62151 4.81195,7.83922 4.9899,12.4755c0.31761,8.2752 -2.09405,11.49032 -10.36925,11.80793z" data-paper-data="{&quot;index&quot;:null}" fill="#c2bfff" stroke="#250077" stroke-width="2.5"/></g></g></g></g></svg>