<svg version="1.1" xmlns="http://www.w3.org/2000/svg" xmlns:xlink="http://www.w3.org/1999/xlink" width="312.31232" height="338.70968" viewBox="0,0,312.31232,338.70968"><g transform="translate(-172.1021,-9.89441)"><g data-paper-data="{&quot;isPaintingLayer&quot;:true}" fill-rule="nonzero" stroke-linejoin="miter" stroke-miterlimit="10" stroke-dasharray="" stroke-dashoffset="0" style="mix-blend-mode: normal"><g data-paper-data="{&quot;index&quot;:null}" stroke="#252674" stroke-width="2.5" stroke-linecap="butt"><path d="M337.86004,170.78362c-4.01436,-2.0123 -4.36633,-20.07455 -4.47616,-20.90922c-0.27112,-2.06058 4.9501,-2.99112 9.82899,0.14588c0.60782,0.3908 2.07478,1.28798 2.63003,1.79501c1.40286,1.28103 4.41432,14.83775 4.21957,15.02702c0,0 -9.81281,5.13918 -12.20243,3.94132z" fill="#8194ff"/><path d="M358.00032,235.90522c6.64035,1.61158 11.85363,7.44159 11.64418,13.02164c-0.08282,2.20662 2.22743,13.19339 -0.81704,16.89319c-3.19095,3.87782 -13.81188,4.15498 -20.21431,2.85876c-2.93633,-0.59448 -0.66361,-17.74291 -2.78813,-17.82737c-1.7789,-0.07073 -4.14641,1.78351 -6.11708,2.21913c-0.73326,0.16209 -2.37336,-0.4071 -2.52184,-0.57423c-1.74191,-1.96071 -1.0716,-7.6237 -0.89638,-8.25052c0.94456,-3.37886 13.57657,-8.63096 17.75915,-8.69764c1.13107,-0.01804 2.71807,0.0577 3.95144,0.35703z" data-paper-data="{&quot;index&quot;:null}" fill="#8194ff"/><path d="M337.5715,236.68767c0.05471,-0.13436 -1.14227,-41.28573 -1.84223,-68.46909c-0.01389,-0.53885 3.98158,-0.83894 7.96276,-2.23932c4.96659,-1.74701 6.63588,-4.52684 6.9546,-3.30289c5.62444,21.59891 17.58415,55.156 21.4848,73.62046c1.76018,8.33219 -0.4701,12.23449 -0.49008,12.28356c-1.02049,2.50678 -35.09034,-9.38592 -34.06985,-11.8927z" data-paper-data="{&quot;index&quot;:null}" fill="#475ac7"/></g><g stroke="#252674" stroke-width="2.5" stroke-linecap="butt"><path d="M281.97119,248.06547c0.37709,-5.21819 6.18123,-10.22958 12.96392,-11.19323c1.25982,-0.17899 2.84835,-0.12089 3.97297,-0.01235c4.15869,0.40136 16.18841,6.32127 16.77451,9.54731c0.10872,0.59845 0.18193,5.93132 -1.75873,7.61764c-0.16539,0.14373 -1.85863,0.54128 -2.57192,0.33072c-1.91699,-0.56585 -4.0803,-2.48621 -5.85945,-2.56455c-2.12481,-0.09356 -1.6612,16.07487 -4.64805,16.39086c-6.51262,0.689 -17.06155,-0.43069 -19.8326,-4.30398c-2.64385,-3.69549 0.81024,-13.74899 0.95937,-15.81248z" data-paper-data="{&quot;index&quot;:null}" fill="#8194ff"/><path d="M314.69585,238.57037c0.75328,2.41933 -34.42727,10.74163 -35.18052,8.3223c-0.01475,-0.04735 -1.82644,-3.86557 0.8012,-11.4893c9.00331,-26.12181 32.56776,-84.91745 33.22728,-85.63079c1.80307,-1.95024 11.88178,3.60633 13.09321,3.32424c0.33812,-0.07874 -12.00154,85.27972 -11.94117,85.47354z" data-paper-data="{&quot;index&quot;:null}" fill="#475ac7"/></g><path d="M308.76009,199.75176c2.69615,-8.60477 7.28591,-6.33927 9.72091,-6.05287c2.77459,0.32636 7.73726,1.78807 8.14329,13.06228c0.2779,7.71684 -6.35738,112.35459 -6.66392,115.20347c-0.33549,3.11803 -40.4675,7.41968 -42.23429,2.23205c-5.31266,-15.59896 13.91942,-16.47085 13.92291,-16.50289c0,0 15.46343,-102.68359 17.11108,-107.94205z" data-paper-data="{&quot;index&quot;:null}" fill="#8194ff" stroke="#252674" stroke-width="2.5" stroke-linecap="butt"/><path d="M343.04079,203.21358c0.98315,4.70489 9.26598,85.4217 11.37755,105.75832c0.30929,2.9788 11.59806,-3.10428 14.79022,9.13248c0.85815,3.28965 -0.53785,9.71624 -0.9287,14.65196c-0.15003,1.89459 -31.99657,3.29287 -36.25808,-0.48349c-3.8442,-3.40655 -9.30338,-7.37435 -9.40835,-12.77239c-0.15207,-7.81957 1.65047,-40.69209 2.77648,-69.80647c0.8579,-22.18182 0.98509,-42.37405 1.54184,-46.51531c1.50314,-11.18091 4.23132,-6.88243 7.02452,-6.93675c2.45134,-0.04768 7.24008,-1.85492 9.08457,6.97167z" data-paper-data="{&quot;index&quot;:null}" fill="#8194ff" stroke="#252674" stroke-width="2.5" stroke-linecap="butt"/><path d="M314.79781,177.88754c-0.00979,-0.60358 -0.87895,-18.51713 -1.32144,-26.31202c-0.16627,-2.92908 7.56075,-8.60593 12.57502,-8.68729c4.43168,-0.07191 9.35934,1.63869 12.61354,5.11634c2.47625,2.64629 -2.21661,25.26342 -1.16221,30.05986c0.00202,0.00922 7.25568,20.70453 6.25252,21.43112c-1.93735,1.40321 -17.11531,7.2248 -17.2103,7.23186c-1.29101,0.09612 -15.8399,-6.44853 -15.90166,-7.8835c-0.04498,-1.0456 4.17437,-19.73436 4.15456,-20.95638z" fill="#b3bfff" stroke="#252674" stroke-width="2.5" stroke-linecap="butt"/><path d="M331.98505,179.23033c-0.42343,-13.18382 -2.44229,-27.11662 -2.21634,-28.46136c0.79873,-4.75343 3.60207,-4.29406 6.10884,-4.33472c1.10907,-0.018 5.2479,5.8723 5.41077,10.91538c0.31613,9.79072 1.49638,26.04256 1.57587,26.34852c0.495,1.90485 15.12971,38.3147 15.13252,38.48815c0.12224,7.53349 -1.26443,13.11785 -3.47332,16.31213c-0.54301,0.78525 -3.67825,-2.26736 -4.09135,-1.5536c-3.92682,6.78479 -9.0114,4.57358 -13.75081,-3.32856c-3.42218,-5.7059 -5.31302,-15.78342 -5.47181,-25.56974c-0.12869,-7.93098 1.13019,-17.77631 0.77561,-28.81619z" fill="#475ac7" stroke="#252674" stroke-width="2.5" stroke-linecap="butt"/><path d="M319.17845,176.44912c-0.86846,10.00781 -0.22183,19.01311 -0.732,26.20909c-0.62951,8.87938 -2.83622,17.93483 -6.20736,22.94206c-4.66872,6.9345 -9.36615,8.68316 -12.57196,2.32116c-0.33727,-0.66928 -3.31768,1.94298 -3.7686,1.20214c-1.83426,-3.01363 -2.80788,-8.15583 -2.32328,-14.99115c0.01116,-0.15737 15.02429,-32.47635 15.56555,-34.18098c0.08692,-0.27378 1.95927,-14.97272 2.73099,-23.84807c0.39751,-4.57158 4.42441,-9.70968 5.42418,-9.63674c2.25968,0.16486 4.8118,-0.10929 5.29629,4.24832c0.13708,1.23276 -2.37671,13.78287 -3.4138,25.7342z" data-paper-data="{&quot;index&quot;:null}" fill="#475ac7" stroke="#252674" stroke-width="2.5" stroke-linecap="butt"/><path d="M334.97532,146.50604c0.05172,3.18738 -4.03819,4.68374 -9.11196,4.76607c-5.07377,0.08233 -9.21009,-1.28057 -9.2618,-4.46794c-0.05172,-3.18738 4.02696,-5.37628 9.10076,-5.45861c5.07377,-0.08233 9.22132,1.9731 9.27302,5.16047z" fill="#475ac7" stroke="#252674" stroke-width="2.5" stroke-linecap="butt"/><path d="M325.12836,135.30806c4.76117,-0.07726 6.3963,4.4777 6.46498,8.70986c0.02574,1.58678 -1.92387,2.93202 -3.99197,3.37522c-3.44777,0.73884 -7.76975,-0.46642 -7.81265,-3.11179c-0.06866,-4.23215 0.57848,-8.89604 5.33966,-8.97329z" fill="#b3bfff" stroke="#252674" stroke-width="2.5" stroke-linecap="butt"/><path d="M324.47238,27.18001c0.24141,-0.0005 13.36326,15.06541 16.8824,19.59119c0.7927,1.01945 3.00772,11.81941 3.77639,16.84923c1.22632,8.02469 -1.20967,12.25267 -1.22676,12.62539c-0.6968,15.19041 -14.75255,7.28808 -19.20442,7.29729c-4.95112,0.01026 -12.87344,-10.39448 -12.93842,-26.48418c-0.00091,-0.23212 5.80993,-26.83565 7.73726,-28.68873c0,0 4.0936,-1.18836 4.97356,-1.1902z" data-paper-data="{&quot;index&quot;:null}" fill="#8194ff" stroke="#252674" stroke-width="2.5" stroke-linecap="butt"/><g stroke-linecap="butt"><path d="M326.04579,141.43166c-23.85467,0.0494 -41.09468,-18.50138 -41.18841,-41.71125c-0.09373,-23.20987 14.86117,-41.79699 38.71585,-41.8464c23.85467,-0.04939 39.36567,18.47465 39.45938,41.68452c0.09373,23.20987 -13.13215,41.82373 -36.98685,41.87314z" data-paper-data="{&quot;index&quot;:null}" fill="#b3bfff" stroke="#252674" stroke-width="2.5"/><path d="M285.19247,100.18394c-0.09373,-23.20987 14.86116,-41.79699 38.71584,-41.84639c23.85467,-0.04939 39.36569,18.47467 39.45942,41.68452c0.00993,2.45499 -2.63116,16.33724 -3.56558,16.87232c-7.86539,4.50386 -34.23262,11.33098 -35.01638,11.55623c-0.26994,0.07763 -33.07664,-7.14212 -36.63459,-12.40969c0,0 -2.95644,-15.30528 -2.95869,-15.85694z" data-paper-data="{&quot;index&quot;:null}" fill="#8194ff" stroke="none" stroke-width="0"/><path d="M326.42508,141.06079c-23.85467,0.0494 -41.09468,-18.50138 -41.18841,-41.71125c-0.09373,-23.20987 14.86117,-41.79699 38.71585,-41.8464c23.85467,-0.04939 39.36567,18.47465 39.45938,41.68452c0.09373,23.20987 -13.13215,41.82373 -36.98685,41.87314z" data-paper-data="{&quot;index&quot;:null}" fill="none" stroke="#252674" stroke-width="2.5"/></g><path d="M336.07185,131.8985c0,0 -3.76067,3.7871 -5.29089,3.93861c-1.44693,0.14325 -7.2866,-2.64163 -7.34205,-2.57592c-0.00965,0.01142 -3.39205,3.0356 -4.86004,2.85538c-1.02308,-0.12561 -6.05721,-4.16877 -6.05721,-4.16877" fill="none" stroke="#252674" stroke-width="2.5" stroke-linecap="round"/><path d="M366.73411,112.63074c0.09398,1.18529 -5.94809,6.18507 -7.78989,6.33112c-2.35971,0.18711 -4.59477,-3.72369 -5.02299,-9.12412c-0.42822,-5.40042 1.13758,-9.93 3.49729,-10.1171c1.78745,-0.14173 9.21174,11.60043 9.3156,12.91009z" fill="#252674" stroke="none" stroke-width="NaN" stroke-linecap="butt"/><path d="M339.58896,84.61724c11.0001,-0.17819 20.08032,9.73437 20.28127,22.14027c0.12919,7.97595 -3.75563,14.72932 -9.24663,18.80506c-0.80776,0.59959 -10.43599,9.7557 -22.52303,-0.30578c-2.14168,-1.75332 -8.09727,-11.6451 -6.52519,-20.94395c2.75101,-16.27224 11.81208,-19.59514 18.01359,-19.6956z" fill="#82c5ff" stroke="#252674" stroke-width="2.5" stroke-linecap="butt"/><g stroke-linecap="butt"><path d="M336.20032,107.11655c-0.31771,-4.00677 1.88423,-7.44992 4.91814,-7.69048c3.03392,-0.24057 5.75096,2.81253 6.06867,6.8193c0.31771,4.00676 -1.88422,7.4499 -4.91813,7.69046c-3.03391,0.24056 -5.75095,-2.81251 -6.06866,-6.81928z" fill="#82c5ff" stroke="#ffffff" stroke-width="2.5"/><path d="M341.36858,102.58037c1.71482,-0.13596 3.25055,1.58969 3.43011,3.85438c0.17956,2.26469 -1.06499,4.21084 -2.77981,4.3468c-1.71482,0.13596 -3.25055,-1.58971 -3.43011,-3.8544c-0.17956,-2.26469 1.065,-4.21083 2.77981,-4.34679z" fill="#ffffff" stroke="none" stroke-width="0"/></g><path d="M287.23334,101.10944c2.09337,0.15609 3.53372,4.66471 3.2171,10.0703c-0.31663,5.40558 -2.25183,9.3454 -4.34521,9.1893c-1.63392,-0.12184 -7.04666,-5.04184 -6.97717,-6.22826c0.07679,-1.31091 6.51957,-13.14958 8.10528,-13.03134z" data-paper-data="{&quot;index&quot;:null}" fill="#252674" stroke="none" stroke-width="NaN" stroke-linecap="butt"/><path d="M319.90289,105.15297c1.39718,9.29366 -3.87719,19.20423 -5.77464,20.96433c-10.70861,10.09977 -19.24589,0.97446 -19.96207,0.37746c-4.86837,-4.05819 -8.31427,-10.79906 -8.20306,-18.77527c0.17297,-12.4063 8.21671,-22.34758 17.96618,-22.20441c5.49645,0.08071 13.52864,3.37473 15.97358,19.6379z" data-paper-data="{&quot;index&quot;:null}" fill="#82c5ff" stroke="#252674" stroke-width="2.5" stroke-linecap="butt"/><g data-paper-data="{&quot;index&quot;:null}" stroke-linecap="butt"><path d="M312.33305,108.06372c-0.27993,4.00771 -2.6868,7.06938 -5.37584,6.83848c-2.68906,-0.2309 -4.64205,-3.66696 -4.36211,-7.67466c0.27993,-4.00771 2.68679,-7.06941 5.37585,-6.8385c2.68906,0.2309 4.64205,3.66697 4.36212,7.67469z" fill="#82c5ff" stroke="#ffffff" stroke-width="2.5"/><path d="M310.2161,107.88194c-0.15821,2.26522 -1.51861,3.99575 -3.03852,3.86524c-1.5199,-0.1305 -2.62375,-2.07265 -2.46555,-4.33788c0.15821,-2.26522 1.51861,-3.99574 3.03852,-3.86523c1.5199,0.1305 2.62375,2.07264 2.46555,4.33787z" fill="#ffffff" stroke="none" stroke-width="0"/></g><path d="M172.1021,348.60409v-338.70968h312.31232v338.70968z" fill="none" stroke="none" stroke-width="none" stroke-linecap="butt"/></g></g></svg>