<svg version="1.1" xmlns="http://www.w3.org/2000/svg" xmlns:xlink="http://www.w3.org/1999/xlink" width="417.78448" height="227.16973" viewBox="0,0,417.78448,227.16973"><defs><linearGradient x1="317.7394" y1="111.16342" x2="317.7394" y2="278.63144" gradientUnits="userSpaceOnUse" id="color-1"><stop offset="0" stop-color="#ffa4f3"/><stop offset="1" stop-color="#ffd172"/></linearGradient><linearGradient x1="130.28848" y1="91.60074" x2="130.28848" y2="260.26284" gradientUnits="userSpaceOnUse" id="color-2"><stop offset="0" stop-color="#ffa4f3"/><stop offset="1" stop-color="#ffd172"/></linearGradient><linearGradient x1="504.4572" y1="91.60074" x2="504.4572" y2="260.26284" gradientUnits="userSpaceOnUse" id="color-3"><stop offset="0" stop-color="#ffa4f3"/><stop offset="1" stop-color="#ffd172"/></linearGradient><linearGradient x1="449.91032" y1="140.37831" x2="449.91032" y2="178.20116" gradientUnits="userSpaceOnUse" id="color-4"><stop offset="0" stop-color="#a7aaff"/><stop offset="1" stop-color="#ff84de"/></linearGradient></defs><g transform="translate(-108.2766,-52.5621)"><g data-paper-data="{&quot;isPaintingLayer&quot;:true}" fill-rule="nonzero" stroke-linejoin="miter" stroke-miterlimit="10" stroke-dasharray="" stroke-dashoffset="0" style="mix-blend-mode: normal"><g stroke="#58076b" stroke-width="1.25" stroke-linecap="butt"><path d="M137.11618,278.63144v-167.46801h361.24646v167.46802z" fill="url(#color-1)"/><path d="M118.61317,279.10682v-54.20349h398.03535v54.20349z" fill="#664585"/><path d="M118.61317,129.98558v-73.76409h398.03535v73.76409z" fill="#664585"/><path d="M115.30256,259.6791c0,-30.08979 0,-125.96129 0,-158.80596c0,-4.00442 29.97185,29.42062 29.97185,29.42062l-0.57638,94.42739c0,0 -29.39547,40.74868 -29.39547,34.95796z" fill="url(#color-2)"/><path d="M489.47128,130.29376c0,0 29.97185,-29.21148 29.97185,-26.00999c0,35.61824 0,126.28699 0,155.39534c0,5.79073 -29.39547,-34.95796 -29.39547,-34.95796z" data-paper-data="{&quot;index&quot;:null}" fill="url(#color-3)"/><path d="M315.03693,232.82676c86.47664,0 156.57981,6.00647 156.57981,13.41583c0,7.40936 -70.10317,13.41583 -156.57981,13.41583c-86.47664,0 -156.57981,-6.00647 -156.57981,-13.41583c0,-7.40936 70.10317,-13.41583 156.57981,-13.41583z" fill="#f593ff"/></g><path d="M266.51615,199.27731l21.18955,-54.69931l54.69931,21.18955l-21.18955,54.69931z" fill-opacity="0.50588" fill="#ffcff8" stroke="none" stroke-width="1.25" stroke-linecap="butt"/><path d="M348.2862,221.06326l23.55339,-40.01527l55.49508,25.10137z" fill-opacity="0.50588" fill="#ffcff8" stroke="none" stroke-width="1.25" stroke-linecap="butt"/><path d="M262.0741,138.34774l-18.2228,35.96735l-35.96735,-18.2228z" fill-opacity="0.50588" fill="#ffcff8" stroke="none" stroke-width="1.25" stroke-linecap="butt"/><g stroke="#58076b" stroke-width="1.25"><path d="M157.33841,231.01337v-18.03168h13.83619v18.03168z" fill="#8c437b" stroke-linecap="butt"/><path d="M247.39502,228.95913v-18.03169h13.83619v18.03169z" fill="#8c437b" stroke-linecap="butt"/><path d="M148.27556,237.77863l0.75041,-34.92773c0,0 13.63717,-5.57323 15.60506,-5.68575c1.39716,-0.07989 83.8865,0.06678 91.92988,0.06678c1.57005,0 12.53038,5.61897 12.53038,5.61897l0.23408,34.63009c0,0 -8.32841,0.44013 -17.24855,0.42895c-0.53889,-0.00067 0.31542,-23.41647 -0.06882,-23.41647c-25.40007,0 -71.6547,0 -85.83145,0c-1.11698,0 0.37521,23.28515 -0.75041,23.28515c-7.05639,0 -17.15057,0 -17.15057,0z" fill="#ae5c9b" stroke-linecap="butt"/><path d="M153.45456,202.71047l110.20405,-0.22825" fill="none" stroke-linecap="round"/></g><g stroke-linecap="butt"><g stroke="#58076b" stroke-width="1.25"><path d="M419.88723,178.01395c0,-8.80477 0,-35.04641 0,-38.93926c0,-0.94854 0.93773,-1.71059 2.12709,-1.71059c5.0922,0 40.79125,0 53.25138,0c2.67505,0 4.27899,0.96946 4.27899,2.61316c0,8.35394 0,34.12393 0,38.55245c0,1.26846 -0.70549,2.35807 -1.95811,2.35807c-8.88978,0 -45.33669,0 -52.73562,0c-2.54305,0 -4.96374,-1.07166 -4.96374,-2.87383z" fill="#ae5c9b"/><path d="M423.98863,175.70375c0,-7.65149 0,-30.45595 0,-33.8389c0,-0.8243 0.8149,-1.48654 1.84848,-1.48654c4.42521,0 35.44831,0 46.27637,0c2.32467,0 3.71852,0.84248 3.71852,2.27088c0,7.25971 0,29.65429 0,33.50275c0,1.10231 -0.61308,2.0492 -1.70163,2.0492c-7.72537,0 -39.39837,0 -45.82817,0c-2.20995,0 -4.31357,-0.93129 -4.31357,-2.49741z" fill="url(#color-4)"/></g><g stroke="none"><g><g stroke-width="1.25"><path d="M440.1872,160.62139c-1.02649,0.80453 -2.59987,1.58697 -4.04921,1.56966c-2.57086,-0.0307 -3.75954,-0.33442 -3.75035,-1.10415c0.00045,-0.03722 5.01458,0.22969 6.12507,-2.54677c0.56312,-1.40794 1.42689,0.33086 1.62332,0.17426c0.47455,-0.37834 0.76353,-2.29262 1.69129,-0.91118c0.73635,1.09643 -1.36339,2.6013 -1.64012,2.81819z" data-paper-data="{&quot;index&quot;:null}" fill="#624542"/><path d="M438.84585,162.02982c-0.09644,0.25802 -0.76212,4.9952 -1.60258,6.48171c-0.29263,0.51757 -1.67975,0.50502 -3.12766,0.18052c-1.73767,-0.38944 -3.56292,-1.22818 -3.68902,-2.13916c-0.30568,-2.20821 0.63134,-7.09526 0.74244,-7.39251c0.22639,-0.60568 7.9032,2.26374 7.67681,2.86943z" fill="#fad6e3"/><path d="M441.40099,165.54421c-0.58215,1.55747 -3.02203,3.21534 -3.25276,3.1291c-0.06051,-0.02261 0.37549,-1.78608 0.48304,-1.89746c0.45246,-0.46862 1.37927,-0.4982 1.51987,-1.15835c0.12627,-0.5929 -0.8594,-0.78937 -0.94932,-1.0158c-0.20659,-0.52019 0.1747,-2.37353 0.27072,-2.33763c0.23074,0.08624 2.51062,1.72268 1.92847,3.28016z" fill="#fad6e3"/><path d="M439.74714,154.64918c0.16204,-0.04921 0.37682,0.18555 0.47972,0.52437c0.1029,0.33881 0.05496,0.65337 -0.10708,0.70258c-0.16204,0.04921 -0.37682,-0.18555 -0.47972,-0.52437c-0.1029,-0.33881 -0.05495,-0.65337 0.10709,-0.70258z" data-paper-data="{&quot;index&quot;:null}" fill="#624542"/><path d="M437.45937,156.71692c0.16204,-0.04921 0.37682,0.18555 0.47972,0.52437c0.1029,0.33881 0.05495,0.65338 -0.10709,0.70259c-0.16204,0.04921 -0.37682,-0.18555 -0.47972,-0.52437c-0.1029,-0.33881 -0.05496,-0.65338 0.10708,-0.70259z" data-paper-data="{&quot;index&quot;:null}" fill="#624542"/></g><text transform="translate(435.66072,163.96926) scale(0.03858,0.03561)" font-size="40" xml:space="preserve" fill="#351b24" fill-rule="nonzero" stroke="none" stroke-width="2.5" stroke-linecap="butt" stroke-linejoin="miter" stroke-miterlimit="10" stroke-dasharray="" stroke-dashoffset="0" font-family="Sans Serif" font-weight="normal" text-anchor="start" style="mix-blend-mode: normal"><tspan x="0" dy="0">5</tspan></text></g><g><path d="M461.16488,163.41279l-5.05731,-9.72732l5.68,-0.99815l5.12385,9.52769z" fill="#926782" stroke-width="1.25"/><path d="M460.75639,154.66812l-0.58108,-1.27838l1.4527,-0.29054l0.58108,1.33648z" fill="#ea88c6" stroke-width="1.25"/><text transform="translate(461.73651,156.62146) scale(0.03561,0.03561)" font-size="40" xml:space="preserve" fill="#351b24" fill-rule="nonzero" stroke="none" stroke-width="2.5" stroke-linecap="butt" stroke-linejoin="miter" stroke-miterlimit="10" stroke-dasharray="" stroke-dashoffset="0" font-family="Sans Serif" font-weight="normal" text-anchor="start" style="mix-blend-mode: normal"><tspan x="0" dy="0">4</tspan></text></g><path d="M447.969,165.53943c0.45654,-0.34058 3.20152,-0.58654 3.76336,-0.58654c1.73737,0 3.66149,7.47983 3.66149,9.77258c0,0.75575 -7.42613,1.74329 -7.42613,0.20628c0,-1.5513 -0.95391,-8.67975 0.00127,-9.39233z" fill="#ea7094" stroke-width="1.25"/><path d="M449.70496,162.85274c0.08662,-0.45319 0.51084,0.09627 0.6464,0.09627c0.18721,0 0.8767,2.0366 0.8767,2.0886c0,0.06565 -1.80496,0.82534 -1.80496,0.36099c0,-0.57362 0.16828,-1.95165 0.28186,-2.54586z" fill="#fbb2cc" stroke-width="1.25"/><g stroke-width="1.25"><path d="M441.73055,152.17358c0,-3.21962 2.40925,-5.82965 5.38121,-5.82965c0.64999,0 0.91432,0.12485 1.49115,0.3536c0.04804,0.01906 0.46671,-0.3158 0.96031,-0.39821c0.74429,-0.12426 1.65897,-0.01725 1.73026,0.01682c1.90959,0.91235 1.19949,3.48901 1.19949,5.85742c0,3.21963 -2.40925,5.82965 -5.38121,5.82965c-2.97196,0 -5.38121,-2.61003 -5.38121,-5.82965z" fill="#fa96b9"/><path d="M440.6784,153.72953c0,-1.18226 0.24604,-2.30707 0.68972,-3.32598c0.21751,-0.49953 0.5456,2.63882 1.84367,4.25372c1.26138,1.56926 3.49116,1.615 3.86629,1.24866c0.93955,-0.91757 3.20398,-2.84118 3.35072,-5.6111c0.09044,-1.70719 -2.23647,-4.90385 -1.36701,-4.90385c2.62312,0 5.00819,1.25606 6.53676,3.14972c1.15505,1.43093 1.75695,3.2067 1.75695,5.18883c0,4.60526 -2.83643,9.59417 -7.44169,9.59417c-2.21727,0 -4.12641,-0.75288 -5.83568,-2.4662c-1.57798,-1.58172 -0.18587,6.711 -1.84602,5.21576c-0.62765,-0.56531 0.02219,-2.21186 -0.20564,-4.80342c-0.25345,-2.88309 -1.34807,-6.7432 -1.34807,-7.54031z" fill="#fbb2cc"/><g data-paper-data="{&quot;index&quot;:null}"><path d="M443.59828,149.56593c1.34977,0 2.53365,2.12091 2.53365,3.52021c0,1.3993 -1.31841,3.5202 -2.66818,3.5202c-1.34977,0 -2.21975,-2.1209 -2.21975,-3.5202c0,-1.3993 1.00451,-3.52021 2.35428,-3.52021z" fill="#fad4e1"/><path d="M443.44291,150.4628c0.98869,0 1.85585,1.55353 1.85585,2.5785c0,1.02497 -0.96571,2.57849 -1.9544,2.57849c-0.98869,0 -1.62593,-1.55353 -1.62593,-2.57849c0,-1.02497 0.73579,-2.5785 1.72447,-2.5785z" fill="#733b4f"/></g><g><path d="M457.16341,152.46505c0,1.3993 -0.86998,3.52021 -2.21975,3.52021c-1.34977,0 -2.66818,-2.12091 -2.66818,-3.52021c0,-1.03644 0.6495,-3.39705 1.53484,-4.0702c0.13186,-0.10026 0.80994,-0.30225 1.48637,0.37689c0.91361,0.91725 1.86672,2.88929 1.86672,3.69331z" fill="#fad4e1"/><path d="M456.82352,152.4202c0,1.02497 -0.63724,2.5785 -1.62593,2.5785c-0.98869,0 -1.9544,-1.55353 -1.9544,-2.5785c0,-1.02497 0.86717,-2.5785 1.85585,-2.5785c0.98869,0 1.72447,1.55353 1.72447,2.5785z" fill="#733b4f"/></g><path d="M442.82876,151.97953c0.33741,0.0714 0.44799,0.7376 0.48325,0.73663c0.20107,-0.00552 0.20876,-0.45668 0.50656,-0.46161c0.44486,-0.00735 0.75483,0.269 0.75483,0.47718c0,0.76107 -1.09762,1.75973 -1.32369,1.75973c-0.47912,0 -1.1991,-1.40794 -1.1991,-1.75973c0,-0.33026 0.51269,-0.80839 0.77816,-0.75221z" fill="#fa6599"/></g><path d="M448.86613,167.77391c0.1092,-1.05446 0.77853,-1.55457 1.56297,-2.42026c0.17748,-0.19586 0.36101,-1.83699 0.54509,-1.89218c0.10306,-0.0309 0.39632,0.1322 0.46967,0.43973c0.11115,0.466 -0.00292,1.1582 0.16426,1.17551c0.13186,0.01365 0.25299,-0.89422 0.37665,-0.85674c0.17749,0.05379 0.85561,0.09735 0.96563,0.52876c0.11718,0.45946 -0.13374,0.86514 0.00574,1.01177c0.09721,0.1022 0.83464,-1.5337 0.91629,-1.41385c0.12585,0.18473 0.60215,0.86913 0.59702,1.32844c-0.00138,0.12313 -0.79472,0.78841 -0.81384,0.91242c-0.13437,0.87148 0.13476,1.19725 0.08362,1.69105c-0.08785,0.84832 -0.29857,2.33752 -1.21967,3.09595c-0.84764,0.69794 -2.38462,0.70441 -3.02951,0.63761c-0.61399,-0.06358 -0.71566,-3.3525 -0.62394,-4.23823z" fill="#e44c8e" stroke-width="1.25"/><path d="M453.20774,165.74033c0.85446,-0.15658 2.38537,1.83756 2.78322,4.00873c0.39786,2.17117 0.02771,3.69718 -0.82676,3.85375c-0.85446,0.15658 -2.28223,0.17368 -2.68009,-1.99749c-0.39786,-2.17117 -0.13085,-5.70842 0.72361,-5.865z" fill="#fe87ab" stroke-width="1.25"/><path d="M449.59756,171.48009c-0.39786,2.17117 -1.82562,2.15406 -2.68009,1.99748c-0.85446,-0.15658 -1.22461,-1.68259 -0.82676,-3.85375c0.39786,-2.17117 1.92876,-4.16531 2.78322,-4.00873c0.85446,0.15658 1.12147,3.69384 0.72361,5.865z" data-paper-data="{&quot;index&quot;:null}" fill="#fe87ab" stroke-width="1.25"/><path d="M447.6467,158.83316c0,-0.31791 1.32071,-3.91131 1.66098,-3.91131c0.28528,0 2.25035,3.03248 2.25035,3.37552c0,0.47346 -3.91131,1.00926 -3.91131,0.5358z" fill="#fa7da9" stroke-width="1.25"/><path d="M457.86027,154.80184c-0.04826,0 0.56932,-1.5863 0.00915,-3.35589c-0.78474,-2.47902 -3.36334,-5.17526 -3.29573,-5.17526c0.02059,0 3.50745,1.91922 4.04819,0.86916c0.22811,-0.44297 0.52677,-1.41777 0.15399,-2.37873c-0.49778,-1.2832 -1.75473,-2.54171 -1.75473,-2.47629c0,0.17459 1.19128,0.73918 2.44383,2.20088c1.82593,2.1308 3.93944,5.45994 3.98617,6.40036c0.19071,3.83722 -5.50889,3.91578 -5.59087,3.91578z" fill="#3f2a25" stroke-width="1.25"/><path d="M440.4484,155.0596c-0.08199,0 -5.78158,-0.07856 -5.59087,-3.91578c0.04674,-0.94041 2.16024,-4.26955 3.98616,-6.40035c1.25256,-1.4617 2.44383,-2.02629 2.44383,-2.20088c0,-0.06542 -1.25695,1.19309 -1.75473,2.47629c-0.37278,0.96096 -0.07411,1.93576 0.154,2.37873c0.54074,1.05006 4.0276,-0.86916 4.04819,-0.86916c0.0676,0 -2.51099,2.69624 -3.29573,5.17526c-0.56017,1.76959 0.0574,3.35589 0.00915,3.35589z" data-paper-data="{&quot;index&quot;:null}" fill="#3f2a25" stroke-width="1.25"/><text transform="translate(447.73253,148.40475) scale(0.03561,0.03561)" font-size="40" xml:space="preserve" fill="#351b24" fill-rule="nonzero" stroke="none" stroke-width="2.5" stroke-linecap="butt" stroke-linejoin="miter" stroke-miterlimit="10" stroke-dasharray="" stroke-dashoffset="0" font-family="Sans Serif" font-weight="normal" text-anchor="start" style="mix-blend-mode: normal"><tspan x="0" dy="0">2</tspan></text><text transform="translate(450.52962,168.82356) scale(0.03561,0.03561)" font-size="40" xml:space="preserve" fill="#351b24" fill-rule="nonzero" stroke="none" stroke-width="2.5" stroke-linecap="butt" stroke-linejoin="miter" stroke-miterlimit="10" stroke-dasharray="" stroke-dashoffset="0" font-family="Sans Serif" font-weight="normal" text-anchor="start" style="mix-blend-mode: normal"><tspan x="0" dy="0">3</tspan></text><text transform="translate(442.83862,154.06886) scale(0.03858,0.03561)" font-size="40" xml:space="preserve" fill="#351b24" fill-rule="nonzero" stroke="none" stroke-width="2.5" stroke-linecap="butt" stroke-linejoin="miter" stroke-miterlimit="10" stroke-dasharray="" stroke-dashoffset="0" font-family="Sans Serif" font-weight="normal" text-anchor="start" style="mix-blend-mode: normal"><tspan x="0" dy="0">1</tspan></text><g><g stroke-width="1.25"><path d="M456.23849,168.66063c0.0989,0.39182 -0.43148,1.57585 -0.5637,1.60922c-0.19504,0.04923 -1.01731,-0.53209 -1.05458,-0.67975c-0.07637,-0.30259 0.15194,-0.89621 0.3481,-1.24204c0.10681,-0.18829 1.22054,0.11585 1.27018,0.31257z" fill="#ff4888"/><path d="M461.83749,166.21896c0.0989,0.39182 -0.43148,1.57585 -0.5637,1.60922c-0.19504,0.04923 -1.01732,-0.53208 -1.05459,-0.67975c-0.07637,-0.30259 0.15195,-0.89621 0.3481,-1.24204c0.10681,-0.18829 1.22053,0.11585 1.27018,0.31257z" fill="#ff4888"/><path d="M458.70044,166.67029c0.16991,0.2893 0.02245,1.3563 -0.07517,1.41362c-0.14401,0.08458 -0.93452,-0.18758 -0.99856,-0.29661c-0.13122,-0.22342 -0.08725,-0.74963 -0.0113,-1.07085c0.04135,-0.1749 0.99972,-0.19141 1.08503,-0.04617z" fill="#ff4888"/><path d="M454.46406,176.57535l-1.12518,-7.01894l5.78661,-0.75012l3.10763,5.57229z" fill="#ffbed5"/><path d="M452.79316,169.32465l-0.52857,-1.36359l4.03832,-4.48545l1.54711,1.73721z" fill="#ffbed5"/></g><text transform="translate(457.10943,173.06601) scale(0.03561,0.03561)" font-size="40" xml:space="preserve" fill="#351b24" fill-rule="nonzero" stroke="none" stroke-width="2.5" stroke-linecap="butt" stroke-linejoin="miter" stroke-miterlimit="10" stroke-dasharray="" stroke-dashoffset="0" font-family="Sans Serif" font-weight="normal" text-anchor="start" style="mix-blend-mode: normal"><tspan x="0" dy="0">6</tspan></text></g></g><text transform="translate(425.90511,176.2411) scale(0.04658,0.16676)" font-size="40" xml:space="preserve" fill-opacity="0.87843" fill="#292929" fill-rule="nonzero" stroke="none" stroke-width="2.5" stroke-linecap="butt" stroke-linejoin="miter" stroke-miterlimit="10" stroke-dasharray="" stroke-dashoffset="0" font-family="Sans Serif" font-weight="normal" text-anchor="start" style="mix-blend-mode: normal"><tspan x="0" dy="0">IT GETS ME GOING</tspan></text><text transform="translate(457.4075,146.68864) scale(0.04658,0.16676)" font-size="40" xml:space="preserve" fill-opacity="0.87843" fill="#292929" fill-rule="nonzero" stroke="none" stroke-width="2.5" stroke-linecap="butt" stroke-linejoin="miter" stroke-miterlimit="10" stroke-dasharray="" stroke-dashoffset="0" font-family="Sans Serif" font-weight="normal" text-anchor="start" style="mix-blend-mode: normal"><tspan x="0" dy="0">IT GETS ME GOING</tspan></text></g><path d="M165.32599,200.38522v-13.59345h37.62473c0,0 6.79673,4.04998 6.79673,4.61206c0,0.56036 -0.0157,5.0515 -0.48069,5.63669c-0.77876,0.98009 -6.31604,3.34469 -6.31604,3.34469z" fill="#895883" stroke="#58076b" stroke-width="1.25" stroke-linecap="butt"/><path d="M494.0357,229.4441l-0.86555,-92.03693l32.89094,-24.52395l-6.92441,149.45182z" fill="#58076b" stroke="none" stroke-width="0" stroke-linecap="butt"/><path d="M167.99613,192.86028c0,-1.87686 1.5215,-3.39836 3.39836,-3.39836c1.87686,0 3.39836,1.5215 3.39836,3.39836c0,1.87686 -1.5215,3.39836 -3.39836,3.39836c-1.87686,0 -3.39836,-1.5215 -3.39836,-3.39836z" fill="#ffd4fa" stroke="#58076b" stroke-width="1.25" stroke-linecap="butt"/><path d="M201.97977,188.49095v8.4959" fill="none" stroke="#58076b" stroke-width="1.25" stroke-linecap="round"/><path d="M357.55566,166.45639c0,-15.87295 12.86757,-28.74051 28.74051,-28.74051c15.87295,0 28.74051,12.86757 28.74051,28.74052c0,15.87295 -12.86757,28.74051 -28.74051,28.74051c-15.87295,0 -28.74051,-12.86757 -28.74051,-28.74051z" fill-opacity="0.50588" fill="#ffcff8" stroke="none" stroke-width="1.25" stroke-linecap="butt"/><path d="M445.03075,213.20834l4.53021,-24.34986l24.34986,4.53021l-4.53021,24.34986z" fill-opacity="0.50588" fill="#ffcff8" stroke="none" stroke-width="1.25" stroke-linecap="butt"/><path d="M155.55049,153.24713l22.70372,-1.03199v26.31568z" fill-opacity="0.50588" fill="#ffcff8" stroke="none" stroke-width="1.25" stroke-linecap="butt"/><path d="M115.20101,262.89612l-6.92441,-149.45182l32.89094,24.52394l-0.86555,92.03693z" data-paper-data="{&quot;index&quot;:null}" fill="#58076b" stroke="none" stroke-width="0" stroke-linecap="butt"/><path d="M222.49832,55.27642c-2.47275,21.32876 -15.0075,59.54201 -44.8493,77.69032c-7.96214,4.84218 -47.05048,19.36513 -62.17355,16.88143c-9.01685,-1.48086 -4.82246,-13.90709 -1.71038,-20.56331c1.02278,-2.18756 33.13653,5.60079 59.6303,-13.97907c35.23988,-29.94468 30.22329,-57.58277 31.5124,-58.34751c11.38869,-6.75604 17.691,-2.54839 17.59054,-1.68188z" fill="#9a6292" stroke="#58076b" stroke-width="1.25" stroke-linecap="butt"/></g></g></svg>