<svg version="1.1" xmlns="http://www.w3.org/2000/svg" xmlns:xlink="http://www.w3.org/1999/xlink" width="107.20706" height="201.81604" viewBox="0,0,107.20706,201.81604"><g transform="translate(-50.29006,-68.08386)"><g data-paper-data="{&quot;isPaintingLayer&quot;:true}" fill-rule="nonzero" stroke-linejoin="miter" stroke-miterlimit="10" stroke-dasharray="" stroke-dashoffset="0" style="mix-blend-mode: normal"><path d="M122.92353,251.14783c1.04676,-3.25365 4.4107,-6.76052 8.82781,-9.33903c1.61381,-0.94207 1.33358,-6.05205 2.93333,-6.55969c1.82476,-0.57903 15.21448,-2.10126 17.40116,-0.64305c3.58344,2.38966 3.46351,5.3292 4.16129,6.52453c0.44685,0.76547 -27.91871,19.67267 -29.73863,16.55505c-0.80507,-1.37911 -4.16149,-4.74579 -3.58496,-6.53781z" fill="#614b94" stroke="#5f0d63" stroke-width="2.5" stroke-linecap="butt"/><path d="M123.69818,245.01014c-0.31003,-0.73558 -1.99144,-10.36933 -5.76461,-21.00493c-5.95091,-16.77407 -14.88601,-37.21094 -14.94298,-38.08247c-0.1442,-2.20632 3.27667,-3.67235 4.41884,-4.45028c0.95423,-0.64992 5.47962,-1.59144 9.20551,1.24003c0.22623,0.17192 7.16476,13.1352 13.3598,25.97041c6.23145,12.91064 11.71927,25.69386 11.82861,25.9394c0.57562,1.29273 0.06401,2.8071 -2.5459,4.84201c-5.55715,7.78435 -14.45266,8.17132 -15.55925,5.54583z" fill="#5c3160" stroke="#5f0d63" stroke-width="2.5" stroke-linecap="butt"/><path d="M101.36996,260.84408c0,-1.5969 -1.2014,-6.19654 0.19994,-7.45352c2.5443,-2.2822 7.21743,-3.6149 12.33207,-3.6149c1.86865,0 4.2028,-4.55437 5.8403,-4.18627c1.86782,0.41987 11.32123,6.61187 12.47454,8.97362c1.09129,2.23473 1.19019,5.65618 1.07888,8.41533c-0.08146,2.01942 -8.48925,6.03709 -12.96731,5.64479c-9.37145,-0.82097 -18.95842,-4.73657 -18.95842,-7.77904z" fill="#614b94" stroke="#5f0d63" stroke-width="2.5" stroke-linecap="butt"/><path d="" fill="#5c3160" stroke="#5f0d63" stroke-width="2.5" stroke-linecap="butt"/><path d="M100.9072,250.86567c-0.10511,-0.7913 0.81316,-10.52747 -0.02215,-21.78158c-1.31742,-17.74956 -4.54766,-39.81916 -4.3728,-40.67488c0.44265,-2.16627 4.12902,-2.67841 5.43589,-3.12765c1.09183,-0.37532 7.14793,-0.66732 9.99537,3.04637c0.15974,0.20834 4.7495,13.18484 7.48352,26.24083c3.20152,15.28844 4.60815,31.00719 4.65195,31.29296c0.21439,1.39876 -3.64673,2.48224 -6.70084,3.75697c-7.41303,6.04359 -16.09577,4.07135 -16.47093,1.24699z" fill="#5c3160" stroke="#5f0d63" stroke-width="2.5" stroke-linecap="butt"/><path d="M145.84411,184.98516c0.52773,3.30168 -11.68512,3.47011 -12.21285,0.16843c-0.41006,-2.56547 -5.14883,-5.25174 -4.20285,-5.51153c4.24242,-1.165 15.88798,2.0414 16.41571,5.3431z" data-paper-data="{&quot;index&quot;:null}" fill="#6a4a6d" stroke="#5f0d63" stroke-width="2.5" stroke-linecap="butt"/><path d="M112.543,172.08714c-1.68618,-6.57998 -2.17988,-12.69401 -2.03351,-12.7378c0.15002,-0.04487 2.30367,0.40087 4.13501,3.46277c3.03655,5.07692 10.95516,18.98827 11.73038,19.75928c0.15792,0.15707 -1.64006,-2.39764 -0.38896,-2.66633c1.28274,-0.27549 7.50216,-1.2768 10.63985,0.43708c1.71288,0.93561 5.01046,5.02916 6.15224,5.98304c1.42616,1.19146 -0.56587,2.87194 -3.05837,2.99353c-5.97062,0.29127 -18.78711,-0.31782 -20.64185,-1.324c-1.69607,-0.92011 -4.36071,-7.42358 -6.53481,-15.90757z" data-paper-data="{&quot;index&quot;:null}" fill="#803686" stroke="#5f0d63" stroke-width="2.5" stroke-linecap="butt"/><path d="M105.13785,192.3313c-4.40224,0.4403 -8.02699,-0.94253 -8.38977,-2.28192c-0.0872,-0.32193 1.96924,-11.48861 1.94914,-11.57014c-0.02337,-0.09476 -1.34832,-7.91047 -1.68542,-13.35918c-0.1873,-3.02735 0.41954,-5.12833 0.55521,-5.23588c2.23924,-1.77512 5.79792,-2.67205 8.71704,-2.67205c3.03035,0 5.69334,0.553 7.9803,2.45359c0.66601,0.55349 0.92539,4.69403 1.01465,8.72966c0.03874,1.75139 -0.00825,8.746 -0.00825,8.77147c0,0.88078 3.23138,8.65024 3.18132,9.40297c-0.14322,2.15393 -7.32747,5.16271 -13.31422,5.76148z" fill="#803686" stroke="#5f0d63" stroke-width="2.5" stroke-linecap="butt"/><path d="M105.13785,192.3313c-2.05195,0.20523 -4.09456,-0.14523 -5.55706,-0.54317c-1.67516,-0.4558 -2.63902,-1.02367 -2.83271,-1.73875c-0.02084,-0.07694 7.08513,-5.86802 7.13694,-5.9169c0.21968,-0.20722 -0.83942,-5.47328 -0.53201,-6.06877c0.85359,-1.65353 2.76086,-0.94677 4.32142,-1.96039c1.06306,-0.69045 -2.2734,-6.78716 -2.25585,-6.85234c0.17069,-0.63362 5.3569,-2.06715 5.31808,-2.6946c-0.01216,-0.19663 -5.52577,-9.34426 -4.45261,-9.34426c3.03035,0 5.69334,0.553 7.9803,2.45359c0.66601,0.55349 0.92539,4.69403 1.01465,8.72966c0.03874,1.75139 -0.00825,8.746 -0.00825,8.77147c0,0.34835 -4.16712,2.55365 -4.51659,3.16069c-0.21528,0.37393 1.45721,6.56387 1.19167,6.93686c-0.73527,1.0328 -5.15452,4.90153 -6.80798,5.06691z" fill="#b058b5" stroke="none" stroke-width="0" stroke-linecap="butt"/><path d="M105.13785,192.3313c-4.40224,0.4403 -8.02699,-0.94253 -8.38977,-2.28192c-0.0872,-0.32193 1.96924,-11.48861 1.94914,-11.57014c-0.02337,-0.09476 -1.34832,-7.91047 -1.68542,-13.35918c-0.1873,-3.02735 0.41954,-5.12833 0.55521,-5.23588c2.23924,-1.77512 5.79792,-2.67205 8.71704,-2.67205c3.03035,0 5.69334,0.553 7.9803,2.45359c0.66601,0.55349 0.92539,4.69403 1.01465,8.72966c0.03874,1.75139 -0.00825,8.746 -0.00825,8.77147c0,0.88078 3.23138,8.65024 3.18132,9.40297c-0.14322,2.15393 -7.32747,5.16271 -13.31422,5.76148z" fill="none" stroke="#5f0d63" stroke-width="2.5" stroke-linecap="butt"/><path d="M101.48862,158.61867c-0.05266,-0.12802 -0.7059,-4.42285 0.21327,-6.5437c0.81507,-1.88066 3.12375,-1.62994 4.35537,-1.52948c2.62052,0.21374 4.98902,3.66816 4.71422,7.03741c-0.25216,3.0916 -8.17661,3.72525 -9.28287,1.03577z" fill="#6a4a6d" stroke="#5f0d63" stroke-width="2.5" stroke-linecap="butt"/><path d="M129.58417,129.75864c-0.10518,0.50504 -3.47635,-0.35527 -6.38658,-3.21658c-1.34953,-1.32683 -2.5308,-3.69099 -3.3659,-5.45496c-1.9196,-4.05471 -2.07087,-8.1316 -1.78059,-9.06111c2.09027,-6.69323 15.70769,-16.61698 16.43466,-16.70746c2.33612,-0.29076 -3.57086,28.05048 -4.90159,34.44011z" data-paper-data="{&quot;index&quot;:null}" fill="#ff3ef9" stroke="#5f0d63" stroke-width="2.5" stroke-linecap="butt"/><path d="M80.44978,130.18761c-3.22417,-6.01767 -6.98475,-36.38098 -3.74341,-36.54882c1.00867,-0.05223 11.1779,10.72471 15.5022,16.89316c0.60053,0.85663 1.29731,4.89035 -0.41564,9.24551c-0.7452,1.89466 -1.82831,4.44604 -3.36985,6.01121c-3.32432,3.37525 -7.71845,4.87457 -7.97329,4.39893z" data-paper-data="{&quot;index&quot;:null}" fill="#ff3ef9" stroke="#5f0d63" stroke-width="2.5" stroke-linecap="butt"/><path d="M80.6379,128.12138c1.45014,-13.61427 13.66226,-23.47524 27.27652,-22.0251c13.61427,1.45014 23.47524,13.66226 22.0251,27.27653c-1.45014,13.61427 -13.66226,23.47524 -27.27652,22.0251c-13.61427,-1.45014 -23.47524,-13.66226 -22.0251,-27.27652z" data-paper-data="{&quot;index&quot;:null}" fill="#6a4a6d" stroke="#5f0d63" stroke-width="2.5" stroke-linecap="butt"/><path d="M117.27762,108.85071c8.49662,4.66904 13.80904,14.11883 12.71794,24.3624c-1.15585,10.85135 -6.27695,16.54306 -15.46879,17.27887c-2.69876,0.21604 -7.10077,-5.7264 -9.2209,-12.71502c-0.98422,-3.2443 -1.25409,-19.47676 -0.04567,-21.72958c3.56221,-6.6409 10.98593,-7.7635 12.01743,-7.19667z" data-paper-data="{&quot;index&quot;:null}" fill="#946798" stroke="none" stroke-width="0" stroke-linecap="butt"/><path d="M80.58186,128.28109c1.45014,-13.61427 13.66226,-23.47524 27.27653,-22.0251c13.61427,1.45014 23.47524,13.66226 22.0251,27.27653c-1.45014,13.61427 -13.66226,23.47524 -27.27653,22.0251c-13.61427,-1.45014 -23.47524,-13.66226 -22.0251,-27.27653z" data-paper-data="{&quot;index&quot;:null}" fill="none" stroke="#5f0d63" stroke-width="2.5" stroke-linecap="butt"/><g data-paper-data="{&quot;index&quot;:null}" stroke-linecap="butt"><path d="M133.14868,135.98765c-0.07075,2.46505 -1.70455,4.4573 -3.64918,4.44982c-1.94464,-0.00749 -3.46372,-2.01185 -3.39297,-4.4769c0.07076,-2.46505 1.70455,-4.4573 3.64919,-4.44982c1.94464,0.00747 3.46372,2.01185 3.39296,4.4769z" fill="#5f0d63" stroke="none" stroke-width="0"/><path d="M122.81333,122.15202c4.84391,0.01863 8.27862,5.92692 8.06905,13.22814c-0.19869,6.92235 -5.35695,12.66997 -9.86798,13.22349c-0.24689,0.03029 1.29136,-0.0106 1.04001,-0.01157c-4.84391,-0.01863 -8.60079,-5.95255 -8.39122,-13.25377c0.20957,-7.30123 4.30622,-13.20494 9.15014,-13.18631z" fill="#ffffff" stroke="#5f0d63" stroke-width="2.5"/></g><g data-paper-data="{&quot;index&quot;:null}" stroke-linecap="butt"><path d="M90.49123,135.98576c2.71093,-0.16788 5.03848,1.79378 5.19873,4.38148c0.16025,2.5877 -1.90748,4.82155 -4.61841,4.98942c-2.71093,0.16788 -5.03848,-1.79378 -5.19873,-4.38148c-0.16025,-2.5877 1.90748,-4.82155 4.61841,-4.98942z" fill="#5f0d63" stroke="none" stroke-width="0"/><path d="M112.96595,137.23684c0.47464,7.66454 -4.61471,14.21686 -11.36739,14.63504c-6.75268,0.41818 -12.61158,-5.45616 -13.08622,-13.12069c-0.47464,-7.66454 4.61471,-14.21686 11.36738,-14.63504c6.75268,-0.41818 12.61158,5.45616 13.08622,13.1207z" fill="#ffffff" stroke="#5f0d63" stroke-width="2.5"/></g><g data-paper-data="{&quot;index&quot;:null}" stroke="none" stroke-width="0" stroke-linecap="butt"><path d="M100.24148,132.79136c2.35038,-0.14555 4.38896,1.88767 4.55329,4.54132c0.16433,2.65366 -1.60781,4.92286 -3.95819,5.06841c-2.35038,0.14555 -4.38896,-1.88767 -4.55329,-4.54132c-0.16433,-2.65365 1.60781,-4.92286 3.95819,-5.06842z" fill="#5f0d63"/><path d="M100.7779,135.57685c1.11201,-0.06886 2.07183,0.81775 2.14382,1.9803c0.072,1.16256 -0.77111,2.16082 -1.88311,2.22968c-1.11201,0.06886 -2.07183,-0.81775 -2.14383,-1.9803c-0.07199,-1.16255 0.77111,-2.16081 1.88311,-2.22968z" fill="#ffffff"/></g><g data-paper-data="{&quot;index&quot;:null}" stroke="none" stroke-width="0" stroke-linecap="butt"><path d="M119.04604,130.56906c1.92688,-0.13616 3.59901,1.78174 3.73479,4.28376c0.13578,2.50202 -1.3162,4.64068 -3.24308,4.77684c-1.92688,0.13616 -3.59901,-1.78174 -3.73479,-4.28376c-0.13578,-2.50202 1.3162,-4.64068 3.24308,-4.77684z" fill="#5f0d63"/><path d="M119.26846,133.22926c0.91164,-0.06442 1.6989,0.77194 1.75839,1.86806c0.05948,1.09612 -0.63133,2.03693 -1.54297,2.10135c-0.91164,0.06442 -1.6989,-0.77194 -1.75838,-1.86806c-0.05948,-1.09612 0.63132,-2.03693 1.54296,-2.10135z" fill="#ffffff"/></g><g data-paper-data="{&quot;index&quot;:null}" stroke="#5f0d63" stroke-width="2.5" stroke-linecap="butt"><path d="M129.26493,109.28013c0.07909,1.52754 -0.68181,3.97178 -4.44232,6.29934c-4.4936,2.7813 -12.67907,5.39599 -20.76245,6.08083c-16.89441,1.43132 -23.15226,-2.64729 -23.65337,-6.7848c-0.69149,-3.58466 7.98599,-9.63578 22.46647,-11.42909c14.78824,-1.83142 26.21807,2.48085 26.39168,5.83371z" fill="#662b69"/><path d="M86.01647,108.19505c-2.37743,-6.3106 -4.85026,-15.77773 -6.27824,-22.65843c-0.33724,-8.92858 6.69026,-15.49534 19.95856,-16.20276c19.0303,-1.01464 24.46809,3.32544 24.69451,4.47247c1.37907,6.98614 -2.14376,24.88533 -2.93406,32.44057c-0.0522,0.27957 0.36873,1.63054 -0.28466,2.29379c-0.98136,0.9962 -34.83058,0.51847 -35.15612,-0.34564z" fill="#662b69"/><path d="M84.4247,101.28131c-0.0359,-0.09037 4.40628,5.17184 5.60624,5.38192c2.94483,0.51557 8.55216,-0.05765 13.25235,-0.21235c13.91546,-0.45801 18.79766,-6.14468 18.78659,-5.96003c-0.13026,2.1724 -0.28385,4.11496 -0.4455,5.66035c-0.0522,0.27957 -0.74925,4.15976 -3.66578,5.74697c-3.04549,1.65739 -8.71719,3.12523 -13.61077,3.89674c-14.7529,0.81077 -18.11554,-2.63383 -18.22649,-4.00813c-0.24333,-3.01393 -0.77598,-8.18856 -1.69663,-10.50546z" fill="#a1a7ff"/></g><path d="" fill="none" stroke="#5f0d63" stroke-width="2.5" stroke-linecap="round"/><path d="M116.02837,150.17893c0,0 -1.50138,3.68625 -2.11918,3.71714c-0.69014,0.03451 -3.52239,-3.64072 -3.52239,-3.64072" fill="none" stroke="#5f0d63" stroke-width="2.5" stroke-linecap="round"/><path d="M94.536,193.49527c-0.18625,0.45823 -14.24136,12.73902 -16.85639,13.02414c-1.35777,0.14804 -13.98631,0.35145 -17.23139,-1.14511c-1.69373,-0.7811 -2.78521,-3.60842 -2.09015,-5.94731c0.74157,-2.4954 3.36044,-4.49737 4.28931,-4.92993c3.29986,-1.53667 19.92822,-7.91946 20.51842,-8.59897c0.88217,-1.01566 7.35347,-15.42241 10.36414,-21.52405c1.81573,-3.67992 4.99559,-4.93211 5.05373,-1.96145c0.04748,2.42597 0.18158,7.67193 -0.20434,10.94024c-1.10688,9.37425 -3.83017,20.11012 -3.84332,20.14246z" fill="#803686" stroke="#5f0d63" stroke-width="2.5" stroke-linecap="butt"/><path d="M61.78441,197.84765c5.99223,0 13.11031,4.69255 13.11031,8.25045c0,0.87734 -1.31947,1.32401 -3.30768,1.76867c-0.80814,0.18074 -1.59493,4.89608 -2.58033,5.01191c-3.53636,0.41568 -9.67973,-2.00314 -13.96791,-3.06708c-3.49886,-0.86811 -3.96036,-3.18924 -3.16333,-4.66446c1.88845,-3.49531 5.69517,-7.29947 9.90894,-7.29947z" fill="#6a4a6d" stroke="#5f0d63" stroke-width="2.5" stroke-linecap="butt"/><g fill="#a1a7ff" stroke="#5f0d63" stroke-width="2.5" stroke-linecap="butt"><path d="M110.01271,162.55778c-0.12794,3.20824 5.17586,4.56135 5.28716,3.10396c0.04383,-0.574 0.06413,-1.22674 0.06395,-1.9036c-0.00021,-0.78652 -0.54413,-1.39403 -0.5948,-2.15999c-0.03023,-0.45688 0.4475,-1.10643 0.40205,-1.50731c-0.19206,-1.69402 -0.51041,-2.7382 -0.83822,-2.75629c-1.091,-0.06023 -4.1922,2.01499 -4.32015,5.22323z"/><path d="M105.94999,163.14288c0.46051,4.45418 -5.34867,7.76291 -5.61745,5.75373c-0.10586,-0.79132 -0.19313,-1.69909 -0.25984,-2.64607c-0.07752,-1.10041 0.47189,-2.0955 0.45295,-3.1806c-0.0113,-0.64724 -0.6108,-1.42845 -0.59951,-2.00141c0.04774,-2.42121 0.30122,-3.96698 0.66675,-4.0798c1.21652,-0.37547 4.89658,1.69996 5.35709,6.15414z" data-paper-data="{&quot;index&quot;:null}"/><path d="M105.5297,162.3054c-0.07495,1.87943 1.08249,2.95868 2.5601,3.04025c1.47761,0.08157 2.71586,-0.86544 2.79081,-2.74487c0.07495,-1.87943 -1.09606,-2.61838 -2.57367,-2.69995c-1.47761,-0.08157 -2.70229,0.52513 -2.77724,2.40457z"/></g></g></g></svg>