<svg version="1.1" xmlns="http://www.w3.org/2000/svg" xmlns:xlink="http://www.w3.org/1999/xlink" width="91.52691" height="307.328" viewBox="0,0,91.52691,307.328"><defs><linearGradient x1="343.78861" y1="149.90392" x2="352.96073" y2="255.50258" gradientUnits="userSpaceOnUse" id="color-1"><stop offset="0" stop-color="#55389c"/><stop offset="1" stop-color="#3c50a8"/></linearGradient><linearGradient x1="302.99899" y1="149.90392" x2="289.91733" y2="255.50258" gradientUnits="userSpaceOnUse" id="color-2"><stop offset="0" stop-color="#55389c"/><stop offset="1" stop-color="#3c50a8"/></linearGradient><linearGradient x1="327.85782" y1="149.30682" x2="320.80036" y2="213.87664" gradientUnits="userSpaceOnUse" id="color-3"><stop offset="0" stop-color="#55389c"/><stop offset="1" stop-color="#3c50a8"/></linearGradient><linearGradient x1="297.14583" y1="109.51526" x2="341.9341" y2="117.59039" gradientUnits="userSpaceOnUse" id="color-4"><stop offset="0" stop-color="#887aff"/><stop offset="1" stop-color="#e27aff"/></linearGradient><linearGradient x1="369.12592" y1="122.62991" x2="332.77693" y2="115.83592" gradientUnits="userSpaceOnUse" id="color-5"><stop offset="0" stop-color="#887aff"/><stop offset="1" stop-color="#e27aff"/></linearGradient></defs><g transform="translate(-287.91024,-32.96591)"><g data-paper-data="{&quot;isPaintingLayer&quot;:true}" fill-rule="nonzero" stroke-linejoin="miter" stroke-miterlimit="10" stroke-dasharray="" stroke-dashoffset="0" style="mix-blend-mode: normal"><path d="M334.00781,154.94161c3.11994,-0.55124 9.75056,37.67257 10.81973,42.45382c1.65136,7.38475 -8.11562,36.10626 -8.83257,36.23293c-0.47602,0.0841 -9.41052,-77.37517 -1.98715,-78.68676z" data-paper-data="{&quot;index&quot;:null}" fill="url(#color-1)" stroke="#250077" stroke-width="2.5" stroke-linecap="butt"/><path d="M318.85759,207.43109c-0.14569,-4.89771 13.74561,-9.35382 15.51058,-9.87644c1.8133,-0.53693 30.02149,103.85162 30.40894,104.94236c0.89137,2.50934 -19.46728,29.3435 -23.78127,17.19897c-4.94828,-13.93013 -22.03011,-108.62924 -22.13824,-112.2649z" fill="#3b276d" stroke="#250077" stroke-width="2.5" stroke-linecap="butt"/><path d="M345.39451,314.28615c1.65794,-2.75299 5.7964,-6.48616 9.07528,-8.79817c9.29513,-6.55422 16.25463,-13.31126 22.40967,-5.60337c0.1568,0.19636 2.71267,8.62875 -0.88495,11.58978c-9.30331,7.6571 -26.89112,20.1162 -28.21612,18.26126c-3.93945,-5.51506 -5.54567,-10.19939 -2.38388,-15.44948z" fill="#6770bb" stroke="#250077" stroke-width="2.5" stroke-linecap="butt"/><path d="M290.95061,103.28333c-0.06135,-0.88782 -1.87182,-2.88383 -1.78751,-4.32788c0.58367,-9.99701 3.4625,-32.60091 4.71441,-40.19742c0.47582,-2.88727 24.61815,-24.86393 26.59257,-24.53854c0.1477,0.02434 -0.43321,12.60131 -0.14517,27.64556c0.38131,19.9148 1.62641,43.67566 1.62641,43.67566c0,0 -30.90969,-0.94031 -31.00072,-2.25736z" fill="#947aff" stroke="#250077" stroke-width="2.5" stroke-linecap="butt"/><path d="M338.51585,109.84058c0,0 7.61695,-22.54131 13.36331,-41.61284c4.34098,-14.40723 7.17888,-26.6736 7.32767,-26.65714c1.98892,0.22002 19.29766,27.90094 18.9759,30.80941c-0.84653,7.6523 -4.18035,30.1936 -6.3187,39.97667c-0.30889,1.41315 -2.59118,2.84592 -2.89008,3.68417c-0.44339,1.2435 -30.45813,-6.20024 -30.45813,-6.20024z" data-paper-data="{&quot;index&quot;:null}" fill="#947aff" stroke="#250077" stroke-width="2.5" stroke-linecap="butt"/><path d="M295.69013,192.29094c1.5249,-4.78125 16.27387,-41.27641 20.72366,-40.72517c11.26646,1.3957 2.08298,90.43827 -9.18349,89.04258c0,0 -2.70491,-4.65324 -4.70871,-11.10495c-3.93928,-12.68345 -8.39259,-32.31759 -6.83146,-37.21246z" fill="url(#color-2)" stroke="#250077" stroke-width="2.5" stroke-linecap="butt"/><path d="M304.39565,206.509c0.87487,-4.90363 15.39876,-6.49925 17.23506,-6.65864c1.88658,-0.16376 16.46633,119.75031 14.19448,122.39489c-8.0506,9.37147 -28.76577,13.91312 -30.46572,0.94611c-1.9499,-14.87353 -1.61327,-113.04231 -0.96381,-116.68236z" fill="#3b276d" stroke="#250077" stroke-width="2.5" stroke-linecap="butt"/><path d="M314.7437,153.5223c2.56367,-2.87114 6.72066,-4.74366 10.60859,-4.47827c4.59042,0.31334 8.48335,2.97688 10.58279,5.74051c1.1586,1.52514 2.95375,15.44128 2.61652,20.69582c-0.04545,0.70809 -3.05518,13.84849 -3.38972,13.95049c-0.09869,0.03009 2.02284,12.62546 2.87584,19.05127c0.35867,2.70196 -2.54929,5.41219 -7.66524,6.23522c-3.97672,0.63976 -23.05064,-4.93081 -24.97129,-5.19246c-2.48881,-0.33906 3.49461,-20.57319 3.64451,-22.59174c0.25007,-3.36765 1.10785,-10.07317 1.71724,-16.29609c0,0 2.62642,-15.59797 3.98075,-17.11474z" fill="url(#color-3)" stroke="#250077" stroke-width="2.5" stroke-linecap="butt"/><path d="M328.37527,136.29916c4.11649,0.44993 6.84319,6.39917 6.09025,13.288c-0.75295,6.88882 -15.66009,5.25948 -14.90715,-1.62935c0.75295,-6.88883 4.70041,-12.10859 8.8169,-11.65865z" fill="#c2bfff" stroke="#250077" stroke-width="2.5" stroke-linecap="butt"/><path d="M291.43354,97.11351c3.72051,-22.57579 25.03789,-37.86103 47.61368,-34.14052c22.57579,3.72051 37.86103,25.03789 34.14052,47.61369c-3.72051,22.57579 -25.03789,37.86103 -47.61368,34.14052c-22.57579,-3.72051 -37.86103,-25.03789 -34.14052,-47.61368z" fill="#c2bfff" stroke="#250077" stroke-width="2.5" stroke-linecap="butt"/><path d="M311.16932,317.02964c2.97125,-1.26888 8.52193,-1.85894 12.53581,-1.79617c11.37872,0.17793 20.99795,-1.2077 21.37008,8.80316c0.00947,0.25502 0.29812,7.49279 0.29405,7.75349c-0.16412,10.4953 -41.61687,9.00787 -41.46586,-0.64843c0.10766,-6.885 1.59962,-11.69223 7.26593,-14.11206z" fill="#6770bb" stroke="#250077" stroke-width="2.5" stroke-linecap="butt"/><path d="M307.86897,51.25422c0.97131,-5.89381 16.18084,-8.29491 33.97144,-5.363c17.7906,2.93191 31.42535,10.08657 30.45404,15.98038c-0.97131,5.89381 -16.18084,8.29492 -33.97144,5.36301c-17.7906,-2.93191 -31.42534,-10.08658 -30.45404,-15.98038zM338.43452,64.4881c14.22026,2.34351 26.37743,0.42428 27.15381,-4.28671c0.77638,-4.711 -10.12204,-10.42981 -24.3423,-12.77332c-14.22026,-2.34351 -26.37744,-0.42428 -27.15381,4.2867c-0.77638,4.711 10.12204,10.42982 24.3423,12.77333z" fill="#7ae7ff" stroke="#250077" stroke-width="2.5" stroke-linecap="butt"/><g stroke-width="2" stroke-linecap="butt"><path d="M301.95772,116.99898c-0.23291,1.30117 -0.98839,6.99938 -3.03889,6.62967c-0.62269,-0.11228 -6.80444,-6.7879 -6.36142,-9.26279c0.27018,-1.50934 1.9923,-4.28507 3.78958,-3.96103c3.63337,0.65507 6.14537,3.60736 5.61073,6.59414z" fill="#250077" stroke="none"/><path d="M297.14583,109.51526c0.10277,-0.57405 28.23499,4.78736 38.27691,6.82905c2.18749,0.44475 -0.48775,10.99965 -5.0653,13.96837c-3.80408,2.4671 -8.65639,3.53775 -14.26969,2.52569c-12.36796,-2.22989 -20.84853,-12.67197 -18.94194,-23.32308z" fill="url(#color-4)" stroke="#250077"/><path d="M307.47409,111.40274c0.06955,-0.38852 17.98942,2.5845 17.9264,2.93658c-1.05959,5.91936 -6.17486,10.24608 -11.46407,9.29245c-5.28923,-0.95362 -7.5219,-6.30964 -6.46231,-12.229z" fill="#ffffff" stroke="#250077"/></g><g data-paper-data="{&quot;index&quot;:null}" stroke-width="2" stroke-linecap="butt"><path d="M369.32395,124.19466c1.4586,0.27263 1.91342,3.36225 1.65673,4.83113c-0.42092,2.40852 -7.13674,6.56729 -7.6421,6.47282c-1.66413,-0.31104 -0.49488,-5.77259 -0.27357,-7.03889c0.50799,-2.90669 3.31021,-4.81621 6.25896,-4.26506z" fill="#250077" stroke="none"/><path d="M369.12592,122.62996c-1.81152,10.36552 -11.41702,17.24752 -21.45455,15.37141c-4.55561,-0.8515 -7.89929,-3.37053 -10.02335,-6.83711c-2.55597,-4.17144 -1.3553,-14.69237 0.43538,-14.40669c8.22039,1.31138 31.14016,5.3137 31.04252,5.87235z" fill="url(#color-5)" stroke="#250077"/><path d="M357.63819,120.64958c-1.00675,5.76065 -5.10074,9.74444 -9.39334,8.94212c-4.2926,-0.80233 -6.07172,-6.17158 -5.06497,-11.93219c0.05988,-0.34264 14.52442,2.61198 14.45832,2.99007z" fill="#ffffff" stroke="#250077"/></g><path d="M348.23376,140.80158c0,0 -4.26277,1.58602 -10.18262,2.14606c-3.289,0.31114 -7.03132,-2.18287 -10.89644,-2.95307c-4.13795,-0.82457 -7.29661,0.52314 -10.98505,-1.39813c-5.13084,-2.6726 -8.09925,-5.51464 -8.09925,-5.51464" fill="none" stroke="#250077" stroke-width="2.5" stroke-linecap="round"/><g><g fill="none" stroke="#fdf7ff" stroke-width="2" stroke-linecap="round"><path d="M314.24914,176.22361l9.93819,1.77154"/><path d="M330.25714,173.24685c0,0 2.7146,-2.43253 5.298,-2.36083c2.6033,0.0722 3.29438,2.49196 3.29438,2.49196"/><path d="M314.56424,186.98097l20.62176,2.87143"/></g><path d="M318.57862,180.01693c0.075,-0.68627 0.61958,-1.18972 1.21636,-1.1245c0.59677,0.06523 1.01973,0.67443 0.94473,1.3607c-0.075,0.68627 -0.61958,1.18972 -1.21636,1.12449c-0.59677,-0.06523 -1.01973,-0.67443 -0.94473,-1.3607z" fill="#ffffff" stroke="none" stroke-width="0.5" stroke-linecap="butt"/><path d="M331.98506,179.56225c0.075,-0.68627 0.61958,-1.18972 1.21636,-1.12449c0.59677,0.06523 1.01973,0.67443 0.94473,1.3607c-0.075,0.68627 -0.61958,1.18972 -1.21636,1.12449c-0.59677,-0.06523 -1.01973,-0.67443 -0.94473,-1.3607z" fill="#ffffff" stroke="none" stroke-width="0.5" stroke-linecap="butt"/></g></g></g></svg>