<svg version="1.1" xmlns="http://www.w3.org/2000/svg" xmlns:xlink="http://www.w3.org/1999/xlink" width="553.84781" height="271.77838" viewBox="0,0,553.84781,271.77838"><g transform="translate(-145.04634,-110.24676)"><g data-paper-data="{&quot;isPaintingLayer&quot;:true}" fill-rule="nonzero" stroke-linejoin="miter" stroke-miterlimit="10" stroke-dasharray="" stroke-dashoffset="0" style="mix-blend-mode: normal"><g><path d="M261.99969,306.38021c-2.83659,4.78816 -28.24423,-42.74694 -27.90672,-43.31665c3.13186,-5.28655 36.72085,-61.64942 38.58086,-64.6659c2.48299,-4.02679 7.85995,-32.80153 13.37015,-48.59079c1.48744,-4.2622 12.40307,-14.55241 14.8668,-12.25315c4.04589,3.7758 7.18751,12.00761 4.40889,19.35505c-1.23753,3.27238 19.79331,24.89244 21.41432,30.67107c1.83942,6.55724 -5.36542,6.03583 -4.70313,6.42819c0.51037,0.30236 -8.36115,-0.15983 -10.51083,-3.83907c-4.68473,-8.01808 -6.73168,-22.35246 -10.86656,-15.63806c-1.53642,2.4949 -0.26833,36.50709 -1.85498,39.99192c-1.54359,3.39025 -22.47125,25.98415 -34.57729,49.93713c-0.73914,1.46246 0.69896,9.78544 0.01498,11.19953c-0.83742,1.73133 -6.60859,-3.86733 -7.29201,-2.15466c-4.76502,11.94135 6.12107,31.07676 5.05552,32.8754z" data-paper-data="{&quot;index&quot;:null}" fill="#ffffff" stroke="#3e0e6c" stroke-width="2.5" stroke-linecap="butt"/><path d="M395.08588,213.77166c0.05167,0.12202 -3.94612,-2.09587 -6.27265,-0.99961c-0.57749,0.27211 0.42529,9.70816 -0.24633,10.03912c-12.05208,5.93902 -39.77809,11.54791 -39.97234,10.94611c-4.0729,-12.61801 -22.21019,-40.27825 -21.44826,-40.27825c5.18909,0 21.9207,-12.56541 40.27375,-3.12785c13.85422,7.12416 25.18471,17.56162 27.66582,23.42047z" fill="#ffffff" stroke="#3e0e6c" stroke-width="2.5" stroke-linecap="butt"/><path d="M343.10441,237.83415c0,-7.71427 12.68102,-13.96792 28.32385,-13.96792c9.3713,0 14.208,-5.6545 19.28714,-5.56152c1.40564,0.02573 2.47493,3.35034 4.22148,4.68508c1.66549,1.27278 8.64957,-3.95672 13.37767,-13.37835c8.37521,-16.68918 20.91629,-42.76409 33.47276,-53.1392c21.76117,-17.98074 58.99671,3.98395 58.99671,4.29624c0,0.08511 -46.06203,-13.62971 -55.31196,9.86358c-3.92329,9.96449 -4.44125,55.19155 -12.91325,62.86214c-23.54885,21.32126 -54.24935,18.30786 -61.13055,18.30786c-15.64283,0 -28.32385,-6.25366 -28.32385,-13.96793z" fill="#ffffff" stroke="#3e0e6c" stroke-width="2.5" stroke-linecap="butt"/><path d="M391.7335,225.54753c0,12.64283 -48.76109,13.87255 -49.00978,13.10211c-1.26498,-3.91896 -2.57049,-10.54744 -5.99508,-17.82432c-7.60167,-16.15271 -19.24003,-35.50024 -18.71475,-35.50024c5.18909,0 26.16075,7.33022 44.5138,16.76778c13.85422,7.12416 24.20623,10.71231 26.68734,16.57116c0.29467,0.69583 2.51846,6.269 2.51846,6.88351z" fill="#ffffff" stroke="#3e0e6c" stroke-width="2.5" stroke-linecap="butt"/><g fill="#ffffff" stroke="#3e0e6c" stroke-width="2.5" stroke-linecap="butt"><path d="M338.16205,179.35874c1.1984,-0.10156 5.85529,2.1655 4.59901,5.6061c-0.5788,1.58521 -1.20216,4.62921 0.47987,4.69526c4.55696,0.17893 4.36696,4.71641 4.54656,6.83576c0.22572,2.6635 -17.9436,3.85774 -18.30045,-0.35303c-0.58256,-6.87426 6.21992,-16.57603 8.67501,-16.78409z"/><path d="M326.61542,197.72504c2.76999,2.44799 -4.76588,17.45578 -6.51803,15.90731c-1.39418,-1.23211 -4.59136,-3.37629 -3.03105,-7.38363c0.57594,-1.47916 -1.75214,-2.4914 -3.05842,-2.80009c-2.83522,-0.66999 -2.67701,-5.82509 -2.16427,-6.80337c1.05045,-2.00415 10.24964,-2.91668 14.77177,1.07978z" data-paper-data="{&quot;index&quot;:null}"/><path d="M323.43546,197.62307c-0.26282,-3.10134 1.83977,-5.81171 4.69626,-6.05378c2.8565,-0.24208 5.38519,2.0758 5.64802,5.17714c0.26283,3.10134 -1.83975,5.81171 -4.69624,6.05378c-2.85649,0.24208 -5.3852,-2.0758 -5.64803,-5.17714z"/></g><path d="M262.79123,155.18608c0,-24.12894 19.56038,-43.68932 43.68932,-43.68932c24.12894,0 43.68932,19.56038 43.68932,43.68932c0,24.12894 -19.56038,43.68932 -43.68932,43.68932c-24.12894,0 -43.68932,-19.56038 -43.68932,-43.68932z" fill="#ffffff" stroke="#3e0e6c" stroke-width="2.5" stroke-linecap="butt"/><path d="M262.67886,150.61264c0,-0.21658 5.69246,10.0895 12.25892,12.40926c6.08986,2.15139 12.49185,-2.58103 20.52968,-4.06096c10.64724,-1.96038 25.7679,-3.69157 33.96177,-8.69536c7.83961,-4.78744 12.20413,-24.47522 12.36677,-20.93736c0.80457,17.50162 3.72653,51.80747 -0.82639,73.68153c-2.61365,12.557 -10.1969,19.13745 -17.99524,19.13745c-6.32185,0 -13.57303,-0.33068 -20.83259,-5.68181c-20.44838,-15.07282 -39.46293,-48.04565 -39.46293,-65.85274z" fill="#3e0e6c" stroke="none" stroke-width="0" stroke-linecap="butt"/><path d="M145.04634,330.43248v-181.81818h171.22683v181.81818z" fill="none" stroke="none" stroke-width="0" stroke-linecap="butt"/><path d="M350.46019,196.50147c0,0 0.10591,4.15954 -1.14025,5.95955c-1.86701,2.6968 -6.34969,7.92367 -10.13822,10.61438c-1.45305,1.03199 -5.02943,1.69091 -5.02943,1.69091" fill="none" stroke="#3e0e6c" stroke-width="2.5" stroke-linecap="round"/><path d="M368.07271,205.30773c0,0 -0.3341,2.90909 -1.20386,4.98775c-0.29984,0.71659 -0.66334,1.0471 -1.09876,1.51735c-4.08381,4.41052 -25.4208,17.63059 -25.4208,17.63059" fill="none" stroke="#3e0e6c" stroke-width="2.5" stroke-linecap="round"/><path d="M387.96834,216.3971c0,0 -0.2578,2.78523 -2.09298,4.79687c-3.11206,3.41129 -40.95985,16.72955 -40.95985,16.72955" fill="none" stroke="#3e0e6c" stroke-width="2.5" stroke-linecap="round"/><path d="M370.7421,321.78104c-0.43867,-2.04404 15.96453,-16.72757 15.2417,-29.56419c-0.10368,-1.84107 -7.35497,1.63315 -7.59873,-0.27456c-0.19909,-1.55815 3.8096,-8.99255 3.57358,-10.6141c-3.86577,-26.55856 -16.52771,-54.63216 -16.91379,-58.33721c-0.39686,-3.8084 11.61505,-35.65414 10.95121,-38.50799c-1.78656,-7.6804 -8.28306,5.26024 -15.27317,11.37372c-3.20754,2.80528 -11.76599,0.424 -11.18598,0.29953c0.75266,-0.16153 -6.24436,-1.95695 -2.41632,-7.58963c3.37349,-4.96384 30.18513,-18.77904 30.05177,-22.27506c-0.29943,-7.84959 5.29549,-14.65614 10.33162,-16.95033c3.06672,-1.39704 10.14602,11.82878 10.20175,16.34274c0.20645,16.72185 -3.8404,45.71358 -2.76592,50.32073c0.8049,3.45123 14.73944,67.56691 16.02877,73.57472c0.13894,0.64744 -39.05872,37.64307 -40.2265,32.20165z" fill="#ffffff" stroke="#3e0e6c" stroke-width="2.5" stroke-linecap="butt"/><path d="M338.46645,130.79337c1.61462,7.90476 -1.96995,23.79701 -8.99771,25.68063c-7.52026,2.01563 -18.33871,0.01964 -22.29396,-19.73297c-3.33765,-16.66829 1.12292,-21.18899 8.64318,-23.20462c4.3545,-1.16712 13.6534,5.03234 18.44489,9.60118c3.48345,3.32158 4.15596,7.42257 4.2036,7.65578z" fill="#3e0e6c" stroke="none" stroke-width="0" stroke-linecap="butt"/><path d="M268.88203,133.67395c3.02679,-5.20718 8.86367,-12.70327 11.54011,-12.23152c4.62224,0.81472 7.31743,4.55108 5.02064,21.37185c-2.72179,19.93331 -9.43959,23.55082 -14.06183,22.7361c-4.31952,-0.76137 -6.31417,-15.7577 -5.2053,-23.73965c0.03271,-0.23548 0.50587,-4.3511 2.70638,-8.13677z" data-paper-data="{&quot;index&quot;:null}" fill="#3e0e6c" stroke="none" stroke-width="0" stroke-linecap="butt"/><path d="M319.06546,140.21066c0,0.35364 -0.24572,0.64032 -0.54884,0.64032c-0.30312,0 -0.54885,-0.28668 -0.54885,-0.64032c0,-0.35364 0.24573,-0.64032 0.54885,-0.64032c0.30312,0 0.54884,0.28668 0.54884,0.64032z" fill="#ffffff" stroke="none" stroke-width="0" stroke-linecap="butt"/><path d="M274.79177,149.54106c0,0.35364 -0.24572,0.64032 -0.54884,0.64032c-0.30312,0 -0.54885,-0.28668 -0.54885,-0.64032c0,-0.35364 0.24573,-0.64032 0.54885,-0.64032c0.30312,0 0.54884,0.28668 0.54884,0.64032z" fill="#ffffff" stroke="none" stroke-width="0" stroke-linecap="butt"/><g fill="#ffffff" stroke="none" stroke-width="0.5" stroke-linecap="butt"><path d="M294.32133,177.54643c0,-0.41422 0.33578,-0.75 0.75,-0.75c0.41422,0 0.75,0.33578 0.75,0.75c0,0.0759 -0.01127,0.14916 -0.03223,0.2182c0.23677,0.09593 0.37509,0.30342 0.37509,0.30342l0.46882,0.70323c0,0 0.10635,0.15951 0.13085,0.37101c0.39012,0.02653 0.69835,0.3514 0.69835,0.74825c0,0.00257 -0.00002,0.00514 -0.00004,0.00771c0.10231,0.04139 0.19342,0.10471 0.26748,0.18413c0.3767,0.03984 0.67021,0.35854 0.67021,0.7458c0,0.07678 -0.01154,0.15087 -0.03297,0.22063c0.06975,-0.02143 0.14384,-0.03297 0.22062,-0.03297c0.12706,0 0.24674,0.03159 0.35161,0.08736c0.10487,-0.05577 0.22456,-0.08736 0.35162,-0.08736c0.12706,0 0.24674,0.03159 0.35161,0.08736c0.10487,-0.05577 0.22456,-0.08736 0.35162,-0.08736c0.12813,0 0.24874,0.03213 0.35424,0.08876c0.09403,-0.0481 0.16709,-0.06637 0.16709,-0.06637l0.93765,-0.23441c0,0 0.28965,-0.07241 0.54914,0.0569c0.10107,-0.05073 0.2152,-0.07929 0.336,-0.07929c0.32818,0 0.60713,0.21079 0.70885,0.50437c0.07213,-0.02308 0.149,-0.03554 0.22879,-0.03554c0.32232,0 0.59716,0.20333 0.70324,0.48872c0.10607,-0.28539 0.38091,-0.48872 0.70324,-0.48872c0.11832,0 0.23024,0.0274 0.32977,0.0762c0.13626,-0.18819 0.35778,-0.31061 0.60788,-0.31061c0.16237,0 0.31269,0.05159 0.43546,0.13929c0.06632,-0.34637 0.37089,-0.60811 0.7366,-0.60811c0.41422,0 0.75,0.33578 0.75,0.75c0,0.41422 -0.33578,0.75 -0.75,0.75c-0.16237,0 -0.3127,-0.0516 -0.43546,-0.1393c-0.06632,0.34637 -0.37089,0.60812 -0.73659,0.60812c-0.11832,0 -0.23024,-0.0274 -0.32977,-0.0762c-0.13626,0.18819 -0.35778,0.31061 -0.60788,0.31061c-0.32232,0 -0.59716,-0.20333 -0.70324,-0.48872c-0.10607,0.28539 -0.38091,0.48872 -0.70324,0.48872c-0.29688,0 -0.55348,-0.17251 -0.67503,-0.42275c-0.13233,0.11719 -0.30637,0.18834 -0.49703,0.18834c-0.19735,0 -0.37689,-0.07623 -0.51081,-0.20084l-0.71376,0.17844c0,0 -0.28966,0.07242 -0.54915,-0.05689c-0.10107,0.05073 -0.21519,0.07929 -0.33599,0.07929c-0.12706,0 -0.24675,-0.0316 -0.35162,-0.08737c-0.10487,0.05577 -0.22456,0.08737 -0.35161,0.08737c-0.12706,0 -0.24675,-0.0316 -0.35162,-0.08737c-0.10487,0.05577 -0.22456,0.08737 -0.35161,0.08737c-0.41422,0 -0.75,-0.33578 -0.75,-0.75c0,-0.07678 0.01154,-0.15087 0.03297,-0.22062c-0.06975,0.02143 -0.14384,0.03297 -0.22062,0.03297c-0.21657,0 -0.41171,-0.09179 -0.54862,-0.2386c-0.3767,-0.03984 -0.67021,-0.35855 -0.67021,-0.74581c0,-0.00257 0.00002,-0.00514 0.00004,-0.0077c-0.25644,-0.10376 -0.44242,-0.34521 -0.46627,-0.63268c-0.35992,-0.02015 -0.57986,-0.35006 -0.57986,-0.35006l-0.46883,-0.70324c0,0 -0.2117,-0.31754 -0.10654,-0.65061c-0.28514,-0.1062 -0.48824,-0.38091 -0.48824,-0.70306z"/><path d="M314.94955,171.68614c0,-0.41422 0.33578,-0.75 0.75,-0.75c0.41422,0 0.75,0.33578 0.75,0.75c0,0.1774 -0.06159,0.34041 -0.16456,0.46882c0.10296,0.12841 0.16456,0.29143 0.16456,0.46883c0,0.32973 -0.21279,0.60977 -0.50854,0.71028c-0.04174,0.12282 -0.11444,0.23134 -0.2088,0.31624c0.00926,0.04708 0.01411,0.09574 0.01411,0.14553c0,0.32973 -0.21279,0.60977 -0.50854,0.71028c-0.0702,0.20658 -0.228,0.37268 -0.42914,0.45407c0.00002,0.00257 0.00003,0.00513 0.00003,0.0077c0,0.03987 -0.00311,0.07902 -0.0091,0.11721c0.00599,0.03819 0.0091,0.07734 0.0091,0.11721c0,0.1774 -0.06159,0.34041 -0.16456,0.46882c0.10296,0.12841 0.16456,0.29142 0.16456,0.46882c0,0.41422 -0.33578,0.75 -0.75,0.75c-0.03987,0 -0.07902,-0.00311 -0.11721,-0.0091c-0.03819,0.006 -0.07733,0.0091 -0.1172,0.0091c-0.08186,0 -0.16066,-0.01311 -0.23441,-0.03736c-0.07375,0.02425 -0.15255,0.03736 -0.23442,0.03736c-0.22141,0 -0.42041,-0.09594 -0.55769,-0.24852c-0.04708,0.00926 -0.09575,0.01411 -0.14554,0.01411c-0.07678,0 -0.15087,-0.01154 -0.22062,-0.03297c0.02143,0.06975 0.03298,0.14384 0.03298,0.22062c0,0.32973 -0.21279,0.60977 -0.50854,0.71028c-0.09586,0.28207 -0.35503,0.48868 -0.66487,0.50719c-0.01482,0.24815 -0.1503,0.4638 -0.34857,0.58908c-0.12903,0.20421 -0.35394,0.34181 -0.61149,0.34957c0.01551,0.06008 0.02375,0.12307 0.02375,0.18799c0,0.38726 -0.2935,0.70596 -0.67021,0.7458c-0.04393,0.0471 -0.09384,0.08854 -0.14853,0.1231c-0.13286,0.21027 -0.36738,0.34992 -0.6345,0.34992c-0.06492,0 -0.12791,-0.00825 -0.18799,-0.02375c-0.01216,0.40357 -0.34314,0.72699 -0.74966,0.72699c-0.41422,0 -0.75,-0.33578 -0.75,-0.75c0,-0.41422 0.33578,-0.75 0.75,-0.75c0.06492,0 0.12792,0.00825 0.18799,0.02375c0.00776,-0.25754 0.14536,-0.48245 0.34957,-0.61148c0.05971,-0.09448 0.13993,-0.1747 0.23441,-0.23441c0.13286,-0.21027 0.36738,-0.34992 0.6345,-0.34992c0.03987,0 0.07901,0.00311 0.1172,0.0091c0.03082,-0.00484 0.06225,-0.00779 0.0942,-0.00876c-0.01551,-0.06008 -0.02375,-0.12307 -0.02375,-0.18799c0,-0.26712 0.13965,-0.50163 0.34992,-0.6345c0.12528,-0.19827 0.34093,-0.33374 0.58908,-0.34856c0.01851,-0.30984 0.22511,-0.56901 0.50718,-0.66487c0.10051,-0.29575 0.38055,-0.50854 0.71028,-0.50854c0.07678,0 0.15087,0.01154 0.22062,0.03297c-0.02143,-0.06975 -0.03298,-0.14384 -0.03298,-0.22062c0,-0.41422 0.33578,-0.75 0.75,-0.75c0.22141,0 0.42041,0.09594 0.5577,0.24852c0.03981,-0.00782 0.08074,-0.01251 0.12252,-0.01377c-0.01551,-0.06008 -0.02375,-0.12307 -0.02375,-0.18799c0,-0.03987 0.00311,-0.07902 0.00911,-0.11721c-0.00599,-0.03819 -0.00911,-0.07734 -0.00911,-0.11721c0,-0.3148 0.19394,-0.58429 0.46886,-0.69553c-0.00002,-0.00257 -0.00004,-0.00514 -0.00004,-0.00771c0,-0.31478 0.19393,-0.58427 0.46883,-0.69551c0.01306,-0.00528 0.0263,-0.01021 0.03972,-0.01477c0.04174,-0.12282 0.11444,-0.23134 0.2088,-0.31624c-0.00926,-0.04708 -0.01411,-0.09574 -0.01411,-0.14553c0,-0.32973 0.21279,-0.60977 0.50854,-0.71028c0.02832,-0.08335 0.0709,-0.1601 0.12484,-0.22736c-0.10296,-0.12841 -0.16456,-0.29142 -0.16456,-0.46882z"/></g><g fill="#ffffff" stroke="none" stroke-width="0.5" stroke-linecap="butt"><g data-paper-data="{&quot;index&quot;:null}"><path d="M319.50833,202.56246c-0.02302,0.14534 -0.08743,0.27598 -0.18026,0.38022c0.09619,0.13356 0.14927,0.29954 0.1401,0.47671c-0.02142,0.41366 -0.37411,0.73164 -0.78777,0.71022c-0.41366,-0.02142 -0.73164,-0.37411 -0.71022,-0.78777c0.00917,-0.17716 0.07911,-0.33678 0.18857,-0.45969c-0.09619,-0.13356 -0.14927,-0.29954 -0.1401,-0.47671c0.0112,-0.21629 0.11296,-0.40641 0.26665,-0.53554c0.04131,-0.26078 0.21584,-0.47419 0.44877,-0.57279c-0.11019,-0.13821 -0.17224,-0.3157 -0.16238,-0.50611c0.02142,-0.41366 0.37411,-0.73164 0.78777,-0.71022c0.41366,0.02142 0.73164,0.37411 0.71022,0.78777c-0.01535,0.29649 -0.20089,0.54382 -0.45708,0.65227c0.11019,0.13821 0.17224,0.3157 0.16238,0.50611c-0.0112,0.21629 -0.11296,0.40641 -0.26665,0.53554z"/><path d="M309.78081,206.00993c0.10762,-0.05027 0.22877,-0.07563 0.35566,-0.06906c0.08176,0.00423 0.15977,0.0214 0.23217,0.04943c0.0749,-0.0204 0.15427,-0.02942 0.23603,-0.02519c0.17716,0.00917 0.33678,0.07911 0.45969,0.18857c0.11327,-0.08157 0.24985,-0.13214 0.3968,-0.14003c0.14431,-0.13954 0.34394,-0.22112 0.56022,-0.20992c0.08176,0.00423 0.15977,0.0214 0.23216,0.04943c0.0749,-0.0204 0.15427,-0.02942 0.23603,-0.02519c0.08176,0.00423 0.15977,0.0214 0.23217,0.04943c0.0749,-0.0204 0.15427,-0.02942 0.23603,-0.02519c0.03733,0.00193 0.07388,0.00656 0.10947,0.01369c0.29677,-0.05808 0.59355,-0.11615 0.89032,-0.17423c0,0 0.13677,-0.02676 0.30393,0.00174c0.037,-0.00363 0.07474,-0.00456 0.11299,-0.00258c0.00257,0.00013 0.00513,0.00028 0.00769,0.00044c0.1253,-0.2688 0.40447,-0.44855 0.71884,-0.43227c0.11816,0.00612 0.22852,0.03926 0.32538,0.09314c0.06006,-0.0745 0.13398,-0.13712 0.21761,-0.1841c0.09732,-0.1377 0.23962,-0.24058 0.4043,-0.28825c-0.01932,-0.07323 -0.02779,-0.15064 -0.02366,-0.23033c0.01705,-0.32929 0.24403,-0.59796 0.54458,-0.68304c0.05344,-0.13405 0.14423,-0.24844 0.25892,-0.33104c0.13356,-0.09619 0.29954,-0.14927 0.47671,-0.1401c0.41366,0.02142 0.73164,0.37411 0.71022,0.78777c-0.01705,0.32929 -0.24403,0.59796 -0.54458,0.68304c-0.08549,0.21445 -0.26657,0.37858 -0.48819,0.44274c0.01932,0.07323 0.02779,0.15064 0.02366,0.23033c-0.01381,0.26676 -0.1654,0.49374 -0.38226,0.61555c-0.06451,0.09127 -0.14877,0.16724 -0.24622,0.22198c-0.14356,0.20312 -0.38498,0.33046 -0.65174,0.31665c-0.12689,-0.00657 -0.24478,-0.04431 -0.34663,-0.10543c-0.10762,0.05027 -0.22878,0.07564 -0.35567,0.06907c-0.00257,-0.00013 -0.00513,-0.00028 -0.00769,-0.00044c-0.1253,0.2688 -0.40447,0.44855 -0.71884,0.43227c-0.03733,-0.00193 -0.07387,-0.00656 -0.10946,-0.01369c-0.29677,0.05808 -0.59355,0.11615 -0.89033,0.17423l-0.33517,0.00068c-0.02692,0.00151 -0.0542,0.00159 -0.08174,0.00016c-0.08176,-0.00423 -0.15977,-0.0214 -0.23216,-0.04943c-0.0749,0.0204 -0.15428,0.02942 -0.23603,0.02519c-0.08176,-0.00423 -0.15977,-0.0214 -0.23216,-0.04943c-0.05024,0.01368 -0.10249,0.02225 -0.15612,0.02513c-0.14431,0.13954 -0.34394,0.22112 -0.56022,0.20992c-0.17716,-0.00917 -0.33677,-0.07911 -0.45969,-0.18857c-0.13356,0.09619 -0.29954,0.14927 -0.47671,0.1401c-0.08176,-0.00423 -0.15977,-0.0214 -0.23216,-0.04943c-0.0749,0.0204 -0.15428,0.02942 -0.23603,0.02519c-0.12689,-0.00657 -0.24478,-0.04431 -0.34663,-0.10542c-0.10762,0.05027 -0.22878,0.07563 -0.35567,0.06906c-0.41366,-0.02142 -0.73164,-0.37411 -0.71022,-0.78777c0.02142,-0.41366 0.37411,-0.73164 0.78777,-0.71022c0.12689,0.00657 0.24478,0.04431 0.34663,0.10542z"/><path d="M307.74217,206.84947c-0.41366,-0.02142 -0.73164,-0.37411 -0.71022,-0.78777c0.02142,-0.41366 0.37411,-0.73164 0.78777,-0.71022c0.41366,0.02142 0.73164,0.37411 0.71022,0.78777c-0.02142,0.41366 -0.37411,0.73164 -0.78777,0.71022z"/><path d="M305.2843,199.3989c-0.27952,-0.12069 -0.46837,-0.40567 -0.45171,-0.72756c0.02142,-0.41366 0.37411,-0.73164 0.78777,-0.71022c0.41366,0.02142 0.73164,0.37411 0.71022,0.78777c-0.01667,0.32189 -0.23393,0.58585 -0.52443,0.67703c0.27952,0.12069 0.46837,0.40567 0.45171,0.72756c-0.00657,0.12689 -0.04431,0.24478 -0.10542,0.34663c0.05027,0.10762 0.07563,0.22877 0.06906,0.35566c-0.00917,0.17716 -0.07911,0.33678 -0.18857,0.45969c0.08157,0.11327 0.13214,0.24986 0.14003,0.3968c0.13954,0.14431 0.22112,0.34393 0.20993,0.56022c-0.00222,0.0429 -0.00801,0.08477 -0.01705,0.12534c0.23318,0.23385 0.21479,0.58907 0.21479,0.58907l-0.02451,0.47349l0.34262,0.19407c0.14342,-0.13347 0.33865,-0.21093 0.54976,-0.2c0.41366,0.02142 0.73164,0.37411 0.71022,0.78777c-0.02142,0.41366 -0.37411,0.73164 -0.78777,0.71022c-0.04713,-0.00244 -0.09301,-0.00918 -0.13729,-0.01982c-0.37543,0.4228 -0.90799,0.12114 -0.90799,0.12114l-0.81357,-0.46083c-0.20849,-0.06709 -0.32635,-0.20492 -0.39286,-0.34413c-0.0817,-0.13088 -0.13463,-0.30432 -0.07922,-0.51622l0.04262,-0.82324c0,0 0.00304,-0.0587 0.02385,-0.14239c-0.12887,-0.12755 -0.21127,-0.30108 -0.22152,-0.49212c-0.13954,-0.14431 -0.22112,-0.34394 -0.20993,-0.56022c0.00917,-0.17716 0.07911,-0.33677 0.18857,-0.45969c-0.09619,-0.13356 -0.14927,-0.29954 -0.1401,-0.47671c0.00657,-0.12689 0.04431,-0.24478 0.10543,-0.34663c-0.05027,-0.10762 -0.07564,-0.22878 -0.06907,-0.35567c0.01667,-0.32189 0.23393,-0.58585 0.52443,-0.67703z"/></g><path d="M319.18863,194.86865c0.06931,-0.40837 0.45654,-0.68324 0.86492,-0.61394c0.40837,0.06931 0.68324,0.45654 0.61394,0.86492c-0.06931,0.40837 -0.45654,0.68324 -0.86492,0.61394c-0.40837,-0.06931 -0.68324,-0.45654 -0.61394,-0.86492z"/><path d="M319.39106,198.31373c0.06931,-0.40837 0.45654,-0.68324 0.86492,-0.61394c0.40837,0.06931 0.68324,0.45654 0.61394,0.86492c-0.06931,0.40837 -0.45654,0.68324 -0.86492,0.61394c-0.40837,-0.06931 -0.68324,-0.45654 -0.61394,-0.86492z"/><path d="M319.27054,195.932c0.06931,-0.40837 0.45654,-0.68324 0.86492,-0.61394c0.40837,0.06931 0.68324,0.45654 0.61394,0.86492c-0.06931,0.40837 -0.45654,0.68324 -0.86492,0.61394c-0.40837,-0.06931 -0.68324,-0.45654 -0.61394,-0.86492z"/></g></g><path d="M308.82383,314.49947c14.44451,-19.06907 92.0928,-13.30391 189.68405,-13.30391c107.80333,0 195.1952,17.81449 195.1952,39.78979c0,21.9753 -87.39187,39.78979 -195.1952,39.78979c-107.80334,0 -191.44386,-15.67087 -191.44386,-37.64617c0,-2.0817 0.24831,-26.63409 1.75981,-28.6295z" fill="#aa5880" stroke="#3e0e6c" stroke-width="2.5" stroke-linecap="butt"/><path d="M307.25377,319.40091c0,-21.9753 87.39186,-39.78979 195.19519,-39.78979c107.80333,0 195.19519,17.81449 195.19519,39.78979c0,21.97529 -87.39186,39.78979 -195.19519,39.78979c-107.80333,0 -195.1952,-17.81449 -195.1952,-39.78979z" fill="#aa5880" stroke="#3e0e6c" stroke-width="2.5" stroke-linecap="butt"/></g></g></svg>