<svg version="1.1" xmlns="http://www.w3.org/2000/svg" xmlns:xlink="http://www.w3.org/1999/xlink" width="218.79217" height="109.28831" viewBox="0,0,218.79217,109.28831"><defs><linearGradient x1="263.26044" y1="250.532" x2="276.59711" y2="303.46765" gradientUnits="userSpaceOnUse" id="color-1"><stop offset="0" stop-color="#67497d"/><stop offset="1" stop-color="#553783"/></linearGradient></defs><g transform="translate(-213.59642,-234.24565)"><g data-paper-data="{&quot;isPaintingLayer&quot;:true}" fill-rule="nonzero" stroke-linecap="butt" stroke-linejoin="miter" stroke-miterlimit="10" stroke-dasharray="" stroke-dashoffset="0" style="mix-blend-mode: normal"><g><path d="M230.69213,333.66115c-1.97196,-14.5735 -9.61964,-71.09251 -10.69819,-79.06339c-0.24792,-1.83221 1.04005,-3.49896 2.89348,-3.74976c8.00527,-1.0832 64.39491,-8.71337 78.99695,-10.6892c2.19517,-0.29703 3.65324,1.06572 3.91036,2.96591c1.10116,8.13796 8.79483,64.16355 10.71134,78.32729c0.27549,2.03602 -1.18497,4.24187 -3.1708,4.51058c-8.25103,1.11646 -64.33697,8.70554 -78.78899,10.66106c-2.16108,0.29242 -3.55917,-0.78254 -3.85415,-2.96249z" fill-opacity="0.74902" fill="#7c2699" stroke="none" stroke-width="0"/><g><path d="M290.43209,260.815c-0.02611,-0.23299 1.23416,-11.15329 2.14648,-18.69337c0.79453,-0.13427 1.88412,-0.28541 3.137,-0.46213c1.15857,5.86041 2.1311,13.55034 2.16087,13.81591c0.0884,0.78876 2.88445,-2.7367 2.8363,-1.79226c-0.17496,3.43122 0.2761,8.9483 -0.87498,13.34637c-1.33618,5.10531 -4.33984,8.88328 -5.24463,8.9847c-1.89879,0.21284 -3.37855,-8.21839 -4.16104,-15.19922z" data-paper-data="{&quot;index&quot;:null}" fill="#ca80ff" stroke="#541287" stroke-width="2.5"/><g data-paper-data="{&quot;index&quot;:null}" stroke-width="2.5"><path d="" fill-opacity="0.41569" fill="#601d73" stroke="#ff6aff"/><path d="" fill="#9951b7" stroke="#541287"/><path d="M270.06524,308.21612c-0.09147,-2.54715 2.3609,-1.83022 5.70634,2.68189c0.09086,0.12254 3.13194,7.77353 7.1411,17.90725c-1.33959,0.29039 -2.52118,0.55111 -3.36929,0.70316c-2.28646,0.4099 -4.76046,0.82411 -7.23085,1.22297c-0.87912,-7.4417 -1.59704,-13.95346 -1.98024,-18.25797c-0.21163,-2.37731 -0.3031,-3.72967 -0.26706,-4.25728z" fill="#9951b7" stroke="#541287"/></g><path d="" data-paper-data="{&quot;index&quot;:null}" fill="#725580" stroke="#541287" stroke-width="2.5"/><path d="" data-paper-data="{&quot;index&quot;:null}" fill="#6d3e90" stroke="none" stroke-width="0"/><path d="" data-paper-data="{&quot;index&quot;:null}" fill="#6d3e90" stroke="none" stroke-width="0"/><path d="" data-paper-data="{&quot;index&quot;:null}" fill="#725580" stroke="none" stroke-width="0"/><path d="" data-paper-data="{&quot;index&quot;:null}" fill="#725580" stroke="none" stroke-width="0"/><path d="M260.00487,315.15558c-0.13475,-1.87357 0.65856,-5.83758 1.94508,-6.18544c2.73835,-0.74041 7.42014,-1.03069 9.95009,-1.48901c2.22626,-0.4033 3.51499,0.60468 5.04107,1.87488c0.15856,0.13197 1.06255,1.29328 1.7016,4.26757c0.91363,4.25227 1.98558,10.59471 2.78167,15.50397c-0.72425,0.15537 -1.36446,0.28827 -1.88098,0.38087c-5.22329,0.9364 -11.42535,1.89528 -16.32701,2.64223c-0.47952,0.07307 -0.93769,0.14358 -1.38126,0.21248c-0.70054,-5.6023 -1.47211,-12.22779 -1.83026,-17.20754z" data-paper-data="{&quot;index&quot;:null}" fill="#9468de" stroke="#541287" stroke-width="2.5"/><path d="" data-paper-data="{&quot;index&quot;:null}" fill="#9468de" stroke="#541287" stroke-width="2.5"/><path d="M245.92448,309.00135c-4.01835,-12.75378 -10.85516,-54.47974 -9.73447,-54.83283c3.77995,-1.19095 54.5824,-9.26226 55.65102,-7.32601c0.26577,0.48156 10.24674,51.72924 8.84689,52.29213c-10.4645,4.20784 -53.56517,13.6699 -54.76344,9.86672z" fill="#9d7bb5" stroke="#541287" stroke-width="2.5"/><path d="M235.74827,304.7316c-0.14833,-0.4708 -8.34075,-40.17986 -6.37797,-41.81146c2.16628,-3.72819 5.83414,-9.68945 6.00187,-8.0898c0.98891,9.43181 6.96667,43.26664 10.40233,54.17103c0,0 -9.2499,-1.80582 -10.02622,-4.26976z" fill="#9d7bb5" stroke="#541287" stroke-width="2.5"/><path d="M240.34603,256.31299c3.42258,-1.07837 49.42204,-8.38659 50.38963,-6.63341c0.24064,0.43602 9.65931,46.44532 8.84185,47.70506c-9.47517,3.81002 -49.33235,12.02075 -50.41733,8.57713c-1.08498,-3.44362 -9.82889,-49.32907 -8.81415,-49.64878z" fill="url(#color-1)" stroke="#541287" stroke-width="2.5"/><g data-paper-data="{&quot;index&quot;:null}" stroke="#541287" stroke-width="2.5"><path d="" fill="#e5c2ff"/><path d="" fill="#9951b7"/><path d="M263.0031,312.17134c0.16913,0.50106 0.42485,1.83219 0.8252,4.18508c0.63155,3.7116 1.44377,9.108 2.33267,15.34319c-1.01859,0.15703 -2.00548,0.30792 -2.94463,0.45103c-2.65608,0.40475 -4.65706,0.73072 -7.15044,1.1415c1.17517,-9.78163 2.04826,-16.94249 2.10129,-17.07498c2.08696,-5.21494 4.27613,-6.5324 4.83591,-4.04583z" fill="#9951b7"/></g><g data-paper-data="{&quot;index&quot;:null}" stroke="none" stroke-width="0"><path d="M271.89154,271.03062c-0.51827,-6.77362 3.77059,-12.55491 9.57946,-12.91288c5.80887,-0.35798 10.93803,4.84296 11.45629,11.61658c0.51828,6.77363 -3.77059,12.5549 -9.57946,12.91288c-5.80887,0.35798 -10.93803,-4.84295 -11.45629,-11.61656z" fill="#d693ff"/><path d="M295.07506,269.6404c0.18436,2.40938 -0.90895,4.43915 -2.44195,4.53362c-1.533,0.09446 -2.92518,-1.78213 -3.10953,-4.19151c-0.18436,-2.40938 0.90894,-4.43915 2.44194,-4.53361c1.533,-0.09446 2.92518,1.78213 3.10954,4.19151z" fill="#d693ff"/><path d="M274.1846,270.88928c-0.40529,-5.29689 2.94857,-9.81784 7.49105,-10.09776c4.54247,-0.27992 8.55343,3.78715 8.95872,9.08406c0.40529,5.29689 -2.94857,9.81783 -7.49105,10.09775c-4.54247,0.27992 -8.55343,-3.78714 -8.95871,-9.08404z" fill="#573982"/></g><g data-paper-data="{&quot;index&quot;:null}" stroke="none" stroke-width="0"><path d="M270.7428,276.24165c1.93905,6.51622 -1.32425,13.2375 -7.28876,15.01238c-5.96453,1.77487 -12.37164,-2.06874 -14.31069,-8.58499c-1.93905,-6.51623 1.32424,-13.23753 7.28876,-15.0124c5.96453,-1.77487 12.37164,2.06876 14.31069,8.58499z" fill="#d693ff"/><path d="M246.95199,283.36118c-0.68971,-2.31783 0.0272,-4.57649 1.60128,-5.0449c1.57408,-0.46842 3.40925,1.03084 4.09896,3.34867c0.68971,2.31783 -0.02719,4.57649 -1.60127,5.04491c-1.57409,0.46839 -3.40925,-1.03085 -4.09898,-3.34868z" fill="#d693ff"/><path d="M262.68861,288.68179c-4.66419,1.38794 -9.67452,-1.61775 -11.19084,-6.71337c-1.51632,-5.09562 1.03554,-10.35161 5.69975,-11.73956c4.66419,-1.38794 9.67452,1.61776 11.19084,6.71339c1.51632,5.09562 -1.03555,10.35158 -5.69975,11.73954z" fill="#573982"/></g><path d="M273.60088,297.14014c0.22484,-0.99838 1.72905,-6.02078 2.61708,-6.20556c2.13383,-0.44403 5.5787,2.32302 5.7718,3.25094c0.05198,0.2497 -0.59678,0.95959 -1.44364,1.36976c-0.15871,0.07687 -2.31872,-2.27792 -3.38316,-2.02455c-0.40062,0.09535 -1.34933,3.63862 -1.45368,3.64647c-1.28423,0.09661 -2.10839,-0.03706 -2.10839,-0.03706z" fill="#d693ff" stroke="none" stroke-width="0"/></g><path d="M230.69213,333.66115c-1.97196,-14.5735 -9.61964,-71.09251 -10.69819,-79.06339c-0.24792,-1.83221 1.04005,-3.49896 2.89348,-3.74976c8.00527,-1.0832 64.39491,-8.71337 78.99695,-10.6892c2.19517,-0.29703 3.65324,1.06572 3.91036,2.96591c1.10116,8.13796 8.79483,64.16355 10.71134,78.32729c0.27549,2.03602 -1.18497,4.24187 -3.1708,4.51058c-8.25103,1.11646 -64.33697,8.70554 -78.78899,10.66106c-2.16108,0.29242 -3.55917,-0.78254 -3.85415,-2.96249z" fill="none" stroke="#7c2698" stroke-width="6.5"/><path d="M225.13724,343.53396l-11.54082,-97.36525l95.7547,-11.92306l13.38061,96.79916z" fill="none" stroke="none" stroke-width="0"/></g><path d="M225.13724,343.53396l-11.54082,-97.36525l95.7547,-11.92306l13.38061,96.79916z" fill="none" stroke="none" stroke-width="0"/><text transform="translate(329.8984,278.37322) scale(0.49479,0.49479)" font-size="40" xml:space="preserve" fill="#2a0745" fill-rule="nonzero" stroke="none" stroke-width="1" stroke-linecap="butt" stroke-linejoin="miter" stroke-miterlimit="10" stroke-dasharray="" stroke-dashoffset="0" font-family="&quot;Neon&quot;, Sans Serif" font-weight="normal" text-anchor="start" style="mix-blend-mode: normal"><tspan x="0" dy="0">Died to: </tspan></text><text transform="translate(328.61149,307.05292) scale(0.84716,0.84716)" font-size="40" xml:space="preserve" fill="#2a0745" fill-rule="nonzero" stroke="none" stroke-width="1" stroke-linecap="butt" stroke-linejoin="miter" stroke-miterlimit="10" stroke-dasharray="" stroke-dashoffset="0" font-family="&quot;Neon&quot;, Sans Serif" font-weight="normal" text-anchor="start" style="mix-blend-mode: normal"><tspan x="0" dy="0">Swave</tspan></text></g></g></svg>