<svg version="1.1" xmlns="http://www.w3.org/2000/svg" xmlns:xlink="http://www.w3.org/1999/xlink" width="547.5" height="361.2087" viewBox="0,0,547.5,361.2087"><defs><linearGradient x1="274.89364" y1="126.41953" x2="274.41571" y2="170.87243" gradientUnits="userSpaceOnUse" id="color-1"><stop offset="0" stop-color="#67497d"/><stop offset="1" stop-color="#553783"/></linearGradient><linearGradient x1="162.49887" y1="210.29874" x2="157.27438" y2="247.33951" gradientUnits="userSpaceOnUse" id="color-2"><stop offset="0" stop-color="#f2b34d"/><stop offset="1" stop-color="#f2544e"/></linearGradient><linearGradient x1="162.20591" y1="212.37579" x2="157.56734" y2="245.26246" gradientUnits="userSpaceOnUse" id="color-3"><stop offset="0" stop-color="#b9643b"/><stop offset="1" stop-color="#cb4641"/></linearGradient><linearGradient x1="162.02906" y1="213.62962" x2="157.74418" y2="244.00863" gradientUnits="userSpaceOnUse" id="color-4"><stop offset="0" stop-color="#f2b34d"/><stop offset="1" stop-color="#f2544e"/></linearGradient><linearGradient x1="326.59819" y1="236.39524" x2="345.07086" y2="237.79758" gradientUnits="userSpaceOnUse" id="color-5"><stop offset="0" stop-color="#e27aff"/><stop offset="1" stop-color="#887aff"/></linearGradient><linearGradient x1="292.99336" y1="234.94086" x2="326.54991" y2="235.88495" gradientUnits="userSpaceOnUse" id="color-6"><stop offset="0" stop-color="#887aff"/><stop offset="1" stop-color="#e27aff"/></linearGradient></defs><g transform="translate(-21.91467,-41.94192)"><g data-paper-data="{&quot;isPaintingLayer&quot;:true}" fill-rule="nonzero" stroke-linejoin="miter" stroke-miterlimit="10" stroke-dasharray="" stroke-dashoffset="0" style="mix-blend-mode: normal"><path d="M194.9403,100.64016c0.16746,-0.00045 9.27636,10.44413 11.71949,13.58187c0.55033,0.70678 2.0917,8.19724 2.62718,11.68586c0.8543,5.56582 -0.83353,8.49969 -0.84521,8.75824c-0.47643,10.53724 -10.22988,5.06214 -13.31795,5.07054c-3.43437,0.00937 -8.93447,-7.20434 -8.98686,-18.36503c-0.00074,-0.16102 4.01788,-18.61736 5.35394,-19.90364c0,0 2.83901,-0.82618 3.44939,-0.82785z" data-paper-data="{&quot;index&quot;:null}" fill="#8194ff" stroke="#252674" stroke-width="2.5" stroke-linecap="butt"/><g stroke-linecap="butt"><path d="M196.08368,179.89081c-16.54691,0.04512 -28.514,-12.81491 -28.58957,-28.91453c-0.07557,-16.09962 10.28953,-28.9995 26.83645,-29.04463c16.54691,-0.04511 27.31465,12.79715 27.39021,28.89677c0.07557,16.09962 -9.09017,29.01727 -25.63711,29.06239z" data-paper-data="{&quot;index&quot;:null}" fill="#b3bfff" stroke="#252674" stroke-width="2.5"/><path d="M167.72676,151.29766c-0.07557,-16.09962 10.28952,-28.9995 26.83644,-29.04462c16.54691,-0.04511 27.31466,12.79716 27.39024,28.89677c0.008,1.70291 -1.81769,11.33362 -2.46561,11.70521c-5.45382,3.1277 -23.74051,7.87537 -24.28407,8.03198c-0.18721,0.05397 -22.94707,-4.93913 -25.41746,-8.59139c0,0 -2.05772,-10.61526 -2.05953,-10.99792z" data-paper-data="{&quot;index&quot;:null}" fill="#8194ff" stroke="none" stroke-width="0"/><path d="M196.34661,179.63339c-16.54691,0.04512 -28.514,-12.81491 -28.58957,-28.91453c-0.07557,-16.09962 10.28953,-28.9995 26.83645,-29.04463c16.54691,-0.04511 27.31465,12.79715 27.39021,28.89677c0.07557,16.09962 -9.09017,29.01727 -25.63711,29.06239z" data-paper-data="{&quot;index&quot;:null}" fill="none" stroke="#252674" stroke-width="2.5"/></g><g><path d="M224.81466,159.89438c0.06572,0.82214 -4.12312,4.29302 -5.40063,4.39516c-1.63674,0.13087 -3.18888,-2.58087 -3.48838,-6.32671c-0.2995,-3.74584 0.78457,-6.88853 2.42131,-7.01939c1.23981,-0.09912 6.39505,8.04252 6.4677,8.95092z" fill="#252674" stroke="none" stroke-width="NaN" stroke-linecap="butt"/><path d="M204.23308,173.27307c0,0 -2.82365,2.6288 -3.97324,2.73465c-1.08701,0.10008 -5.47561,-1.8288 -5.51722,-1.78318c-0.00724,0.00794 -2.54705,2.10733 -3.65003,1.98305c-0.7687,-0.08663 -4.55265,-2.88871 -4.55265,-2.88871" fill="none" stroke="#252674" stroke-width="2.5" stroke-linecap="round"/><path d="M205.9725,140.47498c7.63021,-0.1286 13.93327,6.74317 14.0783,15.34851c0.09325,5.53251 -2.59842,10.21879 -6.40544,13.04845c-0.56004,0.41628 -7.23454,6.77185 -15.62337,-0.20185c-1.48638,-1.21522 -5.62203,-8.07402 -4.53578,-14.52494c1.90085,-11.28859 8.1846,-13.59767 12.48627,-13.67017z" fill="#82c5ff" stroke="#252674" stroke-width="2.5" stroke-linecap="butt"/><g stroke-linecap="butt"><path d="M203.63219,156.08331c-0.22221,-2.77918 1.30362,-5.16854 3.408,-5.33679c2.10439,-0.16825 3.99047,1.94831 4.21268,4.72749c0.22221,2.77917 -1.30362,5.16853 -3.408,5.33678c-2.10438,0.16825 -3.99046,-1.9483 -4.21267,-4.72748z" fill="#82c5ff" stroke="#ffffff" stroke-width="2.5"/><path d="M207.21513,152.93441c1.18944,-0.09509 2.25549,1.10122 2.38107,2.67205c0.12559,1.57083 -0.73682,2.92136 -1.92626,3.01645c-1.18944,0.09509 -2.25549,-1.10123 -2.38107,-2.67206c-0.12559,-1.57083 0.73682,-2.92135 1.92626,-3.01644z" fill="#ffffff" stroke="none" stroke-width="0"/></g><path d="M170.28719,151.63693c1.45085,0.12362 2.41684,3.26144 2.15758,7.00853c-0.25926,3.74708 -1.63045,6.46562 -3.0813,6.342c-1.13241,-0.09649 -4.85072,-3.54879 -4.79381,-4.3712c0.06288,-0.9087 4.61852,-9.07297 5.71753,-8.97933z" data-paper-data="{&quot;index&quot;:null}" fill="#252674" stroke="none" stroke-width="NaN" stroke-linecap="butt"/><path d="M192.32649,154.72867c0.97339,6.44598 -2.6807,13.32289 -3.99608,14.54467c-7.4235,7.01063 -13.34959,0.6847 -13.84664,0.27091c-3.37882,-2.81278 -5.77216,-7.48705 -5.69864,-13.01985c0.11434,-8.60579 5.6894,-15.50527 12.45226,-15.41039c3.81268,0.05348 9.38576,2.33474 11.08911,13.61468z" data-paper-data="{&quot;index&quot;:null}" fill="#82c5ff" stroke="#252674" stroke-width="2.5" stroke-linecap="butt"/><g data-paper-data="{&quot;index&quot;:null}" stroke-linecap="butt"><path d="M187.07694,156.75118c-0.19235,2.7801 -1.8605,4.90494 -3.72588,4.746c-1.86539,-0.15894 -3.22165,-2.5415 -3.02929,-5.32159c0.19235,-2.7801 1.86049,-4.90496 3.72589,-4.74601c1.86539,0.15894 3.22165,2.54151 3.0293,5.32161z" fill="#82c5ff" stroke="#ffffff" stroke-width="2.5"/><path d="M185.60842,156.62604c-0.10871,1.57135 -1.05158,2.77237 -2.10593,2.68253c-1.05435,-0.08984 -1.82092,-1.43652 -1.71221,-3.00787c0.10871,-1.57135 1.05158,-2.77236 2.10593,-2.68252c1.05435,0.08984 1.82092,1.43651 1.71221,3.00787z" fill="#ffffff" stroke="none" stroke-width="0"/></g></g><g><path d="M138.04229,157.29518c-0.26323,0.49546 -3.52243,-1.42684 -5.69254,-5.29878c-1.00632,-1.79548 -1.52188,-4.62314 -1.85822,-6.71887c-0.77314,-4.81734 0.30712,-9.12075 0.89257,-10.00326c4.21572,-6.35485 16.65661,-15.31794 17.44327,-15.19163c2.52791,0.40589 -7.45474,30.94407 -10.78507,37.21256z" data-paper-data="{&quot;index&quot;:null}" fill="#ff3ef9" stroke="#5f0d63" stroke-width="2.5" stroke-linecap="butt"/><path d="M86.39506,142.76017c-1.5393,-7.26347 5.02595,-40.63865 8.46183,-39.82947c1.06921,0.25181 7.14524,15.11948 9.78759,22.87453c0.36695,1.07696 -0.13052,5.50099 -3.24209,9.5288c-1.35365,1.75226 -3.25964,4.08769 -5.34484,5.25399c-4.4967,2.51509 -9.54083,2.74625 -9.6625,2.17214z" data-paper-data="{&quot;index&quot;:null}" fill="#ff3ef9" stroke="#5f0d63" stroke-width="2.5" stroke-linecap="butt"/><path d="M87.21906,140.65955c5.64928,-13.77688 21.39729,-20.36559 35.17417,-14.71631c13.77688,5.64928 20.36559,21.3973 14.71631,35.17417c-5.64928,13.77688 -21.39729,20.36559 -35.17417,14.71631c-13.77688,-5.64928 -20.36559,-21.39729 -14.71631,-35.17417z" data-paper-data="{&quot;index&quot;:null}" fill="#6a4a6d" stroke="#5f0d63" stroke-width="2.5" stroke-linecap="butt"/><path d="M122.50024,125.79348c13.77688,5.64928 20.36559,21.3973 14.71631,35.17417c-4.5028,10.98096 -11.57943,15.3694 -21.40189,13.34608c-8.64575,-1.78093 -12.26657,-10.6602 -10.95299,-19.38919c2.1231,-14.10843 8.93424,-32.70032 17.63857,-29.13106z" data-paper-data="{&quot;index&quot;:null}" fill="#946798" stroke="none" stroke-width="0" stroke-linecap="butt"/><path d="M87.11204,140.80931c5.64928,-13.77688 21.39729,-20.36559 35.17417,-14.71631c13.77688,5.64928 20.36559,21.3973 14.71631,35.17417c-5.64928,13.77688 -21.3973,20.36559 -35.17417,14.71631c-13.77688,-5.64928 -20.36559,-21.39729 -14.71631,-35.17417z" data-paper-data="{&quot;index&quot;:null}" fill="none" stroke="#5f0d63" stroke-width="2.5" stroke-linecap="butt"/><g data-paper-data="{&quot;index&quot;:null}" stroke-linecap="butt"><path d="M139.07661,166.45874c-0.58875,2.61831 -3.1074,4.28186 -5.62556,3.71563c-2.51816,-0.56623 -4.08225,-3.14781 -3.4935,-5.76613c0.58875,-2.61831 3.1074,-4.28185 5.62556,-3.71562c2.51816,0.56623 4.08225,3.14781 3.4935,5.76613z" fill="#5f0d63" stroke="none" stroke-width="0"/><path d="M128.77382,147.20809c6.2725,1.41043 9.94372,8.84063 8.1999,16.59583c-1.74383,7.75519 -8.42207,12.00001 -14.69457,10.58958c-6.2725,-1.41043 -9.764,-7.94201 -8.02017,-15.6972c1.74383,-7.7552 8.24234,-12.89864 14.51485,-11.48821z" fill="#ffffff" stroke="#5f0d63" stroke-width="2.5"/></g><g data-paper-data="{&quot;index&quot;:null}" stroke-linecap="butt"><path d="M91.18786,149.82693c2.882,0.64804 4.71685,3.40351 4.09827,6.15451c-0.61859,2.751 -3.45637,4.45578 -6.33837,3.80773c-2.882,-0.64804 -4.71685,-3.40351 -4.09827,-6.15451c0.61859,-2.751 3.45637,-4.45578 6.33837,-3.80773z" fill="#5f0d63" stroke="none" stroke-width="0"/><path d="M114.27812,157.95942c-1.8322,8.14819 -9.31676,12.5464 -16.49556,10.93218c-7.17879,-1.61422 -11.33334,-8.62958 -9.50114,-16.77777c1.8322,-8.14819 9.13704,-13.44503 16.31584,-11.83081c7.17879,1.61422 11.51307,9.52821 9.68087,17.67641z" fill="#ffffff" stroke="#5f0d63" stroke-width="2.5"/></g><g data-paper-data="{&quot;index&quot;:null}" stroke="none" stroke-width="0" stroke-linecap="butt"><path d="M102.97519,149.08256c2.4987,0.56185 4.01005,3.30429 3.3757,6.1254c-0.63435,2.82111 -3.17419,4.6526 -5.67289,4.09074c-2.4987,-0.56185 -4.01005,-3.30429 -3.3757,-6.1254c0.63435,-2.82111 3.17419,-4.6526 5.67289,-4.09074z" fill="#5f0d63"/><path d="M101.92477,151.70842c1.18218,0.26582 1.91524,1.48322 1.63733,2.71913c-0.27791,1.23592 -1.46154,2.02233 -2.64372,1.75651c-1.18218,-0.26582 -1.91524,-1.48322 -1.63733,-2.71914c0.27791,-1.23591 1.46154,-2.02233 2.64372,-1.7565z" fill="#ffffff"/></g><g data-paper-data="{&quot;index&quot;:null}" stroke="none" stroke-width="0" stroke-linecap="butt"><path d="M125.29216,155.30077c2.33749,0.5256 3.74754,3.10797 3.14944,5.76787c-0.5981,2.6599 -2.97787,4.39009 -5.31536,3.86448c-2.33749,-0.5256 -3.74754,-3.10797 -3.14944,-5.76787c0.5981,-2.6599 2.97787,-4.39009 5.31536,-3.86448z" fill="#5f0d63"/><path d="M124.19079,157.7699c1.10591,0.24867 1.79001,1.39492 1.52799,2.56021c-0.26203,1.16529 -1.37096,1.90835 -2.47687,1.65968c-1.10591,-0.24867 -1.79001,-1.39492 -1.52799,-2.56021c0.26203,-1.16529 1.37096,-1.90835 2.47687,-1.65968z" fill="#ffffff"/></g><g data-paper-data="{&quot;index&quot;:null}" stroke="#5f0d63" stroke-width="2.5" stroke-linecap="butt"><path d="M143.72246,135.75265c-0.83703,3.55411 -10.17589,6.95492 -26.06367,3.75897c-18.07747,-3.63642 -26.20712,-9.27892 -26.65807,-12.75487c0.36661,-3.95346 11.26629,-7.6371 26.93285,-5.11185c15.99952,2.57892 26.62592,10.55365 25.78889,14.10776z" fill="#662b69"/><path d="M98.88787,121.48415c-0.69979,-9.03908 0.85819,-22.88477 1.29203,-30.23345c0.14782,-2.50401 0.71171,-4.29199 1.45228,-4.82974c0.09141,-0.01867 9.27397,-4.65545 23.34485,-1.36439c20.18141,4.72028 24.5419,10.90415 24.42998,12.17076c-0.68166,7.71444 -9.79685,25.33652 -12.91683,32.98639c-0.13942,0.2761 -0.11016,1.81475 -0.99393,2.30894c-1.3274,0.74227 -36.53087,-10.03726 -36.60838,-11.03852z" fill="#662b69"/><path d="M99.28077,124.24646c-0.15573,-2.86336 0.41995,-6.53582 0.04466,-10.46574c-0.01221,-0.12793 -0.28348,3.32765 6.43494,6.62578c2.91868,1.43281 8.94848,2.53724 13.90386,3.80323c14.67095,3.74809 19.2816,-0.01041 19.21396,0.17906c-0.79582,2.22906 -1.54621,4.21102 -2.18438,5.77577c-0.13942,0.2761 -0.11016,1.81475 -0.99393,2.30894c-0.35364,0.19775 -4.86964,3.83339 -18.04274,0.69534c-5.26487,-1.2336 -9.90196,-2.61898 -12.86894,-4.24556c-4.09045,-2.2425 -5.50389,-4.61187 -5.50742,-4.67681z" fill="#a1a7ff"/></g><g><path d="M115.27891,173.2613c0,0 -0.93185,1.58245 -3.52028,1.43249c-0.95357,-0.05524 -1.99296,-1.323 -3.93928,-1.65914c-2.16268,-0.3735 -4.77696,-0.06558 -5.47429,-0.28184c-3.26737,-1.01329 -4.6003,-3.33263 -4.6003,-3.33263" fill="none" stroke="#5f0d63" stroke-width="2.5" stroke-linecap="round"/><path d="M112.81701,174.84137c-0.0582,0.1907 -4.03803,3.96847 -8.13819,2.71725c-4.10016,-1.25122 -6.34272,-6.80201 -6.28452,-6.99271c0.04913,-0.16101 0.4352,1.15682 4.20655,2.29384c0.69568,0.20974 4.33081,-0.19183 4.96935,0.00303c1.45706,0.44464 2.73265,1.43668 3.69877,1.70691c1.75254,0.49021 1.58555,0.14874 1.54804,0.27168z" fill="#5f0d63" stroke="none" stroke-width="0" stroke-linecap="butt"/></g></g><g stroke-linecap="butt"><g stroke="#541287" stroke-width="2.5"><path d="M298.84827,138.88817c0.36926,-1.61435 -0.02566,-11.50328 0.13353,-11.86429c3.7173,-8.4303 9.94088,-19.63091 9.94509,-19.62739c0.77579,0.65073 1.69272,13.62815 0.47264,19.78234c-0.34831,1.75693 3.67175,-3.03174 3.19325,-1.48293c-0.63554,2.05715 -1.83717,7.72871 -3.96326,12.0343c-2.38476,4.82943 -5.0595,9.72306 -6.47872,11.65291c-2.47324,3.36308 -4.13696,-6.84676 -3.30252,-10.49494z" fill="#ca80ff"/><path d="M247.32035,169.03415c0.00785,-0.73035 -0.32375,-43.82341 1.72378,-45.56638c0.74771,-0.63649 52.4167,-0.41304 52.43992,-0.32573c1.77025,6.65652 -0.64899,47.17146 -1.31365,47.87333c-2.04952,2.16426 -52.91594,4.14744 -52.85005,-1.98122z" fill="#9d7bb5"/><path d="M249.04411,123.46776c-1.2853,1.09411 2.15318,-3.03976 7.30332,-5.78868c0.41185,-0.21983 36.9752,-0.51572 39.94524,0.47965c1.33891,0.44871 5.39968,5.76658 5.19137,4.9833c-0.02321,-0.0873 -51.69221,-0.31076 -52.43992,0.32573z" fill="#9d7bb5"/><path d="M250.47945,167.2241c0.00693,-0.64518 -0.28599,-38.7131 1.52276,-40.25281c0.66052,-0.56227 46.30429,-0.36487 46.32481,-0.28775c1.56383,5.88029 -0.57331,41.6707 -1.16046,42.29075c-1.81052,1.91191 -46.74532,3.66379 -46.68711,-1.75018z" fill="url(#color-1)"/></g><g data-paper-data="{&quot;index&quot;:null}" stroke="none" stroke-width="0"><path d="M274.93592,150.22963c0.62597,-5.6669 5.33838,-9.79635 10.5255,-9.22339c5.18711,0.57296 8.88465,5.6314 8.25868,11.2983c-0.62597,5.66691 -5.33838,9.79635 -10.5255,9.22339c-5.18711,-0.57296 -8.88465,-5.63138 -8.25868,-11.29829z" fill="#d693ff"/><path d="M295.63178,152.54809c-0.22265,2.01572 -1.51288,3.52721 -2.88179,3.376c-1.36892,-0.15122 -2.29814,-1.90785 -2.07548,-3.92357c0.22265,-2.01572 1.51287,-3.52721 2.88178,-3.37599c1.36892,0.15122 2.29814,1.90785 2.07549,3.92357z" fill="#d693ff"/><path d="M276.98348,150.45581c0.4895,-4.43146 4.17458,-7.66067 8.23085,-7.21262c4.05626,0.44806 6.94771,4.4037 6.45821,8.83516c-0.4895,4.43146 -4.17458,7.66066 -8.23085,7.2126c-4.05626,-0.44806 -6.94771,-4.40368 -6.45821,-8.83515z" fill="#573982"/></g><g data-paper-data="{&quot;index&quot;:null}" stroke="none" stroke-width="0"><path d="M272.80106,152.35008c0.62597,5.66689 -3.07157,10.72532 -8.25868,11.29829c-5.18711,0.57296 -9.89953,-3.55648 -10.5255,-9.22339c-0.62597,-5.6669 3.07157,-10.72534 8.25868,-11.2983c5.18711,-0.57296 9.89953,3.55649 10.5255,9.22339z" fill="#d693ff"/><path d="M252.10519,154.66853c-0.22265,-2.01572 0.70657,-3.77235 2.07549,-3.92356c1.36892,-0.15122 2.65913,1.36027 2.88178,3.37599c0.22265,2.01572 -0.70656,3.77235 -2.07548,3.92357c-1.36892,0.1512 -2.65913,-1.36028 -2.88179,-3.376z" fill="#d693ff"/><path d="M264.29526,161.41139c-4.05626,0.44806 -7.74135,-2.78115 -8.23085,-7.2126c-0.4895,-4.43146 2.40194,-8.3871 6.45821,-8.83516c4.05626,-0.44806 7.74135,2.78116 8.23085,7.21262c0.4895,4.43146 -2.40194,8.38708 -6.45821,8.83515z" fill="#573982"/></g><path d="M270.62408,166.85057c0.36147,-0.55636 2.4067,-3.27115 2.98819,-3.18356c1.39726,0.21045 2.86866,2.66829 2.77715,3.27591c-0.02462,0.16351 -0.57886,0.44904 -1.18607,0.50775c-0.1138,0.011 -0.89685,-1.90692 -1.60104,-1.99253c-0.26503,-0.03223 -1.63954,1.90837 -1.70475,1.88965c-0.80252,-0.2304 -1.27348,-0.49721 -1.27348,-0.49721z" fill="#d693ff" stroke="none" stroke-width="0"/></g><g><g stroke-linecap="butt"><path d="M333.94291,155.52972c-3.78003,-14.70299 5.07478,-29.68641 19.77776,-33.46644c14.70298,-3.78003 29.68641,5.07478 33.46644,19.77776c3.78003,14.70299 -5.32984,29.216 -20.03282,32.99602c-14.70298,3.78003 -29.43135,-4.60436 -33.21137,-19.30734z" fill="#ffa1fe" stroke="#6b226b" stroke-width="2.5"/><path d="M333.94291,155.52972c-3.78003,-14.70299 5.07478,-29.68641 19.77776,-33.46644c14.70298,-3.78003 29.68641,5.07478 33.46644,19.77776c3.78003,14.70299 -5.32984,29.216 -20.03282,32.99602c-14.70298,3.78003 -29.43135,-4.60436 -33.21137,-19.30734z" fill="#ffc7ee" stroke="#6b226b" stroke-width="2.5"/><path d="M334.23572,155.72092c-3.78003,-14.70299 5.07477,-29.6864 19.77775,-33.46643c6.27818,-1.61407 12.63142,-0.83137 18.14061,1.72231c2.82988,1.31175 7.50489,8.96043 5.52953,18.31839c-1.94569,9.21742 -10.49484,20.13351 -13.91029,23.0311c-2.37851,2.01788 -5.5179,3.04601 -6.58453,3.29173c-1.23411,0.28428 0.43234,1.29938 -2.09842,4.09552c-3.50483,3.27099 -7.46878,0.25584 -7.7061,0.12233c-6.30303,-3.54563 -11.20567,-9.55778 -13.14856,-17.11494z" fill="#b8a1ff" stroke="none" stroke-width="0"/><path d="M333.94291,155.52972c-3.78003,-14.70299 5.07478,-29.68641 19.77776,-33.46644c14.70298,-3.78003 29.68641,5.07478 33.46644,19.77776c3.78003,14.70299 -5.32984,29.216 -20.03282,32.99602c-14.70298,3.78003 -29.43135,-4.60436 -33.21137,-19.30734z" fill="none" stroke="#6b226b" stroke-width="2.5"/></g><path d="M386.66052,144.32277c0.05389,0.34323 -0.04703,4.2902 -1.12609,7.23779c-1.28193,3.50178 -3.63595,6.07011 -4.42867,6.19459c-1.9124,0.30028 -3.72026,-2.90436 -4.21872,-6.07895c-0.49846,-3.17458 0.5688,-7.39835 2.48118,-7.69863c0.12799,-0.02009 1.54525,0.24176 2.94704,0.16888c2.02621,-0.10533 4.24203,-0.4811 4.34525,0.1763z" fill="#6b226b" stroke="none" stroke-width="0" stroke-linecap="butt"/><path d="M353.57586,154.15987c-1.17978,-7.51371 3.84018,-15.82047 11.62469,-17.04276c7.7845,-1.22229 15.38573,5.10275 16.56551,12.61645c1.17977,7.51371 -3.51305,14.28837 -11.29756,15.51066c-7.7845,1.22229 -15.71287,-3.57064 -16.89264,-11.08435z" fill="#ffffff" stroke="#6b226b" stroke-width="2.5" stroke-linecap="butt"/><path d="M366.24048,139.58387c0,0 6.64084,20.65691 6.75593,21.14064" fill="none" stroke="#6b226b" stroke-width="2.5" stroke-linecap="round"/><g data-paper-data="{&quot;index&quot;:null}"><path d="M336.18227,161.74592c0.65702,-0.49758 1.15886,-1.23137 1.22537,-1.26755c0.99358,-0.54071 3.51162,1.94656 4.8273,4.32415c1.31569,2.3776 2.06514,5.28745 1.07156,5.82817c-0.41186,0.22413 -2.69925,-0.62213 -4.963,-2.52909c-1.9055,-1.60517 -3.86093,-4.27967 -4.00318,-4.53673c-0.27245,-0.49235 0.89225,-1.09972 1.84194,-1.81894z" fill="#6b226b" stroke="none" stroke-width="0" stroke-linecap="butt"/><path d="M353.77668,157.40247c3.11401,5.62736 1.91766,12.02064 -2.12677,14.22164c-4.04443,2.201 -9.40539,-0.62373 -12.5194,-6.2511c-3.11401,-5.62736 -2.80443,-12.9463 1.24001,-15.1473c4.04443,-2.201 10.29216,1.54939 13.40617,7.17675z" fill="#ffffff" stroke="#6b226b" stroke-width="2.5" stroke-linecap="butt"/><path d="M344.80569,152.01033l6.69829,17.06" fill="none" stroke="#6b226b" stroke-width="2.5" stroke-linecap="round"/></g><path d="M376.66051,162.61105c0,0 -1.72465,3.39877 -6.32003,6.34113c-3.86727,2.47616 -10.02464,2.53645 -10.29267,2.62324c-1.61092,1.35474 -1.8512,2.19662 -4.225,2.87957c-3.06882,0.8829 -6.47819,-1.43014 -6.47819,-1.43014" fill="none" stroke="#6b226b" stroke-width="2.5" stroke-linecap="round"/><g stroke="#6b226b" stroke-width="2.5" stroke-linecap="butt"><path d="M356.174,118.2325c16.70094,-2.9121 29.35067,2.45623 30.29172,8.57188c0.94105,6.11566 -11.30326,14.6363 -28.00421,17.54842c-16.70094,2.91211 -30.15287,-1.31923 -31.09392,-7.43488c-0.94106,-6.11566 12.10546,-15.77331 28.80641,-18.68541z" fill="#7a4469"/><g><path d="M333.67771,127.96861c-0.26248,-1.70579 -8.39109,-24.85404 -11.63895,-34.5693c-2.02439,-7.64512 24.03494,-17.18214 40.5827,-17.69618c7.30736,-0.22699 14.85785,1.14769 14.77971,8.28961c-0.12655,11.56477 -0.98925,34.213 -0.44743,37.73412c0.91746,5.96238 -9.20077,12.25512 -19.83542,14.10945c-10.63463,1.85434 -22.52314,-1.90531 -23.44061,-7.86769z" fill="#7a4469"/><path d="M334.15241,130.68407c-0.08001,-0.52002 -1.36577,-5.74828 -2.54673,-9.26576c-0.30507,-0.90866 3.16895,7.56035 20.21317,5.30645c21.03983,-2.92083 25.30774,-13.21413 25.06669,-12.05261c-0.70242,3.38448 -0.08652,6.04913 0.0682,7.05471c0.91746,5.96238 -9.20077,12.25512 -19.83542,14.10945c-10.63463,1.85434 -22.04846,0.81015 -22.96592,-5.15223z" fill="#f2afff"/></g></g></g><g><path d="M440.62716,119.6458c0.88823,10.01084 -14.37545,35.42193 -20.30023,35.94761c-5.92477,0.52568 -17.38179,-27.85214 -16.25332,-37.54479c0.91632,-7.87055 36.45328,0.467 36.55356,1.59719z" data-paper-data="{&quot;index&quot;:null}" fill="#a88360" stroke="#5b2300" stroke-width="2.5" stroke-linecap="butt"/><path d="M478.81426,113.11139c1.03873,9.70268 -10.25194,39.91762 -16.17161,39.33713c-5.91966,-0.58048 -23.57189,-22.19008 -22.59107,-32.19227c0.11073,-1.1292 37.91923,-15.02355 38.76268,-7.14486z" fill="#a88360" stroke="#5b2300" stroke-width="2.5" stroke-linecap="butt"/><path d="M468.11149,148.83657c-1.46406,14.93018 -14.75422,25.84663 -29.6844,24.38257c-14.93018,-1.46406 -25.84663,-14.75422 -24.38257,-29.6844c1.46406,-14.93018 14.75421,-25.84663 29.6844,-24.38257c14.93018,1.46406 25.84663,14.75421 24.38257,29.6844z" fill="#a88360" stroke="#5b2300" stroke-width="2.5" stroke-linecap="butt"/><path d="M424.07055,155.51544c-0.39435,3.39026 -2.34267,5.94917 -4.35171,5.71549c-0.84261,-0.09801 -9.0526,-5.85983 -8.2855,-6.99464c2.1466,-3.17561 7.2298,-6.72363 8.02689,-6.63092c0.57419,0.06679 4.89195,5.48875 4.61032,7.91006z" fill="#5b2300" stroke="none" stroke-width="0" stroke-linecap="butt"/><path d="M419.10769,151.48055c0.1711,-1.74483 0.62023,-3.38862 1.29385,-4.88303c0.28531,-0.63298 23.50666,-0.73596 23.75349,0.10299c0.68815,2.33908 1.18612,5.29213 0.986,7.33288c-0.50429,5.14266 -2.34565,8.78654 -6.30923,10.93655c-0.1896,0.10285 -3.61578,-0.18058 -6.88277,-0.10226c-3.06915,0.07358 -5.9859,0.5188 -6.30646,0.32435c-4.378,-2.65567 -7.10891,-7.85768 -6.53488,-13.71149z" fill="#ffffff" stroke="#5b2300" stroke-width="2.5" stroke-linecap="butt"/><path d="M446.10149,158.12223c0.32629,-3.32744 22.29033,-17.39442 21.96404,-14.06698c-0.32629,3.32744 -0.09688,8.32618 -1.07347,8.23042c-0.44029,-0.04317 -4.90248,4.15587 -9.66304,5.79295c-0.87837,0.30207 7.50684,3.27973 6.67409,3.48991c-0.87131,0.21993 -3.82294,4.67455 -4.57705,4.74187c-3.06182,0.27328 -13.44819,-6.92735 -13.32455,-8.18817z" fill="#5b2300" stroke="none" stroke-width="0" stroke-linecap="butt"/><path d="M433.70654,154.6904c0,0 1.9845,-1.69829 3.05021,-1.25488c1.32473,0.55117 2.40938,3.22942 1.43484,4.05971c-2.36751,2.01707 -7.60779,2.58568 -7.79414,1.7251c-0.20671,-0.95461 -2.55461,-4.12983 -1.58115,-6.19878c0.80603,-1.7131 3.77403,-2.74293 3.77403,-2.74293" fill="none" stroke="#5b2300" stroke-width="2.5" stroke-linecap="round"/><path d="M443.39231,168.85228c0,0 -3.8228,2.62165 -4.27509,1.9338c-0.66955,-1.01824 -2.58746,-2.80528 -2.58746,-2.80528" fill="none" stroke="#5b2300" stroke-width="2.5" stroke-linecap="round"/></g><g stroke-linecap="butt"><g><path d="M187.48071,232.84746c-2.18549,15.4947 -16.23076,26.32448 -31.37101,24.18899c-15.14024,-2.13549 -25.64216,-16.42758 -23.45667,-31.92228c2.18549,-15.4947 16.23076,-26.32448 31.371,-24.18899c15.14024,2.13549 25.64216,16.42758 23.45667,31.92228z" fill="#762e36" stroke="#3e0e6c" stroke-width="2.5"/><g fill="#4e175c" stroke="none" stroke-width="0"><g><g><path d="M159.40978,205.61389c-0.02848,-1.02838 1.52472,-1.90338 3.46918,-1.95436c1.94446,-0.05098 3.54383,0.74137 3.57231,1.76975c0.02125,0.76716 -2.90927,4.32483 -3.40317,4.33778c-0.88592,0.02323 -3.62281,-3.59335 -3.63831,-4.15318z"/><path d="M166.92203,205.49934c0.41456,-0.9286 2.1772,-0.96371 3.93694,-0.07842c1.75974,0.88528 2.85021,2.35572 2.43565,3.28431c-0.30926,0.69273 -4.45076,2.45544 -4.89774,2.23058c-0.80176,-0.40335 -1.70053,-4.93096 -1.47485,-5.43648z"/><path d="M173.72132,208.94316c0.61085,-0.7976 2.33321,-0.3909 3.84703,0.90838c1.51382,1.29929 2.24582,2.99917 1.63498,3.79678c-0.45569,0.59502 -4.87823,1.27023 -5.26275,0.9402c-0.68972,-0.59198 -0.5518,-5.21114 -0.21926,-5.64535z"/><path d="M182.5689,216.67465c0.7971,1.88052 0.72401,3.74327 -0.16323,4.16055c-0.66187,0.3113 -4.9036,-1.20464 -5.10607,-1.68231c-0.36317,-0.8568 1.73653,-4.9005 2.21953,-5.12767c0.88724,-0.41728 2.25267,0.76891 3.04977,2.64943z"/><path d="M183.48227,221.33581c0.97179,0.04795 1.69317,1.75285 1.61127,3.80801c-0.0819,2.05517 -0.93609,3.68234 -1.90787,3.6344c-0.72494,-0.03577 -3.8843,-3.3971 -3.8635,-3.91912c0.03732,-0.93637 3.63109,-3.54939 4.16011,-3.52329z"/></g><g data-paper-data="{&quot;index&quot;:null}"><path d="M159.32969,205.31783c0.0155,0.55983 -2.51723,4.31454 -3.40316,4.33777c-0.4939,0.01295 -3.61708,-3.386 -3.63833,-4.15317c-0.02848,-1.02838 1.52471,-1.90338 3.46917,-1.95436c1.94446,-0.05098 3.54383,0.74137 3.57232,1.76975z"/><path d="M151.82203,205.59706c0.25333,0.49295 -0.39354,5.06109 -1.17182,5.50587c-0.43389,0.24796 -4.66695,-1.29521 -5.0141,-1.97072c-0.46535,-0.90553 0.54216,-2.43096 2.25035,-3.40717c1.70819,-0.97621 3.47021,-1.03351 3.93556,-0.12798z"/><path d="M145.22321,209.39217c0.35609,0.41615 0.74947,5.02139 0.09352,5.64865c-0.3657,0.34969 -4.81919,-0.09283 -5.30715,-0.66309c-0.65411,-0.76444 -0.01724,-2.5002 1.42246,-3.87692c1.4397,-1.37672 3.13706,-1.87307 3.79117,-1.10863z"/><path d="M139.71508,214.77062c0.49487,0.20153 2.81534,4.12937 2.50013,5.00394c-0.17573,0.48757 -4.32741,2.22357 -5.00555,1.94741c-0.90904,-0.37019 -1.08512,-2.2264 -0.39326,-4.14596c0.69185,-1.91956 1.98964,-3.17558 2.89869,-2.80539z"/><path d="M136.16232,222.27826c0.52681,-0.05378 4.26,2.36714 4.34909,3.3002c0.04966,0.52017 -2.91907,4.04217 -3.64099,4.11587c-0.96772,0.09879 -1.91073,-1.48127 -2.10626,-3.52916c-0.19553,-2.04789 0.43045,-3.78812 1.39817,-3.88691z"/></g></g><g data-paper-data="{&quot;index&quot;:null}"><g><path d="M159.8372,252.22612c-0.002,-0.56004 2.62055,-4.25643 3.50679,-4.2596c0.49408,-0.00177 3.53445,3.46695 3.53719,4.2344c0.00368,1.02875 -1.57018,1.86837 -3.51532,1.87533c-1.94515,0.00696 -3.52498,-0.82137 -3.52866,-1.85012z"/><path d="M167.34953,252.11687c-0.24138,-0.49856 0.51542,-5.05083 1.30421,-5.47787c0.43975,-0.23807 4.63441,1.40046 4.96519,2.08365c0.4434,0.91582 -0.60061,2.41805 -2.33185,3.35534c-1.73125,0.93729 -3.49415,0.9547 -3.93755,0.03888z"/><path d="M174.03799,248.47211c-0.34596,-0.4241 -0.62822,-5.03701 0.04267,-5.64925c0.37402,-0.34133 4.81561,0.20185 5.28969,0.78302c0.63549,0.77903 -0.04303,2.49993 -1.51552,3.8437c-1.47249,1.34377 -3.18135,1.80157 -3.81684,1.02254z"/><path d="M179.67423,243.21975c-0.48988,-0.21267 -2.715,-4.19196 -2.37879,-5.05918c0.18744,-0.48347 4.3798,-2.12505 5.05109,-1.83361c0.89988,0.39067 1.03116,2.25035 0.29322,4.15374c-0.73794,1.90339 -2.06565,3.12971 -2.96552,2.73905z"/><path d="M183.407,235.79451c-0.52796,0.04184 -4.20175,-2.46292 -4.26832,-3.39774c-0.03711,-0.52115 3.0157,-3.97502 3.73919,-4.03236c0.96983,-0.07686 1.87448,1.52411 2.0206,3.57587c0.14612,2.05176 -0.52164,3.77736 -1.49147,3.85422z"/></g><g data-paper-data="{&quot;index&quot;:null}"><path d="M156.25108,254.39974c-1.94515,0.00696 -3.52498,-0.82136 -3.52866,-1.85011c-0.00275,-0.76745 3.01272,-4.25784 3.5068,-4.25961c0.88624,-0.00317 3.53519,3.67436 3.53719,4.2344c0.00368,1.02875 -1.57018,1.86836 -3.51533,1.87532z"/><path d="M148.31577,252.45824c-1.73791,-0.92487 -2.79265,-2.4196 -2.35581,-3.33856c0.32587,-0.68554 4.50871,-2.35405 4.95015,-2.11913c0.79183,0.42138 1.58119,4.96812 1.34339,5.46839c-0.43684,0.91896 -2.19982,0.91418 -3.93773,-0.01069z"/><path d="M141.71506,247.87694c-1.48207,-1.3332 -2.1729,-3.04919 -1.543,-3.83275c0.46991,-0.58454 4.9075,-1.15949 5.28395,-0.82085c0.67525,0.60742 0.42601,5.22224 0.0831,5.64881c-0.6299,0.78357 -2.34199,0.33801 -3.82406,-0.9952z"/><path d="M136.88037,240.94249c-0.75154,-1.89806 -0.63356,-3.75864 0.26349,-4.15573c0.66919,-0.29623 4.8732,1.31529 5.0641,1.79741c0.34241,0.86479 -1.85418,4.8599 -2.34252,5.07608c-0.89705,0.3971 -2.23352,-0.81969 -2.98506,-2.71775z"/><path d="M134.5606,232.41846c0.13142,-2.05276 1.0246,-3.66016 1.99495,-3.59024c0.72388,0.05216 3.80135,3.48409 3.76797,4.0055c-0.05987,0.93527 -3.71566,3.46625 -4.2439,3.42819c-0.97035,-0.06992 -1.65044,-1.79068 -1.51902,-3.84345z"/></g></g></g><g><path d="M141.5077,226.22683c1.4427,-10.22852 10.84078,-17.35977 20.99118,-15.92809c10.1504,1.43168 17.20939,10.88416 15.76668,21.11269c-1.4427,10.22852 -10.84078,17.35977 -20.99118,15.92809c-10.1504,-1.43168 -17.20938,-10.88416 -15.76668,-21.11268z" fill="url(#color-2)" stroke="#3e0e6c" stroke-width="2.5"/><path d="M143.56888,226.51755c1.28091,-9.0814 9.62499,-15.41289 18.63703,-14.14176c9.01204,1.27113 15.27936,9.6635 13.99846,18.7449c-1.28091,9.0814 -9.625,15.41289 -18.63703,14.14176c-9.01204,-1.27113 -15.27936,-9.66351 -13.99845,-18.74491z" fill="url(#color-3)" stroke="none" stroke-width="0"/><path d="M144.81313,226.69305c1.18324,-8.38893 8.89107,-14.23763 17.21592,-13.06343c8.32486,1.17419 14.11429,8.92665 12.93105,17.31558c-1.18324,8.38893 -8.89107,14.23762 -17.21593,13.06342c-8.32486,-1.17419 -14.11428,-8.92665 -12.93105,-17.31557z" fill="url(#color-4)" stroke="none" stroke-width="0"/></g><path d="M128.70595,225.6569c1.31527,-9.32502 6.02152,-16.94467 12.76469,-21.72266c0.39664,-0.28105 -0.24817,-1.07418 0.16228,-1.33533c5.92203,-3.76784 14.30222,-4.91899 22.21597,-3.80278c0.60994,0.08603 1.52447,-0.70582 2.11795,-0.59387c9.18804,1.73302 16.44329,6.99957 20.67621,13.93361c0.2844,0.46588 0.99923,0.44057 1.25577,0.92061c3.03541,5.67998 3.67,12.83279 2.65028,20.06243c-0.13035,0.92416 1.27361,1.30325 1.07254,2.18938c-1.70303,7.50536 -6.34833,14.51009 -12.47306,18.73612c-0.54794,0.37808 -0.99833,-0.04157 -1.57083,0.30403c-6.59786,3.98291 -14.76749,5.77499 -23.14727,4.59305c-0.57022,-0.08043 -1.17365,0.08704 -1.73624,-0.01835c-11.57506,-2.16845 -20.78688,-10.24434 -24.11294,-19.3103c-0.35417,-0.96536 0.84626,-0.46926 0.59803,-1.49262c-0.92249,-3.80297 -1.10399,-7.99231 -0.47337,-12.46332zM156.63018,254.00929c13.67179,1.92837 26.31822,-7.59155 28.24659,-21.26335c1.92837,-13.6718 -7.59156,-26.31822 -21.26335,-28.24659c-13.67179,-1.92837 -26.31822,7.59156 -28.24659,21.26335c-1.92837,13.6718 7.59156,26.31822 21.26335,28.24659z" fill="#75587b" stroke="#3e0e6c" stroke-width="2.5"/><g fill="#ffe1da" stroke="#3e0e6c" stroke-width="2.5"><g><g><path d="M166.85498,202.93246c2.04323,0.24117 3.59746,1.31287 3.47151,2.39372c-0.09397,0.80631 -3.7006,4.08667 -4.21958,4.02541c-0.93093,-0.10988 -3.24815,-4.31035 -3.17958,-4.89875c0.12595,-1.08085 1.88442,-1.76155 3.92765,-1.52038z"/><path d="M170.80868,205.47085c0.57463,-0.90928 2.42512,-0.67905 4.13316,0.51425c1.70803,1.1933 2.62685,2.89776 2.05221,3.80704c-0.42868,0.67831 -5.0311,1.89623 -5.46495,1.59313c-0.77821,-0.54369 -1.03325,-5.41943 -0.72043,-5.91443z"/><path d="M177.40469,210.10585c0.76026,-0.74243 2.50168,-0.05579 3.88956,1.53364c1.38788,1.58943 1.89668,3.47979 1.13642,4.22221c-0.56716,0.55385 -5.29906,0.59079 -5.65159,0.18706c-0.63234,-0.72418 0.21172,-5.53874 0.6256,-5.94291z"/><path d="M185.49542,219.53953c0.54956,2.08932 0.1909,4.02821 -0.80109,4.33064c-0.74002,0.22561 -4.95074,-2.00382 -5.09033,-2.53452c-0.25038,-0.95193 2.56014,-4.86693 3.10017,-5.03157c0.99199,-0.30243 2.24169,1.14613 2.79125,3.23545z"/><path d="M185.74553,224.5573c1.01001,0.19739 1.50693,2.0914 1.10989,4.23038c-0.39705,2.13898 -1.53771,3.71296 -2.54773,3.51557c-0.75347,-0.14725 -3.55162,-4.14453 -3.45077,-4.68784c0.1809,-0.97456 4.33877,-3.16556 4.8886,-3.05811z"/></g><g data-paper-data="{&quot;index&quot;:null}"><path d="M162.88833,204.1308c-0.06857,0.5884 -3.28865,4.13528 -4.21958,4.0254c-0.51898,-0.06126 -3.27355,-4.09244 -3.17958,-4.89875c0.12595,-1.08085 1.88442,-1.76155 3.92764,-1.52038c2.04323,0.24117 3.59747,1.31288 3.47152,2.39373z"/><path d="M154.98682,203.28589c0.19052,0.55441 -1.17859,5.23846 -2.06068,5.58617c-0.49176,0.19385 -4.68928,-2.06277 -4.95036,-2.8225c-0.34999,-1.01842 0.93577,-2.46266 2.87181,-3.22584c1.93604,-0.76317 3.78925,-0.55625 4.13923,0.46216z"/><path d="M147.50417,206.25915c0.30973,0.48958 0.02395,5.37004 -0.75773,5.92731c-0.43579,0.31067 -5.03078,-0.82715 -5.45521,-1.49804c-0.56894,-0.89932 0.36068,-2.61988 2.07632,-3.84299c1.71565,-1.22311 3.56767,-1.48559 4.13662,-0.58628z"/><path d="M140.92344,211.0551c0.48751,0.28592 2.32167,4.74917 1.85922,5.61695c-0.25781,0.48379 -4.86685,1.6722 -5.53491,1.28039c-0.89553,-0.52523 -0.7987,-2.49502 0.21632,-4.39966c1.01502,-1.90464 2.56384,-3.0229 3.45937,-2.49768z"/><path d="M136.0671,218.37613c0.55962,0.02351 4.1009,3.12326 4.05283,4.1135c-0.02681,0.55205 -3.66804,3.78927 -4.43492,3.75707c-1.02799,-0.04317 -1.77583,-1.84005 -1.67031,-4.01344c0.10552,-2.17339 1.0244,-3.90029 2.0524,-3.85712z"/></g></g><g data-paper-data="{&quot;index&quot;:null}"><g><path d="M156.3142,253.3124c0.08274,-0.58657 3.388,-4.05879 4.31622,-3.92787c0.51748,0.07299 3.17479,4.16467 3.06142,4.96847c-0.15197,1.07748 -1.92672,1.71801 -3.964,1.43066c-2.03728,-0.28735 -3.56561,-1.39377 -3.41364,-2.47125z"/><path d="M164.19484,254.33596c-0.17716,-0.55846 1.30464,-5.20926 2.19504,-5.53682c0.4964,-0.18261 4.63929,2.16803 4.88206,2.93331c0.32545,1.02586 -0.995,2.4403 -2.94929,3.15923c-1.95429,0.71893 -3.80237,0.47013 -4.12781,-0.55573z"/><path d="M171.74857,251.53366c-0.29791,-0.49636 0.10535,-5.36802 0.90039,-5.90731c0.44324,-0.30065 5.01052,0.94074 5.41877,1.62093c0.54724,0.91178 -0.42373,2.61046 -2.16871,3.79411c-1.74498,1.18365 -3.60321,1.40404 -4.15045,0.49227z"/><path d="M178.44432,246.88911c-0.48061,-0.29683 -2.20716,-4.7995 -1.72384,-5.65639c0.26945,-0.47771 4.90678,-1.56112 5.56536,-1.15436c0.88284,0.54527 0.73856,2.51192 -0.32225,4.39265c-1.06081,1.88073 -2.63644,2.96336 -3.51927,2.41809z"/><path d="M183.4766,239.68161c-0.55901,-0.03617 -4.02542,-3.2147 -3.95351,-4.20337c0.0401,-0.55119 3.75903,-3.70434 4.52508,-3.65478c1.02688,0.06644 1.73139,1.87941 1.57356,4.04938c-0.15783,2.16997 -1.11825,3.87521 -2.14513,3.80877z"/></g><g data-paper-data="{&quot;index&quot;:null}"><path d="M152.23093,255.04459c-2.03728,-0.28735 -3.56562,-1.39377 -3.41364,-2.47125c0.11338,-0.8038 3.79874,-4.00086 4.31622,-3.92787c0.92822,0.13092 3.14415,4.3819 3.06142,4.96847c-0.15197,1.07748 -1.92671,1.71801 -3.96399,1.43065z"/><path d="M144.21812,251.81018c-1.67919,-1.23143 -2.5569,-2.95591 -1.96041,-3.85173c0.44497,-0.66827 5.07641,-1.78133 5.50293,-1.46855c0.76507,0.56106 0.90269,5.44026 0.57797,5.92793c-0.59649,0.89582 -2.4413,0.62377 -4.1205,-0.60766z"/><path d="M138.00229,246.01454c-1.34952,-1.62013 -1.81276,-3.5211 -1.03468,-4.24595c0.58045,-0.54073 5.31292,-0.47043 5.65571,-0.05891c0.61487,0.73815 -0.34507,5.5313 -0.76864,5.92589c-0.77808,0.72484 -2.50286,-0.00091 -3.85238,-1.62104z"/><path d="M133.99163,238.02306c-0.49923,-2.10077 -0.09391,-4.03061 0.9053,-4.31042c0.7454,-0.20873 4.90215,2.11505 5.02896,2.64866c0.22745,0.95714 -2.67716,4.8066 -3.22111,4.95892c-0.99921,0.27981 -2.21393,-1.19639 -2.71315,-3.29717z"/><path d="M132.85439,228.74851c0.44852,-2.12897 1.627,-3.67635 2.6322,-3.45617c0.74987,0.16425 3.45159,4.22303 3.33767,4.7638c-0.20435,0.97 -4.41469,3.06574 -4.9619,2.94588c-1.0052,-0.22018 -1.45649,-2.12454 -1.00797,-4.25351z"/></g></g></g></g><path d="M160.83328,229.42508c-0.4826,3.42157 -2.29487,10.13472 -2.53226,10.10123c-0.24576,-0.03466 -0.111,-7.06501 0.36045,-10.40756c0.51267,-3.63472 2.31742,-10.13153 2.53225,-10.10122c0.17017,0.024 0.2117,6.35116 -0.36044,10.40755z" fill="#3e0e6c" stroke="none" stroke-width="0"/></g><g fill="#ffffff" stroke="#3e0e6c" stroke-linecap="butt"><path d="M210.52243,214.38583c4.82903,-12.89164 17.2631,-22.06831 31.84049,-22.06831c18.77212,0 33.30925,14.53714 33.30925,33.30925c0,6.4294 -5.00787,20.2677 -8.3195,26.28711c-1.38254,2.51299 -16.69254,14.16927 -26.35111,14.16927c-3.62147,0 -14.92884,-6.80721 -16.12845,-7.0529c-1.7788,-0.36432 -1.29751,-2.19182 -1.62145,-3.7461c-0.17943,-0.86089 -1.9414,-0.42009 -2.55519,-0.81827c-0.6163,-0.3998 -1.10524,-1.98283 -2.2973,-1.84006c-1.78118,0.21333 -3.46815,0.99778 -4.37744,-0.02819c-0.40139,-0.45291 2.10162,-4.5703 1.7247,-5.04452c-1.5362,-1.93272 -5.62918,-10.32457 -6.20702,-12.7077c-0.63228,-2.60767 -1.16642,-5.7326 -1.16642,-8.53796c0,0 0.75986,-8.212 2.14944,-11.92164z" stroke-width="2.5"/><path d="M219.02174,234.47963c0.00306,-0.6008 3.15894,-5.7297 7.16764,-9.18225c2.32523,-2.00262 5.23938,-3.23768 7.20571,-3.22764c1.64328,0.00838 4.88257,0.77311 7.01398,2.62037c3.99256,3.46026 6.77902,9.20488 6.77375,10.23767c-0.00403,0.78893 -4.84768,6.87288 -5.05181,7.03022c-2.78882,2.14961 -6.62613,2.95768 -8.85243,2.94632c-3.30615,-0.01687 -8.32804,-3.31535 -11.32749,-6.20094c-2.1786,-2.09589 -2.93064,-3.97212 -2.92936,-4.22375z" stroke-width="2.5"/><g><path d="M224.80414,234.96583c0.02359,-4.6241 3.7913,-8.35355 8.4154,-8.32996c4.6241,0.02359 8.35355,3.7913 8.32996,8.4154c-0.02359,4.6241 -3.7913,8.35354 -8.4154,8.32995c-4.6241,-0.02359 -8.35355,-3.79129 -8.32996,-8.41539z" stroke-width="2.5"/><path d="M227.0876,234.97748c0.01716,-3.36298 2.7573,-6.07532 6.12029,-6.05816c3.36298,0.01716 6.07532,2.75731 6.05816,6.12029c-0.01716,3.36298 -2.75731,6.07531 -6.12029,6.05815c-3.36298,-0.01716 -6.07531,-2.7573 -6.05815,-6.12028z" stroke-width="2"/><path d="M228.95589,234.98701c0.01189,-2.33116 1.91131,-4.2113 4.24247,-4.19941c2.33116,0.01189 4.21129,1.91131 4.1994,4.24247c-0.01189,2.33116 -1.91131,4.2113 -4.24247,4.19941c-2.33116,-0.01189 -4.21129,-1.91131 -4.1994,-4.24247z" stroke-width="1.5"/><path d="M231.08714,234.99789c0.00589,-1.15412 0.94625,-2.08493 2.10037,-2.07905c1.15412,0.00588 2.08494,0.94626 2.07906,2.10037c-0.00589,1.15412 -0.94626,2.08493 -2.10037,2.07905c-1.15412,-0.00588 -2.08493,-0.94626 -2.07904,-2.10037z" stroke-width="1"/></g><path d="M270.8302,243.20461c-3.03652,2.26922 -7.8962,4.67429 -10.78027,4.2977c-1.94208,-0.25359 -5.1684,-1.44353 -7.28456,-3.72948c-0.15489,-0.16732 -3.48635,-6.27565 -3.37442,-6.99376c0.14653,-0.94007 3.41576,-5.83522 7.40195,-8.50946c2.12802,-1.42764 5.06325,-1.73925 6.49674,-1.55207c1.71529,0.22397 4.07454,1.69288 5.80814,3.79017c2.98875,3.61576 4.98891,8.65526 4.90367,9.20213c-0.0357,0.22906 -0.96572,1.84656 -3.17124,3.49478z" data-paper-data="{&quot;index&quot;:null}" stroke-width="2.5"/><g data-paper-data="{&quot;index&quot;:null}"><path d="M260.39869,246.13399c-4.03377,-0.52671 -6.77196,-4.36577 -6.1159,-8.57478c0.65605,-4.20901 4.45791,-7.1941 8.49168,-6.66739c4.03377,0.52671 6.77195,4.36577 6.11589,8.57478c-0.65605,4.20901 -4.45791,7.1941 -8.49168,6.66739z" stroke-width="2.5"/><path d="M260.72267,244.05552c-2.93365,-0.38306 -4.92506,-3.17511 -4.44793,-6.2362c0.47713,-3.06109 3.24212,-5.23207 6.17577,-4.84901c2.93365,0.38306 4.92506,3.17511 4.44793,6.2362c-0.47713,3.06109 -3.24212,5.23207 -6.17577,4.84901z" stroke-width="2"/><path d="M260.98774,242.35495c-2.03356,-0.26554 -3.41396,-2.20092 -3.08322,-4.32282c0.33073,-2.1219 2.24737,-3.62678 4.28093,-3.36124c2.03356,0.26554 3.41396,2.20092 3.08322,4.32282c-0.33073,2.1219 -2.24737,3.62678 -4.28093,3.36124z" stroke-width="1.5"/><path d="M261.29011,240.41503c-1.00678,-0.13146 -1.69019,-1.08964 -1.52645,-2.14015c0.16374,-1.05052 1.11264,-1.79555 2.11942,-1.66409c1.00678,0.13146 1.69018,1.08964 1.52645,2.14015c-0.16374,1.05052 -1.11263,1.79555 -2.11941,1.66409z" stroke-width="1"/></g></g><g><path d="M304.02711,180.49945c1.69332,0.13607 7.36631,30.09488 7.25982,31.30836c-1.36118,15.51103 -3.1272,25.59024 -12.18906,24.86206c-4.10654,-0.32999 -9.58203,6.19657 -12.15761,0.13809c-3.10791,-7.31069 -0.98852,-25.94134 -0.24418,-34.42327c0.19722,-2.2474 16.65511,-21.93956 17.33104,-21.88524z" fill="#947aff" stroke="#250077" stroke-width="2.5" stroke-linecap="butt"/><path d="M345.8148,205.90364c-0.26574,8.50531 -1.46606,29.58161 -3.98206,36.50488c-2.08504,5.73743 -4.87096,-1.34005 -7.40371,-1.45868c-5.589,-0.26178 -5.81089,-10.4646 -5.32493,-26.01838c0.03802,-1.21683 6.04038,-30.35578 7.08474,-30.30686c0.41688,0.01953 9.69637,19.02545 9.62596,21.27904z" data-paper-data="{&quot;index&quot;:null}" fill="#947aff" stroke="#250077" stroke-width="2.5" stroke-linecap="butt"/><path d="M285.75237,229.9479c1.39517,-16.62239 16.0013,-28.96649 32.62369,-27.57132c16.62239,1.39517 28.96649,16.0013 27.57132,32.62369c-1.39517,16.62239 -16.0013,28.96649 -32.62369,27.57132c-16.62239,-1.39517 -28.96649,-16.0013 -27.57132,-32.62369z" fill="#c2bfff" stroke="#250077" stroke-width="2.5" stroke-linecap="butt"/><path d="M297.46733,240.15312c-0.08022,2.8512 0.25617,6.34807 -1.23423,6.30614c-1.49039,-0.04193 -8.61593,-6.78283 -8.53571,-9.63402c0.04106,-1.45945 6.48908,-1.93106 7.21658,-1.91059c1.4904,0.04193 2.63358,2.38728 2.55336,5.23847z" fill="#250077" stroke="none" stroke-width="0" stroke-linecap="butt"/><path d="M343.6319,238.46143c0.37393,0.11852 3.537,1.79751 3.21996,3.21005c-0.61937,2.75954 -5.79604,7.89392 -6.5621,7.65112c-0.76606,-0.2428 0.21422,-3.54467 0.83359,-6.30421c0.61937,-2.75954 1.74249,-4.79976 2.50854,-4.55696z" data-paper-data="{&quot;index&quot;:null}" fill="#250077" stroke="none" stroke-width="0" stroke-linecap="butt"/><path d="M290.69792,195.99956c0.3014,-3.59103 12.91796,-5.4637 28.17986,-4.18272c15.2619,1.28098 27.38978,5.23054 27.08837,8.82157c-0.30141,3.59103 -12.91796,5.4637 -28.17986,4.18272c-15.2619,-1.28098 -27.38977,-5.23053 -27.08836,-8.82157zM317.70403,203.01492c11.96584,1.00433 21.85764,-0.4639 22.09396,-3.2794c0.23631,-2.81549 -9.27235,-5.91207 -21.23819,-6.9164c-11.96584,-1.00433 -21.85764,0.4639 -22.09396,3.27939c-0.23631,2.81549 9.27235,5.91207 21.23819,6.91641z" fill="#7ae7ff" stroke="#250077" stroke-width="2.5" stroke-linecap="butt"/><path d="M331.76991,258.45155c0,0 -3.19176,-1.9033 -9.17687,-1.66386c-4.23536,0.16943 -9.80112,1.35116 -12.33932,0.99858c-2.74485,-0.38129 -4.42724,-1.15877 -8.10705,-3.34094c-1.76915,-1.04912 -2.91813,-3.37167 -2.91813,-3.37167" fill="none" stroke="#250077" stroke-width="2.5" stroke-linecap="round"/><path d="M326.58499,236.86457c0.02975,-0.29254 18.50544,0.74065 18.48588,0.93302c-0.77531,7.62531 -5.55887,14.1969 -10.65996,13.80965c-5.10108,-0.38724 -8.60122,-7.11736 -7.82591,-14.74267z" fill="url(#color-5)" stroke="#250077" stroke-width="2.5" stroke-linecap="butt"/><path d="M292.99336,234.94086c0.01014,-0.36047 33.54341,1.41104 33.53674,1.64808c-0.26435,9.39598 -7.98666,16.66393 -17.25305,16.40322c-9.26639,-0.2607 -16.54804,-8.65532 -16.28369,-18.0513z" fill="url(#color-6)" stroke="#250077" stroke-width="2.5" stroke-linecap="butt"/><path d="M300.86937,237.36093c-0.00101,-0.73606 0.04636,-1.21539 0.29546,-1.86587c0.04215,-0.11007 13.1281,0.46218 13.15288,0.6883c0.03147,0.28716 0.03093,1.03294 0.02258,1.32985c-0.09845,3.49919 -3.38338,7.26586 -7.44889,7.15148c-3.49919,-0.09845 -6.01677,-3.46159 -6.02203,-7.30376z" fill="#fdf7ff" stroke="#250077" stroke-width="2.5" stroke-linecap="butt"/><path d="M329.03349,239.52484c0.02575,-0.91538 0.23192,-1.77661 0.57781,-2.53928c0.08455,-0.18643 8.74574,0.19349 8.83818,0.47956c0.22327,0.69098 0.33295,1.54839 0.31086,2.33338c-0.09103,3.23547 -2.22657,5.80032 -5.02824,5.7215c-2.80167,-0.07882 -4.78963,-2.75969 -4.6986,-5.99516z" fill="#fdf7ff" stroke="#250077" stroke-width="2.5" stroke-linecap="butt"/></g><path d="M430.46021,237.55347c0,13.49138 -3.50492,33.24917 -6.01495,33.24917c-1.55667,0 -2.30406,-5.50128 -2.92589,-6.7397c-0.70734,-1.40871 -1.25221,1.47407 -2.64097,2.42714c-2.04856,1.40589 1.02206,-16.72104 1.02206,-20.11576c0,-13.49138 2.03478,-24.42832 4.5448,-24.42832c2.40516,0 6.01495,15.0438 6.01495,15.60746z" fill="#b9818a" stroke="#176e4a" stroke-width="2.5" stroke-linecap="butt"/><path d="M376.03348,216.84373c2.00537,0.12821 2.93318,11.1468 2.07235,24.6107c-0.21661,3.3878 1.08003,21.63466 -0.46695,20.12698c-1.04872,-1.02208 -1.30011,-3.92682 -1.95512,-2.5571c-0.57583,1.20414 -1.52396,6.65602 -2.76765,6.57651c-2.00537,-0.12822 -3.54491,-20.02478 -2.68407,-33.48867c0.03596,-0.56251 3.87986,-15.39127 5.80144,-15.26841z" data-paper-data="{&quot;index&quot;:null}" fill="#b9818a" stroke="#176e4a" stroke-width="2.5" stroke-linecap="butt"/><path d="M399.71882,187.1138c0,-1.15114 -0.22973,-3.0917 0.1152,-4.12693c0.54967,-1.64972 1.91743,-2.28284 3.15429,-3.44946c1.55703,-1.46862 -0.80679,-2.46256 3.09022,-2.54221c0.44418,-0.00908 3.59725,-0.29445 4.05334,-0.29445c2.31286,0 3.61656,-0.28726 5.34476,0.98841c1.03579,0.76456 2.75786,2.75779 3.45011,3.84706c0.68808,1.08271 0.02606,0.65547 0.33783,1.83701c0.15252,0.57802 1.48861,2.65 1.48861,3.32405c0,1.98149 -1.45608,3.46436 -2.32266,5.00623c-0.48411,0.86135 -0.06791,1.88437 -0.84046,2.67714c-0.50896,0.52228 -2.11362,1.82434 -2.72223,2.23093c-1.65309,1.1044 -2.59867,0.91526 -4.73595,0.91526c-1.471,0 -3.91206,0.79713 -5.18078,0.26992c-1.07866,-0.44822 -1.0213,-2.14234 -1.87377,-3.0236c-0.95116,-0.98328 -2.39748,-2.52398 -2.98992,-3.76869c-0.62357,-1.31011 -0.36856,-2.33723 -0.36856,-3.89067z" fill="#ff96d4" stroke="#176e4a" stroke-width="2.5" stroke-linecap="butt"/><path d="M368.44293,229.59901c0,-16.90784 13.70651,-30.61434 30.61435,-30.61434c16.90784,0 30.61434,13.70651 30.61434,30.61435c0,16.90784 -13.70651,30.61435 -30.61434,30.61435c-16.90784,0 -30.61435,-13.70651 -30.61435,-30.61434z" fill="#acffcf" stroke="#176e4a" stroke-width="2.5" stroke-linecap="butt"/><path d="M370.14824,214.48027c-0.07424,0.35069 1.41736,0.33109 4.3338,0.54654c3.94457,0.2914 10.2874,2.92267 19.09614,3.77923c6.39536,0.62188 37.73003,5.48247 37.67208,4.71295c-0.24858,-3.30131 0.59194,4.75513 0.28376,6.07724c-0.13443,0.57668 -3.7896,4.53396 -4.51589,2.41218c-0.66251,-1.93549 -1.5271,-3.84339 -2.43153,-5.11527c-0.65968,-0.92769 0.74207,1.19037 0.10297,1.17551c-4.76187,-0.11074 -12.87824,-1.82191 -18.35161,-1.56553c-3.5289,0.16529 -3.51904,0.02583 -4.73824,-1.11559c-0.42853,-0.40119 -13.4647,0.21018 -13.70896,0.1823c-0.79968,-0.09129 -0.33042,-1.23829 -1.09408,-1.35406c-1.10874,-0.16808 -7.41463,-2.77176 -8.44214,-3.08642c-1.28785,-0.39438 2.74372,1.49923 1.80475,1.38045c-2.10853,-0.26674 -5.45966,0.40423 -8.17896,0.28633c-3.45208,-0.14966 -5.79928,2.46799 -0.53847,-2.74238c1.03638,-1.02644 -4.15639,1.16498 -3.62256,-0.68922c0.44485,-1.54512 2.35275,-4.9967 2.32895,-4.88425z" fill="#b9818a" stroke="#176e4a" stroke-width="2.5" stroke-linecap="butt"/><path d="M369.74939,213.82096c4.76686,-10.81674 21.12438,-22.54194 33.68136,-22.54194c16.12349,0 26.83664,16.8378 28.02777,32.65649c0.05794,0.76952 -1.57864,1.33872 -1.57864,2.12307c0,0.22337 -4.90914,-2.01575 -12.68105,-2.47205c-5.67629,-0.33326 -19.3079,-0.61818 -25.70326,-1.24006c-3.07598,-0.29911 -7.71759,-1.87265 -11.92396,-3.59116c-5.33642,-2.1802 -9.97234,-4.59372 -9.82222,-4.93435z" fill="#96a5ff" stroke="#176e4a" stroke-width="2.5" stroke-linecap="butt"/><g fill="#176e4a" stroke="#176e4a" stroke-width="0" stroke-linecap="butt"><path d="M412.7568,235.04792c-1.02278,8.50768 -3.08899,15.04604 -6.68619,14.61359c-3.59721,-0.43245 -3.8481,-7.24937 -2.82532,-15.75705c1.02278,-8.50768 2.93194,-15.48444 6.52914,-15.05198c3.59721,0.43245 4.00516,7.68776 2.98238,16.19545z"/><path d="M416.42897,235.90891c-0.23808,1.98036 -4.17186,6.52544 -4.86479,6.44214c-1.54166,-0.18534 -2.44085,-3.2517 -2.0084,-6.8489c0.43245,-3.59721 2.03278,-6.36308 3.57444,-6.17774c0.7839,0.09424 3.51131,4.8164 3.29875,6.5845z"/></g><g data-paper-data="{&quot;index&quot;:null}" fill="#176e4a" stroke="#176e4a" stroke-width="0" stroke-linecap="butt"><path d="M394.42719,217.48093c3.55222,0.71317 3.18586,7.93714 1.49918,16.33844c-1.68669,8.40129 -4.055,14.79851 -7.60722,14.08535c-3.55222,-0.71317 -3.47204,-7.56976 -1.78535,-15.97106c1.68669,-8.40129 4.34118,-15.16589 7.8934,-14.45273z"/><path d="M387.96739,226.38002c1.52238,0.30564 2.17838,3.43306 1.46522,6.98529c-0.71317,3.55222 -2.52543,6.1841 -4.04781,5.87846c-0.68427,-0.13738 -3.00097,-5.68402 -2.60835,-7.63962c0.35054,-1.746 4.41685,-5.37954 5.19095,-5.22412z"/></g><text transform="translate(87.20203,66.91919) scale(0.5,0.5)" font-size="40" xml:space="preserve" fill="#9d7bb5" fill-rule="nonzero" stroke="none" stroke-width="1" stroke-linecap="butt" stroke-linejoin="miter" stroke-miterlimit="10" stroke-dasharray="" stroke-dashoffset="0" font-family="&quot;Neon&quot;, Sans Serif" font-weight="normal" text-anchor="start" style="mix-blend-mode: normal"><tspan x="0" dy="0">swing</tspan></text><text transform="translate(157.65658,91.46465) scale(0.5,0.5)" font-size="40" xml:space="preserve" fill="#9d7bb5" fill-rule="nonzero" stroke="none" stroke-width="1" stroke-linecap="butt" stroke-linejoin="miter" stroke-miterlimit="10" stroke-dasharray="" stroke-dashoffset="0" font-family="&quot;Neon&quot;, Sans Serif" font-weight="normal" text-anchor="start" style="mix-blend-mode: normal"><tspan x="0" dy="0">shock</tspan></text><text transform="translate(243.56567,98.73737) scale(0.5,0.5)" font-size="40" xml:space="preserve" fill="#9d7bb5" fill-rule="nonzero" stroke="none" stroke-width="1" stroke-linecap="butt" stroke-linejoin="miter" stroke-miterlimit="10" stroke-dasharray="" stroke-dashoffset="0" font-family="&quot;Neon&quot;, Sans Serif" font-weight="normal" text-anchor="start" style="mix-blend-mode: normal"><tspan x="0" dy="0">swave</tspan></text><text transform="translate(324.9293,59.19192) scale(0.5,0.5)" font-size="40" xml:space="preserve" fill="#9966ff" fill-rule="nonzero" stroke="none" stroke-width="1" stroke-linecap="butt" stroke-linejoin="miter" stroke-miterlimit="10" stroke-dasharray="" stroke-dashoffset="0" font-family="&quot;Neon&quot;, Sans Serif" font-weight="normal" text-anchor="start" style="mix-blend-mode: normal"><tspan x="0" dy="0">pam</tspan></text><text transform="translate(419.27955,98.50612) scale(0.5,0.5)" font-size="40" xml:space="preserve" fill="#9966ff" fill-rule="nonzero" stroke="none" stroke-width="1" stroke-linecap="butt" stroke-linejoin="miter" stroke-miterlimit="10" stroke-dasharray="" stroke-dashoffset="0" font-family="&quot;Neon&quot;, Sans Serif" font-weight="normal" text-anchor="start" style="mix-blend-mode: normal"><tspan x="0" dy="0">nekuu</tspan></text><text transform="translate(108.37046,284.86976) scale(0.5,0.5)" font-size="40" xml:space="preserve" fill="#9966ff" fill-rule="nonzero" stroke="none" stroke-width="1" stroke-linecap="butt" stroke-linejoin="miter" stroke-miterlimit="10" stroke-dasharray="" stroke-dashoffset="0" font-family="&quot;Neon&quot;, Sans Serif" font-weight="normal" text-anchor="start" style="mix-blend-mode: normal"><tspan x="0" dy="0">HADAL</tspan><tspan x="0" dy="46.150000000000006px">FORTUNEEEE</tspan></text><text transform="translate(209.92931,283.73738) scale(0.5,0.5)" font-size="40" xml:space="preserve" fill="#9d7bb5" fill-rule="nonzero" stroke="none" stroke-width="1" stroke-linecap="butt" stroke-linejoin="miter" stroke-miterlimit="10" stroke-dasharray="" stroke-dashoffset="0" font-family="&quot;Neon&quot;, Sans Serif" font-weight="normal" text-anchor="start" style="mix-blend-mode: normal"><tspan x="0" dy="0">bowt</tspan><tspan x="0" dy="48px">   and</tspan><tspan x="0" dy="48px">turtlebot</tspan><tspan x="0" dy="48px">usuughu</tspan></text><text transform="translate(293.08569,285.55556) scale(0.5,0.5)" font-size="40" xml:space="preserve" fill="#9d7bb5" fill-rule="nonzero" stroke="none" stroke-width="1" stroke-linecap="butt" stroke-linejoin="miter" stroke-miterlimit="10" stroke-dasharray="" stroke-dashoffset="0" font-family="&quot;Neon&quot;, Sans Serif" font-weight="normal" text-anchor="start" style="mix-blend-mode: normal"><tspan x="0" dy="0">ddub</tspan><tspan x="0" dy="46.150000000000006px"> </tspan></text><text transform="translate(376.05727,292.82828) scale(0.5,0.5)" font-size="40" xml:space="preserve" fill="#9d7bb5" fill-rule="nonzero" stroke="none" stroke-width="1" stroke-linecap="butt" stroke-linejoin="miter" stroke-miterlimit="10" stroke-dasharray="" stroke-dashoffset="0" font-family="&quot;Neon&quot;, Sans Serif" font-weight="normal" text-anchor="start" style="mix-blend-mode: normal"><tspan x="0" dy="0">dturtle </tspan></text><text transform="translate(22.16467,395.82562) scale(0.5,0.5)" font-size="40" xml:space="preserve" fill="#9966ff" fill-rule="nonzero" stroke="none" stroke-width="1" stroke-linecap="butt" stroke-linejoin="miter" stroke-miterlimit="10" stroke-dasharray="" stroke-dashoffset="0" font-family="&quot;owo&quot;, Pixel" font-weight="normal" text-anchor="start" style="mix-blend-mode: normal"><tspan x="0" dy="0">i made this because i was having trouble remembering everyones names</tspan></text></g></g></svg>