<svg version="1.1" xmlns="http://www.w3.org/2000/svg" xmlns:xlink="http://www.w3.org/1999/xlink" width="738.4202" height="444.84031" viewBox="0,0,738.4202,444.84031"><defs><linearGradient x1="290.7929" y1="59.53999" x2="289.97256" y2="235.40633" gradientUnits="userSpaceOnUse" id="color-1"><stop offset="0" stop-color="#ffa4f3"/><stop offset="1" stop-color="#ffd172"/></linearGradient><linearGradient x1="614.64248" y1="97.49967" x2="613.61272" y2="318.26804" gradientUnits="userSpaceOnUse" id="color-2"><stop offset="0" stop-color="#ffa4f3"/><stop offset="1" stop-color="#ffd172"/></linearGradient><linearGradient x1="481.77576" y1="214.41609" x2="481.77576" y2="254.27656" gradientUnits="userSpaceOnUse" id="color-3"><stop offset="0" stop-color="#ffd582"/><stop offset="1" stop-color="#ffbf82"/></linearGradient><linearGradient x1="454.70157" y1="273.54071" x2="631.37469" y2="281.57313" gradientUnits="userSpaceOnUse" id="color-4"><stop offset="0" stop-color="#dbe2fa"/><stop offset="1" stop-color="#e0c4fa"/></linearGradient></defs><g transform="translate(91.67926,52.42388)"><g data-paper-data="{&quot;isPaintingLayer&quot;:true}" fill-rule="nonzero" stroke-linejoin="miter" stroke-miterlimit="10" stroke-dasharray="" stroke-dashoffset="0" style="mix-blend-mode: normal"><path d="M-13.87845,133.41771l-20.08374,-146.94591l639.20784,5.68011l-0.55416,118.80332z" data-paper-data="{&quot;index&quot;:null}" fill="#664585" stroke="#3e0e6c" stroke-width="2.5" stroke-linecap="butt"/><path d="M-32.06063,369.77379l0.95995,-205.80103l618.56993,-22.46248c0,0 37.78836,185.59669 37.6614,212.81626c0,0 -22.09682,12.82476 -50.20905,13.48553c-93.11393,2.18864 -606.98223,1.96172 -606.98223,1.96172z" data-paper-data="{&quot;index&quot;:null}" fill="#664585" stroke="#3e0e6c" stroke-width="2.5" stroke-linecap="butt"/><path d="M-41.12179,200.6645l-10.2174,-122.15337l610.39527,-4.39491l-4.42974,178.80331z" data-paper-data="{&quot;index&quot;:null}" fill="url(#color-1)" stroke="#3e0e6c" stroke-width="2.5" stroke-linecap="butt"/><path d="M550.98663,254.13588l7.13137,-179.83672l87.28098,-18.13429c0,0 -14.71622,254.71037 -21.09103,295.90183c-1.89505,12.24502 -24.32548,-2.43876 -24.32548,-2.43876z" data-paper-data="{&quot;index&quot;:null}" fill="url(#color-2)" stroke="#3e0e6c" stroke-width="2.5" stroke-linecap="butt"/><path d="M29.69189,183.82734l-44.27496,-50.59977l45.82847,-48.88453l44.27497,50.59977z" fill-opacity="0.51373" fill="#ffd6ec" stroke="none" stroke-width="0" stroke-linecap="butt"/><path d="M120.7059,127.62417l-5.30677,-24.49861l22.12778,-4.79321l5.30677,24.49861z" fill-opacity="0.51373" fill="#ffd6ec" stroke="none" stroke-width="0" stroke-linecap="butt"/><path d="M234.50241,189.43228c0,-14.24749 11.54988,-25.79737 25.79737,-25.79737c14.2475,0 25.79737,11.54988 25.79737,25.79737c0,14.24749 -11.54988,25.79737 -25.79737,25.79737c-14.2475,0 -25.79737,-11.54988 -25.79737,-25.79737z" fill-opacity="0.51373" fill="#ffd6ec" stroke="none" stroke-width="0" stroke-linecap="butt"/><path d="M440.42958,229.86997c0,-4.40377 3.56996,-7.97374 7.97373,-7.97374c4.40377,0 7.97374,3.56996 7.97374,7.97374c0,4.40377 -3.56997,7.97374 -7.97374,7.97374c-4.40377,0 -7.97373,-3.56996 -7.97373,-7.97374z" fill-opacity="0.51373" fill="#ffd6ec" stroke="none" stroke-width="0" stroke-linecap="butt"/><path d="M470.90016,171.1396v-79.73734l71.29456,49.71857z" fill-opacity="0.51373" fill="#ffd6ec" stroke="none" stroke-width="0" stroke-linecap="butt"/><path d="M96.60373,199.28219l17.82364,-34.70919l25.32833,34.70919z" fill-opacity="0.51373" fill="#ffd6ec" stroke="none" stroke-width="0" stroke-linecap="butt"/><path d="M509.3617,229.30095c0,-9.84372 7.97992,-17.82364 17.82364,-17.82364c9.84372,0 17.82364,7.97992 17.82364,17.82364c0,9.84372 -7.97992,17.82364 -17.82364,17.82364c-9.84372,0 -17.82364,-7.97992 -17.82364,-17.82364z" fill-opacity="0.51373" fill="#ffd6ec" stroke="none" stroke-width="0" stroke-linecap="butt"/><path d="M356.80455,213.47301l-36.11773,-80.44403l80.44403,-36.11773l36.11773,80.44403z" fill-opacity="0.51373" fill="#ffd6ec" stroke="none" stroke-width="0" stroke-linecap="butt"/><path d="M199.34757,165.60933l-29.25152,-53.52484l44.21412,-27.34708l29.25152,53.52484z" fill-opacity="0.51373" fill="#ffd6ec" stroke="none" stroke-width="0" stroke-linecap="butt"/><path d="M626.62248,213.35349c0,42.48344 -14.06985,76.92308 -31.42589,76.92308c-17.35604,0 -31.42589,-34.43963 -31.42589,-76.92308c0,-42.48344 14.06985,-76.92308 31.42589,-76.92308c17.35604,0 31.42589,34.43963 31.42589,76.92308z" fill-opacity="0.51373" fill="#ffd6ec" stroke="none" stroke-width="0" stroke-linecap="butt"/><path d="M-83.85691,380.6352l-6.56661,-165.10319c0,0 3.27927,-14.03019 4.1829,-13.95042c16.35877,1.44409 556.30696,54.9008 561.15716,61.59666c5.38485,7.43395 -34.12914,85.51734 -39.25368,99.13131c-5.09304,13.53028 -519.51977,18.32564 -519.51977,18.32564z" data-paper-data="{&quot;index&quot;:null}" fill="#8f60bb" stroke="#3e0e6c" stroke-width="2.5" stroke-linecap="butt"/><path d="M334.29579,149.72693c0,0 5.06214,-11.59776 8.61401,-11.63881c7.34037,-0.08487 23.14749,2.1127 22.18861,0.96751c-4.34593,-5.19037 -13.02838,-13.31892 -27.32028,-15.74543c-56.06171,-0.25137 -131.25457,56.15105 -229.41791,54.02063c-89.06136,-1.93287 -158.06144,-85.44456 -158.36417,-90.84752c-0.42789,-7.63663 0.80788,-15.71847 8.62801,-11.79771c28.24241,14.15979 86.3178,84.7162 151.64148,85.58673c57.32809,0.76397 162.03772,-50.03186 222.64242,-52.87625c35.41499,-1.66214 55.51164,25.89201 63.04295,38.31908c0.23944,0.39508 16.19688,3.89369 22.71346,6.16759c7.87448,2.74772 7.54895,19.39738 7.54895,19.39738l-49.62063,6.83582z" data-paper-data="{&quot;index&quot;:null}" fill="#3e0e6c" stroke="none" stroke-width="0" stroke-linecap="butt"/><text transform="translate(215.61785,190.0301) rotate(5.00903) scale(0.8359,0.84537) skewX(0.65031)" font-size="40" xml:space="preserve" fill="#3e0e6c" fill-rule="nonzero" stroke="none" stroke-width="1" stroke-linecap="butt" stroke-linejoin="miter" stroke-miterlimit="10" stroke-dasharray="" stroke-dashoffset="0" font-family="&quot;Neon&quot;, Sans Serif" font-weight="normal" text-anchor="start" style="mix-blend-mode: normal"><tspan x="0" dy="0">OFFICE</tspan></text><path d="M409.23088,214.29783c5.44914,-1.56608 28.78378,0.69382 36.35099,1.78664c1.71767,0.24806 -0.78554,33.769 -3.07932,33.769c-4.93813,0 -26.12865,-2.30632 -33.63682,-3.27746c-1.8195,-0.23534 -0.16842,-32.12483 0.36515,-32.27818z" fill="#c080fb" stroke="#3e0e6c" stroke-width="2.5" stroke-linecap="butt"/><g data-paper-data="{&quot;index&quot;:null}" fill="#bcb6e6" stroke="#3e0e6c" stroke-width="2.5" stroke-linecap="butt"><path d="M401.10833,222.50775c2.50592,-0.48433 8.2401,-0.91892 10.14153,-0.0072c1.73762,0.83318 2.99499,6.89333 -1.24192,6.41724c-2.94662,-0.33111 -7.46503,-0.31935 -9.40022,-0.84794c-2.07446,-0.56664 -1.30649,-5.21282 0.50061,-5.56209z"/><path d="M400.64171,233.21503c1.8627,-0.42238 6.23116,-0.15138 9.18398,-0.26732c3.01387,-0.11835 2.9773,5.5392 1.20497,6.29575c-1.9394,0.82787 -7.64915,0.14344 -10.13155,-0.44979c-1.79014,-0.4278 -2.35462,-5.10307 -0.2574,-5.57863z" data-paper-data="{&quot;index&quot;:null}"/></g><g stroke="#3e0e6c" stroke-width="2.5" stroke-linecap="butt"><path d="M410.32858,214.29783c5.44914,-1.56608 28.78377,0.69382 36.35098,1.78664c1.71767,0.24806 -0.78554,33.769 -3.07932,33.769c-4.93813,0 -26.12865,-2.30632 -33.63682,-3.27746c-1.8195,-0.23534 -0.16842,-32.12483 0.36515,-32.27818z" fill="#7559ae"/><path d="M454.71299,217.6915c2.53427,0.52903 -0.79377,27.43656 -0.79377,27.43656c-0.0983,0.13874 -3.93934,2.41066 -6.96961,3.73643c-1.94442,0.8507 -3.77027,0.98898 -3.34936,0.98898c1.32455,0 3.17804,-33.75475 3.07932,-33.769c-0.82653,-0.11937 3.82726,0.72898 8.03342,1.60702z" fill="#6847ab"/></g><path d="M449.44025,239.20833c0.31892,-4.4622 0.83665,-13.47183 1.29501,-13.47183c0.22708,0 1.22598,0.04905 2.03006,0.32039c0.61644,0.20802 -0.77368,12.17258 -1.09885,12.33435c-1.37554,0.68431 -2.28203,1.59788 -2.22622,0.81709z" fill="#3e0e6c" stroke="none" stroke-width="0" stroke-linecap="butt"/><g stroke-linecap="butt"><path d="M454.58569,221.94093c1.40566,1.0694 14.91283,7.08873 15.23946,6.5804c2.99646,-4.66328 9.15388,-14.21685 9.23452,-14.10425c1.42708,1.9926 7.85968,10.97428 11.12034,15.52708c0.43322,0.60489 17.17186,-5.51445 18.75562,-6.52768c0.89155,-0.57038 -8.62115,30.86009 -8.62115,30.86009c0,0 -29.98293,-0.15992 -39.59945,-3.17975c-0.9271,-0.29113 -6.60984,-29.52143 -6.12934,-29.15587z" fill="url(#color-3)" stroke="#6b330e" stroke-width="2.5"/><path d="M490.18002,229.94415c0.43322,0.60489 17.17186,-5.51445 18.75562,-6.52768c0.89155,-0.57038 -8.62115,30.86009 -8.62115,30.86009c0,0 -5.83828,-0.03114 -13.18861,-0.32541c-0.65739,-0.02632 2.69367,-24.5103 3.05415,-24.00699z" fill-opacity="0.49804" fill="#d49f68" stroke="none" stroke-width="0"/><path d="M469.82515,228.15543c2.99646,-4.66328 9.15388,-14.21685 9.23452,-14.10425c0.32401,0.45242 -0.57586,12.12048 -0.49568,22.66628c0.0653,8.58882 1.15026,16.49484 1.06412,16.48949c-3.13207,-0.19479 -6.28088,-0.44312 -9.17439,-0.75956c0,0 -0.9552,-23.78362 -0.62856,-24.29195z" fill-opacity="0.48235" fill="#ffdda7" stroke="none" stroke-width="0"/><path d="M475.62381,227.12433c2.35512,0.06793 7.19914,-0.0356 7.58493,0.35019c0.42969,0.4297 -4.35176,6.85653 -4.48505,6.60999c-0.3451,-0.63831 -3.88815,-6.98291 -3.09988,-6.96018z" fill="#ff82a8" stroke="#6b330e" stroke-width="2.5"/><path d="M493.2014,240.91752c0.25888,-0.53881 0.7454,-6.87686 1.74005,-7.90023c0.58213,-0.59894 6.92645,-2.38061 7.22241,-2.68792c0.87459,-0.90813 -1.84937,10.40895 -1.84937,10.40895c0,0 -7.79633,1.60125 -7.11308,0.17919z" fill="#93ffbf" stroke="#6b330e" stroke-width="2.5"/><path d="M460.8924,240.00653c0,0 -2.12668,-11.31708 -1.44386,-10.40895c0.18496,0.24599 5.10276,1.98155 5.63876,2.68792c0.77655,1.02337 1.15639,7.36141 1.3585,7.90023c0.53343,1.42206 -5.5534,-0.17919 -5.5534,-0.17919z" data-paper-data="{&quot;index&quot;:null}" fill="#93ffbf" stroke="#6b330e" stroke-width="2.5"/><path d="M454.58569,221.94093c1.40566,1.0694 14.91283,7.08873 15.23946,6.5804c2.99646,-4.66328 9.15388,-14.21685 9.23452,-14.10425c1.42708,1.9926 7.85968,10.97428 11.12034,15.52708c0.43322,0.60489 17.17186,-5.51445 18.75562,-6.52768c0.89155,-0.57038 -8.62115,30.86009 -8.62115,30.86009c0,0 -29.98293,-0.15992 -39.59945,-3.17975c-0.9271,-0.29113 -6.60984,-29.52143 -6.12934,-29.15587z" fill="none" stroke="#6b330e" stroke-width="2.5"/></g><g><g stroke-linecap="butt"><path d="M449.72211,383.06369l31.82978,-114.41941c0,0 96.44025,-99.24754 99.50213,-99.10834c3.97056,0.18052 45.34122,221.56017 45.34122,221.56017z" fill="url(#color-4)" stroke="#3e0e6c" stroke-width="2.5"/><path d="M449.72211,383.06369l31.82978,-114.41941l22.73492,45.1623l96.11229,-69.48718l25.99614,146.77672z" fill-opacity="0.1098" fill="#3e0e6b" stroke="none" stroke-width="0"/><path d="M494.18418,386.52448l10.10263,-72.71791l96.11229,-69.48718l25.99614,146.77672z" fill-opacity="0.1098" fill="#3e0e6b" stroke="none" stroke-width="0"/></g><path d="M481.8707,270.94679l13.81838,26.44312" fill="none" stroke="#3e0e6c" stroke-width="2.5" stroke-linecap="round"/><path d="M590.63942,250.70846l-85.60765,62.86703l-2.9738,-4.93227" fill="none" stroke="#3e0e6c" stroke-width="2.5" stroke-linecap="round"/></g><g fill="#9e5d70" stroke="#3e0e6c" stroke-width="2.5" stroke-linecap="butt"><path d="M112.64793,243.95811c-0.02736,-0.67062 1.25345,-42.39471 5.11186,-43.24241c2.45629,-0.53965 9.83903,5.56297 10.60975,5.57158c5.28337,0.05907 10.61168,32.89224 10.65948,34.06355c0.13495,3.30752 -2.85575,6.09556 -12.55469,6.42958c-9.69894,0.33402 -13.69144,0.48521 -13.82639,-2.82231z"/><path d="M34.51087,242.14402c0.09432,3.3017 -3.37959,3.2355 -11.81658,3.10786c-8.43699,-0.12764 -11.2102,-2.845 -11.30451,-6.14671c-0.03341,-1.16925 2.49126,-34.02917 7.07179,-34.20004c0.66819,-0.02493 6.68404,-6.26796 8.84981,-5.78177c3.40207,0.76372 7.18037,42.35121 7.1995,43.02066z" data-paper-data="{&quot;index&quot;:null}"/><path d="M152.85727,227.26656c-0.49305,-1.67682 -5.90143,-34.31588 -3.54192,-34.83427c2.45628,-0.53965 9.83902,5.56297 10.60974,5.57158c5.28337,0.05907 8.33264,28.17296 8.38044,29.34427c0.06955,1.70461 -14.63192,2.69471 -15.44826,-0.08158z"/><path d="M-4.05224,227.0092c-0.0251,-1.03569 0.70284,-26.08016 4.39513,-26.64799c0.53861,-0.08283 5.39726,-6.17535 7.14216,-5.94016c1.67617,0.22594 -0.47565,29.48393 -0.73672,31.00806c-0.43224,2.52348 -10.76404,3.08733 -10.80057,1.58008z" data-paper-data="{&quot;index&quot;:null}"/><g><path d="M-7.59435,194.15727c0.11259,-7.03075 40.81149,-11.79471 90.90353,-10.64061c50.09204,1.15411 90.60838,7.78926 90.49579,14.82001c-0.11259,7.03075 -40.8115,11.7947 -90.90354,10.6406c-50.09204,-1.1541 -90.60838,-7.78925 -90.49579,-14.82z"/><path d="M-7.87832,194.46834c-0.11259,7.03075 40.40375,13.66589 90.49579,14.82c50.09204,1.1541 90.79095,-3.60985 90.90354,-10.6406c0.02703,-1.68801 -1.90564,9.3247 -5.82467,11.07754c-12.40421,5.54798 -46.45767,10.96436 -84.52317,10.08734c-34.8643,-0.80327 -69.28536,-4.43355 -85.56786,-11.91203c-7.11172,-3.26639 -5.44939,-15.56956 -5.48362,-13.43224z"/></g></g><path d="M334.38775,-42.72774c11.88334,3.60877 83.81501,92.4239 158.72011,121.19828c64.63441,24.82895 134.54062,-9.86049 133.72352,-6.87289c-0.87392,3.19536 -6.97696,32.50163 -14.34413,38.65501c-23.74198,19.83034 -76.21725,23.13264 -139.3375,5.86945c-82.70655,-22.61998 -197.12501,-152.22534 -193.43474,-165.71825c1.55417,-5.68258 23.81597,-2.50227 54.67274,6.8684z" fill="#3e0e6c" stroke="none" stroke-width="0" stroke-linecap="butt"/><path d="M265.27743,321.17503c11.16428,-5.61609 72.59406,-37.42865 72.59406,-37.42865l115.40323,11.55083c0,0 -0.63796,7.47858 -2.81532,9.90943c-5.9404,6.63198 -34.61054,37.73444 -34.61054,37.73444c0,0 -1.97186,6.29322 -12.82738,5.85366c-35.86527,-1.45225 -120.02482,-16.86305 -135.40155,-18.12853c-2.47419,-0.20362 -4.00098,-8.65689 -2.34249,-9.49118z" fill="#3e0e6c" stroke="none" stroke-width="0" stroke-linecap="butt"/><g fill="#e6ccff" stroke="#3e0e6c" stroke-width="2.5" stroke-linecap="butt"><path d="M-11.61464,24.53703c-0.43583,-4.91272 1.92647,-14.56476 13.96917,-15.19879c12.04271,-0.63403 22.15856,2.83454 22.59439,7.74727c0.39482,4.45043 -16.50404,38.81689 -16.93714,38.43231c-6.10792,-5.42372 -19.28708,-27.15578 -19.62642,-30.98078z"/><path d="M42.53345,1.58303c12.0427,-0.63403 23.21842,5.52841 23.65425,10.44114c0.39483,4.45043 -17.15456,38.77809 -17.58766,38.39351c-6.10792,-5.42372 -25.6835,-32.27249 -26.02283,-36.09749c-0.43583,-4.91273 7.91354,-12.10313 19.95624,-12.73716z"/><path d="M69.70834,10.66689c-0.43583,-4.91272 8.58819,-12.32595 20.63089,-12.95998c12.04271,-0.63403 21.74853,7.2822 22.18436,12.19493c0.39482,4.45043 -15.85352,38.8557 -16.28661,38.47112c-6.10792,-5.42372 -26.1893,-33.88106 -26.52864,-37.70606z"/></g></g></g></svg>