<svg version="1.1" xmlns="http://www.w3.org/2000/svg" xmlns:xlink="http://www.w3.org/1999/xlink" width="307.3048" height="328.43845" viewBox="0,0,307.3048,328.43845"><defs><linearGradient x1="94.83134" y1="239.37644" x2="94.83134" y2="312.13711" gradientUnits="userSpaceOnUse" id="color-1"><stop offset="0" stop-color="#55389c"/><stop offset="1" stop-color="#3c50a8"/></linearGradient><linearGradient x1="53.02755" y1="242.10496" x2="53.02755" y2="314.86563" gradientUnits="userSpaceOnUse" id="color-2"><stop offset="0" stop-color="#55389c"/><stop offset="1" stop-color="#3c50a8"/></linearGradient><linearGradient x1="73.03895" y1="240.87901" x2="73.03895" y2="357.46938" gradientUnits="userSpaceOnUse" id="color-3"><stop offset="0" stop-color="#55389c"/><stop offset="1" stop-color="#3c50a8"/></linearGradient><linearGradient x1="108.89299" y1="173.53543" x2="152.26871" y2="176.82827" gradientUnits="userSpaceOnUse" id="color-4"><stop offset="0" stop-color="#e27aff"/><stop offset="1" stop-color="#887aff"/></linearGradient><linearGradient x1="29.98538" y1="170.12039" x2="108.77961" y2="172.33721" gradientUnits="userSpaceOnUse" id="color-5"><stop offset="0" stop-color="#887aff"/><stop offset="1" stop-color="#e27aff"/></linearGradient></defs><g transform="translate(63.84876,-41.03634)"><g data-paper-data="{&quot;isPaintingLayer&quot;:true}" fill-rule="nonzero" stroke-linejoin="miter" stroke-miterlimit="10" stroke-dasharray="" stroke-dashoffset="0" style="mix-blend-mode: normal"><path d="M95.32887,316.22988c-3.64347,0 -7.09461,-20.3808 -7.09461,-40.4731c0,-20.09231 -2.76007,-31.60544 0.8834,-31.60544c0.04582,0 8.78038,10.72301 13.10418,24.25111c5.27469,16.50317 9.04491,35.83274 8.95906,37.29606c-1.04921,17.88331 -14.119,10.53137 -15.85202,10.53137z" data-paper-data="{&quot;index&quot;:null}" fill="url(#color-1)" stroke="#250077" stroke-width="2.5" stroke-linecap="butt"/><path d="M52.34543,318.95839c-2.37604,0 -20.64709,13.49109 -22.08558,-4.39222c-0.15077,-1.87427 7.57078,-35.74739 15.5692,-55.34738c3.72428,-9.12627 11.24824,-13.02106 11.29127,-13.02106c4.99533,0 4.95207,12.19525 4.95207,32.28756c0,20.09231 -4.73164,40.47311 -9.72697,40.47311z" fill="url(#color-2)" stroke="#250077" stroke-width="2.5" stroke-linecap="butt"/><path d="M73.03895,240.87901c3.40675,0 6.71625,-1.07497 9.8804,-1.57904c0.17089,-0.02722 5.33629,3.03736 8.85465,7.80527c4.26233,5.77611 7.27928,15.06986 6.39326,21.05185c-0.56609,3.82197 -1.33783,24.89234 -1.27728,25.34575c1.15703,8.66441 11.56872,17.0768 11.56872,17.09992c0,1.07959 -34.95894,46.86662 -35.41974,46.86662c-0.97529,0 -27.29671,-7.33098 -27.29671,-38.13697c0,-0.11588 3.99817,-17.01094 6.03402,-25.36487c1.11355,-4.56934 1.28521,-34.28007 4.24273,-47.15083c0.97007,-4.22161 7.88904,-7.50647 10.67337,-7.1379c2.18304,0.28897 4.90081,1.20019 6.34659,1.20019z" fill="url(#color-3)" stroke="#250077" stroke-width="2.5" stroke-linecap="butt"/><path d="M61.21939,271.03583l16.88369,2.41196" fill="none" stroke="#fdf7ff" stroke-width="2.5" stroke-linecap="round"/><path d="M82.525,267.4179c0,0 9.83218,-7.78215 14.17022,-7.24824c4.37154,0.53803 2.31148,9.2582 2.31148,9.2582" fill="none" stroke="#fdf7ff" stroke-width="2.5" stroke-linecap="round"/><path d="M93.7808,283.8996l-32.9634,0.40199" fill="none" stroke="#fdf7ff" stroke-width="2.5" stroke-linecap="round"/><path d="M68.3216,275.45775c0,-0.73987 0.59978,-1.33964 1.33964,-1.33964c0.73986,0 1.33964,0.59977 1.33964,1.33964c0,0.73987 -0.59978,1.33964 -1.33964,1.33964c-0.73986,0 -1.33964,-0.59978 -1.33964,-1.33964z" fill="#fdf7ff" stroke="none" stroke-width="0.5" stroke-linecap="butt"/><path d="M86.81326,274.25178c0,-0.73987 0.59978,-1.33964 1.33964,-1.33964c0.73986,0 1.33965,0.59978 1.33965,1.33964c0,0.73987 -0.59978,1.33964 -1.33965,1.33964c-0.73986,0 -1.33964,-0.59977 -1.33964,-1.33964z" fill="#fdf7ff" stroke="none" stroke-width="0.5" stroke-linecap="butt"/><path d="M65.3832,241.7228c0,-2.9763 -0.2969,-19.1364 0.84892,-21.41872c1.8737,-3.73215 5.98598,7.21722 9.54965,7.21722c3.91502,0 7.32471,-4.01195 9.09864,0.35385c0.82825,2.03841 1.29991,11.35119 1.29991,13.84765c0,7.84327 -20.79712,7.84327 -20.79712,0z" fill="#c2bfff" stroke="#250077" stroke-width="2.5" stroke-linecap="butt"/><g><path d="M55.89377,42.28634c3.97609,0.3195 17.29685,70.66587 17.0468,73.51526c-3.19618,36.4215 -7.34298,60.08853 -28.62117,58.37868c-9.64259,-0.77485 -22.4996,14.55019 -28.54732,0.32425c-7.2977,-17.16625 -2.32114,-60.91295 -0.57337,-80.82939c0.46309,-5.27713 39.10792,-51.51634 40.69506,-51.3888z" fill="#947aff" stroke="#250077" stroke-width="2.5" stroke-linecap="butt"/><path d="M154.01557,101.938c-0.62398,19.97134 -3.44246,69.46066 -9.35028,85.71722c-4.8959,13.47207 -11.43751,-3.14657 -17.38468,-3.42513c-13.12354,-0.61468 -13.64458,-24.57195 -12.50349,-61.09384c0.08927,-2.85725 14.18343,-71.2785 16.63571,-71.16364c0.97888,0.04585 22.76807,44.67372 22.60274,49.96539z" data-paper-data="{&quot;index&quot;:null}" fill="#947aff" stroke="#250077" stroke-width="2.5" stroke-linecap="butt"/><path d="M12.98281,158.3964c3.27601,-39.03109 37.57269,-68.0163 76.60378,-64.74029c39.03109,3.27601 68.01631,37.57269 64.74029,76.60378c-3.27601,39.03109 -37.57269,68.01631 -76.60378,64.7403c-39.03109,-3.27601 -68.0163,-37.57269 -64.74029,-76.60378z" fill="#c2bfff" stroke="#250077" stroke-width="2.5" stroke-linecap="butt"/><path d="M40.49072,182.35932c-0.18836,6.6949 0.60151,14.90593 -2.8981,14.80747c-3.4996,-0.09846 -20.23109,-15.92678 -20.04273,-22.62168c0.09642,-3.42695 15.23704,-4.53432 16.94528,-4.48626c3.49961,0.09846 6.18391,5.60557 5.99555,12.30047z" fill="#250077" stroke="none" stroke-width="0" stroke-linecap="butt"/><path d="M148.8899,178.38705c0.87803,0.2783 8.30525,4.22073 7.5608,7.53752c-1.45435,6.47968 -13.6097,18.53573 -15.40848,17.96561c-1.79878,-0.57012 0.50301,-8.32324 1.95736,-14.80293c1.45435,-6.47968 4.09154,-11.27033 5.89032,-10.7002z" data-paper-data="{&quot;index&quot;:null}" fill="#250077" stroke="none" stroke-width="0" stroke-linecap="butt"/><path d="M24.59545,78.68221c0.70773,-8.43212 30.3327,-12.82934 66.16922,-9.82146c35.83651,3.00788 64.31402,12.28184 63.60628,20.71395c-0.70774,8.43212 -30.33271,12.82934 -66.16922,9.82146c-35.83651,-3.00788 -64.31401,-12.28183 -63.60627,-20.71395zM88.00859,95.15499c28.09703,2.35828 51.324,-1.08929 51.87889,-7.70036c0.55489,-6.61106 -21.77243,-13.88215 -49.86947,-16.24043c-28.09703,-2.35828 -51.324,1.08929 -51.87889,7.70035c-0.55489,6.61106 21.77243,13.88216 49.86947,16.24044z" fill="#7ae7ff" stroke="#250077" stroke-width="2.5" stroke-linecap="butt"/><path d="M121.03671,225.32591c0,0 -7.49458,-4.46914 -21.54824,-3.90692c-9.94507,0.39785 -23.01404,3.17267 -28.97399,2.34477c-6.44519,-0.8953 -10.39561,-2.72092 -19.03618,-7.84486c-4.15415,-2.46344 -6.85208,-7.91703 -6.85208,-7.91703" fill="none" stroke="#250077" stroke-width="2.5" stroke-linecap="round"/><path d="M108.86199,174.63745c0.06985,-0.68692 43.45267,1.73913 43.40674,2.19082c-1.8205,17.90501 -13.05281,33.33578 -25.03068,32.42649c-11.97787,-0.90929 -20.19655,-16.7123 -18.37605,-34.61731z" fill="url(#color-4)" stroke="#250077" stroke-width="2.5" stroke-linecap="butt"/><path d="M29.98538,170.12039c0.02381,-0.84643 78.76338,3.31327 78.74772,3.86985c-0.62072,22.06274 -18.75351,39.12862 -40.51193,38.51646c-21.75843,-0.61216 -38.85651,-20.32358 -38.23579,-42.38631z" fill="url(#color-5)" stroke="#250077" stroke-width="2.5" stroke-linecap="butt"/><path d="M48.47906,175.80296c-0.00236,-1.72835 0.10885,-2.85385 0.69378,-4.38126c0.09898,-0.25845 30.82613,1.08525 30.88432,1.61621c0.0739,0.67428 0.07263,2.42544 0.05302,3.12263c-0.23117,8.21647 -7.94453,17.06098 -17.49077,16.79241c-8.21647,-0.23117 -14.128,-8.12818 -14.14034,-17.14999z" fill="#fdf7ff" stroke="#250077" stroke-width="2.5" stroke-linecap="butt"/><path d="M114.61132,180.88405c0.06047,-2.14941 0.54457,-4.17166 1.35675,-5.96248c0.19853,-0.43776 20.5359,0.45434 20.75295,1.12606c0.52427,1.62249 0.78179,3.63578 0.72993,5.47901c-0.21374,7.59722 -5.22822,13.61976 -11.80683,13.43468c-6.57862,-0.18508 -11.24654,-6.48004 -11.0328,-14.07726z" fill="#fdf7ff" stroke="#250077" stroke-width="2.5" stroke-linecap="butt"/></g><g stroke="#3e0e6c" stroke-width="2.5" stroke-linecap="butt"><path d="M-62.59875,330.33757c0,-16.99975 68.23288,-30.78078 152.4024,-30.78078c84.16952,0 152.4024,13.78103 152.4024,30.78078c0,3.78185 -0.64838,29.91464 -6.82639,33.26161c-21.59268,11.69795 -80.13127,-2.48082 -145.57601,-2.48082c-84.16952,0 -152.4024,-13.78103 -152.4024,-30.78078z" fill="#a85380"/><path d="M89.80365,300.09271c84.16952,0 152.4024,13.78103 152.4024,30.78078c0,16.99975 -68.23287,30.78078 -152.4024,30.78078c-84.16952,0 -152.4024,-13.78103 -152.4024,-30.78078c0,-16.99975 68.23288,-30.78078 152.4024,-30.78078z" fill="#bb779b"/></g></g></g></svg>