<svg version="1.1" xmlns="http://www.w3.org/2000/svg" xmlns:xlink="http://www.w3.org/1999/xlink" width="43.52525" height="43.52525" viewBox="0,0,43.52525,43.52525"><g transform="translate(-298.23738,-158.23738)"><g data-paper-data="{&quot;isPaintingLayer&quot;:true}" fill-rule="nonzero" stroke="none" stroke-width="0" stroke-linecap="butt" stroke-linejoin="miter" stroke-miterlimit="10" stroke-dasharray="" stroke-dashoffset="0" style="mix-blend-mode: normal"><g><path d="M304.80764,180c0,-8.39052 6.80184,-15.19236 15.19236,-15.19236c8.39052,0 15.19238,6.80184 15.19238,15.19236c0,8.39052 -6.80186,15.19236 -15.19238,15.19236c-8.39052,0 -15.19236,-6.80184 -15.19236,-15.19236z" fill="#6dffa9"/><path d="M309.64159,180c0,-5.7208 4.63763,-10.35841 10.35841,-10.35841c5.7208,0 10.35843,4.63763 10.35843,10.35841c0,5.7208 -4.63763,10.35841 -10.35843,10.35841c-5.7208,0 -10.35841,-4.63763 -10.35841,-10.35841z" fill="#ffffff"/></g><path d="M298.23738,201.76262v-43.52525h43.52525v43.52525z" fill="none"/></g></g></svg>