<svg version="1.1" xmlns="http://www.w3.org/2000/svg" xmlns:xlink="http://www.w3.org/1999/xlink" width="39.65702" height="49.13461" viewBox="0,0,39.65702,49.13461"><defs><linearGradient x1="613.06184" y1="322.73338" x2="613.06184" y2="351.28644" gradientUnits="userSpaceOnUse" id="color-1"><stop offset="0" stop-color="#ffa047"/><stop offset="1" stop-color="#ff7b47"/></linearGradient></defs><g transform="translate(-593.23333,-307.70381)"><g data-paper-data="{&quot;isPaintingLayer&quot;:true}" fill-rule="nonzero" stroke="none" stroke-linecap="butt" stroke-linejoin="miter" stroke-miterlimit="10" stroke-dasharray="" stroke-dashoffset="0" style="mix-blend-mode: normal"><path d="M593.23333,337.00991c0,-10.95099 8.87752,-19.82851 19.82851,-19.82851c10.95098,0 19.82851,8.87752 19.82851,19.82851c0,10.95099 -8.87752,19.82851 -19.82851,19.82851c-10.95099,0 -19.82851,-8.87752 -19.82851,-19.82851z" fill="#67411d" stroke-width="0"/><path d="M598.78531,337.00991c0,-7.88471 6.39182,-14.27653 14.27653,-14.27653c7.88471,0 14.27653,6.39182 14.27653,14.27653c0,7.88471 -6.39182,14.27653 -14.27653,14.27653c-7.88471,0 -14.27653,-6.39182 -14.27653,-14.27653z" fill="url(#color-1)" stroke-width="0"/><path d="M601.38197,337.00991c0,-6.45062 5.22925,-11.67987 11.67988,-11.67987c6.45062,0 11.67988,5.22925 11.67988,11.67987c0,6.45062 -5.22926,11.67988 -11.67988,11.67988c-6.45062,0 -11.67988,-5.22926 -11.67988,-11.67988z" fill="#ffffff" stroke-width="0"/><text transform="translate(594.16265,313.54895) scale(0.18556,0.18556)" font-size="40" xml:space="preserve" fill="#381368" fill-rule="nonzero" stroke="none" stroke-width="1" stroke-linecap="butt" stroke-linejoin="miter" stroke-miterlimit="10" stroke-dasharray="" stroke-dashoffset="0" font-family="&quot;owo&quot;, Pixel" font-weight="normal" text-anchor="start" style="mix-blend-mode: normal"><tspan x="0" dy="0">BULLET-TYPE</tspan></text></g></g></svg>