<svg version="1.1" xmlns="http://www.w3.org/2000/svg" xmlns:xlink="http://www.w3.org/1999/xlink" width="142.1382" height="179.40743" viewBox="0,0,142.1382,179.40743"><defs><radialGradient cx="559.03262" cy="201.11743" r="71.05124" gradientUnits="userSpaceOnUse" id="color-1"><stop offset="0" stop-color="#3e0e6b" stop-opacity="0.51373"/><stop offset="1" stop-color="#3e0e6b" stop-opacity="0"/></radialGradient><linearGradient x1="560.25295" y1="178.79613" x2="556.62789" y2="223.80963" gradientUnits="userSpaceOnUse" id="color-2"><stop offset="0" stop-color="#f2b34d"/><stop offset="1" stop-color="#f2544e"/></linearGradient><linearGradient x1="560.04967" y1="181.32025" x2="556.83116" y2="221.28551" gradientUnits="userSpaceOnUse" id="color-3"><stop offset="0" stop-color="#b9643b"/><stop offset="1" stop-color="#cb4641"/></linearGradient><linearGradient x1="559.92696" y1="182.84395" x2="556.95386" y2="219.7618" gradientUnits="userSpaceOnUse" id="color-4"><stop offset="0" stop-color="#f2b34d"/><stop offset="1" stop-color="#f2544e"/></linearGradient></defs><g transform="translate(-487.96352,-130.04833)"><g data-paper-data="{&quot;isPaintingLayer&quot;:true}" fill-rule="nonzero" stroke-linecap="butt" stroke-linejoin="miter" stroke-miterlimit="10" stroke-dasharray="" stroke-dashoffset="0" style="mix-blend-mode: normal"><path d="M494.01337,229.76665c-15.82252,-35.90914 0.46089,-77.84593 36.37003,-93.66846c35.90914,-15.82252 77.84593,0.4609 93.66846,36.37003c15.82252,35.90914 -0.4609,77.84593 -36.37003,93.66846c-35.90914,15.82252 -77.84592,-0.4609 -93.66845,-36.37002z" fill="url(#color-1)" stroke="none" stroke-width="0"/><path d="" data-paper-data="{&quot;index&quot;:null}" fill="#915c9c" stroke="#3e0e6c" stroke-width="2.5"/><path d="M603.10243,308.20577c-8.36246,-0.43126 -17.54648,-13.52696 -17.54648,-13.52696c0,0 -1.39776,-19.25623 -2.10117,-29.33302c-0.26781,-3.83656 -1.08933,3.64589 -1.5389,-1.677c-0.57713,-6.83339 -0.60521,-28.66023 -0.60521,-28.66023c0,0 3.46595,-25.11645 9.10045,-25.32456c5.44197,-0.201 8.23418,7.46161 9.17147,9.60497c0.1604,0.3668 -0.14257,0.42558 -0.14257,0.42558c0,0 5.297,14.62391 7.69633,26.73554c0.39507,1.99426 -2.121,-1.71865 -1.67517,0.34819c3.85934,17.89154 8.08651,38.66663 8.16457,39.18128c0.0531,0.35012 -0.71438,-2.6618 1.07768,-1.84524c2.7251,1.24172 5.96708,10.12088 6.08379,13.39227c0.27074,7.58922 -12.21293,10.96138 -17.6848,10.6792z" data-paper-data="{&quot;index&quot;:null}" fill="#915c9c" stroke="#3e0e6c" stroke-width="2.5"/><path d="M489.92393,288.18821c0.20513,-3.26703 5.93805,-11.1039 8.69573,-12.27147c1.81348,-0.76781 1.05751,4.73134 1.12005,4.38278c0.09196,-0.51235 4.56822,-25.58787 8.90995,-43.36852c0.50156,-2.05403 -1.59994,-0.49862 -1.15108,-2.48147c2.72596,-12.04232 7.20093,-27.00431 7.20093,-27.00431c0,0 2.8959,-10.99183 9.26045,-10.58419c5.62682,0.36039 9.15219,24.11673 9.15219,24.11673c0,0 -0.09513,25.26405 -0.85682,32.07935c-0.59332,5.30879 -1.16315,-0.86478 -1.53461,2.96312c-0.97564,10.0541 -3.10742,35.48072 -3.10742,35.48072c0,0 -22.32742,10.37354 -30.6985,10.57853c-5.4775,0.13413 -7.46675,-6.31213 -6.99089,-13.89128z" fill="#915c9c" stroke="#3e0e6c" stroke-width="2.5"/><g><g><path d="M591.98373,204.16764c-1.51643,18.82982 -17.6611,32.89321 -36.06017,31.41147c-18.39905,-1.48173 -32.08516,-17.94749 -30.56873,-36.77729c1.51643,-18.82982 17.66111,-32.8932 36.06016,-31.41147c18.39905,1.48173 32.08515,17.94749 30.56872,36.77729z" fill="#762e36" stroke="#3e0e6c" stroke-width="2.5"/><g fill="#4e175c" stroke="none" stroke-width="0"><g><g><path d="M556.19257,173.37328c-0.10847,-1.23722 1.70015,-2.40365 4.03968,-2.60528c2.33954,-0.20163 4.32403,0.63788 4.4325,1.87509c0.08092,0.92295 -3.19404,5.42151 -3.78829,5.47272c-1.06592,0.09188 -4.62484,-4.06903 -4.68389,-4.74254z"/><path d="M565.23711,172.69358c0.43261,-1.14893 2.5542,-1.31833 4.73864,-0.37838c2.18445,0.93994 3.60457,2.6333 3.17195,3.78221c-0.32273,0.85709 -5.18644,3.2799 -5.74129,3.04117c-0.99526,-0.42826 -2.40481,-5.81954 -2.1693,-6.44501z"/><path d="M573.67906,176.35336c0.67861,-1.00521 2.7835,-0.6393 4.70145,0.81728c1.91795,1.45659 2.92262,3.45229 2.24404,4.45751c-0.50624,0.7499 -5.78703,1.88247 -6.27419,1.51248c-0.87385,-0.66365 -1.0407,-6.24001 -0.67128,-6.78725z"/><path d="M584.8985,185.03241c1.09616,2.20869 1.1424,4.45871 0.1033,5.02553c-0.77515,0.42286 -5.99605,-1.0981 -6.27448,-1.65912c-0.49943,-1.00632 1.73929,-6.03067 2.30496,-6.33925c1.0391,-0.56682 2.77007,0.76416 3.86623,2.97285z"/><path d="M586.33527,190.58358c1.17453,-0.01228 2.16678,1.99023 2.21627,4.47274c0.04949,2.48254 -0.86254,4.50499 -2.03706,4.51728c-0.87618,0.00917 -4.92581,-3.81366 -4.93838,-4.44424c-0.02254,-1.13108 4.11979,-4.53909 4.75919,-4.54579z"/></g><g data-paper-data="{&quot;index&quot;:null}"><path d="M556.07472,173.02229c0.05904,0.67351 -2.72235,5.38084 -3.78828,5.4727c-0.59425,0.05121 -4.60298,-3.81956 -4.68392,-4.74252c-0.10847,-1.23722 1.70014,-2.40366 4.03968,-2.60529c2.33954,-0.20163 4.32403,0.63788 4.43251,1.87509z"/><path d="M547.04757,173.90012c0.34082,0.57577 -0.10931,6.12735 -1.01513,6.71946c-0.50499,0.3301 -5.7174,-1.22431 -6.18445,-2.01331c-0.62607,-1.05767 0.47806,-2.96857 2.46616,-4.26815c1.9881,-1.29957 4.10734,-1.49567 4.7334,-0.438z"/><path d="M539.36917,178.94931c0.45912,0.47581 1.26523,5.99709 0.51999,6.80028c-0.41548,0.44777 -5.81416,0.23562 -6.4433,-0.41639c-0.84337,-0.87403 -0.20105,-3.01168 1.43462,-4.77454c1.63567,-1.76286 3.64533,-2.48338 4.48869,-1.60934z"/><path d="M533.1193,185.82789c0.61089,0.20718 3.69043,4.77318 3.37364,5.84984c-0.17661,0.60023 -5.05451,2.99159 -5.89163,2.7077c-1.12215,-0.38055 -1.46817,-2.60474 -0.77285,-4.96783c0.69531,-2.36309 2.16867,-3.97026 3.29084,-3.5897z"/><path d="M529.3793,195.1313c0.63097,-0.10279 5.30429,2.54541 5.47893,3.66339c0.09735,0.62327 -3.22623,5.08159 -4.09088,5.22245c-1.15905,0.18883 -2.40938,-1.64727 -2.79266,-4.10103c-0.3833,-2.45376 0.24559,-4.59599 1.40464,-4.78481z"/></g></g><g data-paper-data="{&quot;index&quot;:null}"><g><path d="M560.06861,229.51356c-0.04279,-0.67474 2.85104,-5.31826 3.91879,-5.38598c0.59527,-0.03776 4.50925,3.92307 4.56789,4.84771c0.07862,1.23946 -1.75745,2.36474 -4.10099,2.51337c-2.34354,0.14864 -4.30708,-0.73563 -4.38569,-1.97509z"/><path d="M569.11363,228.84022c-0.32683,-0.5834 0.25693,-6.12378 1.17669,-6.69527c0.51276,-0.31861 5.68577,1.35349 6.13365,2.15293c0.60037,1.07166 -0.54942,2.95723 -2.5681,4.21156c-2.01869,1.25433 -4.14187,1.40243 -4.74223,0.33077z"/><path d="M576.9109,223.96575c-0.44749,-0.48613 -1.12024,-6.02466 -0.35592,-6.81084c0.42611,-0.43829 5.81771,-0.10398 6.43092,0.56219c0.82198,0.89297 0.12841,3.0157 -1.54915,4.74121c-1.67756,1.72551 -3.70385,2.40042 -4.52584,1.50744z"/><path d="M583.32426,217.22988c-0.60568,-0.22096 -3.57403,-4.85584 -3.23141,-5.92515c0.19101,-0.59613 5.12475,-2.87664 5.95471,-2.57383c1.11259,0.4059 1.40488,2.63748 0.65286,4.98441c-0.75203,2.34693 -2.26359,3.92046 -3.37617,3.51458z"/><path d="M587.28712,208.01278c-0.63321,0.08849 -5.24099,-2.66503 -5.38862,-3.78675c-0.0823,-0.62535 3.34751,-5.00763 4.21524,-5.1289c1.16317,-0.16256 2.36878,1.70151 2.69281,4.16349c0.32403,2.46199 -0.35625,4.5896 -1.51942,4.75215z"/></g><g data-paper-data="{&quot;index&quot;:null}"><path d="M555.90382,232.3915c-2.34354,0.14864 -4.30708,-0.73562 -4.38569,-1.97508c-0.05865,-0.92463 3.32353,-5.34823 3.9188,-5.38599c1.06775,-0.06772 4.5251,4.17297 4.56789,4.84771c0.07862,1.23946 -1.75746,2.36473 -4.101,2.51336z"/><path d="M546.2012,230.62402c-2.161,-0.98922 -3.53981,-2.71443 -3.07965,-3.85334c0.34327,-0.84962 5.26358,-3.1619 5.81249,-2.91063c0.9846,0.45069 2.26367,5.87293 2.01317,6.49293c-0.46016,1.13892 -2.58502,1.26027 -4.74601,0.27105z"/><path d="M537.91654,225.57917c-1.88213,-1.49974 -2.83836,-3.51781 -2.13579,-4.50748c0.52412,-0.7383 5.83028,-1.75112 6.30836,-1.37019c0.85753,0.6833 0.88993,6.26246 0.50745,6.80123c-0.70257,0.98968 -2.79789,0.57619 -4.68003,-0.92355z"/><path d="M531.59039,217.57127c-1.04252,-2.2331 -1.03451,-4.48374 0.01788,-5.02695c0.78507,-0.40523 5.96739,1.23363 6.23221,1.80086c0.47498,1.01745 -1.88399,5.99023 -2.4569,6.28595c-1.05238,0.54321 -2.75066,-0.82675 -3.79318,-3.05985z"/><path d="M528.18026,207.46647c0.01035,-2.4832 0.9708,-4.48464 2.14519,-4.47035c0.87609,0.01066 4.83212,3.92449 4.82949,4.55522c-0.00471,1.13138 -4.2277,4.44499 -4.86701,4.43723c-1.17438,-0.01429 -2.11802,-2.0389 -2.10767,-4.5221z"/></g></g></g><g><path d="M536.10557,199.50419c1.00103,-12.43012 11.8122,-21.70144 24.14739,-20.70806c12.3352,0.99338 21.52335,11.87531 20.52232,24.30545c-1.00103,12.43012 -11.8122,21.70144 -24.14739,20.70806c-12.3352,-0.99338 -21.52334,-11.87531 -20.52231,-24.30544z" fill="url(#color-2)" stroke="#3e0e6c" stroke-width="2.5"/><path d="M538.61041,199.70591c0.88878,-11.0361 10.48746,-19.26765 21.43927,-18.38566c10.95181,0.88199 19.10952,10.54349 18.22075,21.57959c-0.88877,11.0361 -10.48747,19.26764 -21.43927,18.38566c-10.95181,-0.88199 -19.10952,-10.54351 -18.22074,-21.57961z" fill="url(#color-3)" stroke="none" stroke-width="0"/><path d="M540.12249,199.82767c0.821,-10.19458 9.68777,-17.79846 19.80449,-16.98372c10.11671,0.81472 17.65239,9.73954 16.83138,19.93412c-0.82101,10.19458 -9.68776,17.79845 -19.80449,16.98371c-10.11671,-0.81472 -17.65238,-9.73954 -16.83139,-19.93411z" fill="url(#color-4)" stroke="none" stroke-width="0"/></g><path d="M520.63746,199.74045c0.91261,-11.33215 6.03458,-20.85373 13.81607,-27.09776c0.45772,-0.36728 -0.37651,-1.27657 0.09928,-1.62087c6.86479,-4.96753 16.88052,-6.959 26.49764,-6.1845c0.74122,0.05969 1.7862,-0.96049 2.50946,-0.86837c11.19721,1.4259 20.32005,7.24934 25.921,15.30015c0.37632,0.54092 1.23591,0.45887 1.57967,1.01886c4.06744,6.62591 5.34792,15.19981 4.64038,23.98557c-0.09044,1.12308 1.62877,1.47867 1.45036,2.56103c-1.5111,9.1673 -6.60395,17.94344 -13.67996,23.47774c-0.63304,0.49512 -1.20606,0.02189 -1.87104,0.47964c-7.6637,5.27543 -17.37948,8.02408 -27.56294,7.20398c-0.69296,-0.05581 -1.40805,0.18952 -2.09361,0.10308c-14.10513,-1.77851 -25.78835,-10.84632 -30.45019,-21.53163c-0.4964,-1.1378 0.98596,-0.62651 0.61304,-1.84183c-1.38588,-4.51634 -1.90667,-9.5517 -1.4691,-14.98506zM556.3325,231.89364c16.61453,1.33802 31.16796,-11.04604 32.50598,-27.66058c1.33802,-16.61455 -11.04605,-31.16796 -27.66058,-32.50598c-16.61454,-1.33802 -31.16796,11.04605 -32.50598,27.66059c-1.33802,16.61454 11.04605,31.16796 27.66058,32.50598z" fill="#75587b" stroke="#3e0e6c" stroke-width="2.5"/><g fill="#ffe1da" stroke="#3e0e6c" stroke-width="2.5"><g><g><path d="M564.97123,169.60514c2.47963,0.1433 4.42986,1.32271 4.35602,2.63429c-0.0551,0.97844 -4.16482,5.19156 -4.79465,5.15516c-1.12976,-0.06528 -4.22505,-4.96007 -4.18484,-5.67408c0.07384,-1.31158 2.14384,-2.25867 4.62347,-2.11537z"/><path d="M569.91875,172.37899c0.62691,-1.13718 2.87348,-0.99318 5.01783,0.32169c2.14434,1.31486 3.37449,3.3026 2.74757,4.43979c-0.46768,0.84832 -5.9261,2.64786 -6.47078,2.31389c-0.977,-0.59907 -1.6359,-6.45631 -1.29463,-7.07537z"/><path d="M578.20162,177.4889c0.86263,-0.94949 3.01068,-0.24761 4.79779,1.56769c1.78709,1.8153 2.53655,4.05664 1.6739,5.00612c-0.64354,0.70832 -6.34314,1.09403 -6.79707,0.63293c-0.81424,-0.8271 -0.14424,-6.68985 0.32537,-7.20674z"/><path d="M588.63175,188.27377c0.81291,2.47816 0.5205,4.84052 -0.65312,5.27649c-0.87551,0.32523 -6.11048,-2.05777 -6.31697,-2.68724c-0.37037,-1.12909 2.73422,-6.0496 3.37312,-6.28694c1.17361,-0.43598 2.78404,1.21953 3.59696,3.69769z"/><path d="M589.29495,194.30251c1.23137,0.16504 1.96676,2.41163 1.64253,5.01789c-0.32425,2.60625 -1.58533,4.58526 -2.8167,4.42022c-0.9186,-0.12312 -4.57881,-4.73837 -4.49645,-5.40036c0.14772,-1.18747 5.00028,-4.12757 5.67061,-4.03773z"/></g><g data-paper-data="{&quot;index&quot;:null}"><path d="M560.27754,171.33523c-0.04021,0.71401 -3.66488,5.22043 -4.79465,5.15515c-0.62982,-0.0364 -4.23995,-4.69564 -4.18484,-5.67408c0.07384,-1.31158 2.14384,-2.25867 4.62345,-2.11538c2.47963,0.1433 4.42988,1.32272 4.35604,2.6343z"/><path d="M550.69473,170.8868c0.26957,0.65437 -1.04257,6.3977 -2.08048,6.88032c-0.57863,0.26907 -5.79966,-2.14766 -6.16905,-3.04437c-0.49519,-1.20203 0.9501,-3.03516 3.22814,-4.09445c2.27803,-1.05928 4.5262,-0.94355 5.0214,0.25847z"/><path d="M541.89198,175.00933c0.40854,0.56764 0.41606,6.46956 -0.48574,7.19747c-0.50276,0.4058 -6.12208,-0.63403 -6.68193,-1.4119c-0.75047,-1.04272 0.24574,-3.18315 2.22502,-4.7808c1.97929,-1.59765 4.19218,-2.04749 4.94265,-1.00478z"/><path d="M534.30754,181.2633c0.60811,0.3094 3.14021,5.55569 2.6455,6.63476c-0.2758,0.60159 -5.74433,2.36605 -6.57764,1.94206c-1.11705,-0.56836 -1.1424,-2.9491 -0.05655,-5.31751c1.08583,-2.36841 2.87165,-3.82767 3.98869,-3.25932z"/><path d="M528.98318,190.43582c0.67607,-0.01202 5.16708,3.46806 5.18055,4.66484c0.0075,0.66719 -4.14703,4.83083 -5.07349,4.84732c-1.24191,0.02211 -2.27267,-2.08935 -2.30223,-4.71605c-0.02955,-2.6267 0.95324,-4.77399 2.19516,-4.7961z"/></g></g><g data-paper-data="{&quot;index&quot;:null}"><g><path d="M555.90147,231.07662c0.05742,-0.71283 3.79012,-5.13543 4.91813,-5.04458c0.62886,0.05065 4.12614,4.78982 4.04749,5.76663c-0.10545,1.3094 -2.19796,2.20925 -4.67375,2.00987c-2.47579,-0.19938 -4.39731,-1.42249 -4.29187,-2.73189z"/><path d="M565.47201,231.74185c-0.25376,-0.66021 1.19657,-6.37161 2.24594,-6.83054c0.58503,-0.25585 5.747,2.27811 6.09474,3.18282c0.46617,1.21278 -1.02309,3.01249 -3.32632,4.01976c-2.30322,1.00727 -4.54823,0.84072 -5.01437,-0.37206z"/><path d="M574.37274,227.82022c-0.39479,-0.57666 -0.2601,-6.47644 0.65909,-7.18365c0.51246,-0.39427 6.10587,0.77237 6.64688,1.56261c0.72521,1.0593 -0.3224,3.17635 -2.33988,4.72855c-2.01748,1.55221 -4.24088,1.95177 -4.96609,0.89248z"/><path d="M582.10671,221.7404c-0.60058,-0.32305 -3.00586,-5.6246 -2.4852,-6.69206c0.29026,-0.5951 5.80046,-2.23507 6.62342,-1.79237c1.10321,0.59343 1.07114,2.9738 -0.0716,5.3167c-1.14275,2.34291 -2.96342,3.76116 -4.06662,3.16773z"/><path d="M587.65127,212.692c-0.67625,-0.00328 -5.08272,-3.58369 -5.06735,-4.7803c0.00858,-0.66712 4.2628,-4.73504 5.18952,-4.73055c1.24226,0.00602 2.22196,2.13998 2.18823,4.76633c-0.03373,2.62634 -1.06815,4.75054 -2.3104,4.74452z"/></g><g data-paper-data="{&quot;index&quot;:null}"><path d="M551.10574,233.45846c-2.47579,-0.19938 -4.39733,-1.4225 -4.29187,-2.73189c0.07868,-0.97682 4.28928,-5.09523 4.91813,-5.04459c1.12801,0.09084 4.10488,5.0538 4.04748,5.76662c-0.10544,1.3094 -2.19794,2.20925 -4.67373,2.00986z"/><path d="M541.21653,230.13852c-2.11234,-1.36288 -3.29439,-3.37772 -2.64016,-4.50026c0.48803,-0.8374 5.989,-2.51267 6.52554,-2.16649c0.96242,0.62096 1.48007,6.49082 1.12392,7.10191c-0.65423,1.12254 -2.89697,0.92772 -5.00931,-0.43516z"/><path d="M533.3081,223.60256c-1.74308,-1.85507 -2.4384,-4.11248 -1.55302,-5.04207c0.6605,-0.69347 6.36852,-0.94999 6.81128,-0.4788c0.79419,0.84519 -0.017,6.69049 -0.49898,7.19655c-0.88538,0.92959 -3.01619,0.17937 -4.75928,-1.6757z"/><path d="M527.89874,214.26144c-0.75308,-2.49558 -0.4038,-4.85041 0.78015,-5.25964c0.88321,-0.30528 6.05994,2.19532 6.25124,2.82922c0.34311,1.13702 -2.87959,5.98533 -3.5241,6.20811c-1.18395,0.40923 -2.75421,-1.2821 -3.50728,-3.77769z"/><path d="M525.85954,203.16694c0.38699,-2.5979 1.69557,-4.54759 2.92278,-4.35474c0.9155,0.14387 4.46392,4.84018 4.36563,5.50007c-0.17632,1.18366 -5.09896,4.01276 -5.76704,3.90778c-1.22721,-0.19285 -1.90836,-2.45521 -1.52138,-5.05311z"/></g></g></g></g><path d="M559.6249,201.96483c-0.33486,4.15804 -2.03472,12.37854 -2.3232,12.3553c-0.29865,-0.02405 -0.64318,-8.50584 -0.31607,-12.56785c0.35572,-4.41707 2.06212,-12.37631 2.32319,-12.35528c0.2068,0.01665 0.71306,7.63834 0.31608,12.56783z" fill="#3e0e6c" stroke="none" stroke-width="0"/></g></g></g></svg>