<svg version="1.1" xmlns="http://www.w3.org/2000/svg" xmlns:xlink="http://www.w3.org/1999/xlink" width="769.95486" height="481.2022" viewBox="0,0,769.95486,481.2022"><defs><linearGradient x1="332.53243" y1="65.13585" x2="332.53243" y2="241.49608" gradientUnits="userSpaceOnUse" id="color-1"><stop offset="0" stop-color="#ffa4f3"/><stop offset="1" stop-color="#ffd172"/></linearGradient><linearGradient x1="-6.58577" y1="114.85442" x2="-6.58577" y2="336.24279" gradientUnits="userSpaceOnUse" id="color-2"><stop offset="0" stop-color="#ffa4f3"/><stop offset="1" stop-color="#ffd172"/></linearGradient></defs><g transform="translate(79.10729,80.01389)"><g data-paper-data="{&quot;isPaintingLayer&quot;:true}" fill-rule="nonzero" stroke-linejoin="miter" stroke-miterlimit="10" stroke-dasharray="" stroke-dashoffset="0" style="mix-blend-mode: normal"><g stroke-linecap="butt"><path d="M3.73317,127.98763v-119.13696c0,0 526.78926,-29 604.95032,-29c18.561,0 40.45306,29 40.45306,29v119.13696z" fill="#664585" stroke="#3e0e6c" stroke-width="2.5"/><path d="M33.75194,397.21841c0,0 -52.53283,-17.00665 -52.53283,-24.39025c0,-27.29601 40.33771,-214.82176 40.33771,-214.82176h645.40338v206.37899z" fill="#664585" stroke="#3e0e6c" stroke-width="2.5"/><path d="M56.26601,268.70058l-3.75234,-179.17448l636.9606,-17.82364l-11.25703,122.8893z" fill="url(#color-1)" stroke="#3e0e6c" stroke-width="2.5"/><path d="M7.48552,367.19964l-45.96623,-292.68292l90.99437,15.00938l6.56661,180.11257z" fill="url(#color-2)" stroke="#3e0e6c" stroke-width="2.5"/><path d="M78.3999,201.71928l64.67542,-96.98653l100.25004,42.39378l-64.67542,96.98654z" fill-opacity="0.51373" fill="#ffd6ec" stroke="none" stroke-width="0"/><path d="M293.60184,159.88257l48.78049,-62.85178v62.85178z" fill-opacity="0.51373" fill="#ffd6ec" stroke="none" stroke-width="0"/><path d="M548.76131,127.98763c0,-23.83217 17.21982,-43.15197 38.46154,-43.15197c21.24172,0 38.46154,19.3198 38.46154,43.15197c0,23.83217 -17.21982,43.15197 -38.46154,43.15197c-21.24172,0 -38.46154,-19.31979 -38.46154,-43.15197z" fill-opacity="0.51373" fill="#ffd6ec" stroke="none" stroke-width="0"/><path d="M225.12154,105.9426c0,-6.47613 5.24994,-11.72608 11.72608,-11.72608c6.47613,0 11.72608,5.24994 11.72608,11.72608c0,6.47613 -5.24994,11.72608 -11.72608,11.72608c-6.47613,0 -11.72608,-5.24994 -11.72608,-11.72608z" fill-opacity="0.51373" fill="#ffd6ec" stroke="none" stroke-width="0"/><path d="M487.49093,189.20466l-4.70921,-32.49355l31.56516,-4.57466l4.70921,32.49355z" fill-opacity="0.51373" fill="#ffd6ec" stroke="none" stroke-width="0"/><path d="M380.18539,199.09094l19.93774,-41.74302l32.97396,25.23997l-19.93774,41.74302z" fill-opacity="0.51373" fill="#ffd6ec" stroke="none" stroke-width="0"/><path d="M-0.01918,231.17713v-105.06567l39.39962,9.38086l2.81426,71.29456z" fill-opacity="0.51373" fill="#ffd6ec" stroke="none" stroke-width="0"/><path d="M130.42735,393.09457c0,0 -95.94853,20.48185 -89.87271,-13.26903c2.07911,-11.54933 58.26162,-104.70909 61.79512,-104.82504c60.69026,-1.99156 538.06429,-58.40109 567.04665,-60.95954c0.90363,-0.07977 4.1829,13.95043 4.1829,13.95043l-6.5666,165.10319z" fill="#8f60bb" stroke="#3e0e6c" stroke-width="2.5"/><path d="M106.87468,238.55788c0.26866,-0.26179 16.34125,-7.32751 18.60458,-5.79191c1.2148,0.8242 10.09178,40.32743 10.17558,41.44473c0.89955,11.99448 -28.15634,17.00799 -29.0559,5.01352c0,0 -0.7087,-39.70706 0.27574,-40.66633z" fill="#80475d" stroke="#3e0e6c" stroke-width="2.5"/><g stroke="#3e0e6c" stroke-width="2.5"><path d="M112.85359,209.18168c29.90458,-3.8176 55.07969,0.39356 56.2302,9.4059c1.15051,9.01234 -22.15925,19.41306 -52.06383,23.23066c-29.90458,3.8176 -55.07969,-0.39355 -56.2302,-9.40589c-1.15051,-9.01234 22.15925,-19.41307 52.06383,-23.23067z" fill="#905c66"/><path d="M60.78976,232.41235c1.15051,9.01234 26.32562,13.22349 56.2302,9.40589c29.90458,-3.8176 53.21434,-14.21832 52.06383,-23.23066c-0.44605,-3.49407 2.01638,8.51719 -1.96598,14.6885c-6.28942,9.74651 -27.7304,15.63289 -46.04102,17.97042c-18.28322,2.33403 -40.56822,3.46524 -53.88141,-3.78122c-8.46226,-4.60607 -6.85272,-18.55526 -6.40561,-15.05293z" fill="#80475d"/></g><path d="M450.12355,386.52128c0,0 -65.49379,-52.87181 -66.139,-69.84341c-0.19813,-5.21159 243.42962,-24.95476 243.42962,-24.95476l2.66124,87.95693z" fill="#905c66" stroke="#3e0e6c" stroke-width="2.5"/><path d="M630.07541,379.68003c0,0 -168.96132,21.98835 -212.1952,20.149c-24.24625,-1.03153 -25.05803,-30.2427 -25.05803,-30.2427c0,0 -8.92303,-55.1549 -8.83763,-52.90845c0.64521,16.9716 66.139,69.84341 66.139,69.84341z" fill="#80475d" stroke="#3e0e6c" stroke-width="2.5"/><g><path d="M89.90819,225.56786c0.34432,-0.69764 19.53132,-13.16153 20.66503,-13.64245c1.08312,-0.45945 17.39515,0.19518 19.68122,0.24407c0.22089,0.00473 -0.19752,1.98697 -1.01824,3.10428c-3.21722,4.37984 -12.61638,13.94245 -13.92138,14.95677c-0.13248,0.10298 -14.97843,0.59663 -22.04356,-1.36529c-2.4631,-0.68398 -3.60397,-2.80926 -3.36307,-3.29738z" fill="#a47392" stroke="#3e0e6c" stroke-width="2.5"/><path d="M94.2629,224.63869c0.26376,-0.5344 15.28741,-11.0395 16.15586,-11.40788c0.82968,-0.35195 13.32494,0.14951 15.07609,0.18697c0.8325,0.01781 -9.86315,11.85953 -11.11781,12.83472c-0.13687,0.10638 -20.82801,-0.16739 -20.11414,-1.61381z" fill="#3e0e6c" stroke="none" stroke-width="0"/></g></g><path d="M239.92742,159.24243l-46.88672,-9.75244c0,0 0.76591,-16.63335 8.45431,-18.91004c6.36259,-1.88409 21.80914,-4.43259 22.06306,-4.81268c7.98685,-11.95565 28.93661,-38.26383 62.60832,-34.51318c57.62148,6.41839 154.21061,63.29126 208.94011,65.91543c62.36266,2.99016 122.31702,-63.98499 150.17034,-76.4462c7.7124,-3.45043 8.36859,4.68716 7.46676,12.28221c-0.63805,5.37355 -71.85003,84.63096 -156.92261,81.29863c-93.7669,-3.67289 -161.84019,-64.39673 -215.32866,-67.45761c-13.78863,1.57707 -22.59554,9.17537 -27.07629,14.09794c-0.98862,1.0861 14.23044,-0.17301 21.22627,0.34529c3.38516,0.25079 7.46368,12.12282 7.46368,12.12282z" fill="#3e0e6c" stroke="none" stroke-width="0" stroke-linecap="butt"/><g><path d="M511.17924,211.54839c-7.75682,-16.96335 -7.09126,-42.50355 -6.52615,-45.70239c2.1135,-11.96347 34.53886,-12.37132 49.77775,-12.58616c7.60999,2.53818 12.20358,23.36934 15.94903,40.05449c0.41408,1.8446 18.34004,10.38979 26.85211,16.97593c1.26156,1.23815 0.32245,7.86611 -2.01873,10.67483c-5.33395,6.39917 -17.94574,11.11019 -28.39129,16.24254c-5.34537,2.62642 -18.35651,2.24032 -23.91666,-0.05736c-11.2456,-4.64714 -26.25982,-13.64774 -31.72607,-25.60188z" fill="#ead4ff" stroke="#3e0e6c" stroke-width="2.5" stroke-linecap="butt"/><path d="M558.01951,207.09527c0.63934,-0.78914 4.25466,-0.867 4.7586,-0.42956c0.45178,0.39217 0.56172,4.82458 -0.11262,5.65693c-0.21546,0.26594 -3.27185,0.88107 -4.40739,-0.10463c-0.50738,-0.44043 -0.87562,-4.33644 -0.23858,-5.12273z" data-paper-data="{&quot;index&quot;:null}" fill="#7ec1a1" stroke="#552365" stroke-width="2.5" stroke-linecap="butt"/><path d="M553.30139,210.84557c0.63934,-0.78914 4.12753,-1.88404 4.63147,-1.4466c0.45178,0.39217 0.68885,5.84161 0.0145,6.67396c-0.21546,0.26594 -3.27184,0.88107 -4.40739,-0.10463c-0.50738,-0.44043 -0.87562,-4.33643 -0.23858,-5.12273z" data-paper-data="{&quot;index&quot;:null}" fill="#7ec1a1" stroke="#552365" stroke-width="2.5" stroke-linecap="butt"/><g stroke="#552365" stroke-width="2"><path d="M550.64759,208.10851c-2.59433,-3.65787 -3.64242,-8.49042 -3.79255,-9.48096c-0.56647,-3.73743 3.90742,-4.70099 4.38147,-4.65547c0.29437,0.02827 3.2391,12.35965 3.51579,12.64075c0.1897,0.19272 5.32324,3.85897 5.56044,4.37512c2.14012,4.65705 -8.99867,-1.93972 -9.66515,-2.87944z" fill="#7ec1a1" stroke-linecap="butt"/><path d="M553.88262,217.01757c0.14004,-1.45824 3.9286,-5.02437 4.76581,-4.94397c1.87373,0.17994 4.01013,3.97644 3.96276,4.46965c-0.14824,1.54365 -5.20329,6.8203 -5.94877,6.74871c-0.83154,-0.07985 -2.92033,-4.81086 -2.77979,-6.27438z" fill="#7ec1a1" stroke-linecap="butt"/><path d="M564.99882,207.57925c1.00206,0.05288 3.9945,2.15097 3.96772,2.78979c-0.024,0.57271 -4.07833,3.82872 -5.13525,3.77295c-0.3377,-0.01782 -2.69437,-2.0502 -2.63404,-3.48968c0.02696,-0.64318 2.80313,-3.12575 3.80156,-3.07306z" data-paper-data="{&quot;index&quot;:null}" fill="#7ec1a1" stroke-linecap="butt"/><g stroke-linecap="butt"><g fill="#f2b43a"><g><g><g data-paper-data="{&quot;index&quot;:null}"><path d="M524.50042,184.97485c0.09407,-2.4162 9.40129,-4.75152 10.15519,-4.68042c1.12389,0.10602 1.75666,3.95448 1.15855,7.6583c-0.11798,0.73059 -11.42005,-0.24777 -11.31374,-2.97788z"/></g><g data-paper-data="{&quot;index&quot;:null}"><path d="M552.51159,186.93381c-1.04813,-3.60336 -0.89234,-7.49994 0.21014,-7.74182c0.73951,-0.16225 10.26361,1.02392 10.65348,3.4106c0.44052,2.69674 -10.65686,5.042 -10.86361,4.33122z"/></g></g><g><g data-paper-data="{&quot;index&quot;:null}"><path d="M530.90809,198.56245c-1.62721,-1.77842 3.30625,-10.07152 3.88831,-10.55891c0.86771,-0.72661 4.01199,1.54776 6.18593,4.5977c0.42882,0.60162 -8.23562,7.97069 -10.07424,5.96121z"/></g><g data-paper-data="{&quot;index&quot;:null}"><path d="M552.0556,179.96893c-3.26568,-1.80448 -5.88701,-4.67545 -5.27827,-5.63318c0.40834,-0.64244 7.96328,-6.59606 9.91143,-5.18375c2.20125,1.59579 -3.98899,11.17288 -4.63317,10.81693z"/></g></g></g><g><g><g data-paper-data="{&quot;index&quot;:null}"><path d="M544.96133,203.70576c-2.39531,-0.09887 -4.72555,-9.49175 -4.6563,-10.25215c0.10325,-1.1336 3.91714,-1.76562 7.58968,-1.15617c0.72442,0.12022 -0.22687,11.52004 -2.93338,11.40832z"/></g><g data-paper-data="{&quot;index&quot;:null}"><path d="M546.85725,175.45157c-3.57024,1.05143 -7.43313,0.88788 -7.67471,-0.22468c-0.16205,-0.74629 0.99816,-10.35217 3.3634,-10.74154c2.67254,-0.43997 5.01557,10.75881 4.31131,10.96622z"/></g></g><g><g data-paper-data="{&quot;index&quot;:null}"><path d="M558.42007,197.26405c-1.76026,1.6386 -9.98921,-3.35183 -10.47332,-3.93981c-0.7217,-0.87653 1.52769,-4.04472 4.5475,-6.23277c0.59568,-0.4316 7.91477,8.3211 5.92582,10.17258z"/></g><g data-paper-data="{&quot;index&quot;:null}"><path d="M539.9538,175.90013c-1.78341,3.29144 -4.62504,5.93107 -5.57543,5.31542c-0.63751,-0.41298 -6.55168,-8.04411 -5.15488,-10.00707c1.57826,-2.21798 11.08209,4.04239 10.73031,4.69165z"/></g></g></g></g><g fill="#ffd03d"><g><g><g data-paper-data="{&quot;index&quot;:null}"><path d="M523.84151,176.22587c1.14352,-2.35607 11.40766,-0.55736 12.12595,-0.15338c1.07082,0.60225 0.02719,4.70105 -2.17679,8.11195c-0.43475,0.67282 -11.24124,-5.29639 -9.94916,-7.95856z"/></g><g data-paper-data="{&quot;index&quot;:null}"><path d="M550.8269,190.55777c0.52435,-4.03927 2.37252,-7.83706 3.57324,-7.58952c0.80543,0.16606 9.75472,5.55517 9.10496,8.09596c-0.73417,2.87089 -12.78162,0.29034 -12.67819,-0.50643z"/></g></g><g><g data-paper-data="{&quot;index&quot;:null}"><path d="M524.3044,192.54309c-0.84422,-2.48443 7.66251,-8.53209 8.45276,-8.75834c1.17809,-0.33729 3.31437,3.3102 4.14933,7.29819c0.1647,0.78665 -11.64819,4.26735 -12.60209,1.46015z"/></g><g data-paper-data="{&quot;index&quot;:null}"><path d="M553.40053,183.44462c-2.46116,-3.2349 -3.81848,-7.24312 -2.79732,-7.92429c0.68498,-0.45692 10.78018,-3.02371 12.10244,-0.76067c1.49406,2.55705 -8.81964,9.32306 -9.30512,8.68496z"/></g></g></g><g><g><g data-paper-data="{&quot;index&quot;:null}"><path d="M536.03495,203.86201c-2.33743,-1.15744 -0.57122,-11.50885 -0.17194,-12.23279c0.59524,-1.07924 4.66004,-0.01972 8.04485,2.20924c0.66768,0.43967 -5.23181,11.33136 -7.87291,10.02355z"/></g><g data-paper-data="{&quot;index&quot;:null}"><path d="M550.19771,176.66293c-4.00495,-0.53558 -7.77269,-2.40625 -7.52927,-3.61711c0.16328,-0.81223 5.49076,-9.83134 8.01048,-9.1717c2.84708,0.74534 0.30879,12.89445 -0.48121,12.78881z"/></g></g><g><g data-paper-data="{&quot;index&quot;:null}"><path d="M552.89189,203.27094c-2.46141,0.84756 -8.47034,-7.74387 -8.69592,-8.54143c-0.33628,-1.189 3.27592,-3.33808 7.2278,-4.17384c0.77953,-0.16486 4.24931,11.7576 1.46812,12.71527z"/></g><g data-paper-data="{&quot;index&quot;:null}"><path d="M543.82493,173.90412c-3.20268,2.47748 -7.17376,3.84016 -7.85068,2.80891c-0.45407,-0.69174 -3.01507,-10.87991 -0.77391,-12.21008c2.53233,-1.50299 9.25633,8.91247 8.62458,9.40117z"/></g></g></g></g><path d="M555.0273,176.64419c4.00472,5.83948 2.55055,13.92066 -3.24796,18.04982c-5.79851,4.12916 -13.7456,2.74267 -17.75032,-3.09681c-4.00472,-5.83948 -2.55056,-13.92066 3.24795,-18.04982c5.79851,-4.12916 13.74561,-2.74268 17.75032,3.0968z" fill="#ffa363"/></g><path d="M551.22284,188.11472c0,0 0.15735,2.8517 -0.27611,3.12462c-0.60014,0.37787 -2.99028,-1.068 -2.99028,-1.068" fill="none" stroke-linecap="round"/></g><g stroke-width="2" stroke-linecap="butt"><path d="M537.31205,186.29774c0,-2.60575 2.11238,-4.71812 4.71812,-4.71812c2.60574,0 4.71812,2.11237 4.71812,4.71812c0,2.60575 -2.11238,4.71812 -4.71812,4.71812c-2.60574,0 -4.71812,-2.11238 -4.71812,-4.71812z" fill="#ffffff" stroke="#552365"/><path d="M536.64667,192.22564c0,-0.67469 0.19115,-4.05274 0.5444,-4.05274c0.44601,0 4.2186,2.99384 3.69155,3.68921c-0.16998,0.22426 -4.23595,0.70699 -4.23595,0.36353z" fill="#552365" stroke="none"/></g><g data-paper-data="{&quot;index&quot;:null}" stroke-width="2" stroke-linecap="butt"><path d="M555.21899,183.12998c-0.481,2.13959 -2.47033,3.18714 -4.44327,2.33979c-1.97294,-0.84735 -3.18241,-3.26875 -2.7014,-5.40833c0.481,-2.13959 2.47033,-3.18714 4.44327,-2.33979c1.97294,0.84735 3.18241,3.26875 2.70141,5.40833z" fill="#ffffff" stroke="#552365"/><path d="M556.07155,182.46291c-0.62379,0.20664 -2.19419,-3.86461 -2.11185,-4.23083c0.06521,-0.29006 2.65819,0.6515 3.16904,0.8709c0.26005,0.11168 -0.856,3.29329 -1.05718,3.35993z" fill="#552365" stroke="none"/></g><path d="M539.32867,212.55881l28.45318,-15.77858" fill="none" stroke="#3e0e6c" stroke-width="2.5" stroke-linecap="round"/><path d="M559.66583,202.63212l-26.1252,14.22659" fill="none" stroke="#3e0e6c" stroke-width="2.5" stroke-linecap="round"/><path d="M543.7118,192.06716c0,0 -2.08722,0.49902 -2.87414,0.42907c-0.88364,-0.07855 -2.17124,-0.87755 -2.17124,-0.87755" fill="none" stroke="#552365" stroke-width="1.5" stroke-linecap="round"/></g><text transform="translate(283.04856,197.51851) rotate(-1.61701) scale(0.85494,0.90347) skewX(-2.28963)" font-size="40" xml:space="preserve" fill="#3e0e6c" fill-rule="nonzero" stroke="none" stroke-width="1" stroke-linecap="butt" stroke-linejoin="miter" stroke-miterlimit="10" stroke-dasharray="" stroke-dashoffset="0" font-family="&quot;Neon&quot;, Sans Serif" font-weight="normal" text-anchor="start" style="mix-blend-mode: normal"><tspan x="0" dy="0">OFFICE</tspan></text><path d="M77.67888,81.07125c-43.13955,52.79843 -110.17585,32.09333 -128.28405,35.17209c-2.81471,0.47855 -12.8815,25.81138 -13.57261,25.2467c-2.58658,-2.1134 14.14447,-51.24065 35.25578,-67.31237c20.81849,-15.84881 52.81406,13.27395 77.56257,-17.0157c34.13965,-41.78347 24.77987,-80.91749 48.23896,-129.50808c4.06803,-8.42608 18.00831,-8.2599 19.44779,-7.08375c5.13729,4.19748 11.19667,99.49578 -38.64843,160.50112z" fill="#3e0e6c" stroke="none" stroke-width="0" stroke-linecap="butt"/><path d="M43.75901,156.82373c-28.34243,62.01131 -98.43794,58.98028 -115.17373,66.54987c-2.60139,1.1766 -5.91592,28.23406 -6.72762,27.86307c-3.03793,-1.38849 0.68987,-53.15255 17.0362,-74.05196c16.1196,-20.60953 54.45383,-0.55114 70.71345,-36.12608c23.5719,-51.57369 6.20164,-121.42692 10.82202,-145.01463c1.79862,-9.1822 18.32846,-5.04857 20.01912,-4.27585c6.03371,2.75772 36.05851,93.40534 3.31057,165.05559z" fill="#3e0e6c" stroke="none" stroke-width="0" stroke-linecap="butt"/></g></g></svg>