<svg version="1.1" xmlns="http://www.w3.org/2000/svg" xmlns:xlink="http://www.w3.org/1999/xlink" width="93.79071" height="143.23088" viewBox="0,0,93.79071,143.23088"><defs><linearGradient x1="320.00002" y1="180.00011" x2="320.00002" y2="180.00011" gradientUnits="userSpaceOnUse" id="color-1"><stop offset="0" stop-color="#67497d"/><stop offset="1" stop-color="#553783"/></linearGradient></defs><g transform="translate(-304.83693,-139.68578)"><g data-paper-data="{&quot;isPaintingLayer&quot;:true}" fill-rule="nonzero" stroke-linejoin="miter" stroke-miterlimit="10" stroke-dasharray="" stroke-dashoffset="0" style="mix-blend-mode: normal"><path d="M347.42168,196.34481c1.68374,1.00774 -4.33876,26.69232 -7.08053,43.01529c-0.27956,1.66435 2.74204,10.474 2.64938,11.90761c-0.26112,4.03993 -3.12785,-0.22222 -3.12785,0.89131c0,6.49999 -2.49744,11.76927 -5.57819,11.76927c-3.08075,0 -5.57819,-5.26928 -5.57819,-11.76927c0,-6.49999 18.23056,-56.10439 18.71539,-55.81421z" data-paper-data="{&quot;index&quot;:null}" fill="#54002b" stroke="none" stroke-width="0" stroke-linecap="butt"/><path d="M371.25245,254.48701c0,6.49999 -2.83731,11.76927 -6.3373,11.76927c-3.5,0 -6.3373,-5.26928 -6.3373,-11.76927c0,-1.11354 -3.25685,3.14862 -3.55351,-0.89131c-0.10527,-1.43361 3.32752,-10.24326 3.00991,-11.90761c-3.11489,-16.32297 -9.95695,-42.00754 -8.04408,-43.01529c0.55082,-0.29018 21.26228,49.31422 21.26228,55.81421z" fill="#54002b" stroke="none" stroke-width="0" stroke-linecap="butt"/><path d="M345.97177,272.42359c-0.23109,2.78796 -6.93712,5.94176 -11.61404,6.30245c-8.5978,0.66307 -8.29635,-5.14972 -6.24285,-9.86366c1.55466,-3.56883 8.58899,-5.3936 8.6819,-6.01203c1.64657,-10.95908 5.11761,-40.00985 5.55054,-39.90275c1.19988,0.29684 4.20923,-6.44513 4.76208,-0.54225c0.77997,8.32778 -0.96976,47.99303 -1.13763,50.01824z" fill="#54002b" stroke="none" stroke-width="0" stroke-linecap="butt"/><path d="M351.68108,223.69868c0.55286,-5.90288 3.5622,0.83909 4.76208,0.54225c0.43293,-0.1071 3.90398,28.94366 5.55054,39.90274c0.05625,0.37439 5.2268,2.50257 7.89803,5.50654c1.74118,1.95806 1.3791,5.18081 1.42944,5.46148c0.7464,4.16208 -1.61478,8.31928 -8.95774,7.75299c-4.67692,-0.36068 -9.31363,-6.3598 -9.54472,-9.14777c-0.16787,-2.02521 -1.9176,-41.69045 -1.13763,-50.01823z" data-paper-data="{&quot;index&quot;:null}" fill="#54002b" stroke="none" stroke-width="0" stroke-linecap="butt"/><path d="M335.29797,223.44718c0,2.64285 4.24985,4.26798 13.32126,4.26798c9.07142,0 15.64925,-1.62513 15.64925,-4.26798c0,-0.66396 -5.44493,-4.09851 -8.01587,-8.88728c-5.75664,-10.72259 -9.31083,-27.19653 -10.4787,-27.19653c-0.85625,0 -0.00369,15.25221 -3.27689,25.91217c-1.19447,3.89008 -7.19905,10.09368 -7.19905,10.17163z" fill="#ff5971" stroke="#54002b" stroke-width="2.5" stroke-linecap="butt"/><path d="" data-paper-data="{&quot;index&quot;:null}" fill="#54002b" stroke="none" stroke-width="0" stroke-linecap="butt"/><path d="" fill="#54002b" stroke="none" stroke-width="0" stroke-linecap="butt"/><path d="" data-paper-data="{&quot;index&quot;:null}" fill="#54002b" stroke="none" stroke-width="0" stroke-linecap="butt"/><path d="" fill="#ff5971" stroke="#54002b" stroke-width="2.5" stroke-linecap="butt"/><g data-paper-data="{&quot;index&quot;:null}" stroke="#541287" stroke-width="2.5" stroke-linecap="butt"><path d="" fill="#e5c2ff"/><path d="" fill="#9951b7"/></g><path d="" fill="#725580" stroke="#541287" stroke-width="2.5" stroke-linecap="butt"/><path d="" fill="#6d3e90" stroke="none" stroke-width="0" stroke-linecap="butt"/><path d="" fill="#725580" stroke="none" stroke-width="0" stroke-linecap="butt"/><path d="" fill="#9857ca" stroke="none" stroke-width="0" stroke-linecap="butt"/><path d="" fill="none" stroke="#541287" stroke-width="2.5" stroke-linecap="butt"/><path d="" fill="#9468de" stroke="#541287" stroke-width="2.5" stroke-linecap="butt"/><path d="" fill="#e5c2ff" stroke="#541287" stroke-width="2.5" stroke-linecap="butt"/><g stroke-linecap="butt"><g stroke="#541287" stroke-width="2.5"><path d="" fill="#9d7bb5"/><path d="" fill="#9d7bb5"/><path d="" fill="url(#color-1)"/></g><path d="" fill="#541287" stroke="none" stroke-width="0"/><path d="" fill="#ca80ff" stroke="#541287" stroke-width="2.5"/></g><g stroke="#541287" stroke-width="2.5" stroke-linecap="butt"><path d="" fill="#e5c2ff"/><path d="" fill="#9951b7"/></g><path d="" fill="#ff8dae" stroke="#54002b" stroke-width="2.5" stroke-linecap="butt"/><path d="" data-paper-data="{&quot;index&quot;:null}" fill="#ff8dae" stroke="#54002b" stroke-width="2.5" stroke-linecap="butt"/><path d="" fill="#ff8dae" stroke="#54002b" stroke-width="2.5" stroke-linecap="butt"/><g data-paper-data="{&quot;index&quot;:null}" fill="#54002b" stroke="none" stroke-width="0" stroke-linecap="butt"><path d=""/><path d=""/></g><g data-paper-data="{&quot;index&quot;:null}" fill="#54002b" stroke="none" stroke-width="0" stroke-linecap="butt"><path d=""/><path d=""/></g><path d="" fill="#54002b" stroke="none" stroke-width="0" stroke-linecap="butt"/><path d="" fill="none" stroke="#54002b" stroke-width="2.5" stroke-linecap="round"/><path d="" fill="none" stroke="none" stroke-width="NaN" stroke-linecap="butt"/><path d="M358.7808,173.07617c0,17.60633 14.05372,31.61778 22.98782,31.61778c8.9341,0 15.60902,-14.27275 15.60902,-31.87909c0,-17.60633 -6.67492,-31.87908 -15.60902,-31.87908c-8.9341,0 -22.98782,14.53405 -22.98782,32.14039z" fill="#ff8dae" stroke="#54002b" stroke-width="2.5" stroke-linecap="butt"/><path d="M334.86634,175.94906c-1.22678,16.50464 -12.60771,27.20642 -19.22206,25.65978c-6.61435,-1.54664 -10.5616,-16.08181 -9.33482,-32.58645c1.22678,-16.50464 7.16304,-28.72875 13.77738,-27.18212c6.61435,1.54664 16.00628,17.60415 14.7795,34.10878z" data-paper-data="{&quot;index&quot;:null}" fill="#ff8dae" stroke="#54002b" stroke-width="2.5" stroke-linecap="butt"/><path d="M322.31083,173.40313c0,-13.76702 11.16037,-24.9274 24.92739,-24.9274c13.76702,0 24.92739,11.16038 24.92739,24.9274c0,13.76702 -11.16037,24.92739 -24.92739,24.92739c-13.76702,0 -24.92739,-11.16037 -24.92739,-24.92739z" fill="#ff8dae" stroke="#54002b" stroke-width="2.5" stroke-linecap="butt"/><g data-paper-data="{&quot;index&quot;:null}" fill="#54002b" stroke="none" stroke-width="0" stroke-linecap="butt"><path d="M352.54266,182.00679c-0.04909,7.55563 -2.8874,13.66249 -6.33954,13.64006c-3.45214,-0.02243 -6.21085,-6.16565 -6.16176,-13.72128c0.04909,-7.55563 2.8874,-13.66247 6.33954,-13.64004c3.45214,0.02243 6.21085,6.16564 6.16176,13.72127z"/><path d="M346.16565,183.26273c-0.02413,3.71267 -2.05015,6.70935 -4.52527,6.69326c-1.46636,-0.00953 -4.44775,-5.23837 -4.43792,-6.75151c0.01671,-2.57064 3.76391,-6.69823 4.52528,-6.69327c2.47512,0.01608 4.46204,3.03884 4.43792,6.75151z"/></g><g data-paper-data="{&quot;index&quot;:null}" fill="#54002b" stroke="none" stroke-width="0" stroke-linecap="butt"><path d="M355.05098,180.71347c-0.04909,-7.55563 2.70962,-13.69884 6.16176,-13.72127c3.45214,-0.02243 6.29045,6.08442 6.33954,13.64005c0.04909,7.55563 -2.70962,13.69884 -6.16176,13.72127c-3.45214,0.02243 -6.29045,-6.08443 -6.33954,-13.64006z"/><path d="M365.86591,175.21788c0.76137,-0.00496 4.50857,4.12264 4.52528,6.69328c0.00983,1.51314 -2.97156,6.74197 -4.43792,6.7515c-2.47512,0.01609 -4.50115,-2.98058 -4.52528,-6.69326c-0.02412,-3.71267 1.9628,-6.73544 4.43792,-6.75152z"/></g><path d="M325.21003,168.22213l28.45318,-7.50129" fill="none" stroke="#54002b" stroke-width="2.5" stroke-linecap="round"/><path d="M339.43662,188.13936c0,0 0.21418,1.77514 1.02742,2.94982c0.72967,1.05398 3.62855,3.77548 3.62855,3.77548" fill="none" stroke="#54002b" stroke-width="2.5" stroke-linecap="round"/></g></g></svg>