<svg version="1.1" xmlns="http://www.w3.org/2000/svg" xmlns:xlink="http://www.w3.org/1999/xlink" width="171.22683" height="181.81818" viewBox="0,0,171.22683,181.81818"><g transform="translate(-145.04634,-148.6143)"><g data-paper-data="{&quot;isPaintingLayer&quot;:true}" fill-rule="nonzero" stroke-linejoin="miter" stroke-miterlimit="10" stroke-dasharray="" stroke-dashoffset="0" style="mix-blend-mode: normal"><g stroke-linecap="butt"><path d="M211.16503,304.22271c1.64263,-0.07913 6.64988,-49.0542 7.19174,-48.93759c1.40392,0.30213 3.8251,-1.58622 4.55235,5.28426c0.2643,2.49689 -0.22455,56.98521 -0.26358,57.2102c-0.73385,4.23024 -24.15866,5.08231 -24.3657,0.78427c-0.22618,-4.69519 4.60892,-13.94246 12.88519,-14.34114z" data-paper-data="{&quot;index&quot;:null}" fill="#54002b" stroke="none" stroke-width="0"/><path d="M211.76175,301.12057c-3.57068,2.7064 -8.85745,-2.18359 -7.36091,-12.37021c2.38272,-16.21862 16.9235,-56.86201 19.52474,-56.47985c1.61577,0.23737 -3.94344,23.98548 -7.39226,44.56358c-0.25724,1.53485 2.12837,8.45808 1.57323,11.65544c-0.43095,2.4821 -4.30826,3.82715 -4.4684,4.62617c-0.92577,4.61915 -1.4475,7.67979 -1.87641,8.00488z" data-paper-data="{&quot;index&quot;:null}" fill="#54002b" stroke="none" stroke-width="0"/><path d="M256.59018,319.32028c0.22618,4.69519 -6.19265,7.44379 -14.46892,7.84247c-7.63127,0.36761 -7.02772,-7.78106 -8.16478,-11.92117c-0.06047,-0.2202 -6.8724,-53.60576 -6.84932,-56.1165c0.06349,-6.90858 2.65497,-5.26169 4.02335,-5.69737c0.52814,-0.16816 10.75681,51.45274 12.39944,51.37361c8.27627,-0.39868 12.83406,9.82378 13.06024,14.51897z" data-paper-data="{&quot;index&quot;:null}" fill="#54002b" stroke="none" stroke-width="0"/><path d="M243.84618,257.27022c0.07379,1.53191 -3.24792,3.83216 -12.29532,4.22382c-9.35068,0.40478 -18.4873,-1.73419 -18.56357,-3.31745c-0.04178,-0.86723 3.65237,-4.75497 6.429,-12.08885c5.24302,-13.84835 3.8875,-24.35297 5.37197,-24.42447c0.20487,-0.00987 2.80802,-1.76125 3.41508,1.38147c0.52007,2.69241 1.72765,11.06871 5.46899,18.8603c3.82053,7.9565 10.17087,15.30328 10.17385,15.3652z" data-paper-data="{&quot;index&quot;:null}" fill="#ff5971" stroke="#54002b" stroke-width="2.5"/><path d="M237.36331,292.13333c-0.13405,-0.80381 -3.96552,-2.27436 -4.31545,-4.76916c-0.45076,-3.21373 2.15892,-10.05565 1.95177,-11.59805c-2.77719,-20.67945 -7.56047,-44.59594 -5.93783,-44.78059c2.61231,-0.29728 15.82247,40.79787 17.67602,57.08545c1.16419,10.22994 -4.27896,14.94526 -7.75965,12.12407c-0.41809,-0.33888 -0.83995,-3.41489 -1.61487,-8.06171z" data-paper-data="{&quot;index&quot;:null}" fill="#54002b" stroke="none" stroke-width="0"/></g><path d="M261.03149,156.85484c9.89501,0.16641 21.83577,17.99494 21.45123,40.86025c-0.38455,22.86531 -9.77169,41.24868 -19.6667,41.08226c-9.89501,-0.16641 -33.20116,-16.05454 -32.81662,-38.91985c0.38455,-22.86531 21.13708,-43.18907 31.03209,-43.02266z" data-paper-data="{&quot;index&quot;:null}" fill="#ff8dae" stroke="#54002b" stroke-width="2.5" stroke-linecap="butt"/><path d="M220.73679,199.61899c1.78934,20.97163 -17.30976,37.59218 -25.83797,38.60482c-8.52821,1.01264 -17.80056,-15.05947 -19.5899,-36.03109c-1.78934,-20.97163 7.3784,-38.38719 15.90661,-39.39983c8.52821,-1.01264 27.73192,15.85447 29.52126,36.8261z" data-paper-data="{&quot;index&quot;:null}" fill="#ff8dae" stroke="#54002b" stroke-width="2.5" stroke-linecap="butt"/><path d="M226.08382,228.73986c-16.89679,-0.28417 -30.36398,-14.21209 -30.07981,-31.10888c0.28417,-16.89679 14.21209,-30.36398 31.10888,-30.07981c16.89679,0.28417 30.36398,14.21209 30.07981,31.10888c-0.28417,16.89679 -14.21209,30.36398 -31.10888,30.07981z" data-paper-data="{&quot;index&quot;:null}" fill="#ff8dae" stroke="#54002b" stroke-width="2.5" stroke-linecap="butt"/><g data-paper-data="{&quot;index&quot;:null}" fill="#54002b" stroke="none" stroke-width="0" stroke-linecap="butt"><path d="M221.55652,202.55985c-0.05605,8.62705 -3.29685,15.59989 -7.23852,15.57428c-3.94167,-0.02561 -7.09157,-7.03997 -7.03552,-15.66702c0.05605,-8.62705 3.29684,-15.59987 7.23851,-15.57426c3.94167,0.02561 7.09158,7.03996 7.03553,15.66701z"/><path d="M214.27522,203.99388c-0.02755,4.23915 -2.34088,7.66077 -5.16698,7.6424c-1.67429,-0.01088 -5.07846,-5.98119 -5.06724,-7.7089c0.01907,-2.93516 4.29765,-7.64807 5.16698,-7.64241c2.8261,0.01836 5.09478,3.46976 5.06724,7.70891z"/></g><g data-paper-data="{&quot;index&quot;:null}" fill="#54002b" stroke="none" stroke-width="0" stroke-linecap="butt"><path d="M232.92322,191.13956c3.92899,0.02223 7.06478,6.64635 7.00398,14.79537c-0.0608,8.14902 -3.29515,14.73709 -7.22413,14.71485c-3.92899,-0.02223 -7.06479,-6.64635 -7.00399,-14.79537c0.0608,-8.14902 3.29516,-14.73709 7.22414,-14.71485z"/><path d="M238.09167,200.07313c0.86654,0.00491 5.06725,4.5067 5.04656,7.27922c-0.01218,1.63198 -3.48584,7.23093 -5.15474,7.22149c-2.81701,-0.01594 -5.07644,-3.27496 -5.04656,-7.27922c0.02988,-4.00426 2.33773,-7.23743 5.15474,-7.22149z"/></g><path d="M222.77253,225.57673c0,0 4.49236,0.07327 6.4343,0.46166c1.79789,0.35958 4.81851,1.7889 4.81851,1.7889" fill="none" stroke="#54002b" stroke-width="2.5" stroke-linecap="round"/><path d="M226.14838,179.81529l-30.3826,4.50113" fill="none" stroke="#54002b" stroke-width="2.5" stroke-linecap="round"/><path d="M145.04634,330.43248v-181.81818h171.22683v181.81818z" fill="none" stroke="none" stroke-width="0" stroke-linecap="butt"/></g></g></svg>