<svg version="1.1" xmlns="http://www.w3.org/2000/svg" xmlns:xlink="http://www.w3.org/1999/xlink" width="143.72009" height="307.18608" viewBox="0,0,143.72009,307.18608"><defs><linearGradient x1="309.16965" y1="136.96068" x2="262.28621" y2="232.47671" gradientUnits="userSpaceOnUse" id="color-1"><stop offset="0" stop-color="#55389c"/><stop offset="1" stop-color="#3c50a8"/></linearGradient><linearGradient x1="344.58582" y1="146.61235" x2="352.97343" y2="252.68317" gradientUnits="userSpaceOnUse" id="color-2"><stop offset="0" stop-color="#55389c"/><stop offset="1" stop-color="#3c50a8"/></linearGradient><linearGradient x1="307.1853" y1="143.72705" x2="271.27762" y2="244.60802" gradientUnits="userSpaceOnUse" id="color-3"><stop offset="0" stop-color="#55389c"/><stop offset="1" stop-color="#3c50a8"/></linearGradient><linearGradient x1="328.10046" y1="144.93535" x2="319.37459" y2="209.30095" gradientUnits="userSpaceOnUse" id="color-4"><stop offset="0" stop-color="#55389c"/><stop offset="1" stop-color="#3c50a8"/></linearGradient><linearGradient x1="297.46765" y1="101.92494" x2="342.5844" y2="108.03257" gradientUnits="userSpaceOnUse" id="color-5"><stop offset="0" stop-color="#887aff"/><stop offset="1" stop-color="#e27aff"/></linearGradient><linearGradient x1="372.86611" y1="112.03298" x2="333.0644" y2="107.01377" gradientUnits="userSpaceOnUse" id="color-6"><stop offset="0" stop-color="#887aff"/><stop offset="1" stop-color="#e27aff"/></linearGradient></defs><g transform="translate(-258.88802,-28.02275)"><g data-paper-data="{&quot;isPaintingLayer&quot;:true}" fill-rule="nonzero" stroke-linejoin="miter" stroke-miterlimit="10" stroke-dasharray="" stroke-dashoffset="0" style="mix-blend-mode: normal"><path d="" data-paper-data="{&quot;index&quot;:null}" fill="url(#color-1)" stroke="#250077" stroke-width="2.5" stroke-linecap="butt"/><g><path d="M318.94471,205.89315c1.58276,-4.18441 14.4962,-4.62731 16.33114,-4.58744c1.88518,0.04098 -0.61331,97.97499 -0.63361,99.00386c-0.04671,2.36699 0.27864,6.9151 -2.35072,8.99667c-9.3175,7.37635 -32.26283,9.09248 -32.03674,-2.3631c0.25931,-13.13989 17.515,-97.94383 18.68993,-101.05z" data-paper-data="{&quot;index&quot;:null}" fill="#3b276d" stroke="#250077" stroke-width="2.5" stroke-linecap="butt"/><path d="M309.11573,306.50115c3.11743,-0.81573 8.67989,-0.78943 12.63044,-0.34427c11.19924,1.26198 20.89216,0.99138 19.79001,9.74391c-0.02808,0.22297 -0.80558,6.55287 -0.84788,6.77946c-1.70226,9.12215 -42.37796,3.79408 -40.81178,-4.59883c1.1167,-5.9842 3.29407,-10.02465 9.23917,-11.58027z" data-paper-data="{&quot;index&quot;:null}" fill="#6770bb" stroke="#250077" stroke-width="2.5" stroke-linecap="butt"/><path d="M304.80494,201.35711c2.06152,-4.31924 14.94174,-3.17448 16.75994,-2.90081c1.86798,0.28118 -12.06289,105.7127 -12.20334,106.82108c-0.32312,2.54992 -0.53159,7.50169 -3.38698,9.41882c-10.11849,6.79367 -33.11343,5.76286 -31.54964,-6.57804c1.79371,-14.15538 28.84971,-103.55481 30.38002,-106.76106z" data-paper-data="{&quot;index&quot;:null}" fill="#3b276d" stroke="#250077" stroke-width="2.5" stroke-linecap="butt"/><path d="M283.27923,308.75459c3.19227,-0.48897 8.71505,0.23851 12.58756,1.21569c10.97799,2.77019 20.63876,3.69623 18.52067,13.00837c-0.05396,0.23724 -1.56633,6.9743 -1.63483,7.21366c-2.75747,9.63582 -42.54259,-1.22945 -40.00555,-10.09499c1.80892,-6.32118 4.4443,-10.41024 10.53214,-11.34275z" data-paper-data="{&quot;index&quot;:null}" fill="#6770bb" stroke="#250077" stroke-width="2.5" stroke-linecap="butt"/><path d="M392.51073,170.08742c-3.79304,8.85922 -14.67191,12.69979 -21.70961,9.68662c-5.51462,-2.36106 -6.22338,-5.39892 -5.35579,-12.32967c0.23962,-1.91421 1.12279,-12.1508 2.2339,-13.43232c1.53605,-1.77165 3.33175,-3.26649 4.93086,-4.44773c1.12317,-0.82967 -4.03189,-9.88406 -2.95381,-16.96168c0.34639,-2.27409 2.79225,-6.85894 6.56897,-7.83751c3.04106,-0.78796 6.58312,3.10258 6.68034,4.27753c0.54718,6.61326 1.77814,16.15367 2.25736,16.35885c1.95009,0.83492 1.65325,-9.91039 6.66079,-15.32131c1.53524,-1.65891 5.16373,-2.88749 8.03278,-2.33415c1.603,0.30917 1.93546,4.82239 1.51114,8.23287c-0.10154,0.8161 0.08027,1.85606 -0.15008,2.42995c-1.48671,3.70403 -3.4402,9.20997 -5.25869,13.88743c-1.40698,3.61899 0.91829,7.31282 0.08566,10.07534c-0.52033,1.72634 -3.26067,7.0778 -3.53382,7.71578z" data-paper-data="{&quot;index&quot;:null}" fill="#c2bfff" stroke="#250077" stroke-width="2.5" stroke-linecap="butt"/><path d="M263.93653,142.98474c-0.59088,-2.82412 2.0448,-6.30327 0.95572,-10.03027c-1.40762,-4.81707 -2.87816,-10.47118 -4.03933,-14.2898c-0.1799,-0.59165 0.09106,-1.61201 0.0604,-2.43383c-0.12811,-3.43439 0.593,-7.90202 2.21671,-8.07155c2.90613,-0.30343 6.41492,1.23402 7.80111,3.01935c4.52139,5.82329 3.2974,16.50278 5.31232,15.83945c0.49514,-0.16301 2.54569,-9.56142 3.66212,-16.10268c0.19835,-1.16216 4.06327,-4.73217 7.0249,-3.68444c3.67806,1.30117 5.7187,6.08017 5.86735,8.37568c0.46263,7.14429 -5.45534,15.7195 -4.40804,16.6431c1.4911,1.31497 3.15094,2.95935 4.5282,4.85707c0.99624,1.37271 0.99181,11.64733 1.06517,13.57508c0.26562,6.97978 -0.70293,9.94507 -6.40089,11.82091c-7.27169,2.39393 -17.77812,-2.37208 -20.79166,-11.52585c-0.21702,-0.65919 -2.48481,-6.22738 -2.85406,-7.99221z" data-paper-data="{&quot;index&quot;:null}" fill="#c2bfff" stroke="#250077" stroke-width="2.5" stroke-linecap="butt"/><path d="M292.52615,97.81678c-0.0459,-0.88875 -1.82134,-2.91596 -1.71191,-4.35833c0.75759,-9.98533 4.02942,-32.53571 5.41336,-40.10928c0.526,-2.87855 25.0472,-24.43168 27.01565,-24.07197c0.14725,0.02691 -0.65249,12.59186 -0.62634,27.63884c0.03462,19.91842 0.86596,43.69735 0.86596,43.69735c0,0 -30.88864,-1.47818 -30.95674,-2.79661z" data-paper-data="{&quot;index&quot;:null}" fill="#947aff" stroke="#250077" stroke-width="2.5" stroke-linecap="butt"/><path d="M339.97005,105.20094c0,0 8.00815,-22.40532 14.08559,-41.37395c4.59109,-14.32949 7.64206,-26.5446 7.79054,-26.52556c1.98479,0.25461 18.8091,28.2326 18.43677,31.13503c-0.9796,7.6364 -4.70525,30.11627 -7.01356,39.86063c-0.33344,1.40755 -2.64032,2.80039 -2.95376,3.63331c-0.46496,1.23559 -30.3456,-6.72945 -30.3456,-6.72945z" data-paper-data="{&quot;index&quot;:null}" fill="#947aff" stroke="#250077" stroke-width="2.5" stroke-linecap="butt"/><path d="M333.02502,147.58625c2.75709,-0.23225 20.93764,29.17884 21.24109,34.41045c0.25369,4.37358 -4.90487,11.59938 -4.10323,11.21374c2.47883,-1.19249 8.19407,-25.60553 13.28621,-38.51346c1.29858,-3.29174 17.80753,4.37247 25.01433,17.61005c2.12516,3.90353 0.8432,12.72279 0.81654,16.64183c-0.00838,1.23213 -34.58938,37.30508 -38.59415,35.70628c-7.90161,-3.15452 -20.8361,-32.01572 -21.08195,-34.59968c-2.71513,-28.53801 -1.21087,-42.07898 3.42115,-42.46919z" data-paper-data="{&quot;index&quot;:null}" fill="url(#color-2)" stroke="#250077" stroke-width="2.5" stroke-linecap="butt"/><path d="M318.61331,147.47875c3.28303,1.07778 3.19297,8.32492 -0.85272,22.30403c-1.22443,4.23081 -12.93483,34.17615 -23.1721,46.23987c-1.53871,1.81324 -14.52947,-10.95883 -21.54552,-25.43543c-7.1797,-14.81424 -13.05879,-31.36918 -12.90189,-31.97485c0.98667,-3.80901 1.92054,-8.75119 5.07719,-12.02273c10.70476,-11.09435 32.45217,-1.961 32.91277,1.54815c0.71218,5.42581 0.15956,32.51689 -0.34112,35.77234c-0.74516,4.84512 1.06347,-18.58559 1.85901,-17.94839c0.71015,0.5688 17.84785,-18.84957 18.96441,-18.48302z" data-paper-data="{&quot;index&quot;:null}" fill="url(#color-3)" stroke="#250077" stroke-width="2.5" stroke-linecap="butt"/><path d="M314.88166,148.8101c2.6371,-2.80384 6.84116,-4.56818 10.72091,-4.20227c4.58077,0.43202 8.40348,3.19539 10.4307,6.01242c1.11874,1.5546 2.55321,15.51254 2.08013,20.75659c-0.06375,0.70669 -3.4125,13.7648 -3.74956,13.85811c-0.09944,0.02752 1.69547,12.67357 2.38192,19.11929c0.28864,2.71034 -2.68848,5.34442 -7.82402,6.0348c-3.99194,0.53664 -22.91534,-5.5256 -24.82856,-5.83687c-2.4792,-0.40335 4.02578,-20.47588 4.22786,-22.48988c0.33713,-3.36005 1.36813,-10.04113 2.13834,-16.2462c0,0 3.02915,-15.52478 4.42228,-17.00601z" data-paper-data="{&quot;index&quot;:null}" fill="url(#color-4)" stroke="#250077" stroke-width="2.5" stroke-linecap="butt"/><path d="M328.9543,131.94545c4.10347,0.5563 6.67532,6.5741 5.74438,13.44114c-0.93094,6.86703 -15.79093,4.8525 -14.85999,-2.01453c0.93094,-6.86704 5.01215,-11.98291 9.11561,-11.42661z" data-paper-data="{&quot;index&quot;:null}" fill="#c2bfff" stroke="#250077" stroke-width="2.5" stroke-linecap="butt"/><path d="M293.11641,91.6563c4.1129,-22.50762 25.69309,-37.4195 48.20071,-33.3066c22.50762,4.1129 37.4195,25.69309 33.3066,48.20071c-4.1129,22.50762 -25.69309,37.4195 -48.20071,33.3066c-22.50762,-4.1129 -37.4195,-25.69309 -33.3066,-48.20071z" data-paper-data="{&quot;index&quot;:null}" fill="#c2bfff" stroke="#250077" stroke-width="2.5" stroke-linecap="butt"/><path d="M310.35361,46.41613c1.07374,-5.87602 16.32277,-8.01202 34.05964,-4.7709c17.73687,3.24112 31.24502,10.63202 30.17128,16.50803c-1.07374,5.87602 -16.32277,8.01202 -34.05964,4.7709c-17.73687,-3.24112 -31.24502,-10.63202 -30.17128,-16.50802zM340.68418,60.18002c14.17732,2.59067 26.36605,0.88333 27.22431,-3.81344c0.85826,-4.69677 -9.93896,-10.60441 -24.11628,-13.19508c-14.17732,-2.59067 -26.36605,-0.88333 -27.22431,3.81343c-0.85826,4.69677 9.93896,10.60442 24.11628,13.19509z" data-paper-data="{&quot;index&quot;:null}" fill="#7ae7ff" stroke="#250077" stroke-width="2.5" stroke-linecap="butt"/><g data-paper-data="{&quot;index&quot;:null}" stroke-width="2" stroke-linecap="butt"><path d="M302.59263,109.96297c-0.17822,1.46685 -0.69425,7.87344 -2.75979,7.59381c-0.62725,-0.08493 -7.08785,-7.13256 -6.74886,-9.92256c0.20674,-1.70152 1.8119,-4.91007 3.62236,-4.66499c3.66002,0.49546 6.29539,3.62665 5.88629,6.99373z" fill="#250077" stroke="none"/><path d="M297.46765,101.92494c0.07864,-0.64714 28.42934,3.51192 38.55462,5.13924c2.20564,0.35449 -0.02577,12.30423 -4.47758,15.9131c-3.69958,2.9991 -8.50581,4.50806 -14.16026,3.74259c-12.45867,-1.68658 -21.37569,-12.78761 -19.91679,-24.7949z" fill="url(#color-5)" stroke="#250077"/><path d="M307.87272,103.36165c0.05322,-0.43798 18.09369,1.71798 18.04547,2.1149c-0.81079,6.67305 -5.74317,11.83195 -11.07118,11.11066c-5.32803,-0.72127 -7.78506,-6.55247 -6.97427,-13.22553z" fill="#ffffff" stroke="#250077"/></g><g data-paper-data="{&quot;index&quot;:null}" stroke-width="2" stroke-linecap="butt"><path d="M373.14709,113.76485c1.59715,0.20142 2.22134,3.61655 2.00395,5.2735c-0.35647,2.71692 -7.48288,7.83015 -8.03624,7.76036c-1.8222,-0.22978 -0.78038,-6.40578 -0.59297,-7.83421c0.4302,-3.27887 3.39643,-5.60681 6.62528,-5.19964z" fill="#250077" stroke="none"/><path d="M372.86611,112.03303c-1.53413,11.69273 -11.68768,20.04797 -22.67865,18.66195c-4.98834,-0.62906 -8.72916,-3.20403 -11.18388,-6.92214c-2.95385,-4.47411 -2.09032,-16.2972 -0.13161,-16.10464c8.99178,0.88396 34.07682,3.73461 33.99414,4.36479z" fill="url(#color-6)" stroke="#250077"/><path d="M360.29419,110.63285c-0.85259,6.49826 -5.13606,11.23153 -9.83639,10.63881c-4.70034,-0.59273 -6.85996,-6.458 -6.00736,-12.95622c0.05071,-0.38652 15.89974,1.8909 15.84377,2.31741z" fill="#ffffff" stroke="#250077"/></g><path d="M349.8572,133.5218c0,0 -4.19516,2.04578 -10.0901,3.0542c-3.27516,0.56026 -7.12132,-1.9799 -11.01787,-2.5888c-4.17159,-0.65188 -7.27293,1.05646 -11.04116,-0.84816c-5.24186,-2.64944 -8.32889,-5.62805 -8.32889,-5.62805" data-paper-data="{&quot;index&quot;:null}" fill="none" stroke="#250077" stroke-width="2.5" stroke-linecap="round"/><g data-paper-data="{&quot;index&quot;:null}"><g fill="none" stroke="#fdf7ff" stroke-width="2" stroke-linecap="round"><path d="M313.79983,171.49101l9.88902,2.0281"/><path d="M329.87952,168.92945c0,0 2.77663,-2.36147 5.35731,-2.22295c2.60055,0.13954 3.22879,2.57637 3.22879,2.57637"/><path d="M313.83649,182.25292l20.54055,3.40406"/></g><path d="M318.02972,175.39508c0.09274,-0.6841 0.65016,-1.17329 1.24505,-1.09265c0.59488,0.08065 1.00195,0.70059 0.90921,1.38469c-0.09274,0.6841 -0.65016,1.17329 -1.24505,1.09265c-0.59488,-0.08065 -1.00195,-0.70059 -0.90921,-1.38469z" fill="#ffffff" stroke="none" stroke-width="0.5" stroke-linecap="butt"/><path d="M331.44344,175.28744c0.09274,-0.6841 0.65016,-1.17329 1.24505,-1.09265c0.59488,0.08065 1.00195,0.70059 0.90921,1.38469c-0.09274,0.6841 -0.65016,1.17329 -1.24505,1.09265c-0.59488,-0.08065 -1.00195,-0.70059 -0.90921,-1.38469z" fill="#ffffff" stroke="none" stroke-width="0.5" stroke-linecap="butt"/></g></g></g></g></svg>