<svg version="1.1" xmlns="http://www.w3.org/2000/svg" xmlns:xlink="http://www.w3.org/1999/xlink" width="214.71471" height="247.74775" viewBox="0,0,214.71471,247.74775"><defs><linearGradient x1="320" y1="180.00005" x2="320" y2="180.00005" gradientUnits="userSpaceOnUse" id="color-1"><stop offset="0" stop-color="#67497d"/><stop offset="1" stop-color="#553783"/></linearGradient><linearGradient x1="417.68506" y1="180.13622" x2="417.68506" y2="197.28621" gradientUnits="userSpaceOnUse" id="color-2"><stop offset="0" stop-color="#67497d"/><stop offset="1" stop-color="#553783"/></linearGradient></defs><g transform="translate(-328.25826,-88.40843)"><g data-paper-data="{&quot;isPaintingLayer&quot;:true}" fill-rule="nonzero" stroke-linecap="butt" stroke-linejoin="miter" stroke-miterlimit="10" stroke-dasharray="" stroke-dashoffset="0" style="mix-blend-mode: normal"><g data-paper-data="{&quot;index&quot;:null}" stroke="#541287" stroke-width="2.5"><path d="" fill="#e5c2ff"/><path d="" fill="#9951b7"/></g><path d="" fill="#725580" stroke="#541287" stroke-width="2.5"/><path d="" fill="#6d3e90" stroke="none" stroke-width="0"/><path d="" fill="#725580" stroke="none" stroke-width="0"/><path d="" fill="#9857ca" stroke="none" stroke-width="0"/><path d="" fill="none" stroke="#541287" stroke-width="2.5"/><path d="" fill="#9468de" stroke="#541287" stroke-width="2.5"/><path d="" fill="#e5c2ff" stroke="#541287" stroke-width="2.5"/><g><g stroke="#541287" stroke-width="2.5"><path d="" fill="#9d7bb5"/><path d="" fill="#9d7bb5"/><path d="" fill="url(#color-1)"/></g><path d="" fill="#541287" stroke="none" stroke-width="0"/><path d="" fill="#ca80ff" stroke="#541287" stroke-width="2.5"/></g><g stroke="#541287" stroke-width="2.5"><path d="" fill="#e5c2ff"/><path d="" fill="#9951b7"/></g><path d="M423.85469,231.35473c8.83046,0 15.98895,3.04899 15.98895,6.81011c0,3.76112 -7.1585,6.81011 -15.98895,6.81011c-8.83046,0 -15.98895,-3.04899 -15.98895,-6.81011c0,-3.76112 7.1585,-6.81011 15.98895,-6.81011z" fill-opacity="0.47451" fill="#541287" stroke="none" stroke-width="0"/><path d="M414.19784,222.99896c0.9737,-6.62742 3.69716,-22.49276 4.87022,-22.67926c1.95856,-0.31138 1.70144,11.03342 2.91236,18.65c1.21092,7.61659 -7.99046,5.44422 -7.78258,4.02926z" data-paper-data="{&quot;index&quot;:null}" fill="#9951b7" stroke="#541287" stroke-width="2.5"/><path d="M418.79099,211.86655c0.18704,0 3.30824,-2.63454 4.24403,1.41776c1.36898,5.9282 -0.56486,18.30182 -0.51034,23.72433c0.00281,0.27953 -6.56078,0.65104 -6.56078,-0.87992c0,0 1.99854,-24.26216 2.82709,-24.26216z" fill="#725580" stroke="#541287" stroke-width="2.5"/><path d="M422.49826,238.11804c0,2.73234 -11.01181,2.89193 -11.01181,0.15959c0,-2.73234 1.47415,-5.10693 4.86754,-5.10693c3.39339,0 6.14427,2.215 6.14427,4.94734z" fill="#683980" stroke="#541287" stroke-width="2.5"/><path d="M425.5305,219.8448c0,-7.71224 -1.58417,-19.23077 0.39899,-19.23077c0.387,0 1.77726,1.28261 2.68473,3.66643c1.91404,5.02797 3.8818,13.85415 5.21573,18.14781c0.58762,1.89142 -8.29944,5.12879 -8.29944,-2.58346z" fill="#9951b7" stroke="#541287" stroke-width="2.5"/><path d="M423.25955,210.27064c0.18704,0 3.78701,-0.08108 4.7228,3.97122c1.43954,6.2338 3.63723,19.10671 3.81574,24.19965c0.086,2.45322 -9.61012,4.26492 -9.61012,1.19822c0,0 0.18292,-29.36909 1.07158,-29.36909z" fill="#725580" stroke="#541287" stroke-width="2.5"/><path d="M427.94404,232.55453c0.07594,0.47871 3.43112,-0.21602 3.50896,0.39315c0.27321,2.13825 0.29841,4.16189 0.34509,5.49383c0.086,2.45322 -9.61012,4.26492 -9.61012,1.19822c0,0 0.0238,-3.82096 0.09593,-8.70648c0.00922,-0.62462 2.25351,1.44642 2.26437,0.79276c0.03538,-2.13079 0.0742,-5.04038 0.84299,-4.94708c0.95354,0.11572 2.36719,4.60566 2.55279,5.7756z" fill="#9857ca" stroke="none" stroke-width="0"/><path d="M423.25955,210.27064c0.18704,0 3.78701,-0.08108 4.7228,3.97122c1.43954,6.2338 3.63723,19.10671 3.81574,24.19965c0.086,2.45322 -9.61012,4.26492 -9.61012,1.19822c0,0 0.18292,-29.36909 1.07158,-29.36909z" fill="none" stroke="#541287" stroke-width="2.5"/><path d="M428.07341,212.83162c0,3.5626 -9.35067,2.19671 -9.95032,0.90345c-0.03756,-0.081 0.28823,-4.08226 0.26883,-4.49245c-0.0441,-0.93249 -0.30442,-8.66856 0.0128,-8.66856c0.35086,0 0.89135,-0.98274 1.8216,-1.30713c1.88005,-0.65558 4.6058,-0.861 5.35085,-0.50474c0.9767,0.46703 1.49422,10.00123 1.59014,10.89305c0.19891,1.84938 0.9061,3.09208 0.9061,3.17639z" fill="#9468de" stroke="#541287" stroke-width="2.5"/><path d="M421.78763,196.6777c1.26946,0 2.29857,0.7583 2.29857,1.69369c0,0.93539 -1.0291,1.69368 -2.29857,1.69368c-1.26946,0 -2.29857,-0.75829 -2.29857,-1.69368c0,-0.9354 1.0291,-1.69369 2.29857,-1.69369z" fill="#e5c2ff" stroke="#541287" stroke-width="2.5"/><path d="M409.2368,197.30115c-1.2465,-1.4957 -2.18683,-15.13172 -1.96995,-16.84621c0.11315,-0.89445 5.30266,-6.49077 6.36643,-6.5922c0.34301,-0.0327 16.42088,-0.49551 16.71346,-0.4596c1.23018,0.151 4.00417,12.56683 2.89809,18.49087c-0.03936,0.2108 -2.16214,4.5994 -2.16105,4.66878c0,0 -1.04656,1.27586 -2.47664,1.38691c-5.48865,0.42618 -18.68639,0.17216 -19.37034,-0.64855z" fill="#9d7bb5" stroke="#541287" stroke-width="2.5"/><path d="M409.92637,196.89555c-0.79655,-0.95581 -1.8901,-13.91756 -1.69045,-15.49588c0.05003,-0.39548 16.96287,-1.14381 18.09853,-1.04803c1.88091,0.15864 2.15694,16.28153 2.15435,16.54028c-0.72992,0.52658 -17.88065,0.82174 -18.56244,0.00364z" fill="url(#color-2)" stroke="#541287" stroke-width="2.5"/><path d="M429.44626,183.87097c0,-0.65746 -0.23522,-3.10485 -0.10385,-3.6382c0.23542,-0.95579 0.95405,0.071 1.37921,-1.04317c0.44779,-1.17349 0.83299,-3.39998 1.39227,-3.39998c0.90565,0 1.63236,2.13493 2.02755,4.4732c0.20987,1.24182 0.32624,2.54098 0.32624,3.60815c0,0.44164 -0.62986,1.08113 -0.64252,1.8043c-0.0363,2.07337 0.46892,4.83452 0.06455,5.59214c-0.43709,0.81894 -1.31586,-1.82582 -1.93274,-1.82582c-1.38662,0 -2.51071,-2.49406 -2.51071,-5.57063z" fill="#541287" stroke="none" stroke-width="0"/><path d="M434.06935,185.93442c-0.62457,-0.03004 -1.60671,-1.94445 -1.52973,-3.5449c0.00991,-0.20614 1.20596,-12.06073 1.75008,-12.03456c0.31522,0.01516 2.11799,6.48691 1.12996,9.87148c-0.12135,0.41569 2.39823,-1.11006 2.25892,-0.70658c-0.97391,2.82059 -3.33859,6.42758 -3.60922,6.41457z" fill="#ca80ff" stroke="#541287" stroke-width="2.5"/><path d="M422.01947,240.19273c0,-3.70188 2.71517,-4.30897 6.06448,-4.30897c3.34932,0 6.06448,0.60709 6.06448,4.30897c0,3.70188 -12.12895,3.70188 -12.12895,0z" fill="#683980" stroke="#541287" stroke-width="2.5"/><text transform="translate(414.95107,195.88461) rotate(-7.44168) scale(0.34505,0.43857) skewX(-3.03268)" font-size="40" xml:space="preserve" fill="#ca80ff" fill-rule="nonzero" stroke="none" stroke-width="1" stroke-linecap="butt" stroke-linejoin="miter" stroke-miterlimit="10" stroke-dasharray="" stroke-dashoffset="0" font-family="&quot;Neon&quot;, Sans Serif" font-weight="normal" text-anchor="start" style="mix-blend-mode: normal"><tspan x="0" dy="0">2</tspan></text><path d="M328.25826,336.15619v-247.74775h214.71471v247.74775z" fill="none" stroke="none" stroke-width="0"/></g></g></svg>