<svg version="1.1" xmlns="http://www.w3.org/2000/svg" xmlns:xlink="http://www.w3.org/1999/xlink" width="165.75716" height="178.03547" viewBox="0,0,165.75716,178.03547"><defs><linearGradient x1="320.00001" y1="180.00011" x2="320.00001" y2="180.00011" gradientUnits="userSpaceOnUse" id="color-1"><stop offset="0" stop-color="#67497d"/><stop offset="1" stop-color="#553783"/></linearGradient></defs><g transform="translate(-235.11255,-143.05423)"><g data-paper-data="{&quot;isPaintingLayer&quot;:true}" fill-rule="nonzero" stroke-linejoin="miter" stroke-miterlimit="10" stroke-dasharray="" stroke-dashoffset="0" style="mix-blend-mode: normal"><g data-paper-data="{&quot;index&quot;:null}" stroke="#541287" stroke-width="2.5" stroke-linecap="butt"><path d="" fill="#e5c2ff"/><path d="" fill="#9951b7"/></g><path d="" fill="#725580" stroke="#541287" stroke-width="2.5" stroke-linecap="butt"/><path d="" fill="#6d3e90" stroke="none" stroke-width="0" stroke-linecap="butt"/><path d="" fill="#725580" stroke="none" stroke-width="0" stroke-linecap="butt"/><path d="" fill="#9857ca" stroke="none" stroke-width="0" stroke-linecap="butt"/><path d="" fill="none" stroke="#541287" stroke-width="2.5" stroke-linecap="butt"/><path d="" fill="#9468de" stroke="#541287" stroke-width="2.5" stroke-linecap="butt"/><path d="" fill="#e5c2ff" stroke="#541287" stroke-width="2.5" stroke-linecap="butt"/><g stroke-linecap="butt"><g stroke="#541287" stroke-width="2.5"><path d="" fill="#9d7bb5"/><path d="" fill="#9d7bb5"/><path d="" fill="url(#color-1)"/></g><path d="" fill="#541287" stroke="none" stroke-width="0"/><path d="" fill="#ca80ff" stroke="#541287" stroke-width="2.5"/></g><g stroke="#541287" stroke-width="2.5" stroke-linecap="butt"><path d="" fill="#e5c2ff"/><path d="" fill="#9951b7"/></g><g><path d="M312.50194,287.77119c0,0.4336 -1.1524,9.84529 -5.97749,9.84529c-5.24321,0 -9.49367,-4.40788 -9.49367,-9.84529c0,-1.92333 6.23782,-35.17883 10.57788,-52.32569c1.58423,-6.25903 5.71307,-9.32457 5.71373,-9.32457c0.99005,0 -0.82044,57.23957 -0.82044,61.65026z" data-paper-data="{&quot;index&quot;:null}" fill="#54002b" stroke="none" stroke-width="0" stroke-linecap="butt"/><path d="M291.05355,302.04501c0.3112,-5.05129 2.88489,-11.99288 9.28364,-11.61642c1.57142,0.09245 6.71927,-42.49964 8.0581,-41.9718c0.63209,0.2492 4.10925,0.35276 4.58149,2.40217c1.07257,4.65479 -1.50039,47.50253 -1.61713,49.39743c-0.3112,5.05129 -5.75069,8.84099 -12.14944,8.46453c-6.39875,-0.37646 -8.46786,-1.62463 -8.15666,-6.67592z" fill="#54002b" stroke="none" stroke-width="0" stroke-linecap="butt"/><path d="M336.06287,307.08485c0.3112,5.05129 -1.99232,7.70593 -8.39107,8.08239c-6.39875,0.37646 -10.90059,-5.05413 -11.21179,-10.10542c-0.11674,-1.8949 0.24044,-47.90719 1.31302,-52.56199c0.47224,-2.04941 3.94939,-2.15297 4.58148,-2.40217c1.33883,-0.52784 3.55653,45.46322 5.12795,45.37077c6.39875,-0.37646 8.2692,6.56513 8.58041,11.61642z" data-paper-data="{&quot;index&quot;:null}" fill="#54002b" stroke="none" stroke-width="0" stroke-linecap="butt"/><path d="M301.42902,252.52291c0,-0.83348 5.48879,-5.0339 8.11951,-11.89491c3.66758,-9.56516 4.87687,-22.47706 5.35916,-22.47706c0.53579,0 3.57966,14.07888 8.23698,24.91113c2.6382,6.13604 8.18201,11.66798 8.15828,11.92345c-0.13334,1.43521 -10.76982,2.24654 -18.93431,1.36312c-6.51196,-0.70461 -10.93961,-2.87816 -10.93961,-3.82573z" fill="#ff5971" stroke="#54002b" stroke-width="2.5" stroke-linecap="butt"/><path d="M307.73438,199.7233c0,17.56072 -13.40484,31.57933 -21.81845,31.57933c-8.41361,0 -15.23419,-14.23577 -15.23419,-31.79649c0,-17.56072 8.60011,-31.14499 17.01372,-31.14499c8.41361,0 20.03892,13.80144 20.03892,31.36216z" fill="#ff8dae" stroke="#54002b" stroke-width="2.5" stroke-linecap="butt"/><path d="M344.932,171.27185c8.08883,0.38486 15.71134,14.34718 14.87676,31.88805c-0.83459,17.54088 -8.06846,31.44858 -16.15728,31.06371c-8.08883,-0.38486 -20.30995,-15.00081 -19.47536,-32.54168c0.83459,-17.54087 12.66706,-30.79494 20.75588,-30.41008z" data-paper-data="{&quot;index&quot;:null}" fill="#ff8dae" stroke="#54002b" stroke-width="2.5" stroke-linecap="butt"/><path d="M290.2055,200.33359c0,-13.80552 11.19159,-24.99712 24.99711,-24.99712c13.80552,0 24.99711,11.19159 24.99711,24.99712c0,13.80552 -11.19159,24.99711 -24.99711,24.99711c-13.80552,0 -24.99711,-11.19159 -24.99711,-24.99711z" fill="#ff8dae" stroke="#54002b" stroke-width="2.5" stroke-linecap="butt"/><g data-paper-data="{&quot;index&quot;:null}" fill="#54002b" stroke="none" stroke-width="0" stroke-linecap="butt"><path d="M327.70277,190.95476c3.36447,-0.26015 6.55064,5.5405 7.11652,12.9561c0.56588,7.4156 -1.70282,13.63804 -5.06727,13.89819c-3.36447,0.26015 -6.55065,-5.5405 -7.11653,-12.9561c-0.56588,-7.4156 1.70283,-13.63804 5.06729,-13.89819z"/><path d="M332.80379,198.71073c0.74204,-0.05737 4.67873,3.7371 4.87126,6.26009c0.11332,1.4851 -2.4352,6.82504 -3.8643,6.93555c-2.41226,0.18653 -4.5932,-2.61621 -4.87126,-6.26009c-0.27806,-3.64388 1.45205,-6.74903 3.8643,-6.93555z"/></g><g data-paper-data="{&quot;index&quot;:null}" fill="#54002b" stroke="none" stroke-width="0" stroke-linecap="butt"><path d="M320.11868,208.82639c0.67321,7.40666 -1.67641,13.66886 -5.24802,13.987c-3.57159,0.31815 -7.01268,-5.42824 -7.68589,-12.83489c-0.67321,-7.40666 1.6764,-13.66885 5.24801,-13.987c3.57159,-0.31815 7.01269,5.42824 7.6859,12.83489z"/><path d="M313.64529,210.68504c0.33081,3.63948 -1.47695,6.77477 -4.03772,7.00288c-1.51709,0.13513 -5.10083,-4.69353 -5.23565,-6.17684c-0.22905,-2.51995 3.25,-6.93271 4.03772,-7.00288c2.56077,-0.2281 4.90485,2.53737 5.23565,6.17684z"/></g><path d="M318.42387,227.29299c0.00065,0 4.1295,3.06554 5.71373,9.32457c4.34006,17.14686 10.57788,50.40236 10.57788,52.32569c0,5.4374 -4.25046,9.84528 -9.49367,9.84528c-4.8251,0 -5.9775,-9.41168 -5.9775,-9.84528c0,-4.41069 -1.81049,-61.65026 -0.82044,-61.65026z" fill="#54002b" stroke="none" stroke-width="0" stroke-linecap="butt"/><path d="M300.54551,200.01003l17.44194,-8.04052" fill="none" stroke="#54002b" stroke-width="2.5" stroke-linecap="round"/><path d="M235.11255,321.0897v-178.03547h165.75716v178.03547z" fill="none" stroke="none" stroke-width="NaN" stroke-linecap="butt"/></g></g></g></svg>