<svg version="1.1" xmlns="http://www.w3.org/2000/svg" xmlns:xlink="http://www.w3.org/1999/xlink" width="77.7216" height="178.59886" viewBox="0,0,77.7216,178.59886"><g transform="translate(-280.93746,-90.91535)"><g data-paper-data="{&quot;isPaintingLayer&quot;:true}" fill-rule="nonzero" stroke="#176e4a" stroke-linejoin="miter" stroke-miterlimit="10" stroke-dasharray="" stroke-dashoffset="0" style="mix-blend-mode: normal"><path d="M295.1023,218.62509c-4.09614,1.17497 -3.22294,-8.98605 -3.55665,-20.20087c-0.33894,-11.39042 -1.85416,-23.85508 -2.0995,-24.95271c-0.67769,-3.03183 26.76876,-23.89024 26.76876,-23.89024l17.64281,-3.94357l12.89642,16.25912c0,0 3.90951,14.06479 5.62284,28.40441c0.54611,4.57048 1.46879,9.57035 1.86937,13.47907c0.70828,6.91133 -1.84668,12.88284 -1.85098,13.04615c-0.00842,0.31931 -0.87767,0.70392 -1.4297,0.90779c-1.84749,0.68223 -3.08675,-1.4924 -8.88811,-1.7426c-1.20414,-0.05194 -7.15294,4.21854 -8.44202,4.15696c-1.88871,-0.09023 -6.80782,-2.85553 -8.77996,-3.04955c-2.54551,-0.25044 -9.25791,1.94368 -11.63599,1.72002c-2.52592,-0.23759 -5.65338,-2.16106 -7.52526,-2.55115c-2.83881,-0.59158 -10.11697,2.22092 -10.59202,2.3572z" fill="#9f697a" stroke-width="2.5" stroke-linecap="butt"/><path d="M342.96165,194.01536c2.43722,9.33656 -1.84703,17.54319 -11.56992,20.08127c-9.72289,2.53808 -19.58061,-2.97317 -22.01785,-12.30973c-2.43722,-9.33656 3.46896,-18.96285 13.19188,-21.50093c4.35094,-1.13578 8.81972,-3.17404 12.54763,-1.46456c4.60271,2.11064 6.50171,10.03546 7.84829,15.19395z" fill="#c17c6c" stroke-width="2.5" stroke-linecap="butt"/><path d="M285.53269,209.2849c-0.49173,0.38204 -3.10223,-8.7535 -3.31169,-18.87241c-0.36997,-17.87338 2.36183,-41.62833 6.14174,-41.51638c8.57936,0.2541 11.14307,26.38894 11.12159,27.11408c-0.06096,2.05767 -0.6655,6.03198 -0.9481,10.37936c-0.50202,7.72271 -0.89693,16.59572 -1.90276,17.80136c-0.73866,0.88536 -3.96586,-0.53133 -7.03905,-2.41142c-0.64124,-0.39228 -1.85791,5.79314 -4.06175,7.50542z" data-paper-data="{&quot;index&quot;:null}" fill="#b9818a" stroke-width="2.5" stroke-linecap="butt"/><path d="M301.91723,217.07292c-0.28276,-1.08316 4.90007,-11.39486 6.28044,-15.56505c0.20587,-0.62194 1.81977,-11.95945 3.67021,-19.68158c0.69255,-2.89011 3.51174,-5.47687 3.65432,-5.51408c2.34953,-0.61333 10.78092,-0.41172 13.24898,0.45001c1.56477,0.54634 3.0984,1.56197 4.1447,3.02107c2.47463,3.45093 1.17121,20.08656 1.24573,21.67373c0.06346,1.35182 3.42625,9.47076 3.73763,10.66358c1.25342,4.80162 -35.98202,4.95231 -35.98202,4.95231z" fill="#ffbdb7" stroke-width="2.5" stroke-linecap="butt"/><path d="M351.55764,201.93885c-2.80605,2.25945 -5.82444,4.07916 -6.67075,3.29606c-1.15244,-1.06636 -2.68443,-9.81504 -4.1748,-17.40918c-0.83899,-4.27501 -1.94927,-8.13866 -2.27417,-10.17143c-0.11449,-0.71636 -0.93087,-26.96394 7.54468,-28.31855c3.73417,-0.59681 9.49629,22.61005 11.42645,40.38274c1.09277,10.06191 -0.32197,19.45721 -0.85875,19.14152c-2.40561,-1.41484 -4.40715,-7.39261 -4.99265,-6.92116z" fill="#b9818a" stroke-width="2.5" stroke-linecap="butt"/><path d="M284.73854,150.95411c-2.43135,-19.21291 11.1728,-36.75904 30.38569,-39.19039c19.21291,-2.43135 36.75903,11.1728 39.19038,30.38569c2.43135,19.21291 -11.1728,36.75903 -30.38569,39.19038c-19.21291,2.43135 -36.75903,-11.17279 -39.19038,-30.38569z" fill="#acffcf" stroke-width="2.5" stroke-linecap="butt"/><path d="M284.57291,141.3239c-1.21139,-4.64056 26.21199,-5.60445 40.13372,-9.2386c13.92173,-3.63415 26.18952,-2.81829 27.4009,1.82229c0.22162,0.84899 1.75553,3.89768 2.33816,6.83539c0.45772,2.30785 0.14981,4.59381 -0.63624,5.37605c-0.54118,0.53853 -4.89983,-4.31849 -7.27009,-4.80366c-1.15297,-0.236 2.02572,2.17079 0.84835,2.22555c-0.33876,0.01576 -15.19666,6.74092 -16.36662,8.19246c-0.27879,0.34588 -0.04425,-3.33472 -1.92764,-2.84307c-1.46965,0.38364 -11.49653,0.68854 -18.18464,0.37124c-6.78168,-0.32174 -10.24228,-1.26846 -14.18298,-1.27207c-5.93917,-0.00543 1.46086,1.70521 -0.37344,1.76871c-0.65545,0.02268 -8.31059,4.58398 -12.50907,3.81618c-1.90808,-0.34895 4.66974,-6.41989 2.96402,-6.5471c-3.47906,-0.25947 -3.6944,1.80869 -3.94571,1.60512c-0.26124,-0.2116 0.88789,-1.55898 1.24387,-2.84813c0.55715,-2.01777 0.52337,-4.2459 0.46739,-4.46038z" fill="#b9818a" stroke-width="2.5" stroke-linecap="butt"/><path d="M310.77404,108.21058c-1.83438,-7.02715 2.3752,-14.21084 9.40236,-16.04523c7.02715,-1.83438 14.21084,2.3752 16.04522,9.40236c1.83438,7.02715 -2.3752,14.21084 -9.40236,16.04522c-7.02715,1.83438 -14.21085,-2.37519 -16.04523,-9.40236z" fill="#ff96d4" stroke-width="2.5" stroke-linecap="butt"/><path d="M284.24585,142.22929c0.03438,-2.05322 -0.85033,-3.62476 -0.41577,-5.68419c0.62319,-2.95332 2.49257,-4.56713 3.83436,-7.38337c5.54054,-11.6288 22.82967,-24.02444 32.81459,-24.39035c10.8457,-0.39745 20.07125,4.78818 27.09423,14.30984c1.47011,1.99316 2.78035,4.11317 3.61125,6.82157c0.60715,1.97902 1.2097,10.92135 1.83612,12.58976c0.5146,1.37058 -1.87422,-1.05873 -8.066,-0.24427c-5.15996,0.67874 -13.30781,4.61387 -21.38038,5.50931c-17.08338,1.89496 -39.35617,0.13038 -39.32838,-1.52831z" fill="#96a5ff" stroke-width="2.5" stroke-linecap="butt"/><path d="M332.12882,183.61949l-20.78288,3.15095" fill="none" stroke-width="2.5" stroke-linecap="round"/><path d="M333.73493,192.67627l-23.3282,6.46867" fill="none" stroke-width="2.5" stroke-linecap="round"/><path d="M303.4349,213.09425l29.62306,-8.49092" fill="none" stroke-width="2.5" stroke-linecap="round"/><g fill="#176e4a" stroke-width="0" stroke-linecap="butt"><path d="M337.20513,148.48559c0.93377,11.23008 0.00231,20.19943 -4.74599,20.59426c-4.74829,0.39482 -6.87538,-8.32021 -7.80915,-19.5503c-0.93377,-11.23008 -0.32063,-20.72262 4.42766,-21.11743c4.74829,-0.39482 7.1937,8.84339 8.12747,20.07347z"/><path d="M342.16341,148.62295c0.21735,2.61404 -3.64735,9.50991 -4.56202,9.58596c-2.03498,0.1692 -4.00473,-3.54288 -4.39954,-8.29117c-0.39482,-4.74829 0.93479,-8.73471 2.96977,-8.90393c1.03475,-0.08604 5.79773,5.27524 5.99178,7.60912z"/></g><g data-paper-data="{&quot;index&quot;:null}" fill="#176e4a" stroke-width="0" stroke-linecap="butt"><path d="M309.40541,128.34699c4.76358,-0.10248 6.36324,9.27438 6.60559,20.5406c0.24236,11.26622 -0.96435,20.15557 -5.72793,20.25803c-4.76358,0.10248 -6.62526,-8.72085 -6.86763,-19.98708c-0.24236,-11.26622 1.2264,-20.70908 5.98995,-20.81154z"/><path d="M303.6642,141.61976c2.04154,-0.04392 3.77959,3.78213 3.88207,8.54571c0.10248,4.76358 -1.46943,8.66082 -3.51098,8.70472c-0.91762,0.01973 -5.48034,-6.43551 -5.53675,-9.05798c-0.05036,-2.34141 4.12758,-8.17011 5.16566,-8.19244z"/></g><path d="M337.53631,211.76546c0.28333,1.15325 5.54505,4.30489 -0.11353,8.40056c-3.28963,2.38103 -10.93447,8.45434 -7.097,12.73455c4.65016,5.18665 11.49518,0.98527 14.43621,5.12323c4.45074,4.96534 -2.84604,14.33943 -13.15806,20.88345c-8.96365,5.68833 -19.40968,9.16982 -20.17144,9.35696c-0.0859,0.0211 21.75706,-14.54591 12.60567,-17.57589c-7.18027,-2.37736 -20.63069,-12.5757 -20.81453,-12.86771c-0.14848,-0.23584 -0.12178,0.72775 -0.26227,0.49468c-5.18044,-8.59442 -3.42625,-17.19661 -0.23631,-22.26401c2.30993,-3.66947 34.26253,-6.51942 34.81127,-4.28582z" fill="#bcc6ff" stroke-width="2.5" stroke-linecap="butt"/></g></g></svg>