<svg version="1.1" xmlns="http://www.w3.org/2000/svg" xmlns:xlink="http://www.w3.org/1999/xlink" width="561.60642" height="561.6064" viewBox="0,0,561.60642,561.6064"><defs><radialGradient cx="283.14772" cy="164.64489" r="1017.51931" gradientUnits="userSpaceOnUse" id="color-1"><stop offset="0" stop-color="#e8deff" stop-opacity="0"/><stop offset="1" stop-color="#e8deff" stop-opacity="0.52157"/></radialGradient><radialGradient cx="316.03359" cy="138.71597" r="1057.04512" gradientUnits="userSpaceOnUse" id="color-2"><stop offset="0" stop-color="#e8deff" stop-opacity="0"/><stop offset="1" stop-color="#e8deff" stop-opacity="0.52157"/></radialGradient></defs><g transform="translate(-39.1968,100.8032)"><g data-paper-data="{&quot;isPaintingLayer&quot;:true}" fill-rule="nonzero" stroke="none" stroke-width="0" stroke-linecap="butt" stroke-linejoin="miter" stroke-miterlimit="10" stroke-dasharray="" stroke-dashoffset="0" style="mix-blend-mode: normal"><path d="M49.75,180c0,-149.25496 120.99504,-270.25 270.25,-270.25c15.84039,0 68.5236,8.52491 79.16157,11.77896c110.63028,33.84089 191.08843,136.75996 191.08843,258.47104c0,149.25496 -120.99504,270.25 -270.25,270.25c-149.25496,0 -270.25,-120.99504 -270.25,-270.25zM321.04671,381.73513c55.99278,0 106.60104,-23.05385 142.85065,-60.1874c4.09152,-1.31256 7.47656,-4.20264 9.43922,-7.95434c7.49679,-1.04557 13.35568,-7.20589 13.93735,-14.84165c6.64493,-2.03923 11.47607,-8.22415 11.47607,-15.53745c0,-0.07491 -0.00051,-0.14971 -0.00152,-0.22438c2.7993,-1.67726 4.28994,-3.30825 5.26166,-5.24538c1.64309,-2.53937 2.597,-5.56626 2.597,-8.81596c0,-1.18269 -0.12635,-2.33587 -0.36628,-3.44679c0.69796,-1.81212 1.08057,-3.78084 1.08057,-5.83893c0,-1.45652 -0.19163,-2.86827 -0.55104,-4.21144c8.96638,-22.69596 13.89281,-47.42905 13.89281,-73.31278c0,-50.34063 -18.63446,-96.32895 -49.38179,-131.44338c-0.9467,-4.65883 -3.8866,-8.59356 -7.8907,-10.87523c-1.56241,-7.30699 -8.037,-12.79328 -15.80044,-12.83551c-1.20149,-1.58149 -2.68611,-2.93614 -4.37832,-3.98842c-0.68906,-0.42848 -1.41253,-0.80682 -2.16533,-1.12993c-2.60491,-4.75454 -7.5183,-8.06432 -13.23212,-8.42129c-30.87694,-19.58323 -67.49813,-30.92273 -106.7678,-30.92273c-49.82545,0 -95.38723,18.255 -130.36191,48.44161c-5.23111,1.39428 -9.42399,5.33299 -11.17222,10.40971c-0.80895,0.81334 -1.61094,1.63362 -2.40587,2.46073c-8.19336,0.83293 -14.58687,7.75279 -14.58687,16.16593c0,0.26411 0.0063,0.52676 0.01876,0.78778c-0.39909,0.5205 -0.79566,1.04302 -1.18972,1.56754c-7.55311,1.39818 -13.27349,8.02006 -13.27349,15.97801c0,1.18851 0.1276,2.34722 0.36983,3.46317c-1.24221,2.13216 -2.44604,4.28942 -3.61056,6.47085c-6.79043,1.94847 -11.75928,8.20474 -11.75928,15.62153c0,2.44426 0.53966,4.76247 1.50632,6.84199c-1.78324,4.65369 -3.39729,9.39115 -4.8346,14.20486c-3.08464,2.95762 -5.00505,7.12001 -5.00505,11.73092c0,1.75124 0.27702,3.43778 0.78964,5.01818c-1.04837,5.09341 -1.90272,10.25766 -2.55497,15.48468c-1.69338,2.5649 -2.67911,5.63813 -2.67911,8.94158c0,1.52204 0.20925,2.99521 0.60057,4.3923c-3.43103,2.97939 -5.60057,7.37352 -5.60057,12.27437c0,5.35948 2.59459,10.11296 6.59621,13.0729c0.03263,0.48105 0.06697,0.96164 0.10301,1.44175c-1.43257,2.42111 -2.25478,5.2461 -2.25478,8.26313c0,4.32308 1.68814,8.25187 4.44117,11.16313c-1.0651,2.16266 -1.6634,4.59656 -1.6634,7.1702c0,5.32359 2.55995,10.04926 6.51599,13.01319c2.43255,8.54525 5.42014,16.85673 8.92133,24.89296c-0.28597,1.207 -0.43732,2.46609 -0.43732,3.76052c0,6.66882 4.01717,12.39938 9.76365,14.90382c11.9481,21.07058 27.61803,39.75362 46.11621,55.15552c-0.00456,0.15824 -0.00685,0.31704 -0.00685,0.47637c0,8.55345 6.60853,15.56339 14.99826,16.20251c1.98222,6.45918 7.8816,11.20454 14.92684,11.46481c2.92114,4.31671 7.86309,7.15412 13.46775,7.15412c3.76653,0 7.23376,-1.28146 9.98949,-3.43219c22.95752,9.20813 48.02286,14.27446 74.2715,14.27446z" fill="url(#color-1)"/><path d="M187.73079,-67.63735c136.76634,-73.05027 306.85629,-21.3982 379.90656,115.36814c7.75281,14.51498 25.72609,66.96239 27.95089,78.30289c23.13677,117.93635 -31.79189,242.03428 -143.31903,301.60367c-136.76634,73.05027 -306.85629,21.3982 -379.90656,-115.36814c-73.05027,-136.76634 -21.3982,-306.85629 115.36814,-379.90656zM135.65696,279.69491c27.4047,51.30769 73.2989,86.39809 125.06713,101.44021c3.20526,3.10676 7.51027,4.79406 11.90864,4.7563c4.62725,6.35777 13.13965,8.71137 20.4212,5.50718c5.12085,5.09087 13.15278,6.49066 19.85415,2.91129c0.06865,-0.03667 0.13693,-0.07374 0.20486,-0.11121c2.90698,1.74417 5.13108,2.31183 7.38171,2.25415c3.13107,0.26275 6.37158,-0.34461 9.34936,-1.93512c1.08373,-0.57885 2.07859,-1.25903 2.97911,-2.02261c2.00209,-0.24735 3.99336,-0.86031 5.87924,-1.86761c1.33464,-0.71287 2.53449,-1.57942 3.58936,-2.56615c25.18536,-2.89202 50.26012,-10.48298 73.97807,-23.15132c46.12847,-24.63835 79.14849,-64.2218 96.27604,-109.58256c3.80566,-3.14767 5.97228,-7.76737 6.10329,-12.55315c5.9309,-5.00795 7.78926,-13.62597 4.02827,-20.76048c0.86112,-1.87499 1.3758,-3.8984 1.5118,-5.96404c0.05538,-0.84111 0.04797,-1.68922 -0.0244,-2.53717c3.08178,-4.71398 3.70985,-10.83616 1.24042,-16.2466c2.83245,-37.87805 -4.70047,-76.98495 -23.92034,-112.96881c-24.38621,-45.65641 -63.41318,-78.47129 -108.19174,-95.74522c-3.83789,-4.111 -9.49917,-6.02532 -15.00675,-5.14256c-1.14122,-0.34318 -2.28538,-0.6766 -3.43235,-1.00019c-4.77334,-7.10014 -14.24338,-9.57187 -21.95257,-5.4542c-0.24201,0.12926 -0.4796,0.26358 -0.71268,0.40276c-0.67227,-0.11094 -1.34517,-0.2186 -2.01867,-0.32296c-4.97793,-6.2368 -13.84548,-8.23758 -21.13756,-4.3427c-1.08906,0.5817 -2.08837,1.26573 -2.99239,2.03388c-2.56173,-0.09472 -5.12769,-0.14199 -7.69654,-0.1414c-5.10889,-5.26861 -13.27359,-6.75967 -20.06981,-3.12965c-2.23974,1.1963 -4.09985,2.82541 -5.53226,4.72898c-5.13708,0.64363 -10.26811,1.48332 -15.3825,2.52225c-4.21987,-1.37898 -8.97389,-1.1015 -13.199,1.15523c-1.60471,0.85711 -3.01455,1.9364 -4.21182,3.17963c-5.18034,1.53223 -10.33062,3.27692 -15.43952,5.23752c-3.17908,-0.29634 -6.47761,0.30455 -9.50465,1.92137c-1.39469,0.74494 -2.64218,1.6577 -3.73085,2.70005c-4.40935,-1.68574 -9.49765,-1.52311 -13.98843,0.87553c-4.91104,2.62311 -7.9969,7.3271 -8.75065,12.44259c-0.42483,0.26535 -0.8484,0.53203 -1.2707,0.80004c-2.91968,-0.12773 -5.9107,0.5015 -8.67529,1.97814c-3.96135,2.11586 -6.73518,5.58563 -8.05542,9.53317c-2.503,0.0825 -5.02608,0.72549 -7.38437,1.98512c-4.87814,2.60554 -7.95548,7.26419 -8.73519,12.33986c-6.63968,6.41133 -12.79348,13.21685 -18.4437,20.35828c-1.24597,0.32871 -2.47378,0.80626 -3.65991,1.4398c-6.11082,3.26394 -9.39575,9.74971 -8.87811,16.24112c-13.45976,21.261 -22.91015,44.76386 -27.96971,69.25245c-0.14722,0.07327 -0.29386,0.14889 -0.43987,0.22688c-7.83775,4.18634 -11.02672,13.67281 -7.50615,21.67335c-4.94856,4.9777 -6.40951,12.70599 -3.19982,19.28912c-2.52582,4.78946 -2.70705,10.70662 0.03605,15.84232c1.84347,3.45138 4.71468,6.00131 8.03419,7.47382c2.7985,25.54335 10.42389,50.99102 23.27083,75.04336z" fill="url(#color-2)"/></g></g></svg>