<svg version="1.1" xmlns="http://www.w3.org/2000/svg" xmlns:xlink="http://www.w3.org/1999/xlink" width="682.68267" height="107.46565" viewBox="0,0,682.68267,107.46565"><g transform="translate(-16.21147,-274.5595)"><g data-paper-data="{&quot;isPaintingLayer&quot;:true}" fill-rule="nonzero" stroke-linejoin="miter" stroke-miterlimit="10" stroke-dasharray="" stroke-dashoffset="0" style="mix-blend-mode: normal"><path d="M108.93551,300.8947c5.72167,0.64055 9.84072,5.79812 9.20017,11.51979c-0.64055,5.72167 -5.79812,9.84073 -11.51978,9.20019c-5.72167,-0.64055 -9.84073,-5.79813 -9.20019,-11.5198c0.28823,-2.57476 0.66581,-6.69029 2.42325,-8.32832c2.14798,-2.00201 5.94964,-1.22417 9.09656,-0.87187z" fill="#8194ff" stroke="#252674" stroke-width="2.5" stroke-linecap="butt"/><path d="M115.56299,297.59952c2.81272,1.60005 6.91211,3.62189 12.40187,4.525c24.08243,3.96172 77.40421,8.60978 82.44195,9.85073c11.03549,2.7184 6.7682,4.6764 6.64886,5.16926c-0.08009,0.33082 -71.82659,7.7023 -101.85329,5.40463c-3.90721,-0.29898 -5.54645,-4.32395 -5.37699,-12.27868c0.07872,-3.69577 3.39822,-14.00172 5.7376,-12.67094z" data-paper-data="{&quot;index&quot;:null}" fill="#475ac7" stroke="#252674" stroke-width="2.5" stroke-linecap="butt"/><path d="M177.59402,331.74505c0,0 -119.75897,0.71742 -138.17954,-3.09147c-1.06476,-0.22017 -8.09726,-38.01599 -4.73828,-40.26028c14.8531,-7.76932 16.04823,14.7028 16.06707,14.81793c0.27284,1.66618 134.09222,14.72056 134.1342,16.32139c0.06437,2.45465 1.99523,12.24746 -7.28346,12.21242z" fill="#8194ff" stroke="#252674" stroke-width="2.5" stroke-linecap="butt"/><path d="M171.80253,344.47451c-24.11294,6.90882 -139.88026,22.18216 -145.08381,16.50292c-5.2088,-5.68497 -9.55473,-34.20295 -9.24128,-34.47205c8.46969,-7.27159 17.26816,-10.29187 22.63368,-7.89644c5.23646,2.33781 7.14113,10.00446 7.25198,10.23682c0.72697,1.52383 127.69819,-6.31743 128.18524,-4.79192c0.74683,2.33916 5.17403,17.86498 -3.74581,20.42068z" fill="#8194ff" stroke="#252674" stroke-width="2.5" stroke-linecap="butt"/><path d="M165.42035,322.48902c-0.12447,-0.22019 6.12286,-9.60473 7.45849,-10.19681c1.28073,-0.56773 16.67846,1.88898 18.22679,1.35273c1.33583,-0.46267 17.73222,-2.17389 20.17663,-1.3059c3.45392,1.22646 6.02065,2.84343 6.3482,3.42288c1.53809,2.72093 2.32698,7.67248 2.36145,10.68225c0.00631,0.55081 -1.28966,5.71826 -4.78233,7.9884c-1.76891,1.14975 -8.32225,1.50871 -13.77757,1.25673c-5.29745,-0.2447 -9.52595,-1.08446 -9.55372,-1.08013c-0.39399,0.06144 -15.68418,7.00547 -16.14494,6.95391c-4.0022,-0.44776 -9.64403,-17.8906 -10.31301,-19.07407z" fill="#b3bfff" stroke="#252674" stroke-width="2.5" stroke-linecap="butt"/><path d="M216.79468,322.47544c-0.69308,-2.92841 0.30091,-6.36984 2.03424,-6.93581c0.69503,-0.22694 7.48438,0.11658 7.48438,0.11658c4.17177,0.48208 8.71502,6.22085 5.05916,8.28742c-3.99152,2.25631 -7.5911,2.65356 -11.87371,2.66459c-1.14226,0.00294 -2.39692,-2.83498 -2.70407,-4.13278z" fill="#b3bfff" stroke="#252674" stroke-width="2.5" stroke-linecap="butt"/><path d="M176.99598,326.58862c8.25205,-2.83106 18.84558,-1.36429 27.30754,-0.56772c8.64241,0.81356 15.06462,0.99089 14.81576,1.25971c-0.17681,0.19099 -0.31849,6.31438 -2.922,7.58291c-3.30315,1.60942 -9.83326,2.1143 -12.4224,1.59838c-4.92758,-0.98189 -9.63117,-2.19191 -9.72098,-2.1611c-3.4136,1.17112 -29.68703,13.13562 -33.33593,14.67899c-5.22737,2.21101 -17.58565,10.13231 -23.82572,8.32263c-15.46241,-4.48424 -23.66586,-26.07571 -14.24173,-30.67634c1.68563,-0.82289 10.45168,0.24563 20.85029,0.57943c14.08052,0.45198 30.78448,0.31309 33.49518,-0.61688z" fill="#475ac7" stroke="#252674" stroke-width="2.5" stroke-linecap="butt"/><path d="M133.56534,305.62219c6.28406,-1.48874 23.61584,-3.17261 28.69009,-2.07456c11.67168,2.52573 17.61692,6.54361 29.40149,8.47528c0.05406,0.00886 8.55511,0.31152 15.19001,-0.14818c4.84301,-0.33555 8.03033,0.01081 12.07208,2.69997c0.10252,0.06821 -11.31325,1.70038 -20.59398,1.36275c-11.83411,-0.43052 -22.40208,-2.81721 -25.05223,-2.24516c-14.48721,3.12716 -44.35695,5.43673 -50.20312,5.96652c-0.72464,0.06567 -5.07573,-10.34765 10.49566,-14.03663z" data-paper-data="{&quot;index&quot;:null}" fill="#475ac7" stroke="#252674" stroke-width="2.5" stroke-linecap="butt"/><path d="M214.8987,321.00594c-0.11939,-3.53862 2.28755,-6.96094 2.91897,-6.82894c0.86831,0.18153 2.15263,0.23171 2.49539,0.63884c0.63442,0.75359 -1.80031,0.02165 -1.57445,3.13241c0.12406,1.70868 0.40162,4.90389 1.42535,6.45059c0.59876,0.90464 2.53312,2.09514 2.54326,2.18268c0.05968,0.51503 -0.84962,2.12288 -1.81549,2.45546c-1.14264,0.39345 -2.45538,-0.67046 -3.63641,-2.75976c-0.22115,-0.39123 -2.27147,-2.74755 -2.35662,-5.27128z" fill="#475ac7" stroke="#252674" stroke-width="2.5" stroke-linecap="butt"/><g stroke-linecap="butt"><path d="M330.13292,313.59157c0.72953,0.75977 1.09053,3.8457 1.08118,4.66863c-0.00257,0.22575 -14.64837,12.27544 -19.0426,15.49991c-0.98982,0.72631 -11.39788,2.63901 -16.2419,3.28391c-7.72821,1.02888 -11.76113,-1.31133 -12.11911,-1.33279c-14.59112,-0.87488 -6.81865,-13.90317 -6.77135,-18.06655c0.05261,-4.63026 10.15283,-11.88603 25.61789,-11.71033c0.22313,0.00254 25.71915,5.82764 27.4759,7.65723z" data-paper-data="{&quot;index&quot;:null}" fill="#8194ff" stroke="#252674" stroke-width="2.5"/><path d="M223.20894,313.71745c0.25347,-22.30881 18.30061,-38.15842 40.60941,-37.90495c22.30881,0.25347 39.98474,14.51194 39.73128,36.82075c-0.25347,22.30881 -18.25312,36.54192 -40.56192,36.28846c-22.30881,-0.25347 -40.03223,-12.89544 -39.77877,-35.20425z" data-paper-data="{&quot;index&quot;:null}" fill="#b3bfff" stroke="#252674" stroke-width="2.5"/><path d="M249.76082,278.71209c1.56875,-0.99814 13.23958,-2.43705 13.76982,-2.43103c22.30881,0.25347 39.98474,14.51194 39.73128,36.82075c-0.25347,22.30881 -18.25312,36.54192 -40.56192,36.28846c-1.04901,-0.01192 -4.70908,0.01751 -5.78529,-0.73629c-2.67829,-1.87591 -5.96353,-7.22828 -9.1596,-13.55893c-6.32261,-12.52357 -10.99137,-39.40681 -11.22723,-40.24723c-0.07117,-0.25358 8.12525,-12.88586 13.23295,-16.13572z" data-paper-data="{&quot;index&quot;:null}" fill="#8194ff" stroke="none" stroke-width="0"/><path d="M223.37096,313.87948c0.25347,-22.30881 18.30061,-38.15842 40.60941,-37.90495c22.30881,0.25347 39.98474,14.51194 39.73128,36.82075c-0.25347,22.30881 -18.25312,36.54192 -40.56192,36.28846c-22.30881,-0.25347 -40.03223,-12.89544 -39.77877,-35.20425z" data-paper-data="{&quot;index&quot;:null}" fill="none" stroke="#252674" stroke-width="2.5"/></g><path d="M111.44525,343.67164c7.53353,-2.24516 15.46072,2.04192 17.70588,9.57545c2.24516,7.53353 -2.04192,15.46072 -9.57545,17.70588c-7.53353,2.24516 -15.46072,-2.04192 -17.70588,-9.57545c-1.01032,-3.39009 -2.7298,-8.76457 -1.39397,-11.76045c1.63267,-3.66161 6.82598,-4.7106 10.96941,-5.94544z" fill="#8194ff" stroke="#252674" stroke-width="2.5" stroke-linecap="butt"/><path d="M200.68459,348.90527c-6.81303,2.03043 -8.8349,2.54743 -9.97442,-1.27621c-0.52778,-1.77096 -2.55969,-8.20869 1.34601,-10.94074c2.15734,-1.50907 4.76616,-3.14585 8.32961,-3.52823c0.8219,-0.08819 6.85101,-0.19932 10.51972,0.83777c3.87038,1.0941 5.26108,3.42928 0.95954,6.9624c-3.91034,3.21181 -9.03166,7.30462 -11.18046,7.94501z" fill="#8194ff" stroke="#252674" stroke-width="2.5" stroke-linecap="butt"/><path d="M107.37774,374.83725c-0.51521,-0.90041 2.82364,-5.24486 4.6073,-10.18896c2.54239,-7.04718 3.94407,-15.31266 3.78856,-16.55933c-0.28051,-2.24874 0.15378,-9.12616 6.61853,-10.81176c1.03249,-0.26921 17.40198,-0.14608 34.60792,-1.33416c20.37205,-1.4067 42.04781,-4.12726 42.69367,-4.04909c2.4265,0.29369 -3.89697,4.61999 -4.8673,10.39863c-0.21587,1.28554 0.58113,4.08529 1.75315,5.76381c0.80009,1.14585 2.00809,1.26059 2.27008,2.01676c0.10473,0.30232 -0.56373,2.1569 -2.92172,2.65884c-10.59548,2.25547 -42.4901,12.76715 -55.65432,17.35856c-1.33122,0.4643 -29.0803,11.415 -32.89587,4.7467z" fill="#475ac7" stroke="#252674" stroke-width="2.5" stroke-linecap="butt"/><g fill="#aa5880" stroke="#3e0e6c" stroke-width="2.5" stroke-linecap="butt"><path d="M308.82382,314.49948c14.44451,-19.06907 92.0928,-13.30391 189.68405,-13.30391c107.80333,0 195.1952,17.81449 195.1952,39.78979c0,21.9753 -87.39187,39.78979 -195.1952,39.78979c-107.80334,0 -191.44386,-15.67087 -191.44386,-37.64617c0,-2.0817 0.24831,-26.63409 1.75981,-28.6295z"/><path d="M307.25377,319.40092c0,-21.9753 87.39186,-39.78979 195.19519,-39.78979c107.80333,0 195.19519,17.81449 195.19519,39.78979c0,21.97529 -87.39186,39.78979 -195.19519,39.78979c-107.80333,0 -195.1952,-17.81449 -195.1952,-39.78979z"/></g><path d="M231.35257,311.05412c0,0 -2.57321,-8.70692 -2.1434,-9.23288c0.17346,-0.21227 3.63493,-4.96919 3.45851,-5.27039c-0.23809,-0.4065 -2.51669,-2.95429 -2.43395,-3.06461c2.35601,-3.14135 4.04032,-5.6977 4.04032,-5.6977" fill="none" stroke="#252674" stroke-width="2.5" stroke-linecap="round"/><g stroke-linecap="butt"><path d="M258.15466,276.53307c-0.06828,0.79521 -3.05188,1.75502 -6.66405,2.1438c-3.61217,0.38878 -6.27407,0.03659 -6.20578,-0.75862c0.0533,-0.62068 3.24332,-3.10029 4.03612,-3.18562c0.87599,-0.09428 8.88545,1.19808 8.83371,1.80044z" data-paper-data="{&quot;index&quot;:null}" fill="#252674" stroke="none" stroke-width="NaN"/><path d="M253.56132,289.4562c-4.90401,0.52781 -9.41948,0.44731 -12.01233,-0.88581c-6.49444,-3.26924 -0.21212,-7.19897 0.20247,-7.51564c2.81824,-2.15267 7.39389,-3.97438 12.71276,-4.54685c8.27303,-0.89042 14.72235,1.38383 14.40497,5.0797c-0.31739,3.69588 -7.03485,6.97817 -15.30788,7.86859z" data-paper-data="{&quot;index&quot;:null}" fill="#82c5ff" stroke="#252674" stroke-width="2.5"/><g><path d="M252.2923,283.54414c-2.67987,0.27889 -4.78147,-0.2994 -4.69407,-1.29166c0.08739,-0.99226 2.3307,-2.02274 5.01057,-2.30163c2.67987,-0.27889 4.78148,0.2994 4.69408,1.29166c-0.0874,0.99226 -2.33071,2.02275 -5.01058,2.30164z" fill="#82c5ff" stroke="#ffffff" stroke-width="2.5"/><path d="M252.27076,282.11783c-1.11386,0.10192 -1.99393,0.01873 -1.96569,-0.1858c0.02824,-0.20454 0.9541,-0.45295 2.06796,-0.55487c1.11386,-0.10192 1.99392,-0.01874 1.96568,0.1858c-0.02824,0.20454 -0.95409,0.45296 -2.06795,0.55488z" fill="#ffffff" stroke="none" stroke-width="0"/></g></g><g stroke-linecap="butt"><path d="M249.73907,335.81052c-1.06206,0.04654 -5.32655,-5.80309 -5.39536,-7.53774c-0.08816,-2.22244 3.48051,-4.18363 8.31949,-4.39572c4.83899,-0.21209 8.83324,1.41762 8.92139,3.64005c0.06678,1.68347 -10.67201,8.24197 -11.84552,8.29341z" fill="#252674" stroke="none" stroke-width="NaN"/><path d="M255.01063,293.48903c11.08283,-0.48577 20.07101,6.35218 20.4808,16.68129c0.40979,10.32911 -8.24243,19.09627 -19.32527,19.58204c-7.12534,0.31231 -13.24944,-3.17538 -17.01708,-8.23599c-0.55426,-0.74445 -8.95659,-9.56989 -0.23973,-21.16519c3.48024,-4.70816 9.53171,-6.57422 16.10129,-6.86216z" fill="#82c5ff" stroke="#252674" stroke-width="2.5"/><g><path d="M253.28021,298.50608c3.58865,-0.14138 6.59633,1.99319 6.71786,4.76766c0.12153,2.77449 -2.6891,5.13824 -6.27774,5.27962c-3.58864,0.14139 -6.59633,-1.99319 -6.71786,-4.76766c-0.12153,-2.77447 2.6891,-5.13822 6.27774,-5.27961z" fill="#82c5ff" stroke="#ffffff" stroke-width="2.5"/><path d="M257.17294,303.38504c0.06869,1.56818 -1.51993,2.90423 -3.54828,2.98413c-2.02836,0.0799 -3.72836,-1.12658 -3.79705,-2.69476c-0.06869,-1.56818 1.51994,-2.90423 3.54829,-2.98413c2.02836,-0.0799 3.72835,1.12658 3.79704,2.69476z" fill="#ffffff" stroke="none" stroke-width="0"/></g></g></g></g></svg>