<svg version="1.1" xmlns="http://www.w3.org/2000/svg" xmlns:xlink="http://www.w3.org/1999/xlink" width="312.31232" height="338.70968" viewBox="0,0,312.31232,338.70968"><g transform="translate(-172.1021,-9.89441)"><g data-paper-data="{&quot;isPaintingLayer&quot;:true}" fill-rule="nonzero" stroke-linejoin="miter" stroke-miterlimit="10" stroke-dasharray="" stroke-dashoffset="0" style="mix-blend-mode: normal"><g data-paper-data="{&quot;index&quot;:null}" stroke="#252674" stroke-width="2.5" stroke-linecap="butt"><path d="M339.86593,171.2059c-4.01345,-2.0141 -4.35731,-20.07651 -4.46675,-20.91123c-0.2702,-2.0607 4.95144,-2.9889 9.82891,0.1503c0.60764,0.39107 2.0742,1.28891 2.62923,1.79618c1.40229,1.28166 4.40765,14.83973 4.21281,15.02892c0,0 -9.81511,5.13477 -12.2042,3.93583z" fill="#8194ff"/><path d="M359.97693,236.33655c6.63961,1.61457 11.85028,7.44692 11.63832,13.02688c-0.08381,2.20659 2.2215,13.1944 -0.82464,16.89283c-3.19269,3.87639 -13.81375,4.14876 -20.2156,2.84967c-2.93607,-0.59581 -0.65563,-17.7432 -2.78011,-17.82863c-1.77887,-0.07153 -4.14721,1.78163 -6.11808,2.21638c-0.73333,0.16176 -2.37318,-0.40816 -2.52158,-0.57536c-1.74103,-1.9615 -1.06817,-7.62418 -0.89267,-8.25092c0.94608,-3.37843 13.58044,-8.62484 17.76306,-8.68965c1.13108,-0.01753 2.71804,0.05892 3.95128,0.35881z" data-paper-data="{&quot;index&quot;:null}" fill="#8194ff"/><path d="M339.54776,237.10981c0.05477,-0.13434 -1.12371,-41.28624 -1.81145,-68.4699c-0.01365,-0.53886 3.98195,-0.83715 7.96377,-2.23574c4.96737,-1.74478 6.63791,-4.52385 6.95608,-3.29977c5.61473,21.60144 17.55934,55.1639 21.4517,73.63012c1.75644,8.33297 -0.47561,12.23428 -0.4956,12.28334c-1.02162,2.50632 -35.08611,-9.40169 -34.06449,-11.90801z" data-paper-data="{&quot;index&quot;:null}" fill="#475ac7"/></g><g stroke="#252674" stroke-width="2.5" stroke-linecap="butt"><path d="M289.54677,250.23298c0.15621,-5.22946 5.74336,-10.48169 12.47927,-11.73113c1.25113,-0.23207 2.84069,-0.24116 3.96889,-0.18025c4.17195,0.22524 16.44111,5.63143 17.16304,8.82982c0.13392,0.59332 0.43245,5.91833 -1.4352,7.68517c-0.15917,0.1506 -1.83409,0.61936 -2.55564,0.43912c-1.93919,-0.48433 -4.18174,-2.31154 -5.9626,-2.31461c-2.12687,-0.00368 -0.98033,16.13071 -3.95115,16.57266c-6.47768,0.96364 -17.06452,0.29079 -19.99679,-3.46192c-2.79767,-3.58045 0.22842,-13.77094 0.29021,-15.83889z" data-paper-data="{&quot;index&quot;:null}" fill="#8194ff"/><path d="M321.84088,239.36327c0.85486,2.38533 -33.94252,12.18706 -34.79735,9.80174c-0.01673,-0.04668 -1.98819,-3.78491 0.3149,-11.5129c7.89125,-26.47899 28.9497,-86.21802 29.57847,-86.9586c1.71904,-2.0247 12.02358,3.10093 13.22201,2.7679c0.3345,-0.09296 -8.38653,85.71075 -8.31803,85.90185z" data-paper-data="{&quot;index&quot;:null}" fill="#475ac7"/></g><path d="M311.84039,200.99061c2.55635,-8.64733 7.18222,-6.4565 9.62155,-6.2096c2.77951,0.28136 7.76522,1.66245 8.35389,12.92861c0.40292,7.71132 -4.53588,112.44285 -4.79623,115.29632c-0.28492,3.12305 -40.34195,8.07447 -42.19258,2.91615c-5.56475,-15.51082 13.65069,-16.69426 13.65367,-16.72633c0,0 13.79746,-102.92069 15.35968,-108.20516z" data-paper-data="{&quot;index&quot;:null}" fill="#8194ff" stroke="#252674" stroke-width="2.5" stroke-linecap="butt"/><path d="M346.79807,203.63795c0.96748,4.70813 8.98148,85.45208 11.02532,105.79562c0.29936,2.97981 11.60833,-3.06564 14.75972,9.18168c0.84718,3.29249 -0.5702,9.71439 -0.97748,14.64878c-0.15634,1.89407 -32.00736,3.18631 -36.25627,-0.60423c-3.83284,-3.41932 -9.27877,-7.40528 -9.36576,-12.80365c-0.12603,-7.82003 1.78597,-40.68637 3.00891,-69.79685c0.93175,-22.17883 1.12617,-42.37054 1.69672,-46.50992c1.54036,-11.17585 4.25422,-6.8683 7.04758,-6.91333c2.45148,-0.03951 7.24623,-1.8308 9.06131,7.00187z" data-paper-data="{&quot;index&quot;:null}" fill="#8194ff" stroke="#252674" stroke-width="2.5" stroke-linecap="butt"/><path d="M317.91665,177.89991c-0.01018,-0.60357 -0.89109,-18.51655 -1.3387,-26.31115c-0.16819,-2.92898 7.5551,-8.61089 12.56932,-8.69554c4.43162,-0.07482 9.36041,1.63256 12.61688,5.10806c2.47799,2.64466 -2.20005,25.26488 -1.14249,30.06061c0.00202,0.00922 7.26926,20.69977 6.26657,21.42701c-1.93642,1.40448 -17.11057,7.23602 -17.20555,7.24315c-1.29095,0.09696 -15.84413,-6.43815 -15.90682,-7.87307c-0.04566,-1.04556 4.16143,-19.7371 4.14082,-20.95911z" fill="#b3bfff" stroke="#252674" stroke-width="2.5" stroke-linecap="butt"/><path d="M335.10476,179.23143c-0.43208,-13.18353 -2.46007,-27.11502 -2.23501,-28.4599c0.79561,-4.75395 3.59926,-4.29642 6.10599,-4.33873c1.10906,-0.01873 5.25175,5.86885 5.41793,10.91183c0.32254,9.79051 1.51346,26.04158 1.59315,26.34748c0.49625,1.90452 15.15484,38.30476 15.15776,38.47821c0.12717,7.5334 -1.25584,13.11867 -3.46262,16.31441c-0.54249,0.78561 -3.67974,-2.26495 -4.09238,-1.55092c-3.92236,6.78736 -9.0084,4.57949 -13.75299,-3.31954c-3.42592,-5.70365 -5.32337,-15.77993 -5.48858,-25.56616c-0.13389,-7.9309 1.11853,-17.77705 0.75672,-28.81669z" fill="#475ac7" stroke="#252674" stroke-width="2.5" stroke-linecap="butt"/><path d="M322.29634,176.45863c-0.86189,10.00838 -0.20936,19.01324 -0.71481,26.20957c-0.62369,8.8798 -2.82446,17.9367 -6.19232,22.94613c-4.66417,6.93757 -9.36045,8.68931 -12.57043,2.32941c-0.3377,-0.66905 -3.31641,1.94515 -3.7678,1.20461c-1.83623,-3.01242 -2.81323,-8.15399 -2.33311,-14.98963c0.01106,-0.15738 15.00299,-32.4862 15.54314,-34.19117c0.08675,-0.27384 1.94945,-14.97401 2.71535,-23.84986c0.39451,-4.57184 4.41805,-9.71258 5.41786,-9.6403c2.25979,0.16337 4.81173,-0.11245 5.29907,4.24484c0.13789,1.23267 -2.36767,13.78443 -3.39692,25.73644z" data-paper-data="{&quot;index&quot;:null}" fill="#475ac7" stroke="#252674" stroke-width="2.5" stroke-linecap="butt"/><path d="M338.07357,146.50519c0.05381,3.18734 -4.03511,4.68639 -9.10883,4.77205c-5.07372,0.08566 -9.21094,-1.27452 -9.26472,-4.46185c-0.05381,-3.18734 4.02344,-5.37893 9.09718,-5.46458c5.07372,-0.08566 9.22261,1.96706 9.27641,5.15438z" fill="#475ac7" stroke="#252674" stroke-width="2.5" stroke-linecap="butt"/><path d="M328.21927,135.31366c4.76112,-0.08039 6.39923,4.47351 6.47069,8.70562c0.02678,1.58677 -1.92195,2.93329 -3.98976,3.37784c-3.44728,0.74111 -7.77006,-0.46133 -7.81469,-3.10666c-0.07145,-4.2321 0.57265,-8.89641 5.33378,-8.97678z" fill="#b3bfff" stroke="#252674" stroke-width="2.5" stroke-linecap="butt"/><path d="M327.49238,27.18607c0.24142,-0.00065 13.37314,15.05664 16.89524,19.58011c0.79337,1.01892 3.01547,11.81743 3.78744,16.84675c1.23159,8.02388 -1.20164,12.25346 -1.21848,12.62619c-0.68684,15.19087 -14.74777,7.29776 -19.19963,7.30988c-4.95111,0.01351 -12.88025,-10.38603 -12.95578,-26.47569c-0.00106,-0.23213 5.79232,-26.83945 7.71843,-28.6938c0,0 4.09282,-1.19105 4.97277,-1.19346z" data-paper-data="{&quot;index&quot;:null}" fill="#8194ff" stroke="#252674" stroke-width="2.5" stroke-linecap="butt"/><g stroke-linecap="butt"><path d="M329.14072,141.43666c-23.85462,0.06504 -41.10681,-18.47443 -41.21576,-41.68423c-0.10895,-23.20979 14.83375,-41.80673 38.68839,-41.87178c23.85462,-0.06503 39.37778,18.44883 39.48671,41.65863c0.10895,23.20979 -13.10472,41.83234 -36.95938,41.89739z" data-paper-data="{&quot;index&quot;:null}" fill="#b3bfff" stroke="#252674" stroke-width="2.5"/><path d="M288.26036,100.21574c-0.10895,-23.20979 14.83374,-41.80673 38.68838,-41.87177c23.85462,-0.06503 39.3778,18.44885 39.48675,41.65863c0.01154,2.45498 -2.62045,16.33896 -3.55451,16.87465c-7.86243,4.50901 -34.22518,11.35342 -35.00879,11.57919c-0.26989,0.0778 -33.08132,-7.12043 -36.64272,-12.38566c0,0 -2.96648,-15.30334 -2.96909,-15.855z" data-paper-data="{&quot;index&quot;:null}" fill="#8194ff" stroke="none" stroke-width="0"/><path d="M329.51976,141.06555c-23.85462,0.06504 -41.10681,-18.47443 -41.21576,-41.68423c-0.10895,-23.20979 14.83375,-41.80673 38.68839,-41.87178c23.85462,-0.06503 39.37778,18.44883 39.48671,41.65863c0.10895,23.20979 -13.10472,41.83234 -36.95938,41.89739z" data-paper-data="{&quot;index&quot;:null}" fill="none" stroke="#252674" stroke-width="2.5"/></g><g><path d="M370.56033,112.60908c0.09475,1.18522 -5.94404,6.18897 -7.78574,6.33622c-2.35959,0.18866 -4.59721,-3.72067 -5.02897,-9.12082c-0.43177,-5.40014 1.13107,-9.93075 3.49065,-10.1194c1.78736,-0.1429 9.21934,11.59438 9.32407,12.90397z" fill="#252674" stroke="none" stroke-width="NaN" stroke-linecap="butt"/><path d="M340.88918,131.89629c0,0 -4.07068,3.78977 -5.72796,3.94237c-1.56707,0.14428 -7.89383,-2.63646 -7.95383,-2.5707c-0.01044,0.01144 -3.67192,3.03801 -5.26202,2.85884c-1.10818,-0.12489 -6.56327,-4.16447 -6.56327,-4.16447" fill="none" stroke="#252674" stroke-width="2.5" stroke-linecap="round"/><path d="M343.3968,84.61338c10.99998,-0.1854 20.0867,9.7212 20.29579,22.12697c0.13443,7.97587 -3.74597,14.73178 -9.23431,18.81112c-0.80738,0.60012 -10.42958,9.76254 -22.52322,-0.291c-2.14282,-1.75191 -8.10492,-11.6398 -6.53894,-20.93967c2.74034,-16.27404 11.79921,-19.60289 18.00066,-19.70741z" fill="#82c5ff" stroke="#252674" stroke-width="2.5" stroke-linecap="butt"/><g stroke-linecap="butt"><path d="M340.02292,107.11491c-0.32034,-4.00656 1.87935,-7.45116 4.9131,-7.69371c3.03376,-0.24256 5.7528,2.80876 6.07315,6.81532c0.32034,4.00655 -1.87934,7.45114 -4.91309,7.69369c-3.03375,0.24255 -5.75279,-2.80874 -6.07314,-6.8153z" fill="#82c5ff" stroke="#ffffff" stroke-width="2.5"/><path d="M345.18821,102.57534c1.71474,-0.13709 3.25159,1.58756 3.43263,3.85212c0.18105,2.26457 -1.06222,4.21154 -2.77696,4.34862c-1.71474,0.13709 -3.25159,-1.58758 -3.43263,-3.85214c-0.18105,-2.26457 1.06223,-4.21153 2.77696,-4.34861z" fill="#ffffff" stroke="none" stroke-width="0"/></g><path d="M291.95156,100.70484c2.0916,0.17822 3.4842,4.70181 3.11045,10.10375c-0.37376,5.40192 -2.35051,9.32107 -4.44212,9.14285c-1.63253,-0.13911 -6.99297,-5.11606 -6.91093,-6.30168c0.09065,-1.31002 6.65823,-13.07992 8.2426,-12.94492z" data-paper-data="{&quot;index&quot;:null}" fill="#252674" stroke="none" stroke-width="NaN" stroke-linecap="butt"/><path d="M323.72421,105.16201c1.40327,9.29275 -3.86459,19.20676 -5.76089,20.96812c-10.70198,10.10678 -19.24525,0.98709 -19.96181,0.39055c-4.87103,-4.055 -8.32135,-10.7936 -8.21537,-18.76989c0.16484,-12.40641 8.20205,-22.35296 17.95162,-22.21618c5.4965,0.0771 13.53085,3.36585 15.98646,19.62741z" data-paper-data="{&quot;index&quot;:null}" fill="#82c5ff" stroke="#252674" stroke-width="2.5" stroke-linecap="butt"/><g data-paper-data="{&quot;index&quot;:null}" stroke-linecap="butt"><path d="M316.15628,108.07773c-0.2773,4.00789 -2.68216,7.07114 -5.37137,6.842c-2.68921,-0.22913 -4.64445,-3.66392 -4.36714,-7.6718c0.2773,-4.00789 2.68215,-7.07117 5.37138,-6.84202c2.68921,0.22913 4.64445,3.66393 4.36715,7.67183z" fill="#82c5ff" stroke="#ffffff" stroke-width="2.5"/><path d="M314.0392,107.89733c-0.15672,2.26532 -1.51599,3.99675 -3.03599,3.86723c-1.51999,-0.12951 -2.62511,-2.07094 -2.46839,-4.33626c0.15672,-2.26532 1.51599,-3.99674 3.03599,-3.86722c1.51999,0.12951 2.62511,2.07093 2.46839,4.33625z" fill="#ffffff" stroke="none" stroke-width="0"/></g></g><path d="M172.1021,348.60409v-338.70968h312.31232v338.70968z" fill="none" stroke="none" stroke-width="none" stroke-linecap="butt"/></g></g></svg>