<svg version="1.1" xmlns="http://www.w3.org/2000/svg" xmlns:xlink="http://www.w3.org/1999/xlink" width="199.13544" height="182.72575" viewBox="0,0,199.13544,182.72575"><defs><radialGradient cx="91.07504" cy="66.37184" r="71.05124" gradientUnits="userSpaceOnUse" id="color-1"><stop offset="0" stop-color="#3e0e6b" stop-opacity="0.51373"/><stop offset="1" stop-color="#3e0e6b" stop-opacity="0"/></radialGradient><linearGradient x1="100.35023" y1="30.33016" x2="92.29847" y2="78.25781" gradientUnits="userSpaceOnUse" id="color-2"><stop offset="0" stop-color="#f2b34d"/><stop offset="1" stop-color="#f2544e"/></linearGradient><linearGradient x1="99.89874" y1="33.0177" x2="92.74998" y2="75.57027" gradientUnits="userSpaceOnUse" id="color-3"><stop offset="0" stop-color="#b9643b"/><stop offset="1" stop-color="#cb4641"/></linearGradient><linearGradient x1="99.62618" y1="34.64003" x2="93.02254" y2="73.94791" gradientUnits="userSpaceOnUse" id="color-4"><stop offset="0" stop-color="#f2b34d"/><stop offset="1" stop-color="#f2544e"/></linearGradient></defs><g transform="translate(12.21989,45.28798)"><g data-paper-data="{&quot;isPaintingLayer&quot;:true}" fill-rule="nonzero" stroke-linecap="butt" stroke-linejoin="miter" stroke-miterlimit="10" stroke-dasharray="" stroke-dashoffset="0" style="mix-blend-mode: normal"><path d="M154.13013,99.11836c-18.0854,34.82436 -60.97723,48.39398 -95.8016,30.30859c-34.82436,-18.0854 -48.39398,-60.97724 -30.30859,-95.80161c18.0854,-34.82436 60.97724,-48.39398 95.80161,-30.30859c34.82437,18.0854 48.39398,60.97724 30.30859,95.80161z" data-paper-data="{&quot;index&quot;:null}" fill="url(#color-1)" stroke="none" stroke-width="0"/><path d="M184.32006,-25.2642c5.73965,-1.68742 -8.5299,32.65867 -11.95913,38.78362c-1.4369,2.56643 0.207,9.92344 -7.01633,19.99858c-0.50585,0.70555 -3.91793,1.15411 -4.42824,1.86425c-9.66676,13.45287 -26.43826,36.44264 -26.50632,36.47247c-1.51281,0.66307 -21.87318,2.56601 -19.84792,-5.82215c0.0649,-0.26878 16.63738,-19.71475 26.42781,-30.2728c0.88447,-0.95383 -0.67033,-1.50328 0.20629,-2.4498c8.86686,-9.57372 17.0554,-26.80124 16.90013,-27.02481c-0.03195,-0.04598 -5.93732,4.1303 -3.63358,0.65448c5.73611,-8.65452 24.02529,-30.48925 29.85729,-32.20383z" data-paper-data="{&quot;index&quot;:null}" fill="#915c9c" stroke="#3e0e6c" stroke-width="2.5"/><path d="M138.68856,-14.59886c0.18926,0.44939 -10.39907,-5.02756 -10.73913,-4.92381c-1.30439,0.39798 -0.58835,-5.92807 -0.80722,-5.86921c-0.30488,0.08201 -4.82031,18.18243 -4.70362,31.34829c0.01152,1.30164 -1.12378,1.2952 -1.11125,2.60758c0.13881,14.52693 -0.69639,32.69838 -0.84935,32.9535c-4.77364,7.96176 -23.21164,1.68557 -23.98265,0.21454c-0.03468,-0.06618 5.09454,-23.29727 7.30148,-40.06004c0.11649,-0.88487 -1.09767,-0.27271 -0.98096,-1.15114c1.66666,-12.54384 5.8502,-26.06405 6.61695,-29.00853c1.82991,-7.02717 15.67033,-19.33953 19.23673,-14.42013c5.07914,7.00608 7.72203,22.85445 10.019,28.30895z" data-paper-data="{&quot;index&quot;:null}" fill="#915c9c" stroke="#3e0e6c" stroke-width="2.5"/><path d="" data-paper-data="{&quot;index&quot;:null}" fill="#915c9c" stroke="#3e0e6c" stroke-width="2.5"/><g><path d="M55.20415,48.54388c2.09917,-12.0365 8.52353,-21.71845 17.46929,-27.62956c0.5262,-0.3477 -0.27647,-1.40339 0.2668,-1.72471c7.83831,-4.63588 18.75374,-5.77487 28.9686,-3.9934c0.7873,0.13729 2.00661,-0.85092 2.77147,-0.68069c11.84125,2.6351 21.02701,9.77064 26.22327,18.94089c0.34912,0.61612 1.27713,0.61348 1.58954,1.24679c3.69634,7.49352 4.2173,16.79555 2.58983,26.12739c-0.20804,1.19288 1.59651,1.74372 1.29838,2.8843c-2.52518,9.66053 -8.84456,18.54767 -16.96506,23.76916c-0.72649,0.46714 -1.2928,-0.09604 -2.04976,0.32793c-8.72375,4.88624 -19.39319,6.86522 -30.2096,4.97885c-0.73602,-0.12837 -1.52558,0.06333 -2.25066,-0.09709c-14.91818,-3.30049 -26.52251,-14.16157 -30.45281,-26.05806c-0.41851,-1.26676 1.11717,-0.57277 0.83849,-1.91027c-1.03569,-4.97036 -1.09419,-10.41045 -0.08773,-16.18153zM95.64859,71.06854c17.64719,3.07768 15.39455,-3.16963 18.47223,-20.81685c3.07767,-17.6472 0.21207,-5.70732 -17.43512,-8.785c-17.64719,-3.07768 -4.24931,-5.43956 -7.32699,12.20764c-3.07767,17.6472 -12.5211,18.00076 5.12609,21.07844z" fill="#75587b" stroke="#3e0e6c" stroke-width="2.5"/><path d="M131.22092,60.39186c-4.01531,19.78602 -21.18287,33.84665 -38.34485,31.4053c-17.16196,-2.44134 -27.81944,-20.46018 -23.80412,-40.2462c4.01531,-19.78601 21.18287,-33.84664 38.34484,-31.40528c17.16196,2.44134 27.81945,20.46018 23.80413,40.2462z" fill="#762e36" stroke="#3e0e6c" stroke-width="2.5"/><g fill="#4e175c" stroke="none" stroke-width="0"><g><g><path d="M101.66671,26.20604c0.06741,-1.30999 1.93449,-2.45376 4.17026,-2.55469c2.23577,-0.10093 3.99355,0.87922 3.92613,2.18921c-0.05028,0.97724 -3.7586,5.56512 -4.32649,5.59075c-1.01864,0.04599 -3.80658,-4.51216 -3.7699,-5.22529z"/><path d="M110.29636,25.92112c0.56598,-1.19102 2.5916,-1.26836 4.52432,-0.17274c1.93272,1.0956 3.04066,2.94929 2.47469,4.1403c-0.42222,0.8885 -5.34516,3.21139 -5.83608,2.93311c-0.88057,-0.49918 -1.47105,-6.25229 -1.16294,-6.90068z"/><path d="M117.76175,30.184c0.77844,-1.02771 2.71484,-0.54129 4.32513,1.08644c1.61029,1.62774 2.28465,3.78045 1.50623,4.80817c-0.58071,0.76669 -5.72022,1.70893 -6.12924,1.29548c-0.73368,-0.74164 -0.12589,-6.6306 0.29788,-7.19008z"/><path d="M127.15975,39.87295c0.73146,2.38168 0.46632,4.75684 -0.59219,5.305c-0.78963,0.40895 -5.50846,-1.44445 -5.69426,-2.04942c-0.33326,-1.08514 2.46917,-6.27705 3.04541,-6.57548c1.05851,-0.54816 2.50957,0.93818 3.24103,3.31988z"/><path d="M127.75401,45.79599c1.11023,0.04314 1.77192,2.20243 1.47794,4.82292c-0.29397,2.62051 -1.43233,4.70987 -2.54254,4.66676c-0.82822,-0.03218 -4.12568,-4.25724 -4.05101,-4.92286c0.13395,-1.19395 4.51124,-4.59031 5.11562,-4.56683z"/></g><g data-paper-data="{&quot;index&quot;:null}"><path d="M101.60365,25.83023c-0.03669,0.71313 -3.30782,5.54476 -4.32647,5.59075c-0.56789,0.02565 -3.82019,-4.24803 -3.76992,-5.22528c0.06741,-1.30999 1.93448,-2.45376 4.17024,-2.55468c2.23577,-0.10093 3.99354,0.87921 3.92614,2.1892z"/><path d="M92.96322,26.32492c0.24267,0.6235 -0.94405,6.45686 -1.88023,7.03805c-0.52192,0.32401 -5.22815,-1.56423 -5.56068,-2.41864c-0.44576,-1.14535 0.85858,-3.10791 2.91333,-4.38353c2.05475,-1.27562 4.08183,-1.38123 4.52757,-0.23588z"/><path d="M85.02332,31.28324c0.36803,0.52374 0.37114,6.38512 -0.44245,7.1966c-0.45359,0.45239 -5.51982,-0.02917 -6.02415,-0.74685c-0.67605,-0.96206 0.22354,-3.1858 2.00925,-4.96686c1.7857,-1.78104 3.78132,-2.44495 4.45736,-1.48289z"/><path d="M78.18062,38.2391c0.54812,0.24766 2.82805,5.21018 2.38131,6.33052c-0.24906,0.62458 -5.18108,2.91362 -5.9322,2.57424c-1.00688,-0.45494 -1.02824,-2.81714 -0.04767,-5.27611c0.98055,-2.45897 2.59169,-4.08358 3.59857,-3.62864z"/><path d="M73.37401,47.87214c0.60962,-0.07829 4.65694,2.93776 4.66834,4.12515c0.00634,0.66196 -3.74233,5.20511 -4.57774,5.31239c-1.11985,0.1438 -2.04793,-1.85231 -2.07295,-4.45841c-0.02501,-2.6061 0.86251,-4.83533 1.98235,-4.97912z"/></g></g><g data-paper-data="{&quot;index&quot;:null}"><g><path d="M97.62063,85.5982c0.05221,-0.71364 3.42072,-5.47263 4.43777,-5.49305c0.567,-0.0114 3.71751,4.35273 3.64596,5.33066c-0.09589,1.31091 -1.98324,2.40999 -4.2155,2.45484c-2.23226,0.04485 -3.96412,-0.98152 -3.86823,-2.29244z"/><path d="M106.24985,85.32003c-0.22841,-0.63088 1.08289,-6.44604 2.0294,-7.00481c0.52769,-0.31151 5.18057,1.69896 5.49357,2.56346c0.41956,1.15887 -0.92438,3.09254 -3.00178,4.31898c-2.0774,1.22644 -4.10162,1.28124 -4.52118,0.12237z"/><path d="M114.27799,80.55166c-0.35563,-0.53405 -0.23052,-6.40726 0.59876,-7.19988c0.46233,-0.44188 5.50511,0.16817 5.99244,0.90002c0.65325,0.98099 -0.29267,3.18657 -2.11277,4.92622c-1.8201,1.73965 -3.82517,2.35465 -4.47842,1.37366z"/><path d="M121.25539,73.75411c-0.54133,-0.26196 -2.70684,-5.2918 -2.23672,-6.40315c0.26208,-0.61958 5.23158,-2.78905 5.97337,-2.43007c0.99437,0.48121 0.96399,2.84865 -0.06785,5.28788c-1.03184,2.43922 -2.67442,4.02653 -3.66879,3.54534z"/><path d="M126.26049,64.22276c-0.60979,0.06308 -4.58081,-3.0609 -4.5662,-4.25095c0.00815,-0.66345 3.84665,-5.12132 4.68227,-5.20778c1.12014,-0.11588 2.00219,1.90759 1.97014,4.51953c-0.03205,2.61194 -0.96608,4.8233 -2.0862,4.93919z"/></g><g data-paper-data="{&quot;index&quot;:null}"><path d="M93.29489,88.43447c-2.23228,0.04485 -3.96413,-0.98152 -3.86823,-2.29243c0.07153,-0.97795 3.87075,-5.48167 4.43776,-5.49306c1.01705,-0.02044 3.69819,4.61702 3.64598,5.33066c-0.09589,1.31091 -1.98324,2.40997 -4.21551,2.45482z"/><path d="M84.37996,86.10708c-1.90382,-1.14647 -2.96842,-3.03175 -2.37781,-4.2109c0.44057,-0.87964 5.40176,-3.08327 5.88535,-2.79206c0.86743,0.52235 1.33052,6.30186 1.00901,6.94378c-0.5906,1.17915 -2.61273,1.20567 -4.51655,0.05921z"/><path d="M77.2531,80.391c-1.57057,-1.67155 -2.19612,-3.84552 -1.3972,-4.85571c0.59601,-0.7536 5.74302,-1.56835 6.14195,-1.14377c0.71558,0.76158 -0.0195,6.64705 -0.45443,7.197c-0.79891,1.01019 -2.71977,0.47405 -4.29035,-1.19751z"/><path d="M72.38135,71.64351c-0.67749,-2.40489 -0.36105,-4.77808 0.70674,-5.30071c0.79657,-0.38988 5.46282,1.58602 5.63491,2.19688c0.30867,1.0957 -2.60021,6.22748 -3.1815,6.51199c-1.0678,0.52263 -2.48266,-1.00325 -3.16015,-3.40815z"/><path d="M70.54954,60.82387c0.35055,-2.61836 1.5317,-4.68325 2.63814,-4.6121c0.8254,0.05309 4.02205,4.36962 3.93301,5.03471c-0.15971,1.19297 -4.60017,4.48592 -5.2025,4.44719c-1.10645,-0.07115 -1.7192,-2.25143 -1.36866,-4.8698z"/></g></g></g><g><path d="M71.94436,49.88986c2.22343,-13.23485 14.94119,-21.99203 28.4059,-19.55971c13.4647,2.43232 22.57756,15.13311 20.35412,28.36798c-2.22343,13.23485 -14.94119,21.99203 -28.40588,19.5597c-13.4647,-2.43233 -22.57755,-15.1331 -20.35413,-28.36795z" fill="url(#color-2)" stroke="#3e0e6c" stroke-width="2.5"/><path d="M74.67855,50.38378c1.97409,-11.75057 13.26555,-19.52565 25.22019,-17.36608c11.95465,2.15957 20.04548,13.43592 18.07143,25.1865c-1.97409,11.75058 -13.26554,19.52565 -25.22018,17.3661c-11.95464,-2.15957 -20.0455,-13.43593 -18.07141,-25.18651z" fill="url(#color-3)" stroke="none" stroke-width="0"/><path d="M76.32909,50.68194c1.82356,-10.85457 12.25402,-18.03678 23.2971,-16.04189c11.04309,1.99486 18.517,12.41141 16.69344,23.26598c-1.82355,10.85457 -12.25403,18.03677 -23.29711,16.0419c-11.04309,-1.99486 -18.51699,-12.41143 -16.69343,-23.26599z" fill="url(#color-4)" stroke="none" stroke-width="0"/></g><g fill="#ffe1da" stroke="#3e0e6c" stroke-width="2.5"><g><g><path d="M110.46926,22.65128c2.32064,0.26954 3.99944,1.60653 3.74976,2.98622c-0.18628,1.02926 -4.64329,5.27627 -5.23273,5.2078c-1.05732,-0.12281 -3.30697,-5.43281 -3.17104,-6.1839c0.24968,-1.37971 2.33337,-2.27966 4.65401,-2.01012z"/><path d="M114.75813,25.81294c0.74774,-1.16937 2.84834,-0.91021 4.69177,0.57889c1.84342,1.48908 2.73165,3.64417 1.9839,4.81353c-0.55782,0.87232 -5.95652,2.50949 -6.42476,2.13125c-0.8399,-0.67847 -0.65797,-6.88712 -0.25091,-7.52371z"/><path d="M121.87438,31.59755c0.94447,-0.96016 2.87552,-0.11737 4.31309,1.88246c1.43757,1.99981 1.83732,4.39937 0.89284,5.35954c-0.70458,0.71628 -6.13689,0.85088 -6.50204,0.34289c-0.65497,-0.91116 0.78195,-7.06218 1.29611,-7.58488z"/><path d="M130.23843,43.46969c0.42714,2.65234 -0.17302,5.12978 -1.34052,5.53354c-0.87095,0.30119 -5.48477,-2.46199 -5.59327,-3.1357c-0.19461,-1.20846 3.4108,-6.24948 4.04639,-6.46928c1.16751,-0.40375 2.46025,1.41909 2.88739,4.07145z"/><path d="M130.03702,49.85943c1.13954,0.23286 1.5253,2.6373 0.86162,5.37045c-0.66369,2.73314 -2.12551,4.76002 -3.26506,4.52716c-0.85009,-0.17371 -3.67128,-5.21587 -3.50269,-5.91011c0.30239,-1.24527 5.28578,-4.11425 5.90612,-3.98749z"/></g><g data-paper-data="{&quot;index&quot;:null}"><path d="M105.80185,24.25173c-0.13593,0.75109 -4.1754,5.3306 -5.23272,5.20779c-0.58943,-0.06847 -3.35734,-5.15463 -3.17105,-6.18389c0.24968,-1.37971 2.33337,-2.27968 4.65399,-2.01012c2.32064,0.26954 3.99946,1.60654 3.74976,2.98624z"/><path d="M96.81899,23.32116c0.16462,0.70298 -1.86198,6.6974 -2.9078,7.15682c-0.58304,0.25612 -5.17906,-2.54196 -5.40464,-3.50529c-0.30241,-1.29135 1.31324,-3.15559 3.60867,-4.16394c2.29542,-1.00834 4.40139,-0.77894 4.70379,0.5124z"/><path d="M87.94508,27.24851c0.30769,0.61817 -0.49515,6.84284 -1.44617,7.56746c-0.5302,0.40396 -5.69112,-0.96104 -6.11275,-1.80813c-0.56521,-1.13552 0.66878,-3.3453 2.7561,-4.9357c2.08732,-1.5904 4.23762,-1.95914 4.80284,-0.82362z"/><path d="M79.92852,33.4819c0.53148,0.35535 2.20135,6.00916 1.58633,7.12356c-0.34286,0.62127 -5.74627,2.22098 -6.47458,1.73402c-0.9763,-0.65276 -0.67349,-3.16475 0.67636,-5.61069c1.34985,-2.44593 3.2356,-3.89964 4.21189,-3.24688z"/><path d="M73.64453,42.90124c0.63973,0.0196 4.40084,3.90428 4.24931,5.16707c-0.08449,0.70399 -4.57698,4.89667 -5.45365,4.86982c-1.17516,-0.036 -1.85825,-2.31202 -1.52568,-5.08361c0.33258,-2.77159 1.55483,-4.98927 2.73002,-4.95327z"/></g></g><g data-paper-data="{&quot;index&quot;:null}"><g><path d="M93.47311,87.04767c0.15202,-0.74902 4.28193,-5.23497 5.33409,-5.08528c0.58658,0.08344 3.23699,5.24851 3.02869,6.27493c-0.27922,1.37589 -2.37765,2.22496 -4.68698,1.89646c-2.30933,-0.3285 -3.95503,-1.7102 -3.67581,-3.0861z"/><path d="M102.41464,88.20627c-0.1489,-0.70839 2.00373,-6.66252 3.05713,-7.09641c0.58727,-0.24188 5.11146,2.67701 5.31551,3.64776c0.27354,1.30128 -1.37902,3.12818 -3.69107,4.0805c-2.31205,0.9523 -4.40806,0.66943 -4.68159,-0.63186z"/><path d="M111.35346,84.49548c-0.29348,-0.62703 0.64329,-6.84265 1.60789,-7.54461c0.53777,-0.39132 5.65682,1.10616 6.05899,1.96541c0.53909,1.1518 -0.74018,3.33447 -2.85733,4.87511c-2.11714,1.54065 -4.27047,1.85586 -4.80955,0.70408z"/><path d="M119.48724,78.45288c-0.5225,-0.36938 -2.06508,-6.0754 -1.42719,-7.17631c0.35563,-0.61375 5.78128,-2.08016 6.49727,-1.57398c0.95978,0.67853 0.60285,3.18739 -0.79721,5.60372c-1.40007,2.41633 -3.31309,3.82511 -4.27286,3.14657z"/><path d="M125.96204,69.17498c-0.6378,-0.03576 -4.30535,-4.02218 -4.12662,-5.28342c0.09964,-0.70314 4.67309,-4.79014 5.54714,-4.74115c1.17163,0.06568 1.80345,2.363 1.41119,5.13121c-0.39227,2.76821 -1.66007,4.95903 -2.8317,4.89335z"/></g><g data-paper-data="{&quot;index&quot;:null}"><path d="M88.61996,89.33057c-2.30933,-0.3285 -3.95504,-1.71019 -3.67583,-3.08609c0.2083,-1.02643 4.74753,-5.16873 5.3341,-5.08529c1.05217,0.14967 3.18071,5.52591 3.0287,6.27493c-0.27921,1.37589 -2.37765,2.22497 -4.68697,1.89645z"/><path d="M79.74196,85.35701c-1.80662,-1.53821 -2.64576,-3.71956 -1.87424,-4.87218c0.57553,-0.85983 5.99733,-2.36392 6.45622,-1.97322c0.82313,0.70084 0.50616,6.91607 0.08616,7.54354c-0.77152,1.15262 -2.86151,0.84005 -4.66815,-0.69815z"/><path d="M73.17483,78.08633c-1.39058,-2.03965 -1.73703,-4.45358 -0.77381,-5.39167c0.71855,-0.69981 6.14109,-0.69774 6.49431,-0.17967c0.63358,0.92929 -0.93421,7.05517 -1.45856,7.56585c-0.96321,0.93808 -2.87134,0.04512 -4.26192,-1.99452z"/><path d="M69.35133,67.97658c-0.3683,-2.66786 0.28454,-5.13466 1.45812,-5.5097c0.8755,-0.27977 5.4182,2.60465 5.51175,3.28231c0.16779,1.21552 -3.5392,6.17477 -4.17808,6.37895c-1.17359,0.37506 -2.42351,-1.48367 -2.79179,-4.15156z"/><path d="M68.94925,56.17865c0.72177,-2.72133 2.22438,-4.71503 3.35618,-4.45304c0.84431,0.19544 3.54889,5.31776 3.36556,6.009c-0.32886,1.23989 -5.36318,3.98847 -5.9793,3.84584c-1.13179,-0.26201 -1.46421,-2.68046 -0.74244,-5.4018z"/></g></g></g><path d="M92.69965,53.99075c-0.88666,4.36919 -3.61916,12.95757 -3.88825,12.9193c-0.27859,-0.03962 0.56025,-9.00121 1.42644,-13.2695c0.94191,-4.64137 3.64471,-12.95392 3.88822,-12.91927c0.19289,0.02744 -0.37523,8.08966 -1.42641,13.26948z" fill="#3e0e6c" stroke="none" stroke-width="0"/></g><path d="M16.90798,14.13232c2.926,2.94718 -3.7349,0.18647 -3.75878,0.24099c-0.116,0.26505 8.5219,19.28753 19.10906,26.77796c1.04669,0.74054 -0.57871,1.84794 0.47715,2.59395c11.68762,8.2576 28.68047,16.68209 28.7932,16.93816c0.11273,0.25607 2.90044,1.95713 3.56063,5.98022c0.732,4.46071 -5.31591,9.11776 -6.17516,8.96251c-0.85925,-0.15524 -30.86148,-12.47474 -42.93857,-23.69489c-0.63753,-0.59229 -1.34681,2.26474 -1.97907,1.67601c-9.02843,-8.40707 -12.46123,-22.8338 -14.35694,-25.07559c-1.38385,1.98957 -4.61067,-9.52671 -4.61931,-19.94396c-0.00253,-3.04461 -1.41398,1.42388 -1.25068,-1.6758c0.19733,-3.74553 -5.9066,-15.90326 -4.53965,-21.33151c1.57392,-6.25013 10.69929,-5.55737 11.89881,-5.50164c6.15074,0.28581 8.49381,26.71536 15.77932,34.05361z" data-paper-data="{&quot;index&quot;:null}" fill="#915c9c" stroke="#3e0e6c" stroke-width="2.5"/><path d="M36.36886,-10.23915c-0.3543,0.02961 -12.40745,3.01035 -12.39812,2.52283c0.11296,-5.91733 0.94392,-15.5883 3.06634,-23.97746c1.4903,-5.89056 18.90709,0.41874 23.20999,6.26807c1.80297,2.45096 16.17118,19.00887 22.36606,30.04287c0.43382,0.7727 -2.5449,0.28423 -2.1089,1.063c8.2596,14.75263 6.70979,13.28927 6.70979,13.28927c0,0 2.49312,4.58936 -0.00259,8.17869c-3.16442,4.55109 -12.8099,2.86964 -12.8099,2.86964c0,0 -6.22468,-3.07674 -11.47716,-16.62157c-0.47452,-1.22364 -0.49308,-1.58277 -0.96456,-2.79608c-4.76882,-12.27239 -16.7018,-26.62667 -17.01536,-26.5899c-0.2251,0.02641 2.78344,5.63714 1.42443,5.75067z" data-paper-data="{&quot;index&quot;:null}" fill="#915c9c" stroke="#3e0e6c" stroke-width="2.5"/></g></g></svg>