<svg version="1.1" xmlns="http://www.w3.org/2000/svg" xmlns:xlink="http://www.w3.org/1999/xlink" width="24" height="24" viewBox="0,0,24,24"><g transform="translate(-390.65945,-333.9027)"><g data-paper-data="{&quot;isPaintingLayer&quot;:true}" fill-rule="nonzero" stroke-linejoin="miter" stroke-miterlimit="10" stroke-dasharray="" stroke-dashoffset="0" style="mix-blend-mode: normal"><path d="M390.65945,357.9027v-24h24v24z" fill-opacity="0.40784" fill="#450031" stroke="none" stroke-width="0" stroke-linecap="butt"/><g fill="none" stroke="#801375" stroke-width="2.5"><path d="M407.83452,347.6829c0.2414,0.62223 0.37383,1.29883 0.37383,2.00635c0,3.06457 -2.48432,5.5489 -5.54889,5.5489c-3.06457,0 -5.54889,-2.48433 -5.54889,-5.5489c0,-0.55132 0.08041,-1.08386 0.23013,-1.58654" stroke-linecap="butt"/><path d="M397.73579,344.00199c-0.16589,-0.20644 -0.96083,-6.28067 -0.8397,-6.49989c0.12955,-0.23447 3.70606,-0.92851 5.5615,-0.93482c1.88456,-0.00641 5.63792,0.86566 5.65987,0.89664c0.17816,0.25151 -0.7175,6.48096 -0.87786,6.6144c-0.27024,0.22488 -3.2557,0.7769 -4.81841,0.76436c-1.60415,-0.01288 -4.62854,-0.76993 -4.6854,-0.84069z" stroke-linecap="butt"/><path d="M407.40936,343.91884c1.59081,0.52141 2.59742,1.29211 2.59742,2.15195c0,1.57043 -3.35787,2.84351 -7.5,2.84351c-4.14213,0 -7.5,-1.27308 -7.5,-2.84351c0,-0.95022 1.22935,-1.79158 3.11795,-2.30793" stroke-linecap="butt"/><path d="M394.83893,346.58606c0,0 -1.62204,-4.04945 -1.48855,-4.35114c0.07597,-0.17169 0.55705,-3.46802 1.23226,-3.78176c0.56434,-0.26222 1.97385,0.95733 1.97385,0.95733" stroke-linecap="round"/><path d="M408.76241,339.41049c0,0 1.40952,-1.21955 1.97386,-0.95733c0.67521,0.31374 1.15629,3.61007 1.23226,3.78176c0.13349,0.30169 -1.48856,4.35114 -1.48856,4.35114" data-paper-data="{&quot;index&quot;:null}" stroke-linecap="round"/><path d="M407.45367,342.86778c0,0 -3.2219,0.69106 -4.8374,0.69106c-1.64938,0 -4.95935,-0.69106 -4.95935,-0.69106" stroke-linecap="round"/></g></g></g></svg>