<svg version="1.1" xmlns="http://www.w3.org/2000/svg" xmlns:xlink="http://www.w3.org/1999/xlink" width="322.09047" height="239.45122" viewBox="0,0,322.09047,239.45122"><g transform="translate(-108.90206,-94.64022)"><g data-paper-data="{&quot;isPaintingLayer&quot;:true}" fill-rule="nonzero" stroke-linejoin="miter" stroke-miterlimit="10" stroke-dasharray="" stroke-dashoffset="0" style="mix-blend-mode: normal"><path d="M364.12994,321.79645c-0.3639,1.77119 12.51615,-15.29083 14.27455,-35.70373c0.27744,-3.22077 -5.03224,-6.1224 -5.09032,-9.473c-0.02697,-1.55591 9.94512,-3.72639 9.74323,-5.28692c-0.18626,-1.43966 -6.16183,-4.81551 -6.47756,-6.23681c-0.37703,-1.69725 10.122,-9.45849 8.85194,-11.27072c-1.28811,-1.83798 -10.42309,3.11902 -11.57832,1.2788c-1.00581,-1.6022 19.92853,-19.46566 18.93847,-20.84856c-21.50387,-30.03609 -43.58492,-33.10377 -47.42405,-33.89254c-7.38042,-1.51635 -12.3493,-7.68158 -11.09831,-13.77043c1.25099,-6.08885 8.24813,-9.79558 15.62855,-8.27923c4.05648,0.83343 54.81529,8.84073 76.30192,44.88998c9.18256,15.40608 -0.43494,32.87463 -17.94117,59.30257c-16.05982,24.24443 -43.85936,37.97856 -44.12893,39.2906z" data-paper-data="{&quot;index&quot;:null}" fill="#ffffff" stroke="#3e0e6c" stroke-width="2.5" stroke-linecap="butt"/><path d="" fill="#ffffff" stroke="#3e0e6c" stroke-width="2.5" stroke-linecap="butt"/><path d="" fill="#3e0e6c" stroke="none" stroke-width="0" stroke-linecap="butt"/><path d="M187.92887,217.82418c-21.48068,-17.27905 -38.66592,-83.64078 -49.59066,-82.54862c-15.81816,11.63485 -25.48127,86.07867 -27.34265,86.07867c-0.96108,0 -4.31611,-64.08155 14.80528,-100.69116c11.95148,-22.88215 49.01101,-25.23561 50.57522,-24.71077c16.35257,5.48681 32.19912,48.13998 55.95312,73.0277c6.42788,6.73467 51.57006,-25.29099 76.76045,-42.83757c9.74517,-6.78808 47.62734,-22.17086 64.66721,-7.0331c29.30779,26.03626 50.64037,88.30279 32.53454,104.01148c-11.6854,10.1383 -40.89274,-15.95934 -78.15499,-13.01466c-68.84097,5.44021 -128.16181,17.4076 -140.20752,7.71803z" fill="#ffffff" stroke="#3e0e6c" stroke-width="2.5" stroke-linecap="butt"/><path d="M218.12956,147.51889c13.48129,-2.118 69.92457,-14.66841 91.84384,-29.93646c9.74517,-6.78808 47.62734,-22.17086 64.66721,-7.0331c29.30779,26.03626 50.64037,88.30278 32.53454,104.01147c-11.6854,10.1383 -40.89274,-15.95934 -78.15499,-13.01466c-38.36172,3.03157 -75.96158,-14.37044 -95.60682,-28.65963c-1.92771,-1.40214 3.01354,-7.62018 1.61581,-8.92147c-8.5148,-7.92731 -18.91146,-16.13008 -16.8996,-16.44616z" fill="#ffffff" stroke="#3e0e6c" stroke-width="2.5" stroke-linecap="butt"/><path d="M335.95606,207.36841c0,-2.7167 3.19404,13.65341 13.11035,25.62367c2.66364,3.21535 9.39165,6.11324 12.3875,8.23848c10.83915,7.68922 24.29553,-1.37634 29.69099,-2.15475c7.39584,-1.06701 21.54307,-5.98435 22.31515,-15.57262c1.0462,-12.9924 -12.61027,-31.69405 -8.8154,-34.22552c0.34997,-0.23346 -6.6976,-9.18274 -14.88437,-12.30279c-14.06679,-5.36097 -32.75211,-6.06459 -32.11758,-6.41667c6.03808,-3.35046 12.9872,-5.25839 20.38195,-5.25839c23.23384,0 42.0686,18.83475 42.0686,42.0686c0,23.23385 -18.83476,42.0686 -42.0686,42.0686c-23.23384,0 -42.06859,-18.83476 -42.06859,-42.0686z" fill="#ffffff" stroke="#3e0e6c" stroke-width="2.5" stroke-linecap="butt"/><path d="M331.31657,202.04296c0,0 -0.58569,3.33047 -1.54915,4.69537c-0.74491,1.0553 -2.8639,2.80683 -2.8639,2.80683" fill="none" stroke="#3e0e6c" stroke-width="2.5" stroke-linecap="round"/><path d="M296.01205,200.94603c0,0 -2.56293,7.45493 -5.23601,9.69454c-2.76649,2.31787 -8.00317,5.75118 -8.00317,5.75118" fill="none" stroke="#3e0e6c" stroke-width="2.5" stroke-linecap="round"/><path d="M256.73581,186.82423c0,0 -5.74872,18.23983 -9.97089,23.23607c-1.35816,1.60715 -3.2867,5.14123 -5.32737,6.21357c-4.83418,2.54028 -10.29751,3.20703 -10.29751,3.20703" fill="none" stroke="#3e0e6c" stroke-width="2.5" stroke-linecap="round"/><g stroke-linecap="butt"><path d="M334.08072,213.30839c0,-9.25533 7.50292,-16.75825 16.75825,-16.75825c9.25533,0 16.75826,7.50292 16.75826,16.75825c0,9.25533 -7.50293,16.75825 -16.75826,16.75825c-9.25533,0 -16.75825,-7.50292 -16.75825,-16.75825z" fill="#ffffff" stroke="#3e0e6c" stroke-width="2.5"/><path d="M336.22058,213.30839c0,-8.07353 6.54488,-14.61841 14.61841,-14.61841c8.07353,0 14.61841,6.54488 14.61841,14.61841c0,8.07353 -6.54489,14.61841 -14.61841,14.61841c-8.07353,0 -14.61841,-6.54488 -14.61841,-14.61841z" fill="#ffffff" stroke="#3e0e6c" stroke-width="1.5"/><path d="M337.48423,213.30839c0,-7.37563 5.97912,-13.35475 13.35475,-13.35475c7.37563,0 13.35476,5.97912 13.35476,13.35475c0,7.37563 -5.97913,13.35475 -13.35476,13.35475c-7.37563,0 -13.35475,-5.97912 -13.35475,-13.35475z" fill="#ffffff" stroke="#3e0e6c" stroke-width="1"/><path d="M339.08912,213.30839c0,-6.48928 5.2606,-11.74987 11.74987,-11.74987c6.48928,0 11.74988,5.2606 11.74988,11.74987c0,6.48928 -5.2606,11.74987 -11.74988,11.74987c-6.48928,0 -11.74987,-5.2606 -11.74987,-11.74987z" fill="#3e0e6c" stroke="none" stroke-width="0"/></g><g stroke-linecap="butt"><path d="M382.63811,223.26829c0,-9.25533 7.50292,-16.75825 16.75825,-16.75825c9.25533,0 16.75826,7.50292 16.75826,16.75825c0,9.25533 -7.50293,16.75825 -16.75826,16.75825c-9.25533,0 -16.75825,-7.50292 -16.75825,-16.75825z" fill="#ffffff" stroke="#3e0e6c" stroke-width="2.5"/><path d="M384.77796,223.26829c0,-8.07353 6.54488,-14.61841 14.61841,-14.61841c8.07353,0 14.61841,6.54488 14.61841,14.61841c0,8.07353 -6.54489,14.61841 -14.61841,14.61841c-8.07353,0 -14.61841,-6.54488 -14.61841,-14.61841z" fill="#ffffff" stroke="#3e0e6c" stroke-width="1.5"/><path d="M386.04161,223.26829c0,-7.37563 5.97912,-13.35475 13.35475,-13.35475c7.37563,0 13.35476,5.97912 13.35476,13.35475c0,7.37563 -5.97913,13.35475 -13.35476,13.35475c-7.37563,0 -13.35475,-5.97912 -13.35475,-13.35475z" fill="#ffffff" stroke="#3e0e6c" stroke-width="1"/><path d="M387.6465,223.26829c0,-6.48928 5.2606,-11.74987 11.74987,-11.74987c6.48928,0 11.74988,5.2606 11.74988,11.74987c0,6.48928 -5.2606,11.74987 -11.74988,11.74987c-6.48928,0 -11.74987,-5.2606 -11.74987,-11.74987z" fill="#3e0e6c" stroke="none" stroke-width="0"/></g><path d="M278.44791,326.81512c0,-1.33945 -24.46671,-20.3873 -35.31869,-47.36775c-11.82934,-29.41039 -17.73449,-48.45707 -5.63929,-61.69991c28.302,-30.98742 79.63375,-28.61555 83.77496,-28.61555c7.53458,0 13.64256,5.03909 13.64256,11.25512c0,6.21603 -6.10798,11.25512 -13.64256,11.25512c-3.91931,0 -26.16596,-1.43896 -53.27468,23.65487c-1.24812,1.15535 15.66283,22.8664 14.35515,24.2334c-1.50194,1.57008 -9.4524,-5.12394 -11.08406,-3.5828c-1.6088,1.51955 7.11345,11.23494 6.40256,12.82159c-0.59531,1.32869 -7.12802,3.43286 -7.6002,4.80558c-0.51182,1.48797 8.81942,5.62096 8.47987,7.1396c-0.73121,3.27035 -6.51621,5.04403 -6.89263,8.25474c-2.38572,20.34912 6.79702,39.65419 6.79702,37.846z" fill="#ffffff" stroke="#3e0e6c" stroke-width="2.5" stroke-linecap="butt"/></g></g></svg>