<svg version="1.1" xmlns="http://www.w3.org/2000/svg" xmlns:xlink="http://www.w3.org/1999/xlink" width="176.08014" height="189.18378" viewBox="0,0,176.08014,189.18378"><g transform="translate(-480.63367,-187.77961)"><g data-paper-data="{&quot;isPaintingLayer&quot;:true}" fill-rule="nonzero" stroke-linejoin="miter" stroke-miterlimit="10" stroke-dasharray="" stroke-dashoffset="0" style="mix-blend-mode: normal"><path d="M550.32502,336.95355c0,-1.36822 3.09454,-5.72227 6.09152,-16.09564c3.22896,-11.17629 6.40499,-28.37478 7.2243,-28.37478c1.23635,0 2.78355,17.1421 8.25937,30.14253c3.27378,7.77248 11.80814,14.06456 11.80814,14.32789c0,3.43016 -7.84821,5.08558 -17.06677,5.08558c-9.21855,0 -16.31657,-1.65542 -16.31657,-5.08558z" fill="#ff5971" stroke="#54002b" stroke-width="2.5" stroke-linecap="butt"/><g fill="#ff8dae" stroke="#54002b" stroke-width="2.5" stroke-linecap="butt"><path d="M556.10348,275.04146c0,20.59491 -19.73266,36.40776 -31.5534,36.40776c-11.82074,0 -16.99029,-18.902 -16.99029,-39.49691c0,-20.59491 6.93477,-39.49691 18.75551,-39.49691c11.82074,0 29.78818,21.99114 29.78818,42.58605z"/><path d="M598.46751,232.45541c10.82412,0 17.17422,18.902 17.17422,39.49691c0,20.59491 -4.7337,39.49691 -15.55783,39.49691c-10.82412,0 -28.89309,-15.81286 -28.89309,-36.40776c0,-20.59491 16.45257,-42.58605 27.2767,-42.58605z" data-paper-data="{&quot;index&quot;:null}"/><path d="M535.80339,272.83493c0,-17.18274 13.92936,-31.11209 31.11209,-31.11209c17.18273,0 31.11209,13.92936 31.11209,31.11209c0,17.18273 -13.92935,31.11209 -31.11209,31.11209c-17.18273,0 -31.11209,-13.92936 -31.11209,-31.11209z"/></g><path d="M586.54786,355.92304c0,15.04102 -13.46949,11.25245 -17.61253,11.25245c-3.19726,0 -4.94888,-1.06465 -6.02871,-11.29286c-0.65598,-6.21342 -1.49955,-23.7929 -1.03549,-28.08977c0.71529,-6.62316 2.14763,-12.80263 3.15031,-12.80263c3.79173,0 21.52642,39.65739 21.52642,40.93281z" fill="#54002b" stroke="none" stroke-width="0" stroke-linecap="butt"/><path d="M559.1506,341.40901c0,2.88211 -7.82779,2.88211 -7.82779,0c0,-2.37387 9.44613,-21.42814 13.18029,-26.11902c0.79949,-1.00432 0.46332,4.26644 0.84451,4.26644c2.16158,0 -6.197,18.97046 -6.197,21.85258z" fill="#54002b" stroke="none" stroke-width="0" stroke-linecap="butt"/><path d="M611.98817,353.96609c0,15.04102 -16.21327,11.25245 -21.20026,11.25245c-3.84856,0 -5.95698,-1.06465 -7.25678,-11.29286c-0.78961,-6.21342 -1.80501,-23.7929 -1.24642,-28.08977c0.861,-6.62316 2.58511,-12.80263 3.79203,-12.80263c4.56412,0 25.91143,39.65739 25.91143,40.93281z" fill="#54002b" stroke="none" stroke-width="0" stroke-linecap="butt"/><path d="M579.00999,339.45206c0,2.88211 -9.42234,2.88211 -9.42234,0c0,-2.37387 11.37033,-21.42814 15.86515,-26.11902c0.96235,-1.00432 0.5577,4.26644 1.01653,4.26644c2.60191,0 -7.45935,18.97046 -7.45935,21.85258z" fill="#54002b" stroke="none" stroke-width="0" stroke-linecap="butt"/><path d="M549.41858,321.63718c0.57357,-0.96147 9.40211,-18.28264 10.05818,-18.28264c3.4627,0 0.13478,16.15423 0.28477,16.64835c0.80558,2.65375 38.44437,9.79549 39.58737,12.20289c3.96123,8.34324 -13.41395,12.57081 -18.99804,12.57081c-5.58408,0 -35.24065,-15.91739 -30.93228,-23.13941z" fill="#54002b" stroke="none" stroke-width="0" stroke-linecap="butt"/><path d="M575.08847,344.97399c-2.89752,0 -11.91332,-4.22757 -9.85788,-12.57081c0.59309,-2.4074 20.03594,-10.33871 20.45395,-12.99247c0.08291,-0.52636 -15.54515,-7.9138 -17.93815,-9.10866c-1.54063,-0.76927 -1.04168,-6.75011 -0.57904,-6.75011c0.19372,0 27.22504,12.3133 27.23974,12.36081c2.23556,7.22202 -16.4211,29.06124 -19.31862,29.06124z" data-paper-data="{&quot;index&quot;:null}" fill="#54002b" stroke="none" stroke-width="0" stroke-linecap="butt"/><g data-paper-data="{&quot;index&quot;:null}" fill="#54002b" stroke="none" stroke-width="0" stroke-linecap="butt"><path d="M582.41738,270.8392c3.92899,0.02184 7.06478,6.52983 7.00398,14.536c-0.0608,8.00617 -3.29515,14.47874 -7.22413,14.45689c-3.92899,-0.02184 -7.06479,-6.52983 -7.00399,-14.536c0.0608,-8.00617 3.29516,-14.47874 7.22414,-14.45689z"/><path d="M587.58583,279.61616c0.86654,0.00482 5.06725,4.4277 5.04656,7.15161c-0.01218,1.60337 -3.48584,7.10417 -5.15474,7.09489c-2.81701,-0.01566 -5.07644,-3.21754 -5.04656,-7.15161c0.02988,-3.93406 2.33773,-7.11056 5.15474,-7.0949z"/></g><g data-paper-data="{&quot;index&quot;:null}" fill="#54002b" stroke="none" stroke-width="0" stroke-linecap="butt"><path d="M572.45552,287.36471c0.07343,8.14902 -3.7135,14.77314 -8.45832,14.79537c-4.74481,0.02224 -8.65075,-6.56583 -8.72417,-14.71485c-0.07343,-8.14902 3.71349,-14.77314 8.45831,-14.79537c4.74481,-0.02224 8.65076,6.56583 8.72418,14.71485z"/><path d="M563.71478,288.80492c0.03608,4.00426 -2.69251,7.26328 -6.09445,7.27922c-2.01544,0.00944 -6.21037,-5.58951 -6.22508,-7.22149c-0.02499,-2.77252 5.04797,-7.27431 6.09444,-7.27922c3.40194,-0.01594 6.18901,3.21723 6.22509,7.22149z"/></g><path d="M548.3208,256.35117c0,0 -0.69664,4.98185 -4.16539,4.63356c-4.61869,-0.41076 -3.07723,-4.63356 -3.07723,-4.63356" fill="none" stroke="#54002b" stroke-width="2.5" stroke-linecap="round"/><path d="M559.4434,299.03094c0,0 -2.3939,-1.35924 -3.10398,-2.06932c-0.75315,-0.75315 -1.29332,-2.32799 -1.29332,-2.32799" fill="none" stroke="#54002b" stroke-width="2.5" stroke-linecap="round"/><path d="M547.28614,270.3191l25.3492,-7.75996" fill="none" stroke="#54002b" stroke-width="2.5" stroke-linecap="round"/><path d="M480.63367,376.96338v-189.18378h176.08014v189.18378z" fill="none" stroke="none" stroke-width="0" stroke-linecap="butt"/></g></g></svg>