<svg version="1.1" xmlns="http://www.w3.org/2000/svg" xmlns:xlink="http://www.w3.org/1999/xlink" width="723" height="378" viewBox="0,0,723,378"><g transform="translate(41.5,9)"><g data-paper-data="{&quot;isPaintingLayer&quot;:true}" fill-rule="nonzero" stroke="none" stroke-linecap="butt" stroke-linejoin="miter" stroke-miterlimit="10" stroke-dasharray="" stroke-dashoffset="0" style="mix-blend-mode: normal"><path d="M-41.5,369v-378h723v378z" fill="#ffe6fd" stroke-width="0"/><text transform="translate(33.5,292.53292) scale(0.62716,0.62716)" font-size="40" xml:space="preserve" fill="#120011" fill-rule="nonzero" stroke="none" stroke-width="1" stroke-linecap="butt" stroke-linejoin="miter" stroke-miterlimit="10" stroke-dasharray="" stroke-dashoffset="0" font-family="&quot;Neon&quot;, Sans Serif" font-weight="normal" text-anchor="start" style="mix-blend-mode: normal"><tspan x="0" dy="0">Bop got the  :)</tspan></text><text transform="translate(17.5,338.60871) scale(0.79394,0.79394)" font-size="40" xml:space="preserve" fill="#120011" fill-rule="nonzero" stroke="none" stroke-width="1" stroke-linecap="butt" stroke-linejoin="miter" stroke-miterlimit="10" stroke-dasharray="" stroke-dashoffset="0" font-family="&quot;Neon&quot;, Sans Serif" font-weight="normal" text-anchor="start" style="mix-blend-mode: normal"><tspan x="0" dy="0">The of the ,.,.,.,.,,.,.,.</tspan></text><text transform="translate(386.5,27) scale(0.5,0.5)" font-size="40" xml:space="preserve" fill="#120011" fill-rule="nonzero" stroke="none" stroke-width="1" stroke-linecap="butt" stroke-linejoin="miter" stroke-miterlimit="10" stroke-dasharray="" stroke-dashoffset="0" font-family="&quot;Neon&quot;, Sans Serif" font-weight="normal" text-anchor="start" style="mix-blend-mode: normal"><tspan x="0" dy="0">Click to go back the menu</tspan></text><path d="M305.73937,143.68543c0,-1.25 1.25,-1.25 1.25,-1.25l0.63255,0.03732c6.63072,1.69291 10.75873,7.70966 14.90519,12.71376c1.05568,2.07625 2.61687,4.17336 3.15238,6.46957c2.6538,11.37912 -8.59823,18.49791 -18.5242,20.1592c-2.77871,0.46507 -6.04508,0.01106 -8.86494,0.01106c-8.95265,-0.02183 -20.8041,-4.81867 -24.70008,-13.54c-2.08043,-4.65714 -0.59532,-11.17056 1.63669,-15.4979c1.36476,-2.64596 2.5935,-4.40732 4.99477,-6.15311c4.88635,-3.79016 10.18042,-6.92785 16.35654,-8.13635c6.71828,-1.31458 16.78688,0.42421 22.82791,3.40965c0,0 1.11803,0.55902 0.55902,1.67705c-0.55901,1.11803 -1.67705,0.55902 -1.67705,0.55902c-5.11965,-2.59456 -11.73775,-3.16382 -17.42199,-3.16187c-1.29582,0.00045 -2.61789,-0.27577 -3.88743,-0.01614c-5.79446,1.18499 -10.66993,4.11317 -15.26423,7.67404c-2.1223,1.48423 -3.06894,2.98844 -4.26713,5.2965c-1.82736,3.52001 -3.39789,9.41093 -1.61797,13.23722c3.63358,7.81112 14.34153,12.17378 22.46095,12.15188c2.6906,0 5.88863,0.47012 8.53311,0.01106c8.43616,-1.46444 18.67291,-7.22885 16.42899,-17.08174c-0.45725,-2.00774 -1.90339,-3.8747 -2.81511,-5.69696c-3.70836,-4.42284 -7.4853,-10.21495 -13.42176,-11.66058l-0.02621,0.03732c0,0 -1.25,0 -1.25,-1.25z" fill="#120011" stroke-width="0.5"/><path d="M300.08653,182.2395c0.13978,-0.04659 0.26857,-0.07121 0.38703,-0.07841c0.15292,-0.24642 0.29499,-0.49935 0.42446,-0.75799c2.10841,-8.60898 2.21543,-16.48214 -0.41909,-25.01161c-1.38314,-4.478 -4.1907,-8.73561 -4.22569,-13.47465c0,0 0,-1.25 1.25,-1.25c1.25,0 1.25,1.25 1.25,1.25c-0.03954,4.37371 2.83423,8.59244 4.1143,12.73673c2.79348,9.044 2.695,17.49915 0.3752,26.61689c-0.44506,0.89082 -0.96806,1.7508 -1.58627,2.53147l-2.36051,-0.9813c0,0 -0.39529,-1.18586 0.79057,-1.58114z" fill="#120011" stroke-width="0.5"/><path d="M282.68962,167.50685c-0.0034,0.00666 -0.00682,0.01332 -0.01025,0.01997c0.07973,0.53725 -0.2843,0.99228 -0.2843,0.99228l-0.78707,0.98384c-0.22886,0.29115 -0.58424,0.47815 -0.9833,0.47815c-0.22412,0 -0.43446,-0.05899 -0.61635,-0.16227c-1.00399,0.75708 -2.32308,0.97978 -3.37979,0.05516c-2.6947,-2.35787 1.62181,-6.43514 3.73665,-6.73422c0.84359,-0.1193 1.98639,-0.31432 2.53337,0.33889c0.6922,0.82664 0.53526,2.43181 -0.09936,3.80305c0.00395,0.06996 0.01034,0.13857 0.01989,0.20543z" fill="#120011" stroke-width="0.5"/><path d="M317.71458,164.64322c-0.13178,-0.00645 -0.26584,-0.02222 -0.4018,-0.04802c-3.00995,-0.57124 -2.66585,-4.79288 0.10539,-5.41027c0.01569,-0.00364 0.03125,-0.00696 0.04664,-0.01c0.03296,-0.0068 0.06627,-0.01308 0.09991,-0.01886c0.50349,-0.08641 0.96488,-0.03795 1.37705,0.11035c0.38078,0.03764 0.74181,0.11178 1.00668,0.36356c0.43535,0.41384 0.69103,0.89741 0.79781,1.39794c0.93099,1.96655 0.37601,4.66547 -2.47424,4.09231c-0.26274,-0.05283 -0.43174,-0.23503 -0.55743,-0.47701z" fill="#120011" stroke-width="0.5"/><path d="M290.35469,165.49538c1.25,0 1.25,1.25 1.25,1.25l-0.00143,0.07029c3.86554,0.35648 7.95197,0.07674 11.788,-0.12695c2.17198,-0.11533 6.07801,-1.15065 8.09319,-0.30391c5.26191,2.21096 -1.17113,9.97119 -3.68603,11.67581c-1.71699,1.51265 -2.06826,2.14586 -4.41546,2.8003c-8.23638,2.29646 -12.86888,-5.45567 -14.12102,-12.25972c-0.12219,-0.19893 -0.19191,-0.46483 -0.14759,-0.81944c0.00185,-0.01478 0.00385,-0.02937 0.006,-0.04376c-0.00104,-0.00719 -0.00206,-0.01438 -0.00309,-0.02156l-0.01256,-0.97107c0,0 0,-1.25 1.25,-1.25zM291.97087,169.35074c1.23246,5.16576 4.54193,10.742 10.77265,9.09334c1.75322,-0.46391 2.19894,-1.1702 3.52739,-2.36255c1.67795,-1.09721 3.12348,-2.88551 4.00147,-4.70593c0.01556,-0.03225 1.1958,-2.56216 0.25535,-2.68109c-2.18629,-0.27649 -4.79227,0.37527 -6.99823,0.49038c-3.77294,0.19688 -7.74446,0.4488 -11.55863,0.16585z" fill="#120011" stroke-width="0.5"/><path d="M269.30057,167.93866c0.39529,1.18586 -0.79057,1.58114 -0.79057,1.58114l-1.38648,0.44514c-2.15374,0.00446 -3.92523,-0.10016 -5.5191,-1.81182c-1.18092,-1.26818 -2.13925,-4.01177 -2.89395,-5.53086c-2.65344,-5.34097 -6.05361,-13.66115 -1.20962,-18.60359c2.35723,-2.35472 5.21461,-4.69565 8.3956,-5.84941c6.94543,-2.51913 16.81749,-0.23722 22.76876,3.70752c0,0 1.04006,0.69337 0.34668,1.73344c-0.69338,1.04006 -1.73344,0.34669 -1.73344,0.34669c-8.81973,-5.91882 -20.49166,-5.69711 -28.00984,1.82953c-4.54117,4.42101 0.51283,13.42551 2.84917,17.90643c1.27668,2.44858 1.6224,3.7944 4.60528,3.80436l0.99637,-0.34914c0,0 1.18586,-0.39529 1.58114,0.79057z" fill="#120011" stroke-width="0.5"/><path d="M316.85709,202.34098c-0.3019,-0.03297 -1.14388,-0.2169 -1.14388,-1.2428c0,-1.25 1.25,-1.25 1.25,-1.25l0.75759,0.13197c3.72996,1.86498 7.17964,1.8346 11.26663,0.89432c1.94678,-0.44789 4.0257,-0.30929 5.95713,-0.79429c4.23572,-1.0636 7.92079,-3.03186 11.69738,-5.17868c1.43169,-1.14933 3.27659,-2.75923 3.89886,-4.56271c0.91803,-2.66064 1.49041,-7.66296 4.58297,-8.70552c4.62559,-1.55937 10.57351,1.76492 14.25347,-2.72864c2.24642,-3.36604 3.48309,-8.57236 2.00353,-12.54787c-0.80603,-2.16576 -2.53218,-3.66932 -4.42669,-4.89478c-0.55081,-0.35629 -1.6511,-0.86361 -2.24421,-0.187c-0.7787,0.88833 -0.89894,2.66322 -1.05732,3.77187c-1.22402,3.67206 -0.26281,8.70378 -3.3361,11.74086c-1.07631,1.06363 -3.4245,1.56251 -4.81042,2.05741c-4.88696,1.7451 -11.02501,1.07481 -15.90785,-0.39096c-3.16383,-1.19294 -6.81876,-3.5881 -8.28099,-6.81555c-1.26092,-2.78312 -0.34839,-6.60751 -0.51017,-9.58127c-0.06777,-1.24582 -0.30861,-1.86298 -0.63534,-2.0551c-0.55228,0.48662 -1.14163,0.93419 -1.76764,1.3366c-0.28668,0.46436 -0.54828,0.99313 -0.74945,1.50374c-0.38383,0.97425 -0.74048,1.95903 -1.12147,2.93439c0.053,4.46572 1.47181,7.74074 4.90757,10.71134c1.69735,1.46756 5.11616,1.09958 7.16643,2.26364c3.51959,1.99829 4.94257,7.52212 3.82096,11.12446c-5.81708,4.83059 -20.1683,7.90585 -25.07364,0.6458c-1.02749,0.54014 -2.20721,0.81289 -3.39516,0.81896c0.68743,7.86123 0.44284,15.60034 -1.33695,23.33738c-1.35672,5.50638 -6.32317,3.74988 -10.75054,3.75387c-9.67683,0.00873 -20.912,0.86852 -29.94187,-3.03144c-2.34786,-3.12664 -0.51788,-6.0302 1.02938,-9.11414c1.6872,-3.36288 2.61576,-7.26405 5.14126,-10.18768c1.76555,-2.04387 4.49267,-2.90183 5.42135,-5.45994c-2.57921,0.57557 -5.89341,-0.23209 -7.32727,-2.57101c-3.00525,-4.90215 2.76202,-11.27328 7.60719,-11.45288c0,0 1.25,0 1.25,1.25c0,1.25 -1.25,1.25 -1.25,1.25c-2.89094,-0.18558 -7.32652,4.60262 -5.49851,7.60994c1.65767,2.72709 5.36351,1.27065 7.37728,0.03479c0.52065,-0.31952 0.92488,-1.01299 1.53562,-1.0002c2.95343,0.06187 3.89645,2.80962 5.28749,4.80488c0.73894,0.74006 1.80842,2.10378 3.03464,2.13501c1.27851,0.03256 2.72753,-1.99477 3.54555,-2.68738c1.68388,-1.42572 4.22154,-4.45633 6.34557,-4.98661c2.9148,-0.7277 4.42768,1.95929 6.61419,3.20935c0.14944,-0.0639 0.33082,-0.10268 0.55099,-0.10268c0.663,0 0.97435,0.35165 1.12056,0.68193c0.69398,0.08288 1.46957,-0.01533 2.36557,-0.3853c0.06887,-0.02844 0.13615,-0.06006 0.2019,-0.09454c-0.04363,-0.12971 -0.08506,-0.26165 -0.12422,-0.39583c0,0 -0.3434,-1.20191 0.8585,-1.54531c0.50435,-0.1441 0.85753,-0.01609 1.0976,0.18103c0.68232,-0.24642 1.61267,-0.11253 2.0046,-0.70287c0.70418,-1.06067 -0.29541,-5.05564 -1.7522,-5.52849c-0.32972,0.19382 -0.91153,0.37794 -1.49334,-0.20387c-0.88389,-0.88388 0,-1.76776 0,-1.76776l1.08245,-0.56469c0.72613,0.0493 1.53931,-0.20034 2.17839,0.14791c2.0698,1.1279 3.24616,7.53029 2.0128,9.37868c-0.0512,0.07673 -2.089,0.98345 -2.56966,1.19907c-0.09798,0.14891 -0.20207,0.29188 -0.3118,0.42893c3.04316,5.2828 11.72829,2.92235 16.58938,1.41123c1.43748,-0.44686 3.27513,-1.01079 4.49165,-1.88121c0.30615,-1.33403 0.26225,-2.09079 -0.30374,-3.37497c-0.47949,-1.08794 -1.09767,-2.75764 -1.80091,-3.6717c-1.734,-2.25383 -6.20543,-1.30128 -8.35366,-2.99661c-4.25127,-3.35502 -5.85949,-7.88484 -5.81527,-13.11719c0.23399,-0.64439 0.57141,-1.63246 1.01081,-2.7034l-1.06189,-0.35968c0,0 -0.88389,-0.88388 0,-1.76776c0.45609,-0.45609 0.91218,-0.44149 1.24683,-0.32052c0.6221,-0.29637 1.21765,-0.75497 1.77752,-1.23848c0.52899,-0.70928 1.11931,-1.28232 1.77029,-1.59435c3.97688,-3.74441 5.31821,-7.88618 4.76935,-13.37476c0.01322,-6.59144 -4.1673,-6.16485 -9.64294,-6.15852c-7.34077,0.00848 -13.3094,2.12896 -19.13713,6.50054c0,0 -1,0.75 -1.75,-0.25c-0.75,-1 0.25,-1.75 0.25,-1.75c7.16508,-5.37287 14.24903,-7.011 23.13524,-7.00128c6.04806,0.00662 9.62929,1.96501 9.64172,8.53473c0.48989,4.89896 -0.89925,10.27337 -4.03545,14.18455c0.03211,0.02774 0.06432,0.05615 0.09661,0.08524c2.57334,2.31777 0.79938,8.39374 1.14832,11.43335c0.35338,3.07829 4.54449,5.58088 7.1042,6.53456c4.35201,1.30472 9.91982,1.95895 14.27497,0.40332c0.97032,-0.34659 3.18339,-0.75686 3.92671,-1.51687c2.48634,-2.54219 1.60057,-7.43774 2.62103,-10.4991c0.21902,-1.53312 0.52792,-3.82877 1.72267,-4.96526c2.90538,-2.76371 7.43732,0.66855 9.24507,3.13156c3.68131,5.01567 2.42147,12.91504 -0.80674,17.76159c-4.24806,5.03376 -9.94982,2.62969 -15.5322,3.62563c-0.89558,0.15978 -1.87187,3.37042 -2.16302,4.18665c-1.34936,3.78285 -2.38066,6.15758 -5.63798,8.7565c-4.02483,2.31008 -8.00018,4.41638 -12.52829,5.54416c-1.93754,0.48257 -4.01024,0.3436 -5.95713,0.79429c-4.53011,1.04866 -8.54816,1.03334 -12.70473,-0.96662zM285.98055,191.16777c-1.18939,3.33897 -3.82473,4.07953 -6.00887,6.58942c-2.36838,2.72162 -3.21875,6.52219 -4.78729,9.66943c-0.60494,1.21381 -3.017,4.77379 -1.75061,5.97726c8.60969,3.41165 19.3146,2.52072 28.43803,2.52856c2.85377,0.00245 7.64503,1.75655 8.3123,-1.80612c1.77956,-7.68573 1.96152,-15.37794 1.22794,-23.19401c-0.51738,-0.17544 -1.01433,-0.40729 -1.47679,-0.69548c-0.8179,-0.50969 -2.70889,-3.30925 -3.67825,-2.85195c-3.60149,1.69901 -6.54546,7.76667 -10.76029,7.81457c-2.08378,0.02368 -3.59589,-1.7171 -4.90821,-3.02784c-0.21963,-0.31264 -2.13573,-3.99795 -3.0525,-3.93225c-0.35831,0.02568 -1.31566,0.7514 -2.22091,1.39424c1.03206,0.43436 0.66546,1.53417 0.66546,1.53417z" fill="#120011" stroke-width="0.5"/><path d="M267.24704,187.83062c0.09143,0.18286 0.138,0.35077 0.15193,0.50373c0.56225,0.06327 1.12425,0.13273 1.6859,0.20772c4.44635,0.59368 9.41645,1.06225 12.94903,4.06135c0,0 0.94907,0.81349 0.13558,1.76256c-0.81349,0.94907 -1.76256,0.13558 -1.76256,0.13558c-3.08243,-2.67208 -7.77605,-2.96388 -11.67379,-3.48436c-6.58828,-0.87975 -13.24866,-0.99344 -19.7192,0.95257c-5.44346,1.63154 -10.7762,3.9407 -15.54847,6.98932c-1.98922,1.27075 -3.76442,2.72443 -3.62079,5.41016c0.08739,1.63397 1.64788,3.11572 2.65599,4.22601c1.1501,1.26666 2.16964,2.08138 3.66857,2.93476c1.75516,1.01753 3.49908,1.36751 5.50287,1.63351c0.17684,0.02347 2.6497,0.38548 2.81265,0.38608c0.45685,0.00168 0.91029,-0.09166 1.35904,-0.17732c7.58917,-1.44869 -3.04837,-7.17941 -4.82435,-9.00735c-0.8431,-0.86776 -1.22956,-2.11777 -1.53812,-3.28764c2.09264,-2.97456 5.09924,-3.36916 8.35755,-4.53259c8.19274,-2.92534 15.65488,-2.32197 24.12664,-1.23268c1.67199,0.57323 2.6058,0.38151 4.18971,1.3704l0.70355,0.00564c0,0 1.233,0.2055 1.0275,1.43849c-0.2055,1.23299 -1.43849,1.02749 -1.43849,1.02749l-1.6793,-0.3915c-1.1066,-0.82065 -2.03383,-0.58279 -3.35599,-1.01246c-8.01826,-0.96929 -14.98188,-1.61981 -22.73614,1.15017c-2.22905,0.79627 -4.76696,1.244 -6.73386,2.61598c2.62845,3.72126 7.73633,4.03415 8.91161,9.18357c0.7816,3.42454 -1.60582,4.58545 -4.55124,5.12996c-3.58049,0.66191 -8.24765,-0.36407 -11.37397,-2.12915c-1.70561,-0.97789 -2.95859,-1.97387 -4.27427,-3.41952c-1.1002,-1.20888 -2.17065,-2.38007 -2.81035,-3.9319c-1.13815,-2.76103 0.01103,-6.51873 2.34046,-8.39809c4.93991,-3.98544 12.09656,-6.57002 18.11084,-8.3759c1.63139,-0.48827 3.27328,-0.85519 4.9224,-1.11821c-2.8386,-0.87591 -5.36601,-2.30148 -7.04257,-4.61718c-1.10156,-2.53938 -3.35789,-6.17433 -2.50162,-9.07528c0.75238,-2.54897 3.28016,-3.50273 5.41482,-4.57005c5.34713,-2.67355 9.44799,-4.92527 15.34853,-2.41375c0,0 1.14893,0.4924 0.65653,1.64133c-0.4924,1.14893 -1.64133,0.65653 -1.64133,0.65653c-5.12842,-2.21508 -8.5889,0.02354 -13.2457,2.35196c-1.31424,0.65713 -3.68659,1.36175 -4.1166,2.97566c-0.58068,2.17945 1.46165,5.30796 2.26409,7.20755c3.28859,4.70093 12.22364,4.72445 17.37776,4.72445l-0.16188,-0.06661c0,0 1.11804,-0.55901 1.67705,0.55902z" fill="#120011" stroke-width="0.5"/><path d="M325.70592,191.56491c-0.39529,-1.18586 0.79057,-1.58114 0.79057,-1.58114l1.58506,-0.50788c0.66051,-0.54798 1.25149,-0.99998 1.81497,-1.68017c5.06838,-6.11817 -4.55577,-9.13455 -8.05863,-12.62075c0,0 -0.88389,-0.88388 0,-1.76777c0.88389,-0.88388 1.76777,0 1.76777,0c3.47532,3.49409 12.54105,6.3373 10.21213,13.04629c-0.38679,1.11424 -1.23066,2.02292 -1.98791,2.9272c-0.91335,1.09068 -1.47809,1.45046 -2.55361,2.29126l-1.98921,0.68354c0,0 -1.18586,0.39529 -1.58114,-0.79057z" fill="#120011" stroke-width="0.5"/><path d="M273.00561,211.46058c0.55901,1.11803 -0.55901,1.67705 -0.55901,1.67705l-0.65299,0.29322c-1.0592,0.26456 -4.68609,0.44092 -5.10546,1.8471c-0.16203,0.54331 0.24269,1.21615 -0.05276,1.70004c-0.39391,0.64516 -1.12431,1.05254 -1.81517,1.35932c-2.49993,1.11011 -5.71366,0.52646 -8.0815,-0.48622c-2.99721,-2.51527 -4.72516,-8.16894 -1.40824,-11.2962c4.38098,-4.13046 14.13755,-7.47472 19.46792,-3.89244c0,0 1.01717,0.72655 0.29062,1.74372c-0.72655,1.01717 -1.74372,0.29062 -1.74372,0.29062c-1.50325,-1.17917 -2.73792,-0.75849 -4.63487,-0.76003c-4.12216,-0.00334 -8.51326,1.66191 -11.64002,4.41329c-2.05677,1.80985 -0.81173,5.89856 0.97462,7.36948c0.78526,0.3377 5.96233,1.4833 6.38616,0.07881c0.31495,-1.04365 0.48494,-2.30399 1.33621,-2.98498c1.57097,-1.25673 3.54782,-1.33942 5.41985,-1.80787l0.1413,-0.10393c0,0 1.11804,-0.55902 1.67705,0.55902z" fill="#120011" stroke-width="0.5"/><path d="M406.00379,143.91506c-0.55902,-1.11803 0.55902,-1.67705 0.55902,-1.67705l0.91461,-0.42403c5.04132,-1.26033 9.94438,-3.20692 14.61826,-5.49251c4.98364,-2.20773 10.60205,-3.57428 15.85136,-5.08851c0.78795,-0.22729 1.60112,-0.36128 2.38727,-0.59469c0.15355,-0.04559 0.3212,-0.12545 0.49513,-0.22053c-1.80673,-0.11903 -4.05396,-0.70115 -5.60676,-0.98394c-5.27377,-0.96042 -10.50148,-1.35197 -15.82953,-2.021c-4.11535,-0.54627 -8.44234,-0.50004 -12.50616,-1.27447c-0.8143,-0.15518 -4.55792,-1.15031 -4.90362,-2.14997c-0.99029,-2.86369 4.47212,-4.25307 5.99606,-4.85146c7.63715,-2.99879 15.14573,-5.55667 20.39122,-12.17537c0.76623,-2.93247 -6.86511,-1.54144 -8.78464,-1.40399c-5.57091,0.39889 -10.98959,1.0766 -16.42534,2.4451c-4.10667,1.03389 -8.22752,3.00834 -12.38617,3.90242l-0.27963,0.17339l0.05804,0.11608l-1.29504,0.64752c-0.1737,0.09145 -0.37156,0.14321 -0.58151,0.14321c-0.69036,0 -1.25,-0.55964 -1.25,-1.25c0,-0.4564 0.24461,-0.85568 0.60987,-1.07388l1.64103,-1.01757l0.00641,0.01034l0.02091,-0.02681c8.27617,-4.56147 13.18119,-11.49278 18.62819,-18.91725c0.89915,-2.31378 2.7041,-5.08354 2.18383,-7.67336c-0.69311,-3.45021 -6.94287,-2.24543 -9.07675,-2.10294c-8.06561,0.53862 -15.83845,2.29184 -23.50122,4.84609c-9.09345,3.03101 -17.90664,6.78652 -26.69517,10.59292c-4.24574,1.83887 -8.27366,3.37823 -11.81986,6.43002c0,0 -0.94907,0.81349 -1.76256,-0.13558c-0.81349,-0.94907 0.13558,-1.76256 0.13558,-1.76256c3.76082,-3.21174 7.96352,-4.88141 12.45325,-6.82596c8.85492,-3.83515 17.73612,-7.61639 26.89818,-10.67055c8.67396,-2.89132 17.50002,-4.75691 26.65114,-5.137c3.45277,-0.14341 8.01063,0.06433 9.15052,4.19116c0.87031,3.15085 -1.29515,6.66144 -2.42753,9.45456c-4.03676,5.59364 -7.87036,10.90125 -12.89178,15.21899c0.35197,-0.07649 0.65844,-0.1496 0.90121,-0.22221c7.57566,-2.26603 15.10244,-3.74305 23.03848,-4.00345c2.33744,-0.0767 8.58814,-1.04727 9.4695,2.18527c0.25196,0.9241 -0.24703,1.89968 -0.37054,2.84952c-4.59263,6.35622 -10.74954,9.02838 -17.81234,11.86765c-2.05587,0.82647 -4.21225,1.60669 -6.23656,2.5003c-0.48122,0.21243 -0.92069,0.51355 -1.38651,0.75731c0.76407,0.07537 1.57407,0.50939 2.12297,0.61255c4.01724,0.75498 8.2897,0.71067 12.35672,1.25055c6.78358,0.85176 13.4414,1.695 20.2008,2.69332c0.80844,0.1194 5.09961,0.53893 5.28892,1.51376c0.42541,2.19061 -2.66969,3.41566 -4.09961,3.87652c-5.91411,1.90608 -12.27152,3.03688 -17.9512,5.57021c-4.8183,2.35232 -9.87261,4.35314 -15.06852,5.65212l-0.40292,0.23474c0,0 -1.11803,0.55902 -1.67705,-0.55902z" fill="#120011" stroke-width="0.5"/><path d="M175.498,174.97682c0,1.25 -1.25,1.25 -1.25,1.25h-0.65877c-1.91971,0 -3.82793,0.04203 -5.74196,-0.12079c-11.42779,-0.98643 -22.89033,-0.85278 -34.30105,-2.30583c-1.90714,-0.24286 -7.02841,-0.38174 -7.91755,-2.7171c-1.15305,-3.02853 5.7734,-4.79696 7.58054,-5.22139c10.70637,-2.45134 21.61126,-4.5978 32.4307,-6.50365c3.08525,-0.54347 6.58759,-2.24791 9.84012,-2.73996c-3.17082,-0.58696 -6.4463,-0.7268 -9.64441,-1.15146c-9.31079,-0.53462 -18.57669,-1.48856 -27.87437,-2.19216c-2.57239,-0.19467 -5.05571,-0.26792 -7.51515,-1.13516c-0.70765,-0.24953 -1.74083,-0.21751 -2.06607,-0.89372c-1.93819,-4.0297 6.38475,-5.70797 8.60763,-6.44864c10.69514,-3.05722 21.58192,-5.32449 32.48325,-7.45147c0.81045,-0.15813 1.85966,-0.47711 3.01554,-0.82924c-4.94175,-0.18174 -9.88452,-0.47913 -14.80693,-0.80749c-3.0325,-0.28117 -6.13269,-0.45931 -9.06826,-1.34403c-1.56396,-0.47134 -3.64722,-0.84975 -2.12054,-3.50054c1.43727,-2.49555 7.48579,-3.20631 9.97968,-3.86802c8.26763,-2.19366 16.81603,-3.41233 25.31438,-4.43439c11.15538,-1.34162 22.35582,-2.64317 33.4711,-4.27723c3.07249,-0.45169 6.31771,-0.89128 9.34662,-1.62027c-6.86461,-0.7594 -13.685,-1.81396 -20.59345,-2.21681c-6.65855,-0.39298 -13.07414,-1.36947 -19.34886,-3.67136c-1.78146,-0.65353 -7.06938,-2.50947 -4.89017,-5.62313c1.05131,-1.50211 3.81968,-1.85214 5.40101,-2.21265c5.32845,-1.21477 10.37985,-2.06839 15.82885,-2.42702c13.44105,-1.52581 27.9117,-0.81773 41.27778,1.09121c0,0 1.23744,0.17678 1.06066,1.41421c-0.17678,1.23744 -1.41421,1.06066 -1.41421,1.06066c-13.1816,-1.88357 -27.44508,-2.57716 -40.70108,-1.07606c-6.09982,0.40316 -13.74918,0.69119 -19.32177,3.4565c-0.56686,0.28129 0.89942,0.92126 1.46194,1.21112c1.67862,0.86495 4.05851,1.42731 5.83894,2.02215c4.73406,1.58165 9.98879,1.96764 14.95372,2.25869c7.81019,0.46324 15.51155,1.72794 23.28685,2.49692l0.03957,0.01738l0.00186,-0.01119l1.95603,0.326c0.60252,0.0895 1.06477,0.60895 1.06477,1.23637c0,0.46331 -0.25206,0.86774 -0.62653,1.08365l-1.62727,0.97636l-0.23105,-0.38509c-3.62224,2.14484 -8.07622,2.43005 -12.4006,3.06577c-11.13698,1.63725 -22.35909,2.9417 -33.53621,4.28593c-7.75162,0.93226 -15.68936,1.92295 -23.23199,3.91028c-2.16385,0.57013 -4.38013,1.05575 -6.5131,1.72984c-0.74573,0.23568 -1.47265,0.52786 -2.20074,0.81341c-0.28175,0.1105 -0.87498,0.32344 -1.27738,0.46239c1.2498,-0.22909 3.31522,0.66654 4.3065,0.82219c1.55811,0.24464 3.14113,0.28892 4.71158,0.43468c7.95775,0.53018 15.97253,0.98815 23.94565,0.9842h1.31753c0.69036,0 1.25,0.55964 1.25,1.25c0,0.5623 -0.37128,1.03788 -0.88206,1.19497l-1.94895,0.64965l-0.12471,-0.37412c-4.98339,2.24796 -11.17322,2.63512 -16.42967,3.64686c-9.14151,1.75951 -18.33079,4.06157 -27.27942,6.61706c-1.29247,0.43099 -2.60676,0.80118 -3.8778,1.29177c-0.71525,0.27607 -1.43016,0.55848 -2.1171,0.89893c-0.14873,0.07371 -0.39856,0.21516 -0.63719,0.34827c0.81018,-0.06953 1.89859,0.57843 2.2155,0.63863c0.62124,0.118 4.259,0.37476 4.83997,0.41873c9.31374,0.70492 18.59557,1.65431 27.92207,2.19623c4.01099,0.52982 8.08622,0.68191 12.00685,1.66405l0.09554,0.07694l0.01482,-0.03182l1.5018,0.69934c0.44028,0.1934 0.74776,0.6333 0.74776,1.14501c0,0.51967 -0.31712,0.96528 -0.7684,1.15385l-2.25845,1.00376l-0.12444,-0.27999c-4.24298,2.09862 -8.88145,2.92625 -13.65681,3.84215c-9.95539,1.9094 -19.98602,3.78597 -29.86346,6.04752c-1.19992,0.26604 -2.28773,0.89958 -3.42354,1.36917c-0.74679,0.30876 -3.12699,0.46121 -2.33863,0.63875c13.14213,2.95954 26.72416,2.1692 40.05618,3.30863c1.84204,0.15983 3.6803,0.11162 5.52804,0.11162h0.65877c0,0 1.25,0 1.25,1.25z" fill="#120011" stroke-width="0.5"/><path d="M353.76176,229.39256c1.25,0 1.25,1.25 1.25,1.25l-0.03732,0.02621c-0.16127,0.89869 2.85274,0.12208 3.93662,0.04717c4.61072,-0.31866 9.51673,-1.20494 14.09893,-1.96833c4.67972,-0.62428 9.36304,-1.01915 13.9411,-2.21855c1.97452,-0.5173 5.0615,-1.4557 6.44953,-3.13722c0.3296,-0.39929 -0.84089,-0.61134 -1.30151,-0.84779c-1.46222,-0.7506 -2.88765,-1.57298 -4.36394,-2.29551c-5.19048,-2.54032 -10.9479,-3.68717 -14.4594,-8.53131c0.34211,-0.90484 0.36086,-2.01243 1.02632,-2.71453c1.75515,-1.85179 6.33204,-2.57797 8.75586,-3.27623c7.4872,-2.15693 15.11495,-2.79268 22.65288,-4.67597c1.97593,-0.49367 4.06088,-1.44528 6.14803,-1.99245c-6.66357,-0.8807 -13.3753,-1.24062 -20.09691,-1.61397c-4.50473,-0.25114 -9.01882,-0.03391 -13.4876,-0.81022c-1.43991,-0.25014 -4.46314,-0.33904 -3.99991,-3.12287c0.28443,-1.70929 4.84924,-2.95812 6.21419,-3.57064c7.49665,-3.36411 15.70746,-4.67936 23.18072,-8.1338c1.32726,-0.61218 2.64261,-1.25296 3.92894,-1.94703c2.0249,-1.09258 4.70498,-2.55112 5.85631,-4.68501c0.19384,-0.35926 -0.6064,-0.60112 -1.00107,-0.70545c-1.53913,-0.40684 -3.09952,-0.73306 -4.66353,-1.0302c-6.09232,-1.15746 -12.28633,-1.16464 -18.45485,-1.16464c0,0 -1.25,0 -1.25,-1.25c0,-1.25 1.25,-1.25 1.25,-1.25c7.75582,0 16.59936,-0.30223 24.01027,2.35935c5.43194,1.95085 0.36918,6.97612 -2.27947,8.68981c-1.9644,1.27097 -4.23093,2.2749 -6.34896,3.25308c-5.26694,2.42738 -10.83572,3.8069 -16.34871,5.51558c-3.94203,1.22178 -7.65216,3.53047 -11.6406,4.40028c-0.13384,0.02919 0.27441,-0.00334 0.41086,0.00876c0.50693,0.04493 1.01335,0.09733 1.51812,0.1622c0.75064,0.09648 1.4949,0.24231 2.24753,0.32178c3.66042,0.3865 7.32819,0.25979 10.99645,0.46289c7.98341,0.44361 15.97525,0.83445 23.86303,2.16508h1.23966c0.69036,0 1.25,0.55964 1.25,1.25c0,0.44077 -0.22813,0.82825 -0.57276,1.05082l-1.96017,1.30678l-0.01369,-0.02054c-0.06174,0.04493 -0.12472,0.08837 -0.18907,0.13017c-0.74308,0.48266 -1.73849,0.35275 -2.5907,0.59539c-2.24082,0.63801 -4.33991,1.48242 -6.60976,2.05022c-6.83738,1.71039 -13.90683,1.98674 -20.65079,4.06352c-2.62728,0.80906 -5.13542,1.51011 -7.67543,2.54c-0.79721,0.32324 -1.82876,0.52497 -2.24092,1.28006c3.96787,3.91056 10.4417,5.28466 15.31609,7.84842c0.54577,0.28706 3.79143,1.82806 4.2167,2.45947c1.84869,2.74479 -1.04845,4.36877 -3.04049,5.45962c-5.65619,3.09736 -12.59693,3.25816 -18.86159,4.09302c-5.45832,0.9101 -11.02328,1.48364 -16.5018,1.98075c-1.20973,0.10977 -2.25646,1.04762 -3.55706,0.07401c-0.57206,-0.42824 -0.5152,-1.33308 -0.7728,-1.99962l-0.03732,-0.63255c0,0 0,-1.25 1.25,-1.25z" fill="#120011" stroke-width="0.5"/><path d="M194.35221,201.895c0.75,1 -0.25,1.75 -0.25,1.75l-1.41037,1.05146c-5.40514,2.72086 -10.99692,5.45471 -16.73103,7.36897c0,0 -0.92931,0.30977 -1.41682,-0.44181c-0.2297,0.12572 -0.47151,0.25021 -0.72937,0.3761c-0.54511,0.26611 -1.53475,0.70575 -1.30581,1.26749c0.65845,1.61561 4.91478,1.70347 6.24781,2.01832c6.81157,1.60881 14.2753,1.59048 21.24251,1.59048c7.55606,0 15.11212,0 22.66818,0h2.30568c0.69036,0 1.25,0.55964 1.25,1.25c0,0.5623 -0.37128,1.03788 -0.88206,1.19497l-1.94895,0.64965l-0.12999,-0.38998c-2.77771,1.17162 -5.49621,1.3266 -8.8902,2.07188c-1.6425,0.36067 -3.21201,0.89562 -4.80082,1.38092c2.14491,0.27188 4.48752,1.1519 6.32863,1.44291c7.63273,1.20643 15.3807,1.60859 22.95169,3.12171l2.43044,0.42928c0.59707,0.09421 1.05363,0.61112 1.05363,1.23466c0,0.50804 -0.30308,0.94529 -0.7383,1.14081l-2.23261,1.06168c-0.52478,0.33679 -1.0551,0.6029 -1.54931,0.71429c-6.60228,1.48813 -13.62796,1.7246 -20.2904,3.11614c-1.62563,0.33954 -6.80087,0.94775 -7.79219,2.49436c-0.25007,0.39015 0.83048,0.46611 1.29131,0.51512c2.35841,0.25083 4.72312,0.43661 7.08579,0.64141c16.38503,-0.00773 33.64255,1.61407 49.57973,-2.89211c0.17834,-0.02342 0.35813,-0.08615 0.52587,-0.17807c-0.01652,-0.08893 -0.02554,-0.18612 -0.02554,-0.29234c0,-1.25 1.25,-1.25 1.25,-1.25l1.7768,1.80902c-0.61398,1.07079 -1.7035,1.95601 -2.88093,2.32644c-16.18774,4.57672 -33.68906,2.98228 -50.33332,2.97476c-2.42886,-0.20805 -11.42071,0.51749 -10.72713,-4.1136c0.34547,-2.30673 5.53444,-3.52532 7.24002,-3.95902c5.33167,-1.35576 10.92502,-1.9887 16.35033,-2.89156c1.50302,-0.25013 3.23021,-0.64964 4.92205,-0.90239c-6.71439,-1.13246 -13.54272,-1.56297 -20.27889,-2.63135c-3.30331,-0.52392 -6.13986,-0.78975 -8.74018,-2.19427l-0.22527,0.37545l-1.62727,-0.97636c-0.37447,-0.21591 -0.62653,-0.62035 -0.62653,-1.08365c0,-0.53655 0.33806,-0.99415 0.8128,-1.17141l1.61988,-0.64795l0.00837,0.02091l0.07129,-0.04969c2.70263,-0.67566 5.37411,-1.26778 8.06848,-1.84261c-4.95702,0 -9.91405,0 -14.87107,0c-8.25757,0 -16.12725,-0.67434 -24.18281,-2.35097c-2.12914,-0.44315 -5.14103,-0.36745 -5.75803,-3.26296c-0.61377,-2.88033 2.27886,-3.30594 3.90322,-4.29963c0.8324,-0.50922 1.34767,-1.41182 2.03767,-2.10182c0,0 0.88388,-0.88388 1.76777,0c0.47739,0.47739 0.4391,0.95479 0.30291,1.29292c4.5408,-1.74024 8.97158,-3.93165 13.30767,-6.08371l1.2247,-0.92484c0,0 1,-0.75 1.75,0.25z" fill="#120011" stroke-width="0.5"/></g></g></svg>