<svg version="1.1" xmlns="http://www.w3.org/2000/svg" xmlns:xlink="http://www.w3.org/1999/xlink" width="87.62467" height="312.17011" viewBox="0,0,87.62467,312.17011"><defs><linearGradient x1="295.36625" y1="144.11813" x2="293.83561" y2="250.51297" gradientUnits="userSpaceOnUse" id="color-1"><stop offset="0" stop-color="#55389c"/><stop offset="1" stop-color="#3c50a8"/></linearGradient><linearGradient x1="340.40225" y1="144.11813" x2="341.93289" y2="250.51297" gradientUnits="userSpaceOnUse" id="color-2"><stop offset="0" stop-color="#55389c"/><stop offset="1" stop-color="#3c50a8"/></linearGradient><linearGradient x1="319.65336" y1="140.53478" x2="319.65336" y2="205.48915" gradientUnits="userSpaceOnUse" id="color-3"><stop offset="0" stop-color="#55389c"/><stop offset="1" stop-color="#3c50a8"/></linearGradient><linearGradient x1="279.24394" y1="102.41547" x2="323.24993" y2="102.41547" gradientUnits="userSpaceOnUse" id="color-4"><stop offset="0" stop-color="#887aff"/><stop offset="1" stop-color="#e27aff"/></linearGradient><linearGradient x1="357.29883" y1="102.68814" x2="313.29284" y2="102.68814" gradientUnits="userSpaceOnUse" id="color-5"><stop offset="0" stop-color="#887aff"/><stop offset="1" stop-color="#e27aff"/></linearGradient></defs><g transform="translate(-273.94752,-23.91494)"><g data-paper-data="{&quot;isPaintingLayer&quot;:true}" fill-rule="nonzero" stroke-linejoin="miter" stroke-miterlimit="10" stroke-dasharray="" stroke-dashoffset="0" style="mix-blend-mode: normal"><path d="M279.54973,98.1097c-0.20491,-0.86603 -2.31584,-2.54107 -2.46747,-3.97961c-1.04968,-9.95886 -1.88474,-32.73006 -1.88474,-40.42903c0,-2.92621 20.24744,-28.53611 22.24849,-28.53611c0.14969,0 1.62162,12.50404 4.35214,27.30122c3.61453,19.58775 8.70676,42.82991 8.70676,42.82991c0,0 -30.65121,4.09835 -30.95519,2.81363z" fill="#947aff" stroke="#250077" stroke-width="2.5" stroke-linecap="butt"/><path d="M325.0148,99.64903c0,0 5.09223,-23.24216 8.70675,-42.8299c2.73052,-14.79718 4.20245,-27.30122 4.35215,-27.30122c2.00105,0 22.24849,25.6099 22.24849,28.53611c0,7.69898 -0.83506,30.47017 -1.88475,40.42904c-0.15163,1.43854 -2.26255,3.11358 -2.46746,3.97961c-0.30397,1.28472 -30.95519,-2.81363 -30.95519,-2.81363z" data-paper-data="{&quot;index&quot;:null}" fill="#947aff" stroke="#250077" stroke-width="2.5" stroke-linecap="butt"/><path d="M283.34421,260.63595c0,-8.28128 6.71331,-14.99459 14.9946,-14.99459c8.28129,0 14.9946,6.71331 14.9946,14.99459c0,8.28129 -6.71331,14.9946 -14.9946,14.9946c-8.28129,0 -14.9946,-6.71331 -14.9946,-14.9946z" fill="#c2bfff" stroke="#250077" stroke-width="2.5" stroke-linecap="butt"/><path d="M337.4297,275.63055c-8.28129,0 -14.9946,-6.71331 -14.9946,-14.9946c0,-8.28128 6.71331,-14.99459 14.9946,-14.99459c8.28129,0 14.9946,6.71331 14.9946,14.99459c0,8.28129 -6.71331,14.9946 -14.9946,14.9946z" data-paper-data="{&quot;index&quot;:null}" fill="#c2bfff" stroke="#250077" stroke-width="2.5" stroke-linecap="butt"/><path d="M303.86936,264.685c-11.35141,-0.1633 -26.01248,-3.43941 -25.95484,-7.44579c0.01018,-0.70739 5.42845,-16.01653 5.88027,-18.86455c5.08298,-32.04019 16.5033,-94.18557 25.0874,-94.06208c11.35141,0.16331 6.33858,120.53572 -5.01283,120.37242z" fill="url(#color-1)" stroke="#250077" stroke-width="2.5" stroke-linecap="butt"/><path d="M326.88631,144.31258c8.5841,-0.12349 20.00441,62.02189 25.0874,94.06208c0.45182,2.84803 5.87009,18.15716 5.88027,18.86455c0.05764,4.00638 -14.60343,7.28248 -25.95484,7.44579c-11.35141,0.1633 -16.36424,-120.20911 -5.01283,-120.37242z" data-paper-data="{&quot;index&quot;:null}" fill="url(#color-2)" stroke="#250077" stroke-width="2.5" stroke-linecap="butt"/><path d="M347.96538,315.71635c0,13.03605 -19.25788,10.51682 -26.96722,1.89608c-2.17554,-2.43273 -1.82662,-7.59805 -1.82662,-10.29161c0,-1.17081 -1.86919,-112.14019 -0.28395,-112.14019c1.54299,0 13.78351,0.33292 15.04447,5.13172c0.93604,3.56223 14.03332,100.45126 14.03332,115.404z" data-paper-data="{&quot;index&quot;:null}" fill="#3b276d" stroke="#250077" stroke-width="2.5" stroke-linecap="butt"/><path d="M356.2635,325.87908c0,9.65749 -36.61656,10.49658 -36.61656,0c0,-0.26074 0.35475,-7.49312 0.36664,-7.74795c0.46673,-10.00383 8.93981,-8.46795 18.98783,-8.46795c3.54447,0 8.43667,0.67676 11.04228,1.99194c4.96904,2.50813 6.21981,7.3381 6.21981,14.22396z" data-paper-data="{&quot;index&quot;:null}" fill="#6770bb" stroke="#250077" stroke-width="2.5" stroke-linecap="butt"/><path d="M303.26723,201.70726c1.26096,-4.79879 13.50148,-5.13171 15.04447,-5.13171c1.58524,0 -0.28395,110.96938 -0.28395,112.14019c0,2.69355 0.34892,7.85887 -1.82662,10.2916c-7.70933,8.62074 -26.96721,11.13997 -26.96721,-1.89608c0,-14.95273 13.09727,-111.84177 14.03331,-115.404z" fill="#3b276d" stroke="#250077" stroke-width="2.5" stroke-linecap="butt"/><path d="M303.94263,163.33747c-0.04255,-3.78184 1.95078,-15.53232 3.13229,-17.18726c2.23653,-3.13269 6.16547,-5.4458 10.0592,-5.60441c4.59728,-0.18727 8.75657,2.03752 11.14386,4.55668c1.31745,1.39022 4.57348,12.47845 4.80917,17.73853c0.03176,0.70884 -0.16798,17.53155 -0.48946,17.6693c-0.09484,0.04063 2.05874,11.44831 3.60486,17.74338c0.65012,2.64699 -1.94615,5.65714 -6.94239,7.03116c-3.88366,1.06805 -23.44992,-2.39711 -25.38762,-2.44853c-2.51091,-0.06664 1.23859,-20.83109 1.16828,-22.85398c-0.11731,-3.37488 -1.02784,-10.39257 -1.09819,-16.64486z" fill="url(#color-3)" stroke="#250077" stroke-width="2.5" stroke-linecap="butt"/><path d="M318.75443,127.54792c4.14101,0 7.49796,5.61776 7.49796,12.54761c0,6.92985 -14.99592,6.92985 -14.99592,0c0,-6.92986 3.35695,-12.54761 7.49796,-12.54761z" fill="#c2bfff" stroke="#250077" stroke-width="2.5" stroke-linecap="butt"/><path d="M276.59483,95.0263c0,-22.88031 18.54816,-41.42848 41.42848,-41.42848c22.88031,0 41.42848,18.54816 41.42848,41.42848c0,22.88031 -18.54816,41.42848 -41.42848,41.42848c-22.88031,0 -41.42848,-18.54816 -41.42848,-41.42848z" fill="#c2bfff" stroke="#250077" stroke-width="2.5" stroke-linecap="butt"/><path d="M287.15561,313.05006c2.60561,-1.31519 7.49781,-1.99195 11.04228,-1.99195c10.04802,0 18.5211,-1.53588 18.98783,8.46795c0.01189,0.25484 0.36664,7.48721 0.36664,7.74795c0,10.49658 -36.61656,9.65749 -36.61656,0c0,-6.88585 1.25077,-11.71582 6.21981,-14.22395z" fill="#6770bb" stroke="#250077" stroke-width="2.5" stroke-linecap="butt"/><g fill="none" stroke="#fdf7ff" stroke-width="2" stroke-linecap="round"><path d="M304.13518,168.77084l11.58239,0.68124"/><path d="M322.06313,164.07239c0,0 2.79931,-2.71308 5.76153,-2.92249c2.98503,-0.21108 4.0774,2.11926 4.0774,2.11926"/><path d="M329.77247,180.0441l-23.93296,-0.61382"/></g><path d="M309.55849,172.07129c0,-0.69036 0.55964,-1.25 1.25,-1.25c0.69036,0 1.25,0.55964 1.25,1.25c0,0.69036 -0.55964,1.25 -1.25,1.25c-0.69036,0 -1.25,-0.55964 -1.25,-1.25z" fill="#ffffff" stroke="none" stroke-width="0.5" stroke-linecap="butt"/><path d="M324.82752,170.16266c0,-0.69036 0.55964,-1.25 1.25,-1.25c0.69036,0 1.25,0.55964 1.25,1.25c0,0.69036 -0.55964,1.25 -1.25,1.25c-0.69036,0 -1.25,-0.55964 -1.25,-1.25z" fill="#ffffff" stroke="none" stroke-width="0.5" stroke-linecap="butt"/><path d="M285.35444,47.10483c0,-5.97331 14.61667,-10.81564 32.64725,-10.81564c18.03058,0 32.64725,4.84233 32.64725,10.81564c0,5.97331 -14.61667,10.81564 -32.64725,10.81564c-18.03058,0 -32.64725,-4.84233 -32.64725,-10.81563zM317.66511,55.19239c14.41207,0 26.09536,-3.87053 26.09536,-8.64508c0,-4.77454 -11.68329,-8.64507 -26.09536,-8.64507c-14.41207,0 -26.09536,3.87053 -26.09536,8.64507c0,4.77454 11.68329,8.64508 26.09536,8.64508z" fill="#7ae7ff" stroke="#250077" stroke-width="2.5" stroke-linecap="butt"/><g stroke-width="2" stroke-linecap="butt"><path d="M285.09903,109.68807c0,1.47644 0.25179,7.88971 -1.7629,7.88971c-0.61181,0 -7.63308,-6.11284 -7.63308,-8.92108c0,-1.71264 1.16622,-5.10508 2.9321,-5.10508c3.56991,0 6.46388,2.74737 6.46388,6.13644z" fill="#250077" stroke="none"/><path d="M279.24394,102.41547c0,-0.65137 27.69017,-0.33339 37.59608,-0.07926c2.15785,0.05536 1.40987,12.18767 -2.4413,16.35814c-3.20044,3.46578 -7.63653,5.60432 -13.15179,5.60432c-12.15193,0 -22.00299,-9.79741 -22.00299,-21.88316z" fill="url(#color-4)" stroke="#250077"/><path d="M292.17165,102.68679c0,-0.44084 17.56295,-0.7243 17.56295,-0.32479c0,6.71665 -4.13161,12.48643 -9.32844,12.48643c-5.19684,0 -8.23449,-5.44495 -8.23449,-12.16161z" fill="#ffffff" stroke="#250077"/></g><g data-paper-data="{&quot;index&quot;:null}" stroke-width="2" stroke-linecap="butt"><path d="M357.90762,103.82429c1.76587,0 2.9321,3.39244 2.9321,5.10508c0,2.80824 -7.02127,8.92107 -7.63308,8.92107c-2.01468,0 -1.76289,-6.41326 -1.76289,-7.88971c0,-3.38908 2.89397,-6.13644 6.46387,-6.13644z" fill="#250077" stroke="none"/><path d="M357.29883,102.68819c0,12.08575 -9.85105,21.88316 -22.00299,21.88316c-5.51526,0 -9.95136,-2.13855 -13.15179,-5.60433c-3.85118,-4.17047 -4.59915,-16.30278 -2.4413,-16.35814c9.90591,-0.25414 37.59608,-0.57211 37.59608,0.07926z" fill="url(#color-5)" stroke="#250077"/><path d="M344.37111,102.95948c0,6.71667 -3.03765,12.16161 -8.23449,12.16161c-5.19684,0 -9.32844,-5.76978 -9.32844,-12.48643c0,-0.39951 17.56295,-0.11605 17.56295,0.32479z" fill="#ffffff" stroke="#250077"/></g><path d="M339.93698,126.01029c0,0 -3.75909,2.76656 -9.37673,4.81821c-3.1211,1.13987 -7.36122,-0.66754 -11.30376,-0.56609c-4.22082,0.10861 -6.96455,2.34661 -11.01377,1.15038c-5.63272,-1.66402 -9.20491,-4.0392 -9.20491,-4.0392" fill="none" stroke="#250077" stroke-width="2.5" stroke-linecap="round"/></g></g></svg>