<svg version="1.1" xmlns="http://www.w3.org/2000/svg" xmlns:xlink="http://www.w3.org/1999/xlink" width="97.88579" height="97.88579" viewBox="0,0,97.88579,97.88579"><g transform="translate(-271.05711,-131.05713)"><g data-paper-data="{&quot;isPaintingLayer&quot;:true}" fill-rule="nonzero" stroke-linecap="butt" stroke-linejoin="miter" stroke-miterlimit="10" stroke-dasharray="" stroke-dashoffset="0" style="mix-blend-mode: normal"><path d="M330.49827,164.88634c0,1.89685 1.44617,3.43455 3.23012,3.43455c1.54587,0 3.23012,-3.18141 3.23012,-3.43455c0,-0.77297 -2.17314,-3.43455 -3.23012,-3.43455c-1.78394,0 -3.23012,1.5377 -3.23012,3.43455z" fill="#829479" stroke="#644b37" stroke-width="2.5"/><path d="M329.42648,192.86852c0,-1.89685 1.44617,-3.43455 3.23012,-3.43455c1.54587,0 3.23012,3.18141 3.23012,3.43455c0,0.77297 -2.17314,3.43455 -3.23012,3.43455c-1.78394,0 -3.23012,-1.5377 -3.23012,-3.43455z" data-paper-data="{&quot;index&quot;:null}" fill="#829479" stroke="#644b37" stroke-width="2.5"/><path d="M333.0333,169.13864c0,1.89685 1.44617,3.43455 3.23012,3.43455c1.54587,0 3.23012,-3.18141 3.23012,-3.43455c0,-0.77297 -2.17314,-3.43455 -3.23012,-3.43455c-1.78394,0 -3.23012,1.5377 -3.23012,3.43455z" fill="#829479" stroke="#644b37" stroke-width="2.5"/><path d="M331.96151,188.75083c0,-1.89685 1.44617,-3.43455 3.23012,-3.43455c1.54587,0 3.23012,3.18141 3.23012,3.43455c0,0.77297 -2.17314,3.43455 -3.23012,3.43455c-1.78394,0 -3.23012,-1.5377 -3.23012,-3.43455z" data-paper-data="{&quot;index&quot;:null}" fill="#829479" stroke="#644b37" stroke-width="2.5"/><path d="M335.6501,174.69935c0,1.89685 1.44617,3.43455 3.23012,3.43455c1.54587,0 3.23012,-3.18141 3.23012,-3.43455c0,-0.77297 -2.17314,-3.43455 -3.23012,-3.43455c-1.78394,0 -3.23012,1.5377 -3.23012,3.43455z" fill="#829479" stroke="#644b37" stroke-width="2.5"/><path d="M334.53778,185.07472c0,-1.89685 1.44617,-3.43455 3.23012,-3.43455c1.54587,0 3.23012,3.18141 3.23012,3.43455c0,0.77297 -2.17314,3.43455 -3.23012,3.43455c-1.78394,0 -3.23012,-1.5377 -3.23012,-3.43455z" data-paper-data="{&quot;index&quot;:null}" fill="#829479" stroke="#644b37" stroke-width="2.5"/><path d="M336.3043,180.66893c0,-1.89685 1.44617,-3.43455 3.23012,-3.43455c1.54587,0 3.23012,3.18141 3.23012,3.43455c0,0.77297 -2.17314,3.43455 -3.23012,3.43455c-1.78394,0 -3.23012,-1.5377 -3.23012,-3.43455z" data-paper-data="{&quot;index&quot;:null}" fill="#829479" stroke="#644b37" stroke-width="2.5"/><path d="M368.94291,228.94292h-97.88579v-97.88579h97.88579z" fill="none" stroke="none" stroke-width="0"/><path d="M322.72407,168.13761c-4.26566,-0.67253 -16.62446,-1.38583 -16.02765,-5.17125c0.59682,-3.78542 8.50054,-11.98982 20.21518,-10.19484c4.26854,0.65404 5.21357,5.94427 4.61676,9.72969c-0.59681,3.78542 -4.53862,6.30893 -8.80428,5.6364z" fill="#70945c" stroke="#644b37" stroke-width="2.5"/><path d="M322.92816,190.68837c4.26566,-0.67253 8.20748,1.85098 8.80429,5.63639c0.59681,3.78542 -0.84168,7.03458 -5.11022,7.68863c-11.71464,1.79498 -19.12491,-4.36836 -19.72173,-8.15378c-0.59681,-3.78542 11.76199,-4.49872 16.02765,-5.17125z" data-paper-data="{&quot;index&quot;:null}" fill="#b5947e" stroke="#644b37" stroke-width="2.5"/><path d="" fill="#8b65ae" stroke="#5c00aa" stroke-width="2.5"/><path d="" fill="#a17cc4" stroke="#5c00aa" stroke-width="2.5"/><path d="" data-paper-data="{&quot;index&quot;:null}" fill="#b867ff" stroke="#5c00aa" stroke-width="2.5"/><path d="" data-paper-data="{&quot;index&quot;:null}" fill="#ffc374" stroke="none" stroke-width="0"/><path d="" data-paper-data="{&quot;index&quot;:null}" fill="none" stroke="#5c00aa" stroke-width="2.5"/><path d="" fill="#a17cc4" stroke="#5c00aa" stroke-width="2.5"/><path d="M318.71431,199.99221c-4.61192,0 -13.55837,-5.27529 -14.16102,-5.88001c-3.60355,-3.61594 -5.83121,-8.60393 -5.83121,-14.11221c0,-4.99499 1.70409,-9.56214 4.7326,-13.06629c0.47562,-0.55032 9.99768,-6.92593 15.25963,-6.92593c3.55857,0 10.86244,2.03751 14.74796,6.86202c0.4885,0.60655 0.60648,4.93921 1.41454,7.80647c0.65454,2.3225 2.06933,3.24425 2.06933,3.91864c0,0.19042 -1.3762,1.84006 -1.88026,4.28588c-0.70515,3.42156 -0.68147,8.03452 -1.41266,9.15895c-3.60781,5.54808 -9.73977,7.95249 -14.93891,7.95249z" fill="#b5947e" stroke="#644b37" stroke-width="2.5"/><path d="M324.97336,179.9377c-0.72645,0 -3.36391,6.75314 -7.13082,5.68676c-2.46564,-0.698 -6.51031,-10.07583 -7.00812,-8.34078c-0.52753,1.83865 -4.93999,8.13214 -4.30281,10.70593c0.84859,3.42772 6.79939,9.53957 5.45887,10.04725c-1.31119,0.49657 -10.32167,-2.86424 -10.99334,-6.93604c-0.33857,-2.05253 6.35537,-11.72057 5.57184,-12.65739c-2.95472,-3.53285 -8.23011,1.64174 -8.23011,0.15148c0,-4.61713 1.90876,-10.65458 4.68606,-14.15454c0.14524,-0.18303 2.99904,-0.36771 7.05907,-1.9528c2.29368,-0.89549 5.58112,-3.62941 7.48068,-3.62941c2.7474,0 11.75564,0.27377 16.22664,2.73525c1.32006,0.72675 -0.3206,1.87742 0.56509,2.97716c0.4885,0.60655 2.26704,4.81147 3.07511,7.67872c0.05598,0.19864 1.60953,0.63504 1.71124,1.73478c0.05924,0.64057 1.69785,2.98468 0.65366,6.30395c-0.19831,0.6304 -0.30745,5.95298 -1.07501,6.85643c-1.71342,2.01677 -4.41726,0.45873 -4.54968,1.10124c-0.70515,3.42156 -1.57562,-13.29734 -2.30681,-12.17292c-3.60781,5.54808 -1.69242,3.86494 -6.89156,3.86494z" fill="#70945c" stroke="#644b37" stroke-width="2.5"/><path d="" data-paper-data="{&quot;index&quot;:null}" fill="#644b37" stroke="none" stroke-width="0"/><path d="M335.56859,180.69178c0,-1.93474 0.4797,-3.50316 1.07143,-3.50316c0.59174,0 1.68368,1.56842 1.68368,3.50316c0,1.93472 -1.09195,3.50314 -1.68368,3.50314c-0.59174,0 -1.07143,-1.5684 -1.07143,-3.50314z" fill="#644b37" stroke="none" stroke-width="0"/><path d="M319.3784,189.50554c0,3.80951 3.69642,8.30283 7.1532,8.30283c3.45678,0 8.81377,-6.9203 8.81377,-10.7298c0,-3.80951 -2.80227,-6.89773 -6.25905,-6.89773c-3.45678,0 -9.70792,5.5152 -9.70792,9.32471z" fill="#644b37" stroke="none" stroke-width="0"/><path d="M321.03897,169.4596c0,-3.80951 3.95189,-10.21886 7.40867,-10.21886c3.45678,0 9.06924,7.81445 9.06924,11.62396c0,3.80951 -2.80227,6.89773 -6.25905,6.89773c-3.45678,0 -10.21886,-4.49332 -10.21886,-8.30283z" data-paper-data="{&quot;index&quot;:null}" fill="#644b37" stroke="none" stroke-width="0"/><path d="M330.36367,169.00395c0,-1.02292 0.82925,-1.85217 1.85217,-1.85217c1.02292,0 1.85217,0.82924 1.85217,1.85217c0,1.02292 -0.82925,1.85217 -1.85217,1.85217c-1.02292,0 -1.85217,-0.82925 -1.85217,-1.85217z" fill="#96ff5d" stroke="none" stroke-width="0"/><path d="M334.96216,169.06782c0,0.42328 -0.94362,0.76641 -2.10764,0.76641c-1.16402,0 -2.10764,-0.34313 -2.10764,-0.76641c0,-0.42328 0.94362,-0.76642 2.10764,-0.76642c1.16402,0 2.10764,0.34314 2.10764,0.76642z" fill="#644b37" stroke="none" stroke-width="0"/><path d="M321.41336,189.62006c0,3.02133 2.72902,6.52774 5.47061,6.52774c2.74158,0 7.19285,-5.43125 7.19285,-8.45258c0,-3.02133 -2.22249,-5.47061 -4.96407,-5.47061c-2.74158,0 -7.69939,4.37412 -7.69939,7.39546z" fill="#f7fffa" stroke="none" stroke-width="0"/><path d="M321.58612,189.66408c0,2.96096 2.80682,6.48682 5.49362,6.48682c2.6868,0 6.91681,-5.41224 6.91681,-8.3732c0,-2.96096 -2.17809,-5.36131 -4.86489,-5.36131c-2.6868,0 -7.54554,4.28673 -7.54554,7.24769z" fill="#644b37" stroke="none" stroke-width="0"/></g></g></svg>