<svg version="1.1" xmlns="http://www.w3.org/2000/svg" xmlns:xlink="http://www.w3.org/1999/xlink" width="31.08333" height="46.66667" viewBox="0,0,31.08333,46.66667"><g transform="translate(-304.45833,-156.66668)"><g data-paper-data="{&quot;isPaintingLayer&quot;:true}" fill-rule="nonzero" stroke-linejoin="miter" stroke-miterlimit="10" stroke-dasharray="" stroke-dashoffset="0" style="mix-blend-mode: normal"><g stroke="#05ffd1" stroke-width="4.5"><path d="M326.74604,161.7765c0,0 1.1278,0.45358 1.46123,0.61363c0.37082,0.17799 0.81272,0.7266 0.81272,0.7266" fill="#e66363" stroke-linecap="round"/><path d="M309.00586,194.11393c0,0 1.06525,-4.13277 1.0897,-4.18043c2.68633,-5.23665 15.19694,-27.5811 15.19694,-27.5811c0,0 2.60637,-1.36816 2.8578,-1.39531c0.10397,-0.01123 0.33889,-0.37756 0.77999,-0.56383c0.41258,-0.17422 1.02286,-0.16998 1.38872,-0.15711c0.757,0.02665 1.22396,0.66644 1.32607,0.94827c0.11392,0.31448 0.25243,0.75896 0.32659,1.38303c0.06245,0.52547 -0.15086,1.36066 -0.12239,1.54301c0.05462,0.34974 -1.02138,2.78347 -1.02138,2.78347c0,0 -9.56044,19.51388 -12.19603,24.78759c-1.23735,2.47589 -2.90557,5.43009 -2.90557,5.43009c0,0 -5.69398,0.15349 -6.48536,-0.25231c-1.11969,-0.57415 -0.23509,-2.74538 -0.23509,-2.74538z" fill="none" stroke-linecap="butt"/><path d="M316.50426,194.50695c0,0 -0.14056,1.17034 -0.35127,1.75477c-0.23156,0.64229 -0.98146,1.9418 -0.98146,1.9418" fill="none" stroke-linecap="round"/><path d="M309.20439,191.79158c0.19393,-0.84483 0.74199,-1.53473 1.69573,-1.93567c1.96447,-0.82584 3.45497,-0.04362 4.86212,2.0112c0.62799,0.91705 0.85179,1.88292 0.70996,2.7354" fill="none" stroke-linecap="butt"/><path d="M323.51993,163.89415c0,0 2.41067,0.1536 4.45976,1.5432c1.24149,0.84192 2.85681,2.56763 2.85681,2.56763" fill="none" stroke-linecap="round"/><path d="M320.91758,168.9692c0,0 2.57552,0.66543 4.6246,2.05503c1.24149,0.84192 2.56615,2.76567 2.56615,2.76567" fill="none" stroke-linecap="round"/><path d="M314.65549,194.47257c1.33961,1.95621 0.83995,4.13462 -1.12452,4.96045c-1.96447,0.82584 -3.89084,0.11872 -4.91812,-1.98766c-1.02729,-2.10638 -0.78395,-4.15817 1.18052,-4.984c1.96447,-0.82584 3.45497,-0.04361 4.86212,2.01121z" fill="none" stroke-linecap="butt"/><path d="M308.05906,194.58897c0,0 0.08263,-1.37296 0.65103,-2.41308c0.45608,-0.83458 1.49602,-1.89275 1.94044,-2.16239c1.51383,-0.91848 3.1462,-0.10475 3.1462,-0.10475" fill="none" stroke-linecap="round"/></g><path d="M309.00586,194.11391c0,0 1.06525,-4.13277 1.0897,-4.18043c2.68633,-5.23665 15.19694,-27.5811 15.19694,-27.5811c0,0 2.60637,-1.36816 2.8578,-1.39531c0.10397,-0.01123 0.33889,-0.37756 0.77999,-0.56383c0.41258,-0.17422 1.02286,-0.16998 1.38872,-0.15711c0.757,0.02665 1.22396,0.66644 1.32607,0.94827c0.11392,0.31448 0.25243,0.75896 0.32659,1.38303c0.06245,0.52547 -0.15086,1.36066 -0.12239,1.54301c0.05462,0.34974 -1.02138,2.78347 -1.02138,2.78347c0,0 -9.56044,19.51388 -12.19603,24.78759c-1.23735,2.47589 -2.90557,5.43009 -2.90557,5.43009c0,0 -5.69398,0.15349 -6.48536,-0.25231c-1.11969,-0.57415 -0.23509,-2.74538 -0.23509,-2.74538z" fill="#37c0aa" stroke="#042d39" stroke-width="2" stroke-linecap="butt"/><path d="M326.74604,161.77649c0,0 1.1278,0.45358 1.46123,0.61363c0.37082,0.17799 0.81272,0.7266 0.81272,0.7266" fill="#e66363" stroke="#042d39" stroke-width="1.5" stroke-linecap="round"/><path d="M315.76223,191.86708c1.33961,1.95621 0.83996,4.13463 -1.12451,4.96046c-1.96447,0.82584 -3.89085,0.11871 -4.91813,-1.98766c-1.02729,-2.10637 -0.78395,-4.15817 1.18052,-4.984c1.96447,-0.82584 3.45497,-0.04362 4.86212,2.0112z" fill="#37c0aa" stroke="#169178" stroke-width="2" stroke-linecap="butt"/><path d="M314.65549,194.47255c1.33961,1.95621 0.83995,4.13462 -1.12452,4.96045c-1.96447,0.82584 -3.89084,0.11872 -4.91812,-1.98766c-1.02729,-2.10638 -0.78395,-4.15817 1.18052,-4.984c1.96447,-0.82584 3.45497,-0.04361 4.86212,2.01121z" fill="#37c0aa" stroke="#169178" stroke-width="2" stroke-linecap="butt"/><path d="M316.50426,194.50693c0,0 -0.14056,1.17034 -0.35127,1.75477c-0.23156,0.64229 -0.98146,1.9418 -0.98146,1.9418" fill="none" stroke="#042d39" stroke-width="2" stroke-linecap="round"/><path d="M328.16436,166.30496c0,2.07107 -3.9782,6.35 -5.925,6.35c-1.9468,0 -2.025,-0.37893 -2.025,-2.45c0,-1.18242 1.37517,-2.03116 2.40268,-3.57162c0.77223,-1.15774 1.08699,-3.22838 1.92232,-3.22838c1.9468,0 3.625,0.82893 3.625,2.9z" fill="#196062" stroke="none" stroke-width="0" stroke-linecap="butt"/><path d="M322.64207,167.56132c-0.29629,-0.91996 0.20929,-1.90593 1.12926,-2.20222c0.91996,-0.29629 1.90593,0.20929 2.20222,1.12926c0.29629,0.91996 -0.20929,1.90593 -1.12926,2.20222c-0.91996,0.29629 -1.90593,-0.20929 -2.20222,-1.12925z" fill="#042d39" stroke="none" stroke-width="0.5" stroke-linecap="butt"/><path d="M304.45833,203.33335v-46.66667h31.08333v46.66667z" fill="none" stroke="none" stroke-width="NaN" stroke-linecap="butt"/><path d="M323.25548,180.93053c0,2.93401 -4.53999,11.26262 -5.70671,11.44381c-1.29089,0.20047 0.14611,-7.20803 0.14611,-10.14204c0,-2.93401 5.49679,-5.53977 7.30113,-5.53977c1.80434,0 0.0928,-1.08489 0.0928,1.84912z" fill="#196062" stroke="none" stroke-width="0" stroke-linecap="butt"/><path d="M320.91758,168.96918c0,0 2.57552,0.66543 4.6246,2.05503c1.24149,0.84192 2.56615,2.76567 2.56615,2.76567" fill="#e66363" stroke="#042d39" stroke-width="2" stroke-linecap="round"/><path d="M323.51993,163.89413c0,0 2.41067,0.1536 4.45976,1.5432c1.24149,0.84192 2.85681,2.56763 2.85681,2.56763" fill="#e66363" stroke="#042d39" stroke-width="2" stroke-linecap="round"/><path d="M311.4473,187.37958c4.15518,-7.7204 13.84522,-25.02721 13.84522,-25.02721c0,0 2.60637,-1.36816 2.8578,-1.39531c0.10397,-0.01123 0.33889,-0.37756 0.77999,-0.56383c0.41258,-0.17422 1.02286,-0.16998 1.38872,-0.15711c0.757,0.02665 1.22396,0.66644 1.32607,0.94827c0.11392,0.31448 0.25243,0.75896 0.32659,1.38303c0.06245,0.52547 -0.15086,1.36066 -0.12239,1.54301c0.05462,0.34974 -1.02138,2.78347 -1.02138,2.78347c0,0 -9.56044,19.51388 -12.19603,24.78759c-0.18418,0.36854 -1.67791,3.09768 -1.87427,3.4761" fill="none" stroke="#042d39" stroke-width="2" stroke-linecap="butt"/><path d="M319.19597,173.00979c1.61374,-2.08208 4.92154,-0.34771 3.40031,2.13018c-0.05449,0.32553 -0.85615,1.14025 -1.64126,1.21302c-0.78511,0.07277 -1.48357,-0.13354 -1.75106,-0.96408c-0.01722,-0.05348 -0.03173,-0.10718 -0.04361,-0.16096c-0.43219,-0.6526 -0.55593,-1.45494 0.03562,-2.21816z" fill="#042d39" stroke="none" stroke-width="0.5" stroke-linecap="butt"/><path d="M312.04994,192.45923c0,0.45731 2.77544,0.74826 2.62823,1.26375c-0.45202,1.58286 -4.37877,3.40142 -5.59698,3.40142c-1.61494,0 -1.09375,-2.49118 -1.09375,-4.35268c0,-1.8615 2.42524,-2.92411 4.04018,-2.92411c1.61494,0 0.02232,0.75011 0.02232,2.61161z" fill="#196062" stroke="none" stroke-width="0" stroke-linecap="butt"/><path d="M308.06505,195.12222c0,0 0.11544,-1.7005 0.39948,-2.41062c0.26406,-0.66018 1.07432,-1.75193 1.07432,-1.75193" fill="none" stroke="#042d39" stroke-width="2" stroke-linecap="round"/><path d="M311.07043,194.15971c0.09896,-0.03707 0.20327,-0.0602 0.31076,-0.07072c0.37177,-0.05677 0.74185,0.03348 1.04048,0.23496c0.76124,0.40254 1.33554,1.24603 0.92221,2.05208c-0.62723,1.22319 -2.34235,1.69509 -2.84683,0.12875c-0.12786,-0.14597 -0.22869,-0.31988 -0.29196,-0.51635c-0.22075,-0.68541 0.08976,-1.41455 0.70322,-1.74223c0.04847,-0.0349 0.1022,-0.06405 0.16211,-0.08649z" fill="#042d39" stroke="none" stroke-width="0.5" stroke-linecap="butt"/><path d="M309.17222,191.95135c0.15932,-0.91747 0.71469,-1.66953 1.72789,-2.09547c1.96447,-0.82584 3.45497,-0.04362 4.86212,2.0112c0.663,0.96817 0.87548,1.99078 0.68283,2.8769" fill="none" stroke="#042d39" stroke-width="2" stroke-linecap="butt"/><path d="M314.65549,194.47255c1.33961,1.95621 0.83995,4.13462 -1.12452,4.96045c-1.96447,0.82584 -3.89084,0.11872 -4.91812,-1.98766c-1.02729,-2.10638 -0.78395,-4.15817 1.18052,-4.984c1.96447,-0.82584 3.45497,-0.04361 4.86212,2.01121z" fill="none" stroke="#042d39" stroke-width="2" stroke-linecap="butt"/><path d="M314.7813,182.91298c3.09958,-1.81713 3.50054,2.14804 1.74966,3.89319c-2.33141,2.32378 -4.49049,-1.8242 -1.98009,-3.66741z" fill="#042d39" stroke="none" stroke-width="0.5" stroke-linecap="butt"/><path d="M317.27925,177.60275c2.82351,-1.75669 4.56895,1.48923 2.40817,3.46983c-2.96717,2.71974 -4.75617,-1.15385 -2.41222,-3.4506z" fill="#042d39" stroke="none" stroke-width="0.5" stroke-linecap="butt"/></g></g></svg>