<svg version="1.1" xmlns="http://www.w3.org/2000/svg" xmlns:xlink="http://www.w3.org/1999/xlink" width="420.42042" height="243.24324" viewBox="0,0,420.42042,243.24324"><g transform="translate(-60.99099,-98.91892)"><g data-paper-data="{&quot;isPaintingLayer&quot;:true}" fill-rule="nonzero" stroke-linejoin="miter" stroke-miterlimit="10" stroke-dasharray="" stroke-dashoffset="0" style="mix-blend-mode: normal"><path d="M306.18145,284.49791c3.60314,0 11.65775,4.72105 11.65775,7.50221c0,2.78116 -5.27386,5.03573 -8.877,5.03573c-3.60313,0 -6.09625,-3.89889 -6.09625,-6.68005c0,-2.78116 -0.28764,-5.85789 3.3155,-5.85789z" fill="#a88360" stroke="#5b2300" stroke-width="2.5" stroke-linecap="butt"/><path d="M284.80793,261.06634c0.18399,0 11.45745,23.2487 12.50182,23.04544c0.05156,-0.01004 4.21919,-1.3301 6.98428,0.00285c3.14697,1.51704 6.98304,7.72515 7.24717,8.86482c0.5174,2.23253 -1.58197,3.38885 -1.94763,4.01066c-4.80228,8.16613 -21.17833,7.44519 -24.78564,7.44519c-4.54822,0 -8.23529,-11.22686 -8.23529,-25.07589c0,-13.84903 3.68707,-18.29307 8.23529,-18.29307z" data-paper-data="{&quot;index&quot;:null}" fill="#ed9555" stroke="#5b2300" stroke-width="2.5" stroke-linecap="butt"/><path d="M276.34191,282.23697c0,13.84903 -3.68706,25.07589 -8.23528,25.07589c-3.0255,0 -22.51919,-5.37511 -24.53541,-12.14151c-1.79729,-6.03166 5.50392,-6.74071 5.93622,-6.99513c4.74848,-2.7946 10.36392,-5.48909 10.36392,-5.93924c0,-1.06935 6.37818,-25.07589 8.23528,-25.07589c4.54822,0 8.23528,11.22686 8.23528,25.07589z" fill="#ed9555" stroke="#5b2300" stroke-width="2.5" stroke-linecap="butt"/><path d="M283.98145,265.80026c0,7.2647 8.66872,17.4919 2.4757,17.4919c-0.39745,0 -21.30333,5.53158 -21.8705,0.84253c-0.07979,-0.65968 2.64745,-11.89854 2.64745,-12.73702c0,-2.28965 -1.10322,-10.8797 -0.22627,-12.75477c1.90546,-4.07422 5.15978,-6.13649 9.4009,-6.13649c6.19302,0 7.57272,6.02914 7.57272,13.29385z" fill="#ed9555" stroke="#5b2300" stroke-width="2.5" stroke-linecap="butt"/><path d="M311.13026,298.39398c1.20616,1.94512 5.40059,16.80543 2.57314,17.54517c-1.57037,0.41085 -8.11161,2.16579 -13.22335,2.74126c-1.0265,0.11556 -2.98232,-1.59299 -3.8417,-1.59299c-4.7034,0 -18.40829,-22.72087 -20.08466,-34.28368c-0.12851,-0.88643 6.21645,-2.29655 6.20798,-2.97767c-0.00076,-0.06107 27.44626,17.08052 28.36859,18.56791z" fill="#894225" stroke="#5b2300" stroke-width="2.5" stroke-linecap="butt"/><path d="M286.94554,294.73765c0,-2.48334 -9.38256,-17.29483 -9.29296,-18.51907c0.49144,-6.71494 -1.81929,-13.28633 -1.59252,-15.43869c0.04474,-0.42464 7.61561,-1.33829 8.89069,-1.33829c0.29924,0 1.66261,10.5971 1.7624,15.20564c0.02567,1.1852 13.88637,17.83612 13.57593,18.35758c-1.31545,2.20962 -3.63987,-2.1153 -6.2827,-1.93886c-0.68796,0.04593 -7.06083,5.05376 -7.06083,3.6717z" fill="#ed7b41" stroke="#5b2300" stroke-width="2.5" stroke-linecap="butt"/><path d="M285.19248,256.21976c0,1.43977 3.13293,0.80888 2.40798,1.7695c-1.13775,1.50763 -9.25075,2.42642 -11.2593,2.42642c-6.58312,0 -10.97564,-0.45994 -10.97564,-5.78357c0,-5.32363 3.21234,-11.00011 9.79546,-11.00011c5.46497,0 11.48717,5.9226 12.89416,9.97853c0.1261,0.36353 -2.86266,2.1011 -2.86266,2.60923z" fill="#ed7b41" stroke="#5b2300" stroke-width="2.5" stroke-linecap="butt"/><path d="M248.53446,292.71951l0.85562,-4.31634c0,0 5.15755,0.45261 7.91361,1.23591c2.1592,0.61367 4.51126,2.62191 4.51126,2.62191" fill="none" stroke="#5b2300" stroke-width="2.5" stroke-linecap="round"/><path d="M258.37402,291.28073l-0.64171,3.28865" fill="none" stroke="#5b2300" stroke-width="2.5" stroke-linecap="round"/><path d="M306.71621,286.34777l-4.06417,0.61662" fill="none" stroke="#5b2300" stroke-width="2.5" stroke-linecap="round"/><path d="M306.71622,292.51397l3.63635,-0.82216" fill="none" stroke="#5b2300" stroke-width="2.5" stroke-linecap="round"/><path d="M261.12902,248.1862c0,0 -0.5199,-0.0652 -1.30349,0.16856c-0.91799,0.27385 -0.92906,1.39867 -1.35194,1.46475c-0.62285,0.09732 -1.40592,-0.27953 -1.40592,-0.27953" fill="none" stroke="#5b2300" stroke-width="2.5" stroke-linecap="round"/><path d="M295.33162,246.40438c0,0 -0.51991,-0.06519 -1.3035,0.16857c-0.91799,0.27385 -0.92906,1.39867 -1.35193,1.46475c-0.62286,0.09732 -1.40593,-0.27953 -1.40593,-0.27953" fill="none" stroke="#5b2300" stroke-width="2.5" stroke-linecap="round"/><path d="M60.99099,342.16216v-243.24324h420.42042v243.24324z" fill="none" stroke="none" stroke-width="NaN" stroke-linecap="butt"/><path d="M305.17509,290.13424c11.6554,-3.57256 13.36895,18.26428 12.90821,22.9945c-0.63485,6.51775 -4.89549,8.54489 -9.37597,9.02665c-1.58718,0.17066 -5.83148,-0.01533 -6.36395,-0.06014c-1.28671,-0.10827 -2.31612,-1.92762 -2.99541,-4.65395c-2.03606,-8.17169 -0.92672,-24.49163 5.82712,-27.30706z" fill="#a88360" stroke="#5b2300" stroke-width="2.5" stroke-linecap="butt"/><path d="M252.86728,309.1551c-5.13977,0 -15.41975,-2.78616 -17.21998,-6.69888c-0.49967,-1.086 0.8875,-6.74255 2.72281,-8.21548c2.09636,-1.68244 7.24338,-3.0072 9.57738,-3.0072c7.44255,0 15.40105,4.41013 15.40105,9.35904c0,4.94891 -3.03872,8.56253 -10.48127,8.56253z" fill="#a88360" stroke="#5b2300" stroke-width="2.5" stroke-linecap="butt"/><path d="M286.12406,312.3449c-0.61648,2.23755 -5.02911,3.88206 -8.99906,4.70139c-7.615,1.57161 -17.03996,0.10709 -19.04158,-6.03197c-0.56536,-1.73399 2.23073,-20.98698 5.40451,-32.35388c1.70912,-6.1212 15.29787,-2.03222 15.75539,-0.1468c2.14422,8.83639 6.88074,33.83125 6.88074,33.83125z" fill="#894225" stroke="#5b2300" stroke-width="2.5" stroke-linecap="butt"/><path d="M254.47055,319.89779c0,-2.03124 2.54796,-13.23722 15.40316,-12.37863c8.71819,0.0672 17.3201,5.85835 14.86474,13.89685c-1.28092,4.19357 -7.965,6.49785 -13.90428,6.49785c-6.91093,0 -16.36362,-2.79429 -16.36362,-8.01606z" fill="#a88360" stroke="#5b2300" stroke-width="2.5" stroke-linecap="butt"/><g><path d="M271.98029,207.00137c1.68546,8.94493 -9.82666,33.19877 -15.1206,34.19628c-5.29393,0.99751 -18.12917,-23.56864 -17.96873,-32.40502c0.13027,-7.17525 32.89904,-2.80111 33.08933,-1.79126z" data-paper-data="{&quot;index&quot;:null}" fill="#a88360" stroke="#5b2300" stroke-width="2.5" stroke-linecap="butt"/><path d="M305.8233,197.73618c1.79388,8.65386 -5.7125,36.88656 -11.0996,36.88656c-5.38709,0 -23.20826,-17.91792 -23.20826,-27.02025c0,-1.02761 32.85122,-16.89335 34.30786,-9.86631z" fill="#a88360" stroke="#5b2300" stroke-width="2.5" stroke-linecap="butt"/><path d="M299.33388,230.88367c0,13.58697 -11.01442,24.60139 -24.60139,24.60139c-13.58697,0 -24.60139,-11.01442 -24.60139,-24.60139c0,-13.58697 11.01441,-24.60139 24.60139,-24.60139c13.58697,0 24.60139,11.01441 24.60139,24.60139z" fill="#a88360" stroke="#5b2300" stroke-width="2.5" stroke-linecap="butt"/><path d="M260.22717,240.79649c-0.05579,3.09072 -1.58576,5.56945 -3.4173,5.53639c-0.76816,-0.01387 -8.67765,-4.48171 -8.08652,-5.57239c1.65419,-3.05212 5.92241,-6.69949 6.64908,-6.68637c0.52346,0.00945 4.89458,4.51498 4.85474,6.72237z" fill="#5b2300" stroke="none" stroke-width="0" stroke-linecap="butt"/><path d="M255.39718,237.59823c0,-1.58786 0.25954,-3.10921 0.73463,-4.51576c0.20122,-0.59576 21.12307,-2.74109 21.4197,-2.0067c0.82702,2.04755 1.53689,4.66531 1.53689,6.52246c0,4.68 -1.33766,8.12722 -4.72027,10.41551c-0.16181,0.10946 -3.2751,0.15682 -6.21294,0.51618c-2.75993,0.3376 -5.34964,0.99671 -5.65576,0.84977c-4.18091,-2.00676 -7.10226,-6.45431 -7.10226,-11.78147z" fill="#ffffff" stroke="#5b2300" stroke-width="2.5" stroke-linecap="butt"/><path d="M280.31554,241.19888c0,-3.02808 18.5543,-17.64895 18.5543,-14.62087c0,3.02808 0.64861,7.5135 -0.24012,7.5135c-0.40068,0 -4.0516,4.17929 -8.19792,6.07568c-0.76504,0.34991 7.0563,2.29272 6.32427,2.55578c-0.76593,0.27525 -3.03269,4.55139 -3.70647,4.67872c-2.73566,0.51696 -12.73405,-5.05542 -12.73405,-6.20281z" fill="#5b2300" stroke="none" stroke-width="0" stroke-linecap="butt"/><path d="M268.83981,239.20112c0,0 1.63866,-1.70619 2.63844,-1.40071c1.24279,0.37972 2.45718,2.69793 1.65215,3.53246c-1.95571,2.02738 -6.62886,3.00309 -6.8729,2.24386c-0.2707,-0.84218 -2.66767,-3.4967 -1.9731,-5.44762c0.57511,-1.61538 3.15935,-2.80596 3.15935,-2.80596" fill="none" stroke="#5b2300" stroke-width="2.5" stroke-linecap="round"/><path d="M278.82198,251.11005c0,0 -3.21402,2.70096 -3.6825,2.12094c-0.69351,-0.85863 -2.5802,-2.29988 -2.5802,-2.29988" fill="none" stroke="#5b2300" stroke-width="2.5" stroke-linecap="round"/></g></g></g></svg>