<svg version="1.1" xmlns="http://www.w3.org/2000/svg" xmlns:xlink="http://www.w3.org/1999/xlink" width="162.44375" height="26.08941" viewBox="0,0,162.44375,26.08941"><g transform="translate(-172.00722,-333.79159)"><g data-paper-data="{&quot;isPaintingLayer&quot;:true}" fill-rule="nonzero" stroke-linecap="butt" stroke-linejoin="miter" stroke-miterlimit="10" stroke-dasharray="" stroke-dashoffset="0" style="mix-blend-mode: normal"><path d="M172.00722,357.79159v-24h162.44375v24z" data-paper-data="{&quot;index&quot;:null}" fill-opacity="0.40784" fill="#450031" stroke="none" stroke-width="0"/><text transform="translate(194.22908,353.131) scale(0.5,0.5)" font-size="40" xml:space="preserve" data-paper-data="{&quot;index&quot;:null}" fill="#ffe6fd" fill-rule="nonzero" stroke="none" stroke-width="1" stroke-linecap="butt" stroke-linejoin="miter" stroke-miterlimit="10" stroke-dasharray="" stroke-dashoffset="0" font-family="&quot;Neon&quot;, Sans Serif" font-weight="normal" text-anchor="start" style="mix-blend-mode: normal"><tspan x="0" dy="0">HARD MODE</tspan></text><path d="M178.53926,352.13032c-0.27614,-2.04074 -1.34705,-9.95515 -1.49807,-11.07132c-0.03472,-0.25657 0.14563,-0.48996 0.40517,-0.52508c1.12098,-0.15168 9.01728,-1.22015 11.06202,-1.49682c0.30739,-0.04159 0.51157,0.14924 0.54757,0.41532c0.15419,1.13957 1.23155,8.98488 1.49992,10.96824c0.03858,0.2851 -0.16593,0.59399 -0.44401,0.63162c-1.1554,0.15634 -9.00916,1.21904 -11.03289,1.49288c-0.30262,0.04095 -0.49839,-0.10958 -0.5397,-0.41484z" fill="none" stroke="#ffe6fd" stroke-width="2.5"/><path d="M317.39999,352.13032c-0.27614,-2.04074 -1.34704,-9.95515 -1.49807,-11.07132c-0.03472,-0.25657 0.14563,-0.48996 0.40517,-0.52508c1.12099,-0.15168 9.01728,-1.22015 11.06202,-1.49682c0.30739,-0.04159 0.51156,0.14924 0.54757,0.41532c0.1542,1.13957 1.23155,8.98488 1.49992,10.96824c0.03858,0.2851 -0.16593,0.59399 -0.44401,0.63162c-1.1554,0.15634 -9.00916,1.21904 -11.03289,1.49288c-0.30262,0.04095 -0.4984,-0.10958 -0.5397,-0.41484z" data-paper-data="{&quot;index&quot;:null}" fill="none" stroke="#ffe6fd" stroke-width="2.5"/></g></g></svg>